<svg xmlns="http://www.w3.org/2000/svg" viewBox="0 0 358.77 358.77"><title>Asset 1</title><g id="Layer_2" data-name="Layer 2"><g id="Layer_1-2" data-name="Layer 1"><circle cx="179.39" cy="179.39" r="179.39" style="fill:#ed493e"/><g id="CmrmZH.tif"><path d="M75.3,170.47v-80c.79.11,1.59.3,2.17-.49,13.82-7.57,26.87-16.55,41.27-23,20.14-9,41.14-12.75,63.11-8.36,18.25,3.64,33.71,12.66,47.42,25-9.61,11.14-15,23.91-13.73,38.76s7.08,27.46,19.66,36.28l0-.05a1.86,1.86,0,0,0,1.9,1.24l0-.09,1.16.94-.07,0a1.9,1.9,0,0,0,2,1.16l-.05-.12,1.17,1.08c9.56,6.26,20.35,6.77,31.27,6.74,2.17,19,1.83,37.59-7.78,54.86-7.43,13.36-19.07,22.7-31.55,30.73-25.33,16.3-52.1,30.22-77.95,45.67-3.76,2.24-5.2,1.45-7.16-2.07q-25.67-46.28-51.65-92.37c-6.58-11.71-12.63-23.73-20.09-34.94C76.28,170.72,75.89,170.49,75.3,170.47ZM158,118.2c-10.34-.22-18.27,6.84-27.2,11.4-2.32,1.19-.57,2.92.14,4.23q22.28,40.71,44.58,81.41c1.06,1.95,1.86,2.18,3.71,1,5.81-3.56,11.66-7.08,17.63-10.37,10.14-5.59,13.36-14.87,12.21-25.35C206.88,161,199,143.73,184.89,129.71A38.31,38.31,0,0,0,158,118.2Z" style="fill:#fffdfc"/><path d="M231.35,82.63l1.16-1.09c1.47,0,2.83-.2,2.7-2.2,12.92-10.67,27.84-13.15,43.65-9.47,22.95,5.34,38.07,24.47,38.72,47.83.64,22.9-13.62,42.64-35.92,49.58-3,.93-6.1,1.48-9.16,2.21-10.92,0-21.71-.48-31.27-6.74l-1.17-1.08.05.12c-.19-1.19-1-1.27-2-1.16l.07,0-1.16-.94,0,.09c-.12-1.2-1-1.29-1.9-1.24l0,.05c.05-3-2.49-4.19-4.19-5.85-15.11-14.73-16.48-43-6.72-59.09C226.56,89.93,230.83,87.45,231.35,82.63Zm20.57,26.07c4.69,9,9.14,17.7,13.75,26.3,1.15,2.14-.22,2.49-1.55,3.26-9.53,5.56-9.44,5.53-4.27,15.19,1.27,2.38,2.11,3,4.77,1.54,11.2-6.18,22.48-12.22,33.91-17.92,4.15-2.07,4.11-4,2-7.59-4.84-8.23-4.78-8.51-12.85-3.81-3.74,2.17-5.45,1.79-7.45-2.26-6.39-13-13.23-25.68-20-38.45-.8-1.5-1.08-4.36-4.12-2.6-4.88,2.83-10.85,4.27-12.14,11.25-.42,2.28-2.25,4.43-3.78,6.36-5.74,7.2-5.8,7.16-1.36,15.24a6.89,6.89,0,0,1,.48.88c1.1,3,2.91,2.81,4.81.9C246.69,114.43,249.1,111.73,251.92,108.7Z" style="fill:#fbe951"/><path d="M231.35,82.63c-.52,4.82-4.79,7.3-7.06,11.05-9.76,16.1-8.39,44.36,6.72,59.09,1.7,1.66,4.24,2.88,4.19,5.85-12.58-8.82-18.41-21.45-19.66-36.28s4.12-27.62,13.73-38.76Z" style="fill:#fad459"/><path d="M235.17,158.57c.94,0,1.78,0,1.9,1.24A1.86,1.86,0,0,1,235.17,158.57Z" style="fill:#fad459"/><path d="M238.13,160.63c1-.11,1.79,0,2,1.16A1.9,1.9,0,0,1,238.13,160.63Z" style="fill:#fad459"/><path d="M237,159.72l1.16.94Z" style="fill:#fad459"/><path d="M240.06,161.67l1.17,1.08Z" style="fill:#fad459"/><path d="M235.21,79.34c.13,2-1.23,2.17-2.7,2.2A3,3,0,0,1,235.21,79.34Z" style="fill:#fad459"/><path d="M251.92,108.7c-2.82,3-5.23,5.73-7.78,8.29-1.9,1.91-3.71,2.14-4.81-.9a6.89,6.89,0,0,0-.48-.88c-4.44-8.08-4.38-8,1.36-15.24,1.53-1.93,3.36-4.08,3.78-6.36,1.29-7,7.26-8.42,12.14-11.25,3-1.76,3.32,1.1,4.12,2.6,6.75,12.77,13.59,25.5,20,38.45,2,4,3.71,4.43,7.45,2.26,8.07-4.7,8-4.42,12.85,3.81,2.11,3.59,2.15,5.52-2,7.59-11.43,5.7-22.71,11.74-33.91,17.92-2.66,1.46-3.5.84-4.77-1.54-5.17-9.66-5.26-9.63,4.27-15.19,1.33-.77,2.7-1.12,1.55-3.26C261.06,126.4,256.61,117.71,251.92,108.7Z" style="fill:#2f7fbb"/></g><rect x="52.69" y="90.98" width="62.92" height="62.92" transform="translate(-49.95 58.48) rotate(-30)" style="fill:#fff"/><rect x="65.57" y="112.18" width="62.92" height="62.92" transform="translate(-58.82 67.76) rotate(-30)" style="fill:#fff"/></g></g></svg>