<svg xmlns="http://www.w3.org/2000/svg" viewBox="0 0 1234.27 513.8"><defs><style>.cls-1{fill:#424244;}.cls-2{fill:#50413a;}.cls-3{fill:#f6f7f6;}.cls-4{fill:#533e2a;}.cls-5{fill:#fad8b9;}.cls-6{fill:#f8d8b9;}.cls-7{fill:#53402c;}.cls-8{fill:#f7d9ba;}.cls-9{fill:#ffd34e;}.cls-10{fill:#f8c54b;}.cls-11{fill:#b7d2c3;}.cls-12{fill:#6d6e72;}.cls-13{fill:#eb7f86;}.cls-14{fill:#e29f25;}.cls-15{fill:#554939;}.cls-16{fill:#fbdbbe;}.cls-17{fill:#f4f3f3;}.cls-18{fill:#6c6a5a;}.cls-19{fill:#534a3b;}.cls-20{fill:#f7ddbf;}.cls-21{fill:#f0c658;}.cls-22{fill:#f6c651;}.cls-23{fill:#5a6753;}.cls-24{fill:#97af98;}.cls-25{fill:#d7ecdf;}.cls-26{fill:#83ac94;}.cls-27{fill:#e68084;}.cls-28{fill:#dbaa3f;}.cls-29{fill:#fac44c;}.cls-30{fill:#eeb23b;}.cls-31{fill:#eeb23a;}.cls-32{fill:#424243;}.cls-33{fill:#4f433b;}.cls-34{fill:#fad9ba;}.cls-35{fill:#fbca64;}.cls-36{fill:#fdc95f;}.cls-37{fill:#aa6c55;}.cls-38{fill:#bb9a74;}.cls-39{fill:#f1f0ef;}.cls-40{fill:#e98b8f;}.cls-41{fill:#e2a935;}.cls-42{fill:#91af9a;}.cls-43{fill:#94b9a7;}.cls-44{fill:#6e6e71;}.cls-45{font-size:28.02px;fill:#202529;font-family:MyriadPro-Regular, Myriad Pro;}.cls-46{letter-spacing:0em;}.cls-47{letter-spacing:0.01em;}.cls-48{letter-spacing:-0.01em;}.cls-49{letter-spacing:-0.07em;}.cls-50{letter-spacing:-0.01em;}.cls-51{letter-spacing:-0.01em;}.cls-52{letter-spacing:0em;}.cls-53{letter-spacing:-0.01em;}.cls-54{letter-spacing:-0.01em;}</style></defs><title>banner</title><g id="Layer_2" data-name="Layer 2"><g id="Layer_1-2" data-name="Layer 1"><g id="Ohfozy.tif"><path class="cls-1" d="M328.18,481.13c-2.49,11.41-1.79,22.77.44,34.12-.55,1.72,1.63,4.58-1.16,5.12-3.53.69-6.83,2.54-10.6,2.15a3.55,3.55,0,0,1-3.27-2c-.74-1.53.05-2.67,1.13-3.57a38.69,38.69,0,0,1,3.35-2.28l5.25,1.17c.42-1.66-.09-3.1-.36-4.59-1.28-7.15-3.35-14.22-3.06-21.57.11-3-1-3.87-3.94-3.8a130,130,0,0,1-35.2-3.59c-2.42-.61-3,0-3.23,2.52-.81,9.64.68,19.06,2.22,28.49-.5,1.8,2.24,4.46-1.07,5.41a28.68,28.68,0,0,1-11.19,1.13c-2.41-.27-2.93-1.73-2.73-3.8,1.69-2.76,4-4.19,7.28-3.1s2.86-.49,2.39-2.66A211.81,211.81,0,0,1,269.88,476c-.4-7.7.36-15.47.59-23.21,0-1.46,0-2.93,0-5.31-10.08,9.77-21.13,9.49-32.67,5.41-1.79-.63-4-1-4.09-3.62.71-1.83,1.41-3.66,2.12-5.5l1.83-.61c13.83,7.11,26.6,2.83,32.89-10.77,1.47-3.19.1-6.68,1.79-9.69l5.48,1c0,.23.07.47.1.71-.92,1.63-.75,3.51-1.18,5.24-.84,3.39-.64,5.91,3.48,6.65,2.19.39,1.45,2.06,1.43,3.57,0,2-1.92,4.47.3,5.86,3.33,2.07,6.8,4.13,11.21,5-1.06-2.72-1.93-4.94-2.79-7.16a42.59,42.59,0,0,0,1.29-4.77c.32-2.09,2.48-4.1.56-6.33-1.49-1.73-.78-3.16.63-4.23a4.8,4.8,0,0,1,5.89.2c1.21.93,2.6,2.89.66,4.6-1.27,1.11-1.08,2.24-.86,3.64.48,3,.76,6,1.12,9-.07,2.15-2.48,3-3,5.47,3.23-1.1,6.14-2.19,9.12-3.09,2.41-.73,4.12-1.85,3.84-4.7-.24-2.57,1.49-3.59,3.53-3.86,3.12-.43,4-2.26,3.85-5-.08-1.81-.07-3.62-.1-5.43.06-.27.12-.54.17-.81,4.41.35,8.82.77,13.24,1,2.26.12,4.31,1.92,6.7.79l1.16.05c3.77,4.69,7.76,9.2,9.91,15,3,8.07,1.7,15.45-3.09,22.38-3,4.3-7,7.51-11.12,10.62-1.71,1.29-2.87,1.14-4-.52-.32-.51-.61-1-1-1.53-1.21-1.6-2.06-3.72-4.86-2-1.72,1.08-3.07,2.05-2.48,4.23.65,2.42,2.35,3.4,4.83,3.06Zm2.52-11.79c10.59-6.08,14.26-17.08,9-25.38-.54-.85-1-2.1-2.29-1.8-1.09.24-1,1.35-1.16,2.22C334.47,452.48,332.65,460.58,330.7,469.34Z" transform="translate(-1.31 -14.57)"/><path class="cls-2" d="M338.18,430.11l-1.16-.05a100.74,100.74,0,0,1-8.49-20.38c-.66-2.25-1.21-4.07,2-4.81,2.88-.67,3-2.95,2.56-5.39-.6-3.07-2.68-2.7-4.86-2.11l-2-1.9a21.67,21.67,0,0,1-.14-4.09c.69-4.5-.85-5.91-5.6-5.8-12.57.28-24.84-1.56-36.05-7.86-10.45-7.36-14.73-17.29-12.68-30.21.69.19,1.2.17,1.43.41,7.84,8.18,10.15,8.8,20.83,4.28,9.71-4.1,19.44-4.81,29.33-1.1,6.45,2.42,11.28,6.62,13.14,13.51a3.75,3.75,0,0,0,3.69,3.19c5.36.66,8.17,4.19,9.57,9.14,2.2,7.82.34,15.41-1.3,23C346.18,410.38,342.22,420.26,338.18,430.11Z" transform="translate(-1.31 -14.57)"/><path class="cls-3" d="M104,431.93c.32,4.44,2.57,8.15,4.48,12-1.93,1.78-4.74,3-4.33,6.35l-.09,26a205.56,205.56,0,0,1-36.65,3.37c-9.41,0-18.82,0-28.2-1-1.52-10.48-3.1-20.95-4.53-31.44-.33-2.39-1.2-3.83-3.71-4.4a21.37,21.37,0,0,1-8.32-3.41l1.05-8.05c2.79.67,5.15,2.77,8.23,2.49l1.74.33c6.46,1.94,13.18,2,19.8,2.31C70.47,437.21,87.44,436.84,104,431.93ZM78.25,468.47c.27,2.35,3.13,3.69,4.87,5.78.93,1.12,2,.67,2.7-.22,1.74-2.23,5.76-2.71,5.21-6.69-.7-5.1-1.58-10.18-2.1-15.3-.31-3.08-1.74-6.28-.12-9.3.81-1.52.76-2.8-.48-3.55-1.63-1-3.6-.33-5.13.44s-1.33,2.2-.15,3.41.76,2.75.38,4.24C81.74,454,80.12,460.79,78.25,468.47Z" transform="translate(-1.31 -14.57)"/><path class="cls-4" d="M33.65,434.14l-1.74-.33c-.57-1.71-1.11-3.42-1.72-5.11-4.2-11.63-8.71-23.18-8.27-35.88,2.75-1.3-.29-7.44,5.43-5.89-.51-1.95-2.23-2.09-3-3.25,2.77-1.81,2.81-5.3,4.72-7.69.81-1,.32-3.5,2.56-.95.78.89,1.31-.79,1.73-1.43A31.27,31.27,0,0,1,56.3,359.35c11.88-1.6,23.53-1.12,33.28,7.34,5,4.3,8,9.79,10,16,1.08,3.27.59,4.81-2.78,5.39a9.63,9.63,0,0,0-2.06.85l-15.41,3a.82.82,0,0,0-.85.09l-1.87.32c-2.46.37-5.05-.16-7.36,1.14l-1.8.23a1.1,1.1,0,0,0-.87.07l-3.68.26-9.13.56-1.84.09c-.75-.14-1.48-.25-1.87.64l-1.79.06c-1.34-1.09-2.2-.95-2.4.93L45.79,400c-.06,2.12-.12,4.23-.17,6.35-.7,2.83-2.38.65-3.54.59-2.31-.12-3.38,1-3.67,3.08s.59,3.47,2.92,3.62c1,.07,2.1-.5,3.15.47C42.08,421.42,39.21,428.5,33.65,434.14Z" transform="translate(-1.31 -14.57)"/><path class="cls-5" d="M33.65,434.14c5.56-5.64,8.43-12.72,10.83-20-1-1-2.14-.4-3.15-.47-2.33-.15-3.23-1.45-2.92-3.62s1.36-3.2,3.67-3.08c1.16.06,2.84,2.24,3.54-.59a6.66,6.66,0,0,0,.17-6.35l.09-3.68a3.07,3.07,0,0,0,2.4-.93l1.79-.06c1,1,1.54.42,1.87-.64l1.84-.09c3.11,1,6.22,1.79,9.13-.56l3.68-.26.87-.07,1.8-.23c2.72,1.33,5.07.33,7.36-1.14l1.87-.32.85-.09,15.41-3a116.77,116.77,0,0,1,9,36.14c.18,2.27.13,4.56.19,6.84-16.54,4.91-33.51,5.28-50.53,4.52C46.83,436.16,40.11,436.08,33.65,434.14Zm40.57-4c3.48-.5,7.34-1.11,11.23-1.62,3.26-.42,3.49-2.33,2.46-4.85-1.23-3.05-3.45-5.13-6.78-5.21-4.3-.1-8.53.54-11.11,4.68-1,1.68-2,3.59-1.1,5.55C69.91,430.88,72.12,429.74,74.22,430.17ZM93.41,405.1c-.29-1.44-.36-4-2.78-4.05-2-.07-2.21,2.21-2.07,3.87.17,2,.66,4.57,2.68,4.75C93.1,409.83,93.45,407.41,93.41,405.1Zm-33.67,3.68c.25,1.93.1,4.52,2.7,5,1.86.33,2.31-1.67,2.26-3.2-.08-2.3-.43-5-3-5.41C59.75,404.85,60,407.17,59.74,408.78Z" transform="translate(-1.31 -14.57)"/><path class="cls-6" d="M284.42,377.72c11.21,6.3,23.48,8.14,36.05,7.86,4.75-.11,6.29,1.3,5.6,5.8a21.67,21.67,0,0,0,.14,4.09c-.12,1-.58,2.2.26,2.88.61.5,1.21-.49,1.71-1,2.18-.59,4.26-1,4.86,2.11.48,2.44.32,4.72-2.56,5.39-3.16.74-2.61,2.56-2,4.81A100.74,100.74,0,0,0,337,430.06c-2.39,1.13-4.44-.67-6.7-.79-4.42-.25-8.83-.67-13.24-1-13-2.37-26.15-3.19-39.26-4.51l-5.48-1c.48-12.35,1.86-24.54,6.73-36.07A30.07,30.07,0,0,1,284.42,377.72Zm7.87,31.1c-3,.15-6.13-.41-5.52,4.32.48,3.76,4,6.7,8.76,7.11,5.54.48,9.12-1.37,10.29-5.31.68-2.26.28-3.83-2.4-4.24C299.7,410.13,296,409.46,292.29,408.82ZM309.76,401c.29,1.51.11,3.71,2,3.59,2.76-.16,2.76-2.93,3-4.92.17-1.54,0-4-2.15-3.76C310.14,396.19,310.15,398.93,309.76,401Zm-23.83-5.39c-.11-1.85-.14-4.11-2.2-3.95-2.35.19-2.57,2.65-2.59,4.64,0,1.58-.39,4.06,1.73,4C285.41,400.16,285.52,397.44,285.93,395.56Z" transform="translate(-1.31 -14.57)"/><path class="cls-7" d="M39.19,478.62c9.38,1,18.79,1,28.2,1A205.56,205.56,0,0,0,104,476.25c-1.13,11.71-2,23.47-5.86,34.71-.9,2.62-.56,3.84,2.52,2.9s5.56.51,7.72,2.6c1.9,4.91,1,6.19-4.32,5.95A19.2,19.2,0,0,1,101,522c-8-1.69-8-1.7-7.2-9.56a152.71,152.71,0,0,0,2.39-24.9c0-4.14-1.3-4.82-5-4.17a142.44,142.44,0,0,1-39.5,1c-3.13-.33-4.18.69-4.06,3.54.35,8.14-1.51,16-3.2,23.83-.23,1.09-1.09,2.23,0,3.48,2.67-1.19,5.4-2.1,8.24-.47a29.31,29.31,0,0,1,2.11,2.37c.87,1.21,2,2.47,1.19,4.1s-2.58,1.29-4.07,1.38c-2.63.15-5.08-.84-7.63-1.12-3.4-.37-4.77-2.08-4.27-5.4C41.87,503.55,40.92,491.08,39.19,478.62Z" transform="translate(-1.31 -14.57)"/><path class="cls-8" d="M24.4,383.68c.72,1.16,2.44,1.3,3,3.25-5.72-1.55-2.68,4.59-5.43,5.89a8.23,8.23,0,0,0-8.15,2.85,21,21,0,0,0-.65,26.43c2.94,3.74,6.73,6.5,10.56,9.22l-1.05,8.05c-16.15-5.93-24.8-22.57-20-38.46A23.85,23.85,0,0,1,24.4,383.68Z" transform="translate(-1.31 -14.57)"/><path class="cls-8" d="M104.13,450.27c-.41-3.38,2.4-4.57,4.33-6.35,8.94,8.79,18.67,5.19,28.28-.51,1.69-1,3.28-2.2,4.91-3.31a14.88,14.88,0,0,0,8.88,2.12c-7.16,8.16-16,13.51-26.73,15.32C115.9,458.87,109.53,455.83,104.13,450.27Z" transform="translate(-1.31 -14.57)"/><path class="cls-9" d="M42.71,332.15c-.09-2.75,1.21-5,2.58-7.2s2.69-4.07,3.82-6.21a7.48,7.48,0,0,0-1-8.91c-2.48-2.95-5.72-2.52-8.83-1.65s-5.4,2.78-5.59,6.38a15.76,15.76,0,0,1-.33,3.16A2.62,2.62,0,0,1,30.8,320c-1.61,0-2.32-1.08-2.63-2.61-1-4.86,1.83-10.5,6.57-12.94,6.74-3.49,13.74-2.75,18.13,1.91,4.07,4.3,4.64,9.46,1.47,14.6-2.76,4.49-6.53,8.48-6.25,14.35.08,1.53-1.15,2.45-2.78,2.37a2.42,2.42,0,0,1-2.4-2.31C42.76,334.28,42.77,333.21,42.71,332.15Z" transform="translate(-1.31 -14.57)"/><path class="cls-9" d="M84.74,310.36c6,.06,9.68,2.39,11.39,7.25,1.48,4.21-.37,8.54-5,12.07-2.72,2.1-6.06,3.61-7.19,7.32a2,2,0,0,1-2.86,1.46c-1.63-.59-1.71-1.89-1.31-3.38A8.86,8.86,0,0,1,83.36,330c1.73-1.23,3.47-2.45,5.13-3.77,2.54-2,3.15-4.75,2.62-7.78s-3-3.59-5.41-4.1c-3-.64-5.35.59-7,3.09-.51.75-.84,1.62-1.33,2.38-.74,1.12-1.75,1.78-3.08,1s-1.16-1.91-.79-3.19C74.9,312.78,78.7,310.3,84.74,310.36Z" transform="translate(-1.31 -14.57)"/><path class="cls-10" d="M150.53,442.22a14.88,14.88,0,0,1-8.88-2.12c-6-7.54-5.54-15,1.18-19.06,5.65-3.38,12.32-1.6,15.69,4.2a11.16,11.16,0,0,1-4.24,15.35A35.69,35.69,0,0,1,150.53,442.22Zm-1.87-20.93c-4.24-.16-8.84,4.27-9,8.64-.18,5.73,3.48,9.94,8.86,10.17,4.48.2,9.14-4.2,9.41-8.87A9.73,9.73,0,0,0,148.66,421.29Z" transform="translate(-1.31 -14.57)"/><path class="cls-8" d="M328.18,481.13l-1.8.24c-2.48.34-4.18-.64-4.83-3.06-.59-2.18.76-3.15,2.48-4.23,2.8-1.74,3.65.38,4.86,2,.36.48.65,1,1,1.53C330.12,479.16,329.19,480.17,328.18,481.13Z" transform="translate(-1.31 -14.57)"/><path class="cls-9" d="M47.33,349.57c-2.14-.29-2.76-1.66-2.61-3.52.16-2.08,1.53-2.77,3.41-2.66a2.54,2.54,0,0,1,2.7,2.89C50.69,348.38,49.34,349.42,47.33,349.57Z" transform="translate(-1.31 -14.57)"/><path class="cls-8" d="M227.63,444.16l8.2-.34-2.12,5.49C230.07,449.51,227.72,448.16,227.63,444.16Z" transform="translate(-1.31 -14.57)"/><path class="cls-9" d="M82.86,346.15c-.2,1.63-1,2.57-2.7,2.49a2.57,2.57,0,0,1,.22-5.13A2.42,2.42,0,0,1,82.86,346.15Z" transform="translate(-1.31 -14.57)"/><path class="cls-11" d="M146.4,415c-1.55-2.15-1.64-4.1-2-5.94-.17-.85-.09-1.94,1.07-2.11s1.44.88,1.46,1.76C147,410.58,147.37,412.51,146.4,415Z" transform="translate(-1.31 -14.57)"/><path class="cls-3" d="M277.82,423.74c13.11,1.32,26.27,2.14,39.26,4.51-.05.27-.11.54-.17.81l-4.86,4.59c-4.2,4-7.47,8.85-12.39,12.06-.36-3-.64-6-1.12-9-.22-1.4-.41-2.53.86-3.64,1.94-1.71.55-3.67-.66-4.6a4.8,4.8,0,0,0-5.89-.2c-1.41,1.07-2.12,2.5-.63,4.23,1.92,2.23-.24,4.24-.56,6.33a42.59,42.59,0,0,1-1.29,4.77c-1.35-.37-1.66-1.65-2.28-2.65q-5.1-8.25-10.17-16.51C277.89,424.21,277.86,424,277.82,423.74Z" transform="translate(-1.31 -14.57)"/><path class="cls-12" d="M277.92,424.45Q283,432.7,288.09,441c.62,1,.93,2.28,2.28,2.65.86,2.22,1.73,4.44,2.79,7.16-4.41-.87-7.88-2.93-11.21-5-2.22-1.39-.33-3.89-.3-5.86,0-1.51.76-3.18-1.43-3.57-4.12-.74-4.32-3.26-3.48-6.65C277.17,428,277,426.08,277.92,424.45Z" transform="translate(-1.31 -14.57)"/><path class="cls-12" d="M299.66,445.71c4.92-3.21,8.19-8.11,12.39-12.06l4.86-4.59c0,1.81,0,3.62.1,5.43.13,2.78-.73,4.61-3.85,5-2,.27-3.77,1.29-3.53,3.86.28,2.85-1.43,4-3.84,4.7-3,.9-5.89,2-9.12,3.09C297.18,448.68,299.59,447.86,299.66,445.71Z" transform="translate(-1.31 -14.57)"/><path class="cls-4" d="M328.18,397.37c-.5.49-1.1,1.48-1.71,1-.84-.68-.38-1.89-.26-2.88Z" transform="translate(-1.31 -14.57)"/><path class="cls-7" d="M78.25,468.47c1.87-7.68,3.49-14.44,5.18-21.19.38-1.49.9-2.94-.38-4.24s-1.3-2.68.15-3.41,3.5-1.43,5.13-.44c1.24.75,1.29,2,.48,3.55-1.62,3-.19,6.22.12,9.3.52,5.12,1.4,10.2,2.1,15.3.55,4-3.47,4.46-5.21,6.69-.7.89-1.77,1.34-2.7.22C81.38,472.16,78.52,470.82,78.25,468.47Z" transform="translate(-1.31 -14.57)"/><path class="cls-8" d="M62.91,394.07c-2.91,2.35-6,1.54-9.13.56Z" transform="translate(-1.31 -14.57)"/><path class="cls-8" d="M76.62,392.37c-2.29,1.47-4.64,2.47-7.36,1.14C71.57,392.21,74.16,392.74,76.62,392.37Z" transform="translate(-1.31 -14.57)"/><path class="cls-8" d="M45.79,400a6.66,6.66,0,0,1-.17,6.35C45.67,404.26,45.73,402.15,45.79,400Z" transform="translate(-1.31 -14.57)"/><path class="cls-8" d="M48.28,395.42a3.07,3.07,0,0,1-2.4.93C46.08,394.47,46.94,394.33,48.28,395.42Z" transform="translate(-1.31 -14.57)"/><path class="cls-8" d="M51.94,394.72c-.33,1.06-.83,1.62-1.87.64C50.46,394.47,51.19,394.58,51.94,394.72Z" transform="translate(-1.31 -14.57)"/><path class="cls-8" d="M67.46,393.74l-.87.07A1.1,1.1,0,0,1,67.46,393.74Z" transform="translate(-1.31 -14.57)"/><path class="cls-8" d="M79.34,392l-.85.09A.82.82,0,0,1,79.34,392Z" transform="translate(-1.31 -14.57)"/><path class="cls-13" d="M74.22,430.17c-2.1-.43-4.31.71-5.3-1.45-.91-2,.06-3.87,1.1-5.55,2.58-4.14,6.81-4.78,11.11-4.68,3.33.08,5.55,2.16,6.78,5.21,1,2.52.8,4.43-2.46,4.85C81.56,429.06,77.7,429.67,74.22,430.17Z" transform="translate(-1.31 -14.57)"/><path class="cls-7" d="M93.41,405.1c0,2.31-.31,4.73-2.17,4.57-2-.18-2.51-2.78-2.68-4.75-.14-1.66,0-3.94,2.07-3.87C93.05,401.14,93.12,403.66,93.41,405.1Z" transform="translate(-1.31 -14.57)"/><path class="cls-4" d="M59.74,408.78c.21-1.61,0-3.93,1.92-3.63,2.61.42,3,3.11,3,5.41,0,1.53-.4,3.53-2.26,3.2C59.84,413.3,60,410.71,59.74,408.78Z" transform="translate(-1.31 -14.57)"/><path class="cls-13" d="M292.29,408.82c3.71.64,7.41,1.31,11.13,1.88,2.68.41,3.08,2,2.4,4.24-1.17,3.94-4.75,5.79-10.29,5.31-4.74-.41-8.28-3.35-8.76-7.11C286.16,408.41,289.33,409,292.29,408.82Z" transform="translate(-1.31 -14.57)"/><path class="cls-2" d="M309.76,401c.39-2,.38-4.76,2.88-5.09,2.12-.28,2.32,2.22,2.15,3.76-.23,2-.23,4.76-3,4.92C309.87,404.66,310.05,402.46,309.76,401Z" transform="translate(-1.31 -14.57)"/><path class="cls-2" d="M285.93,395.56c-.41,1.88-.52,4.6-3.06,4.68-2.12.07-1.74-2.41-1.73-4,0-2,.24-4.45,2.59-4.64C285.79,391.45,285.82,393.71,285.93,395.56Z" transform="translate(-1.31 -14.57)"/><path class="cls-14" d="M148.66,421.29a9.73,9.73,0,0,1,9.29,9.94c-.27,4.67-4.93,9.07-9.41,8.87-5.38-.23-9-4.44-8.86-10.17C139.82,425.56,144.42,421.13,148.66,421.29Zm-.29,7.1c.79-.72,2.41.33,2.66-1.05.21-1.1-.81-1.54-1.64-1.84-2-.69-4.11.67-3.74,1.93.81,2.73-2,6.24,1.69,8.26,2.24,1.22,3.56-.36,4.4-1.86C153.66,430.42,149.49,430.36,148.37,428.39Z" transform="translate(-1.31 -14.57)"/><path class="cls-10" d="M148.37,428.39c1.12,2,5.29,2,3.37,5.44-.84,1.5-2.16,3.08-4.4,1.86-3.71-2-.88-5.53-1.69-8.26-.37-1.26,1.78-2.62,3.74-1.93.83.3,1.85.74,1.64,1.84C150.78,428.72,149.16,427.67,148.37,428.39Zm.8,4.53-.56-.49c-.08.12-.25.31-.23.33.16.18.36.33.54.5Z" transform="translate(-1.31 -14.57)"/><path class="cls-14" d="M149.17,432.92l-.25.34c-.18-.17-.38-.32-.54-.5,0,0,.15-.21.23-.33Z" transform="translate(-1.31 -14.57)"/></g><g id="QgajuI"><path class="cls-15" d="M884.73,425.74c-.41-5.5-3-10.45-4-15.8-1.47-7.46-3.2-14.86-1.44-22.53,1.22-5.31,4-9.13,9.56-10.42a3.83,3.83,0,0,0,3.13-2.2c7.4-15.94,19.22-21.79,36.46-18.13,2.08.44,4.16.87,6.23,1.32,8.16,1.75,11.92-.29,14.76-8,.47-1.27.9-2.54,1.39-3.94,10.56,11.9,10.35,27.27-.34,39.12a58.93,58.93,0,0,1-12.53,6.32,100.9,100.9,0,0,1-27.3,4.52c-3.06.13-3.83,1.1-3.62,4,.25,3.53.06,7.1.06,10.83-2.73-.53-5-2.8-7.18-.48a4.57,4.57,0,0,0-1,5.1c1.65,3.54,5.11,1.28,7.83,2.09-2.88,8.16-6.54,15.74-11.92,22.41a2.61,2.61,0,0,1-.68,0C891,435.22,886.85,431.14,884.73,425.74Z" transform="translate(-1.31 -14.57)"/><path class="cls-16" d="M894.78,439.91c5.38-6.67,9-14.25,11.92-22.41-2.72-.81-6.18,1.45-7.83-2.09a4.57,4.57,0,0,1,1-5.1c2.18-2.32,4.45-.05,7.18.48,0-3.73.19-7.3-.06-10.83-.21-2.87.56-3.84,3.62-4a100.9,100.9,0,0,0,27.3-4.52,58.93,58.93,0,0,0,12.53-6.32c6.51,8.4,9.75,18.3,12.9,28.23.18.54.19,1.3.55,1.56.71.49,1-.26,1.12-.8.31-2,.52-4.06-.46-6l.3-1.95c2.4-.92,2.12-3,2.22-5,.14-2.86-.48-5.78.61-8.56,2-5.14,1.49-10.35.54-15.59.09-.64.17-1.29.25-1.93,3-.29,3.15-2.11,2.53-4.51-.35-1.31-.51-2.91,1.25-3.35s2.3,1,2.94,2.24a10.17,10.17,0,0,1,1,4.34c.17,2.82-.54,5.71.62,8.45a6,6,0,0,1-.67,3.78,2.26,2.26,0,0,0-1.63,2c.06,9-3.21,17.58-2.83,26.58-.12,2.08.2,4.23-1,6.14-2.34.16-.85,3.49-3,3.77-1.81-.87-1.18-3.37-3.37-4.55.68,4.64,1.29,8.77,1.9,12.91-4.52,3.71-10.17,4.84-15.57,5.95-16.69,3.45-33.62,4.39-50.64,3.87C897.75,442.68,895.9,442,894.78,439.91Zm43.75-6.3c6.92.09,12.37-3.95,12.49-9.31.06-3-.85-5-4.48-4.38a83.87,83.87,0,0,0-12.86,2.66c-1.79.59-4.41.45-4.72,2.81s1.22,4.63,3.2,6.18A9.9,9.9,0,0,0,938.53,433.61ZM956.1,407.1c-.36-2.34-.53-5.18-3.29-5.84-1.79-.43-2.23,1.67-2.19,3.25,0,2.63.29,5.58,3.39,6.13C955.8,411,955.86,408.68,956.1,407.1Zm-31.54,6.15c-.36-2.36-.29-5.28-3.15-5.95-2-.48-2.14,1.79-2.12,3.23,0,2.59.11,5.64,3.25,6.22C924.33,417.08,924.31,414.73,924.56,413.25Z" transform="translate(-1.31 -14.57)"/><path class="cls-17" d="M894.78,439.91c1.12,2.13,3,2.77,5.28,2.85,17,.52,34-.42,50.64-3.87,5.4-1.11,11-2.24,15.57-6l1.45-.19c-2.36,15.59.93,31,1.17,46.57-22.2,5.39-44.76,7.31-67.55,7-2.36-10.9-4.66-21.82-7.09-32.7-.82-3.71-4.5-5.62-6-8.91l5.9-4.72A2.61,2.61,0,0,0,894.78,439.91Zm53.62,2.85c-3.7.08-5.56,1.94-3.87,4s1.18,3.78.79,5.88c-1.12,6-1.56,12.14-3.22,17.95-1.48,5.17,2.13,6.9,4.92,9,3,2.21,3.77-1.86,5.62-2.94,2.14-1.24,2.79-3,1.93-5.76a62.69,62.69,0,0,1-2.18-11.17c-.6-4.79-3.67-9.34-1.13-14.53C951.86,444,950.33,442.39,948.4,442.76Z" transform="translate(-1.31 -14.57)"/><path class="cls-18" d="M1120.65,435.46v2.77q0,18.27,0,36.54c0,.92,0,1.84,0,2.75.92,3.27,1.76.76,2.62,0,3.75-3.73,7.48-7.5,11.29-11.18,1.48-1.43,1.59-3.15,1.6-5q0-9.32.15-18.64l3.46-.77v17.57a1.13,1.13,0,0,0,1.77-.14q14.12-13.95,28.21-27.92a26.91,26.91,0,0,0,2.2-2.87c1.39.67,2.64,1.47,3.07,3.09-6.32,5-11.42,11.13-18.23,17.49h8.52c0,1.28-.07,2.56-.11,3.83-8.06-1.36-14.31.91-19.88,7.42-7.35,8.61-15.8,16.28-23.79,24.35l-.86,1v1.87q0,15.06,0,30.12,0,4.13,0,8.25c-1.21,1.27-2.39,1.95-3.5-.1.89-1.37.75-2.91.75-4.42V446.35c0-1.51.12-3.05-.8-4.4l-1-1q-21-21.11-42-42.23a5.77,5.77,0,0,0-4.53-1.62c-4.39.06-8.79,0-13.18.05,0-1.23,0-2.46,0-3.69h10.42l-22.26-23.57c.09-1.77,1.37-2.54,2.72-3.26q14.06,14.28,28.12,28.56c5.53,5.62,11,11.27,17.61,16.46q0-8.48,0-17l4,0c-.07,6.34-.09,12.68-.24,19a6.6,6.6,0,0,0,2.3,5.17c5.11,4.91,10.17,9.88,15.25,14.83.78.86,1.07,2.46,2.8,1.82,1-1.5.81-3.2.81-4.87V339.75c0-1.66.2-3.37-1-4.82a8,8,0,0,1-.81-.2l-21.32-21.41,2.86-2.49c6.57,6.06,12.11,13.19,19.38,18.53,1.13-1.62.83-3.49.83-5.29,0-11.37,0-22.75,0-34.12l2.51-.21c.09,2.25.17,4.51.26,6.77v82.26c0,1.3-.54,2.93,1.25,3.47,1.37.42,2.19-.77,3-1.61,5.81-5.76,11.59-11.56,17.4-17.31a5.73,5.73,0,0,0,2-4.39c-.14-6.21-.21-12.42-.3-18.62a7.74,7.74,0,0,1,4.1-.37v17.53c9.51-9.61,18.46-17.86,26.56-27a6.09,6.09,0,0,1,3,3.09c-10.94,10.76-21.93,21.48-32.82,32.3-7.87,7.82-15.61,15.77-23.4,23.66l-.85,1.13v1.85l0,28.3v14.63Z" transform="translate(-1.31 -14.57)"/><path class="cls-19" d="M901.34,486.27c22.79.35,45.35-1.57,67.55-7-.14,11.39.24,22.85-4.18,33.73-1.23,3-.32,4.1,3.06,3.52,4.66-.79,8,1.19,9.61,5.73,0,1.93-.8,3.4-2.8,3.51-5.65.31-11.15-.26-16-3.58,1.18-8.4,3.59-16.63,3.06-25.24-.63-10.24-.58-10.32-10.57-8.42a175.62,175.62,0,0,1-35.82,2.79c-1.62,0-4-.88-4.17,2a128.38,128.38,0,0,1-3.46,23.82c-.43,1.75.23,2.74,2.2,1.8,4.84-2.3,8.83-1,12.26,2.82,1.87,4.89,1,6.47-4,6.55a57.42,57.42,0,0,1-13.39-1.88c-2.29-.51-2-2.27-2.15-3.88l-.16-.16a1.92,1.92,0,0,0,.53-1.91A96.81,96.81,0,0,0,901.34,486.27Z" transform="translate(-1.31 -14.57)"/><path class="cls-20" d="M894.1,439.94l-5.9,4.72c-9.58-10.65-17.8-22.36-26.09-34-3.71-5.2-7.13-10.61-10.77-15.86-3.21-4.64,1.45-5.81,3.58-7.72,2.59-2.32,3.25.89,4.19,2.27,7.15,10.59,14.16,21.27,21.32,31.86,1.15,1.71,2,3.83,4.3,4.53C886.85,431.14,891,435.22,894.1,439.94Z" transform="translate(-1.31 -14.57)"/><path class="cls-21" d="M1175,431.62c-.43-1.62-1.68-2.42-3.07-3.09-4.53-8.52-4.33-15.67.57-21.18,5.52-6.2,14.65-7.59,21-3.2,6.94,4.8,9.8,13.77,6.48,20.38a16.83,16.83,0,0,1-20.74,8.72C1177.84,432.77,1176.45,432.17,1175,431.62Zm22.46-13.82c0-7.6-5.17-12.59-13-12.53A12.55,12.55,0,0,0,1171.85,418a13.13,13.13,0,0,0,12.66,12.93C1192.46,431,1197.49,425.93,1197.49,417.8Z" transform="translate(-1.31 -14.57)"/><path class="cls-21" d="M1177.75,333.59a6.09,6.09,0,0,0-3-3.09c-2.14-4.85-4.59-9.46-2.31-15.19,3.53-8.89,12.21-13.35,20.93-10.23,8.39,3,13.06,12.92,10,21.18s-12.92,12.57-21.48,9.34A45.19,45.19,0,0,1,1177.75,333.59Zm10.32-.46a12.81,12.81,0,1,0,0-25.62c-7.1-.1-13.33,6-13.27,12.92C1174.82,327.56,1180.6,333.08,1188.07,333.13Z" transform="translate(-1.31 -14.57)"/><path class="cls-21" d="M1120.4,289.74l-2.51.21-1.07.15c-7.32-1.73-12.38-5.44-14.1-13.45-2-9.33,5.72-18,12.64-19,9-1.21,16,2.72,18.86,10.71,2.58,7.24-.5,14.8-8.06,19.8a2.19,2.19,0,0,0-1.88,1h0Zm-14.42-16c0,7.6,5,12.71,12.36,12.74a13.09,13.09,0,0,0,13.28-12.66,12.63,12.63,0,0,0-12.92-13C1110.9,260.91,1106,265.92,1106,273.74Z" transform="translate(-1.31 -14.57)"/><path class="cls-21" d="M1047.26,366.59c-1.35.72-2.63,1.49-2.72,3.26-10.37,4.93-16.84,3.36-22.66-2.78-5.06-5.32-5.57-12.62-1.47-19.32,3.5-5.71,11.08-8.73,17.83-7.09a15.82,15.82,0,0,1,12.06,14.73A18.23,18.23,0,0,1,1047.26,366.59Zm.09-9.93c-.1-6.78-6.61-13.43-13.14-13.41-6.85,0-13.32,6.76-13.15,13.72.15,6.2,6.67,12.62,12.8,12.63C1040.64,369.61,1047.44,363.1,1047.35,356.66Z" transform="translate(-1.31 -14.57)"/><path class="cls-22" d="M1097.68,310.83l-2.86,2.49c-4.91,2.16-10.22.27-11.61-4.14s1.2-9.44,5.5-10.55c4.49-1.16,9.07,2.11,10.09,6.95C1099.24,307.62,1097.92,309.06,1097.68,310.83Z" transform="translate(-1.31 -14.57)"/><path class="cls-22" d="M1097,394.62l-4,0c-4.36-1.65-6.8-4.67-5.93-9.43a7.21,7.21,0,0,1,6.8-6.28c4.24-.46,7.09,1.54,8.63,5.22s-.21,6.74-3.17,9.09A17.6,17.6,0,0,1,1097,394.62Z" transform="translate(-1.31 -14.57)"/><path class="cls-22" d="M1148.14,339.94a7.74,7.74,0,0,0-4.1.37c-7-4.45-8.15-10.49-2.82-14.47a7.75,7.75,0,0,1,11.2,1.63c2.7,3.51,2.07,7.94-1.6,10.79A30.26,30.26,0,0,1,1148.14,339.94Z" transform="translate(-1.31 -14.57)"/><path class="cls-22" d="M1165.21,452.94c0-1.27.07-2.55.11-3.83,2-3.83,4.93-6.16,9.38-5.29,3.75.74,6.38,3.25,6.51,7.14a8,8,0,0,1-14.92,4.46A17.21,17.21,0,0,1,1165.21,452.94Z" transform="translate(-1.31 -14.57)"/><path class="cls-22" d="M1056.38,393.42c0,1.23,0,2.46,0,3.69-2.33,5.06-6.19,7.14-10.31,5.54-4.3-1.67-6.38-5.61-5-9.78a7.51,7.51,0,0,1,6.69-5.33C1052.28,387,1054.69,389.71,1056.38,393.42Z" transform="translate(-1.31 -14.57)"/><path class="cls-22" d="M1139.78,441.89l-3.46.77a33.74,33.74,0,0,1-2.92-2.1c-2.73-2.38-4.34-5.39-2.91-8.89,1.28-3.11,3.3-5.72,7.46-5.42,3.6.26,6.17,1.83,7.3,5.15,1.26,3.69.1,6.9-3,9.28A14,14,0,0,1,1139.78,441.89Z" transform="translate(-1.31 -14.57)"/><path class="cls-23" d="M1117,334.93c1.15,1.45,1,3.16,1,4.82v90.83c0,1.67.19,3.37-.81,4.88l-.24-4.51c0-1.86,0-3.72,0-5.59Z" transform="translate(-1.31 -14.57)"/><path class="cls-24" d="M1117,334.93l-.09,90.43c-.89-1.36-.78-2.9-.78-4.42l.06-86.21A8,8,0,0,0,1117,334.93Z" transform="translate(-1.31 -14.57)"/><path class="cls-24" d="M1116.82,523.23a6.38,6.38,0,0,1-.77-3.66q0-39.33,0-78.66c.33.35.67.7,1,1,0,3.05-.1,6.09-.1,9.13Q1116.9,487.16,1116.82,523.23Z" transform="translate(-1.31 -14.57)"/><path class="cls-24" d="M1120.66,378.77V298.36c1.09,1.47.9,3.18.9,4.84v70.74C1121.55,375.6,1121.75,377.31,1120.66,378.77Z" transform="translate(-1.31 -14.57)"/><path class="cls-25" d="M1035.05,286.3c5.78-.61,5.54-4.84,6-9.6,3,7.12,3.64,8.15,6.51,9.58-4.94.59-5.13,4-5,9C1039.53,291.63,1041.49,285.67,1035.05,286.3Z" transform="translate(-1.31 -14.57)"/><path class="cls-20" d="M976.84,382.32c-1.16-2.74-.45-5.63-.62-8.45a10.17,10.17,0,0,0-1-4.34c-.64-1.2-1.29-2.64-2.94-2.24s-1.6,2-1.25,3.35c.62,2.4.48,4.22-2.53,4.51.12-1.49.21-3,.35-4.48.57-6.26.57-6.2,6.54-5.12,2.52.46,3.63,1.47,3.13,4.26C977.76,373.94,977.38,378.15,976.84,382.32Z" transform="translate(-1.31 -14.57)"/><path class="cls-25" d="M1075,462.25c-1.48-3.36-1-7.5-6.28-8.24,5.77-.25,4.46-5,5.68-8.11,2.12,1.6,1.18,3.6,1.42,5.26.38,2.6,3.23,1.17,4.38,3.15C1075.78,455,1075.24,458.33,1075,462.25Z" transform="translate(-1.31 -14.57)"/><path class="cls-25" d="M1217,380.74c-2.1-7-2.1-7-6.29-8.52,6.07-.18,5.15-4.44,6-8.58,2.42,3.31.07,8.85,6.73,8.33C1220.71,373.15,1219.18,375.49,1217,380.74Z" transform="translate(-1.31 -14.57)"/><path class="cls-25" d="M1184.09,256.88c-2.77-2,2-8.91-6.38-7.57,6.67-.44,4.73-5.38,6.12-8.56,2,1.57,1.37,3.49,1.48,5.09.2,2.73,2.73,1.8,4.12,2.67-.44,2.4-4,.51-4.11,3.35C1185.26,253.51,1186,255.51,1184.09,256.88Z" transform="translate(-1.31 -14.57)"/><path class="cls-20" d="M967.72,432.74l-1.45.19c-.61-4.13-1.22-8.26-1.9-12.9,2.19,1.18,1.56,3.68,3.37,4.55,2.1-.28.61-3.61,3-3.77C970.22,424.92,970.05,429.1,967.72,432.74Z" transform="translate(-1.31 -14.57)"/><path class="cls-20" d="M968.23,377.08c.95,5.24,1.46,10.45-.54,15.59-1.09,2.78-.47,5.7-.61,8.56-.1,2,.18,4-2.22,5Q966.56,391.64,968.23,377.08Z" transform="translate(-1.31 -14.57)"/><path class="cls-20" d="M971.71,414.67c-.38-9,2.89-17.61,2.83-26.58a2.26,2.26,0,0,1,1.63-2A155.15,155.15,0,0,1,971.71,414.67Z" transform="translate(-1.31 -14.57)"/><path class="cls-23" d="M1116.82,290.1l1.07-.15c0,11.37,0,22.75,0,34.12,0,1.8.3,3.67-.83,5.29Z" transform="translate(-1.31 -14.57)"/><path class="cls-24" d="M1120.67,474.77q0-18.27,0-36.54c1,1.31.91,2.85.91,4.37v27.79C1121.56,471.91,1121.65,473.45,1120.67,474.77Z" transform="translate(-1.31 -14.57)"/><path class="cls-24" d="M1120.67,517.73q0-15.06,0-30.12c1.92,6.39.62,12.93.8,19.39C1121.58,510.56,1122.42,514.27,1120.67,517.73Z" transform="translate(-1.31 -14.57)"/><path class="cls-24" d="M1120.65,420.83l0-28.3c1.92,7,.48,14.14.83,21.21C1121.63,416.1,1122.13,418.62,1120.65,420.83Z" transform="translate(-1.31 -14.57)"/><path class="cls-20" d="M964.56,408.15c1,1.93.77,4,.46,6-.08.54-.41,1.29-1.12.8-.36-.26-.37-1-.55-1.56C963.76,411.64,964.16,409.89,964.56,408.15Z" transform="translate(-1.31 -14.57)"/><path class="cls-24" d="M1120.65,435.46V422.69A19.61,19.61,0,0,1,1120.65,435.46Z" transform="translate(-1.31 -14.57)"/><path class="cls-24" d="M1120.4,289.74l3.88-.57c-3.48,1.33-2.09,5.05-3.62,7.34C1120.57,294.25,1120.49,292,1120.4,289.74Z" transform="translate(-1.31 -14.57)"/><path class="cls-24" d="M1116.85,431l.24,4.51c-1.73.63-2-1-2.8-1.83C1115.8,433.36,1116.07,431.91,1116.85,431Z" transform="translate(-1.31 -14.57)"/><path class="cls-24" d="M1123.28,477.48c-.86.8-1.7,3.31-2.62,0Z" transform="translate(-1.31 -14.57)"/><path class="cls-24" d="M1124.28,289.16a2.19,2.19,0,0,1,1.88-1Z" transform="translate(-1.31 -14.57)"/><path class="cls-26" d="M902.88,520.54a1.92,1.92,0,0,1-.53,1.91C902.53,521.81,902.71,521.18,902.88,520.54Z" transform="translate(-1.31 -14.57)"/><path class="cls-24" d="M1120.68,485.74l.86-1Z" transform="translate(-1.31 -14.57)"/><path class="cls-24" d="M1120.68,390.68l.85-1.13Z" transform="translate(-1.31 -14.57)"/><path class="cls-27" d="M938.53,433.61a9.9,9.9,0,0,1-6.37-2c-2-1.55-3.53-3.67-3.2-6.18s2.93-2.22,4.72-2.81a83.87,83.87,0,0,1,12.86-2.66c3.63-.6,4.54,1.37,4.48,4.38C950.9,429.66,945.45,433.7,938.53,433.61Z" transform="translate(-1.31 -14.57)"/><path class="cls-15" d="M956.1,407.1c-.24,1.58-.3,3.86-2.09,3.54-3.1-.55-3.34-3.5-3.39-6.13,0-1.58.4-3.68,2.19-3.25C955.57,401.92,955.74,404.76,956.1,407.1Z" transform="translate(-1.31 -14.57)"/><path class="cls-15" d="M924.56,413.25c-.25,1.48-.23,3.83-2,3.5-3.14-.58-3.22-3.63-3.25-6.22,0-1.44.07-3.71,2.12-3.23C924.27,408,924.2,410.89,924.56,413.25Z" transform="translate(-1.31 -14.57)"/><path class="cls-15" d="M948.4,442.76c1.93-.37,3.46,1.21,2.86,2.43-2.54,5.19.53,9.74,1.13,14.53a62.69,62.69,0,0,0,2.18,11.17c.86,2.72.21,4.52-1.93,5.76-1.85,1.08-2.64,5.15-5.62,2.94-2.79-2.08-6.4-3.81-4.92-9,1.66-5.81,2.1-12,3.22-17.95.39-2.1.88-3.82-.79-5.88S944.7,442.84,948.4,442.76Z" transform="translate(-1.31 -14.57)"/><path class="cls-23" d="M1116.82,523.23q.09-36.08.18-72.15c0-3,.06-6.08.1-9.13.92,1.35.8,2.89.8,4.4v75.11c0,1.51.14,3-.75,4.42Z" transform="translate(-1.31 -14.57)"/><path class="cls-28" d="M1197.49,417.8c0,8.13-5,13.21-13,13.11A13.13,13.13,0,0,1,1171.85,418a12.55,12.55,0,0,1,12.65-12.71C1192.32,405.21,1197.49,410.2,1197.49,417.8Zm-12.35,3.7c-.62.69-1.15.3-1.68,0-1-.55-2.2-.93-2.8.24-.75,1.44.6,2,1.59,2.78,2.87,2.15,4.93.34,6.6-1.54,1.92-2.16.91-4.15-1.12-5.86-1.08-.9-3-.93-3.25-3,1.41-.43,3.18,1.08,4.21-.65a1.42,1.42,0,0,0-.63-2c-1.28-.68-2.42-2.32-4-1.56s-3.26,1.81-3.71,3.79a4.23,4.23,0,0,0,1.76,4.39C1183.27,419.1,1185.43,419.26,1185.14,421.5Z" transform="translate(-1.31 -14.57)"/><path class="cls-28" d="M1188.07,333.13c-7.47-.05-13.25-5.57-13.32-12.7-.06-7,6.17-13,13.27-12.92a12.81,12.81,0,1,1,0,25.62Zm-.2-9.28c-1.42,1-3.81-2.55-4.36.55-.36,2,2.21,4,3.65,4a6.47,6.47,0,0,0,5.32-3.56c1-2-.11-3.71-1.67-5.21-1.13-1.09-3.57-.89-3.68-3.14,1.72-1.05,2.9,1.86,4.32.12a1.86,1.86,0,0,0-.23-2.5c-1.16-1.27-2.58-2.26-4.39-1.47s-3.22,1.82-3.62,3.78.49,3.2,1.82,4.38C1186.06,321.69,1188.05,321.74,1187.87,323.85Z" transform="translate(-1.31 -14.57)"/><path class="cls-28" d="M1106,273.74c0-7.82,4.92-12.83,12.72-12.88a12.63,12.63,0,0,1,12.92,13,13.09,13.09,0,0,1-13.28,12.66C1111,286.45,1106,281.34,1106,273.74Zm12.4-3.86c1.52-.18,2.91.95,4.07-.24.66-.68.33-1.45-.21-2-1.08-1.11-2.38-2-4-1.72s-3.33.8-3.79,2.76a4.91,4.91,0,0,0,1.64,5.31c1.09.91,3.23,1,3,3.09-1.07.67-1.68.08-2.35-.19-.86-.34-1.9-.72-2.49.18-.81,1.21.39,1.84,1.11,2.57,2.54,2.56,5.16,1.78,7-.52,2-2.52,1.41-5.09-1.63-6.77C1119.84,271.85,1118.71,271.58,1118.38,269.88Z" transform="translate(-1.31 -14.57)"/><path class="cls-28" d="M1047.35,356.66c.09,6.44-6.71,12.95-13.49,12.94-6.13,0-12.65-6.43-12.8-12.63-.17-7,6.3-13.7,13.15-13.72C1040.74,343.23,1047.25,349.88,1047.35,356.66Zm-14-4.38c1.68-.18,3.16,1.73,4.37.1a1.76,1.76,0,0,0,0-1.64c-.89-1.26-2.23-2.5-3.66-2.35a5.74,5.74,0,0,0-4.37,3.56c-.83,1.78.08,3.17,1.44,4.37,1.1,1,3.22,1.05,3.17,3.23-1.64.73-4-2.39-4.6.62-.46,2.17,2.1,3.71,3.71,3.94,2.18.32,4.24-1.2,5.26-3.45a3.69,3.69,0,0,0-1.52-5.09C1035.94,354.77,1034.2,354.68,1033.39,352.28Z" transform="translate(-1.31 -14.57)"/><path class="cls-29" d="M1185.14,421.5c.29-2.24-1.87-2.4-3-3.38a4.23,4.23,0,0,1-1.76-4.39c.45-2,2.1-3,3.71-3.79s2.73.88,4,1.56a1.42,1.42,0,0,1,.63,2c-1,1.73-2.8.22-4.21.65.28,2.08,2.17,2.11,3.25,3,2,1.71,3,3.7,1.12,5.86-1.67,1.88-3.73,3.69-6.6,1.54-1-.75-2.34-1.34-1.59-2.78.6-1.17,1.8-.79,2.8-.24C1184,421.8,1184.52,422.19,1185.14,421.5Z" transform="translate(-1.31 -14.57)"/><path class="cls-29" d="M1187.87,323.85c.18-2.11-1.81-2.16-2.84-3.07-1.33-1.18-2.19-2.57-1.82-4.38s1.92-3,3.62-3.78,3.23.2,4.39,1.47a1.86,1.86,0,0,1,.23,2.5c-1.42,1.74-2.6-1.17-4.32-.12.11,2.25,2.55,2,3.68,3.14,1.56,1.5,2.63,3.2,1.67,5.21a6.47,6.47,0,0,1-5.32,3.56c-1.44,0-4-2-3.65-4C1184.06,321.3,1186.45,324.9,1187.87,323.85Z" transform="translate(-1.31 -14.57)"/><path class="cls-29" d="M1118.38,269.88c.33,1.7,1.46,2,2.36,2.46,3,1.68,3.64,4.25,1.63,6.77-1.83,2.3-4.45,3.08-7,.52-.72-.73-1.92-1.36-1.11-2.57.59-.9,1.63-.52,2.49-.18.67.27,1.28.86,2.35.19.21-2.08-1.93-2.18-3-3.09a4.91,4.91,0,0,1-1.64-5.31c.46-2,2.14-2.47,3.79-2.76s2.92.61,4,1.72c.54.56.87,1.33.21,2C1121.29,270.83,1119.9,269.7,1118.38,269.88Z" transform="translate(-1.31 -14.57)"/><path class="cls-29" d="M1033.39,352.28c.81,2.4,2.55,2.49,3.77,3.29a3.69,3.69,0,0,1,1.52,5.09c-1,2.25-3.08,3.77-5.26,3.45-1.61-.23-4.17-1.77-3.71-3.94.63-3,3,.11,4.6-.62,0-2.18-2.07-2.26-3.17-3.23-1.36-1.2-2.27-2.59-1.44-4.37a5.74,5.74,0,0,1,4.37-3.56c1.43-.15,2.77,1.09,3.66,2.35a1.76,1.76,0,0,1,0,1.64C1036.55,354,1035.07,352.1,1033.39,352.28Z" transform="translate(-1.31 -14.57)"/></g><g id="lrzh0l"><path class="cls-30" d="M610.26,437.85l.42-2,1.47.65a2.83,2.83,0,0,0,1.88,1.36c3.11,2.74,6.89,3.88,10.89,4.47a9.55,9.55,0,0,0,3.6,1.22c7.89,1.63,15.88,1.39,23.85,1.16,1.66-.05,2.72-.25,2.15,2-.64,2.58.48,4.54,2.69,6a27.23,27.23,0,0,0,7.12,3.54,89.81,89.81,0,0,0,47.59.55c1.49-.38,2.93-1,5.08-1.68-1.08-.38-1.38-.6-1.61-.55-6.41,1.68-12.95,2.19-19.54,2.71a68.69,68.69,0,0,1-26.47-2.69c-5.3-1.7-11.53-3.61-11.86-11.15,0-.23-.43-.44-.66-.66.09-1.57-1-2.53-2-3.45a4.87,4.87,0,0,1-1.85-4.17l0-2.32c-.8-2.71-3.61-4.36-3.87-7.35l0-2.28c.23-.68.46-1.36.68-2,4.15,3.94,9.19,6,14.71,7.18a102.08,102.08,0,0,0,35.21.79c3.63-.51,7.26-1.15,10.48-3.23a118.65,118.65,0,0,1-14.76,1.88c-10.26.86-20.44.7-30.35-2.22-6.88-2-11.72-5.25-10.82-12.7l.07-1.36a29.86,29.86,0,0,0,13,6.54A73.42,73.42,0,0,0,679,420.15c12.06,1,24,.62,35.61-3.2.58-.19,1.53-.09,1.53-1.14-.13-.07-.23-.16-.31-.15l-1.56.29c-14.4,2.64-28.86,4.14-43.2.09-6.18-1.74-12.77-3.68-13.58-11.89-.1-1.09-.85-1.3-1.85-1.16s-2.11.16-3.17.24c1.05-2.51,1.35-5.69,5.16-5.7a6.94,6.94,0,0,0,3.34,6.41,27.3,27.3,0,0,0,8,3.8,86.36,86.36,0,0,0,35.92,2.44c8-1.08,16-2.53,22.35-8.21,1.12,1.61.53,3.44.67,5.17-.17.58-.34,1.15-.5,1.73l-1.59,1.52c-2.58,2.45-2.37,3.93.8,5.64,0,.22,0,.44,0,.66-.88,0-1.88-.75-2.55.46l-2.59,4.68c-1.51.05-2.57.75-2.45,2.31.38,4.84-2.84,7-6.45,8.86-11.62,6-24.11,5-36.53,4.47-5.49-.26-10.86-1.45-16.29-2.5a36.11,36.11,0,0,0,7.31,2.8c12.34,3.23,24.83,3.2,37.29,1,6.69-1.17,13.39-2.77,18.34-8.1l.07,1.4c-.13,2.49.21,4.86-1.6,7.23-3.36,4.4-8.13,5.73-13,6.73-10.52,2.17-21.16,1.76-31.77.75-3.29-.32-6.55-.9-9.82-1.36a27.33,27.33,0,0,0,7.1,2.55,89.3,89.3,0,0,0,31.72,1.17c7.82-1,15.6-2.6,21.79-8.18,1,1.39.55,3,.68,4.53l0,2.49c-2.49,1.14-4.69,2.43-3.23,5.78-.76,4.45-3.74,6.89-7.64,8.61a62,62,0,0,1-23,4.78,89.58,89.58,0,0,1-32.69-4.43l-.48-.13.49.13c.6,1.8,2.29,2.09,3.75,2.61,10,3.57,20.36,4.48,31,3.87,10.92-.62,21.57-1.75,30.4-9.15l.09,5.84,0,.63c-1.19,2.36-4.6,3.17-4.5,6.43.22.42.44.84.67,1.25-1.74,1.59-2.28,3.84-3.27,5.84-1.49.5-1.34,1.85-1.36,2.95-.09,6.34-4.06,9.2-9.52,10.76a76.33,76.33,0,0,1-19.52,2.81,135.57,135.57,0,0,1-24.66-1.91,7.72,7.72,0,0,0,1.2.89,25.65,25.65,0,0,0,3.05,1,95.77,95.77,0,0,0,35.83.94c7.19-1.17,14.28-2.75,19.44-8.58,0,1.29,0,2.59,0,3.88.31,3.13-1.17,5.25-3.75,6.83a32.35,32.35,0,0,1-6,3c-12.54,4.45-25.4,4.3-38.37,2.71-5.19-.64-10.12-2.34-15.18-3.51l-.48-.15.49.14c2.27,2.51,5.46,3.36,8.49,4.1a95.75,95.75,0,0,0,43.55.31c5-1.09,9.25-3.63,13.38-6.47.2.69.4,1.39.59,2.09,0,.86,0,1.73,0,2.6-1.07,2.6-4.17,4.15-3.92,7.41.3,4-1.84,6.26-5.06,8-7,3.84-14.62,4.86-22.35,5.43-11.85.88-23.56.23-34.77-4.18-2.91-1.15-5.93-2.39-7-5.88a1.54,1.54,0,0,0-.32-.49,12.09,12.09,0,0,1-.07-5.32c3.81,2.47,7.58,5,12.1,6.16a88.73,88.73,0,0,0,47.08-.67,4,4,0,0,0,2.65-1.6,2.62,2.62,0,0,0,1.91-.65,1.7,1.7,0,0,0,.31-.06.66.66,0,0,0,.16-.17l-.46.24a2.76,2.76,0,0,0-1.93.63,10.91,10.91,0,0,0-2.22.14c-9.88,2.61-20,2.71-30.07,2.37-6.17-.22-12.32-1.19-17.95-3.89-4.41-2.12-9.07-4.39-7.93-10.75.26-.68.67-1.39-.28-1.9a5.19,5.19,0,0,0-2-2l-.09-2.64c.58-1.23.72-2.35-.73-3.1l-.06-.05c-2.39-2.17-5.71-3.62-5.76-7.56l0-1.94a2.76,2.76,0,0,1,.69-2,25.4,25.4,0,0,0,11.12,6,86,86,0,0,0,49.31-.88,4.19,4.19,0,0,0,2.95-2.22c-11.72,4.16-23.21,3.69-34.67,3.55a41.4,41.4,0,0,1-16.75-3.46c-4.48-2-9.42-4.18-8.81-10.64l.1-2c8.91,7.09,19.7,7.91,30.36,9,10,1,27.31-1.8,31.7-5.23-10.6,3.05-20.79,3.05-31,2.73-6.14-.2-12.29-.87-18.06-3.33a17.85,17.85,0,0,1-7.09-5.25c-1.63-2-.28-4.66-1.58-6.7,0-2.73-2.08-4.67-2.65-7.18.77-1.74-.48-1.73-1.58-1.75q-3.35-.06-6.69,0c-7.78.12-15.53-.19-23-2.7C616.47,447.82,610.67,445.51,610.26,437.85ZM718.92,453.8a1.67,1.67,0,0,0-.31.05c-.06,0-.11.11-.17.17l.46-.24a1.45,1.45,0,0,0,.3-.06c.07,0,.12-.11.17-.16Z" transform="translate(-1.31 -14.57)"/><path class="cls-31" d="M616.57,369.37c.08-.65.17-1.29.25-1.94a32.31,32.31,0,0,0,13.18,6.8c9.28,2.57,18.74,2.38,28.2,2.17a54.88,54.88,0,0,0,20.53-4.06c3.22-1.39,6.79-2.74,7.79-6.91.36-1.49,1.87-1.24,3-1.1a101.47,101.47,0,0,0,27,0c1.59-.22,2.71.17,1.29,2.06-1.93,2.56-1,4.78.91,6.85s4.32,3.05,6.84,4c9.76,3.49,19.84,4.18,30.12,3.75,11.06-.47,21.88-1.47,30.8-9.08.54,3.62.27,7-2.66,9.7a2.29,2.29,0,0,0-.85,2c.69,4.24-1.66,7-4.48,9.6-.21.46-.65,1-.61,1.39.46,4-1.94,6.1-5,8-4.61,2.92-9.7,4.07-15,4.84a76.36,76.36,0,0,1-25.55-.2v-7.05c14.59,1.42,31.53-.31,36.13-3.74a3,3,0,0,0-1-.12c-10.47,2.74-21.15,1.8-31.76,1.73-3.2,0-6.74,0-9.34-2.44a19.66,19.66,0,0,0-8.78-5c-3.14-.79-4.88-2.33-4.46-5.79.19-1.6-.45-2.66-2.31-2.66-8.72,0-17.45.48-26.13-.83-.54-.08-1.16-.08-1.19.62a1.28,1.28,0,0,0,.7.93,12,12,0,0,0,2.14.56c6.83,1.35,13.74,1.38,20.66,1.28.77,0,2-.4,2.2.68a2.05,2.05,0,0,1-1.8,2.27,10.44,10.44,0,0,1-3.16.06,109.19,109.19,0,0,0-27.33.61c-5.5.88-10.56,3.22-15.89,4.56-6.55,1.65-13.35.61-20,.79a57.93,57.93,0,0,1-17.66-2.2c-7.56-2.16-10.14-5.55-10.08-13.18,1.28-.79,1.86.41,2.72.91,2.61,1.53,5.13,3.31,8.27,3.64,1.46,1.24,3.31,1.4,5.07,1.77a108.93,108.93,0,0,0,11.68,1.6,83.89,83.89,0,0,0,31.56-3.09c.57-.16,1.56-.21,1.3-1.5-5.78.87-11.46,2.26-17.31,2.44-10.46.32-20.86.09-30.95-3.18-2.48-1.3-5.09-2.4-7.06-4.49l-1.21-1.31-.64-1.27-.09-1.91ZM776,385.57a3.13,3.13,0,0,0-.92,0c-10.65,3.35-21.64,3.3-32.6,2.92-5.41-.19-10.88-.88-15.9-3.1-4.82-2.14-10.1-4-9.94-10.89,0-2-1.24-2.88-3.22-2.39a31.73,31.73,0,0,1-8,.46c-5.42,0-10.85.37-16.25-.57-.95-.17-2.41-.36-2.52,1.16-.09,1.36,1.21,1.21,2.13,1.31a79.06,79.06,0,0,0,20,.13c2-.3,4.08-.33,6.28-.49-3,6.41-2.13,8.66,4.15,11.76a35.56,35.56,0,0,0,7.18,2.64,89.36,89.36,0,0,0,33.89,1.76C765.76,389.56,771.17,388.48,776,385.57Z" transform="translate(-1.31 -14.57)"/><path class="cls-32" d="M480.78,436.51c-2.31-8.54,0-16.08,5.06-23,1.72-2.37,3.69-4.55,5.54-6.82a124.11,124.11,0,0,0,14.12-1.66c2.74.49,2.72,3.69,4.79,4.84,1.51,3.91,4.56,6.59,7.66,9.09,1.64,1.33,1.68,3.72,3.7,4.59,7,3,14,5.47,21.84,4.12,2.16-.37,4.58-2.66,6.53-.74,1.58,1.54,2.31,4,3.21,6.16,1.42,3.44,4.35,6,5.33,9.69.63,14.23-1.64,28.16-4.29,42.05-.12.63-.22,1.26-.34,1.89-.34,1.67,0,2.37,1.94,1.78,3-.9,5.7-.42,7.59,2.38.41,3.64-.17,4.4-3.71,4.47a29.94,29.94,0,0,1-5.35-.35c-5.87-1-5.87-1-5.6-6.72,1.7-9.32,3.33-18.64,2.25-28.18-.17-1.49-.1-2.6-2.33-2.05A146.67,146.67,0,0,1,512,462c-2.07,0-2.89.64-2.79,2.73.33,6.44-1.05,12.68-2.38,18.92-.38,1.76-.57,3.56-.84,5.34-.31,1-1,1.89-.22,2.94,4.62-2.44,7.5-2,9.6,1.54,1,1.72.63,2.74-1.32,3.26-2.54.67-5.06.13-7.58-.12-5.87-.57-5.86-.61-5.7-6.35,1.78-10.21,2.81-20.44.75-30.74-.17-.82-.42-1.63-.63-2.45,5.85.59,7.52-.86,6.65-5.73,3.9-2,7.24-4.84,10.87-7.24,1.8-1.2,2.12-2.87.84-4.69-1.58-2.27-3.2-4.51-4.81-6.76.16-.13.3-.33.48-.37,1.4-.29,2.68-.7,2.7-2.47a2.65,2.65,0,0,0-1.55-2.52c-1.56-.75-2.52.19-3.42,1.31-.18.21-.55.27-.83.39-1.52-2.27-3-4.57-4.57-6.81a3,3,0,0,0-4.64-.82c-2.57,1.82-5.12,3.68-7.68,5.52-1.75-2.89-1.35-6.46-3-9.83-3.29,4.51-5.27,9-4.3,14.37a5.74,5.74,0,0,0,1.06,3.22c1.3,4.25,4.38,7.12,7.73,9.73,2,1.53,5.43,2.65,5.72,4.38s-2.34,4.16-3.7,6.28h-1.85c-6-4.14-11.22-9-14.77-15.48C481.52,438.51,481.15,437.51,480.78,436.51Zm55.71-3.29a1.56,1.56,0,0,0-1.57-1.65,1.5,1.5,0,0,0-1.79,1.41,1.61,1.61,0,0,0,1.69,1.88C535.81,434.86,536.29,434.14,536.49,433.22Zm.56,8.15c-.25-.74-.62-1.48-1.65-1.49a1.48,1.48,0,0,0-1.67,1.49,1.61,1.61,0,0,0,1.75,1.79C536.43,443.13,536.94,442.45,537.05,441.37Z" transform="translate(-1.31 -14.57)"/><path class="cls-33" d="M491.25,405.14c-1.35-.16-1.52-1.38-1.92-2.3-4.91-11.25-8.95-22.78-10.49-35a33,33,0,0,1,.26-11.12c1.27-5.93,4.22-8.81,10.16-9.93,1.08-.2,2.32,0,2.73-1.62,2.72-10.94,11-14.92,21.06-16.69a35.21,35.21,0,0,1,19.09,2.25c.89.35,1.79.69,2.68,1.05,10.14,4.05,12.39,3.57,19.91-4.29.28-.29.64-.5,1.33-1.05a28.47,28.47,0,0,1-3,21.43c-2,3.59-5.21,6.12-8.18,8.85-3.82,1.8-7.49,3.9-11.6,5.12A86.65,86.65,0,0,1,506.23,365c-2.18,0-3,.57-3,2.81,0,3.13-.35,6.26-.56,9.48-5.52-2.74-6.72-2.28-6.8,2.42a6.83,6.83,0,0,0,.43,4c.79,2.48,2.28,4.7,2.6,7.35C496.52,395.84,494.42,400.78,491.25,405.14Z" transform="translate(-1.31 -14.57)"/><path class="cls-31" d="M737.57,345.53a4.31,4.31,0,0,0-2.27,2.89c.07,6.28-4.53,8.61-9.22,10.8A36.23,36.23,0,0,1,711,362.64c-10.37.06-21.09,2.68-30.61-4.4-4.31-3.21-10-3.24-15.12-4.7l.09-7.22a3.31,3.31,0,0,0,.55.07,4.66,4.66,0,0,0,1.91,1.85c2.56,1.74,5.15,3.42,8.31,3.9,1.2.41,2.38.93,3.62,1.22a95.45,95.45,0,0,0,35.77.88c3.49-.53,7-1,10.13-3.07a157.56,157.56,0,0,1-16,1.82c-11.46.9-22.71.46-33.49-4l-1.84-.71a3.18,3.18,0,0,0-1.87-1.34,8.92,8.92,0,0,0-2-3.1c-.23-.85-.45-1.7-.68-2.55v-2.56l-.54-.58-.08-.09a3,3,0,0,0-1.67-2.19,5.14,5.14,0,0,1-2.26-4.92,10.2,10.2,0,0,0-1.7-6.58c-1.55-2.2-.76-4.9-.64-7.41,3.65,3.44,8.08,5.33,12.85,6.65,10.48,2.89,21.15,3.13,31.83,2.16,7.82-.71,15.61-2,22.32-6.66,1.25-.86,2-.38,2.35.9.54,1.77.91,3.48-.9,4.87-1.42,1.1-2.72,2.35-4.07,3.54a8.76,8.76,0,0,0-1.55.37c-12,5.35-24.52,5.35-37.28,4.39a91.4,91.4,0,0,1-19.29-4l-.47-.15.48.14c3.37,3.3,7.83,4.09,12.15,5a90.42,90.42,0,0,0,31,1.23c5.85-.75,11.76-1.76,16.95-5a4.88,4.88,0,0,0,2.89-1.77c1.86-2,2.61-1,2.91,1.14,0,.85,0,1.71,0,2.56-.23.64-.45,1.28-.67,1.92a23.86,23.86,0,0,1-13,7.47c-10.53,2.42-21.16,1.57-31.78,1.1-3.31-.15-6.6-.88-9.91-1.35A37.07,37.07,0,0,0,691,344.85c13.24,1.76,26.33,1.41,39.13-2.77,2.78-.92,5.72-1.82,7.39-4.62h0l1.27-.23c.82,1.18.54,2.57.69,3.87s0,2.53-1.22,3.37Z" transform="translate(-1.31 -14.57)"/><path class="cls-34" d="M495.88,379.73c.08-4.7,1.28-5.16,6.8-2.42.21-3.22.57-6.35.56-9.48,0-2.24.81-2.86,3-2.81a86.65,86.65,0,0,0,27.07-3.22c4.11-1.22,7.78-3.32,11.6-5.12,6.32,9.41,8.17,20.65,12.55,30.85a7.44,7.44,0,0,1,.83,3.69A2.38,2.38,0,0,0,556.1,394c.12,2-.06,4-.11,5.94-1.54.22-3.2-.33-4.63.68l-.68.06a49,49,0,0,0-6.65.19c-7.84,1.26-15.76,1.59-23.62,2.46-2.91.32-6,.18-8.64,1.71l-1.32.13a2.15,2.15,0,0,1-1.46-1.12,83.58,83.58,0,0,1-10.11-21.79c1.66-.57,1.78-1.75,1-3-1-1.53-1.72-.33-2.44.4Zm43.35,6.75c-4.85.65-9.68,1.4-14.54,1.9-2.33.24-2.62,1.15-1.8,3.09a10.29,10.29,0,0,0,10.27,6.11,9.71,9.71,0,0,0,9.08-7.24C543.13,387,542.62,386.37,539.23,386.48Zm-23-8.32c.19,1.78.2,4.12,2.45,4.46,1.73.26,1.86-1.84,1.78-3.1-.12-1.81,0-4.21-2.57-4.39C516.26,375,516.34,376.81,516.2,378.16ZM543,374.71c.28,1.59.23,3.82,2.37,4.16,1.89.29,1.87-1.74,1.83-3-.05-1.84-.06-4.24-2.45-4.47C543,371.23,543.18,373.23,543,374.71Z" transform="translate(-1.31 -14.57)"/><path class="cls-30" d="M785.15,430.17c.61,4,.62,7.83-3.25,10.49a2.68,2.68,0,0,0-1.21,1.8c.16,3.25-1.5,5.73-3.15,8.25a6.78,6.78,0,0,0-.44,1.83c.23,6-2.94,9.43-8.44,11.19-12.35,4-25,3.23-37.59,2.22,0-2.35,0-4.69,0-7,1.7.06,3.4,0,5.09.18A77.08,77.08,0,0,0,768.73,455a3.69,3.69,0,0,0,2.77-2,67.47,67.47,0,0,1-18.92,3.67c-8,.54-16.11.9-24.07-1-.06-1.32.86-2,1.74-2.75a4.71,4.71,0,0,0,2.09-4.24c14.38,1.7,34.83.29,40-4.33-6.82,2-13,2.17-19.07,2.69a89.33,89.33,0,0,1-20.93-1q0-3.84,0-7.67c9.93,1.34,19.88,2,29.85.63C770.53,437.93,778.89,436.74,785.15,430.17Z" transform="translate(-1.31 -14.57)"/><path class="cls-35" d="M665.22,353.54c5.08,1.46,10.81,1.49,15.12,4.7,9.52,7.08,20.24,4.46,30.61,4.4a36.23,36.23,0,0,0,15.13-3.42c4.69-2.19,9.29-4.52,9.22-10.8a5.83,5.83,0,0,1,3.17,6.7c-.67,3.12,1.23,2.92,3,2.71a87.59,87.59,0,0,1,11.45-.5c9.42.08,18.74,1.14,27.33,5.18,6,2.81,7,5,6.2,9.39-8.92,7.61-19.74,8.61-30.8,9.08-10.28.43-20.36-.26-30.12-3.75-2.52-.9-5-1.9-6.84-4s-2.84-4.29-.91-6.85c1.42-1.89.3-2.28-1.29-2.06a101.47,101.47,0,0,1-27,0c-1.11-.14-2.62-.39-3,1.1-1,4.17-4.57,5.52-7.79,6.91a54.88,54.88,0,0,1-20.53,4.06c-9.46.21-18.92.4-28.2-2.17a32.31,32.31,0,0,1-13.18-6.8c-.84-3.92,1-6.54,4.2-8.42,6.09-3.56,12.86-4.72,19.73-5.55C648.9,352.48,657.06,353,665.22,353.54Zm-12.7,1.73c-9,.08-17.2.57-24.72,4.42-2.24,1.15-4.87,2.4-4.59,5.52.26,3,2.91,4,5.15,5.2a8.61,8.61,0,0,0,.89.34c5.23,2.34,10.8,3.11,16.44,3.51,10.31.74,20.44.13,30-4.35,2.09-1,4-2.34,4.08-4.88s-1.82-3.91-3.86-5C668.35,355.82,660.07,355.42,652.52,355.27Zm99,4.56a48.53,48.53,0,0,0-12,.73c-5.14.84-10.33,1.76-14.45,5.39-2.3,2-2.36,4.51-.14,6.6a17.61,17.61,0,0,0,7.28,3.85c10.17,3,20.52,3.26,31,1.74,4.22-.62,8.43-1.39,12.21-3.49,2.13-1.19,4.46-2.65,4.47-5.39s-2.21-4-4.33-5.08a29.63,29.63,0,0,0-4.71-1.92A55.62,55.62,0,0,0,751.56,359.83Z" transform="translate(-1.31 -14.57)"/><path class="cls-31" d="M786.31,411.41c.8,3.47.49,6.64-2.45,9.12-1.1.94-1,2.23-.89,3.49.15,3.51-1.64,5.77-4.59,7.37a43.13,43.13,0,0,1-9.73,3.9c-11.81,3.1-23.71,2.62-35.64.91-2.19-.31-4.46-.39-6.45-1.55,1.89-2.76-.42-4.79-1.25-7.09a17.78,17.78,0,0,1,2.21.25,90.23,90.23,0,0,0,39.18.36,28.34,28.34,0,0,0,9.86-3.4c-.69-.13-1-.29-1.25-.22-10.94,3.48-22.24,3.37-33.49,2.92-5.23-.2-10.62-.62-15.29-3.6a7.59,7.59,0,0,0,2-6.49A95.35,95.35,0,0,0,767,419.17,42.53,42.53,0,0,0,786.31,411.41Z" transform="translate(-1.31 -14.57)"/><path class="cls-30" d="M785.15,469.7c.43,3.2.7,6.35-1.67,9-2.36.13-2,2-1.84,3.34.35,3.71-1.47,6.05-4.47,7.75a30.4,30.4,0,0,1-3.71,1.83c-7.11,2.84-14.57,3.69-22.16,4.1a76.92,76.92,0,0,1-22.8-1.81,12.92,12.92,0,0,0-1.24-7,123,123,0,0,0,33,.68,45.23,45.23,0,0,0,15.51-4.37c-.61-.75-1.11-.4-1.58-.27a92.2,92.2,0,0,1-41.32,2c-2.86-.49-6-.64-8.27-2.9.47-2.17,1.57-4.22,1.32-6.54,8.82,2.79,17.89,3.48,27.07,3.16C764.44,478.32,775.74,477.35,785.15,469.7Z" transform="translate(-1.31 -14.57)"/><path class="cls-36" d="M613.23,378.34c-.06,7.63,2.52,11,10.08,13.18a57.93,57.93,0,0,0,17.66,2.2c6.69-.18,13.49.86,20-.79,5.33-1.34,10.39-3.68,15.89-4.56a109.19,109.19,0,0,1,27.33-.61,10.44,10.44,0,0,0,3.16-.06,2.05,2.05,0,0,0,1.8-2.27c-.22-1.08-1.43-.69-2.2-.68-6.92.1-13.83.07-20.66-1.28a12,12,0,0,1-2.14-.56,1.28,1.28,0,0,1-.7-.93c0-.7.65-.7,1.19-.62,8.68,1.31,17.41.79,26.13.83,1.86,0,2.5,1.06,2.31,2.66-.42,3.46,1.32,5,4.46,5.79a19.66,19.66,0,0,1,8.78,5c2.6,2.46,6.14,2.42,9.34,2.44,10.61.07,21.29,1,31.76-1.73a3,3,0,0,1,1,.12c-4.6,3.43-21.54,5.16-36.13,3.74-2-.32-4.45-1.81-5.14,1.76-6.36,5.68-14.35,7.13-22.34,8.21a86.36,86.36,0,0,1-35.92-2.44,27.3,27.3,0,0,1-8-3.8,6.94,6.94,0,0,1-3.34-6.41c1-2.41-1-2-2-1.8a28,28,0,0,1-5.69.52l-1.28,0c-10.89.13-21.73-.11-32.11-4a17.82,17.82,0,0,1-8.69-6.21c-.78-4.12,2-6,4.92-7.77Zm80.54,30.06a49.17,49.17,0,0,0,5.38,0c6.69-.63,13.37-1.41,19.14-5.3,3.42-2.31,3.49-5.62.18-8.07a20.48,20.48,0,0,0-3.65-1.93c-5.72-2.67-11.92-3.11-18.05-3.57-9.66-.73-19.12.43-28.06,4.42-2.05.91-4,2.22-4.1,4.84s1.7,4.16,3.92,5.27C676.19,407.83,684.39,408.59,693.77,408.4Z" transform="translate(-1.31 -14.57)"/><path class="cls-30" d="M615.28,467.12c.49-2.13-1.55-3.45-1.77-5.21a10.27,10.27,0,0,0-5-8.12c-1.13-.69-.92-2-.94-3.19.32-1.24-.38-2.72.75-3.93,5,3.8,10.65,5.58,16.56,6.6a88.58,88.58,0,0,0,25,1.21c-.31,2.65.51,5.12,1.27,7.59-9.5.11-19,.4-28.41-1.49,9,3.37,18.33,4.09,27.78,4.13-.25,2.72-3.73,4-3.23,7a87.12,87.12,0,0,1-27.39-3.9c8.47,5,17.86,6.12,27.41,6.47a3.73,3.73,0,0,1-1.55,2.3,5.51,5.51,0,0,0-2.27,5.24c-2-.18-4-.33-6-.56-6-.7-11.87-2-17.15-5.32C617,473.84,615,471.18,615.28,467.12Z" transform="translate(-1.31 -14.57)"/><path class="cls-35" d="M727.16,328.4c1.35-1.19,2.65-2.44,4.07-3.54,1.81-1.39,1.44-3.1.9-4.87-.39-1.28-1.1-1.76-2.35-.9-6.71,4.64-14.5,6-22.32,6.66-10.68,1-21.35.73-31.83-2.16-4.77-1.32-9.2-3.21-12.85-6.65-.8-3.88.85-6.44,4.13-8.46,4.35-2.69,9.2-3.84,14.06-4.7a88.33,88.33,0,0,1,36.34.78c4.08,1,8,2.11,11.48,4.4a9.36,9.36,0,0,1,4.11,6.79c.89,5.13,1.68,10.27,5.39,14.66,2.39,2.82,2.78,6.91,1.14,10.7-.15-1.3.13-2.69-.69-3.87-.24-1.11.45-3.24-.94-3.08-1.88.22.45,2-.25,3a1.32,1.32,0,0,0-.08.3h0c-2.65.51-3.05-1.24-3.22-3.22l.66-1.92c.7-.2,1.48-.36,1.49-1.27s-.78-1.09-1.47-1.29c-.3-2.1-1.05-3.15-2.91-1.14a4.88,4.88,0,0,1-2.89,1.77Zm-29.51-23.53a50.6,50.6,0,0,0-21.47,3.18c-3.06,1.22-7.1,2.34-6.89,6.54.21,4,4.09,5.19,7.28,6.23a66.65,66.65,0,0,0,42,0c3.19-1,7.15-2.23,7.15-6.3s-3.91-5.53-7.22-6.67A53.1,53.1,0,0,0,697.65,304.87Z" transform="translate(-1.31 -14.57)"/><path class="cls-30" d="M614.48,408.54l-3-1.64-1.06-1.11-.16-.08a2.57,2.57,0,0,0-1.3-1.77l.12-5.87a47.78,47.78,0,0,0,11.51,5.31c10.53,2.89,21.25,2.68,32,2.3,2-.07,2.76.08,1.67,2.1-3.44.36-4,3-4.37,5.68a140.31,140.31,0,0,1-19.44-.74,6.59,6.59,0,0,0,3.46,1.45c4.82,1.28,9.85.84,14.69,1.88-1.32,2.32-4.33,3.73-3.84,7.05a46.47,46.47,0,0,1-18.68-3.44c-4.25-1.77-8.83-3.6-9.61-9.2C616.31,409.38,615.29,409,614.48,408.54Z" transform="translate(-1.31 -14.57)"/><path class="cls-37" d="M556,400c0-2,.23-4,.11-5.94a2.38,2.38,0,0,1,2.18-2.82c2,3.65,2.11,7.71,2.71,11.67.18,1.15.44,2.29.66,3.44a35.42,35.42,0,0,0-1.23,8.93c-1.36,1.55-1.94,3.5-2.75,5.33-1.41,1.11-2.81,2.24-4.25,3.32a1.71,1.71,0,0,0-.67,2.22c1.47,3.63,2.84,7.32,5.6,10.25a21.33,21.33,0,0,0,9.23,9.82c2.38,1.41,5.08,2.32,8,1.54a22.23,22.23,0,0,0,11.15-6.52c8-9.09,11.27-20,12-31.91a6.57,6.57,0,0,0,.64-3.2c0-1.5.11-3,.17-4.49l-.12,0,1.89.09v.27l.52.88c0,.54,0,1.08,0,1.62a3.91,3.91,0,0,0-.28,2.77c0,.81-.11,1.62-.16,2.43-.48,3.4-1,6.8-1.45,10.2,0,.21-.08.42-.13.63-.15.42-.3.83-.46,1.25-2.4,9.69-6.36,18.51-14.67,24.63-8.15,6-15.94,5.4-23.26-1.58-.84-.79-1.53-1.81-2.82-2-1-3.66-3.91-6.25-5.33-9.69-.9-2.15-1.63-4.62-3.21-6.16-1.95-1.92-4.37.37-6.53.74-7.87,1.35-14.87-1.13-21.84-4.12-2-.87-2.06-3.26-3.7-4.59-3.1-2.5-6.15-5.18-7.65-9.09l1.56-.84c3.74,3.44,6.65,7.75,10.91,10.67,1.61,1.11,3,2.85,5.28,2.4l0,.18-.18-.06,1.27.89a9.28,9.28,0,0,0,7.63,1.87c2.12,0,4.28.5,6.32-.5,11.42-1.11,14.35-6.36,15.57-16.35C559,404.88,557.22,402.59,556,400Z" transform="translate(-1.31 -14.57)"/><path class="cls-30" d="M615.3,427.45a3.82,3.82,0,0,0-.73-2.67c-2-2.42-2-5.22-1.42-8.09,3,1.12,5.09,3.66,8.2,4.75,7.61,2.66,15.45,3.59,23.39,4.2,0,2.37-.13,4.75.65,7a76.76,76.76,0,0,1-26.26-4.28c9,5.62,19.17,6.6,29.46,6.89a14.22,14.22,0,0,0,1.3,7.49c-8.23.58-16.26-.85-24.28-2.45l-5.17-2.48-1.25-.71-3.84-5.09,0-1.91Z" transform="translate(-1.31 -14.57)"/><path class="cls-31" d="M781.47,400.76c.06.58.13,1.17.19,1.76.62,6.38-3.08,9.81-8.34,12.1a24.46,24.46,0,0,1-4.57,1.43c-13.41,2.95-26.83,2.49-40.24,0a3.15,3.15,0,0,1,1.65-2.17,4.45,4.45,0,0,0,2.2-4.25c1.06,0,2.12,0,3.18.13,12,1.2,23.93,1.07,35.57-2.64C775.06,405.88,778.93,404.37,781.47,400.76Z" transform="translate(-1.31 -14.57)"/><path class="cls-31" d="M782.66,460.09c.09.86.17,1.72.26,2.58.09,3.55-1.45,6-4.62,7.69a46.8,46.8,0,0,1-9.76,3.9c-10.3,2.94-20.82,2.42-31.32,1.61a31.72,31.72,0,0,1-9.37-1.69c.81-2.25,3.55-3.52,3.23-6.35,3,.28,5.91.62,8.87.82C755,469.65,769.72,469.4,782.66,460.09Z" transform="translate(-1.31 -14.57)"/><path class="cls-32" d="M560.42,415.26a35.42,35.42,0,0,1,1.23-8.93c10.54,7.49,20.57,6.73,29.94-2.2,1-1,1.61-2.58,3.34-2.69a27.35,27.35,0,0,0,4.39,4.67,6.57,6.57,0,0,1-.64,3.2c-1.45,1.25-2.86,2.54-4.34,3.74C583,422.23,572.7,422.89,560.42,415.26Z" transform="translate(-1.31 -14.57)"/><path class="cls-36" d="M726.56,434.65c2,1.16,4.26,1.24,6.45,1.55,11.93,1.71,23.83,2.19,35.64-.91a43.13,43.13,0,0,0,9.73-3.9c3-1.6,4.74-3.86,4.59-7.37,2.46,1.43,2.64,3.68,2.18,6.15-6.26,6.57-14.62,7.76-23,8.9-10,1.36-19.92.71-29.85-.63-4.05-1.56-4.05-1.56-5.14,2.54-6.19,5.58-14,7.14-21.79,8.18A89.3,89.3,0,0,1,673.68,448a27.33,27.33,0,0,1-7.1-2.55c3.27.46,6.53,1,9.82,1.36,10.61,1,21.25,1.42,31.77-.75,4.85-1,9.62-2.33,13-6.73,1.81-2.37,1.47-4.74,1.6-7.23Z" transform="translate(-1.31 -14.57)"/><path class="cls-31" d="M607.79,386.06a17.82,17.82,0,0,0,8.69,6.21c10.38,3.89,21.22,4.13,32.11,4,.16.24.29.64.5.7.53.15.64-.34.78-.72a28,28,0,0,0,5.69-.52c1.06-.19,3-.61,2,1.8-3.81,0-4.11,3.19-5.16,5.7l-1.28,0c-.66-1.4-1.3-1.34-1.91,0-9.87,1.33-19.53-.1-29.08-2.38A22.46,22.46,0,0,1,609,395.05c-.34-1.81.25-3.75-.75-5.47a3.23,3.23,0,0,0-.45-.38C607.79,388.16,607.79,387.11,607.79,386.06Z" transform="translate(-1.31 -14.57)"/><path class="cls-30" d="M632.67,490.16,630,489.9c-.77-1.21-2-.87-3.12-.92-8.87-1.92-15.12-4-15.45-12.18.16-.64.32-1.27.47-1.91,2.46,1.46,4.46,3.54,7.23,4.61a67.58,67.58,0,0,0,24.35,4.41l0,7.23-5.2-.07a1.61,1.61,0,0,0-2.35-.43l-1.53-.23C634,489.61,633.35,489.62,632.67,490.16Z" transform="translate(-1.31 -14.57)"/><path class="cls-36" d="M782.66,460.09c-12.94,9.31-27.71,9.56-42.71,8.56-3-.2-5.91-.54-8.87-.82l-4.47-1.29,0-.63,4.49,0c12.63,1,25.24,1.74,37.59-2.22,5.5-1.76,8.67-5.15,8.44-11.19a6.78,6.78,0,0,1,.44-1.83C781.38,452.67,783.67,455.48,782.66,460.09Z" transform="translate(-1.31 -14.57)"/><path class="cls-36" d="M653.25,509.36c0-1.68-.1-3.36-.14-5a9,9,0,0,1,3.27-3.21h.52c-1.14,6.36,3.52,8.63,7.93,10.75,5.63,2.7,11.78,3.67,17.95,3.89,10.09.34,20.19.24,30.07-2.37a10.91,10.91,0,0,1,2.22-.14h0a4,4,0,0,1-2.65,1.6,88.73,88.73,0,0,1-47.08.67C660.83,514.36,657.06,511.83,653.25,509.36Z" transform="translate(-1.31 -14.57)"/><path class="cls-36" d="M728.51,416.07c13.41,2.47,26.83,2.93,40.24,0a24.46,24.46,0,0,0,4.57-1.43c5.26-2.29,9-5.72,8.34-12.1,4.42,2.22,5.38,4.06,4.65,8.89A42.53,42.53,0,0,1,767,419.17a95.35,95.35,0,0,1-38.53-1.79l-1.89-.69c0-.22,0-.44,0-.66Z" transform="translate(-1.31 -14.57)"/><path class="cls-36" d="M727.85,474.18a31.72,31.72,0,0,0,9.37,1.69c10.5.81,21,1.33,31.32-1.61a46.8,46.8,0,0,0,9.76-3.9c3.17-1.73,4.71-4.14,4.62-7.69,2.35,1.84,2.8,4.27,2.23,7-9.41,7.64-20.71,8.61-32.14,9-9.18.32-18.25-.37-27.07-3.16l-3.16-1.33-.67-1.25C724,473.38,725.8,474.41,727.85,474.18Z" transform="translate(-1.31 -14.57)"/><path class="cls-36" d="M781.47,400.76c-2.54,3.61-6.41,5.12-10.36,6.38-11.64,3.71-23.56,3.84-35.57,2.64-1.06-.11-2.12-.09-3.18-.12l-5-.79c.16-.58.33-1.15.5-1.73l4.46.12a76.36,76.36,0,0,0,25.55.2c5.27-.77,10.36-1.92,15-4.84,3.06-1.93,5.46-4,5-8,0-.43.4-.93.61-1.39C780.68,395.22,782.32,397.49,781.47,400.76Z" transform="translate(-1.31 -14.57)"/><path class="cls-35" d="M649.88,454.48a88.58,88.58,0,0,1-25-1.21c-5.91-1-11.57-2.8-16.56-6.6-1.13,1.21-.43,2.69-.75,3.93-2.26-3.85-.88-10.3,2.71-12.75.41,7.66,6.21,10,12.11,12,7.44,2.51,15.19,2.82,23,2.7q3.35,0,6.69,0c1.1,0,2.35,0,1.58,1.76Z" transform="translate(-1.31 -14.57)"/><path class="cls-38" d="M480.78,436.51c.37,1,.74,2,1.1,3-2.31,1-2.17,2.28-.77,4.14,2.66,3.56,5.1,7.28,7.64,10.93,3.16,4.56,3.16,4.56,7.52.91a3.28,3.28,0,0,0,.38-.5h1.85a.67.67,0,0,1,.48.12l1.57,1.52a65.7,65.7,0,0,1-6.94,4.92,4.27,4.27,0,0,1-6.1-1.49c-3.19-4.84-6.46-9.64-9.67-14.47C474.5,440.55,475.1,438.74,480.78,436.51Z" transform="translate(-1.31 -14.57)"/><path class="cls-35" d="M644.74,425.64c-7.94-.61-15.78-1.54-23.39-4.2-3.11-1.09-5.21-3.63-8.2-4.75-1.14-3,.89-5.44,1.33-8.16.81.5,1.83.85,2,1.93.78,5.6,5.36,7.43,9.61,9.2a46.47,46.47,0,0,0,18.68,3.44l4.44.12,0,2.28Z" transform="translate(-1.31 -14.57)"/><path class="cls-35" d="M643.49,483.91a67.58,67.58,0,0,1-24.35-4.41c-2.77-1.07-4.77-3.15-7.23-4.61-.12-1.39-.25-2.79-.38-4.19.24-.3.46-.6.69-.91l3.06-2.67c-.26,4.06,1.68,6.72,5.05,8.83,5.28,3.31,11.11,4.62,17.15,5.32,2,.23,4,.38,6,.56l4.46.1c0,.65,0,1.29,0,1.94Z" transform="translate(-1.31 -14.57)"/><path class="cls-34" d="M491.25,405.14c3.17-4.36,5.27-9.3,7.66-14.08q2,3.79,4,7.6c1.09,2,2.74,3.85,2.55,6.4a124.11,124.11,0,0,1-14.12,1.66C491.34,406.2,491.3,405.67,491.25,405.14Z" transform="translate(-1.31 -14.57)"/><path class="cls-35" d="M615.35,432.05l3.84,5.09c.16.68.42,1.2,1.25.71l5.17,2.48a3,3,0,0,0-.69,2c-4-.59-7.78-1.73-10.89-4.47-.11-1.18-.24-2.33-1.88-1.36l-1.47-.65c-.69-4.37.69-6.88,4.62-8.43,0,.9,0,1.79,0,2.69-.61.16-1.38.3-1.39,1S614.75,432,615.35,432.05Z" transform="translate(-1.31 -14.57)"/><path class="cls-35" d="M670.34,343.82a8.92,8.92,0,0,1,2,3.1c-.46,2,1.07,1.14,1.87,1.34l1.84.71v3.17c-3.16-.48-5.75-2.16-8.31-3.9-.22-1.05,0-2.55-1.91-1.85a3.31,3.31,0,0,1-.55-.07c-.95-3.74.08-6,3.74-8.28l.08.09.54.58c0,.85,0,1.71,0,2.56-.68.23-1.63.34-1.37,1.35S669.52,343.63,670.34,343.82Z" transform="translate(-1.31 -14.57)"/><path class="cls-35" d="M613.23,378.34l-.52,0c.16-3.46,0-7.06,3.86-8.92V372c-.6.12-1.41.07-1.46.86-.08,1.05.87.93,1.55,1.05.21.42.43.84.64,1.27-.66,1.41.53,1.13,1.21,1.31,2,2.09,4.58,3.19,7.06,4.49a2.69,2.69,0,0,1-1.35,2c-3.14-.33-5.66-2.11-8.27-3.64C615.09,378.75,614.51,377.55,613.23,378.34Z" transform="translate(-1.31 -14.57)"/><path class="cls-39" d="M607.57,404.55c-1.51-.3-2.31-1.71-3.61-2.31,0-3-.06-5.91-.08-8.87l3.63-2.81Z" transform="translate(-1.31 -14.57)"/><path class="cls-34" d="M500.55,456.63,499,455.11c2.71-1.27,3.22-4.92,6.28-5.8a3.12,3.12,0,0,0,2.3,2c.87,4.87-.8,6.32-6.65,5.73A.93.93,0,0,0,500.55,456.63Z" transform="translate(-1.31 -14.57)"/><path class="cls-39" d="M601.26,401.67l-1.89-.09q0-3.9.07-7.8l3.13.1a31.1,31.1,0,0,1,0,3.74C602.41,399,603.36,400.87,601.26,401.67Z" transform="translate(-1.31 -14.57)"/><path class="cls-37" d="M607.57,404.55l-.06-14c.06-.3.13-.59.19-.89a1.05,1.05,0,0,0,.55-.09c1,1.72.41,3.66.75,5.47l.09,3-.12,5.87a1.6,1.6,0,0,0-.29,1.57C608,405.57,607.78,405.05,607.57,404.55Z" transform="translate(-1.31 -14.57)"/><path class="cls-34" d="M599.32,406.11a27.35,27.35,0,0,1-4.39-4.67,8.19,8.19,0,0,1,3.09-3.86c.62,1.3-1.18,3.48,1.47,4C599.43,403.12,599.37,404.61,599.32,406.11Z" transform="translate(-1.31 -14.57)"/><path class="cls-40" d="M601.26,401.67c2.1-.8,1.15-2.63,1.3-4.05a31.1,31.1,0,0,0,0-3.74l1.31-.51c0,3,0,5.91.08,8.87l-1.79,2.29a2.34,2.34,0,0,0-.38-.09c0-.54,0-1.08,0-1.62-.18-.29-.35-.59-.52-.88Z" transform="translate(-1.31 -14.57)"/><path class="cls-38" d="M599.49,401.62c-2.65-.56-.85-2.74-1.47-4,0-1,0-2.05-.08-3.07-.07-1.45.6-1.3,1.5-.73q0,3.9-.07,7.8Z" transform="translate(-1.31 -14.57)"/><path class="cls-38" d="M599.9,419.84c.48-3.4,1-6.8,1.45-10.2C602.32,413.25,601.18,416.55,599.9,419.84Z" transform="translate(-1.31 -14.57)"/><path class="cls-41" d="M608.68,405.51a1.6,1.6,0,0,1,.29-1.57,2.57,2.57,0,0,1,1.3,1.77Z" transform="translate(-1.31 -14.57)"/><path class="cls-38" d="M601.79,404.44a2.34,2.34,0,0,1,.38.09,2.15,2.15,0,0,1-.66,2.69A3.93,3.93,0,0,1,601.79,404.44Z" transform="translate(-1.31 -14.57)"/><path class="cls-41" d="M656.9,501.11h-.52l.24-1.91C657.57,499.72,657.16,500.43,656.9,501.11Z" transform="translate(-1.31 -14.57)"/><path class="cls-41" d="M610.43,405.79l1.06,1.11A1,1,0,0,1,610.43,405.79Z" transform="translate(-1.31 -14.57)"/><path class="cls-35" d="M737.57,345.53l.64-1A.72.72,0,0,1,737.57,345.53Z" transform="translate(-1.31 -14.57)"/><path class="cls-38" d="M599.31,421.72c.16-.42.31-.83.46-1.25C599.62,420.89,599.47,421.3,599.31,421.72Z" transform="translate(-1.31 -14.57)"/><path class="cls-42" d="M612.22,469.79c-.23.31-.45.61-.69.91Z" transform="translate(-1.31 -14.57)"/><path class="cls-41" d="M608.25,389.58a1.05,1.05,0,0,1-.55.09,1,1,0,0,1,.1-.46A2.6,2.6,0,0,1,608.25,389.58Z" transform="translate(-1.31 -14.57)"/><path class="cls-36" d="M726.53,423.87c4.67,3,10.06,3.4,15.29,3.6,11.25.45,22.55.56,33.49-2.92.24-.07.56.09,1.25.22a28.34,28.34,0,0,1-9.86,3.4,90.23,90.23,0,0,1-39.18-.36,17.78,17.78,0,0,0-2.21-.25c-4.44-2-1.75,2.09-2.63,3.13-4.95,5.33-11.65,6.93-18.34,8.1-12.46,2.18-25,2.21-37.29-1a36.11,36.11,0,0,1-7.31-2.8c5.43,1,10.8,2.24,16.29,2.5,12.42.57,24.91,1.55,36.53-4.47,3.61-1.87,6.83-4,6.45-8.86-.12-1.56.94-2.26,2.45-2.31C723,422.91,724.55,423.91,726.53,423.87Z" transform="translate(-1.31 -14.57)"/><path class="cls-36" d="M724.62,482.09c2.29,2.26,5.41,2.41,8.27,2.9a92.2,92.2,0,0,0,41.32-2c.47-.13,1-.48,1.58.27a45.23,45.23,0,0,1-15.51,4.37,123,123,0,0,1-33-.68c-2.39-1.59-3.42-.83-3.29,1.91-5.16,5.83-12.25,7.41-19.44,8.58a95.77,95.77,0,0,1-35.83-.94,25.65,25.65,0,0,1-3.05-1,7.72,7.72,0,0,1-1.2-.89,135.57,135.57,0,0,0,24.66,1.91,76.33,76.33,0,0,0,19.52-2.81c5.46-1.56,9.43-4.42,9.52-10.76,0-1.1-.13-2.45,1.36-2.95A8.73,8.73,0,0,0,724.62,482.09Z" transform="translate(-1.31 -14.57)"/><path class="cls-36" d="M609.09,398.07l-.09-3a22.46,22.46,0,0,0,11.15,5.85c9.55,2.28,19.21,3.71,29.08,2.38l1.91,0,1.28,0c1.06-.08,2.12-.09,3.17-.24s1.75.07,1.85,1.16c.81,8.21,7.4,10.15,13.58,11.89,14.34,4,28.8,2.55,43.2-.09l1.56-.29c.08,0,.18.08.31.15,0,1.05-1,.95-1.53,1.14-11.62,3.82-23.55,4.2-35.61,3.2a73.42,73.42,0,0,1-11.58-2.09,29.86,29.86,0,0,1-13-6.54c-.06-1.25-.11-2.49-.16-3.74,1.09-2,.29-2.17-1.67-2.1-10.73.38-21.45.59-32-2.3A47.78,47.78,0,0,1,609.09,398.07Z" transform="translate(-1.31 -14.57)"/><path class="cls-36" d="M728.51,455.71c8,1.87,16,1.51,24.07,1A67.47,67.47,0,0,0,771.5,453a3.69,3.69,0,0,1-2.77,2,77.08,77.08,0,0,1-32.59,4.06c-1.69-.14-3.39-.12-5.09-.18-1.72-.42-3.72-1.9-4.56,1.16-8.83,7.4-19.48,8.53-30.4,9.15-10.6.61-20.93-.3-31-3.87-1.46-.52-3.15-.81-3.75-2.61h0a89.58,89.58,0,0,0,32.69,4.43,62,62,0,0,0,23-4.78c3.9-1.72,6.88-4.16,7.64-8.61C725.63,455.06,726.77,456,728.51,455.71Z" transform="translate(-1.31 -14.57)"/><path class="cls-36" d="M650.52,464.71c-9.45,0-18.8-.76-27.78-4.13,9.41,1.89,18.91,1.6,28.41,1.49a12.48,12.48,0,0,0,5.11-.6c1.3,2,0,4.67,1.58,6.7a17.85,17.85,0,0,0,7.09,5.25c5.77,2.46,11.92,3.13,18.06,3.33,10.17.32,20.36.32,31-2.73-4.39,3.43-21.73,6.22-31.7,5.23-10.66-1.05-21.45-1.87-30.36-9,0-1.65,0-3.3-.07-5,0-.07.13-.15.11-.21a2,2,0,0,0-.16-.4Z" transform="translate(-1.31 -14.57)"/><path class="cls-36" d="M647.31,474.29c-9.55-.35-18.94-1.43-27.41-6.47a87.12,87.12,0,0,0,27.39,3.9,12.93,12.93,0,0,0,4.5.57c-.61,6.46,4.33,8.6,8.81,10.64a41.4,41.4,0,0,0,16.75,3.46c11.46.14,22.95.61,34.67-3.55a4.19,4.19,0,0,1-2.95,2.22,86,86,0,0,1-49.31.88,25.4,25.4,0,0,1-11.12-6C647.36,478.27,649.23,475.84,647.31,474.29Z" transform="translate(-1.31 -14.57)"/><path class="cls-36" d="M624.92,442.36a3,3,0,0,1,.69-2c8,1.6,16,3,24.28,2.45h7c.23.22.65.43.66.66.33,7.54,6.56,9.45,11.86,11.15a68.69,68.69,0,0,0,26.47,2.69c6.59-.52,13.13-1,19.54-2.71.23-.05.53.17,1.61.55-2.15.72-3.59,1.3-5.08,1.68a89.81,89.81,0,0,1-47.59-.55,27.23,27.23,0,0,1-7.12-3.54c-2.21-1.42-3.33-3.38-2.69-6,.57-2.27-.49-2.07-2.15-2-8,.23-16,.47-23.85-1.16A9.55,9.55,0,0,1,624.92,442.36Z" transform="translate(-1.31 -14.57)"/><path class="cls-36" d="M648.59,416.05c-4.84-1-9.87-.6-14.69-1.88a6.59,6.59,0,0,1-3.46-1.45,140.31,140.31,0,0,0,19.44.74,11.28,11.28,0,0,0,4.46-.58c-.9,7.45,3.94,10.66,10.82,12.7,9.91,2.92,20.09,3.08,30.35,2.22a118.65,118.65,0,0,0,14.76-1.88c-3.22,2.08-6.85,2.72-10.48,3.23a102.08,102.08,0,0,1-35.21-.79c-5.52-1.16-10.56-3.24-14.71-7.18C649.16,419.54,649.62,417.61,648.59,416.05Z" transform="translate(-1.31 -14.57)"/><path class="cls-36" d="M726,494.13a10.23,10.23,0,0,1,.21,5.54c-4.13,2.84-8.41,5.38-13.38,6.47a95.75,95.75,0,0,1-43.55-.31c-3-.74-6.22-1.59-8.49-4.1h0c5.06,1.17,10,2.87,15.18,3.51,13,1.59,25.83,1.74,38.37-2.71a32.35,32.35,0,0,0,6-3c2.58-1.58,4.06-3.7,3.75-6.83A3.87,3.87,0,0,1,726,494.13Z" transform="translate(-1.31 -14.57)"/><path class="cls-36" d="M732.34,446.11a89.33,89.33,0,0,0,20.93,1c6.12-.52,12.25-.69,19.07-2.69-5.17,4.62-25.62,6-40,4.33L727.9,448l0-2.49Z" transform="translate(-1.31 -14.57)"/><path class="cls-36" d="M648.59,435.29c-10.29-.29-20.41-1.27-29.46-6.89a76.76,76.76,0,0,0,26.26,4.28l7.64.17c0,.77,0,1.55,0,2.33Z" transform="translate(-1.31 -14.57)"/><path class="cls-41" d="M643.49,483.91l4.48,0c0,3.94,3.37,5.39,5.76,7.56-3.4-.12-6.83.45-10.21-.3Z" transform="translate(-1.31 -14.57)"/><path class="cls-41" d="M648.59,435.29l4.46-.11a4.86,4.86,0,0,0,1.85,4.16c1,.92,2.05,1.88,2,3.45h-7A14.22,14.22,0,0,1,648.59,435.29Z" transform="translate(-1.31 -14.57)"/><path class="cls-41" d="M727.85,474.18c-2.05.23-3.83-.8-5.74-1.21-.1-3.26,3.31-4.07,4.5-6.43l4.47,1.29C731.4,470.66,728.66,471.93,727.85,474.18Z" transform="translate(-1.31 -14.57)"/><path class="cls-41" d="M727.9,448l4.44.72a4.71,4.71,0,0,1-2.09,4.24c-.88.73-1.8,1.43-1.74,2.75-1.74.27-2.88-.65-3.84-1.93C723.21,450.43,725.41,449.14,727.9,448Z" transform="translate(-1.31 -14.57)"/><path class="cls-41" d="M653,432.85l-7.64-.17c-.78-2.29-.64-4.67-.65-7l4.42-.14C649.42,428.49,652.23,430.14,653,432.85Z" transform="translate(-1.31 -14.57)"/><path class="cls-41" d="M727.35,408.87l5,.79a4.45,4.45,0,0,1-2.2,4.24,3.15,3.15,0,0,0-1.65,2.17l-2,0c-3.17-1.71-3.38-3.19-.8-5.64Z" transform="translate(-1.31 -14.57)"/><path class="cls-41" d="M656.26,461.47a12.48,12.48,0,0,1-5.11.6c-.76-2.47-1.58-4.94-1.27-7.59l3.73-.18C654.18,456.8,656.28,458.74,656.26,461.47Z" transform="translate(-1.31 -14.57)"/><path class="cls-41" d="M732.34,446.11l-4.47-.6c-.13-1.53.34-3.14-.68-4.53,1.09-4.1,1.09-4.1,5.14-2.54Q732.35,442.27,732.34,446.11Z" transform="translate(-1.31 -14.57)"/><path class="cls-41" d="M726.53,423.87c-2,0-3.54-1-5.07-2l2.59-4.68c.67-1.21,1.67-.48,2.55-.46l1.89.69A7.59,7.59,0,0,1,726.53,423.87Z" transform="translate(-1.31 -14.57)"/><path class="cls-41" d="M724.62,482.09a8.73,8.73,0,0,1-5.11-2c1-2,1.53-4.25,3.27-5.84l3.16,1.33C726.19,477.87,725.09,479.92,724.62,482.09Z" transform="translate(-1.31 -14.57)"/><path class="cls-41" d="M732.31,407.26l-4.46-.12c-.14-1.73.45-3.56-.67-5.17.68-3.57,3.11-2.08,5.13-1.76Z" transform="translate(-1.31 -14.57)"/><path class="cls-41" d="M726.49,460.07c.84-3.06,2.84-1.58,4.56-1.16,0,2.35,0,4.69,0,7l-4.49,0Z" transform="translate(-1.31 -14.57)"/><path class="cls-41" d="M726,494.13a3.87,3.87,0,0,0-1.93-1.37c0-1.29,0-2.59,0-3.88-.13-2.74.9-3.5,3.29-1.91a12.92,12.92,0,0,1,1.24,7Z" transform="translate(-1.31 -14.57)"/><path class="cls-41" d="M647.31,474.29c1.92,1.55.05,4,1.33,5.68a2.76,2.76,0,0,0-.69,2l-4.46-.1a5.51,5.51,0,0,1,2.27-5.24A3.73,3.73,0,0,0,647.31,474.29Z" transform="translate(-1.31 -14.57)"/><path class="cls-41" d="M722.68,430.69c.88-1-1.81-5.09,2.63-3.13.83,2.3,3.14,4.33,1.25,7.09l-3.81-2.56C722.73,431.62,722.7,431.16,722.68,430.69Z" transform="translate(-1.31 -14.57)"/><path class="cls-41" d="M651.79,472.29a12.93,12.93,0,0,1-4.5-.57c-.5-3.06,3-4.29,3.23-7l1.25,0c0,.2,0,.4.05.61,0,1.65,0,3.3.07,5C651.86,471,651.82,471.62,651.79,472.29Z" transform="translate(-1.31 -14.57)"/><path class="cls-41" d="M648.59,416.05c1,1.56.57,3.49,1.28,5.13-.22.68-.45,1.36-.68,2l-4.44-.12C644.26,419.78,647.27,418.37,648.59,416.05Z" transform="translate(-1.31 -14.57)"/><path class="cls-41" d="M654.34,412.88a11.28,11.28,0,0,1-4.46.58c.4-2.7.93-5.32,4.37-5.68,0,1.25.1,2.49.16,3.74C654.38,412,654.36,412.43,654.34,412.88Z" transform="translate(-1.31 -14.57)"/><path class="cls-41" d="M654.52,494.58c-.88-.89-.6-2-.73-3.1C655.24,492.23,655.1,493.35,654.52,494.58Z" transform="translate(-1.31 -14.57)"/><path class="cls-36" d="M612.15,436.53c1.64-1,1.77.18,1.88,1.36A2.83,2.83,0,0,1,612.15,436.53Z" transform="translate(-1.31 -14.57)"/><path class="cls-36" d="M717,512.6a2.62,2.62,0,0,1-1.91.65h0a2.76,2.76,0,0,1,1.93-.63Z" transform="translate(-1.31 -14.57)"/><path class="cls-36" d="M661.38,462.74l-.49-.13.48.13Z" transform="translate(-1.31 -14.57)"/><path class="cls-36" d="M717,512.61l.46-.24a.66.66,0,0,1-.16.17,1.7,1.7,0,0,1-.31.06Z" transform="translate(-1.31 -14.57)"/><path class="cls-36" d="M718.9,453.78l-.46.24c.06-.06.11-.14.17-.17a1.67,1.67,0,0,1,.31-.05Z" transform="translate(-1.31 -14.57)"/><path class="cls-36" d="M718.92,453.8l.45-.24c0,.05-.1.13-.17.16a1.45,1.45,0,0,1-.3.06Z" transform="translate(-1.31 -14.57)"/><path class="cls-36" d="M660.74,501.73l-.49-.14.48.15Z" transform="translate(-1.31 -14.57)"/><path class="cls-36" d="M653.64,515.17a.59.59,0,0,1-.32-.49A1.54,1.54,0,0,1,653.64,515.17Z" transform="translate(-1.31 -14.57)"/><path class="cls-36" d="M776,385.57c-4.79,2.91-10.2,4-15.64,4.72a89.36,89.36,0,0,1-33.89-1.76,35.56,35.56,0,0,1-7.18-2.64c-6.28-3.1-7.13-5.35-4.15-11.76-2.2.16-4.26.19-6.28.49a79.06,79.06,0,0,1-20-.13c-.92-.1-2.22.05-2.13-1.31.11-1.52,1.57-1.33,2.52-1.16,5.4.94,10.83.52,16.25.57a31.73,31.73,0,0,0,8-.46c2-.49,3.27.43,3.22,2.39-.16,6.87,5.12,8.75,9.94,10.89,5,2.22,10.49,2.91,15.9,3.1,11,.38,21.95.43,32.6-2.92A3.13,3.13,0,0,1,776,385.57Z" transform="translate(-1.31 -14.57)"/><path class="cls-36" d="M624.22,382.89a2.69,2.69,0,0,0,1.35-2c10.09,3.27,20.49,3.5,30.95,3.18,5.85-.18,11.53-1.57,17.31-2.44.26,1.29-.73,1.34-1.3,1.5A83.89,83.89,0,0,1,641,386.26a108.93,108.93,0,0,1-11.68-1.6C627.53,384.29,625.68,384.13,624.22,382.89Z" transform="translate(-1.31 -14.57)"/><path class="cls-36" d="M616.66,373.86c-.68-.12-1.63,0-1.55-1.05,0-.79.86-.74,1.46-.86Z" transform="translate(-1.31 -14.57)"/><path class="cls-36" d="M618.51,376.44c-.68-.18-1.87.1-1.21-1.31C617.71,375.56,618.11,376,618.51,376.44Z" transform="translate(-1.31 -14.57)"/><path class="cls-39" d="M505.26,449.31c-3.06.88-3.57,4.53-6.28,5.8a.67.67,0,0,0-.48-.12c1.36-2.12,4-4.45,3.7-6.28s-3.76-2.85-5.72-4.38c-3.35-2.61-6.43-5.48-7.73-9.73,3.95-2.71,7.89-5.44,11.86-8.12,4.51-3.06,3.49-2.52,6.19,1.18-.47,2.53,4.94,10.33,7.4,10.66,2.23,2.23,2.08,3.89-.85,5.52S508,447.46,505.26,449.31ZM506,441l-.62-.63-.66-1.29-.12-.09.1.12c.22.42.44.85.65,1.28l.63.63c.22.43.43.86.65,1.28l.63.64c.19.22-.06.88.62.62l-.6-.64-.63-.64Z" transform="translate(-1.31 -14.57)"/><path class="cls-38" d="M506.8,427.66c-2.7-3.7-1.68-4.24-6.19-1.18-4,2.68-7.91,5.41-11.86,8.12a5.74,5.74,0,0,1-1.06-3.22l7.26-4.54c2.56-1.84,5.11-3.7,7.68-5.52a3,3,0,0,1,4.64.82c1.57,2.24,3.05,4.54,4.57,6.81C509.84,429.77,508.81,426.79,506.8,427.66Z" transform="translate(-1.31 -14.57)"/><path class="cls-39" d="M505.5,405.06c.19-2.55-1.46-4.36-2.55-6.4q-2-3.81-4-7.6c-.32-2.65-1.81-4.87-2.6-7.35a6.83,6.83,0,0,1-.43-4l1.53,0a4.58,4.58,0,0,0,1.47,2.6A83.58,83.58,0,0,0,509,404.09a2.15,2.15,0,0,0,1.46,1.12c0,1.46.87,2.59,1.41,3.85l-1.56.84C508.22,408.75,508.24,405.55,505.5,405.06Z" transform="translate(-1.31 -14.57)"/><path class="cls-39" d="M496.65,455a3.28,3.28,0,0,1-.38.5c-4.36,3.65-4.36,3.65-7.52-.91-2.54-3.65-5-7.37-7.64-10.93-1.4-1.86-1.54-3.14.77-4.14C485.43,446,490.65,450.86,496.65,455Z" transform="translate(-1.31 -14.57)"/><path class="cls-38" d="M505.26,449.31c2.69-1.85,5.26-3.9,8.09-5.47s3.08-3.29.85-5.52c1.11-1.85-.91-3.85.26-5.71,1.61,2.25,3.23,4.49,4.81,6.76,1.28,1.82,1,3.49-.84,4.69-3.63,2.4-7,5.23-10.87,7.24A3.12,3.12,0,0,1,505.26,449.31Z" transform="translate(-1.31 -14.57)"/><path class="cls-43" d="M514.46,432.61c-1.17,1.86.85,3.86-.26,5.71-2.46-.33-7.87-8.13-7.4-10.66,2-.87,3,2.11,5,1.29.28-.12.65-.18.83-.39.9-1.12,1.86-2.06,3.42-1.31a2.65,2.65,0,0,1,1.55,2.52c0,1.77-1.3,2.18-2.7,2.47C514.76,432.28,514.62,432.48,514.46,432.61Z" transform="translate(-1.31 -14.57)"/><path class="cls-44" d="M536.49,433.22c-.2.92-.68,1.64-1.67,1.64a1.61,1.61,0,0,1-1.69-1.88,1.5,1.5,0,0,1,1.79-1.41A1.56,1.56,0,0,1,536.49,433.22Z" transform="translate(-1.31 -14.57)"/><path class="cls-44" d="M537.05,441.37c-.11,1.08-.62,1.76-1.57,1.79a1.61,1.61,0,0,1-1.75-1.79,1.48,1.48,0,0,1,1.67-1.49C536.43,439.89,536.8,440.63,537.05,441.37Z" transform="translate(-1.31 -14.57)"/><path class="cls-36" d="M734.26,334.24c.17,2,.57,3.73,3.22,3.22-1.67,2.8-4.61,3.7-7.39,4.62-12.8,4.18-25.89,4.53-39.13,2.77a37.07,37.07,0,0,1-11.43-3.39c3.31.47,6.6,1.2,9.91,1.35,10.62.47,21.25,1.32,31.78-1.1A23.86,23.86,0,0,0,734.26,334.24Z" transform="translate(-1.31 -14.57)"/><path class="cls-36" d="M727.16,328.4l2,2c-5.19,3.23-11.1,4.24-16.95,5a90.42,90.42,0,0,1-31-1.23c-4.32-.94-8.78-1.73-12.15-5h0a91.4,91.4,0,0,0,19.29,4c12.76,1,25.31,1,37.28-4.39A8.76,8.76,0,0,1,727.16,328.4Z" transform="translate(-1.31 -14.57)"/><path class="cls-36" d="M676.08,352.14V349c10.78,4.48,22,4.92,33.49,4a157.56,157.56,0,0,0,16-1.82c-3.08,2.06-6.64,2.54-10.13,3.07a95.45,95.45,0,0,1-35.77-.88C678.46,353.07,677.28,352.55,676.08,352.14Z" transform="translate(-1.31 -14.57)"/><path class="cls-36" d="M737.47,337.47a1.32,1.32,0,0,1,.08-.3c.7-1-1.63-2.79.25-3,1.39-.16.7,2,.94,3.08Z" transform="translate(-1.31 -14.57)"/><path class="cls-36" d="M670.34,343.82c-.82-.19-1.81-.26-2.05-1.2s.69-1.12,1.37-1.35C669.89,342.12,670.11,343,670.34,343.82Z" transform="translate(-1.31 -14.57)"/><path class="cls-36" d="M734.94,329.76c.69.2,1.47.37,1.47,1.29s-.79,1.07-1.49,1.27C734.93,331.47,734.94,330.61,734.94,329.76Z" transform="translate(-1.31 -14.57)"/><path class="cls-36" d="M665.86,346.39c1.91-.7,1.69.8,1.91,1.85A4.66,4.66,0,0,1,665.86,346.39Z" transform="translate(-1.31 -14.57)"/><path class="cls-36" d="M674.24,348.26c-.8-.2-2.33.63-1.87-1.34A3.18,3.18,0,0,1,674.24,348.26Z" transform="translate(-1.31 -14.57)"/><path class="cls-36" d="M669.05,329.12l-.48-.14.47.15Z" transform="translate(-1.31 -14.57)"/><path class="cls-36" d="M669.67,338.71l-.54-.58Z" transform="translate(-1.31 -14.57)"/><path class="cls-39" d="M511.77,405.08c2.68-1.53,5.73-1.39,8.64-1.71,7.86-.87,15.78-1.2,23.62-2.46a49,49,0,0,1,6.65-.19l-12,19.73c-.45-1.4-1-2.79-1.35-4.22-.69-2.74-2.72-5.48,0-8.28.52-.54.05-1.16-.3-1.71-1-1.6-5.46-2.74-6.77-1.38-1,1.07-2.59,2.94-1.12,4.33,1.76,1.67,1.47,3.32,1.19,5.18-.4,2.7-.83,5.4-1.25,8.11l-1.22-.23.18.06,0-.18Q520.17,413.34,511.77,405.08Z" transform="translate(-1.31 -14.57)"/><path class="cls-32" d="M556,400c1.23,2.61,3,4.9,2.62,8.18-1.22,10-4.15,15.24-15.57,16.35.59-.42,1.13-1.09,1.79-1.24,2.93-.66,3.44-2.39,2.47-4.95-.15-.39-.17-.83-.3-1.23-.81-2.52-.5-4.34,2.64-4.7,2-.23,2.88-1.27,2.49-3.51-.47-2.7-.53-5.48-.77-8.22C552.79,399.65,554.45,400.2,556,400Z" transform="translate(-1.31 -14.57)"/><path class="cls-40" d="M539.23,386.48c3.39-.11,3.9.52,3,3.86a9.71,9.71,0,0,1-9.08,7.24,10.29,10.29,0,0,1-10.27-6.11c-.82-1.94-.53-2.85,1.8-3.09C529.55,387.88,534.38,387.13,539.23,386.48Z" transform="translate(-1.31 -14.57)"/><path class="cls-44" d="M551.36,400.66c.24,2.74.3,5.52.77,8.22.39,2.24-.48,3.28-2.49,3.51-3.14.36-3.45,2.18-2.64,4.7.13.4.15.84.3,1.23,1,2.56.46,4.29-2.47,4.95-.66.15-1.2.82-1.79,1.24-2,1-4.2.48-6.32.5l2-4.56,12-19.73Z" transform="translate(-1.31 -14.57)"/><path class="cls-44" d="M511.77,405.08q8.43,8.24,16.28,17.05c-2.33.45-3.67-1.29-5.28-2.4-4.26-2.92-7.17-7.23-10.91-10.67-.54-1.26-1.43-2.39-1.41-3.85Z" transform="translate(-1.31 -14.57)"/><path class="cls-33" d="M516.2,378.16c.14-1.35.06-3.15,1.66-3,2.52.18,2.45,2.58,2.57,4.39.08,1.26,0,3.36-1.78,3.1C516.4,382.28,516.39,379.94,516.2,378.16Z" transform="translate(-1.31 -14.57)"/><path class="cls-33" d="M543,374.71c.19-1.48,0-3.48,1.75-3.31,2.39.23,2.4,2.63,2.45,4.47,0,1.26.06,3.29-1.83,3C543.22,378.53,543.27,376.3,543,374.71Z" transform="translate(-1.31 -14.57)"/><path class="cls-37" d="M498.88,382.3a4.58,4.58,0,0,1-1.47-2.6c.72-.73,1.46-1.93,2.44-.4C500.66,380.55,500.54,381.73,498.88,382.3Z" transform="translate(-1.31 -14.57)"/><path class="cls-31" d="M652.52,355.27c7.55.15,15.83.55,23.38,4.73,2,1.12,3.93,2.46,3.86,5s-2,3.9-4.08,4.88c-9.55,4.48-19.68,5.09-30,4.35-5.64-.4-11.21-1.17-16.44-3.51a8.61,8.61,0,0,1-.89-.34c-2.24-1.22-4.89-2.25-5.15-5.2-.28-3.12,2.35-4.37,4.59-5.52C635.32,355.84,643.5,355.35,652.52,355.27Zm5.24,7c.6-.24,2.74.94,2.88-.8.13-1.48-2-1.33-3.33-1.73a20.33,20.33,0,0,0-12.51.1c-1.42.45-3.13.71-3.08,2.63s1.77,2.21,3.21,2.52c2.28.48,4.59.82,6.88,1.27.58.12,1.39.24,1.14,1.15-.15.6-.79.69-1.31.67a4.75,4.75,0,0,1-2.16-.34c-1.78-1.05-3.69-.92-5.59-.86-.87,0-2.28-.4-2.37.87s1.26,1.49,2.33,1.66A17.5,17.5,0,0,1,650,371a2.58,2.58,0,0,0,2.14.07c2.22-1.18,4.67-1.33,7-1.93,1.3-.33,3-.57,3.06-2.29s-1.61-2.14-2.93-2.43c-2.48-.54-5-.84-7.5-1.32-.66-.13-1.73-.2-1.4-1.27.27-.9,1.25-.8,1.91-.53A9.07,9.07,0,0,0,657.76,362.23Z" transform="translate(-1.31 -14.57)"/><path class="cls-31" d="M751.56,359.83a55.62,55.62,0,0,1,19.27,2.43,29.63,29.63,0,0,1,4.71,1.92c2.12,1.08,4.35,2.45,4.33,5.08s-2.34,4.2-4.47,5.39c-3.78,2.1-8,2.87-12.21,3.49-10.44,1.52-20.79,1.29-31-1.74a17.61,17.61,0,0,1-7.28-3.85c-2.22-2.09-2.16-4.58.14-6.6,4.12-3.63,9.31-4.55,14.45-5.39A48.53,48.53,0,0,1,751.56,359.83Zm-6.09,11.47c-.81,0-1.35-.05-1.88,0-.8.09-2-.33-2.24.66-.32,1.27,1,1.38,1.84,1.73,5.52,2.4,11,1.67,16.56,0,1.27-.39,2.4-1.24,2.36-2.68s-1.49-1.71-2.59-2c-2.49-.55-5-.91-7.5-1.43-.71-.15-2.08.13-1.76-1.19.25-1,1.45-.9,2.2-.54a14.2,14.2,0,0,0,6.87,1c.6,0,1.43.18,1.62-.63s-.59-1.36-1.28-1.54c-5.29-1.42-10.6-2.34-15.89,0-1.08.48-2.28,1.06-2.23,2.42.07,1.6,1.5,1.94,2.75,2.19,2.39.47,4.81.81,7.21,1.27.66.13,1.72.17,1.44,1.25-.24.91-1.22.8-1.91.68C749.08,372.14,747.32,370.81,745.47,371.3Z" transform="translate(-1.31 -14.57)"/><path class="cls-31" d="M693.77,408.4c-9.38.19-17.58-.57-25.24-4.38-2.22-1.11-4-2.52-3.92-5.27s2-3.93,4.1-4.84c8.94-4,18.4-5.15,28.06-4.42,6.13.46,12.33.9,18.05,3.57a20.48,20.48,0,0,1,3.65,1.93c3.31,2.45,3.24,5.76-.18,8.07-5.77,3.89-12.45,4.67-19.14,5.3A49.17,49.17,0,0,1,693.77,408.4Zm-2.52-12.24a2.9,2.9,0,0,1,3.27-.11c1.58.95,3.27.84,5,.8.91,0,2.22.29,2.41-.93.22-1.4-1.2-1.69-2.17-1.85-4.19-.71-8.32-2.36-12.64-.37-1.67.76-4.36.47-4.27,2.95s2.64,2.37,4.46,2.74,3.37.5,5,.8c.69.13,1.52.2,1.7,1.53a4.69,4.69,0,0,1-3.86-.22c-2-1.15-4.15-.68-6.25-.74-.63,0-1.42,0-1.52.82s.51,1.17,1.12,1.4a24.84,24.84,0,0,0,18.38-.18,1.88,1.88,0,0,0,1.43-1.9,2,2,0,0,0-1.57-1.82c-2.26-.59-4.54-1.08-6.84-1.53C693.69,397.32,692.36,397.48,691.25,396.16Z" transform="translate(-1.31 -14.57)"/><path class="cls-30" d="M649.87,396.25c-.14.38-.25.87-.78.72-.21-.06-.34-.46-.5-.7Z" transform="translate(-1.31 -14.57)"/><path class="cls-31" d="M697.65,304.87a53.1,53.1,0,0,1,20.82,2.94c3.31,1.14,7.22,2.52,7.22,6.67s-4,5.28-7.15,6.3a66.65,66.65,0,0,1-42,0c-3.19-1-7.07-2.19-7.28-6.23-.21-4.2,3.83-5.32,6.89-6.54A50.6,50.6,0,0,1,697.65,304.87Zm5.53,7c1.19-.37,3.33.75,3.49-.94.14-1.48-2-1.34-3.32-1.75a20.55,20.55,0,0,0-12.81.17c-1.39.44-3.22.79-3.12,2.62s1.75,2.24,3.26,2.52c2.19.41,4.39.76,6.58,1.15.62.11,1.47.21,1.41,1-.08,1-1,.95-1.75.89a4.94,4.94,0,0,1-1.82-.51c-2-1.09-4.15-.63-6.25-.67-.51,0-1.17,0-1.28.66-.06.31.22.95.47,1,3.32.91,6.68,2.43,10,2.38,2.18,0,4.66-1.07,7-1.62,1.36-.31,2.86-.72,2.82-2.49s-1.52-2.17-2.89-2.44c-2.5-.49-5-.84-7.52-1.31-.64-.13-1.75-.11-1.44-1.21.25-.86,1.23-.8,1.93-.61C699.68,311.18,701.25,312.27,703.18,311.89Z" transform="translate(-1.31 -14.57)"/><path class="cls-32" d="M538.68,420.45l-2,4.56a9.28,9.28,0,0,1-7.63-1.87c0-.22,0-.44-.05-.66.42-2.71.85-5.41,1.25-8.11.28-1.86.57-3.51-1.19-5.18-1.47-1.39.08-3.26,1.12-4.33,1.31-1.36,5.76-.22,6.77,1.38.35.55.82,1.17.3,1.71-2.68,2.8-.65,5.54,0,8.28C537.7,417.66,538.23,419.05,538.68,420.45Z" transform="translate(-1.31 -14.57)"/><path class="cls-32" d="M557.67,420.59q.33,7.89.68,15.79c-2.76-2.93-4.13-6.62-5.6-10.25a1.71,1.71,0,0,1,.67-2.22C554.86,422.83,556.26,421.7,557.67,420.59Z" transform="translate(-1.31 -14.57)"/><path class="cls-44" d="M529,422.48c0,.22,0,.44.05.66l-1.27-.89Z" transform="translate(-1.31 -14.57)"/><path class="cls-38" d="M601.25,401.94c.17.29.34.59.52.88C601.59,402.53,601.42,402.23,601.25,401.94Z" transform="translate(-1.31 -14.57)"/><path class="cls-36" d="M615.35,432.05c-.6-.09-1.43,0-1.42-.87s.78-.88,1.39-1Z" transform="translate(-1.31 -14.57)"/><path class="cls-36" d="M620.44,437.85c-.83.49-1.09,0-1.25-.71Z" transform="translate(-1.31 -14.57)"/><path class="cls-30" d="M651.14,403.25l-1.91,0C649.84,401.91,650.48,401.85,651.14,403.25Z" transform="translate(-1.31 -14.57)"/><path class="cls-41" d="M636,490.64a1.61,1.61,0,0,1,2.35.43A1.91,1.91,0,0,1,636,490.64Z" transform="translate(-1.31 -14.57)"/><path class="cls-41" d="M626.89,489c1.12,0,2.35-.29,3.12.92C628.74,490.37,627.84,489.58,626.89,489Z" transform="translate(-1.31 -14.57)"/><path class="cls-41" d="M632.67,490.16c.68-.54,1.29-.55,1.77.25A1.44,1.44,0,0,1,632.67,490.16Z" transform="translate(-1.31 -14.57)"/><path class="cls-30" d="M651.82,465.34c0-.21,0-.41-.05-.61a2,2,0,0,1,.16.4C652,465.19,651.86,465.27,651.82,465.34Z" transform="translate(-1.31 -14.57)"/><path class="cls-34" d="M507.3,442.91l.6.64c-.68.26-.43-.4-.62-.62Z" transform="translate(-1.31 -14.57)"/><path class="cls-34" d="M505.37,440.38l-.65-1.28,0,0,.66,1.29Z" transform="translate(-1.31 -14.57)"/><path class="cls-34" d="M506.65,442.29,506,441l0,0,.65,1.28Z" transform="translate(-1.31 -14.57)"/><path class="cls-34" d="M506.67,442.27l.63.64,0,0-.63-.64Z" transform="translate(-1.31 -14.57)"/><path class="cls-34" d="M505.4,440.36l.62.63,0,0-.63-.63Z" transform="translate(-1.31 -14.57)"/><polygon class="cls-34" points="503.41 424.52 503.31 424.4 503.44 424.5 503.41 424.52"/><path class="cls-36" d="M657.76,362.23a9.07,9.07,0,0,1-5.5-.92c-.66-.27-1.64-.37-1.91.53-.33,1.07.74,1.14,1.4,1.27,2.49.48,5,.78,7.5,1.32,1.32.29,3,.75,2.93,2.43s-1.76,2-3.06,2.29c-2.35.6-4.8.75-7,1.93A2.58,2.58,0,0,1,650,371a17.5,17.5,0,0,0-6.11-1.64c-1.07-.17-2.42-.39-2.33-1.66s1.5-.85,2.37-.87c1.9-.06,3.81-.19,5.59.86a4.75,4.75,0,0,0,2.16.34c.52,0,1.16-.07,1.31-.67.25-.91-.56-1-1.14-1.15-2.29-.45-4.6-.79-6.88-1.27-1.44-.31-3.16-.62-3.21-2.52s1.66-2.18,3.08-2.63a20.33,20.33,0,0,1,12.51-.1c1.28.4,3.46.25,3.33,1.73C660.5,363.17,658.36,362,657.76,362.23Z" transform="translate(-1.31 -14.57)"/><path class="cls-36" d="M745.47,371.3c1.85-.49,3.61.84,5.57,1.2.69.12,1.67.23,1.91-.68.28-1.08-.78-1.12-1.44-1.25-2.4-.46-4.82-.8-7.21-1.27-1.25-.25-2.68-.59-2.75-2.19,0-1.36,1.15-1.94,2.23-2.42,5.29-2.36,10.6-1.44,15.89,0,.69.18,1.49.62,1.28,1.54s-1,.61-1.62.63a14.2,14.2,0,0,1-6.87-1c-.75-.36-2-.45-2.2.54-.32,1.32,1,1,1.76,1.19,2.49.52,5,.88,7.5,1.43,1.1.24,2.54.47,2.59,2s-1.09,2.29-2.36,2.68c-5.51,1.71-11,2.44-16.56,0-.81-.35-2.16-.46-1.84-1.73.25-1,1.44-.57,2.24-.66C744.12,371.25,744.66,371.3,745.47,371.3Z" transform="translate(-1.31 -14.57)"/><path class="cls-36" d="M691.25,396.16c1.11,1.32,2.44,1.16,3.65,1.39,2.3.45,4.58.94,6.84,1.53a2,2,0,0,1,1.57,1.82,1.88,1.88,0,0,1-1.43,1.9,24.84,24.84,0,0,1-18.38.18c-.61-.23-1.2-.7-1.12-1.4s.89-.84,1.52-.82c2.1.06,4.25-.41,6.25.74a4.69,4.69,0,0,0,3.86.22c-.18-1.33-1-1.4-1.7-1.53-1.67-.3-3.37-.46-5-.8s-4.37-.35-4.46-2.74,2.6-2.19,4.27-2.95c4.32-2,8.45-.34,12.64.37,1,.16,2.39.45,2.17,1.85-.19,1.22-1.5.91-2.41.93-1.69,0-3.38.15-5-.8A2.9,2.9,0,0,0,691.25,396.16Z" transform="translate(-1.31 -14.57)"/><path class="cls-36" d="M703.18,311.89c-1.93.38-3.5-.71-5.22-1.16-.7-.19-1.68-.25-1.93.61-.31,1.1.8,1.08,1.44,1.21,2.5.47,5,.82,7.52,1.31,1.37.27,2.85.69,2.89,2.44s-1.46,2.18-2.82,2.49c-2.36.55-4.84,1.59-7,1.62-3.32,0-6.68-1.47-10-2.38-.25-.07-.53-.71-.47-1,.11-.64.77-.67,1.28-.66,2.1,0,4.25-.42,6.25.67a4.94,4.94,0,0,0,1.82.51c.72.06,1.67.09,1.75-.89.06-.77-.79-.87-1.41-1-2.19-.39-4.39-.74-6.58-1.15-1.51-.28-3.17-.82-3.26-2.52s1.73-2.18,3.12-2.62a20.55,20.55,0,0,1,12.81-.17c1.27.41,3.46.27,3.32,1.75C706.51,312.64,704.37,311.52,703.18,311.89Z" transform="translate(-1.31 -14.57)"/></g><text class="cls-45" transform="translate(33.51 23.46)"><tspan class="cls-46">D</tspan><tspan x="18.78" y="0">eja que </tspan><tspan class="cls-47" x="110.27" y="0">R</tspan><tspan x="125.63" y="0">ichie </tspan><tspan class="cls-48" x="186.83" y="0">t</tspan><tspan x="195.94" y="0">e</tspan></text><path class="cls-9" d="M18.36,87.86V35.44C14.72,37.53,7.25,39.49,4,39.71V28.87A36.09,36.09,0,0,0,22,18.45H32.71V87.86Z" transform="translate(-1.31 -14.57)"/><path d="M63.33,59.32c-1.3,4.54-4.81,8.61-12.74,8.61-9.1,0-13.66-6.31-13.66-13.54s5-13.61,14-13.61c7.83,0,11.67,4.31,12.51,8.64H57.83c-.72-1.89-2.35-4.33-7-4.33-5.23,0-8.11,3.94-8.11,9.1s2.72,9.45,8.14,9.45c4.09,0,5.83-1.65,7-4.32Z" transform="translate(-1.31 -14.57)"/><path d="M94.74,54.27c0,7.26-4.87,13.66-14.1,13.66-8.69,0-13.8-6-13.8-13.65,0-7.18,5.35-13.5,14-13.5C89.72,40.78,94.74,47.13,94.74,54.27ZM72.61,54.2c0,5.14,2.79,9.39,8.31,9.39s8-4.55,8-9.25c0-4.86-2.62-9.22-8.3-9.22C75.28,45.12,72.61,49.45,72.61,54.2Z" transform="translate(-1.31 -14.57)"/><path d="M100.12,67.38v-26h6.49c6.85,10.2,11.53,16.4,13.11,19.36h.07c-.25-2.94-.21-7.57-.21-11.84V41.33h5V67.38h-6.1c-2.91-4.31-11.85-17.61-13.5-20.6h-.08c.21,3.26.21,7,.21,11.58v9Z" transform="translate(-1.31 -14.57)"/><path d="M158.12,54.27c0,7.26-4.86,13.66-14.1,13.66-8.69,0-13.8-6-13.8-13.65,0-7.18,5.36-13.5,14-13.5C153.1,40.78,158.12,47.13,158.12,54.27ZM136,54.2c0,5.14,2.8,9.39,8.32,9.39s8-4.55,8-9.25c0-4.86-2.62-9.22-8.29-9.22C138.67,45.12,136,49.45,136,54.2Z" transform="translate(-1.31 -14.57)"/><path d="M160.69,63.4,177.2,45.66H161.49V41.33h22.65V45.6L167.89,63.05h17.38l-.65,4.33H160.69Z" transform="translate(-1.31 -14.57)"/><path d="M213.92,59.32c-1.3,4.54-4.81,8.61-12.75,8.61-9.09,0-13.65-6.31-13.65-13.54s5-13.61,13.95-13.61c7.83,0,11.66,4.31,12.51,8.64h-5.56c-.72-1.89-2.35-4.33-7-4.33-5.22,0-8.11,3.94-8.11,9.1s2.73,9.45,8.15,9.45c4.09,0,5.83-1.65,7-4.32Z" transform="translate(-1.31 -14.57)"/><path d="M223.85,60.83l-2.63,6.55h-5.64l10.72-26h6.93l11.23,26.05h-5.92l-2.78-6.55Zm10.33-4.44c-2.67-6.37-4-9.53-4.57-11.45h0c-.57,1.87-2.08,6-4.25,11.45Z" transform="translate(-1.31 -14.57)"/><path class="cls-9" d="M433.64,87.86v-.63c0-12.74,6.3-22.64,23.68-33.44,11.85-7.32,15.05-9.48,15.05-15.58,0-5.09-2.94-9.8-11.54-9.8-7.91,0-11.46,4.66-12.63,11.89H434.06C435.1,26.62,445.13,17,461.29,17S487,26.13,487,38.1c0,10.82-5,15.55-18.87,23.66-8.88,5.25-14.87,9.83-16.84,14.45h38.62L488,87.86Z" transform="translate(-1.31 -14.57)"/><text class="cls-45" transform="translate(491.71 23.46)"><tspan class="cls-49">T</tspan><tspan x="11.94" y="0">e ha</tspan><tspan class="cls-50" x="60.98" y="0">r</tspan><tspan x="70" y="0"> las mejo</tspan><tspan class="cls-51" x="186.21" y="0">r</tspan><tspan x="195.1" y="0">es</tspan></text><path d="M496.39,59.05v8.33h-4.33V46.55H503c4.63,0,7.42,2.23,7.42,5.85a4.81,4.81,0,0,1-3.68,4.94c1,.35,3.14,1.24,3.14,4.95v1a17.7,17.7,0,0,0,.26,4.08H505.6a14,14,0,0,1-.35-4.32v-.69c0-2.42-.91-3.32-4.14-3.32Zm0-3.35H502c2.71,0,3.94-1,3.94-3S504.64,49.9,502,49.9h-5.62Z" transform="translate(-1.31 -14.57)"/><path d="M528.23,58.3H516.32v5.53h13.21L529,67.38H512V46.55h16.92v3.54H516.32v4.66h11.91Z" transform="translate(-1.31 -14.57)"/><path d="M550.39,60.93c-1,3.63-3.85,6.89-10.19,6.89-7.28,0-10.92-5-10.92-10.83s4-10.88,11.15-10.88c6.26,0,9.33,3.44,10,6.91H546c-.58-1.51-1.88-3.46-5.61-3.46-4.18,0-6.49,3.15-6.49,7.27s2.18,7.56,6.52,7.56c3.27,0,4.66-1.32,5.57-3.46Z" transform="translate(-1.31 -14.57)"/><path d="M572.57,56.89c0,5.81-3.9,10.93-11.28,10.93-6.95,0-11-4.82-11-10.91,0-5.75,4.28-10.8,11.22-10.8S572.57,51.18,572.57,56.89Zm-17.7,0c0,4.11,2.23,7.51,6.64,7.51S568,60.71,568,57s-2.1-7.37-6.63-7.37C557,49.58,554.87,53,554.87,56.84Z" transform="translate(-1.31 -14.57)"/><path d="M593.36,59.08c0-3.69,0-7.43.14-9.69h0c-1,3.62-3.53,10.49-6.15,18h-3.84c-2-6.43-4.77-14.25-5.89-18h0c.17,2.41.33,6.57.33,10.11v7.87h-4V46.55h6.32c2.34,6.57,4.78,13.15,5.4,15.71h0c.92-3.06,3.35-9.45,5.57-15.71h6.35V67.38h-4.23Z" transform="translate(-1.31 -14.57)"/><path d="M616.58,58.3H604.67v5.53h13.2l-.52,3.55H600.3V46.55h16.91v3.54H604.67v4.66h11.91Z" transform="translate(-1.31 -14.57)"/><path d="M618.88,67.38V46.55h5.19c5.48,8.15,9.22,13.11,10.48,15.48h.06c-.19-2.35-.16-6.05-.16-9.47v-6h4V67.38H633.6c-2.33-3.44-9.48-14.08-10.8-16.48h-.06c.17,2.61.17,5.57.17,9.27v7.21Z" transform="translate(-1.31 -14.57)"/><path d="M641.18,46.55h9.14c6.93,0,10.79,4.5,10.79,10.06,0,6.67-4.83,10.77-10.88,10.77h-9.05Zm4.37,17.39h4c4.54,0,6.89-2.67,6.89-7.21,0-4.17-2.37-6.72-6.78-6.76h-4.15Z" transform="translate(-1.31 -14.57)"/><path d="M666.06,62.14,664,67.38h-4.51L668,46.55h5.55l9,20.83h-4.74l-2.22-5.24Zm8.27-3.55c-2.14-5.09-3.16-7.62-3.65-9.15h0c-.46,1.49-1.67,4.79-3.4,9.15Z" transform="translate(-1.31 -14.57)"/><path d="M702.13,60.93c-1,3.63-3.85,6.89-10.2,6.89-7.27,0-10.92-5-10.92-10.83s4-10.88,11.16-10.88c6.26,0,9.33,3.44,10,6.91h-4.44c-.58-1.51-1.88-3.46-5.61-3.46-4.18,0-6.49,3.15-6.49,7.27s2.18,7.56,6.52,7.56c3.27,0,4.66-1.32,5.57-3.46Z" transform="translate(-1.31 -14.57)"/><path d="M707.32,46.55V67.38H703V46.55Z" transform="translate(-1.31 -14.57)"/><path d="M731.18,56.89c0,5.81-3.9,10.93-11.28,10.93-6.95,0-11-4.82-11-10.91,0-5.75,4.28-10.8,11.22-10.8S731.18,51.18,731.18,56.89Zm-17.7,0c0,4.11,2.23,7.51,6.64,7.51s6.44-3.64,6.44-7.4-2.1-7.37-6.63-7.37C715.61,49.58,713.48,53,713.48,56.84Z" transform="translate(-1.31 -14.57)"/><path d="M732.54,67.38V46.55h5.19c5.47,8.15,9.21,13.11,10.48,15.48h.06c-.2-2.35-.17-6.05-.17-9.47v-6h4V67.38h-4.88c-2.33-3.44-9.48-14.08-10.8-16.48h-.06c.17,2.61.17,5.57.17,9.27v7.21Z" transform="translate(-1.31 -14.57)"/><path d="M771.12,58.3H759.21v5.53h13.2l-.52,3.55h-17V46.55h16.91v3.54H759.21v4.66h11.91Z" transform="translate(-1.31 -14.57)"/><path d="M776.12,61.2c.65,2,2.2,3.35,5.86,3.35s4.66-1.18,4.66-2.71-1-2.59-5.73-3.39c-6.92-1.18-8.29-3.4-8.29-6.21,0-4,3.83-6.11,8.63-6.11,7,0,8.86,3.63,9.1,5.95H786c-.34-1.16-1.1-2.7-4.84-2.7-2.6,0-4,.85-4,2.44,0,1.36.86,2.12,5,2.85,7.79,1.37,9,3.75,9,6.72,0,3.52-2.77,6.41-9.53,6.41-6.29,0-9.23-2.82-9.87-6.6Z" transform="translate(-1.31 -14.57)"/><path class="cls-9" d="M938.89,36.85c1.24-8.43,8-19.84,27-19.84,17.57,0,25.73,9,25.73,19.33a13.93,13.93,0,0,1-9.94,13.86v.21c4.93,1.54,12.77,5.86,12.77,17.08,0,12.57-9.83,21.82-28.65,21.82-18.63,0-26.87-10-28.58-21.22h14.63c1.45,5.79,6,9.77,14.7,9.77,7.62,0,13-3.45,13-10.83,0-6.74-4.49-10.31-13.66-10.31h-5.7V45.22h4.33c9.17,0,12.19-2.71,12.19-8.06,0-4.84-3.18-8.89-11.24-8.89s-11.09,4.24-12.11,8.58Z" transform="translate(-1.31 -14.57)"/><text class="cls-45" transform="translate(994.71 23.46)"><tspan class="cls-52">C</tspan><tspan class="cls-53" x="16.17" y="0">r</tspan><tspan x="25.05" y="0">e</tspan><tspan class="cls-54" x="39.09" y="0">c</tspan><tspan x="51.48" y="0">e y gana </tspan><tspan class="cls-54" x="154.77" y="0">c</tspan><tspan x="167.16" y="0">on</tspan></text><path d="M1003.39,59.05v8.33h-4.33V46.55H1010c4.63,0,7.42,2.23,7.42,5.85a4.81,4.81,0,0,1-3.68,4.94c1,.35,3.14,1.24,3.14,4.95v1a17.7,17.7,0,0,0,.26,4.08h-4.49a14,14,0,0,1-.35-4.32v-.69c0-2.42-.91-3.32-4.14-3.32Zm0-3.35H1009c2.71,0,3.94-1,3.94-3s-1.25-2.84-3.88-2.84h-5.62Z" transform="translate(-1.31 -14.57)"/><path d="M1023.32,46.55V67.38H1019V46.55Z" transform="translate(-1.31 -14.57)"/><path d="M1046,60.93c-1,3.63-3.85,6.89-10.19,6.89-7.27,0-10.92-5-10.92-10.83s4-10.88,11.15-10.88c6.27,0,9.33,3.44,10,6.91h-4.44c-.58-1.51-1.89-3.46-5.62-3.46-4.18,0-6.48,3.15-6.48,7.27s2.18,7.56,6.51,7.56c3.27,0,4.66-1.32,5.58-3.46Z" transform="translate(-1.31 -14.57)"/><path d="M1046.79,46.55h4.38v8h10.54v-8h4.37V67.38h-4.37V58.1h-10.54v9.28h-4.38Z" transform="translate(-1.31 -14.57)"/><path d="M1073.18,46.55V67.38h-4.38V46.55Z" transform="translate(-1.31 -14.57)"/><path d="M1092.16,58.3h-11.91v5.53h13.21l-.52,3.55h-17.06V46.55h16.92v3.54h-12.55v4.66h11.91Z" transform="translate(-1.31 -14.57)"/><path d="M1106,46.55h4.37V56c3.07-2.76,6.66-5.9,10.63-9.48h5.42l-10,9L1127,67.38h-5.49l-8.29-9.49-2.84,2.34v7.15H1106Z" transform="translate(-1.31 -14.57)"/><path d="M1126.27,67.38V46.55h5.2c5.47,8.15,9.21,13.11,10.48,15.48h.06c-.2-2.35-.17-6.05-.17-9.47v-6h4V67.38H1141c-2.33-3.44-9.48-14.08-10.8-16.48h-.06c.17,2.61.17,5.57.17,9.27v7.21Z" transform="translate(-1.31 -14.57)"/><path d="M1169.72,56.89c0,5.81-3.89,10.93-11.28,10.93-7,0-11-4.82-11-10.91,0-5.75,4.28-10.8,11.22-10.8S1169.72,51.18,1169.72,56.89Zm-17.7,0c0,4.11,2.24,7.51,6.65,7.51s6.44-3.64,6.44-7.4-2.1-7.37-6.64-7.37C1154.16,49.58,1152,53,1152,56.84Z" transform="translate(-1.31 -14.57)"/><path d="M1174.87,67.38l-6.1-20.83h4.6c1.33,4.91,3.76,13.39,4.22,16.83h0c.65-3.55,3.16-11.92,4.65-16.83h4.21c1.37,4.61,4,13.9,4.57,16.7h0c.62-3.58,3.05-12,4.37-16.7h4.4l-6.49,20.83h-4.75c-1.38-4.64-3.9-13.39-4.52-16.22h0c-.6,3.26-2.95,11-4.51,16.22Z" transform="translate(-1.31 -14.57)"/><path d="M1202.92,61.2c.65,2,2.2,3.35,5.87,3.35,3.51,0,4.65-1.18,4.65-2.71s-1-2.59-5.72-3.39c-6.92-1.18-8.3-3.4-8.3-6.21,0-4,3.84-6.11,8.64-6.11,7,0,8.86,3.63,9.09,5.95h-4.39c-.34-1.16-1.09-2.7-4.83-2.7-2.6,0-4,.85-4,2.44,0,1.36.85,2.12,5,2.85,7.79,1.37,9,3.75,9,6.72,0,3.52-2.78,6.41-9.53,6.41-6.3,0-9.23-2.82-9.88-6.6Z" transform="translate(-1.31 -14.57)"/></g></g></svg>