<svg xmlns="http://www.w3.org/2000/svg" viewBox="0 0 329.68 231.74"><title>box_form2</title><g id="Layer_2" data-name="Layer 2"><g id="Layer_1-2" data-name="Layer 1"><polygon points="238.83 0.5 109.05 0.5 74.9 55.15 74.9 198.59 272.99 198.59 272.99 55.15 238.83 0.5" style="fill:#a98258"/><path d="M194.43,92.71h-41a6.85,6.85,0,0,1-6.83-6.83h0a6.85,6.85,0,0,1,6.83-6.83h41a6.86,6.86,0,0,1,6.84,6.83h0A6.85,6.85,0,0,1,194.43,92.71Z" style="fill:#5c4732"/><path d="M201.27,174.68H146.62a3.42,3.42,0,1,0,0,6.83h54.65a3.42,3.42,0,0,0,0-6.83Z" style="fill:#e8d5b3"/><path d="M146.62,147.36a3.38,3.38,0,0,0,2.41-1l4.42-4.42v22.5a3.42,3.42,0,0,0,6.83,0v-22.5l4.42,4.42a3.42,3.42,0,0,0,4.83,0,3.42,3.42,0,0,0,0-4.83l-10.25-10.24a3.23,3.23,0,0,0-1.11-.74,3.38,3.38,0,0,0-2.61,0,3.32,3.32,0,0,0-1.11.74l-10.24,10.24a3.42,3.42,0,0,0,2.41,5.83Z" style="fill:#e8d5b3"/><path d="M180.77,147.36a3.4,3.4,0,0,0,2.42-1l4.41-4.42v22.5a3.42,3.42,0,0,0,6.83,0v-22.5l4.42,4.42a3.42,3.42,0,0,0,4.83-4.83l-10.24-10.24a3.45,3.45,0,0,0-3.73-.74,3.32,3.32,0,0,0-1.11.74l-10.24,10.24a3.42,3.42,0,0,0,2.41,5.83Z" style="fill:#e8d5b3"/><polygon points="109.05 0.5 74.9 55.15 272.99 55.15 238.83 0.5 109.05 0.5" style="fill:#daaf86"/><rect x="170.53" y="0.5" width="6.83" height="54.65" style="fill:#f4d6be"/><line x1="48.98" y1="54.88" x2="48.98" y2="109.9" style="fill:none;stroke:#231f20;stroke-miterlimit:10"/><line x1="37.64" y1="54.88" x2="60.31" y2="54.88" style="fill:none;stroke:#231f20;stroke-miterlimit:10"/><line x1="37.64" y1="198.33" x2="60.31" y2="198.33" style="fill:none;stroke:#231f20;stroke-miterlimit:10"/><line x1="48.98" y1="143.31" x2="48.98" y2="198.33" style="fill:none;stroke:#231f20;stroke-miterlimit:10"/><line x1="74.9" y1="220.4" x2="117.3" y2="220.4" style="fill:none;stroke:#231f20;stroke-miterlimit:10"/><line x1="74.9" y1="231.74" x2="74.9" y2="209.07" style="fill:none;stroke:#231f20;stroke-miterlimit:10"/><line x1="272.99" y1="220.4" x2="230.59" y2="220.4" style="fill:none;stroke:#231f20;stroke-miterlimit:10"/><line x1="272.99" y1="231.74" x2="272.99" y2="209.07" style="fill:none;stroke:#231f20;stroke-miterlimit:10"/><line x1="249.11" y1="0.5" x2="256.49" y2="11.98" style="fill:none;stroke:#231f20;stroke-miterlimit:10"/><line x1="242.58" y1="0.5" x2="255.65" y2="0.5" style="fill:none;stroke:#231f20;stroke-miterlimit:10"/><line x1="274.9" y1="40.6" x2="284.26" y2="55.15" style="fill:none;stroke:#231f20;stroke-miterlimit:10"/><line x1="276.72" y1="55.15" x2="289.79" y2="55.15" style="fill:none;stroke:#231f20;stroke-miterlimit:10"/><text id="height" transform="translate(17.74 130.17)" style="font-size:20px;fill:#231f20;font-family:MyriadPro-Regular, Myriad Pro">30 cm</text><text id="width" transform="translate(148.74 225.33)" style="font-size:20px;fill:#231f20;font-family:MyriadPro-Regular, Myriad Pro">30 cm</text><text id="large" transform="translate(261.54 31.62)" style="font-size:20px;fill:#231f20;font-family:MyriadPro-Regular, Myriad Pro">30 cm</text></g></g></svg>