<svg xmlns="http://www.w3.org/2000/svg" viewBox="0 0 417.37 353.82"><title>boxform4</title><g id="Layer_2" data-name="Layer 2"><g id="Layer_1-2" data-name="Layer 1"><path d="M283.21,267.53H156.76c-67.16,0-121.6,32.69-121.6,73v10.88H404.81V340.54C404.81,300.22,350.37,267.53,283.21,267.53Z" style="fill:#f4f0ee"/><path d="M283.21,267.53h-20c67.16,0,121.6,32.69,121.6,73v10.88h20V340.54C404.81,300.22,350.37,267.53,283.21,267.53Z" style="fill:#d7d2d0"/><path d="M156.76,267.53h20c-67.16,0-121.6,32.69-121.6,73v10.88h-20V340.54C35.16,300.22,89.6,267.53,156.76,267.53Z" style="fill:#fff"/><path d="M191.05,239.66h57.86v27.87H191.05Z" style="fill:#fbc24e"/><path d="M360,203.25H80l12.24,27.5c2.34,5.26,10.27,8.91,19.32,8.91H328.42c9.05,0,17-3.65,19.32-8.91Z" style="fill:#f4f0ee"/><path d="M236.91,239.66h12v27.87h-12Z" style="fill:#dfa52c"/><path d="M191.05,239.66h12v27.87h-12Z" style="fill:#fce16b"/><path d="M404.81,353.82H35.15c-2.2,0-4-1.07-4-2.4V340.54c0-41.58,56.35-75.41,125.6-75.41H283.21c69.26,0,125.6,33.83,125.6,75.41v10.88C408.81,352.75,407,353.82,404.81,353.82ZM39.15,349H400.81v-8.48c0-38.93-52.75-70.61-117.6-70.61H156.76c-64.85,0-117.6,31.68-117.6,70.61V349Z" style="fill:#848383"/><path d="M248.92,269.93H191.06c-2.21,0-4-1.07-4-2.4V239.66c0-1.33,1.79-2.4,4-2.4h57.86c2.2,0,4,1.07,4,2.4v27.87C252.92,268.86,251.12,269.93,248.92,269.93Zm-53.86-4.8h49.86V242.06H195.06Z" style="fill:#848383"/><path d="M288.26,324.71H151.7c-4.47,0-8.1-2.18-8.1-4.87V285.2c0-2.69,3.63-4.87,8.1-4.87H288.26c4.48,0,8.1,2.18,8.1,4.87v34.64C296.37,322.53,292.74,324.71,288.26,324.71Z" style="fill:#fbc24e"/><path d="M288.26,280.33h-20c4.48,0,8.11,2.18,8.11,4.87v34.64c0,2.69-3.63,4.87-8.11,4.87h20c4.48,0,8.11-2.18,8.11-4.87V285.2C296.37,282.51,292.74,280.33,288.26,280.33Z" style="fill:#dfa52c"/><path d="M151.7,324.71h20c-4.47,0-8.1-2.18-8.1-4.87V285.2c0-2.69,3.63-4.87,8.1-4.87h-20c-4.47,0-8.1,2.18-8.1,4.87v34.64C143.6,322.53,147.23,324.71,151.7,324.71Z" style="fill:#fce16b"/><path d="M288.26,327.11H151.7c-6.67,0-12.1-3.26-12.1-7.27V285.2c0-4,5.43-7.27,12.1-7.27H288.26c6.67,0,12.1,3.26,12.1,7.27v34.64C300.36,323.85,294.94,327.11,288.26,327.11ZM151.7,282.73c-2.26,0-4.1,1.11-4.1,2.47v34.64c0,1.36,1.84,2.46,4.1,2.46H288.26c2.26,0,4.1-1.1,4.1-2.46V285.2c0-1.36-1.84-2.47-4.1-2.47Z" style="fill:#848383"/><path d="M340,203.25l-16.21,36.41h4.65c9.05,0,17-3.65,19.32-8.91L360,203.25Z" style="fill:#d7d2d0"/><path d="M100,203.25l16.21,36.41h-4.65c-9,0-17-3.65-19.32-8.91L80,203.25Z" style="fill:#fff"/><path d="M328.42,242.06H111.55c-10.85,0-20.38-4.39-23.18-10.69L76.12,203.88a1.71,1.71,0,0,1,.69-2.08,5.25,5.25,0,0,1,3.18-1H360a5.21,5.21,0,0,1,3.17,1,1.7,1.7,0,0,1,.7,2.08L351.6,231.37C348.79,237.67,339.26,242.06,328.42,242.06ZM85.2,205.66l10.9,24.47c1.87,4.2,8.22,7.13,15.45,7.13H328.42c7.23,0,13.59-2.93,15.45-7.13l10.9-24.47Z" style="fill:#848383"/><path d="M72.66,305.64a6.13,6.13,0,0,1-1.65-.22c-2-.55-2.9-2-2-3.18.24-.31,6-7.74,19.79-15.2a6,6,0,0,1,5.64.18c1.48,1,1.34,2.5-.3,3.39-12.51,6.74-17.79,13.55-17.85,13.62A4.65,4.65,0,0,1,72.66,305.64Z" style="fill:#848383"/><text id="box_weight" transform="translate(185.1 307.93) scale(1.37 1)" style="font-size:20.36948013305664px;fill:#21409a;font-family:Roboto-Bold, Roboto;font-weight:700">30 <tspan x="28.45" y="0" style="letter-spacing:-0.009765624095298374em">k</tspan><tspan x="39.13" y="0">g</tspan></text><polygon points="288.95 0.5 159.17 0.5 125.01 55.15 125.01 198.59 323.1 198.59 323.1 55.15 288.95 0.5" style="fill:#a98258"/><path d="M244.55,92.71h-41a6.85,6.85,0,0,1-6.83-6.83h0a6.85,6.85,0,0,1,6.83-6.83h41a6.85,6.85,0,0,1,6.83,6.83h0A6.85,6.85,0,0,1,244.55,92.71Z" style="fill:#5c4732"/><path d="M251.38,174.68H196.74a3.42,3.42,0,1,0,0,6.83h54.64a3.42,3.42,0,1,0,0-6.83Z" style="fill:#e8d5b3"/><path d="M196.74,147.36a3.39,3.39,0,0,0,2.41-1l4.42-4.42v22.5a3.42,3.42,0,0,0,6.83,0v-22.5l4.41,4.42a3.42,3.42,0,0,0,4.83-4.83L209.4,131.29a3.23,3.23,0,0,0-1.11-.74,3.45,3.45,0,0,0-3.73.74l-10.24,10.24a3.42,3.42,0,0,0,2.42,5.83Z" style="fill:#e8d5b3"/><path d="M230.89,147.36a3.38,3.38,0,0,0,2.41-1l4.42-4.42v22.5a3.42,3.42,0,0,0,6.83,0v-22.5l4.42,4.42a3.42,3.42,0,0,0,4.83,0,3.42,3.42,0,0,0,0-4.83l-10.25-10.24a3.23,3.23,0,0,0-1.11-.74,3.38,3.38,0,0,0-2.61,0,3.23,3.23,0,0,0-1.11.74l-10.25,10.24a3.42,3.42,0,0,0,2.42,5.83Z" style="fill:#e8d5b3"/><polygon points="159.17 0.5 125.01 55.15 323.1 55.15 288.95 0.5 159.17 0.5" style="fill:#daaf86"/><rect x="220.64" y="0.5" width="6.83" height="54.65" style="fill:#f4d6be"/><line x1="109.09" y1="54.88" x2="109.09" y2="109.9" style="fill:none;stroke:#231f20;stroke-miterlimit:10"/><line x1="97.75" y1="54.88" x2="120.43" y2="54.88" style="fill:none;stroke:#231f20;stroke-miterlimit:10"/><line x1="97.75" y1="198.33" x2="120.43" y2="198.33" style="fill:none;stroke:#231f20;stroke-miterlimit:10"/><line x1="109.09" y1="143.31" x2="109.09" y2="198.33" style="fill:none;stroke:#231f20;stroke-miterlimit:10"/><line x1="125.01" y1="212.11" x2="167.41" y2="212.11" style="fill:none;stroke:#231f20;stroke-miterlimit:10"/><line x1="125.01" y1="223.45" x2="125.01" y2="200.77" style="fill:none;stroke:#231f20;stroke-miterlimit:10"/><line x1="323.1" y1="212.11" x2="280.7" y2="212.11" style="fill:none;stroke:#231f20;stroke-miterlimit:10"/><line x1="323.1" y1="223.45" x2="323.1" y2="200.77" style="fill:none;stroke:#231f20;stroke-miterlimit:10"/><line x1="299.23" y1="0.5" x2="306.61" y2="11.98" style="fill:none;stroke:#231f20;stroke-miterlimit:10"/><line x1="292.69" y1="0.5" x2="305.76" y2="0.5" style="fill:none;stroke:#231f20;stroke-miterlimit:10"/><line x1="325.02" y1="40.6" x2="334.37" y2="55.15" style="fill:none;stroke:#231f20;stroke-miterlimit:10"/><line x1="326.84" y1="55.15" x2="339.9" y2="55.15" style="fill:none;stroke:#231f20;stroke-miterlimit:10"/><text id="box_length" transform="translate(311.66 30.59)" style="font-size:20px;fill:#231f20;font-family:Roboto-Bold, Roboto;font-weight:700">30 cm</text><text id="box_width" transform="translate(193.81 218.82)" style="font-size:20px;fill:#231f20;font-family:Roboto-Bold, Roboto;font-weight:700">30 cm</text><text id="box_height" transform="translate(66.24 129.7)" style="font-size:20px;fill:#231f20;font-family:Roboto-Bold, Roboto;font-weight:700">30 cm</text></g></g></svg>