<svg xmlns="http://www.w3.org/2000/svg" viewBox="0 0 300 90"><title>calificar</title><g id="Layer_2" data-name="Layer 2"><g id="Layer_1-2" data-name="Layer 1"><rect width="300" height="90" style="fill:#ff7bac"/><rect width="210.76" height="90" style="fill:#fff"/><path d="M36.47,47.7a.5.5,0,0,1,.38.17L37.91,49a5.81,5.81,0,0,1-2.16,1.67,7.44,7.44,0,0,1-3.09.58,7.2,7.2,0,0,1-2.89-.55,6.49,6.49,0,0,1-2.2-1.53,6.68,6.68,0,0,1-1.39-2.34,8.65,8.65,0,0,1-.49-3,7.94,7.94,0,0,1,.54-3,6.81,6.81,0,0,1,1.52-2.34A7,7,0,0,1,30.1,37a7.91,7.91,0,0,1,3-.55,7,7,0,0,1,2.82.52A6.43,6.43,0,0,1,38,38.37l-.9,1.25a.8.8,0,0,1-.2.21.61.61,0,0,1-.35.09.79.79,0,0,1-.47-.18,5.49,5.49,0,0,0-.61-.39,4.91,4.91,0,0,0-.93-.39,4.86,4.86,0,0,0-1.44-.18,4.76,4.76,0,0,0-1.87.36,4.07,4.07,0,0,0-1.47,1,4.69,4.69,0,0,0-1,1.61,6.12,6.12,0,0,0-.35,2.12,6.33,6.33,0,0,0,.35,2.17,4.82,4.82,0,0,0,.93,1.6,4.15,4.15,0,0,0,1.39,1,4.33,4.33,0,0,0,1.72.34,7.57,7.57,0,0,0,1-.06,4.1,4.1,0,0,0,.82-.19,4.58,4.58,0,0,0,.71-.33A4.89,4.89,0,0,0,36,47.9a.85.85,0,0,1,.21-.14A.53.53,0,0,1,36.47,47.7Z" style="fill:#333"/><path d="M51.87,51.11H49.79a.94.94,0,0,1-.57-.17,1.09,1.09,0,0,1-.33-.44l-1.08-3h-6l-1.08,3a1,1,0,0,1-.31.42.88.88,0,0,1-.58.19H37.76l5.68-14.46h2.75Zm-9.36-5.46h4.61l-1.76-4.81c-.08-.21-.17-.46-.26-.75s-.19-.61-.29-1c-.09.34-.18.66-.27,1s-.18.55-.27.77Z" style="fill:#333"/><path d="M55.27,48.89h5.79v2.22H52.58V36.65h2.69Z" style="fill:#333"/><path d="M65.17,51.11h-2.7V36.65h2.7Z" style="fill:#333"/><path d="M76.76,36.65v2.14H70.35v4.28h5.41v2.15H70.35v5.89H67.64V36.65Z" style="fill:#333"/><path d="M81.12,51.11h-2.7V36.65h2.7Z" style="fill:#333"/><path d="M93.53,47.7a.5.5,0,0,1,.38.17L95,49a5.81,5.81,0,0,1-2.16,1.67,7.44,7.44,0,0,1-3.09.58,7.2,7.2,0,0,1-2.89-.55,6.49,6.49,0,0,1-2.2-1.53,6.68,6.68,0,0,1-1.39-2.34,8.65,8.65,0,0,1-.49-3,7.94,7.94,0,0,1,.54-3,6.81,6.81,0,0,1,1.52-2.34A7,7,0,0,1,87.16,37a7.91,7.91,0,0,1,3-.55A7,7,0,0,1,93,37a6.43,6.43,0,0,1,2.06,1.36l-.9,1.25a.8.8,0,0,1-.2.21.61.61,0,0,1-.35.09.79.79,0,0,1-.47-.18,5.49,5.49,0,0,0-.61-.39,4.91,4.91,0,0,0-.93-.39,4.86,4.86,0,0,0-1.44-.18,4.76,4.76,0,0,0-1.87.36,4.07,4.07,0,0,0-1.47,1,4.69,4.69,0,0,0-1,1.61,6.12,6.12,0,0,0-.35,2.12,6.33,6.33,0,0,0,.35,2.17,4.82,4.82,0,0,0,.93,1.6,4.15,4.15,0,0,0,1.39,1,4.33,4.33,0,0,0,1.72.34,7.57,7.57,0,0,0,1-.06,4.1,4.1,0,0,0,.82-.19,4.58,4.58,0,0,0,.71-.33,4.89,4.89,0,0,0,.66-.51.85.85,0,0,1,.21-.14A.53.53,0,0,1,93.53,47.7Z" style="fill:#333"/><path d="M108.93,51.11h-2.08a.94.94,0,0,1-.57-.17,1.09,1.09,0,0,1-.33-.44l-1.08-3h-6l-1.08,3a1,1,0,0,1-.31.42.88.88,0,0,1-.58.19H94.82l5.68-14.46h2.75Zm-9.36-5.46h4.61l-1.76-4.81c-.08-.21-.17-.46-.26-.75s-.19-.61-.29-1c-.09.34-.18.66-.27,1s-.18.55-.27.77Z" style="fill:#333"/><path d="M112.42,45.46v5.65h-2.69V36.65h4.41a9,9,0,0,1,2.54.31,4.75,4.75,0,0,1,1.73.85,3.34,3.34,0,0,1,1,1.32,4.37,4.37,0,0,1,.31,1.68,4.43,4.43,0,0,1-.21,1.38,4.16,4.16,0,0,1-.62,1.18,4.46,4.46,0,0,1-1,.93,5.17,5.17,0,0,1-1.36.64,2.66,2.66,0,0,1,.88.83L121,51.11H118.6A1.2,1.2,0,0,1,118,51a1.15,1.15,0,0,1-.42-.4l-3-4.63a1.08,1.08,0,0,0-.37-.37,1.38,1.38,0,0,0-.61-.11Zm0-1.93h1.68a4.1,4.1,0,0,0,1.33-.19,2.78,2.78,0,0,0,.93-.52,2.18,2.18,0,0,0,.54-.8,2.75,2.75,0,0,0,.18-1,2.06,2.06,0,0,0-.72-1.69,3.52,3.52,0,0,0-2.22-.59h-1.72Z" style="fill:#333"/><path d="M125,51.11V36.65h5a9.48,9.48,0,0,1,2.43.27,4.68,4.68,0,0,1,1.65.77,3,3,0,0,1,.94,1.21,4.07,4.07,0,0,1,.3,1.6,3.19,3.19,0,0,1-.15,1,2.81,2.81,0,0,1-.46.87,3.54,3.54,0,0,1-.8.73,4.81,4.81,0,0,1-1.16.56q3,.68,3,3.22a4.17,4.17,0,0,1-.35,1.7,3.72,3.72,0,0,1-1,1.35,5,5,0,0,1-1.65.88,7.29,7.29,0,0,1-2.24.32Zm2.69-8.2h2.15a3.63,3.63,0,0,0,2.08-.5,1.81,1.81,0,0,0,.71-1.59,1.88,1.88,0,0,0-.64-1.61,3.35,3.35,0,0,0-2-.48h-2.3Zm0,1.86V49h2.73a3.82,3.82,0,0,0,1.26-.18,2.29,2.29,0,0,0,.81-.48,1.77,1.77,0,0,0,.44-.7,2.65,2.65,0,0,0,.13-.85A2.24,2.24,0,0,0,133,46a1.57,1.57,0,0,0-.47-.64,2.11,2.11,0,0,0-.82-.41,4.68,4.68,0,0,0-1.21-.14Z" style="fill:#333"/><path d="M150,51.11h-2.08a.94.94,0,0,1-.57-.17,1.09,1.09,0,0,1-.33-.44l-1.08-3h-6l-1.08,3a1,1,0,0,1-.31.42.88.88,0,0,1-.58.19h-2.09l5.68-14.46h2.75Zm-9.36-5.46h4.61l-1.76-4.81c-.08-.21-.17-.46-.26-.75s-.2-.61-.29-1c-.09.34-.18.66-.27,1s-.18.55-.27.77Z" style="fill:#333"/><path d="M152.42,36.67a.79.79,0,0,1,.22.06.68.68,0,0,1,.18.13,1.5,1.5,0,0,1,.2.22l7.59,9.67c0-.23,0-.46-.05-.68s0-.44,0-.63V36.65h2.37V51.11h-1.39A1.19,1.19,0,0,1,161,51a1.22,1.22,0,0,1-.41-.36L153,41c0,.21,0,.43,0,.64s0,.4,0,.57v8.88h-2.37V36.65h1.41Z" style="fill:#333"/><path d="M175,47.7a.52.52,0,0,1,.38.17L176.43,49a5.89,5.89,0,0,1-2.16,1.67,7.44,7.44,0,0,1-3.09.58,7.2,7.2,0,0,1-2.89-.55,6.37,6.37,0,0,1-3.59-3.87,8.65,8.65,0,0,1-.49-3,7.94,7.94,0,0,1,.54-3A6.69,6.69,0,0,1,168.62,37a7.91,7.91,0,0,1,3-.55,7.06,7.06,0,0,1,2.82.52,6.43,6.43,0,0,1,2.06,1.36l-.9,1.25a.8.8,0,0,1-.2.21.61.61,0,0,1-.35.09.79.79,0,0,1-.47-.18,5.49,5.49,0,0,0-.61-.39,5.21,5.21,0,0,0-.93-.39,4.86,4.86,0,0,0-1.44-.18,4.76,4.76,0,0,0-1.87.36,4.07,4.07,0,0,0-1.47,1,4.69,4.69,0,0,0-1,1.61,6.12,6.12,0,0,0-.35,2.12,6.33,6.33,0,0,0,.35,2.17,4.82,4.82,0,0,0,.93,1.6,4,4,0,0,0,1.39,1,4.29,4.29,0,0,0,1.72.34,7.57,7.57,0,0,0,1-.06,4.1,4.1,0,0,0,.82-.19,4.58,4.58,0,0,0,.71-.33,4.89,4.89,0,0,0,.66-.51.85.85,0,0,1,.21-.14A.48.48,0,0,1,175,47.7Z" style="fill:#333"/><path d="M191.55,43.88a8.14,8.14,0,0,1-.53,2.95,6.94,6.94,0,0,1-1.49,2.34,6.76,6.76,0,0,1-2.31,1.55,8.4,8.4,0,0,1-6,0,6.71,6.71,0,0,1-2.32-1.55,6.81,6.81,0,0,1-1.5-2.34,8.14,8.14,0,0,1-.53-2.95,8,8,0,0,1,.53-2.94,6.76,6.76,0,0,1,1.5-2.35,6.68,6.68,0,0,1,2.32-1.54,8.26,8.26,0,0,1,6,0,6.78,6.78,0,0,1,3.8,3.89A8,8,0,0,1,191.55,43.88Zm-2.76,0a6.72,6.72,0,0,0-.31-2.13,4.6,4.6,0,0,0-.91-1.61,3.84,3.84,0,0,0-1.43-1,5.39,5.39,0,0,0-3.82,0,3.8,3.8,0,0,0-1.44,1,4.47,4.47,0,0,0-.92,1.61A7.28,7.28,0,0,0,180,46a4.42,4.42,0,0,0,.92,1.6,3.89,3.89,0,0,0,1.44,1,5.39,5.39,0,0,0,3.82,0,3.93,3.93,0,0,0,1.43-1,4.55,4.55,0,0,0,.91-1.6A6.78,6.78,0,0,0,188.79,43.88Z" style="fill:#333"/><path d="M244.25,51.2a1.69,1.69,0,0,1,2.26.71l3.12,5.79a1.11,1.11,0,0,0,1.25.54,1.09,1.09,0,0,0,.83-1.07V48.72a1.11,1.11,0,1,0-2.21,0v4.07l-1.05-1.93a3.91,3.91,0,0,0-7.24,2.77l2,8.4a15.26,15.26,0,0,0,2.51,5.42l4,5.43a1.12,1.12,0,0,0,.9.46,1.08,1.08,0,0,0,.65-.22,1.1,1.1,0,0,0,.24-1.54l-4-5.44a12.8,12.8,0,0,1-2.14-4.63l-2-8.39A1.69,1.69,0,0,1,244.25,51.2Z" style="fill:#ff0"/><path d="M269.24,46.48a3.8,3.8,0,0,0-1.81.46A3.77,3.77,0,0,0,262,45a3.76,3.76,0,0,0-5-1.86V37.88a3.77,3.77,0,0,0-7.54,0V39.8a1.11,1.11,0,0,0,2.21,0V37.88a1.56,1.56,0,1,1,3.11,0V53.5a1.11,1.11,0,0,0,2.22,0V46.6a1.56,1.56,0,0,1,3.11,0v6.9a1.11,1.11,0,0,0,2.21,0V48.29a1.56,1.56,0,1,1,3.11,0V53.5a1.11,1.11,0,0,0,2.21,0V50.25a1.56,1.56,0,1,1,3.11,0v9.34a24.64,24.64,0,0,1-1.12,7.33l-1.56,5a1.09,1.09,0,0,0,.72,1.38,1,1,0,0,0,.33.06,1.11,1.11,0,0,0,1.06-.78l1.56-5a26.76,26.76,0,0,0,1.23-8V50.25A3.77,3.77,0,0,0,269.24,46.48Z" style="fill:#ff0"/><path d="M284.17,22.53a1.83,1.83,0,0,0-1.5-1.26l-3.39-.5-1.52-3.07a1.86,1.86,0,0,0-1.67-1h0a1.85,1.85,0,0,0-1.67,1l-1.52,3.08-3.39.49a1.87,1.87,0,0,0-1,3.18l2.46,2.39-.58,3.38A1.85,1.85,0,0,0,271.1,32a1.83,1.83,0,0,0,2,.14l3-1.6,3,1.6a1.87,1.87,0,0,0,2.7-2l-.58-3.37,2.45-2.4A1.86,1.86,0,0,0,284.17,22.53Zm-4.6,2.85A1.84,1.84,0,0,0,279,27l.49,2.86L277,28.54a1.83,1.83,0,0,0-1.73,0l-2.57,1.35.49-2.86a1.88,1.88,0,0,0-.54-1.65l-2.08-2,2.87-.42a1.87,1.87,0,0,0,1.41-1l1.28-2.6,1.28,2.6a1.89,1.89,0,0,0,1.41,1l2.87.41Z" style="fill:#ff0"/><path d="M264,22.53a1.84,1.84,0,0,0-1.5-1.26l-3.39-.5L257.6,17.7a1.86,1.86,0,0,0-1.67-1h0a1.84,1.84,0,0,0-1.67,1l-1.52,3.08-3.39.49a1.87,1.87,0,0,0-1,3.18l2.45,2.39-.57,3.38a1.83,1.83,0,0,0,.74,1.82,1.9,1.9,0,0,0,1.09.36,1.93,1.93,0,0,0,.87-.22l3-1.6,3,1.6a1.87,1.87,0,0,0,2.71-2l-.58-3.37,2.45-2.4A1.86,1.86,0,0,0,264,22.53Zm-4.6,2.85a1.87,1.87,0,0,0-.54,1.65l.5,2.86-2.57-1.35a1.85,1.85,0,0,0-1.74,0l-2.56,1.35L253,27a1.88,1.88,0,0,0-.54-1.65l-2.08-2,2.87-.42a1.89,1.89,0,0,0,1.41-1l1.28-2.6,1.28,2.6a1.87,1.87,0,0,0,1.41,1l2.87.41Z" style="fill:#ff0"/><path d="M243.85,22.53a1.84,1.84,0,0,0-1.51-1.26l-3.39-.5-1.51-3.07a1.86,1.86,0,0,0-1.67-1h0a1.84,1.84,0,0,0-1.67,1l-1.52,3.08-3.39.49a1.87,1.87,0,0,0-1,3.18l2.45,2.39L230,30.22a1.88,1.88,0,0,0,1.84,2.18,2,2,0,0,0,.87-.22l3-1.6,3,1.6a1.85,1.85,0,0,0,2-.14,1.87,1.87,0,0,0,.75-1.83l-.58-3.37,2.45-2.4A1.86,1.86,0,0,0,243.85,22.53Zm-4.6,2.85a1.87,1.87,0,0,0-.54,1.65l.49,2.86-2.56-1.35a1.85,1.85,0,0,0-1.74,0l-2.56,1.35.48-2.86a1.85,1.85,0,0,0-.53-1.65l-2.08-2,2.87-.42a1.86,1.86,0,0,0,1.4-1l1.29-2.6,1.28,2.6a1.87,1.87,0,0,0,1.4,1l2.87.41Z" style="fill:#ff0"/><path d="M251.39,43.58a1.11,1.11,0,0,0-.78-.33,1.11,1.11,0,1,0,0,2.21,1.09,1.09,0,0,0,1.1-1.1A1.08,1.08,0,0,0,251.39,43.58Z" style="fill:#ff0"/></g></g></svg>