<svg xmlns="http://www.w3.org/2000/svg" viewBox="0 0 300 90"><title>consulta_richie</title><g id="Layer_2" data-name="Layer 2"><g id="Layer_1-2" data-name="Layer 1"><rect width="300" height="90" style="fill:#ff0"/><rect width="210.76" height="90" style="fill:#fff"/><path d="M20.89,47.7a.52.52,0,0,1,.38.17L22.33,49a5.89,5.89,0,0,1-2.16,1.67,7.44,7.44,0,0,1-3.09.58,7.2,7.2,0,0,1-2.89-.55,6.37,6.37,0,0,1-3.59-3.87,8.65,8.65,0,0,1-.49-3,7.94,7.94,0,0,1,.54-3A6.69,6.69,0,0,1,14.52,37a7.91,7.91,0,0,1,3-.55,7.06,7.06,0,0,1,2.82.52,6.43,6.43,0,0,1,2.06,1.36l-.9,1.25a.8.8,0,0,1-.2.21.61.61,0,0,1-.35.09.79.79,0,0,1-.47-.18,5.49,5.49,0,0,0-.61-.39A5.21,5.21,0,0,0,19,39a4.86,4.86,0,0,0-1.44-.18,4.76,4.76,0,0,0-1.87.36,4.07,4.07,0,0,0-1.47,1,4.69,4.69,0,0,0-1,1.61,6.12,6.12,0,0,0-.35,2.12,6.33,6.33,0,0,0,.35,2.17,4.82,4.82,0,0,0,.93,1.6,4,4,0,0,0,1.39,1,4.29,4.29,0,0,0,1.72.34,7.57,7.57,0,0,0,1-.06,4.1,4.1,0,0,0,.82-.19,4.58,4.58,0,0,0,.71-.33,4.89,4.89,0,0,0,.66-.51.85.85,0,0,1,.21-.14A.48.48,0,0,1,20.89,47.7Z" style="fill:#333"/><path d="M37.53,43.88A8.14,8.14,0,0,1,37,46.83a6.94,6.94,0,0,1-1.49,2.34,6.76,6.76,0,0,1-2.31,1.55,8.4,8.4,0,0,1-6,0,6.71,6.71,0,0,1-2.32-1.55,6.81,6.81,0,0,1-1.5-2.34,8.14,8.14,0,0,1-.53-2.95,8,8,0,0,1,.53-2.94,6.76,6.76,0,0,1,1.5-2.35,6.68,6.68,0,0,1,2.32-1.54,8.26,8.26,0,0,1,6,0A6.78,6.78,0,0,1,37,40.94,8,8,0,0,1,37.53,43.88Zm-2.76,0a6.72,6.72,0,0,0-.31-2.13,4.6,4.6,0,0,0-.91-1.61,3.84,3.84,0,0,0-1.43-1,5.39,5.39,0,0,0-3.82,0,3.8,3.8,0,0,0-1.44,1,4.47,4.47,0,0,0-.92,1.61,7.28,7.28,0,0,0,0,4.27,4.42,4.42,0,0,0,.92,1.6,3.89,3.89,0,0,0,1.44,1,5.39,5.39,0,0,0,3.82,0,3.93,3.93,0,0,0,1.43-1,4.55,4.55,0,0,0,.91-1.6A6.78,6.78,0,0,0,34.77,43.88Z" style="fill:#333"/><path d="M40.66,36.67a.79.79,0,0,1,.22.06.68.68,0,0,1,.18.13,1.5,1.5,0,0,1,.2.22l7.59,9.67c0-.23,0-.46-.05-.68s0-.44,0-.63V36.65h2.37V51.11H49.76a1.19,1.19,0,0,1-.53-.1,1.22,1.22,0,0,1-.41-.36L41.26,41c0,.21,0,.43.05.64s0,.4,0,.57v8.88H39V36.65h1.41Z" style="fill:#333"/><path d="M61.12,39.28a.74.74,0,0,1-.25.31.68.68,0,0,1-.35.09.92.92,0,0,1-.45-.15l-.59-.35a4.47,4.47,0,0,0-.79-.34,3.23,3.23,0,0,0-1.08-.16,3.1,3.1,0,0,0-1,.14,2,2,0,0,0-.7.37,1.45,1.45,0,0,0-.43.58,1.9,1.9,0,0,0-.14.73,1.29,1.29,0,0,0,.29.85,2.35,2.35,0,0,0,.75.58,7.22,7.22,0,0,0,1.07.43c.4.13.81.26,1.23.41a11.59,11.59,0,0,1,1.22.5A4.19,4.19,0,0,1,61,44a3.3,3.3,0,0,1,.76,1.06A3.7,3.7,0,0,1,62,46.58a5.09,5.09,0,0,1-.33,1.84,4.39,4.39,0,0,1-1,1.49,4.79,4.79,0,0,1-1.58,1,5.87,5.87,0,0,1-2.13.36,6.89,6.89,0,0,1-1.36-.13,6.78,6.78,0,0,1-1.28-.39,6.94,6.94,0,0,1-1.15-.6,5.27,5.27,0,0,1-1-.78l.78-1.29a.87.87,0,0,1,.27-.23.57.57,0,0,1,.34-.1.92.92,0,0,1,.54.21l.69.45a5,5,0,0,0,.93.46,3.7,3.7,0,0,0,1.28.2,2.65,2.65,0,0,0,1.78-.54A2,2,0,0,0,59.51,47a1.45,1.45,0,0,0-.28-.93,2.3,2.3,0,0,0-.76-.6A5,5,0,0,0,57.4,45c-.4-.11-.81-.24-1.22-.37A9.64,9.64,0,0,1,55,44.16a4,4,0,0,1-1.07-.73,3.34,3.34,0,0,1-.75-1.12,4.31,4.31,0,0,1-.29-1.67,3.93,3.93,0,0,1,.32-1.54,3.88,3.88,0,0,1,.92-1.33,4.35,4.35,0,0,1,1.48-.93,5.5,5.5,0,0,1,2-.35,6.68,6.68,0,0,1,2.36.4A5.41,5.41,0,0,1,61.78,38Z" style="fill:#333"/><path d="M69.22,48.94a3.64,3.64,0,0,0,1.4-.26,3,3,0,0,0,1-.73,3.18,3.18,0,0,0,.65-1.14,4.73,4.73,0,0,0,.22-1.5V36.65h2.69v8.66a6.85,6.85,0,0,1-.41,2.39,5.34,5.34,0,0,1-3.09,3.13,7.32,7.32,0,0,1-5,0,5.36,5.36,0,0,1-1.88-1.24,5.29,5.29,0,0,1-1.19-1.89,6.63,6.63,0,0,1-.42-2.39V36.65h2.69V45.3a4.72,4.72,0,0,0,.23,1.5A3.3,3.3,0,0,0,66.79,48a2.88,2.88,0,0,0,1,.73A3.59,3.59,0,0,0,69.22,48.94Z" style="fill:#333"/><path d="M80,48.89h5.79v2.22H77.26V36.65H80Z" style="fill:#333"/><path d="M95.33,36.65v2.21H91V51.11H88.29V38.86H83.92V36.65Z" style="fill:#333"/><path d="M107.58,51.11H105.5a.94.94,0,0,1-.57-.17,1.09,1.09,0,0,1-.33-.44l-1.08-3h-6l-1.08,3a1,1,0,0,1-.31.42.88.88,0,0,1-.58.19H93.47l5.68-14.46h2.75Zm-9.36-5.46h4.61l-1.76-4.81c-.08-.21-.17-.46-.26-.75s-.2-.61-.29-1c-.09.34-.18.66-.27,1s-.18.55-.27.77Z" style="fill:#333"/><path d="M111.15,45.46v5.65h-2.69V36.65h4.41a9,9,0,0,1,2.54.31,4.83,4.83,0,0,1,1.73.85,3.44,3.44,0,0,1,1,1.32,4.37,4.37,0,0,1,.31,1.68,4.43,4.43,0,0,1-.21,1.38,4.16,4.16,0,0,1-.62,1.18,4.46,4.46,0,0,1-1,.93,5.17,5.17,0,0,1-1.36.64,2.66,2.66,0,0,1,.88.83l3.62,5.34h-2.42a1.2,1.2,0,0,1-.59-.14,1.15,1.15,0,0,1-.42-.4l-3-4.63a1.08,1.08,0,0,0-.37-.37,1.38,1.38,0,0,0-.61-.11Zm0-1.93h1.68a4.1,4.1,0,0,0,1.33-.19,2.78,2.78,0,0,0,.93-.52,2.18,2.18,0,0,0,.54-.8,2.75,2.75,0,0,0,.18-1,2.06,2.06,0,0,0-.72-1.69,3.52,3.52,0,0,0-2.22-.59h-1.72Z" style="fill:#333"/><path d="M136.64,51.11h-2.08a.94.94,0,0,1-.57-.17,1.09,1.09,0,0,1-.33-.44l-1.08-3h-6l-1.08,3a1,1,0,0,1-.31.42.88.88,0,0,1-.58.19h-2.09l5.68-14.46H131Zm-9.36-5.46h4.61l-1.76-4.81c-.08-.21-.17-.46-.26-.75s-.2-.61-.29-1c-.09.34-.18.66-.27,1s-.18.55-.27.77Z" style="fill:#333"/><path d="M143.37,45.46v5.65h-2.69V36.65h4.41a8.88,8.88,0,0,1,2.53.31,4.67,4.67,0,0,1,1.73.85,3.34,3.34,0,0,1,1,1.32,4.37,4.37,0,0,1,.32,1.68,4.16,4.16,0,0,1-.22,1.38,3.92,3.92,0,0,1-.62,1.18,4.25,4.25,0,0,1-1,.93,5,5,0,0,1-1.35.64,2.66,2.66,0,0,1,.88.83L152,51.11h-2.42A1.27,1.27,0,0,1,149,51a1.2,1.2,0,0,1-.41-.4l-3-4.63a1,1,0,0,0-.38-.37,1.31,1.31,0,0,0-.6-.11Zm0-1.93h1.68a4,4,0,0,0,1.32-.19,2.6,2.6,0,0,0,.93-.52,2.09,2.09,0,0,0,.55-.8,2.75,2.75,0,0,0,.18-1,2,2,0,0,0-.73-1.69,3.47,3.47,0,0,0-2.21-.59h-1.72Z" style="fill:#333"/><path d="M156,51.11h-2.7V36.65H156Z" style="fill:#333"/><path d="M168.51,47.7a.52.52,0,0,1,.38.17L170,49a5.84,5.84,0,0,1-2.17,1.67,7.36,7.36,0,0,1-3.08.58,7.28,7.28,0,0,1-2.9-.55,6.55,6.55,0,0,1-2.19-1.53,6.7,6.7,0,0,1-1.4-2.34,8.89,8.89,0,0,1-.48-3,7.94,7.94,0,0,1,.54-3A6.71,6.71,0,0,1,162.13,37a8,8,0,0,1,3-.55A7,7,0,0,1,168,37,6.37,6.37,0,0,1,170,38.37l-.9,1.25a.7.7,0,0,1-.21.21.55.55,0,0,1-.34.09.79.79,0,0,1-.47-.18,5.49,5.49,0,0,0-.61-.39,5,5,0,0,0-.94-.39,4.75,4.75,0,0,0-1.43-.18,4.81,4.81,0,0,0-1.88.36,4.07,4.07,0,0,0-1.47,1,4.69,4.69,0,0,0-1,1.61,6.12,6.12,0,0,0-.34,2.12,6.34,6.34,0,0,0,.34,2.17,4.84,4.84,0,0,0,.94,1.6,4,4,0,0,0,1.39,1,4.29,4.29,0,0,0,1.72.34,7.31,7.31,0,0,0,1-.06,3.94,3.94,0,0,0,.82-.19,4.19,4.19,0,0,0,.71-.33,4.4,4.4,0,0,0,.67-.51.85.85,0,0,1,.21-.14A.48.48,0,0,1,168.51,47.7Z" style="fill:#333"/><path d="M183.48,51.11h-2.71V44.79H174v6.32h-2.71V36.65H174v6.22h6.78V36.65h2.71Z" style="fill:#333"/><path d="M188.73,51.11H186V36.65h2.7Z" style="fill:#333"/><path d="M200.4,36.65v2.14H194v4h5v2.07h-5V49h6.41v2.15h-9.12V36.65Z" style="fill:#333"/><path d="M255.92,18c-16.14,0-29.22,12.07-29.22,27a25.12,25.12,0,0,0,2.7,11.32l-6.91,12.5a2,2,0,0,0,1.72,2.93,1.81,1.81,0,0,0,.52-.07l15.13-4.15A30.89,30.89,0,0,0,255.92,72c16.14,0,29.22-12.07,29.22-27S272.06,18,255.92,18Zm0,40.81A2.89,2.89,0,1,1,258.76,56,2.9,2.9,0,0,1,255.87,58.85Zm3-13.76q-.57.39-.78.57v3a2.25,2.25,0,0,1-4.49,0V45.43c0-2.17,1.58-3.25,2.74-4s2.07-1.42,2.07-3.18a2.57,2.57,0,1,0-5.14,0,2.25,2.25,0,0,1-4.49,0,7.06,7.06,0,1,1,14.12,0C262.93,42.34,260.41,44.06,258.9,45.09Z" style="fill:none;stroke:#3fa9f5;stroke-miterlimit:10;stroke-width:2px"/></g></g></svg>