<svg xmlns="http://www.w3.org/2000/svg" viewBox="0 0 300 90"><title>consultar</title><g id="Layer_2" data-name="Layer 2"><g id="Layer_1-2" data-name="Layer 1"><rect width="300" height="90" style="fill:#fff"/><rect width="210.76" height="90" style="fill:#3b0099"/><path d="M21.57,47.7a.52.52,0,0,1,.38.17L23,49a5.89,5.89,0,0,1-2.16,1.67,7.44,7.44,0,0,1-3.09.58,7.2,7.2,0,0,1-2.89-.55,6.37,6.37,0,0,1-3.59-3.87,8.65,8.65,0,0,1-.49-3,7.94,7.94,0,0,1,.54-3A6.69,6.69,0,0,1,15.2,37a7.91,7.91,0,0,1,3-.55A7.06,7.06,0,0,1,21,37a6.43,6.43,0,0,1,2.06,1.36l-.9,1.25a.8.8,0,0,1-.2.21.61.61,0,0,1-.35.09.79.79,0,0,1-.47-.18,5.49,5.49,0,0,0-.61-.39,5.21,5.21,0,0,0-.93-.39,4.86,4.86,0,0,0-1.44-.18,4.76,4.76,0,0,0-1.87.36,4.07,4.07,0,0,0-1.47,1,4.69,4.69,0,0,0-1,1.61,6.12,6.12,0,0,0-.35,2.12,6.33,6.33,0,0,0,.35,2.17,4.82,4.82,0,0,0,.93,1.6,4,4,0,0,0,1.39,1,4.29,4.29,0,0,0,1.72.34,7.57,7.57,0,0,0,1-.06,4.1,4.1,0,0,0,.82-.19,4.58,4.58,0,0,0,.71-.33,4.89,4.89,0,0,0,.66-.51.85.85,0,0,1,.21-.14A.48.48,0,0,1,21.57,47.7Z" style="fill:#fff"/><path d="M38.13,43.88a8.14,8.14,0,0,1-.53,2.95,6.94,6.94,0,0,1-1.49,2.34,6.76,6.76,0,0,1-2.31,1.55,8.4,8.4,0,0,1-6,0,6.71,6.71,0,0,1-2.32-1.55A6.81,6.81,0,0,1,24,46.83a8.14,8.14,0,0,1-.53-2.95A8,8,0,0,1,24,40.94a6.76,6.76,0,0,1,1.5-2.35,6.68,6.68,0,0,1,2.32-1.54,7.62,7.62,0,0,1,3-.56,7.81,7.81,0,0,1,3,.56,6.78,6.78,0,0,1,3.8,3.89A8,8,0,0,1,38.13,43.88Zm-2.76,0a6.72,6.72,0,0,0-.31-2.13,4.6,4.6,0,0,0-.91-1.61,3.84,3.84,0,0,0-1.43-1,5.39,5.39,0,0,0-3.82,0,3.8,3.8,0,0,0-1.44,1,4.47,4.47,0,0,0-.92,1.61,7.28,7.28,0,0,0,0,4.27,4.42,4.42,0,0,0,.92,1.6,3.89,3.89,0,0,0,1.44,1,5.39,5.39,0,0,0,3.82,0,3.93,3.93,0,0,0,1.43-1,4.55,4.55,0,0,0,.91-1.6A6.78,6.78,0,0,0,35.37,43.88Z" style="fill:#fff"/><path d="M41.18,36.67a.55.55,0,0,1,.22.06.68.68,0,0,1,.18.13,1.5,1.5,0,0,1,.2.22l7.59,9.67c0-.23,0-.46,0-.68s0-.44,0-.63V36.65h2.37V51.11H50.28a1.19,1.19,0,0,1-.53-.1,1.22,1.22,0,0,1-.41-.36L41.78,41c0,.21,0,.43,0,.64s0,.4,0,.57v8.88H39.47V36.65h1.41Z" style="fill:#fff"/><path d="M61.56,39.28a.74.74,0,0,1-.25.31.68.68,0,0,1-.35.09.92.92,0,0,1-.45-.15l-.59-.35a4.47,4.47,0,0,0-.79-.34,3.23,3.23,0,0,0-1.08-.16,3.1,3.1,0,0,0-1,.14,2,2,0,0,0-.7.37,1.45,1.45,0,0,0-.43.58,1.9,1.9,0,0,0-.14.73,1.29,1.29,0,0,0,.29.85,2.35,2.35,0,0,0,.75.58,7.22,7.22,0,0,0,1.07.43c.4.13.81.26,1.23.41a11.59,11.59,0,0,1,1.22.5,4.19,4.19,0,0,1,1.07.72,3.3,3.3,0,0,1,.76,1.06,3.7,3.7,0,0,1,.28,1.53,5.09,5.09,0,0,1-.33,1.84,4.39,4.39,0,0,1-1,1.49,4.79,4.79,0,0,1-1.58,1,5.87,5.87,0,0,1-2.13.36,6.89,6.89,0,0,1-1.36-.13,6.78,6.78,0,0,1-1.28-.39,6.94,6.94,0,0,1-1.15-.6,5.27,5.27,0,0,1-1-.78l.78-1.29a.87.87,0,0,1,.27-.23.57.57,0,0,1,.34-.1.92.92,0,0,1,.54.21l.69.45a5,5,0,0,0,.93.46,3.7,3.7,0,0,0,1.28.2,2.65,2.65,0,0,0,1.78-.54A2,2,0,0,0,60,47a1.45,1.45,0,0,0-.28-.93,2.46,2.46,0,0,0-.76-.61A5.55,5.55,0,0,0,57.84,45c-.4-.11-.81-.24-1.22-.37a9.64,9.64,0,0,1-1.22-.48,4,4,0,0,1-1.07-.73,3.34,3.34,0,0,1-.75-1.12,4.31,4.31,0,0,1-.29-1.67,3.93,3.93,0,0,1,.32-1.54,3.88,3.88,0,0,1,.92-1.33A4.35,4.35,0,0,1,56,36.84a5.5,5.5,0,0,1,2-.35,6.68,6.68,0,0,1,2.36.4A5.41,5.41,0,0,1,62.22,38Z" style="fill:#fff"/><path d="M69.58,48.94a3.64,3.64,0,0,0,1.4-.26A3,3,0,0,0,72,48a3.18,3.18,0,0,0,.65-1.14,4.73,4.73,0,0,0,.22-1.5V36.65h2.69v8.66a6.85,6.85,0,0,1-.41,2.39,5.34,5.34,0,0,1-3.09,3.13,7.32,7.32,0,0,1-5,0A5.31,5.31,0,0,1,64,47.7a6.63,6.63,0,0,1-.42-2.39V36.65h2.69V45.3a4.72,4.72,0,0,0,.23,1.5A3.3,3.3,0,0,0,67.15,48a2.88,2.88,0,0,0,1,.73A3.59,3.59,0,0,0,69.58,48.94Z" style="fill:#fff"/><path d="M80.23,48.89H86v2.22H77.54V36.65h2.69Z" style="fill:#fff"/><path d="M95.53,36.65v2.21H91.18V51.11H88.49V38.86H84.12V36.65Z" style="fill:#fff"/><path d="M107.7,51.11h-2.08a.94.94,0,0,1-.57-.17,1.09,1.09,0,0,1-.33-.44l-1.08-3h-6l-1.08,3a1,1,0,0,1-.31.42.88.88,0,0,1-.58.19H93.59l5.68-14.46H102Zm-9.36-5.46H103l-1.76-4.81c-.08-.21-.17-.46-.26-.75s-.2-.61-.29-1c-.09.34-.18.66-.27,1s-.18.55-.27.77Z" style="fill:#fff"/><path d="M111.19,45.46v5.65H108.5V36.65h4.41a9,9,0,0,1,2.54.31,4.75,4.75,0,0,1,1.73.85,3.34,3.34,0,0,1,1,1.32,4.37,4.37,0,0,1,.31,1.68,4.43,4.43,0,0,1-.21,1.38,4.16,4.16,0,0,1-.62,1.18,4.46,4.46,0,0,1-1,.93,5.17,5.17,0,0,1-1.36.64,2.66,2.66,0,0,1,.88.83l3.62,5.34h-2.42a1.2,1.2,0,0,1-.59-.14,1.15,1.15,0,0,1-.42-.4l-3-4.63a1.08,1.08,0,0,0-.37-.37,1.38,1.38,0,0,0-.61-.11Zm0-1.93h1.68a4.1,4.1,0,0,0,1.33-.19,2.78,2.78,0,0,0,.93-.52,2.18,2.18,0,0,0,.54-.8,2.75,2.75,0,0,0,.18-1,2.06,2.06,0,0,0-.72-1.69,3.52,3.52,0,0,0-2.22-.59h-1.72Z" style="fill:#fff"/><path d="M136.52,51.11h-2.08a.94.94,0,0,1-.57-.17,1.09,1.09,0,0,1-.33-.44l-1.08-3h-6l-1.08,3a1,1,0,0,1-.31.42.88.88,0,0,1-.58.19h-2.09l5.68-14.46h2.75Zm-9.36-5.46h4.61L130,40.84c-.08-.21-.17-.46-.26-.75s-.2-.61-.29-1c-.09.34-.18.66-.27,1s-.18.55-.27.77Z" style="fill:#fff"/><path d="M143.09,45.46v5.65H140.4V36.65h4.41a9,9,0,0,1,2.54.31,4.83,4.83,0,0,1,1.73.85,3.41,3.41,0,0,1,1,1.32,4.37,4.37,0,0,1,.32,1.68,4.16,4.16,0,0,1-.22,1.38,3.92,3.92,0,0,1-.62,1.18,4.25,4.25,0,0,1-1,.93,5,5,0,0,1-1.35.64,2.66,2.66,0,0,1,.88.83l3.62,5.34h-2.42a1.27,1.27,0,0,1-.6-.14,1.2,1.2,0,0,1-.41-.4l-3-4.63a1.08,1.08,0,0,0-.37-.37,1.38,1.38,0,0,0-.61-.11Zm0-1.93h1.68a4.1,4.1,0,0,0,1.33-.19,2.64,2.64,0,0,0,.92-.52,2.09,2.09,0,0,0,.55-.8,2.75,2.75,0,0,0,.18-1,2,2,0,0,0-.73-1.69,3.47,3.47,0,0,0-2.21-.59h-1.72Z" style="fill:#fff"/><path d="M155.66,51.11H153V36.65h2.7Z" style="fill:#fff"/><path d="M168.07,47.7a.52.52,0,0,1,.38.17L169.51,49a5.89,5.89,0,0,1-2.16,1.67,7.44,7.44,0,0,1-3.09.58,7.2,7.2,0,0,1-2.89-.55,6.49,6.49,0,0,1-2.2-1.53,6.7,6.7,0,0,1-1.4-2.34,8.89,8.89,0,0,1-.48-3,7.94,7.94,0,0,1,.54-3A6.71,6.71,0,0,1,161.69,37a8,8,0,0,1,3-.55,7,7,0,0,1,2.81.52,6.37,6.37,0,0,1,2.07,1.36l-.9,1.25a.7.7,0,0,1-.21.21.55.55,0,0,1-.34.09.79.79,0,0,1-.47-.18,5.49,5.49,0,0,0-.61-.39,5.21,5.21,0,0,0-.93-.39,5.39,5.39,0,0,0-3.32.18,4,4,0,0,0-1.46,1,4.54,4.54,0,0,0-1,1.61,6.12,6.12,0,0,0-.35,2.12,6.33,6.33,0,0,0,.35,2.17,4.82,4.82,0,0,0,.93,1.6,4,4,0,0,0,1.39,1,4.29,4.29,0,0,0,1.72.34,7.31,7.31,0,0,0,1-.06,3.94,3.94,0,0,0,.82-.19,4.19,4.19,0,0,0,.71-.33,4.4,4.4,0,0,0,.67-.51.85.85,0,0,1,.21-.14A.48.48,0,0,1,168.07,47.7Z" style="fill:#fff"/><path d="M183,51.11h-2.71V44.79h-6.78v6.32h-2.71V36.65h2.71v6.22h6.78V36.65H183Z" style="fill:#fff"/><path d="M188.13,51.11h-2.7V36.65h2.7Z" style="fill:#fff"/><path d="M199.72,36.65v2.14h-6.41v4h5.05v2.07h-5.05V49h6.41v2.15H190.6V36.65Z" style="fill:#fff"/><path d="M247.35,74.26a23,23,0,1,1,23-23A23,23,0,0,1,247.35,74.26Zm0-43.89a20.9,20.9,0,1,0,20.9,20.9A20.93,20.93,0,0,0,247.35,30.37Z" style="fill:#fc6"/><path d="M240,41.87a2.09,2.09,0,1,1-2.09-2.09A2.09,2.09,0,0,1,240,41.87Z" style="fill:#fc6"/><path d="M258.84,41.87a2.09,2.09,0,1,1-2.09-2.09A2.09,2.09,0,0,1,258.84,41.87Z" style="fill:#fc6"/><path d="M276.61,52.32a5.27,5.27,0,0,1-3.7-1.53,5.23,5.23,0,0,1,0-7.39,5.23,5.23,0,0,1,7.4,7.38,5.84,5.84,0,0,1-.79.65,6.17,6.17,0,0,1-.91.48,4.67,4.67,0,0,1-1,.3A5.28,5.28,0,0,1,276.61,52.32Zm0-8.36a3.13,3.13,0,0,0-2.22,5.35,3.17,3.17,0,0,0,2.22.92,3.68,3.68,0,0,0,.62-.07,2.86,2.86,0,0,0,.57-.18,3.81,3.81,0,0,0,.57-.29,5.35,5.35,0,0,0,.48-.4A3.14,3.14,0,0,0,276.61,44Z" style="fill:#fc6"/><path d="M252.57,54.4H242.12a1,1,0,1,1,0-2.08h10.45a1,1,0,1,1,0,2.08Z" style="fill:#fc6"/><path d="M276.61,40.82a5.23,5.23,0,0,1-5.23-5.22V30.37a5.23,5.23,0,0,1,5.23-5.22A2.62,2.62,0,1,0,274,22.53a5.23,5.23,0,1,1-10.45,0,13.06,13.06,0,1,1,18.28,12v1.1A5.22,5.22,0,0,1,276.61,40.82Zm0-23a4.71,4.71,0,0,1,0,9.41,3.14,3.14,0,0,0-3.14,3.13V35.6a3.14,3.14,0,0,0,6.27,0V33.8a1,1,0,0,1,.68-1,11,11,0,1,0-14.78-10.29,3.14,3.14,0,1,0,6.27,0A4.7,4.7,0,0,1,276.61,17.83Z" style="fill:#fc6"/></g></g></svg>