<svg xmlns="http://www.w3.org/2000/svg" viewBox="0 0 413 287.62"><title>creceyganapic_1</title><g id="bb542db6-31dd-4d0a-a0e9-d5d603597d17" data-name="Layer 2"><g id="ade527a4-f5d7-480c-8289-c7fdddd94f1e" data-name="Layer 1"><g id="b8bd1d85-c3ed-4c64-bf42-dcabb5ceaadf" data-name="QgajuI"><path d="M54.66,185c-.41-5.5-3-10.45-4-15.8-1.47-7.46-3.2-14.86-1.44-22.53,1.22-5.31,4-9.13,9.56-10.42a3.86,3.86,0,0,0,3.14-2.2c7.39-15.94,19.21-21.79,36.45-18.13,2.08.44,4.16.87,6.24,1.32,8.15,1.75,11.91-.29,14.75-8,.47-1.27.9-2.54,1.39-3.94,10.56,11.9,10.35,27.27-.34,39.12a58.69,58.69,0,0,1-12.53,6.32,100.9,100.9,0,0,1-27.3,4.52c-3.06.13-3.83,1.1-3.62,4,.26,3.53.06,7.1.06,10.83-2.73-.53-5-2.8-7.18-.48a4.59,4.59,0,0,0-1,5.1c1.65,3.54,5.11,1.28,7.83,2.09-2.88,8.16-6.54,15.74-11.92,22.41a2.61,2.61,0,0,1-.68,0C60.89,194.47,56.78,190.39,54.66,185Z" style="fill:#554939"/><path d="M64.71,199.16c5.38-6.67,9-14.25,11.92-22.41-2.72-.81-6.18,1.45-7.83-2.09a4.59,4.59,0,0,1,1-5.1c2.18-2.32,4.45-.05,7.18.48,0-3.73.2-7.3-.06-10.83-.21-2.87.56-3.84,3.62-4a100.9,100.9,0,0,0,27.3-4.52,58.69,58.69,0,0,0,12.53-6.32c6.51,8.4,9.75,18.3,12.9,28.23.18.54.19,1.3.55,1.56.71.49,1-.26,1.12-.8.31-2,.52-4.06-.46-6l.3-2c2.4-.92,2.12-3,2.22-5,.14-2.86-.48-5.78.61-8.56,2-5.14,1.49-10.35.54-15.59.09-.64.17-1.29.25-1.93,3-.29,3.15-2.11,2.53-4.51-.35-1.31-.51-2.91,1.25-3.35s2.3,1,2.94,2.24a10.17,10.17,0,0,1,1,4.34c.17,2.82-.54,5.71.62,8.45a6,6,0,0,1-.66,3.78,2.26,2.26,0,0,0-1.64,2c.06,9-3.21,17.58-2.83,26.58-.12,2.08.2,4.23-1,6.14-2.34.16-.85,3.49-3,3.77-1.81-.87-1.18-3.37-3.37-4.55.69,4.64,1.29,8.77,1.9,12.91-4.52,3.71-10.17,4.84-15.57,5.95C104,201.59,87,202.53,70,202,67.68,201.93,65.83,201.29,64.71,199.16Zm43.75-6.3c6.92.09,12.37-4,12.49-9.31.06-3-.85-5-4.48-4.38a83.87,83.87,0,0,0-12.86,2.66c-1.79.59-4.41.45-4.72,2.81-.33,2.51,1.22,4.63,3.21,6.18A9.85,9.85,0,0,0,108.46,192.86ZM126,166.35c-.36-2.34-.53-5.18-3.29-5.84-1.79-.43-2.23,1.67-2.19,3.25.06,2.63.29,5.58,3.39,6.13C125.73,170.21,125.79,167.93,126,166.35ZM94.49,172.5c-.36-2.36-.29-5.28-3.15-5.95-2-.48-2.14,1.79-2.12,3.23,0,2.59.11,5.64,3.25,6.22C94.26,176.33,94.24,174,94.49,172.5Z" style="fill:#fbdbbe"/><path d="M64.71,199.16c1.12,2.13,3,2.77,5.28,2.85,17,.52,34-.42,50.64-3.87,5.4-1.11,11.05-2.24,15.57-6l1.45-.19c-2.36,15.59.93,31,1.17,46.57-22.2,5.39-44.76,7.31-67.55,7-2.35-10.9-4.66-21.82-7.09-32.7-.82-3.71-4.5-5.62-6.05-8.91l5.9-4.72A2.61,2.61,0,0,0,64.71,199.16ZM118.33,202c-3.69.08-5.56,1.94-3.87,4s1.18,3.78.79,5.88c-1.12,6-1.56,12.14-3.22,18-1.48,5.17,2.14,6.9,4.92,9,3,2.21,3.77-1.86,5.62-2.94,2.14-1.24,2.79-3,1.93-5.76A63.59,63.59,0,0,1,122.32,219c-.6-4.79-3.67-9.34-1.13-14.53C121.79,203.22,120.26,201.64,118.33,202Z" style="fill:#f4f3f3"/><path d="M290.59,194.71c0,.92,0,1.85,0,2.77q0,18.27,0,36.54c0,.92,0,1.84,0,2.75.92,3.27,1.76.76,2.62,0,3.75-3.73,7.48-7.5,11.29-11.18,1.48-1.43,1.59-3.15,1.6-5q0-9.31.15-18.64l3.47-.77v17.57a1.12,1.12,0,0,0,1.76-.14q14.11-13.95,28.21-27.92a25.66,25.66,0,0,0,2.2-2.87c1.39.67,2.64,1.47,3.07,3.09-6.32,5-11.42,11.13-18.23,17.49h8.52c0,1.28-.07,2.56-.11,3.83-8.06-1.36-14.31.91-19.87,7.42-7.36,8.61-15.81,16.28-23.79,24.35l-.86,1c0,.63,0,1.25,0,1.87q0,15.06,0,30.12,0,4.13,0,8.25c-1.21,1.27-2.39,1.95-3.5-.1.89-1.37.75-2.91.75-4.42V205.6c0-1.51.12-3-.8-4.4l-1-1q-21-21.1-42-42.23a5.76,5.76,0,0,0-4.52-1.62c-4.4.06-8.8,0-13.19.05,0-1.23,0-2.46,0-3.69h10.42L214.47,129.1c.09-1.77,1.37-2.54,2.72-3.26q14.06,14.28,28.13,28.56c5.52,5.62,11,11.27,17.6,16.46q0-8.48,0-17l4,0c-.07,6.34-.09,12.68-.24,19a6.63,6.63,0,0,0,2.3,5.17c5.11,4.91,10.17,9.88,15.25,14.83.78.86,1.07,2.46,2.81,1.82,1-1.5.8-3.2.8-4.87V99c0-1.66.2-3.37-.95-4.82a8,8,0,0,1-.81-.2L264.75,72.57l2.86-2.49c6.57,6.06,12.11,13.19,19.38,18.53,1.14-1.62.83-3.49.84-5.29q0-17.05,0-34.12l2.51-.21c.09,2.25.17,4.51.26,6.77v1.85q0,40.22,0,80.41c0,1.3-.55,2.93,1.24,3.47,1.37.42,2.2-.77,3-1.61,5.81-5.76,11.59-11.56,17.4-17.31a5.73,5.73,0,0,0,2-4.39c-.13-6.21-.21-12.42-.3-18.62a7.74,7.74,0,0,1,4.1-.37v17.53c9.51-9.61,18.46-17.86,26.56-27a6.09,6.09,0,0,1,3.05,3.09c-10.94,10.76-21.93,21.48-32.82,32.3-7.87,7.82-15.61,15.77-23.4,23.66-.28.38-.56.76-.85,1.13v1.85l0,28.3v1.86Q290.58,188.33,290.59,194.71Z" style="fill:#6c6a5a"/><path d="M71.27,245.52c22.79.35,45.35-1.57,67.55-7-.14,11.39.24,22.85-4.18,33.73-1.23,3-.31,4.1,3.06,3.52,4.67-.79,8,1.19,9.61,5.73,0,1.93-.8,3.4-2.8,3.51-5.65.31-11.15-.26-16-3.58,1.18-8.4,3.59-16.63,3.06-25.24-.63-10.24-.58-10.32-10.57-8.42a175.56,175.56,0,0,1-35.82,2.79c-1.62,0-4-.88-4.17,2a128.38,128.38,0,0,1-3.46,23.82c-.43,1.75.23,2.74,2.2,1.8,4.84-2.3,8.83-1,12.26,2.82,1.87,4.89,1,6.47-4,6.55a57.42,57.42,0,0,1-13.39-1.88c-2.29-.51-2-2.27-2.15-3.88l-.16-.16a1.92,1.92,0,0,0,.53-1.91A96.81,96.81,0,0,0,71.27,245.52Z" style="fill:#534a3b"/><path d="M64,199.19l-5.9,4.72c-9.58-10.65-17.8-22.36-26.09-34-3.71-5.2-7.13-10.61-10.77-15.86-3.21-4.64,1.45-5.81,3.58-7.72,2.59-2.32,3.25.89,4.19,2.27,7.15,10.59,14.16,21.27,21.32,31.86,1.15,1.71,2,3.83,4.3,4.53C56.78,190.39,60.89,194.47,64,199.19Z" style="fill:#f7ddbf"/><path d="M345,190.87c-.43-1.62-1.68-2.42-3.07-3.09-4.53-8.52-4.33-15.67.57-21.18,5.52-6.2,14.65-7.59,21-3.2,6.94,4.8,9.8,13.77,6.48,20.38a16.83,16.83,0,0,1-20.74,8.72C347.77,192,346.38,191.42,345,190.87Zm22.46-13.82c0-7.6-5.17-12.59-13-12.53a12.55,12.55,0,0,0-12.65,12.71,13.13,13.13,0,0,0,12.66,12.93C362.39,190.26,367.42,185.18,367.42,177.05Z" style="fill:#f0c658"/><path d="M347.68,92.84a6.09,6.09,0,0,0-3.05-3.09c-2.14-4.85-4.59-9.46-2.31-15.19,3.53-8.89,12.21-13.35,20.93-10.23,8.39,3,13.07,12.92,10,21.18s-12.92,12.57-21.48,9.34A45.19,45.19,0,0,1,347.68,92.84ZM358,92.38A12.81,12.81,0,1,0,358,66.76c-7.1-.1-13.33,6-13.27,12.92C344.75,86.81,350.54,92.33,358,92.38Z" style="fill:#f0c658"/><path d="M290.33,49l-2.51.21-1.07.15c-7.32-1.73-12.38-5.44-14.1-13.45-2-9.33,5.72-18,12.64-19,9-1.21,16,2.72,18.86,10.71,2.58,7.24-.5,14.8-8.06,19.8a2.21,2.21,0,0,0-1.88,1h0ZM275.91,33c0,7.6,5,12.71,12.36,12.74a13.09,13.09,0,0,0,13.28-12.66,12.63,12.63,0,0,0-12.92-13C280.83,20.16,275.89,25.17,275.91,33Z" style="fill:#f0c658"/><path d="M217.19,125.84c-1.35.72-2.63,1.49-2.72,3.26-10.37,4.93-16.84,3.36-22.66-2.78-5.06-5.32-5.57-12.62-1.47-19.32,3.5-5.71,11.08-8.73,17.83-7.09a15.82,15.82,0,0,1,12.06,14.73A18.16,18.16,0,0,1,217.19,125.84Zm.09-9.93c-.1-6.78-6.61-13.43-13.14-13.41-6.85,0-13.32,6.76-13.15,13.72.15,6.2,6.67,12.62,12.8,12.63C210.58,128.86,217.37,122.35,217.28,115.91Z" style="fill:#f0c658"/><path d="M267.61,70.08l-2.86,2.49c-4.91,2.16-10.21.27-11.61-4.14s1.2-9.44,5.5-10.55c4.5-1.16,9.07,2.11,10.09,6.95C269.17,66.87,267.85,68.31,267.61,70.08Z" style="fill:#f6c651"/><path d="M266.91,153.87l-4,0c-4.36-1.65-6.8-4.67-5.93-9.43a7.21,7.21,0,0,1,6.8-6.28c4.24-.46,7.09,1.54,8.63,5.22s-.21,6.74-3.17,9.09A17.6,17.6,0,0,1,266.91,153.87Z" style="fill:#f6c651"/><path d="M318.07,99.19a7.74,7.74,0,0,0-4.1.37c-7-4.45-8.15-10.49-2.82-14.47a7.75,7.75,0,0,1,11.2,1.63c2.7,3.51,2.07,7.94-1.6,10.79A30.26,30.26,0,0,1,318.07,99.19Z" style="fill:#f6c651"/><path d="M335.14,212.19c0-1.27.07-2.55.11-3.83,2-3.83,4.93-6.16,9.38-5.29,3.75.74,6.38,3.25,6.51,7.14a8,8,0,0,1-14.92,4.46A17.21,17.21,0,0,1,335.14,212.19Z" style="fill:#f6c651"/><path d="M226.31,152.67c0,1.23,0,2.46,0,3.69-2.33,5.06-6.19,7.14-10.31,5.54-4.3-1.67-6.38-5.61-5.05-9.78a7.51,7.51,0,0,1,6.69-5.33C222.21,146.2,224.62,149,226.31,152.67Z" style="fill:#f6c651"/><path d="M309.72,201.14l-3.47.77a33.74,33.74,0,0,1-2.92-2.1c-2.73-2.38-4.34-5.39-2.91-8.89,1.28-3.11,3.3-5.72,7.46-5.42,3.6.26,6.17,1.83,7.3,5.15,1.26,3.69.1,6.9-3,9.28A14.22,14.22,0,0,1,309.72,201.14Z" style="fill:#f6c651"/><path d="M286.88,94.18c1.15,1.45.95,3.16.95,4.82v90.83c0,1.67.19,3.37-.8,4.88-.08-1.51-.17-3-.25-4.51,0-1.86,0-3.72,0-5.59Z" style="fill:#5a6753"/><path d="M286.88,94.18l-.09,90.43c-.89-1.36-.78-2.9-.78-4.42L286.07,94A8,8,0,0,0,286.88,94.18Z" style="fill:#97af98"/><path d="M286.76,282.48a6.31,6.31,0,0,1-.78-3.66q0-39.33,0-78.66c.33.35.67.7,1,1,0,3.05-.1,6.09-.1,9.13Q286.83,246.4,286.76,282.48Z" style="fill:#97af98"/><path d="M290.6,138q0-40.2,0-80.41c1.09,1.47.9,3.18.9,4.84q0,35.37,0,70.74C291.49,134.85,291.68,136.56,290.6,138Z" style="fill:#97af98"/><path d="M205,45.55c5.78-.61,5.54-4.84,6-9.6,2.94,7.12,3.63,8.15,6.5,9.58-4.94.59-5.13,4-5.05,9C209.46,50.88,211.42,44.92,205,45.55Z" style="fill:#d7ecdf"/><path d="M146.77,141.57c-1.16-2.74-.45-5.63-.62-8.45a10.17,10.17,0,0,0-1-4.34c-.64-1.2-1.29-2.64-2.94-2.24s-1.6,2-1.25,3.35c.62,2.4.48,4.22-2.53,4.51.12-1.49.21-3,.35-4.48.57-6.26.57-6.2,6.54-5.12,2.52.46,3.63,1.47,3.13,4.26C147.69,133.19,147.31,137.4,146.77,141.57Z" style="fill:#f7ddbf"/><path d="M244.94,221.5c-1.48-3.36-1.05-7.5-6.28-8.24,5.77-.25,4.46-5,5.68-8.11,2.12,1.6,1.18,3.6,1.42,5.26.38,2.6,3.24,1.17,4.38,3.15C245.71,214.26,245.17,217.58,244.94,221.5Z" style="fill:#d7ecdf"/><path d="M387,140c-2.1-7-2.1-7-6.29-8.52,6.08-.18,5.15-4.44,6-8.58,2.42,3.31.07,8.85,6.73,8.33C390.64,132.4,389.11,134.74,387,140Z" style="fill:#d7ecdf"/><path d="M354,16.13c-2.77-2,2-8.91-6.38-7.57,6.67-.44,4.73-5.38,6.12-8.56,2,1.57,1.37,3.49,1.48,5.09.2,2.73,2.73,1.8,4.12,2.67-.44,2.4-4,.51-4.11,3.35C355.19,12.76,355.89,14.76,354,16.13Z" style="fill:#d7ecdf"/><path d="M137.65,192l-1.45.19c-.61-4.13-1.21-8.26-1.9-12.9,2.19,1.18,1.56,3.68,3.37,4.55,2.1-.28.61-3.61,3-3.77C140.15,184.17,140,188.35,137.65,192Z" style="fill:#f7ddbf"/><path d="M138.16,136.33c1,5.24,1.46,10.45-.54,15.59-1.09,2.78-.47,5.7-.61,8.56-.1,2,.18,4.05-2.22,5Q136.48,150.89,138.16,136.33Z" style="fill:#f7ddbf"/><path d="M141.64,173.92c-.38-9,2.89-17.61,2.83-26.58a2.26,2.26,0,0,1,1.64-2A156,156,0,0,1,141.64,173.92Z" style="fill:#f7ddbf"/><path d="M286.75,49.35l1.07-.15q0,17.05,0,34.12c0,1.8.3,3.67-.84,5.29Z" style="fill:#5a6753"/><path d="M290.6,234q0-18.27,0-36.54c1,1.31.91,2.85.91,4.37v27.79C291.49,231.16,291.58,232.7,290.6,234Z" style="fill:#97af98"/><path d="M290.6,277q0-15.06,0-30.12c1.92,6.39.62,12.93.8,19.39C291.51,269.81,292.35,273.52,290.6,277Z" style="fill:#97af98"/><path d="M290.58,180.08l0-28.3c1.92,7,.48,14.14.83,21.21C291.56,175.35,292.06,177.87,290.58,180.08Z" style="fill:#97af98"/><path d="M134.49,167.4c1,1.93.77,4,.46,6-.08.54-.41,1.29-1.12.8-.36-.26-.37-1-.55-1.56C133.69,170.89,134.09,169.14,134.49,167.4Z" style="fill:#f7ddbf"/><path d="M290.59,194.71q0-6.37,0-12.77A19.61,19.61,0,0,1,290.59,194.71Z" style="fill:#97af98"/><path d="M290.33,49l3.88-.57c-3.48,1.33-2.09,5-3.62,7.34C290.5,53.5,290.42,51.24,290.33,49Z" style="fill:#97af98"/><path d="M286.78,190.2c.08,1.5.17,3,.25,4.51-1.74.63-2-1-2.81-1.83C285.73,192.61,286,191.16,286.78,190.2Z" style="fill:#97af98"/><path d="M293.21,236.73c-.86.8-1.7,3.31-2.62,0Z" style="fill:#97af98"/><path d="M294.21,48.41a2.21,2.21,0,0,1,1.88-1Z" style="fill:#97af98"/><path d="M72.81,279.79a1.92,1.92,0,0,1-.53,1.91C72.46,281.06,72.64,280.43,72.81,279.79Z" style="fill:#83ac94"/><path d="M290.62,245l.86-1Z" style="fill:#97af98"/><path d="M290.61,149.93c.29-.37.57-.75.85-1.13Z" style="fill:#97af98"/><path d="M108.46,192.86a9.85,9.85,0,0,1-6.36-2c-2-1.55-3.54-3.67-3.21-6.18.31-2.36,2.93-2.22,4.72-2.81a83.87,83.87,0,0,1,12.86-2.66c3.63-.6,4.54,1.37,4.48,4.38C120.83,188.91,115.38,193,108.46,192.86Z" style="fill:#e68084"/><path d="M126,166.35c-.24,1.58-.3,3.86-2.09,3.54-3.1-.55-3.33-3.5-3.39-6.13,0-1.58.4-3.68,2.19-3.25C125.5,161.17,125.67,164,126,166.35Z" style="fill:#554939"/><path d="M94.49,172.5c-.25,1.48-.23,3.83-2,3.5-3.14-.58-3.22-3.63-3.25-6.22,0-1.44.07-3.71,2.12-3.23C94.2,167.22,94.13,170.14,94.49,172.5Z" style="fill:#554939"/><path d="M118.33,202c1.93-.37,3.46,1.21,2.86,2.43-2.54,5.19.53,9.74,1.13,14.53a63.59,63.59,0,0,0,2.18,11.17c.86,2.72.21,4.52-1.93,5.76-1.85,1.08-2.64,5.15-5.62,2.94-2.78-2.08-6.4-3.81-4.92-9,1.66-5.81,2.1-12,3.22-18,.39-2.1.88-3.82-.79-5.88S114.64,202.09,118.33,202Z" style="fill:#554939"/><path d="M286.76,282.48q.08-36.08.17-72.15c0-3,.06-6.08.1-9.13.92,1.35.8,2.89.8,4.4v75.11c0,1.51.14,3.05-.75,4.42C287,284.24,286.86,283.36,286.76,282.48Z" style="fill:#5a6753"/><path d="M367.42,177.05c0,8.13-5,13.21-13,13.11a13.13,13.13,0,0,1-12.66-12.93,12.55,12.55,0,0,1,12.65-12.71C362.25,164.46,367.43,169.45,367.42,177.05Zm-12.35,3.7c-.62.69-1.15.3-1.68,0-1-.55-2.2-.93-2.8.24-.74,1.44.6,2,1.6,2.78,2.86,2.15,4.92.34,6.59-1.54,1.92-2.16.91-4.15-1.12-5.86-1.08-.9-3-.93-3.25-3,1.41-.43,3.18,1.08,4.21-.65a1.42,1.42,0,0,0-.63-2c-1.27-.68-2.42-2.32-4-1.56s-3.26,1.81-3.71,3.79a4.23,4.23,0,0,0,1.76,4.39C353.21,178.35,355.36,178.51,355.07,180.75Z" style="fill:#dbaa3f"/><path d="M358,92.38c-7.47,0-13.26-5.57-13.33-12.7-.06-7,6.17-13,13.27-12.92A12.81,12.81,0,1,1,358,92.38Zm-.21-9.28c-1.42,1.05-3.81-2.55-4.36.55-.36,2,2.21,4,3.66,4a6.47,6.47,0,0,0,5.31-3.56c1-2-.11-3.71-1.67-5.21-1.13-1.09-3.57-.89-3.68-3.14,1.72-1,2.9,1.86,4.32.12a1.86,1.86,0,0,0-.22-2.5c-1.17-1.27-2.59-2.26-4.4-1.47s-3.22,1.82-3.62,3.78c-.37,1.81.49,3.2,1.82,4.38C356,80.94,358,81,357.8,83.1Z" style="fill:#dbaa3f"/><path d="M275.91,33c0-7.82,4.92-12.83,12.72-12.88a12.63,12.63,0,0,1,12.92,13,13.09,13.09,0,0,1-13.28,12.66C280.88,45.7,275.92,40.59,275.91,33Zm12.4-3.86c1.52-.18,2.91.95,4.07-.24.66-.68.34-1.45-.21-2-1.08-1.11-2.38-2-4-1.72s-3.33.8-3.79,2.76A4.91,4.91,0,0,0,286,33.23c1.09.91,3.23,1,3,3.09-1.07.67-1.68.08-2.35-.19-.86-.34-1.9-.72-2.49.18-.8,1.21.39,1.84,1.11,2.57,2.54,2.56,5.16,1.78,7-.52,2-2.52,1.42-5.09-1.63-6.77C289.77,31.1,288.64,30.83,288.31,29.13Z" style="fill:#dbaa3f"/><path d="M217.28,115.91c.09,6.44-6.7,13-13.49,12.94-6.13,0-12.65-6.43-12.8-12.63-.17-7,6.3-13.7,13.15-13.72C210.67,102.48,217.18,109.13,217.28,115.91Zm-14-4.38c1.69-.18,3.16,1.73,4.37.1a1.76,1.76,0,0,0,0-1.64c-.89-1.26-2.23-2.5-3.66-2.35a5.76,5.76,0,0,0-4.37,3.56c-.83,1.78.08,3.17,1.44,4.37,1.1,1,3.22,1.05,3.17,3.23-1.64.73-4-2.39-4.6.62-.46,2.17,2.1,3.71,3.71,3.94,2.18.32,4.24-1.2,5.26-3.45a3.69,3.69,0,0,0-1.52-5.09C205.87,114,204.14,113.93,203.32,111.53Z" style="fill:#dbaa3f"/><path d="M355.07,180.75c.29-2.24-1.86-2.4-3-3.38a4.23,4.23,0,0,1-1.76-4.39c.45-2,2.1-3,3.71-3.79s2.74.88,4,1.56a1.42,1.42,0,0,1,.63,2c-1,1.73-2.8.22-4.21.65.28,2.08,2.17,2.11,3.25,3,2,1.71,3,3.7,1.12,5.86-1.67,1.88-3.73,3.69-6.59,1.54-1-.75-2.34-1.34-1.6-2.78.6-1.17,1.8-.79,2.8-.24C353.92,181.05,354.45,181.44,355.07,180.75Z" style="fill:#fac44c"/><path d="M357.8,83.1C358,81,356,80.94,355,80c-1.33-1.18-2.19-2.57-1.82-4.38.4-2,1.92-3.05,3.62-3.78s3.23.2,4.4,1.47a1.86,1.86,0,0,1,.22,2.5c-1.42,1.74-2.6-1.17-4.32-.12.11,2.25,2.55,2,3.68,3.14,1.56,1.5,2.63,3.2,1.67,5.21a6.47,6.47,0,0,1-5.31,3.56c-1.45,0-4-2-3.66-4C354,80.55,356.38,84.15,357.8,83.1Z" style="fill:#fac44c"/><path d="M288.31,29.13c.33,1.7,1.46,2,2.36,2.46,3.05,1.68,3.64,4.25,1.63,6.77-1.83,2.3-4.45,3.08-7,.52-.72-.73-1.91-1.36-1.11-2.57.59-.9,1.63-.52,2.49-.18.67.27,1.28.86,2.35.19.21-2.08-1.93-2.18-3-3.09a4.91,4.91,0,0,1-1.64-5.31c.46-2,2.14-2.47,3.79-2.76s2.92.61,4,1.72c.55.56.87,1.33.21,2C291.22,30.08,289.83,29,288.31,29.13Z" style="fill:#fac44c"/><path d="M203.32,111.53c.82,2.4,2.55,2.49,3.77,3.29a3.69,3.69,0,0,1,1.52,5.09c-1,2.25-3.08,3.77-5.26,3.45-1.61-.23-4.17-1.77-3.71-3.94.63-3,3,.11,4.6-.62,0-2.18-2.07-2.26-3.17-3.23-1.36-1.2-2.27-2.59-1.44-4.37a5.76,5.76,0,0,1,4.37-3.56c1.43-.15,2.77,1.09,3.66,2.35a1.76,1.76,0,0,1,0,1.64C206.48,113.26,205,111.35,203.32,111.53Z" style="fill:#fac44c"/><rect y="77" width="15" height="181" style="fill:none"/><rect x="398" y="86" width="15" height="181" style="fill:none"/></g></g></g></svg>