<svg xmlns="http://www.w3.org/2000/svg" viewBox="0 0 300 90"><title>dashboard</title><g id="Layer_2" data-name="Layer 2"><g id="Layer_1-2" data-name="Layer 1"><rect width="300" height="90" style="fill:#3fa9f5"/><rect width="210.76" height="90" style="fill:#fff"/><path d="M34.93,51.11h-2.7V36.65h2.7Z" style="fill:#333"/><path d="M40.18,45.46v5.65H37.49V36.65H41.9a8.93,8.93,0,0,1,2.53.31,4.67,4.67,0,0,1,1.73.85,3.34,3.34,0,0,1,1,1.32,4.37,4.37,0,0,1,.32,1.68,4.16,4.16,0,0,1-.22,1.38,3.92,3.92,0,0,1-.62,1.18,4.25,4.25,0,0,1-1,.93,5.1,5.1,0,0,1-1.35.64,2.66,2.66,0,0,1,.88.83l3.62,5.34H46.36a1.24,1.24,0,0,1-.6-.14,1.2,1.2,0,0,1-.41-.4l-3-4.63a1.1,1.1,0,0,0-.38-.37,1.33,1.33,0,0,0-.6-.11Zm0-1.93h1.68a4,4,0,0,0,1.32-.19,2.6,2.6,0,0,0,.93-.52,2.09,2.09,0,0,0,.55-.8,2.75,2.75,0,0,0,.18-1,2,2,0,0,0-.73-1.69,3.47,3.47,0,0,0-2.21-.59H40.18Z" style="fill:#333"/><path d="M65.51,51.11H63.43a1,1,0,0,1-.58-.17,1,1,0,0,1-.32-.44l-1.08-3h-6l-1.08,3a1,1,0,0,1-.32.42.85.85,0,0,1-.57.19H51.4l5.68-14.46h2.75Zm-9.36-5.46h4.61L59,40.84q-.12-.31-.27-.75c-.09-.29-.19-.61-.28-1-.1.34-.19.66-.28,1s-.18.55-.26.77Z" style="fill:#333"/><path d="M82.14,43.88a7.9,7.9,0,0,1-.53,2.92,6.77,6.77,0,0,1-1.49,2.29,6.62,6.62,0,0,1-2.31,1.49,8.2,8.2,0,0,1-3,.53H69.3V36.65h5.52a8,8,0,0,1,3,.54A6.58,6.58,0,0,1,81.61,41,7.9,7.9,0,0,1,82.14,43.88Zm-2.75,0a6.71,6.71,0,0,0-.32-2.13,4.62,4.62,0,0,0-.91-1.6,3.88,3.88,0,0,0-1.44-1,5,5,0,0,0-1.9-.35H72V49h2.81a5,5,0,0,0,1.9-.35,4,4,0,0,0,1.44-1,4.71,4.71,0,0,0,.91-1.6A6.78,6.78,0,0,0,79.39,43.88Z" style="fill:#333"/><path d="M95.67,51.11H93.59a1,1,0,0,1-.58-.17,1,1,0,0,1-.32-.44l-1.08-3h-6l-1.08,3a1,1,0,0,1-.32.42.85.85,0,0,1-.57.19H81.56l5.68-14.46H90Zm-9.36-5.46h4.61l-1.76-4.81q-.12-.31-.27-.75c-.09-.29-.19-.61-.28-1-.1.34-.19.66-.28,1s-.18.55-.26.77Z" style="fill:#333"/><path d="M104.13,39.28a.75.75,0,0,1-.26.31.62.62,0,0,1-.34.09.86.86,0,0,1-.45-.15l-.59-.35a4.28,4.28,0,0,0-.8-.34,3.13,3.13,0,0,0-1.07-.16,3.17,3.17,0,0,0-1,.14,2.12,2.12,0,0,0-.7.37,1.42,1.42,0,0,0-.42.58,1.73,1.73,0,0,0-.14.73,1.28,1.28,0,0,0,.28.85,2.29,2.29,0,0,0,.76.58,7.22,7.22,0,0,0,1.07.43c.4.13.81.26,1.22.41a9.32,9.32,0,0,1,1.23.5A4.37,4.37,0,0,1,104,44a3.28,3.28,0,0,1,.75,1.06,3.7,3.7,0,0,1,.29,1.53,4.93,4.93,0,0,1-.34,1.84,4.25,4.25,0,0,1-1,1.49,4.75,4.75,0,0,1-1.57,1,5.87,5.87,0,0,1-2.13.36,6.85,6.85,0,0,1-2.65-.52,7.36,7.36,0,0,1-1.15-.6,5.56,5.56,0,0,1-1-.78l.78-1.29a1.2,1.2,0,0,1,.26-.24.7.7,0,0,1,.35-.09,1,1,0,0,1,.54.21l.68.45a5.76,5.76,0,0,0,.93.46,3.8,3.8,0,0,0,1.29.2,2.67,2.67,0,0,0,1.78-.54,2,2,0,0,0,.63-1.57,1.46,1.46,0,0,0-.29-.93,2.26,2.26,0,0,0-.75-.6,5.19,5.19,0,0,0-1.07-.42c-.4-.11-.81-.24-1.22-.37A9.08,9.08,0,0,1,98,44.16a4,4,0,0,1-1.07-.73,3.17,3.17,0,0,1-.76-1.13,4.23,4.23,0,0,1-.28-1.66,3.92,3.92,0,0,1,.31-1.54,4,4,0,0,1,.92-1.33,4.49,4.49,0,0,1,1.49-.93,5.42,5.42,0,0,1,2-.35,6.68,6.68,0,0,1,2.36.4A5.41,5.41,0,0,1,104.79,38Z" style="fill:#333"/><path d="M118.53,51.11h-2.71V44.79H109v6.32h-2.71V36.65H109v6.22h6.78V36.65h2.71Z" style="fill:#333"/><path d="M120.67,51.11V36.65h5a9.45,9.45,0,0,1,2.42.27,4.68,4.68,0,0,1,1.65.77,3,3,0,0,1,1,1.21,4.07,4.07,0,0,1,.3,1.6,3.19,3.19,0,0,1-.15,1,2.79,2.79,0,0,1-.47.86,3.17,3.17,0,0,1-.8.74,4.73,4.73,0,0,1-1.15.56c2,.45,3,1.52,3,3.22a4.17,4.17,0,0,1-.35,1.7,4,4,0,0,1-1,1.35,5,5,0,0,1-1.65.88,7.34,7.34,0,0,1-2.24.32Zm2.69-8.2h2.15a3.65,3.65,0,0,0,2.08-.5,1.81,1.81,0,0,0,.71-1.59,1.91,1.91,0,0,0-.64-1.61,3.37,3.37,0,0,0-2-.48h-2.3Zm0,1.86V49h2.73a3.71,3.71,0,0,0,1.25-.18,2.13,2.13,0,0,0,.81-.48,1.67,1.67,0,0,0,.44-.7,2.66,2.66,0,0,0,.14-.85,2.24,2.24,0,0,0-.15-.84,1.57,1.57,0,0,0-.47-.64,2.18,2.18,0,0,0-.82-.41,4.73,4.73,0,0,0-1.21-.14Z" style="fill:#333"/><path d="M146.79,43.88a8,8,0,0,1-.53,2.94,7,7,0,0,1-1.49,2.35,6.9,6.9,0,0,1-2.31,1.55,8.43,8.43,0,0,1-6,0,7,7,0,0,1-2.32-1.55,6.88,6.88,0,0,1-1.49-2.35,8.42,8.42,0,0,1,0-5.88,6.68,6.68,0,0,1,3.81-3.89,8.29,8.29,0,0,1,6,0,6.88,6.88,0,0,1,2.31,1.54,7,7,0,0,1,1.49,2.35A8,8,0,0,1,146.79,43.88Zm-2.76,0a6.71,6.71,0,0,0-.32-2.13,4.58,4.58,0,0,0-.9-1.61,3.88,3.88,0,0,0-1.44-1,5.36,5.36,0,0,0-3.81,0,3.91,3.91,0,0,0-1.45,1,4.6,4.6,0,0,0-.91,1.61,7.28,7.28,0,0,0,0,4.27,4.55,4.55,0,0,0,.91,1.6,4,4,0,0,0,1.45,1,5.36,5.36,0,0,0,3.81,0,4,4,0,0,0,1.44-1,4.54,4.54,0,0,0,.9-1.6A6.78,6.78,0,0,0,144,43.88Z" style="fill:#333"/><path d="M160.33,51.11h-2.08a1,1,0,0,1-.58-.17,1,1,0,0,1-.32-.44l-1.08-3h-6l-1.08,3a1,1,0,0,1-.32.42.85.85,0,0,1-.57.19h-2.09l5.68-14.46h2.75ZM151,45.65h4.61l-1.76-4.81q-.12-.31-.27-.75c-.09-.29-.19-.61-.28-1-.1.34-.19.66-.28,1s-.18.55-.26.77Z" style="fill:#333"/><path d="M163.82,45.46v5.65h-2.69V36.65h4.41a8.93,8.93,0,0,1,2.53.31,4.75,4.75,0,0,1,1.73.85,3.34,3.34,0,0,1,1,1.32,4.37,4.37,0,0,1,.32,1.68,4.43,4.43,0,0,1-.22,1.38,3.92,3.92,0,0,1-.62,1.18,4.25,4.25,0,0,1-1,.93,5.26,5.26,0,0,1-1.35.64,2.66,2.66,0,0,1,.88.83l3.62,5.34H170a1.11,1.11,0,0,1-1-.54l-3-4.63a1.1,1.1,0,0,0-.38-.37,1.33,1.33,0,0,0-.6-.11Zm0-1.93h1.68a4.08,4.08,0,0,0,1.32-.19,2.6,2.6,0,0,0,.93-.52,2.21,2.21,0,0,0,.55-.8,2.75,2.75,0,0,0,.18-1,2.07,2.07,0,0,0-.73-1.69,3.47,3.47,0,0,0-2.21-.59h-1.72Z" style="fill:#333"/><path d="M186.2,43.88a7.9,7.9,0,0,1-.53,2.92,6.77,6.77,0,0,1-1.49,2.29,6.62,6.62,0,0,1-2.31,1.49,8.2,8.2,0,0,1-3,.53h-5.52V36.65h5.52a8,8,0,0,1,3,.54,6.58,6.58,0,0,1,3.8,3.77A7.9,7.9,0,0,1,186.2,43.88Zm-2.75,0a6.71,6.71,0,0,0-.32-2.13,4.62,4.62,0,0,0-.91-1.6,3.88,3.88,0,0,0-1.44-1,5,5,0,0,0-1.9-.35h-2.81V49h2.81a5,5,0,0,0,1.9-.35,4,4,0,0,0,1.44-1,4.71,4.71,0,0,0,.91-1.6A6.78,6.78,0,0,0,183.45,43.88Z" style="fill:#333"/><rect x="258.31" y="16.86" width="25.02" height="18.76" style="fill:none;stroke:#3b0099;stroke-miterlimit:10;stroke-width:2px"/><rect x="227.04" y="16.86" width="25.02" height="31.27" style="fill:none;stroke:#3b0099;stroke-miterlimit:10;stroke-width:2px"/><rect x="227.04" y="54.38" width="25.02" height="18.76" style="fill:none;stroke:#3b0099;stroke-miterlimit:10;stroke-width:2px"/><rect x="258.31" y="41.87" width="25.02" height="31.27" style="fill:none;stroke:#3b0099;stroke-miterlimit:10;stroke-width:2px"/></g></g></svg>