<svg xmlns="http://www.w3.org/2000/svg" viewBox="0 0 413.03 69.73"><title>dejaque4</title><g id="a2ec43b3-9bfd-4489-bf80-cc552657b937" data-name="Layer 2"><g id="f9b7bd0e-c869-41a9-8f44-89b92079fa0a" data-name="Layer 1"><path d="M37,19.39A35.58,35.58,0,0,1,42.14,19c3.5,0,6,.81,7.65,2.35a8.71,8.71,0,0,1,2.66,6.79,10,10,0,0,1-2.72,7.34C48,37.25,45.05,38.2,41.38,38.2A39.2,39.2,0,0,1,37,38ZM39.39,36.1a15.67,15.67,0,0,0,2.47.14c5.21,0,8-2.92,8-8,0-4.46-2.49-7.29-7.65-7.29a14,14,0,0,0-2.86.25Z" transform="translate(-4.04 -18.13)" style="fill:#202529"/><path d="M57,31.7c0,3.33,2.18,4.7,4.65,4.7a8.83,8.83,0,0,0,3.76-.7l.42,1.77a11.07,11.07,0,0,1-4.52.84c-4.17,0-6.67-2.75-6.67-6.84s2.41-7.31,6.36-7.31c4.43,0,5.61,3.89,5.61,6.39a9.29,9.29,0,0,1-.08,1.15Zm7.23-1.77c0-1.57-.65-4-3.42-4-2.5,0-3.59,2.3-3.79,4Z" transform="translate(-4.04 -18.13)" style="fill:#202529"/><path d="M66.38,42a4,4,0,0,0,2.69-1c.67-.79.92-1.85.92-5.1V24.46h2.47V36.77c0,2.63-.42,4.34-1.63,5.58a6.25,6.25,0,0,1-4.2,1.54Zm6.36-21.31a1.45,1.45,0,0,1-1.54,1.52,1.48,1.48,0,0,1-1.52-1.52,1.51,1.51,0,0,1,1.57-1.54A1.46,1.46,0,0,1,72.74,20.65Z" transform="translate(-4.04 -18.13)" style="fill:#202529"/><path d="M84,38l-.19-1.71h-.09a5,5,0,0,1-4.14,2,3.87,3.87,0,0,1-4.15-3.9c0-3.28,2.91-5.07,8.15-5v-.28A2.79,2.79,0,0,0,80.5,26,6.72,6.72,0,0,0,77,27l-.56-1.63a8.42,8.42,0,0,1,4.46-1.2C85,24.16,86,27,86,29.71v5.07A18.8,18.8,0,0,0,86.25,38Zm-.36-6.92c-2.69-.06-5.75.42-5.75,3a2.19,2.19,0,0,0,2.33,2.36,3.37,3.37,0,0,0,3.28-2.27,2.8,2.8,0,0,0,.14-.79Z" transform="translate(-4.04 -18.13)" style="fill:#202529"/><path d="M105.19,35.93h-.06a4.82,4.82,0,0,1-4.42,2.41c-3.17,0-5.75-2.75-5.75-6.87,0-5.07,3.28-7.31,6.14-7.31a4.44,4.44,0,0,1,4.17,2.35h.06l.08-2.05h2.33c-.06,1.15-.08,2.33-.08,3.73V43.58h-2.47Zm0-6a4.42,4.42,0,0,0-.11-1,3.61,3.61,0,0,0-3.53-2.8c-2.55,0-4.1,2.16-4.1,5.21,0,2.69,1.29,5.05,4,5.05A3.67,3.67,0,0,0,105,33.69a4,4,0,0,0,.2-1.18Z" transform="translate(-4.04 -18.13)" style="fill:#202529"/><path d="M123.07,34.33c0,1.4,0,2.64.11,3.7H121l-.14-2.21h-.06a5.13,5.13,0,0,1-4.49,2.52c-2.13,0-4.68-1.18-4.68-5.94V24.46h2.47V32c0,2.58.78,4.31,3,4.31a3.45,3.45,0,0,0,3.47-3.5V24.46h2.47Z" transform="translate(-4.04 -18.13)" style="fill:#202529"/><path d="M128.53,31.7c.06,3.33,2.19,4.7,4.65,4.7a8.79,8.79,0,0,0,3.76-.7l.42,1.77a11,11,0,0,1-4.51.84c-4.18,0-6.67-2.75-6.67-6.84s2.41-7.31,6.36-7.31c4.43,0,5.61,3.89,5.61,6.39a8.91,8.91,0,0,1-.09,1.15Zm7.23-1.77c0-1.57-.64-4-3.42-4-2.49,0-3.59,2.3-3.78,4Z" transform="translate(-4.04 -18.13)" style="fill:#202529"/><path d="M147.22,19.39A25.67,25.67,0,0,1,151.9,19c2.61,0,4.29.47,5.47,1.54a4.71,4.71,0,0,1,1.48,3.59A5,5,0,0,1,155.29,29V29c1.46.51,2.33,1.85,2.78,3.82A29.65,29.65,0,0,0,159.53,38H157a25.93,25.93,0,0,1-1.26-4.51c-.56-2.61-1.57-3.59-3.78-3.67h-2.3V38h-2.44ZM149.66,28h2.5c2.6,0,4.26-1.43,4.26-3.59,0-2.44-1.77-3.51-4.35-3.53a10.18,10.18,0,0,0-2.41.22Z" transform="translate(-4.04 -18.13)" style="fill:#202529"/><path d="M165.24,20.65a1.53,1.53,0,0,1-3.05,0,1.5,1.5,0,0,1,1.54-1.54A1.46,1.46,0,0,1,165.24,20.65ZM162.49,38V24.46H165V38Z" transform="translate(-4.04 -18.13)" style="fill:#202529"/><path d="M178.72,37.53a9.16,9.16,0,0,1-3.89.78c-4.1,0-6.76-2.77-6.76-6.92a6.9,6.9,0,0,1,7.29-7.21,8.33,8.33,0,0,1,3.42.7l-.56,1.91a5.71,5.71,0,0,0-2.86-.64c-3.11,0-4.79,2.29-4.79,5.13,0,3.14,2,5.07,4.7,5.07a7.12,7.12,0,0,0,3-.67Z" transform="translate(-4.04 -18.13)" style="fill:#202529"/><path d="M181.61,18.13h2.46v8.46h.06a4.53,4.53,0,0,1,1.77-1.73,5,5,0,0,1,2.52-.7c1.82,0,4.74,1.12,4.74,5.8V38h-2.47V30.24c0-2.19-.81-4-3.14-4a3.54,3.54,0,0,0-3.31,2.47,3,3,0,0,0-.17,1.18V38h-2.46Z" transform="translate(-4.04 -18.13)" style="fill:#202529"/><path d="M199.91,20.65a1.53,1.53,0,0,1-3.06,0,1.5,1.5,0,0,1,1.54-1.54A1.46,1.46,0,0,1,199.91,20.65ZM197.16,38V24.46h2.47V38Z" transform="translate(-4.04 -18.13)" style="fill:#202529"/><path d="M205.09,31.7c.06,3.33,2.19,4.7,4.65,4.7a8.79,8.79,0,0,0,3.76-.7l.42,1.77a11,11,0,0,1-4.51.84c-4.18,0-6.67-2.75-6.67-6.84s2.41-7.31,6.36-7.31c4.43,0,5.61,3.89,5.61,6.39a8.91,8.91,0,0,1-.09,1.15Zm7.23-1.77c0-1.57-.64-4-3.42-4-2.49,0-3.59,2.3-3.78,4Z" transform="translate(-4.04 -18.13)" style="fill:#202529"/><path d="M226.67,20.57v3.89h3.53v1.88h-3.53v7.32c0,1.68.48,2.63,1.85,2.63a5.27,5.27,0,0,0,1.43-.17l.11,1.85a6,6,0,0,1-2.19.34,3.39,3.39,0,0,1-2.66-1,5,5,0,0,1-1-3.53v-7.4h-2.1V24.46h2.1V21.21Z" transform="translate(-4.04 -18.13)" style="fill:#202529"/><path d="M234.18,31.7c0,3.33,2.18,4.7,4.65,4.7a8.83,8.83,0,0,0,3.76-.7l.42,1.77a11.07,11.07,0,0,1-4.52.84c-4.17,0-6.67-2.75-6.67-6.84s2.41-7.31,6.37-7.31c4.42,0,5.6,3.89,5.6,6.39a9.29,9.29,0,0,1-.08,1.15Zm7.23-1.77c0-1.57-.65-4-3.42-4-2.49,0-3.59,2.3-3.78,4Z" transform="translate(-4.04 -18.13)" style="fill:#202529"/><path d="M18.36,87.86V35.44C14.72,37.53,7.25,39.49,4,39.71V28.87A36.09,36.09,0,0,0,22,18.45H32.71V87.86Z" transform="translate(-4.04 -18.13)" style="fill:#ffd34e"/><path d="M63.33,59.32c-1.3,4.54-4.81,8.61-12.74,8.61-9.1,0-13.66-6.31-13.66-13.54s5-13.61,14-13.61c7.83,0,11.67,4.31,12.51,8.64H57.83c-.72-1.89-2.35-4.33-7-4.33-5.23,0-8.11,3.94-8.11,9.1s2.72,9.45,8.14,9.45c4.09,0,5.83-1.65,7-4.32Z" transform="translate(-4.04 -18.13)"/><path d="M94.74,54.27c0,7.26-4.87,13.66-14.1,13.66-8.69,0-13.8-6-13.8-13.65,0-7.18,5.35-13.5,14-13.5C89.72,40.78,94.74,47.13,94.74,54.27ZM72.61,54.2c0,5.14,2.79,9.39,8.31,9.39s8-4.55,8-9.25c0-4.86-2.62-9.22-8.3-9.22C75.28,45.12,72.61,49.45,72.61,54.2Z" transform="translate(-4.04 -18.13)"/><path d="M100.12,67.38v-26h6.49c6.85,10.2,11.52,16.4,13.11,19.37h.07c-.25-3-.21-7.58-.21-11.85V41.33h5V67.38h-6.1c-2.91-4.3-11.85-17.61-13.5-20.6h-.08c.21,3.26.21,7,.21,11.58v9Z" transform="translate(-4.04 -18.13)"/><path d="M158.12,54.27c0,7.26-4.86,13.66-14.1,13.66-8.69,0-13.8-6-13.8-13.65,0-7.18,5.35-13.5,14-13.5C153.1,40.78,158.12,47.13,158.12,54.27ZM136,54.2c0,5.14,2.8,9.39,8.31,9.39s8-4.55,8-9.25c0-4.86-2.62-9.22-8.29-9.22C138.66,45.12,136,49.45,136,54.2Z" transform="translate(-4.04 -18.13)"/><path d="M160.69,63.4,177.2,45.66H161.48V41.33h22.66V45.6L167.89,63.05h17.38l-.65,4.33H160.69Z" transform="translate(-4.04 -18.13)"/><path d="M213.92,59.32c-1.3,4.54-4.81,8.61-12.75,8.61-9.09,0-13.65-6.31-13.65-13.54s5-13.61,13.94-13.61c7.83,0,11.67,4.31,12.52,8.64h-5.56c-.73-1.89-2.35-4.33-7-4.33-5.23,0-8.11,3.94-8.11,9.1s2.73,9.45,8.15,9.45c4.09,0,5.83-1.65,7-4.32Z" transform="translate(-4.04 -18.13)"/><path d="M223.85,60.83l-2.63,6.55h-5.64l10.72-26h6.93l11.23,26.05h-5.92l-2.78-6.55Zm10.33-4.44c-2.67-6.37-4-9.53-4.57-11.44h0c-.57,1.87-2.08,6-4.25,11.44Z" transform="translate(-4.04 -18.13)"/><rect x="250.03" y="1.62" width="163" height="66" style="fill:none"/></g></g></svg>