<?xml version="1.0" encoding="utf-8"?>
<!-- Generator: Adobe Illustrator 23.0.1, SVG Export Plug-In . SVG Version: 6.00 Build 0)  -->
<svg version="1.1" xmlns="http://www.w3.org/2000/svg" xmlns:xlink="http://www.w3.org/1999/xlink" x="0px" y="0px"
	 viewBox="0 0 508.8 453.4" style="enable-background:new 0 0 508.8 453.4;" xml:space="preserve">
<style type="text/css">
	.st0{fill:#554939;}
	.st1{fill:#FBDBBE;}
	.st2{fill:#F4F3F3;}
	.st3{fill:#6C6A5A;}
	.st4{fill:#534A3B;}
	.st5{fill:#F7DDBF;}
	.st6{fill:#F0C658;}
	.st7{fill:#F6C651;}
	.st8{fill:#5A6753;}
	.st9{fill:#97AF98;}
	.st10{fill:#D7ECDF;}
	.st11{fill:#83AC94;}
	.st12{fill:#E68084;}
	.st13{fill:#DBAA3F;}
	.st14{fill:#FAC44C;}
	.st15{fill:#545B69;}
	.st16{fill:#5BBFD0;}
	.st17{fill:#E8B699;}
	.st18{fill:#FAC705;}
	.st19{fill:#EAE1D2;}
	.st20{fill:#69707B;}
	.st21{fill:#F9EA83;}
	.st22{fill:#CEC4B2;}
	.st23{fill:#F9F2E5;}
	.st24{fill:#EAAF51;}
	.st25{fill:#C7BDAB;}
	.st26{fill:#5F453C;}
	.st27{fill:#F9F2E6;}
	.st28{fill:#F6BB04;}
	.st29{fill:#F9C707;}
	.st30{fill:#CFC4B2;}
	.st31{fill:#C1BAA9;}
	.st32{fill:#C6BBA9;}
	.st33{fill:#C5BAA7;}
	.st34{fill:#DACFBD;}
	.st35{fill:#E6B599;}
	.st36{fill:#FBCC06;}
	.st37{fill:#695046;}
	.st38{fill:#97796E;}
	.st39{fill:#DCA009;}
	.st40{fill:#E4DBCA;}
	.st41{fill:#6CA9AA;}
	.st42{fill:#CA8B71;}
	.st43{fill:#E3DACA;}
	.st44{fill:#60473E;}
	.st45{fill:#DE9F08;}
	.st46{fill:#D2D9D7;}
	.st47{fill:#E2DACA;}
	.st48{fill:#D3D9D7;}
	.st49{fill:#E2AA0A;}
	.st50{fill:#9FA8A1;}
	.st51{fill:#C9C9BC;}
	.st52{fill:#B9C6BD;}
	.st53{fill:#B0C3BD;}
	.st54{fill:#94796F;}
	.st55{fill:#785E54;}
	.st56{fill:#E0D7C5;}
	.st57{fill:#6E787B;}
	.st58{fill:#AEC2BD;}
	.st59{fill:#785F54;}
	.st60{fill:#8B786F;}
	.st61{fill:#CBC2AD;}
	.st62{fill:#DDEEF1;}
	.st63{fill:#DAD0BE;}
	.st64{fill:#1889AB;}
	.st65{fill:#C5C9C6;}
	.st66{fill:#14ACC2;}
	.st67{fill:#E7B599;}
	.st68{fill:#384352;}
	.st69{fill:#414959;}
	.st70{fill:#CB8E74;}
	.st71{fill:#F1F1F1;}
	.st72{fill:#3A4554;}
	.st73{fill:#9FA9A3;}
	.st74{fill:#77CADD;}
	.st75{fill:#271A17;}
	.st76{fill:#DED5C4;}
	.st77{fill:#D79708;}
	.st78{fill:#BDB299;}
	.st79{fill:#E7A608;}
	.st80{fill:#169DC9;}
	.st81{fill:#9DD8E6;}
	.st82{fill:#72CAE0;}
	.st83{fill:#F4F1E8;}
	.st84{fill:#B5E2EC;}
	.st85{fill:#F5E364;}
	.st86{fill:#43ADAC;}
	.st87{fill:#DCD2C1;}
	.st88{fill:#C2BD96;}
	.st89{fill:#B5A03D;}
	.st90{fill:#34BFC7;}
	.st91{fill:#E3E0D1;}
	.st92{fill:#93D5E7;}
	.st93{fill:#89D0E2;}
	.st94{fill:#795D52;}
	.st95{fill:#72564B;}
	.st96{fill:#6B5146;}
	.st97{fill:#73574C;}
	.st98{fill:#E89129;}
	.st99{fill:#E07925;}
	.st100{fill:#34404F;}
	.st101{fill:#E8A807;}
	.st102{fill:#D99908;}
	.st103{fill:#FDF9F0;}
	.st104{fill:#EFE7D9;}
	.st105{fill:#75BBBB;}
	.st106{fill:#CDC2AF;}
	.st107{fill:#1695B7;}
	.st108{fill:#DCA109;}
	.st109{fill:#747A7B;}
	.st110{fill:#9CB2AF;}
	.st111{fill:#374351;}
	.st112{fill:#FCFCFA;}
	.st113{fill:#F8F9F7;}
	.st114{fill:#E8DFCF;}
	.st115{fill:#D1C6B3;}
	.st116{fill:#D5CBB9;}
	.st117{fill:#CD6328;}
	.st118{fill:#FCF9F1;}
	.st119{fill:#E9E0D0;}
	.st120{fill:#F0E8DB;}
	.st121{fill:#EDE4D5;}
	.st122{fill:#EAE2D3;}
	.st123{fill:#EAE2D2;}
	.st124{fill:#FAF9F4;}
	.st125{fill:#4A362C;}
	.st126{fill:#61483E;}
	.st127{fill:#F0E8DA;}
	.st128{fill:#D9CFBD;}
	.st129{fill:#EEB106;}
	.st130{fill:#D8CDBB;}
	.st131{fill:#DDA40D;}
	.st132{fill:#FCF9F0;}
	.st133{fill:#EDE4D6;}
	.st134{fill:#DACFBE;}
	.st135{fill:#EEE6D7;}
	.st136{fill:#DBD0BF;}
	.st137{fill:#E3DAC9;}
	.st138{fill:#ECE3D5;}
	.st139{fill:#E6DDCD;}
	.st140{fill:#F1D357;}
	.st141{fill:#A5997B;}
	.st142{fill:#585F6C;}
	.st143{fill:#FCFAEF;}
	.st144{fill:#1993B2;}
	.st145{fill:#92B6B5;}
	.st146{fill:#5BBECF;}
	.st147{fill:#286266;}
	.st148{fill:#36A9C0;}
	.st149{fill:#283947;}
	.st150{fill:#CFC17E;}
	.st151{fill:#C7E9F2;}
	.st152{fill:#A1955F;}
	.st153{fill:#AFE0EC;}
	.st154{fill:#B9A962;}
	.st155{fill:#F4E875;}
	.st156{fill:#C1B8A6;}
	.st157{fill:#F4C951;}
	.st158{fill:#DFD581;}
	.st159{fill:#E8DA69;}
	.st160{fill:#E4DDB1;}
	.st161{fill:#BAAF75;}
	.st162{fill:#CFAB3B;}
	.st163{fill:#B4A563;}
	.st164{fill:#F3C14C;}
	.st165{fill:#E7E5D5;}
	.st166{fill:#7D712C;}
	.st167{fill:#F4BD48;}
	.st168{fill:#BFB16F;}
	.st169{fill:#C2AB48;}
	.st170{fill:#867832;}
	.st171{fill:#BFB88D;}
	.st172{fill:#6F5C25;}
	.st173{fill:#84773A;}
	.st174{fill:#26757A;}
	.st175{fill:#9B8F58;}
	.st176{fill:#DDD5C2;}
	.st177{fill:#D3CEAF;}
	.st178{fill:#5A4C24;}
	.st179{fill:#E5E2D1;}
	.st180{fill:#E5E0CE;}
	.st181{fill:#AE9D46;}
	.st182{fill:#B43027;}
	.st183{fill:#ADA48C;}
	.st184{fill:#9D937B;}
	.st185{fill:#5EC6D8;}
	.st186{fill:#F5E168;}
	.st187{fill:#287A7B;}
	.st188{fill:#F0B847;}
	.st189{fill:#5CACAC;}
	.st190{fill:#F4C04C;}
	.st191{fill:#3FA2A1;}
	.st192{fill:#C8C39C;}
	.st193{fill:#261B16;}
	.st194{fill:#82D0E5;}
	.st195{fill:#B2A990;}
	.st196{fill:#A59B83;}
	.st197{fill:#998F77;}
	.st198{fill:#ACA28A;}
	.st199{fill:#998F78;}
	.st200{fill:#D09107;}
	.st201{fill:#A79D85;}
	.st202{fill:#261610;}
	.st203{fill:#4A3B17;}
	.st204{fill:#31434F;}
	.st205{fill:#FDFAF1;}
	.st206{fill:#F6E263;}
	.st207{fill:#27839F;}
	.st208{fill:#F1BF4D;}
	.st209{fill:#B4AC7D;}
	.st210{fill:#644C24;}
	.st211{fill:#CAC59C;}
	.st212{fill:#E0D8C6;}
	.st213{fill:#CBC49F;}
	.st214{fill:#DFD8AF;}
	.st215{fill:#C2AB46;}
	.st216{fill:#EBE5D4;}
	.st217{fill:#BDB07C;}
	.st218{fill:#5E4B25;}
	.st219{fill:#745834;}
	.st220{fill:#A3965C;}
	.st221{fill:#E8E3B6;}
	.st222{fill:#958235;}
	.st223{fill:#A79B63;}
	.st224{fill:#C5C09A;}
	.st225{fill:#9B9059;}
	.st226{fill:#C7C29D;}
	.st227{fill:#80732F;}
	.st228{fill:#AA9E67;}
	.st229{fill:#7D712D;}
	.st230{fill:#F1EADB;}
	.st231{fill:#CDB14E;}
	.st232{fill:#F4C850;}
	.st233{fill:#92864D;}
	.st234{fill:#D2CDAD;}
	.st235{fill:#F5E362;}
	.st236{fill:#F9D634;}
	.st237{fill:#B3AC7A;}
	.st238{fill:#F8C832;}
	.st239{fill:#978B54;}
	.st240{fill:#EEA32E;}
	.st241{fill:#4E3E18;}
	.st242{fill:#43A6B2;}
	.st243{fill:#A09C6D;}
	.st244{fill:#F8D932;}
	.st245{fill:#CECAA8;}
	.st246{fill:#877832;}
	.st247{fill:#635220;}
	.st248{fill:#BFB88F;}
	.st249{fill:#645221;}
	.st250{fill:#BAB287;}
	.st251{fill:#715B34;}
	.st252{fill:#B6AD7E;}
	.st253{fill:#B1A979;}
	.st254{fill:#CAC08B;}
	.st255{fill:#F4B030;}
	.st256{fill:#F2C250;}
	.st257{fill:#ADA26A;}
	.st258{fill:#C8AA3F;}
	.st259{fill:#A69C69;}
	.st260{fill:#E89028;}
	.st261{fill:#0E7288;}
	.st262{fill:#6B6E73;}
	.st263{fill:#EEC495;}
	.st264{fill:#368464;}
	.st265{fill:#ECC497;}
	.st266{fill:#F7FBF7;}
	.st267{fill:#7D8A85;}
	.st268{fill:#FDFDF9;}
	.st269{fill:#818D87;}
	.st270{fill:#808781;}
	.st271{fill:#8A897B;}
	.st272{fill:#898B7F;}
	.st273{fill:#8D7C66;}
	.st274{fill:#AA8D6D;}
	.st275{fill:#A18264;}
	.st276{fill:#E1F4F5;}
	.st277{fill:#E2F5F6;}
	.st278{fill:#E5F7F7;}
	.st279{fill:#F5F6F7;}
	.st280{fill:#F7F7F8;}
	.st281{fill:#F6F6F7;}
	.st282{fill:#CCEEFA;}
	.st283{fill:#828C83;}
	.st284{fill:#F6D4A7;}
	.st285{fill:#006738;}
	.st286{display:none;}
	.st287{fill:#FFD34E;}
	.st288{fill:#F4DABC;}
	.st289{fill:#F1EEED;}
	.st290{fill:#424342;}
	.st291{fill:#424242;}
	.st292{fill:#FBD9BA;}
	.st293{fill:#807F7F;}
	.st294{fill:#595046;}
	.st295{fill:#E87F85;}
	.st296{fill:#B05A35;}
	.st297{fill:#6FC728;}
	.st298{fill:#FFFFFF;}
	.st299{fill:#EEB23B;}
	.st300{fill:#EEB23A;}
	.st301{fill:#424243;}
	.st302{fill:#4F433B;}
	.st303{fill:#FAD9BA;}
	.st304{fill:#FBCA64;}
	.st305{fill:#FDC95F;}
	.st306{fill:#AA6C55;}
	.st307{fill:#BB9A74;}
	.st308{fill:#F1F0EF;}
	.st309{fill:#E98B8F;}
	.st310{fill:#E2A935;}
	.st311{fill:#91AF9A;}
	.st312{fill:#94B9A7;}
	.st313{fill:#6E6E71;}
	.st314{fill:#424244;}
	.st315{fill:#50413A;}
	.st316{fill:#F6F7F6;}
	.st317{fill:#533E2A;}
	.st318{fill:#FAD8B9;}
	.st319{fill:#F8D8B9;}
	.st320{fill:#53402C;}
	.st321{fill:#F7D9BA;}
	.st322{fill:#F8C54B;}
	.st323{fill:#B7D2C3;}
	.st324{fill:#6D6E72;}
	.st325{fill:#EB7F86;}
	.st326{fill:#E29F25;}
	.st327{fill:#202529;}
	.st328{fill:#FF0000;}
	.st329{fill:none;}
	.st330{fill:#252525;}
	.st331{fill:#3D2618;}
	.st332{fill:#FCF6CA;}
	.st333{fill:#FFFBD4;}
	.st334{fill:#EAE5C1;}
	.st335{fill:#1E201F;}
	.st336{fill:#F9D7B8;}
	.st337{fill:#F0F1F0;}
	.st338{fill:#961A17;}
	.st339{fill:#494949;}
	.st340{fill:#E9868C;}
	.st341{fill:#553F29;}
	.st342{fill:#242524;}
	.st343{fill:#3C2518;}
	.st344{fill:#FBD9B9;}
	.st345{fill:#F0F0F0;}
	.st346{fill:#494A49;}
	.st347{fill:#242122;}
	.st348{fill:#3A3B3B;}
	.st349{fill:#494848;}
	.st350{fill:#E8EAE8;}
	.st351{fill:#F2F1F1;}
	.st352{fill:#E97F86;}
	.st353{fill:#282828;}
	.st354{fill:#FEDB41;}
	.st355{fill:#FFCC33;}
	.st356{fill:#FEA832;}
	.st357{fill:#FE9923;}
	.st358{fill:#757575;}
	.st359{fill:#4F4F4F;}
</style>
<g id="Layer_1">
	<g>
		<g>
			<g>
				<polyline class="st345" points="485.6,258.3 228.6,251.3 242.6,406.3 502.6,406.3 				"/>
				<path class="st346" d="M330.3,245.3c-0.9,3.7-4.8,4.9-6.7,7.8c15.6,0.7,31.2,1.5,46.8,2.1c37.1,1.4,74.2,2.8,111.2,4
					c2.9,0.1,3.9,0.8,4.2,3.9c0.9,9.8,2.2,19.5,3.3,29.2c3.7,33,7.4,66.1,11.1,99.1c1.5,4-1.1,3.9-3.8,3.9
					c-82.1,0-164.3,0-246.4,0.1c-3.5,0-4.4-1.1-4.6-4.5c-1.4-21.1-3-42.2-4.5-63.3c-1.4-20.1-2.7-40.2-4-60.3
					c-0.2-3.2-0.5-6.3-0.7-9.5c0-0.2-0.1-0.4,0-0.6c-2.4,0.1-4.6,0.6-6.5,2c0,2.3,0,4.7,0.1,7c1.3,19.7,2.5,39.4,3.9,59.1
					c0.7,10.1,1.6,20.2,2.2,30.3c1,17.5,2.6,35.1,3.7,52.6c0.4,7,0.2,7,7.2,7c84.5,0,169,0,253.5,0c2.1,0,4.4-0.6,6.3,0.8
					c3.1-0.9,2.2-3.4,2-5.3c-2.1-20-4.3-40-6.4-60c-2.8-26.6-5.7-53.2-8.5-79.9c-0.5-4.8-1.2-9.6-1.5-14.4c-0.2-3.3-1.7-4-4.7-4.1
					c-20.6-0.6-41.2-1.3-61.9-2.1c-30.1-1.1-60.2-2.2-90.3-3.4C333.5,246.8,331.4,247.3,330.3,245.3z"/>
				<path class="st348" d="M228.5,350.3c1.3,18.7,2.7,37.5,4,56.2c0.2,3,0.1,6,0.1,8.9c0,2.2,0.4,4,3.2,3.9
					c16.2,0.1,32.3,0.2,48.5,0.2c13.8,0,27.7,0.1,41.5,0c3,0,4.4,0.4,3,3.9c-2.1,5.3-3.7,10.7-5.5,16c-1,3.3-1.9,6.7-3.1,10
					c-1.1,2.9-0.1,4,2.9,3.8c3.2-0.1,6.3,0,9.5,0c29.1,0,58.3,0,87.4,0.1c1,0,2,0,3,0c2.3,0.1,4.4,0.2,4.3-3.2
					c-0.1-3.1-2.2-2.8-4.2-2.8c-9.8,0-19.6-0.1-29.5-0.1c-18.5,0-36.9,0-55.4,0c-10.5,0-10.3,0.1-7.8-10.2c1-4.4,3-6,7.5-5.9
					c18.9,0.2,37.9,0.1,56.9,0.1c0.2-0.6,0.5-1.3,0.6-1.9c1.6-9.8,1.6-9.8,11.4-9.8c28.7,0,57.5-0.1,86.2,0.1c5,0,9.5-0.9,13.7-3.6
					c-2-1.3-4.2-0.8-6.3-0.8c-84.5,0-169,0-253.5,0c-7,0-6.7,0-7.2-7c-1.1-17.5-2.7-35.1-3.7-52.6c-0.6-10.1-1.4-20.2-2.2-30.3
					c-1.4-19.7-2.7-39.4-3.9-59.1c-0.2-2.3-0.1-4.7-0.1-7c-7.6-0.2-8.1-0.1-6.8,6.7c1.3,7.1,0.7,14.2,1.6,21.3
					c1.4,12.2,1.5,24.5,2.3,36.7C227.2,332.8,227.9,341.6,228.5,350.3z"/>
				<path class="st349" d="M394.7,431.3c-19,0-37.9,0.1-56.9-0.1c-4.5,0-6.4,1.5-7.5,5.9c-2.4,10.2-2.7,10.2,7.8,10.2
					c18.5,0,36.9,0,55.4,0c0.1-2.7-0.3-5.5,0.9-8.1C394.5,436.6,394.6,434,394.7,431.3z"/>
				<path class="st348" d="M205.6,364.2c0.3,0,0.7,0,1,0C206.3,364.2,205.9,364.2,205.6,364.2z"/>
				<g>
					<path class="st349" d="M162.2,257c-2.9,6.1-9.1,9.4-12.9,14.8c7.9-1.5,15-5.4,22.6-7.8c0.6-0.2,1.2-0.7,1.8-0.8
						c10.4-1.5,16.1-6.6,13.6-18c-0.6-2.6,1.1-3.9,3.6-4.4c3.4-0.7,6.8-1.9,10.2-2.4c3.9-0.5,5.6-2.7,5.7-6.2
						c0.3-7.8,2.8-15.4,2.4-23.3c-14.1,14.6-28.2,29.3-42.3,43.9C165.5,254.4,164.5,256.5,162.2,257z"/>
					<path class="st352" d="M158.9,192.8c12.8,0,24.4-9,27.5-21.3c0.7-2.7,0-4-2.5-4.9c-15.8-5.4-32.1-6.7-48.7-5.6
						c-2.5,0.2-3.8,1.4-3.8,4.2C131.3,179.6,144.4,192.8,158.9,192.8z"/>
					<g>
						<path class="st342" d="M150.1,306.1c0.1-2.9-1.6-4.9-4.5-4.9c-3.1-0.1-5.1,1.9-5.1,5c0,2.9,1.9,4.4,4.8,4.7
							C148.2,310.5,150.1,309,150.1,306.1z M142.4,284c0.2,2.8,1.8,4.8,4.8,4.6c2.8-0.2,4.4-2,4.2-5.1c-0.2-3-1.8-4.5-4.8-4.6
							C143.6,279.3,142.1,281,142.4,284z M18.3,184.6c1.3-0.3,2-1.2,1.7-2.6c-0.3-1.3-1.2-2-2.5-1.6c-1.2,0.4-2.1,1-1.8,2.5
							C16.1,184.2,16.9,184.9,18.3,184.6z M244.5,252.4c0,1.1,0.5,1.9,1.7,2c1.4,0.1,2-1,2-2.2c0.1-1-0.3-1.9-1.6-2
							C245.3,250.3,244.5,251.1,244.5,252.4z M19.5,196.8c-0.1,1.1,0.5,1.8,1.7,1.9c1.1,0.1,1.8-0.5,1.9-1.7
							c0.1-1.1-0.5-1.8-1.7-1.9C20.3,195.1,19.6,195.6,19.5,196.8z M19.3,191.5c1.2,0.2,1.8-0.5,1.8-1.7c0-1.2-0.7-1.8-1.8-1.8
							c-0.9,0-1.5,0.5-1.7,1.5C17.7,190.6,18.2,191.4,19.3,191.5z M255.1,252c0-1.1-0.5-1.9-1.7-1.9c-1.1,0-1.9,0.5-1.8,1.7
							c0.1,1.1,0.9,1.7,2,1.8C254.6,253.5,255.1,252.9,255.1,252z M103.4,197.7c-1.1,8.5-2.1,17.1-3.5,25.6
							c-0.5,3.1,0.3,4.2,3.2,4.8c3.2,0.7,6.3,2.2,9.5,3c3,0.7,3.5,2.2,2.8,5c-1.3,5-2.2,10.1-3.3,15.1c-0.4,1.7-1.1,3.5,0.9,4.4
							c11.1,5.2,21.7,11.5,33.4,15.4l0,0c0.3,0.3,0.7,0.7,1,1c0.7,0.8,1.4,0.8,2,0c7.9-1.5,15-5.4,22.6-7.8c0.6-0.2,1.2-0.7,1.8-0.8
							c10.4-1.5,16.1-6.6,13.6-18c-0.6-2.6,1.1-3.9,3.6-4.4c3.4-0.7,6.8-1.9,10.2-2.4c3.9-0.5,5.6-2.7,5.7-6.2
							c0.3-7.8,2.8-15.4,2.4-23.3c0.1-0.3,0.3-0.6,0.4-0.9c0.7,0.3,1.4,0.4,2-0.2c0.5,0.2,1,0.4,1.4,0.5c16,1.9,32,3.9,48,5.8
							c1.6,0.2,3.3,0.4,4.9,0.6c17.2,1.6,34.2,4.6,50.3,11.1c5.2,2.1,10.3,4.6,14.2,8.9c3.1,3.5,4.2,7.1,0.5,11
							c-0.9,3.7-4.8,4.9-6.7,7.8c-1.6,0.2-3.2,0.4-4.8,0.6c-3-1-5.8,0.1-8.7,0.6c-21.8,3.1-43.6,3.7-65.6,2.9c-0.3,0-1.4-0.7-3-0.8
							c-2-0.2-3.9,0.3-5.4,1c0.5-3.3,0.8-7.4,0.5-12.1c-0.4-6.2-1.7-11.3-2.9-15.1c10.6-2,24.7-3.5,41.2-1.4
							c7.2,0.9,13.7,2.3,19.3,3.9c-1.1-0.1-2.2-0.2-3.2-0.2c-16.4,0.3-32.8-0.7-49.1-2.1c-1.3-0.1-2.5-0.4-3.6,0.1
							c-0.3,0.1-1,0.6-1.5,1.5c-0.7,1.5-0.2,3.5-0.2,3.5l0,0c0,0-3,0.2-8.8,0.5c-7.2,3-9.6,6.5-8.7,12.6c0.8,5.5,3.6,7.8,9.1,7.9
							c2.8,0,5.6,0,8.5-0.1c-0.2,0.3-0.3,0.7-0.5,1c-2.4,0.1-4.6,0.6-6.5,2c-7.6-0.2-8.1-0.1-6.8,6.7c1.3,7.1,0.7,14.2,1.6,21.3
							c1.4,12.2,1.5,24.5,2.3,36.7c0.5,8.8,1.2,17.5,1.9,26.3c-10.8-0.4-21.6-0.4-32.4-0.7c-13.6-0.3-27.3-1.2-40.6-2.8
							c-16.7-2-33.5-4.1-49.8-9.3c-7.5-2.4-15-5-22.5-7.3c0.7-25.4,1.3-50.8,2-77.1c-3.9,3.6-6.8,6.9-10.5,9.5
							c-10.2,7.1-20.3,6.7-29.8-1.2c-3.9-3.2-7.1-7.1-9.7-11.4c-13.5-22.2-19.5-46.8-23.7-72.1c7.3-1.8,14.5-3.5,21.8-5.3
							c1.6,1.9,1.6,4.3,2,6.6c2.2,10.2,4.8,20.4,8.1,30.3c3,8.7,6,17.4,12.1,24.4c5.5,6.4,11.7,6.7,16.9,0.3
							c7.8-9.6,13.9-20.2,14.4-33.2c0.1-2.1-0.8-4.8,1.7-6.3C94,196.6,99,195.7,103.4,197.7z"/>
						<path class="st343" d="M263.1,214.3c7.1-15.1,11.9-31.1,16.6-47c7.4-25.5,13.9-51.1,13.6-77.9c-0.1-7.4-1.1-14.6-4-21.5
							c-4-9.3-11.1-13.9-21.2-13.7c-3.3,0.1-4.8-0.3-5.4-4.2c-2.6-17.4-13.4-28.8-28.7-35.8c-26.6-12.3-53.7-12.9-81-2.1
							c-7,2.8-13.9,5.5-21,8c-12.1,4.2-22.7,1.1-31.7-7.6c-4-3.8-7.5-7.9-11.8-12.5c-2.7,10.2-2.9,20.2-1.9,30.2
							c2.2,22.4,12.9,39.9,30.7,53.3c12,7.3,24.8,12.6,38.6,15.6c23.3,5.1,46.9,5.3,70.6,3.5c4.2-0.3,4.9,1,5,4.7
							c0.2,9.4,0.9,18.9,1.4,28.5c11.8-6.3,13.4-6.7,16.1-4.2c2.8,2.6,4.1,11.4,2,15.7c-3.2,6.5-9,4.7-14.8,4
							c2.8,11.5,6.2,22.4,10.4,33C251,194.9,255.2,205.6,263.1,214.3z"/>
						<path class="st344" d="M261.1,216.3c-16-1.9-32-3.9-48-5.8c-0.5-0.2-1-0.4-1.4-0.5c-0.6,0.6-1.3,0.4-2,0.2
							c-15.2-2.4-30.6-2.8-45.9-4.4c-12-1.2-24-2.4-35.8-4.3c-7-1.1-14.2-0.2-21-2.3c-1-0.3-2,0.1-2.7,0.8c-0.3-0.1-0.6-0.2-0.8-0.2
							c-4.5-2-9.4-1.1-14-2.3c1.1-13.7,1.7-27.4,3.6-41.1c2.6-19.2,7.4-37.6,15.3-55.3c2.7-6,6-11.7,9.1-17.6
							c12,7.3,24.8,12.6,38.6,15.6c23.3,5.1,46.9,5.3,70.6,3.5c4.2-0.3,4.9,1,5,4.7c0.2,9.4,0.9,18.9,1.4,28.5
							c11.8-6.3,13.4-6.7,16.1-4.2c2.8,2.6,4.1,11.4,2,15.7c-3.2,6.5-9,4.7-14.8,4c2.8,11.5,6.2,22.4,10.4,33
							c4.2,10.6,8.5,21.3,16.4,30C263,215.4,261.9,215.8,261.1,216.3z M186.4,171.5c0.7-2.7,0-4-2.5-4.9
							c-15.8-5.4-32.1-6.7-48.7-5.6c-2.5,0.2-3.8,1.4-3.8,4.2c-0.1,14.4,13,27.5,27.5,27.6C171.7,192.8,183.3,183.8,186.4,171.5z
							 M123.1,140.8c5,0.6,5.7-4.3,6.7-7.9c1-3.9,1.1-7.9-0.1-11.8c-0.7-2-1.9-3.6-4.2-3.8c-2-0.1-3.4,1.2-4.4,2.8
							c-2.1,3.5-2.7,7.5-2.8,12C118.8,135.3,118.1,140.2,123.1,140.8z M203.2,150.4c4.8,0.6,5.8-4.2,6.7-7.9c0.9-3.6,1-7.3,0.2-10.9
							c-0.5-2.3-1.6-4.5-4.4-4.7c-2.6-0.2-3.9,1.6-4.9,3.6c-1.7,3.3-2.2,6.9-2.3,11.1C198.7,144.9,198.4,149.8,203.2,150.4z"/>
						<path class="st347" d="M73.1,437.9c-5,10.4-2.3,14.4,9.4,13.7c8.7-0.6,17-2.8,25.4-5c3.7-1,5.2-2.5,3.7-6.2
							c-0.3-0.7-0.1-1.6-0.1-2.5c-1.2-6.4-2.2-12.8-3.7-19.1c-5-21.1-6.3-42.3-3.3-63.8c0.4-2.6,0.4-4.7,4-3.8
							c8.2,2.2,16.7,3.2,25,4.7c16.9,3,33.9,4.1,51,4.7c1.7-1,3.3-1,5,0.1c5,0,10,0,15,0.1c0.3,0,0.7,0,1,0c1.3,0,2.7,0.3,4,0.1
							c4.6-0.8,6.3,0.7,6.2,5.7c-0.5,16.9,2.3,33.3,6.2,49.7c1.8,7.6,3.2,15.2,4.9,23.7c-12-8.5-15.3-8.7-24.4-2
							c-0.2,0.3-0.3,0.6-0.5,0.8c-2.1,2.7-5.5,5.2-4,9c1.6,4,6,3.7,9.6,3.8c10,0.3,19.7-1.4,29.5-3.3c2.1-0.4,2.7-1.4,2.5-3.4
							c-0.3-2-0.4-3.9-0.6-5.9c-1-7-2.7-13.8-2.2-20.9c-2.8,0.1-3.2-1.7-3.2-3.9c0-3,0.1-6-0.1-8.9c-1.3-18.7-2.6-37.5-4-56.2
							c-10.8-0.4-21.6-0.4-32.4-0.7c-13.6-0.3-27.3-1.2-40.6-2.8c-16.7-2-33.5-4.1-49.8-9.3c-7.5-2.4-15-5-22.5-7.3
							c0.6,7.1,1.1,14.2,2,21.3c0.5,3.8,0,7.6,0.1,11.4c0.1,22.3,5.8,43.7,10.8,65.2c0.4,1.8,0.8,3.6,1.2,5.3
							c0.1,0.3-0.2,0.6-0.3,1.3C88.9,431.1,80,429.8,73.1,437.9z"/>
						<path class="st344" d="M32.9,169.1c1.1-3.3,1.7-6.8,1.4-10.3c-0.3-3.4-1.9-4.9-4.7-2.1c-2.7,2.8-4.5,1.7-6.7-0.4
							c-2.4-2.4-5.3-3.9-8.4-5.2c-5.1-2.2-10.7-1-13,2.8c-2.8,4.7-1.8,9.7,3.1,13.6c2.9,2.3,5.8,4.4,8.8,6.5
							C20.2,173.8,27,173.4,32.9,169.1z"/>
						<path class="st350" d="M32.9,169.1c-5.8,4.3-12.6,4.7-19.5,4.8c-0.4,1.5-0.7,3.1-1.1,4.6c7.3-1.8,14.5-3.5,21.8-5.3
							C33.7,171.9,33.3,170.5,32.9,169.1z"/>
						<path class="st351" d="M209.7,208.1c-15.2-2.4-30.6-2.8-45.9-4.4c-12-1.2-24-2.4-35.8-4.3c-7-1.1-14.2-0.2-21-2.3
							c-1-0.3-2,0.1-2.7,0.8c6.8,11.6,13.5,23.2,20.4,34.7c3.8,6.4,7,13.1,11.7,18.9c2-6.5,3.7-13.1,6.1-19.4
							c1.9-5.1,2-9.5-1.8-13.7c-0.9-1-2.4-2.3-1-3.9c2.9-3.4,4.9-8.1,10.9-6.6c2.1,0.5,4.3,0.5,6.4,0.6c5.5,0.3,4.1,5.7,6.2,8.4
							c1.7,2.3,0,3.7-1.7,4.9c-3.2,2.3-3.9,5.2-3.2,9c1.5,8.7,2.6,17.4,3.9,26.1c2.3-0.6,3.3-2.6,4.8-4.1
							c14.1-14.6,28.2-29.3,42.3-43.9C209.5,208.7,209.6,208.4,209.7,208.1z"/>
						<path class="st347" d="M162.2,257c-1.3-8.7-2.4-17.4-3.9-26.1c-0.7-3.8,0-6.7,3.2-9c1.6-1.2,3.4-2.6,1.7-4.9
							c-2.1-2.8-0.7-8.1-6.2-8.4c-2.2-0.1-4.4-0.1-6.4-0.6c-6-1.5-8.1,3.2-10.9,6.6c-1.3,1.6,0.1,2.9,1,3.9
							c3.8,4.2,3.7,8.6,1.8,13.7c-2.4,6.3-4.1,12.9-6.1,19.4c0.4,1.1,0.6,2.1,1.1,3.2c2.5,5.6,7.2,10.1,8.8,16.2c0,0,0,0,0,0
							c0.3,0.3,0.7,0.7,1,1c0.7,0.8,1.4,0.8,2,0C153.1,266.5,159.3,263.2,162.2,257z"/>
						<path class="st349" d="M146.3,270.9c-1.6-6.1-6.3-10.6-8.8-16.2c-0.4-1-0.7-2.1-1.1-3.2c-4.7-5.8-7.9-12.6-11.7-18.9
							c-6.9-11.5-13.6-23.1-20.4-34.7c-0.3-0.1-0.6-0.2-0.8-0.2c-1.1,8.5-2.1,17.1-3.5,25.6c-0.5,3.1,0.3,4.2,3.2,4.8
							c3.2,0.7,6.3,2.2,9.5,3c3,0.7,3.5,2.2,2.8,5c-1.3,5-2.2,10.1-3.3,15.1c-0.4,1.7-1.1,3.5,0.9,4.4
							C124,260.7,134.6,267,146.3,270.9z"/>
						<path class="st344" d="M228.4,236.4c-7.2,3-9.6,6.5-8.7,12.6c0.8,5.5,3.6,7.8,9.1,7.9c2.8,0,5.6,0,8.5-0.1c0-0.7,0-1.5,0-2.2
							c0-6.2,0-12.5-0.1-18.7C234.3,236.1,231.4,236.3,228.4,236.4z"/>
						<path class="st349" d="M145.3,310.8c2.9-0.3,4.7-1.9,4.8-4.8c0.1-2.9-1.6-4.9-4.5-4.9c-3.1-0.1-5.1,1.9-5.1,5
							C140.5,309,142.4,310.6,145.3,310.8z"/>
						<path class="st349" d="M146.5,278.9c-2.9,0.4-4.4,2.1-4.1,5c0.2,2.8,1.8,4.8,4.8,4.6c2.8-0.2,4.4-2,4.2-5.1
							C151.1,280.5,149.6,279,146.5,278.9z"/>
						<path class="st348" d="M15.6,183c0.5,1.3,1.3,2,2.7,1.6c1.3-0.3,2-1.2,1.7-2.6c-0.3-1.3-1.2-2-2.5-1.6
							C16.3,180.9,15.4,181.5,15.6,183z"/>
						<path class="st349" d="M147.3,271.9c-0.3-0.3-0.7-0.7-1-1C146.6,271.2,147,271.6,147.3,271.9z"/>
						<path class="st351" d="M213.1,208.4c-0.5-0.2-1-0.4-1.4-0.5C212.2,208.1,212.7,208.3,213.1,208.4z"/>
						<path class="st343" d="M118.2,132.1c0.5,3.2-0.1,8.1,4.9,8.7c5,0.6,5.7-4.3,6.7-7.9c1-3.9,1.1-7.9-0.1-11.8
							c-0.7-2-1.9-3.6-4.2-3.8c-2-0.1-3.4,1.2-4.4,2.8C118.9,123.6,118.4,127.6,118.2,132.1z"/>
						<path class="st343" d="M198.3,141.5c0.4,3.3,0,8.2,4.8,8.8c4.8,0.6,5.8-4.2,6.7-7.9c0.9-3.6,1-7.3,0.2-10.9
							c-0.5-2.3-1.6-4.5-4.4-4.7c-2.6-0.2-3.9,1.6-4.9,3.6C199,133.8,198.4,137.4,198.3,141.5z"/>
					</g>
				</g>
				<polygon class="st287" points="488.2,346.3 249.4,346.3 246.8,308.2 485.6,308.2 				"/>
				<g>
					<path class="st287" d="M275.8,314l0.4,5.2l-12,0l0.5,6.8l9.2,0l0.3,5l-9.2,0l0.5,6.9l12,0l0.4,5.2l-18.8-0.1l-2-29.1L275.8,314
						z"/>
					<path class="st287" d="M294.1,331.5c0.3,0.5,0.6,1.1,0.8,1.7c0.2-0.6,0.4-1.2,0.6-1.7c0.2-0.6,0.4-1.1,0.7-1.6l6.5-14.7
						c0.1-0.3,0.2-0.4,0.4-0.6c0.1-0.1,0.3-0.2,0.4-0.3c0.2-0.1,0.4-0.1,0.6-0.1c0.2,0,0.5,0,0.8,0l5.2,0l2,29.1l-6,0l-1.1-16.8
						c-0.1-0.8-0.1-1.7-0.1-2.6l-6.7,14.9c-0.2,0.5-0.5,0.8-0.9,1.1c-0.4,0.2-0.8,0.4-1.4,0.4l-0.9,0c-0.5,0-1-0.1-1.4-0.4
						c-0.4-0.2-0.8-0.6-1-1.1l-8.8-15c0.1,0.5,0.2,0.9,0.2,1.4c0.1,0.5,0.1,0.9,0.1,1.3l1.1,16.8l-6,0l-2-29.1l5.2,0
						c0.3,0,0.6,0,0.8,0c0.2,0,0.4,0,0.6,0.1c0.2,0.1,0.3,0.2,0.5,0.3c0.1,0.1,0.3,0.3,0.4,0.6l8.5,14.8
						C293.5,330.4,293.8,330.9,294.1,331.5z"/>
					<path class="st287" d="M320.5,333.6l0.7,9.7l-6.8,0l-2-29.1l10.3,0c2.1,0,3.8,0.3,5.3,0.7c1.5,0.5,2.8,1.2,3.8,2
						c1,0.9,1.8,1.9,2.3,3c0.5,1.2,0.8,2.4,0.9,3.8c0.1,1.5,0,2.8-0.4,4c-0.4,1.2-1,2.2-1.9,3.1c-0.9,0.9-2.1,1.5-3.5,2
						c-1.4,0.5-3.2,0.7-5.2,0.7L320.5,333.6z M320.2,328.5l3.5,0c1.8,0,3-0.4,3.7-1.2c0.7-0.8,1-2,0.9-3.5c0-0.7-0.2-1.3-0.4-1.8
						c-0.2-0.5-0.6-1-1-1.4c-0.4-0.4-1-0.7-1.6-0.9c-0.6-0.2-1.4-0.3-2.2-0.3l-3.5,0L320.2,328.5z"/>
					<path class="st287" d="M354.3,314.3l0.4,5.2l-12,0l0.5,6.8l9.2,0l0.3,5l-9.2,0l0.5,6.9l12,0l0.4,5.2l-18.8-0.1l-2-29.1
						L354.3,314.3z"/>
					<path class="st287" d="M376.8,336c0.2,0,0.3,0,0.5,0.1c0.2,0.1,0.3,0.2,0.5,0.3l2.9,2.8c-1.1,1.5-2.5,2.7-4.2,3.5
						c-1.7,0.8-3.8,1.2-6.2,1.1c-2.2,0-4.2-0.4-6-1.2c-1.8-0.8-3.4-1.8-4.7-3.1c-1.3-1.3-2.4-2.9-3.1-4.7c-0.8-1.8-1.2-3.8-1.4-5.9
						c-0.1-2.2,0.1-4.2,0.7-6c0.6-1.8,1.6-3.4,2.8-4.7c1.3-1.3,2.8-2.3,4.6-3.1c1.8-0.7,3.9-1.1,6.1-1.1c1.1,0,2.1,0.1,3.1,0.3
						s1.9,0.5,2.8,0.8c0.9,0.3,1.7,0.8,2.4,1.2c0.7,0.5,1.4,1,2,1.6l-2.1,3.1c-0.1,0.2-0.3,0.4-0.5,0.5c-0.2,0.2-0.5,0.2-0.8,0.2
						c-0.2,0-0.5-0.1-0.7-0.2c-0.2-0.1-0.5-0.2-0.7-0.4c-0.3-0.2-0.5-0.3-0.8-0.5c-0.3-0.2-0.7-0.3-1.1-0.5
						c-0.4-0.2-0.9-0.3-1.4-0.4c-0.5-0.1-1.2-0.2-1.9-0.2c-1.2,0-2.3,0.2-3.3,0.6c-1,0.4-1.8,1-2.5,1.8c-0.7,0.8-1.2,1.8-1.5,2.9
						c-0.3,1.1-0.4,2.4-0.4,3.9c0.1,1.5,0.4,2.8,0.9,4c0.5,1.2,1.1,2.1,1.9,2.9c0.8,0.8,1.6,1.4,2.6,1.8c1,0.4,2,0.6,3,0.6
						c0.6,0,1.2,0,1.7-0.1c0.5-0.1,1-0.2,1.4-0.3c0.4-0.1,0.8-0.3,1.2-0.6c0.4-0.2,0.8-0.5,1.1-0.9c0.2-0.1,0.3-0.2,0.5-0.3
						C376.4,336,376.6,336,376.8,336z"/>
					<path class="st287" d="M398.4,314.5l0.4,5.2l-12,0l0.5,6.8l9.2,0l0.3,5l-9.2,0l0.5,6.9l12,0l0.4,5.2l-18.8-0.1l-2-29.1
						L398.4,314.5z"/>
					<path class="st287" d="M416.7,331.9c0.3,0.5,0.6,1.1,0.8,1.7c0.2-0.6,0.4-1.2,0.6-1.7c0.2-0.6,0.4-1.1,0.7-1.6l6.5-14.7
						c0.1-0.3,0.2-0.4,0.4-0.6c0.1-0.1,0.3-0.2,0.4-0.3c0.2-0.1,0.4-0.1,0.6-0.1s0.5,0,0.8,0l5.2,0l2,29.1l-6,0l-1.1-16.8
						c-0.1-0.8-0.1-1.7-0.1-2.6l-6.7,14.9c-0.2,0.5-0.5,0.8-0.9,1.1c-0.4,0.2-0.8,0.4-1.4,0.4l-0.9,0c-0.5,0-1-0.1-1.4-0.4
						c-0.4-0.2-0.8-0.6-1-1.1l-8.8-15c0.1,0.5,0.2,0.9,0.2,1.4c0.1,0.5,0.1,0.9,0.1,1.3l1.1,16.8l-6,0l-2-29.1l5.2,0
						c0.3,0,0.6,0,0.8,0c0.2,0,0.4,0,0.6,0.1c0.2,0.1,0.3,0.2,0.5,0.3c0.1,0.1,0.3,0.3,0.4,0.6l8.5,14.8
						C416.2,330.9,416.4,331.4,416.7,331.9z"/>
					<path class="st287" d="M464.8,329.3c0.1,2.1-0.1,4.1-0.7,5.9c-0.6,1.8-1.5,3.4-2.8,4.7c-1.2,1.3-2.8,2.4-4.6,3.1
						c-1.8,0.8-3.8,1.1-6.1,1.1c-2.3,0-4.4-0.4-6.3-1.2c-1.9-0.8-3.6-1.8-5-3.2c-1.4-1.3-2.6-2.9-3.4-4.7c-0.8-1.8-1.3-3.8-1.5-5.9
						c-0.1-2.1,0.1-4.1,0.7-5.9c0.6-1.8,1.5-3.4,2.8-4.7c1.2-1.3,2.8-2.4,4.6-3.1c1.8-0.8,3.9-1.1,6.1-1.1c2.3,0,4.4,0.4,6.3,1.2
						c1.9,0.8,3.6,1.8,5,3.2c1.4,1.3,2.5,2.9,3.4,4.7C464.2,325.2,464.7,327.2,464.8,329.3z M457.9,329.3c-0.1-1.4-0.4-2.7-0.8-3.9
						c-0.5-1.2-1.1-2.1-1.8-2.9c-0.8-0.8-1.7-1.4-2.7-1.8c-1-0.4-2.2-0.6-3.5-0.7c-1.3,0-2.5,0.2-3.4,0.6c-1,0.4-1.8,1-2.5,1.8
						c-0.6,0.8-1.1,1.8-1.4,2.9c-0.3,1.2-0.4,2.4-0.3,3.9c0.1,1.5,0.4,2.8,0.8,3.9c0.5,1.2,1.1,2.1,1.8,2.9c0.8,0.8,1.7,1.4,2.7,1.8
						s2.2,0.6,3.5,0.6c1.3,0,2.4-0.2,3.4-0.6c1-0.4,1.8-1,2.4-1.8c0.6-0.8,1.1-1.8,1.4-2.9C457.9,332,458,330.7,457.9,329.3z"/>
					<path class="st287" d="M481.3,320.7c-0.2,0.3-0.4,0.6-0.6,0.7c-0.2,0.2-0.5,0.2-0.8,0.2c-0.3,0-0.6-0.1-1-0.3
						c-0.4-0.2-0.8-0.4-1.2-0.7c-0.5-0.2-1-0.5-1.6-0.7c-0.6-0.2-1.2-0.3-2-0.3c-1.3,0-2.2,0.3-2.8,0.8s-0.8,1.3-0.8,2.2
						c0,0.6,0.3,1.1,0.7,1.5c0.4,0.4,0.9,0.7,1.5,1c0.6,0.3,1.3,0.5,2.1,0.8c0.8,0.2,1.6,0.5,2.4,0.8c0.8,0.3,1.7,0.6,2.5,1
						c0.8,0.4,1.5,0.9,2.2,1.5c0.6,0.6,1.2,1.3,1.6,2.2c0.4,0.9,0.7,1.9,0.8,3.1c0.1,1.3-0.1,2.6-0.4,3.8c-0.4,1.2-1,2.2-1.8,3.1
						c-0.8,0.9-1.9,1.6-3.1,2c-1.3,0.5-2.7,0.7-4.4,0.7c-0.9,0-1.8-0.1-2.8-0.3c-1-0.2-1.9-0.5-2.8-0.8c-0.9-0.3-1.8-0.7-2.6-1.2
						c-0.8-0.5-1.5-1-2.1-1.6l1.8-3.2c0.1-0.2,0.3-0.4,0.6-0.6c0.3-0.1,0.5-0.2,0.8-0.2c0.4,0,0.8,0.1,1.2,0.4
						c0.4,0.3,0.9,0.5,1.4,0.8c0.5,0.3,1.1,0.6,1.8,0.8c0.7,0.3,1.5,0.4,2.4,0.4c1.2,0,2.2-0.3,2.8-0.8c0.6-0.5,0.9-1.4,0.8-2.6
						c0-0.7-0.3-1.2-0.7-1.7c-0.4-0.4-0.9-0.8-1.5-1.1c-0.6-0.3-1.3-0.5-2.1-0.7s-1.6-0.5-2.4-0.7c-0.8-0.3-1.6-0.6-2.4-1
						c-0.8-0.4-1.5-0.9-2.2-1.5c-0.6-0.6-1.2-1.4-1.6-2.3c-0.4-0.9-0.7-2.1-0.8-3.4c-0.1-1.1,0.1-2.2,0.4-3.2c0.4-1,1-2,1.8-2.8
						c0.8-0.8,1.8-1.5,3-1.9c1.2-0.5,2.6-0.7,4.2-0.7c0.9,0,1.8,0.1,2.6,0.2s1.7,0.4,2.5,0.6c0.8,0.3,1.5,0.6,2.2,1
						c0.7,0.4,1.3,0.8,1.9,1.3L481.3,320.7z"/>
				</g>
				<g>
					<path class="st353" d="M274.8,312l0.4,5.2l-12,0l0.5,6.8l9.2,0l0.3,5l-9.2,0l0.5,6.9l12,0l0.4,5.2l-18.8-0.1l-2-29.1L274.8,312
						z"/>
					<path class="st353" d="M293.1,329.5c0.3,0.5,0.6,1.1,0.8,1.7c0.2-0.6,0.4-1.2,0.6-1.7c0.2-0.6,0.4-1.1,0.7-1.6l6.5-14.7
						c0.1-0.3,0.2-0.4,0.4-0.6c0.1-0.1,0.3-0.2,0.4-0.3c0.2-0.1,0.4-0.1,0.6-0.1c0.2,0,0.5,0,0.8,0l5.2,0l2,29.1l-6,0l-1.1-16.8
						c-0.1-0.8-0.1-1.7-0.1-2.6l-6.7,14.9c-0.2,0.5-0.5,0.8-0.9,1.1c-0.4,0.2-0.8,0.4-1.4,0.4l-0.9,0c-0.5,0-1-0.1-1.4-0.4
						c-0.4-0.2-0.8-0.6-1-1.1l-8.8-15c0.1,0.5,0.2,0.9,0.2,1.4c0.1,0.5,0.1,0.9,0.1,1.3l1.1,16.8l-6,0l-2-29.1l5.2,0
						c0.3,0,0.6,0,0.8,0c0.2,0,0.4,0,0.6,0.1c0.2,0.1,0.3,0.2,0.5,0.3c0.1,0.1,0.3,0.3,0.4,0.6l8.5,14.8
						C292.5,328.4,292.8,328.9,293.1,329.5z"/>
					<path class="st353" d="M319.5,331.6l0.7,9.7l-6.8,0l-2-29.1l10.3,0c2.1,0,3.8,0.3,5.3,0.7c1.5,0.5,2.8,1.2,3.8,2
						c1,0.9,1.8,1.9,2.3,3c0.5,1.2,0.8,2.4,0.9,3.8c0.1,1.5,0,2.8-0.4,4c-0.4,1.2-1,2.2-1.9,3.1c-0.9,0.9-2.1,1.5-3.5,2
						c-1.4,0.5-3.2,0.7-5.2,0.7L319.5,331.6z M319.2,326.5l3.5,0c1.8,0,3-0.4,3.7-1.2c0.7-0.8,1-2,0.9-3.5c0-0.7-0.2-1.3-0.4-1.8
						c-0.2-0.5-0.6-1-1-1.4c-0.4-0.4-1-0.7-1.6-0.9c-0.6-0.2-1.4-0.3-2.2-0.3l-3.5,0L319.2,326.5z"/>
					<path class="st353" d="M353.3,312.3l0.4,5.2l-12,0l0.5,6.8l9.2,0l0.3,5l-9.2,0l0.5,6.9l12,0l0.4,5.2l-18.8-0.1l-2-29.1
						L353.3,312.3z"/>
					<path class="st353" d="M375.8,334c0.2,0,0.3,0,0.5,0.1c0.2,0.1,0.3,0.2,0.5,0.3l2.9,2.8c-1.1,1.5-2.5,2.7-4.2,3.5
						c-1.7,0.8-3.8,1.2-6.2,1.1c-2.2,0-4.2-0.4-6-1.2c-1.8-0.8-3.4-1.8-4.7-3.1c-1.3-1.3-2.4-2.9-3.1-4.7c-0.8-1.8-1.2-3.8-1.4-5.9
						c-0.1-2.2,0.1-4.2,0.7-6c0.6-1.8,1.6-3.4,2.8-4.7c1.3-1.3,2.8-2.3,4.6-3.1c1.8-0.7,3.9-1.1,6.1-1.1c1.1,0,2.1,0.1,3.1,0.3
						s1.9,0.5,2.8,0.8c0.9,0.3,1.7,0.8,2.4,1.2c0.7,0.5,1.4,1,2,1.6l-2.1,3.1c-0.1,0.2-0.3,0.4-0.5,0.5c-0.2,0.2-0.5,0.2-0.8,0.2
						c-0.2,0-0.5-0.1-0.7-0.2c-0.2-0.1-0.5-0.2-0.7-0.4c-0.3-0.2-0.5-0.3-0.8-0.5c-0.3-0.2-0.7-0.3-1.1-0.5
						c-0.4-0.2-0.9-0.3-1.4-0.4c-0.5-0.1-1.2-0.2-1.9-0.2c-1.2,0-2.3,0.2-3.3,0.6c-1,0.4-1.8,1-2.5,1.8c-0.7,0.8-1.2,1.8-1.5,2.9
						c-0.3,1.1-0.4,2.4-0.4,3.9c0.1,1.5,0.4,2.8,0.9,4c0.5,1.2,1.1,2.1,1.9,2.9c0.8,0.8,1.6,1.4,2.6,1.8c1,0.4,2,0.6,3,0.6
						c0.6,0,1.2,0,1.7-0.1c0.5-0.1,1-0.2,1.4-0.3c0.4-0.1,0.8-0.3,1.2-0.6c0.4-0.2,0.8-0.5,1.1-0.9c0.2-0.1,0.3-0.2,0.5-0.3
						C375.4,334,375.6,334,375.8,334z"/>
					<path class="st353" d="M397.4,312.5l0.4,5.2l-12,0l0.5,6.8l9.2,0l0.3,5l-9.2,0l0.5,6.9l12,0l0.4,5.2l-18.8-0.1l-2-29.1
						L397.4,312.5z"/>
					<path class="st353" d="M415.7,329.9c0.3,0.5,0.6,1.1,0.8,1.7c0.2-0.6,0.4-1.2,0.6-1.7c0.2-0.6,0.4-1.1,0.7-1.6l6.5-14.7
						c0.1-0.3,0.2-0.4,0.4-0.6c0.1-0.1,0.3-0.2,0.4-0.3c0.2-0.1,0.4-0.1,0.6-0.1s0.5,0,0.8,0l5.2,0l2,29.1l-6,0l-1.1-16.8
						c-0.1-0.8-0.1-1.7-0.1-2.6l-6.7,14.9c-0.2,0.5-0.5,0.8-0.9,1.1c-0.4,0.2-0.8,0.4-1.4,0.4l-0.9,0c-0.5,0-1-0.1-1.4-0.4
						c-0.4-0.2-0.8-0.6-1-1.1l-8.8-15c0.1,0.5,0.2,0.9,0.2,1.4c0.1,0.5,0.1,0.9,0.1,1.3l1.1,16.8l-6,0l-2-29.1l5.2,0
						c0.3,0,0.6,0,0.8,0c0.2,0,0.4,0,0.6,0.1c0.2,0.1,0.3,0.2,0.5,0.3c0.1,0.1,0.3,0.3,0.4,0.6l8.5,14.8
						C415.2,328.9,415.4,329.4,415.7,329.9z"/>
					<path class="st353" d="M463.8,327.3c0.1,2.1-0.1,4.1-0.7,5.9c-0.6,1.8-1.5,3.4-2.8,4.7c-1.2,1.3-2.8,2.4-4.6,3.1
						c-1.8,0.8-3.8,1.1-6.1,1.1c-2.3,0-4.4-0.4-6.3-1.2c-1.9-0.8-3.6-1.8-5-3.2c-1.4-1.3-2.6-2.9-3.4-4.7c-0.8-1.8-1.3-3.8-1.5-5.9
						c-0.1-2.1,0.1-4.1,0.7-5.9c0.6-1.8,1.5-3.4,2.8-4.7c1.2-1.3,2.8-2.4,4.6-3.1c1.8-0.8,3.9-1.1,6.1-1.1c2.3,0,4.4,0.4,6.3,1.2
						c1.9,0.8,3.6,1.8,5,3.2c1.4,1.3,2.5,2.9,3.4,4.7C463.2,323.2,463.7,325.2,463.8,327.3z M456.9,327.3c-0.1-1.4-0.4-2.7-0.8-3.9
						c-0.5-1.2-1.1-2.1-1.8-2.9c-0.8-0.8-1.7-1.4-2.7-1.8c-1-0.4-2.2-0.6-3.5-0.7c-1.3,0-2.5,0.2-3.4,0.6c-1,0.4-1.8,1-2.5,1.8
						c-0.6,0.8-1.1,1.8-1.4,2.9c-0.3,1.2-0.4,2.4-0.3,3.9c0.1,1.5,0.4,2.8,0.8,3.9c0.5,1.2,1.1,2.1,1.8,2.9c0.8,0.8,1.7,1.4,2.7,1.8
						s2.2,0.6,3.5,0.6c1.3,0,2.4-0.2,3.4-0.6c1-0.4,1.8-1,2.4-1.8c0.6-0.8,1.1-1.8,1.4-2.9C456.9,330,457,328.7,456.9,327.3z"/>
					<path class="st353" d="M480.3,318.7c-0.2,0.3-0.4,0.6-0.6,0.7c-0.2,0.2-0.5,0.2-0.8,0.2c-0.3,0-0.6-0.1-1-0.3
						c-0.4-0.2-0.8-0.4-1.2-0.7c-0.5-0.2-1-0.5-1.6-0.7c-0.6-0.2-1.2-0.3-2-0.3c-1.3,0-2.2,0.3-2.8,0.8s-0.8,1.3-0.8,2.2
						c0,0.6,0.3,1.1,0.7,1.5c0.4,0.4,0.9,0.7,1.5,1c0.6,0.3,1.3,0.5,2.1,0.8c0.8,0.2,1.6,0.5,2.4,0.8c0.8,0.3,1.7,0.6,2.5,1
						c0.8,0.4,1.5,0.9,2.2,1.5c0.6,0.6,1.2,1.3,1.6,2.2c0.4,0.9,0.7,1.9,0.8,3.1c0.1,1.3-0.1,2.6-0.4,3.8c-0.4,1.2-1,2.2-1.8,3.1
						c-0.8,0.9-1.9,1.6-3.1,2c-1.3,0.5-2.7,0.7-4.4,0.7c-0.9,0-1.8-0.1-2.8-0.3c-1-0.2-1.9-0.5-2.8-0.8c-0.9-0.3-1.8-0.7-2.6-1.2
						c-0.8-0.5-1.5-1-2.1-1.6l1.8-3.2c0.1-0.2,0.3-0.4,0.6-0.6c0.3-0.1,0.5-0.2,0.8-0.2c0.4,0,0.8,0.1,1.2,0.4
						c0.4,0.3,0.9,0.5,1.4,0.8c0.5,0.3,1.1,0.6,1.8,0.8c0.7,0.3,1.5,0.4,2.4,0.4c1.2,0,2.2-0.3,2.8-0.8c0.6-0.5,0.9-1.4,0.8-2.6
						c0-0.7-0.3-1.2-0.7-1.7c-0.4-0.4-0.9-0.8-1.5-1.1c-0.6-0.3-1.3-0.5-2.1-0.7s-1.6-0.5-2.4-0.7c-0.8-0.3-1.6-0.6-2.4-1
						c-0.8-0.4-1.5-0.9-2.2-1.5c-0.6-0.6-1.2-1.4-1.6-2.3c-0.4-0.9-0.7-2.1-0.8-3.4c-0.1-1.1,0.1-2.2,0.4-3.2c0.4-1,1-2,1.8-2.8
						c0.8-0.8,1.8-1.5,3-1.9c1.2-0.5,2.6-0.7,4.2-0.7c0.9,0,1.8,0.1,2.6,0.2s1.7,0.4,2.5,0.6c0.8,0.3,1.5,0.6,2.2,1
						c0.7,0.4,1.3,0.8,1.9,1.3L480.3,318.7z"/>
				</g>
			</g>
		</g>
	</g>
</g>
<g id="Layer_2">
	<g>
		<path class="st354" d="M274.4,276c-5.5,0-10.1,4.5-10.1,10c0,5.5,4.6,10.1,10.1,10.1c5.5,0,10-4.6,10-10.1
			C284.5,280.5,280,276,274.4,276z"/>
		<path class="st355" d="M284.5,286.1c0,5.5-4.5,10.1-10,10.1V276C280,276,284.5,280.5,284.5,286.1z"/>
		<path class="st356" d="M274.4,278.4c-4.2,0-7.7,3.4-7.7,7.7s3.5,7.7,7.7,7.7s7.7-3.5,7.7-7.7S278.7,278.4,274.4,278.4z"/>
		<path class="st357" d="M282.1,286.1c0,4.2-3.4,7.7-7.7,7.7v-15.4C278.7,278.4,282.1,281.8,282.1,286.1z"/>
		<path class="st358" d="M275.6,285.5H275v-2.4h0.6c0.3,0,0.6,0.3,0.6,0.6c0,0.8,1.2,0.8,1.2,0c0-1-0.8-1.8-1.8-1.8H275v-0.6
			c0-0.4-0.3-0.6-0.6-0.6c-0.3,0-0.6,0.2-0.6,0.6v0.6h-0.7c-1,0-1.8,0.8-1.8,1.8v1.2c0,1,0.8,1.8,1.8,1.8h0.7v2.4h-0.7
			c-0.3,0-0.6-0.3-0.6-0.6c0-0.8-1.2-0.8-1.2,0c0,1,0.8,1.8,1.8,1.8h0.7v0.6c0,0.4,0.3,0.6,0.6,0.6c0.3,0,0.6-0.2,0.6-0.6v-0.6h0.6
			c1,0,1.8-0.8,1.8-1.8v-1.3C277.4,286.2,276.6,285.5,275.6,285.5z M273.9,285.5h-0.7c-0.3,0-0.6-0.3-0.6-0.6v-1.2
			c0-0.3,0.3-0.6,0.6-0.6h0.7V285.5z M275.6,289.1H275v-2.4h0.6c0.3,0,0.6,0.3,0.6,0.6v1.3C276.2,288.8,275.9,289.1,275.6,289.1z"/>
		<path class="st359" d="M275.6,285.5H275v-2.4h0.6c0.3,0,0.6,0.3,0.6,0.6c0,0.8,1.2,0.8,1.2,0c0-1-0.8-1.8-1.8-1.8H275v-0.6
			c0-0.4-0.3-0.6-0.6-0.6v10.7c0.3,0,0.6-0.2,0.6-0.6v-0.6h0.6c1,0,1.8-0.8,1.8-1.8v-1.3C277.4,286.2,276.6,285.5,275.6,285.5z
			 M275.6,289.1H275v-2.4h0.6c0.3,0,0.6,0.3,0.6,0.6v1.3C276.2,288.8,275.9,289.1,275.6,289.1z"/>
	</g>
	<g>
		<path class="st354" d="M346.6,276.8c-5.5,0-10.1,4.5-10.1,10s4.6,10.1,10.1,10.1s10-4.6,10-10.1S352.1,276.8,346.6,276.8z"/>
		<path class="st355" d="M356.6,286.8c0,5.5-4.5,10.1-10,10.1v-20.1C352.1,276.8,356.6,281.3,356.6,286.8z"/>
		<path class="st356" d="M346.6,279.1c-4.2,0-7.7,3.4-7.7,7.7s3.5,7.7,7.7,7.7s7.7-3.5,7.7-7.7S350.8,279.1,346.6,279.1z"/>
		<path class="st357" d="M354.2,286.8c0,4.2-3.4,7.7-7.7,7.7v-15.4C350.8,279.1,354.2,282.6,354.2,286.8z"/>
		<path class="st358" d="M347.8,286.2h-0.6v-2.4h0.6c0.3,0,0.6,0.3,0.6,0.6c0,0.8,1.2,0.8,1.2,0c0-1-0.8-1.8-1.8-1.8h-0.6v-0.6
			c0-0.4-0.3-0.6-0.6-0.6s-0.6,0.2-0.6,0.6v0.6h-0.7c-1,0-1.8,0.8-1.8,1.8v1.2c0,1,0.8,1.8,1.8,1.8h0.7v2.4h-0.7
			c-0.3,0-0.6-0.3-0.6-0.6c0-0.8-1.2-0.8-1.2,0c0,1,0.8,1.8,1.8,1.8h0.7v0.6c0,0.4,0.3,0.6,0.6,0.6s0.6-0.2,0.6-0.6V291h0.6
			c1,0,1.8-0.8,1.8-1.8v-1.3C349.5,287,348.7,286.2,347.8,286.2z M346,286.2h-0.7c-0.3,0-0.6-0.3-0.6-0.6v-1.2
			c0-0.3,0.3-0.6,0.6-0.6h0.7V286.2z M347.8,289.8h-0.6v-2.4h0.6c0.3,0,0.6,0.3,0.6,0.6v1.3C348.3,289.5,348.1,289.8,347.8,289.8z"
			/>
		<path class="st359" d="M347.8,286.2h-0.6v-2.4h0.6c0.3,0,0.6,0.3,0.6,0.6c0,0.8,1.2,0.8,1.2,0c0-1-0.8-1.8-1.8-1.8h-0.6v-0.6
			c0-0.4-0.3-0.6-0.6-0.6v10.7c0.3,0,0.6-0.2,0.6-0.6V291h0.6c1,0,1.8-0.8,1.8-1.8v-1.3C349.5,287,348.7,286.2,347.8,286.2z
			 M347.8,289.8h-0.6v-2.4h0.6c0.3,0,0.6,0.3,0.6,0.6v1.3C348.3,289.5,348.1,289.8,347.8,289.8z"/>
	</g>
	<g>
		<path class="st354" d="M424.4,264.8c-5.5,0-10.1,4.5-10.1,10s4.6,10.1,10.1,10.1s10-4.6,10-10.1S429.9,264.8,424.4,264.8z"/>
		<path class="st355" d="M434.4,274.8c0,5.5-4.5,10.1-10,10.1v-20.1C429.9,264.8,434.4,269.3,434.4,274.8z"/>
		<path class="st356" d="M424.4,267.1c-4.2,0-7.7,3.4-7.7,7.7s3.5,7.7,7.7,7.7s7.7-3.5,7.7-7.7S428.6,267.1,424.4,267.1z"/>
		<path class="st357" d="M432,274.8c0,4.2-3.4,7.7-7.7,7.7v-15.4C428.6,267.1,432,270.6,432,274.8z"/>
		<path class="st358" d="M425.6,274.2H425v-2.4h0.6c0.3,0,0.6,0.3,0.6,0.6c0,0.8,1.2,0.8,1.2,0c0-1-0.8-1.8-1.8-1.8H425v-0.6
			c0-0.4-0.3-0.6-0.6-0.6c-0.3,0-0.6,0.2-0.6,0.6v0.6h-0.7c-1,0-1.8,0.8-1.8,1.8v1.2c0,1,0.8,1.8,1.8,1.8h0.7v2.4h-0.7
			c-0.3,0-0.6-0.3-0.6-0.6c0-0.8-1.2-0.8-1.2,0c0,1,0.8,1.8,1.8,1.8h0.7v0.6c0,0.4,0.3,0.6,0.6,0.6c0.3,0,0.6-0.2,0.6-0.6V279h0.6
			c1,0,1.8-0.8,1.8-1.8V276C427.3,275,426.5,274.2,425.6,274.2z M423.8,274.2h-0.7c-0.3,0-0.6-0.3-0.6-0.6v-1.2
			c0-0.3,0.3-0.6,0.6-0.6h0.7V274.2z M425.6,277.8H425v-2.4h0.6c0.3,0,0.6,0.3,0.6,0.6v1.3C426.2,277.5,425.9,277.8,425.6,277.8z"/>
		<path class="st359" d="M425.6,274.2H425v-2.4h0.6c0.3,0,0.6,0.3,0.6,0.6c0,0.8,1.2,0.8,1.2,0c0-1-0.8-1.8-1.8-1.8H425v-0.6
			c0-0.4-0.3-0.6-0.6-0.6v10.7c0.3,0,0.6-0.2,0.6-0.6V279h0.6c1,0,1.8-0.8,1.8-1.8V276C427.3,275,426.5,274.2,425.6,274.2z
			 M425.6,277.8H425v-2.4h0.6c0.3,0,0.6,0.3,0.6,0.6v1.3C426.2,277.5,425.9,277.8,425.6,277.8z"/>
	</g>
	<g>
		<path class="st354" d="M465.4,280.8c-5.5,0-10.1,4.5-10.1,10s4.6,10.1,10.1,10.1s10-4.6,10-10.1S470.9,280.8,465.4,280.8z"/>
		<path class="st355" d="M475.4,290.8c0,5.5-4.5,10.1-10,10.1v-20.1C470.9,280.8,475.4,285.3,475.4,290.8z"/>
		<path class="st356" d="M465.4,283.1c-4.2,0-7.7,3.4-7.7,7.7s3.5,7.7,7.7,7.7s7.7-3.5,7.7-7.7S469.6,283.1,465.4,283.1z"/>
		<path class="st357" d="M473,290.8c0,4.2-3.4,7.7-7.7,7.7v-15.4C469.6,283.1,473,286.6,473,290.8z"/>
		<path class="st358" d="M466.6,290.2H466v-2.4h0.6c0.3,0,0.6,0.3,0.6,0.6c0,0.8,1.2,0.8,1.2,0c0-1-0.8-1.8-1.8-1.8H466v-0.6
			c0-0.4-0.3-0.6-0.6-0.6c-0.3,0-0.6,0.2-0.6,0.6v0.6h-0.7c-1,0-1.8,0.8-1.8,1.8v1.2c0,1,0.8,1.8,1.8,1.8h0.7v2.4h-0.7
			c-0.3,0-0.6-0.3-0.6-0.6c0-0.8-1.2-0.8-1.2,0c0,1,0.8,1.8,1.8,1.8h0.7v0.6c0,0.4,0.3,0.6,0.6,0.6c0.3,0,0.6-0.2,0.6-0.6V295h0.6
			c1,0,1.8-0.8,1.8-1.8V292C468.3,291,467.5,290.2,466.6,290.2z M464.8,290.2h-0.7c-0.3,0-0.6-0.3-0.6-0.6v-1.2
			c0-0.3,0.3-0.6,0.6-0.6h0.7V290.2z M466.6,293.8H466v-2.4h0.6c0.3,0,0.6,0.3,0.6,0.6v1.3C467.2,293.5,466.9,293.8,466.6,293.8z"/>
		<path class="st359" d="M466.6,290.2H466v-2.4h0.6c0.3,0,0.6,0.3,0.6,0.6c0,0.8,1.2,0.8,1.2,0c0-1-0.8-1.8-1.8-1.8H466v-0.6
			c0-0.4-0.3-0.6-0.6-0.6v10.7c0.3,0,0.6-0.2,0.6-0.6V295h0.6c1,0,1.8-0.8,1.8-1.8V292C468.3,291,467.5,290.2,466.6,290.2z
			 M466.6,293.8H466v-2.4h0.6c0.3,0,0.6,0.3,0.6,0.6v1.3C467.2,293.5,466.9,293.8,466.6,293.8z"/>
	</g>
	<g>
		<path class="st354" d="M264.4,363.8c-5.5,0-10.1,4.5-10.1,10s4.6,10.1,10.1,10.1s10-4.6,10-10.1S269.9,363.8,264.4,363.8z"/>
		<path class="st355" d="M274.4,373.8c0,5.5-4.5,10.1-10,10.1v-20.1C269.9,363.8,274.4,368.3,274.4,373.8z"/>
		<path class="st356" d="M264.4,366.1c-4.2,0-7.7,3.4-7.7,7.7s3.5,7.7,7.7,7.7s7.7-3.5,7.7-7.7S268.6,366.1,264.4,366.1z"/>
		<path class="st357" d="M272,373.8c0,4.2-3.4,7.7-7.7,7.7v-15.4C268.6,366.1,272,369.6,272,373.8z"/>
		<path class="st358" d="M265.6,373.2H265v-2.4h0.6c0.3,0,0.6,0.3,0.6,0.6c0,0.8,1.2,0.8,1.2,0c0-1-0.8-1.8-1.8-1.8H265v-0.6
			c0-0.4-0.3-0.6-0.6-0.6c-0.3,0-0.6,0.2-0.6,0.6v0.6h-0.7c-1,0-1.8,0.8-1.8,1.8v1.2c0,1,0.8,1.8,1.8,1.8h0.7v2.4h-0.7
			c-0.3,0-0.6-0.3-0.6-0.6c0-0.8-1.2-0.8-1.2,0c0,1,0.8,1.8,1.8,1.8h0.7v0.6c0,0.4,0.3,0.6,0.6,0.6c0.3,0,0.6-0.2,0.6-0.6V378h0.6
			c1,0,1.8-0.8,1.8-1.8V375C267.3,374,266.5,373.2,265.6,373.2z M263.8,373.2h-0.7c-0.3,0-0.6-0.3-0.6-0.6v-1.2
			c0-0.3,0.3-0.6,0.6-0.6h0.7V373.2z M265.6,376.8H265v-2.4h0.6c0.3,0,0.6,0.3,0.6,0.6v1.3C266.2,376.5,265.9,376.8,265.6,376.8z"/>
		<path class="st359" d="M265.6,373.2H265v-2.4h0.6c0.3,0,0.6,0.3,0.6,0.6c0,0.8,1.2,0.8,1.2,0c0-1-0.8-1.8-1.8-1.8H265v-0.6
			c0-0.4-0.3-0.6-0.6-0.6v10.7c0.3,0,0.6-0.2,0.6-0.6V378h0.6c1,0,1.8-0.8,1.8-1.8V375C267.3,374,266.5,373.2,265.6,373.2z
			 M265.6,376.8H265v-2.4h0.6c0.3,0,0.6,0.3,0.6,0.6v1.3C266.2,376.5,265.9,376.8,265.6,376.8z"/>
	</g>
	<g>
		<path class="st354" d="M326.4,366.8c-5.5,0-10.1,4.5-10.1,10s4.6,10.1,10.1,10.1s10-4.6,10-10.1S331.9,366.8,326.4,366.8z"/>
		<path class="st355" d="M336.4,376.8c0,5.5-4.5,10.1-10,10.1v-20.1C331.9,366.8,336.4,371.3,336.4,376.8z"/>
		<path class="st356" d="M326.4,369.1c-4.2,0-7.7,3.4-7.7,7.7s3.5,7.7,7.7,7.7s7.7-3.5,7.7-7.7S330.6,369.1,326.4,369.1z"/>
		<path class="st357" d="M334,376.8c0,4.2-3.4,7.7-7.7,7.7v-15.4C330.6,369.1,334,372.6,334,376.8z"/>
		<path class="st358" d="M327.6,376.2H327v-2.4h0.6c0.3,0,0.6,0.3,0.6,0.6c0,0.8,1.2,0.8,1.2,0c0-1-0.8-1.8-1.8-1.8H327v-0.6
			c0-0.4-0.3-0.6-0.6-0.6c-0.3,0-0.6,0.2-0.6,0.6v0.6h-0.7c-1,0-1.8,0.8-1.8,1.8v1.2c0,1,0.8,1.8,1.8,1.8h0.7v2.4h-0.7
			c-0.3,0-0.6-0.3-0.6-0.6c0-0.8-1.2-0.8-1.2,0c0,1,0.8,1.8,1.8,1.8h0.7v0.6c0,0.4,0.3,0.6,0.6,0.6c0.3,0,0.6-0.2,0.6-0.6V381h0.6
			c1,0,1.8-0.8,1.8-1.8V378C329.3,377,328.5,376.2,327.6,376.2z M325.8,376.2h-0.7c-0.3,0-0.6-0.3-0.6-0.6v-1.2
			c0-0.3,0.3-0.6,0.6-0.6h0.7V376.2z M327.6,379.8H327v-2.4h0.6c0.3,0,0.6,0.3,0.6,0.6v1.3C328.2,379.5,327.9,379.8,327.6,379.8z"/>
		<path class="st359" d="M327.6,376.2H327v-2.4h0.6c0.3,0,0.6,0.3,0.6,0.6c0,0.8,1.2,0.8,1.2,0c0-1-0.8-1.8-1.8-1.8H327v-0.6
			c0-0.4-0.3-0.6-0.6-0.6v10.7c0.3,0,0.6-0.2,0.6-0.6V381h0.6c1,0,1.8-0.8,1.8-1.8V378C329.3,377,328.5,376.2,327.6,376.2z
			 M327.6,379.8H327v-2.4h0.6c0.3,0,0.6,0.3,0.6,0.6v1.3C328.2,379.5,327.9,379.8,327.6,379.8z"/>
	</g>
	<g>
		<path class="st354" d="M397.4,351.8c-5.5,0-10.1,4.5-10.1,10s4.6,10.1,10.1,10.1s10-4.6,10-10.1S402.9,351.8,397.4,351.8z"/>
		<path class="st355" d="M407.4,361.8c0,5.5-4.5,10.1-10,10.1v-20.1C402.9,351.8,407.4,356.3,407.4,361.8z"/>
		<path class="st356" d="M397.4,354.1c-4.2,0-7.7,3.4-7.7,7.7s3.5,7.7,7.7,7.7s7.7-3.5,7.7-7.7S401.6,354.1,397.4,354.1z"/>
		<path class="st357" d="M405,361.8c0,4.2-3.4,7.7-7.7,7.7v-15.4C401.6,354.1,405,357.6,405,361.8z"/>
		<path class="st358" d="M398.6,361.2H398v-2.4h0.6c0.3,0,0.6,0.3,0.6,0.6c0,0.8,1.2,0.8,1.2,0c0-1-0.8-1.8-1.8-1.8H398v-0.6
			c0-0.4-0.3-0.6-0.6-0.6c-0.3,0-0.6,0.2-0.6,0.6v0.6h-0.7c-1,0-1.8,0.8-1.8,1.8v1.2c0,1,0.8,1.8,1.8,1.8h0.7v2.4h-0.7
			c-0.3,0-0.6-0.3-0.6-0.6c0-0.8-1.2-0.8-1.2,0c0,1,0.8,1.8,1.8,1.8h0.7v0.6c0,0.4,0.3,0.6,0.6,0.6c0.3,0,0.6-0.2,0.6-0.6V366h0.6
			c1,0,1.8-0.8,1.8-1.8V363C400.3,362,399.5,361.2,398.6,361.2z M396.8,361.2h-0.7c-0.3,0-0.6-0.3-0.6-0.6v-1.2
			c0-0.3,0.3-0.6,0.6-0.6h0.7V361.2z M398.6,364.8H398v-2.4h0.6c0.3,0,0.6,0.3,0.6,0.6v1.3C399.2,364.5,398.9,364.8,398.6,364.8z"/>
		<path class="st359" d="M398.6,361.2H398v-2.4h0.6c0.3,0,0.6,0.3,0.6,0.6c0,0.8,1.2,0.8,1.2,0c0-1-0.8-1.8-1.8-1.8H398v-0.6
			c0-0.4-0.3-0.6-0.6-0.6v10.7c0.3,0,0.6-0.2,0.6-0.6V366h0.6c1,0,1.8-0.8,1.8-1.8V363C400.3,362,399.5,361.2,398.6,361.2z
			 M398.6,364.8H398v-2.4h0.6c0.3,0,0.6,0.3,0.6,0.6v1.3C399.2,364.5,398.9,364.8,398.6,364.8z"/>
	</g>
	<g>
		<path class="st354" d="M455.4,367.8c-5.5,0-10.1,4.5-10.1,10s4.6,10.1,10.1,10.1s10-4.6,10-10.1S460.9,367.8,455.4,367.8z"/>
		<path class="st355" d="M465.4,377.8c0,5.5-4.5,10.1-10,10.1v-20.1C460.9,367.8,465.4,372.3,465.4,377.8z"/>
		<path class="st356" d="M455.4,370.1c-4.2,0-7.7,3.4-7.7,7.7s3.5,7.7,7.7,7.7s7.7-3.5,7.7-7.7S459.6,370.1,455.4,370.1z"/>
		<path class="st357" d="M463,377.8c0,4.2-3.4,7.7-7.7,7.7v-15.4C459.6,370.1,463,373.6,463,377.8z"/>
		<path class="st358" d="M456.6,377.2H456v-2.4h0.6c0.3,0,0.6,0.3,0.6,0.6c0,0.8,1.2,0.8,1.2,0c0-1-0.8-1.8-1.8-1.8H456v-0.6
			c0-0.4-0.3-0.6-0.6-0.6c-0.3,0-0.6,0.2-0.6,0.6v0.6h-0.7c-1,0-1.8,0.8-1.8,1.8v1.2c0,1,0.8,1.8,1.8,1.8h0.7v2.4h-0.7
			c-0.3,0-0.6-0.3-0.6-0.6c0-0.8-1.2-0.8-1.2,0c0,1,0.8,1.8,1.8,1.8h0.7v0.6c0,0.4,0.3,0.6,0.6,0.6c0.3,0,0.6-0.2,0.6-0.6V382h0.6
			c1,0,1.8-0.8,1.8-1.8V379C458.3,378,457.5,377.2,456.6,377.2z M454.8,377.2h-0.7c-0.3,0-0.6-0.3-0.6-0.6v-1.2
			c0-0.3,0.3-0.6,0.6-0.6h0.7V377.2z M456.6,380.8H456v-2.4h0.6c0.3,0,0.6,0.3,0.6,0.6v1.3C457.2,380.5,456.9,380.8,456.6,380.8z"/>
		<path class="st359" d="M456.6,377.2H456v-2.4h0.6c0.3,0,0.6,0.3,0.6,0.6c0,0.8,1.2,0.8,1.2,0c0-1-0.8-1.8-1.8-1.8H456v-0.6
			c0-0.4-0.3-0.6-0.6-0.6v10.7c0.3,0,0.6-0.2,0.6-0.6V382h0.6c1,0,1.8-0.8,1.8-1.8V379C458.3,378,457.5,377.2,456.6,377.2z
			 M456.6,380.8H456v-2.4h0.6c0.3,0,0.6,0.3,0.6,0.6v1.3C457.2,380.5,456.9,380.8,456.6,380.8z"/>
	</g>
</g>
</svg>
