<svg xmlns="http://www.w3.org/2000/svg" viewBox="0 0 224.66 410.58"><title>richienormie</title><g id="a31b25af-a46d-40d2-a3bd-417a52d6c83c" data-name="Layer 2"><g id="ecfcfe06-1c14-4c51-af7c-2131bbe1c7f7" data-name="Layer 1"><path d="M31.74,209.68l1.2-.65c.75,11.18,1.35,21.9,2.23,32.61,1.69,20.66,3.42,41.32,5.41,62,25-.14,50.08-1,75.12-1.15,13.43-.06,26.85-.37,40.27-.51,11-.11,21.72.53,32.6,1.29,2.69-26.51,3.57-53.13,4.2-79.75.11-4.43,0-8.86,0-14.17l2.54,1.37a60.35,60.35,0,0,1-.61-7.11c-.09-5.6.29-11.2.46-16.8a9.46,9.46,0,0,0-3.9-2.77h-.16c-4.05,2.44-8.05.9-12.07.11a1.4,1.4,0,0,1-.27.51c.15,7.79.26,15.59.48,23.38.07,2.61-1.39,3.23-3.59,3.81-3.64,1-8.5-.07-10.69,3s.26,7.37.39,11.16c.28,8.65.52,8.83-7.76,11.53s-16,6.44-24.53,8.13l-2.87,0-1-1s0,0,0,0c-10-3.26-19-8.87-28.37-13.43-2.69-1.3-1.66-4.1-1.61-6.33.25-9.6.41-10-8.77-12.88-5.07-1.61-6.71-4.09-6.5-9.27.26-6.3-.49-12.64-.8-19q-20.67.16-41.34.32c-1.81,0-3.63-.14-5.44-.21A8.22,8.22,0,0,0,32,185.35c-.26,4.46-.91,8.92-.8,13.39C31.24,202.4,31.59,206,31.74,209.68ZM132,252.29c2.5-.07,4,1.45,4.22,3.93-.24,2.84-1.7,4.38-4.49,4.38a3.65,3.65,0,0,1-3.91-3.72A4,4,0,0,1,132,252.29Zm-.21,18.3a3.8,3.8,0,0,1,4.16,4c.07,2.57-1.65,3.77-3.7,4.13-2.85-.09-4.61-1.26-4.75-3.78C127.35,272.13,129.05,270.59,131.8,270.59Z" style="fill:#424342"/><path d="M18,57.66c-7.21,17.91-4.57,36.25-2.49,54.52,2.87,25.2,10,49.47,17.33,73.68l2.64.14.22-.07a238.24,238.24,0,0,0,25.38-46c2.14-5.14,3.9-9.3-3.52-11.8-6.77-2.28-6.6-7.7-4.86-13.35,2.2-7.1,7.12-5.71,12.22-3.81l5.21-4c.48-3.2,1.5-6.43,1.34-9.6C70.9,86.59,75,83.65,86.37,85c30.22,3.66,60.22,2.27,88.76-9.92,27-14.87,39.73-37.25,38-68.23-1.72.28-2.94.1-3.57.63-20.88,17.41-26.59,18.33-51.23,5.11C135.91.63,112.64-3.36,87.9,3,71.79,7.17,59.1,15.91,53,31.74c-1.84,4.75-4.45,6.52-9.67,6.62C30.19,38.64,22.56,46.3,18,57.66Z" style="fill:#50413a"/><path d="M191.28,184h-.16a.35.35,0,0,1-.05-.08Z" style="fill:#50413a"/><path d="M191.07,183.93a.35.35,0,0,0,.05.08c-4.05,2.44-8.05.9-12.07.11a1.42,1.42,0,0,0,0-.2c4,.05,8,.68,11.94,0Z" style="fill:#f8d8b9"/><path d="M61.06,140c2.14-5.14,3.9-9.3-3.52-11.8-6.77-2.28-6.6-7.7-4.86-13.35,2.2-7.1,7.12-5.71,12.22-3.81,1.1,1.28,2.29,3.75,3.88,2.73,2.2-1.4,1.37-4.36,1.33-6.74h0c.48-3.2,1.5-6.43,1.34-9.6C70.9,86.59,75,83.65,86.37,85c30.22,3.66,60.22,2.27,88.76-9.92,5.18,6.74,8.21,14.48,10.71,22.41,8.92,28.36,9.25,57.44,7.38,86.69l-13.43,1.06c-28.46,0-56.93-1-85.36.56l-38.3.07-4.19-.17a13.88,13.88,0,0,0-2.8.18H47.91c-4.06.05-8.13.68-12.19,0h0A238.24,238.24,0,0,0,61.06,140Zm47.35-16.09c-.45-4.88.25-11.33-5.69-12.71-5-1.16-6.14,4.68-6.1,8.37,0,4.74-.62,11.28,6,12.32C107.24,132.58,107.35,127.36,108.41,123.87ZM138,172.8c11.52.17,20.76-5.93,22.84-14.67,2.63-11-5.15-10.46-12.24-11.51-9.09.61-18.18,1.31-27.28,1.77-6.55.33-7.9,3.92-6.83,9.43C116.34,167.38,124.51,172.61,138,172.8Zm40.52-53.16c.44-4.71.51-10.56-5.1-11.57-4.92-.89-5.55,4.45-6.26,8.79.51,4.52.12,11,6.22,11.78C178.46,129.3,178.15,123.36,178.5,119.64Z" style="fill:#f8d8b9"/><path d="M179.26,208c.07,2.61-1.39,3.23-3.59,3.81-3.64,1-8.5-.07-10.69,3s.26,7.37.39,11.16c.28,8.65.52,8.83-7.76,11.53s-16,6.44-24.53,8.13c3.36-5.72,8.51-10.18,11.37-16.24q15.42-20.31,30.86-40.64c1.09-1.43,2.31-2.77,3.47-4.15C178.93,192.42,179,200.22,179.26,208Z" style="fill:#807f7f"/><path d="M179.09,183.92a1.42,1.42,0,0,1,0,.2c-.38-.08-.77-.15-1.16-.2Z" style="fill:#f8d8b9"/><path d="M179.05,184.12a1.4,1.4,0,0,1-.27.51c-1.16,1.38-2.38,2.72-3.47,4.15q-15.45,20.31-30.86,40.64c-1.21-6.2-2.26-12.44-3.69-18.59-1-4.19-1-7.86,2.61-10.86,2.18-1.81,1.65-3.55.5-6.05-2.84-6.2-8.35-4.07-12.93-4.88s-4.57,3.47-6.31,5.79c-1.49,2-1.47,3.78.36,5.73,1.28,1.36,3.36,2.59,2.68,5-2.49,8.75-3.72,17.85-7.33,26.28-2.47-3.32-5-6.63-7.42-10-9.46-12.78-19.72-25-28.68-38.13l49.3.09q5.06.27,10.11.68c9.13-.21,18.26-.28,27.39-.61h6.85C178.28,184,178.67,184,179.05,184.12Z" style="fill:#f1eeed"/><path d="M133.54,183.84l37.5.07c-9.13.33-18.26.4-27.39.61Q138.6,184.12,133.54,183.84Z" style="fill:#f8d8b9"/><path d="M64.9,111l5.21-4h0Z" style="fill:#533e2a"/><path d="M70.11,107l-5.21,4c1.1,1.28,2.29,3.75,3.88,2.73C71,112.33,70.15,109.37,70.11,107Z" style="fill:#533e2a"/><path d="M144.45,229.42c-2.86,6.06-8,10.52-11.37,16.24l-2.87,0-1-1c-2.15-4.83-6.39-8.22-8.89-12.82,3.61-8.43,4.84-17.53,7.33-26.28.68-2.41-1.4-3.64-2.68-5-1.83-1.95-1.85-3.75-.36-5.73,1.74-2.32,1.75-6.59,6.31-5.79s10.09-1.32,12.93,4.88c1.15,2.5,1.68,4.24-.5,6.05-3.59,3-3.59,6.67-2.61,10.86C142.19,217,143.24,223.22,144.45,229.42Z" style="fill:#b05a35"/><path d="M136,274.56c.07,2.57-1.65,3.77-3.7,4.13-2.85-.09-4.61-1.26-4.75-3.78-.16-2.78,1.54-4.32,4.29-4.32A3.8,3.8,0,0,1,136,274.56Z" style="fill:#424244"/><path d="M136.23,256.22c-.24,2.84-1.7,4.38-4.49,4.38a3.65,3.65,0,0,1-3.91-3.72,4,4,0,0,1,4.18-4.59C134.51,252.22,136,253.74,136.23,256.22Z" style="fill:#807f7f"/><path d="M96.62,119.53c0,4.74-.62,11.28,6,12.32,4.61.73,4.72-4.49,5.78-8-.45-4.88.25-11.33-5.69-12.71C97.67,110,96.58,115.84,96.62,119.53Z" style="fill:#50413a"/><path d="M129.23,244.66s0,0,0,0c-10-3.26-19-8.87-28.37-13.43-2.69-1.3-1.66-4.1-1.61-6.33.25-9.6.41-10-8.77-12.88-5.07-1.61-6.71-4.09-6.5-9.27.26-6.3-.49-12.64-.8-19l1-.08c9,13.16,19.22,25.35,28.68,38.13,2.46,3.33,5,6.64,7.42,10C122.84,236.44,127.08,239.83,129.23,244.66Z" style="fill:#807f7f"/><path d="M121.3,148.39c-6.55.33-7.9,3.92-6.83,9.43,1.87,9.56,10,14.79,23.51,15,11.52.17,20.76-5.93,22.84-14.67,2.63-11-5.15-10.46-12.24-11.51C139.49,147.23,130.4,147.93,121.3,148.39Z" style="fill:#eb7f86"/><path d="M167.14,116.86c.51,4.52.12,11,6.22,11.78,5.1.66,4.79-5.28,5.14-9,.44-4.71.51-10.56-5.1-11.57C168.48,107.18,167.85,112.52,167.14,116.86Z" style="fill:#50413a"/><path d="M217.85,216.22c-5.84-10.71-14.51-18.74-23.24-26.77a9,9,0,0,0-3.33-1,1.05,1.05,0,0,1-.8-.42l-2.37.24a1.07,1.07,0,0,1-.74.43l-3,.44c-.35.27-.68.55-1,.84-2.27,2.08-2.77,4.62-2.47,7.52,0,0,.05.05.06.09a51.49,51.49,0,0,0,2.52,4.78,1.14,1.14,0,0,1,1,.63c.5,1,1.09,2.16,1.75,3.42,2.31,3,5.08,5.41,8,5.69a1.06,1.06,0,0,1,1,.87c1.63.39,2.64,2.17,3.73,3.45,14.26,16.66,9.75,42.13-11.58,59.06a.89.89,0,0,1-.28.62,1.09,1.09,0,0,1-1,1.06,1,1,0,0,1-.18,0,1.12,1.12,0,0,1-.57,1.57,23.57,23.57,0,0,0-6.37,4.43c-.44.63-.88,1.27-1.31,1.92a1.23,1.23,0,0,1,.19,1.25c3.06-.35,5.06,2.58,7.38,4.88,1,.94,1.77,2.06,2.64,3.09,3.1,3.32,5.72,3.27,9.11-.15,8.19-8.23,16-16.67,21.25-27.18C226.63,250,227.1,233.17,217.85,216.22Z" style="fill:#424342"/><path d="M185.32,303l-3.92,1.12c-5.38,1.56-9.47-.07-11.71-5.23-2-4.65.68-7.25,4.15-10.2,5.64-4.78,8.21-.35,11.43,2.82,1,.95,1.76,2.06,2.64,3.1C189,298,187.27,300.57,185.32,303Z" style="fill:#f7d9ba"/><path d="M6.8,212.22c5.85-10.71,14.52-18.74,23.25-26.77a8.93,8.93,0,0,1,3.33-1,1.05,1.05,0,0,0,.8-.42l2.37.24a1,1,0,0,0,.74.43l3,.44c.35.27.68.55,1,.84,2.27,2.08,2.76,4.62,2.47,7.52a.71.71,0,0,0-.07.09,49.17,49.17,0,0,1-2.52,4.78,1.13,1.13,0,0,0-1,.63c-.5,1-1.09,2.16-1.75,3.42-2.31,3-5.08,5.41-8,5.69a1.05,1.05,0,0,0-1,.87c-1.63.39-2.64,2.17-3.73,3.45C11.51,229,16,254.51,37.35,271.44a.93.93,0,0,0,.27.62,1.1,1.1,0,0,0,1,1.06,1.09,1.09,0,0,0,.18,0,1.11,1.11,0,0,0,.57,1.57,23.38,23.38,0,0,1,6.36,4.43q.67.94,1.32,1.92a1.2,1.2,0,0,0-.19,1.25c-3.06-.35-5.06,2.58-7.38,4.88-1,.94-1.77,2.06-2.65,3.09-3.09,3.32-5.71,3.27-9.1-.15-8.19-8.23-16-16.67-21.26-27.18C-2,246-2.45,229.17,6.8,212.22Z" style="fill:#424342"/><path d="M39.33,299l3.93,1.12c5.38,1.56,9.47-.07,11.71-5.23,2-4.65-.68-7.25-4.15-10.2-5.65-4.78-8.22-.35-11.43,2.82-1,.95-1.77,2.06-2.64,3.1C35.65,294,37.39,296.57,39.33,299Z" style="fill:#f7d9ba"/><path d="M188.54,302a511.65,511.65,0,0,1-19.68,83.33c-1.72,5.24-2.76,9,5.41,7.14,8.48-1.89,14.07,2.21,17.7,9.43,0,5.14-1.64,8.62-7.82,8.69a74.93,74.93,0,0,1-28.07-5.52c-8.14-3.14-.57-9-1.43-13.59,6.17-22.87,12.18-45.72,12.4-69.68.06-6.15-1.28-7.9-7.56-7-30,4.33-60,3.9-90,.25-7.41-.9-10.44.89-10.87,8.39-1,18.2-7.94,35.1-12.89,52.42-1,3.59-2.67,7-2,11.21l13.58-1.6a99.67,99.67,0,0,1,7.94,6.45c2.53,2.49,4.26,5.47,2,9.07-2,3.2-4.84,4-8.74,4.06-9.66,0-17.57-5.33-26.34-7.88-6.95-2-.74-8.54-1.71-12.91,8.34-27.42,12.8-55.26,9.22-84l4.51,1" style="fill:#424342"/></g></g></svg>