<svg xmlns="http://www.w3.org/2000/svg" viewBox="0 0 548.75 576.6"><title>richie_durmiendo</title><g id="ba3996a0-4620-45e0-ada4-7be73a071019" data-name="Layer 2"><g id="a2ad737f-23b1-44e3-9644-043754091892" data-name="Layer 1"><path d="M159.12,385.33c-19.2,4.3-38.35,9.38-58.29,5.65-5.4-1-10.64-2.9-16-4.38C68.09,375.85,65,359.58,67,341.46c.79-7,2.48-13.89,3.75-20.83l4.73-15.44c5.73-12.15,5.72-12.13,18.85-7.94a17.53,17.53,0,0,0,3.5.37c3.68,1.3,7.28,3.31,11,3.72,5.76.63,1.54,3.83,2,5.76a60.44,60.44,0,0,0-8.58,22.08c-3.8,19.8,4,30,22.71,29.29,3.33-.12,6.64-1.08,10-1.66,13-1.35,25.16-5.64,37-11a9.37,9.37,0,0,0,7.75-5l45.78-45.11c10,1.89,14.48,10.91,21.23,16.87,4.67,4.13,8.08,6.15,14.41,2.86,12.68-6.57,12.88-6.11,23.2,4.71,1.93,2,2.93,5.51,7.26,3.95,14.43-5.18,29-10.05,43.45-15l.5-2.62c4.11-.13,4.41-3.82,5.74-6.37,3.57-6.83,6.93-13.76,10.37-20.66,7.66-15.36,8.26-16.15-5.16-26.33-8.58-6.5-8.08-11.47-2.14-18.64,2.17-2.61,5.82-6,2-9.64-7.73-7.38-13.9-16.47-23.53-21.79l-.3-3.36,5.69-5.3c8.44-8.26,4.42-18.63,4.79-28.26a65.81,65.81,0,0,0-2.9-28.06c-5.11-16.32-16.19-20.9-32.06-13.56-7.11,1.94-12.6,6.71-18.54,10.69-8.63-7.06-19.42-11.45-26-21l22.4-16.72c9.17-3.47,17.41-9,27-11.59,23.85-6.53,41.19,1.83,49.85,25.25,9.82,26.59,9.26,54.29,7.5,82-.22,3.36-.48,6.72-.72,10.09-3.9,13.19-1.1,24.29,8.37,34.74a169.84,169.84,0,0,0,32.91,28.27c14.26,9.34,29.89,16,45.18,23.34-3,1.56-4.11,4.48-5.5,7.22q-13.74,27-27.45,54c-10.91,21.6-22.26,43-32.42,65-4.37,9.44-12.25,17.1-13.84,27.85-2.14-.08-4.29,0-6.41-.26-27.89-3.06-53.55-13.26-78.77-24.8-25.23-13.54-49.36-28.78-71.79-46.61-2.29-1.83-4.39-3-7.5-1.76-10.5,4.23-21.08,8.26-31.62,12.36Zm194.17-64.1c-.5-3.83-2.61-6.2-6.41-6.47-3.59-.25-5.85,1.68-5.79,5.39s2.29,6.5,6.05,6.7C350.54,327,352.46,324.47,353.29,321.23Zm39.4,21.19c-3.8.43-5.6,2.57-5.25,6.18.31,3.28,2.58,4.85,5.71,4.61,3.33-.26,6.18-2,5.93-5.63S396,342.63,392.69,342.42Zm-16.84-7.28c0-3.25-1.54-5.35-4.85-5.62s-5.46,1.27-5.81,4.58c-.41,3.69,1.44,6,5.22,6.08C373.69,340.29,375.48,338.39,375.85,335.14Z" style="fill:#252525"/><path d="M38.66,214.11c-2.85-14.6,1-26.26,14.7-33.64,2.28-1.22,3.73-2.42,2.16-5.75C38.27,138.2,55.14,110.45,79.34,85c15.88-16.71,36.35-25.09,58.46-30,.9-.2,1.84-.25,2.74-.45,35.13-7.91,41.22-15.1,43.36-51.22A26.43,26.43,0,0,1,184.63,0c9.84,5.23,15.4,14.28,22.69,21.41,3.08,5.95,6.45,11.76,9.18,17.87,9.09,20.33,7.46,41.06,1.79,61.87a184.76,184.76,0,0,1-31.43,49.67c-17.38,19.4-37.06,36.16-58.3,51.07-5.2,3.64-5.16,6.16-1.4,10.69,7,8.43,13.48,17.3,20.58,26.51-7.32,2.14-16-.87-18.44,7.58-1.89,6.61,2.74,11.84,7.53,15.84,8.24,6.89,13.58-1.06,19.78-5.24,8.75,25.16,16.2,49.87,17.69,76-.29,4-2.17,3.54-4.75,1.85-7.73-5.05-15.41-10.17-23.28-15-11.46-7-21.05-16.89-33.61-22.27l-1.8-2.05.09.11a72.16,72.16,0,0,0-20.47-16.77c-4.27-4.34-8.42-8.78-12.8-13C61.81,250.93,46.93,235,38.66,214.11Z" style="fill:#3d2618"/><path d="M446,289.64c-15.29-7.34-30.92-14-45.18-23.34A169.84,169.84,0,0,1,367.88,238c-9.47-10.45-12.27-21.55-8.37-34.74,8.9,3.56,13.44,11.83,18,19C387.9,238.54,402.49,245,420.86,248c31.59,5.23,62.86,12.45,94.27,18.81,4.7.95,8.32,2.69,6.92,8.54-3.46,1.07-3.84,4.34-5.28,7-5.09,9.37-6.75,20.35-13.6,28.88Z" style="fill:#fcf6ca"/><path d="M97.83,297.62a17.53,17.53,0,0,1-3.5-.37c-13.13-4.19-13.12-4.21-18.85,7.94-3.87-.39-6.65-2.76-9.64-5C45.13,285,26.21,267.5,4.73,253.31c6.78-12.2,17.42-21.17,26.41-31.51,2.92.31,4.06,2.55,5.11,4.81C44,243.3,55.57,256.86,69.14,269.28c6,5.48,13.13,10.2,17.48,17.46.47,7.41,7.38,5.21,11.26,7.53Z" style="fill:#fffbd4"/><path d="M218.29,101.15c5.67-20.81,7.3-41.54-1.79-61.87-2.73-6.11-6.1-11.92-9.18-17.87,4.57-2.89,6.5.73,8.81,3.54Q246,61.25,275.88,97.52l-22.4,16.72c-3.43.24-6.84-.18-9.6-2.24C236.22,106.26,227.39,103.41,218.29,101.15Z" style="fill:#fcf6ca"/><path d="M4.73,253.31C26.21,267.5,45.13,285,65.84,300.23c3,2.2,5.77,4.57,9.64,5l-4.73,15.44c-15.82-8.39-28.7-20.86-43.18-31.11-6.76-4.79-13.3-9.89-19.93-14.86C-1.7,267.68-2.24,263.65,4.73,253.31Z" style="fill:#eae5c1"/><path d="M86.62,286.74c-4.35-7.26-11.49-12-17.48-17.46-13.57-12.42-25.11-26-32.89-42.67-1-2.26-2.19-4.5-5.11-4.81,2-3.1,3.73-6.39,7.52-7.69,8.27,20.9,23.15,36.82,39,52,4.38,4.2,8.53,8.64,12.8,13Z" style="fill:#eae5c1"/><path d="M527.83,333.07c-.11.6-.25,1.19-.33,1.8-.47,3.39,1,8.55-4,8.75-4.41.17-3.51-5-4.27-7.95-1.64-6.45-1.14-13.37-4.26-19.51-1.49-11.73,5-21,9.65-30.78Q526.22,309.23,527.83,333.07Z" style="fill:#3d2618"/><path d="M524.6,285.38c-4.65,9.81-11.14,19.05-9.65,30.78l-2,.31-9.79-5.19c6.85-8.53,8.51-19.51,13.6-28.88,1.44-2.67,1.82-5.94,5.28-7Z" style="fill:#eae5c1"/><path d="M503.17,311.28l9.79,5.19c1.36,18.64,2.73,37.29,4.16,56.94,4.37-2.43,7.4-4.51,10.72-5.87C534,365,540,364.93,544.5,370.9c2.81,3.74,5.59,8,3.55,12.79-2.21,5.18-7.43,4.83-12,4.78-7.79-.09-15.23-2.31-22.74-4.08-3.88-.91-5.05-3.44-6-7.14-2.27-9.23-2.67-18.92-6.79-27.68-.64-4.53-1.64-9-1.86-13.59-.3-6.35-3-8.81-9.57-9.15-11-.56-21.93-2-32.81-3.66-5.11-.76-6.61,1.48-7,5.76-3.14,7.32-6.2,14.69-9.46,22-9.29,20.79-20.54,40.54-32.05,60.16-1.54,2.62-5.06,5.81,1.38,7.23,16.17,3.56,32.31,7.28,48.46,10.94l5.59,1.95q1.79,28.89,3.56,57.87c4.11,0,5.85-3,8.51-4.4,9.39-4.79,18.27-2.45,23.88,6.52,3.6,5.76,2.35,10.15-4.06,12.29-10.39,3.46-21.13,3.44-31.94,2.5-4.87-.43-4.59-4.21-5.36-7.31-2.53-10.07-3.34-20.55-7.2-30.31-.27-2.74-.36-5.51-.84-8.22-2.38-13.38-2.42-13.25-15.94-13.74-22.34-.8-44.68-1.77-67-2.67,1.59-10.75,9.47-18.41,13.84-27.85,10.16-21.95,21.51-43.36,32.42-65q13.67-27,27.45-54c1.39-2.74,2.55-5.66,5.5-7.22Z" style="fill:#1e201f"/><path d="M366.76,443.71c22.34.9,44.68,1.87,67,2.67,13.52.49,13.56.36,15.94,13.74.48,2.71.57,5.48.84,8.22-8.64,7.54-10,18.52-13.53,28.49-4.27,11.17-11.87,9.73-21.49,7.15-42.79-11.49-85.74-22.38-128.75-33-10.32-2.55-20.3-7.19-31.33-6.43-7.28-9.83-18.29-15.25-27.56-22.65-20.86-16.69-42.6-32.27-64-48.29-2.8-2.09-5.32-4.29-4.79-8.28l11.55-2.68,6.81,4.24L261,451.77c2.69,2.33,6.07,2.82,9.35,3.62,12.24,3,24.51,5.84,36.7,9Q363.34,479,419.57,493.73c4.61,1.2,8.65.9,10.76-4.22,3.61-8.78,7.17-17.59,10.81-26.36,2.92-7,0-9-6.93-9.78-24.51-2.8-49.15-1.4-73.72-3.12-25.13-1.76-48.14-9.41-70.94-18.77-5.52-2.26-9.33-6.06-8-12.83,25.22,11.54,50.88,21.74,78.77,24.8C362.47,443.69,364.62,443.63,366.76,443.71Z" style="fill:#eae5c1"/><path d="M255.46,464.55c11-.76,21,3.88,31.33,6.43,43,10.62,86,21.51,128.75,33,9.62,2.58,17.22,4,21.49-7.15q.71,32.42,1.39,64.82a64.53,64.53,0,0,1,.08,8.34c-.38,3.51-1.46,6.82-6.08,6.6-3.79-.19-6-1.5-6.61-5.94-2.12-15.91-5.05-31.71-7-47.63-.77-6.32-3.48-8.81-9.48-10.25q-66.16-15.86-132.18-32.43c-6.07-1.53-9.56-.37-13.1,4.83-8.87,13-18.25,25.69-27.68,38.3-2.65,3.56-4.79,10.41-11.1,5.94-5.3-3.77.41-7.52,2-10.76C236.17,500.36,247.42,483.29,255.46,464.55Z" style="fill:#3d2618"/><path d="M449.25,328.93c.4-4.28,1.9-6.52,7-5.76,10.88,1.63,21.84,3.1,32.81,3.66,6.57.34,9.27,2.8,9.57,9.15.22,4.55,1.22,9.06,1.86,13.59-4.79,1.54-5.93,5.91-7.58,9.86l-29.75,71.75-5.59-1.95c1.12-10.22,5.76-19.29,9.47-28.64,7.24-18.22,16.66-35.56,22.36-54.38,3.19-10.56,1.36-12.07-9.24-13.39C469.87,331.53,459.32,332,449.25,328.93Z" style="fill:#eae5c1"/><path d="M218.29,101.15c9.1,2.26,17.93,5.11,25.59,10.85,2.76,2.06,6.17,2.48,9.6,2.24,6.63,9.55,17.42,13.94,26,21,.34,1.17.3,2.91,1.07,3.42,17.22,11.45,30.21,27.19,43.67,42.47,2.32,4.14,4.36,8.36,4,13.3l-5.69,5.3-95,93.78-2.05,2.28L179.75,340.9c-.55-3.46-3.66-5.09-5.45-7.65-1.49-26.11-8.94-50.82-17.69-76-6.2,4.18-11.54,12.13-19.78,5.24-4.79-4-9.42-9.23-7.53-15.84,2.42-8.45,11.12-5.44,18.44-7.58-7.1-9.21-13.58-18.08-20.58-26.51-3.76-4.53-3.8-7.05,1.4-10.69,21.24-14.91,40.92-31.67,58.3-51.07A184.76,184.76,0,0,0,218.29,101.15Zm61.46,106.72a27.51,27.51,0,0,0-3.9-15.92c-2.85-5-6.06-6.45-11-2.52-14.29,11.31-26.92,24.33-39.32,37.6-4.69,5-2.86,8.51,2.54,11.58C251.86,252.12,279.83,236,279.75,207.87Zm-39.26-34.94c8.8-.05,17.58-6.45,20.74-14.87,2.75-7.31-.17-19.81-5.75-24.84-1.13-1-2.09-2.4-3.77-1-1.21,1-2.33,2.31-1.51,3.94,1.24,2.45,3.07,4.62,4.18,7.13,3,6.76,2.62,13.11-2.95,18.59s-11.9,5.81-18.65,2.68a44.22,44.22,0,0,1-5.5-3.33c-1.66-1.09-3.26-1.78-4.85,0-2.17,2.46-.23,3.8,1.48,5.15A30.53,30.53,0,0,0,240.49,172.93Zm-31.25,34.76c0-6.79-2.76-12.52-6.79-17.78-1.32-1.72-2.8-2.31-4.61-.66-1.28,1.16-1.74,2.38-.55,3.93a43.58,43.58,0,0,1,2.56,3.85c4.51,7.39,4.84,14.64-1.5,21.13s-13.63,6.18-21,1.65c-1.58-1-3.06-2.08-4.61-3.09-1.72-1.12-2.91-.07-3.91,1.14-1.26,1.51-.4,2.7.64,4,4.21,5.22,16.92,8.68,23.95,6.43C202.59,225.33,209.11,216.87,209.24,207.69Z" style="fill:#f9d7b8"/><path d="M177.48,386.89l-6.81-4.24c10.54-4.11,21.12-8.14,31.62-12.37,3.11-1.25,5.21-.07,7.5,1.76,22.43,17.83,46.56,33.07,71.79,46.61-1.36,6.77,2.45,10.57,8,12.83,22.8,9.36,45.81,17,70.94,18.77,24.57,1.72,49.21.32,73.72,3.12,7,.8,9.85,2.74,6.93,9.78-3.64,8.77-7.2,17.58-10.81,26.36-2.11,5.12-6.15,5.42-10.76,4.22Q363.32,479,307.06,464.39c-12.19-3.16-24.46-6-36.7-9-3.28-.8-6.66-1.29-9.35-3.62,3.81-6.34,7.16-13,11.56-18.92s1.81-9.28-3.08-11.76c-21.16-10.76-40.75-23.88-59.91-37.81-3.47-2.52-7-8-12.37-6C190.39,379.82,182.7,380.93,177.48,386.89Z" style="fill:#fcf6ca"/><path d="M227.58,293.51l95-93.78.3,3.36c2.64,20.47,5.46,40.92,7.81,61.42.51,4.41,3.79,9.41-1.06,13.54-2.23-1.62-4.61-3.08-6.67-4.89-8.27-7.24-21.94-10-20.87-25.09,0-.68-.87-2-1.43-2-4.36-.43-9.18-4.67-13-.39s-12.39,5.72-10.09,14.57c1.42,5.46,2.3,11,10.07,10,2.75-.35,4.45,1.35,5.74,3.74,5.65,10.5,12.82,20.16,17.46,31.23Z" style="fill:#f0f1f0"/><path d="M310.84,305.14c-4.64-11.07-11.81-20.73-17.46-31.23-1.29-2.39-3-4.09-5.74-3.74-7.77,1-8.65-4.51-10.07-10-2.3-8.85,6.22-10.21,10.09-14.57s8.61,0,13,.39c.56,0,1.47,1.37,1.43,2-1.07,15.06,12.6,17.85,20.87,25.09,2.06,1.81,4.44,3.27,6.67,4.89,7.17,8.4,5.22,18.72,6,28.47-.16.88-.33,1.75-.5,2.62C327,308.06,318.73,307.6,310.84,305.14Z" style="fill:#961a17"/><path d="M335.58,306.52c-.76-9.75,1.19-20.07-6-28.47,4.85-4.13,1.57-9.13,1.06-13.54-2.35-20.5-5.17-40.95-7.81-61.42,9.63,5.32,15.8,14.41,23.53,21.79,3.83,3.65.18,7-2,9.64-5.94,7.17-6.44,12.14,2.14,18.64,13.42,10.18,12.82,11,5.16,26.33-3.44,6.9-6.8,13.83-10.37,20.66C340,302.7,339.69,306.39,335.58,306.52Z" style="fill:#494949"/><path d="M102.32,329.18a60.44,60.44,0,0,1,8.58-22.08c4.18-.45,6.47,2.58,9.44,4.73,15.47,11.21,30.11,23.85,48.91,29.61,2,.62,2.43,2.56,2.75,4.41-11.85,5.32-24,9.61-37,11C126.57,344.68,113.45,338.1,102.32,329.18Z" style="fill:#fffbd4"/><path d="M310.84,305.14c7.89,2.46,16.12,2.92,24.24,4-14.49,5-29,9.86-43.45,15-4.33,1.56-5.33-1.93-7.26-3.95-10.32-10.82-10.52-11.28-23.2-4.71-6.33,3.29-9.74,1.27-14.41-2.86-6.75-6-11.23-15-21.23-16.87l2.05-2.28Z" style="fill:#494949"/><path d="M324.27,181.14c-13.46-15.29-26.45-31-43.67-42.48-.77-.51-.73-2.25-1.07-3.42,5.94-4,11.43-8.75,18.54-10.69l31.47,39.83C326.47,169.55,331,177.11,324.27,181.14Z" style="fill:#fcf6ca"/><path d="M172,345.85c-.32-1.85-.73-3.79-2.75-4.41-18.8-5.76-33.44-18.4-48.91-29.61-3-2.15-5.26-5.18-9.44-4.73-.48-1.93,3.74-5.13-2-5.76-3.77-.41-7.37-2.42-11-3.72,0-1.12,0-2.23,0-3.35,4.34.68,8.57,2.27,13.07,1.62l-.09-.11,1.8,2.05c12.56,5.38,22.15,15.24,33.61,22.27,7.87,4.83,15.55,9.95,23.28,15,2.58,1.69,4.46,2.11,4.75-1.85,1.79,2.56,4.9,4.19,5.45,7.65A9.37,9.37,0,0,1,172,345.85Z" style="fill:#eae5c1"/><path d="M102.32,329.18c11.13,8.92,24.25,15.5,32.67,27.63-3.32.58-6.63,1.54-10,1.66C106.35,359.17,98.52,349,102.32,329.18Z" style="fill:#eae5c1"/><path d="M329.54,164.38l3.49,1.79c-.37,9.63,3.65,20-4.79,28.26.39-4.94-1.65-9.16-4-13.3C331,177.11,326.47,169.55,329.54,164.38Z" style="fill:#eae5c1"/><path d="M353.29,321.23c-.83,3.24-2.75,5.79-6.15,5.62-3.76-.2-6-2.87-6.05-6.7s2.2-5.64,5.79-5.39C350.68,315,352.79,317.4,353.29,321.23Z" style="fill:#494949"/><path d="M392.69,342.42c3.29.21,6.16,1.7,6.39,5.16s-2.6,5.37-5.93,5.63c-3.13.24-5.4-1.33-5.71-4.61C387.09,345,388.89,342.85,392.69,342.42Z" style="fill:#494949"/><path d="M375.85,335.14c-.37,3.25-2.16,5.15-5.44,5-3.78-.12-5.63-2.39-5.22-6.08.35-3.31,2.6-4.85,5.81-4.58S375.82,331.89,375.85,335.14Z" style="fill:#494949"/><path d="M111,295.89c-4.5.65-8.73-.94-13.07-1.62-3.88-2.32-10.79-.12-11.26-7.53l3.86-7.62A72.16,72.16,0,0,1,111,295.89Z" style="fill:#f9d7b8"/><path d="M112.66,297.83l-1.8-2.05Z" style="fill:#f9d7b8"/><path d="M449.25,328.93c10.07,3.11,20.62,2.6,30.92,3.89,10.6,1.32,12.43,2.83,9.24,13.39-5.7,18.82-15.12,36.16-22.36,54.38-3.71,9.35-8.35,18.42-9.47,28.64-16.15-3.66-32.29-7.38-48.46-10.94-6.44-1.42-2.92-4.61-1.38-7.23,11.51-19.62,22.76-39.37,32.05-60.16C443.05,343.62,446.11,336.25,449.25,328.93Z" style="fill:#fcf6ca"/><path d="M177.48,386.89c5.22-6,12.91-7.07,19.73-9.61,5.33-2,8.9,3.48,12.37,6,19.16,13.93,38.75,27.05,59.91,37.81,4.89,2.48,7.43,5.93,3.08,11.76s-7.75,12.58-11.56,18.92Z" style="fill:#fffbd4"/><path d="M279.75,207.87c.08,28.15-27.89,44.25-51.7,30.74-5.4-3.07-7.23-6.56-2.54-11.58,12.4-13.27,25-26.29,39.32-37.6,5-3.93,8.17-2.51,11,2.52A27.51,27.51,0,0,1,279.75,207.87Z" style="fill:#e9868c"/><path d="M240.49,172.93a30.53,30.53,0,0,1-16.58-6.54c-1.71-1.35-3.65-2.69-1.48-5.15,1.59-1.8,3.19-1.11,4.85,0a44.22,44.22,0,0,0,5.5,3.33c6.75,3.13,13.08,2.8,18.65-2.68s6-11.83,2.95-18.59c-1.11-2.51-2.94-4.68-4.18-7.13-.82-1.63.3-2.93,1.51-3.94,1.68-1.39,2.64,0,3.77,1,5.58,5,8.5,17.53,5.75,24.84C258.07,166.48,249.29,172.88,240.49,172.93Z" style="fill:#553f29"/><path d="M209.23,207.7c-.12,9.17-6.64,17.63-15.84,20.58-7,2.25-19.74-1.21-23.95-6.43-1-1.29-1.9-2.48-.64-4,1-1.21,2.19-2.26,3.91-1.14,1.55,1,3,2.12,4.61,3.09,7.4,4.53,14.63,4.9,21-1.65s6-13.74,1.5-21.13a43.58,43.58,0,0,0-2.56-3.85c-1.19-1.55-.73-2.77.55-3.93,1.81-1.65,3.29-1.06,4.61.66C206.48,195.17,209.25,200.9,209.23,207.7Z" style="fill:#553f29"/></g></g></svg>