<svg xmlns="http://www.w3.org/2000/svg" viewBox="0 0 410.43 71.11"><title>tehara4</title><g id="bdf36115-5cc0-4219-9f6f-6d9480f2f247" data-name="Layer 2"><g id="a403a0f1-03c2-4f45-a244-3280b4370fbc" data-name="Layer 1"><path d="M4.52,87.86v-.63c0-12.74,6.3-22.64,23.68-33.44,11.85-7.32,15.05-9.48,15.05-15.58,0-5.09-2.94-9.8-11.54-9.8-7.91,0-11.46,4.66-12.63,11.89H4.94C6,26.62,16,17,32.17,17S57.84,26.13,57.84,38.1c0,10.82-5,15.55-18.87,23.66C30.09,67,24.1,71.59,22.13,76.21H60.75L58.89,87.86Z" transform="translate(-4.52 -16.75)" style="fill:#ffd34e"/><path d="M69.61,21.21H63.87V19.14h14v2.07H72.08V38H69.61Z" transform="translate(-4.52 -16.75)" style="fill:#202529"/><path d="M79.25,31.7c.06,3.33,2.19,4.7,4.66,4.7a8.78,8.78,0,0,0,3.75-.7l.42,1.77a11,11,0,0,1-4.51.84c-4.18,0-6.67-2.75-6.67-6.84s2.41-7.31,6.36-7.31c4.43,0,5.61,3.89,5.61,6.39a8.91,8.91,0,0,1-.09,1.15Zm7.23-1.77c0-1.57-.64-4-3.42-4-2.49,0-3.58,2.3-3.78,4Z" transform="translate(-4.52 -16.75)" style="fill:#202529"/><path d="M97.86,18.13h2.47v8.46h0a4.53,4.53,0,0,1,1.77-1.73,5.09,5.09,0,0,1,2.52-.7c1.82,0,4.74,1.12,4.74,5.8V38h-2.47V30.24c0-2.19-.81-4-3.14-4a3.54,3.54,0,0,0-3.31,2.47,3,3,0,0,0-.16,1.18V38H97.86Z" transform="translate(-4.52 -16.75)" style="fill:#202529"/><path d="M120.92,38l-.19-1.71h-.09a5,5,0,0,1-4.14,2,3.87,3.87,0,0,1-4.15-3.9c0-3.28,2.91-5.07,8.15-5v-.28A2.79,2.79,0,0,0,117.42,26a6.72,6.72,0,0,0-3.53,1l-.56-1.63a8.42,8.42,0,0,1,4.46-1.2c4.14,0,5.15,2.83,5.15,5.55v5.07a18.8,18.8,0,0,0,.23,3.25Zm-.36-6.92c-2.69-.06-5.75.42-5.75,3a2.19,2.19,0,0,0,2.33,2.36,3.37,3.37,0,0,0,3.28-2.27,2.8,2.8,0,0,0,.14-.79Z" transform="translate(-4.52 -16.75)" style="fill:#202529"/><path d="M126.92,28.7c0-1.6,0-3-.11-4.24H129l.08,2.67h.11a4.07,4.07,0,0,1,3.76-3,2.54,2.54,0,0,1,.7.08v2.33a3.38,3.38,0,0,0-4.15,3.08,6.6,6.6,0,0,0-.11,1.15V38h-2.44Z" transform="translate(-4.52 -16.75)" style="fill:#202529"/><path d="M143.45,38l-.19-1.71h-.09a5,5,0,0,1-4.14,2,3.87,3.87,0,0,1-4.15-3.9c0-3.28,2.91-5.07,8.15-5v-.28A2.8,2.8,0,0,0,140,26a6.72,6.72,0,0,0-3.53,1l-.56-1.63a8.38,8.38,0,0,1,4.45-1.2c4.15,0,5.16,2.83,5.16,5.55v5.07A18.8,18.8,0,0,0,145.7,38Zm-.36-6.92c-2.69-.06-5.75.42-5.75,3a2.19,2.19,0,0,0,2.33,2.36A3.37,3.37,0,0,0,143,34.25a2.8,2.8,0,0,0,.14-.79Zm1.23-12.5-3.42,4h-1.76l2.46-4Z" transform="translate(-4.52 -16.75)" style="fill:#202529"/><path d="M155.39,18.13h2.47V38h-2.47Z" transform="translate(-4.52 -16.75)" style="fill:#202529"/><path d="M169.51,38l-.19-1.71h-.09a5,5,0,0,1-4.14,2,3.87,3.87,0,0,1-4.15-3.9c0-3.28,2.91-5.07,8.15-5v-.28A2.79,2.79,0,0,0,166,26a6.72,6.72,0,0,0-3.53,1l-.56-1.63a8.42,8.42,0,0,1,4.46-1.2c4.14,0,5.15,2.83,5.15,5.55v5.07a18.8,18.8,0,0,0,.23,3.25Zm-.36-6.92c-2.69-.06-5.75.42-5.75,3a2.19,2.19,0,0,0,2.33,2.36A3.37,3.37,0,0,0,169,34.25a2.8,2.8,0,0,0,.14-.79Z" transform="translate(-4.52 -16.75)" style="fill:#202529"/><path d="M175.17,35.51a6.54,6.54,0,0,0,3.25,1c1.8,0,2.64-.9,2.64-2s-.7-1.82-2.52-2.49c-2.44-.87-3.59-2.22-3.59-3.84,0-2.19,1.76-4,4.68-4A6.72,6.72,0,0,1,183,25l-.61,1.79a5.27,5.27,0,0,0-2.78-.78c-1.45,0-2.27.84-2.27,1.85s.82,1.62,2.58,2.29c2.36.9,3.56,2.08,3.56,4.1,0,2.38-1.85,4.06-5.07,4.06a7.71,7.71,0,0,1-3.81-.92Z" transform="translate(-4.52 -16.75)" style="fill:#202529"/><path d="M192.55,28.14c0-1.41,0-2.55-.11-3.68h2.15l.12,2.19h.08a4.68,4.68,0,0,1,4.26-2.49,4,4,0,0,1,3.84,2.71H203a5.63,5.63,0,0,1,1.51-1.76,4.61,4.61,0,0,1,3-.95c1.79,0,4.46,1.17,4.46,5.88v8h-2.41V30.35c0-2.61-1-4.18-2.95-4.18a3.19,3.19,0,0,0-2.91,2.25,4.06,4.06,0,0,0-.2,1.23V38H201V29.9c0-2.16-.95-3.73-2.83-3.73A3.66,3.66,0,0,0,195,29.85V38h-2.41Z" transform="translate(-4.52 -16.75)" style="fill:#202529"/><path d="M217.29,31.7c.06,3.33,2.19,4.7,4.66,4.7a8.78,8.78,0,0,0,3.75-.7l.42,1.77a11,11,0,0,1-4.51.84c-4.18,0-6.67-2.75-6.67-6.84s2.41-7.31,6.36-7.31c4.43,0,5.61,3.89,5.61,6.39a8.91,8.91,0,0,1-.09,1.15Zm7.23-1.77c0-1.57-.64-4-3.42-4-2.49,0-3.58,2.3-3.78,4Z" transform="translate(-4.52 -16.75)" style="fill:#202529"/><path d="M226.65,42a4,4,0,0,0,2.69-1c.68-.79.93-1.85.93-5.1V24.46h2.46V36.77c0,2.63-.42,4.34-1.62,5.58a6.28,6.28,0,0,1-4.21,1.54ZM233,20.65a1.45,1.45,0,0,1-1.54,1.52A1.48,1.48,0,0,1,230,20.65a1.51,1.51,0,0,1,1.57-1.54A1.45,1.45,0,0,1,233,20.65Z" transform="translate(-4.52 -16.75)" style="fill:#202529"/><path d="M249.05,31.14c0,5-3.48,7.2-6.76,7.2-3.67,0-6.5-2.69-6.5-7,0-4.54,3-7.2,6.72-7.2C246.41,24.16,249.05,27,249.05,31.14Zm-10.77.14c0,3,1.71,5.21,4.12,5.21s4.12-2.22,4.12-5.27c0-2.3-1.15-5.21-4.06-5.21S238.28,28.7,238.28,31.28Z" transform="translate(-4.52 -16.75)" style="fill:#202529"/><path d="M252.15,28.7c0-1.6,0-3-.11-4.24h2.16l.08,2.67h.12a4.06,4.06,0,0,1,3.75-3,2.5,2.5,0,0,1,.7.08v2.33a3.43,3.43,0,0,0-.84-.09,3.47,3.47,0,0,0-3.31,3.17,7.74,7.74,0,0,0-.11,1.15V38h-2.44Z" transform="translate(-4.52 -16.75)" style="fill:#202529"/><path d="M262.41,31.7c.06,3.33,2.19,4.7,4.65,4.7a8.79,8.79,0,0,0,3.76-.7l.42,1.77a11,11,0,0,1-4.51.84c-4.18,0-6.67-2.75-6.67-6.84s2.41-7.31,6.36-7.31c4.43,0,5.61,3.89,5.61,6.39a8.91,8.91,0,0,1-.09,1.15Zm7.23-1.77c0-1.57-.64-4-3.42-4-2.49,0-3.59,2.3-3.78,4Z" transform="translate(-4.52 -16.75)" style="fill:#202529"/><path d="M274.74,35.51a6.54,6.54,0,0,0,3.25,1c1.8,0,2.64-.9,2.64-2s-.7-1.82-2.53-2.49c-2.43-.87-3.58-2.22-3.58-3.84,0-2.19,1.76-4,4.68-4a6.72,6.72,0,0,1,3.33.84l-.61,1.79a5.3,5.3,0,0,0-2.78-.78c-1.46,0-2.27.84-2.27,1.85s.81,1.62,2.58,2.29c2.35.9,3.56,2.08,3.56,4.1,0,2.38-1.85,4.06-5.07,4.06a7.78,7.78,0,0,1-3.82-.92Z" transform="translate(-4.52 -16.75)" style="fill:#202529"/><path d="M67.27,59.05v8.33H62.94V46.55H73.83c4.63,0,7.42,2.23,7.42,5.85a4.81,4.81,0,0,1-3.68,4.94c1,.35,3.14,1.24,3.14,5v1A17.7,17.7,0,0,0,81,67.38H76.48a14,14,0,0,1-.35-4.32v-.69c0-2.41-.91-3.32-4.14-3.32Zm0-3.35h5.56c2.71,0,3.94-1,3.94-3s-1.25-2.84-3.88-2.84H67.27Z" transform="translate(-4.52 -16.75)"/><path d="M99.11,58.3H87.2v5.53h13.21l-.53,3.55h-17V46.55H99.75v3.54H87.2v4.66H99.11Z" transform="translate(-4.52 -16.75)"/><path d="M121.27,60.93c-1,3.63-3.85,6.89-10.19,6.89-7.28,0-10.92-5-10.92-10.83s4-10.88,11.15-10.88c6.26,0,9.33,3.44,10,6.91h-4.44c-.58-1.51-1.88-3.46-5.61-3.46-4.18,0-6.49,3.15-6.49,7.27s2.18,7.56,6.52,7.56c3.27,0,4.66-1.32,5.57-3.46Z" transform="translate(-4.52 -16.75)"/><path d="M143.45,56.9c0,5.81-3.9,10.92-11.28,10.92-6.95,0-11-4.82-11-10.91,0-5.75,4.28-10.8,11.22-10.8S143.45,51.18,143.45,56.9Zm-17.7-.06c0,4.11,2.23,7.51,6.64,7.51s6.44-3.64,6.44-7.4-2.1-7.37-6.63-7.37C127.88,49.58,125.75,53,125.75,56.84Z" transform="translate(-4.52 -16.75)"/><path d="M164.24,59.08c0-3.69,0-7.43.14-9.69h0c-1,3.62-3.53,10.49-6.15,18h-3.84c-2-6.43-4.77-14.25-5.89-18h0c.17,2.41.33,6.57.33,10.11v7.87h-4V46.55h6.32c2.34,6.57,4.78,13.15,5.4,15.71h0c.92-3.06,3.35-9.45,5.57-15.71h6.35V67.38h-4.23Z" transform="translate(-4.52 -16.75)"/><path d="M187.46,58.3H175.55v5.53h13.2l-.52,3.55h-17V46.55h16.91v3.54H175.55v4.66h11.91Z" transform="translate(-4.52 -16.75)"/><path d="M189.76,67.38V46.55H195c5.48,8.16,9.22,13.12,10.48,15.48h.06c-.19-2.35-.16-6.05-.16-9.47v-6h4V67.38h-4.87c-2.33-3.44-9.48-14.08-10.8-16.47h-.06c.17,2.6.17,5.56.17,9.26v7.21Z" transform="translate(-4.52 -16.75)"/><path d="M212.06,46.55h9.14c6.93,0,10.79,4.5,10.79,10.06,0,6.67-4.83,10.77-10.88,10.77h-9.05Zm4.37,17.39h4c4.54,0,6.89-2.67,6.89-7.21,0-4.17-2.37-6.72-6.78-6.76h-4.15Z" transform="translate(-4.52 -16.75)"/><path d="M236.94,62.14l-2.1,5.24h-4.51l8.57-20.83h5.55l9,20.83h-4.74l-2.22-5.24Zm8.27-3.55c-2.14-5.09-3.16-7.62-3.65-9.15h0c-.46,1.49-1.67,4.79-3.4,9.15Z" transform="translate(-4.52 -16.75)"/><path d="M273,60.93c-1,3.63-3.84,6.89-10.19,6.89-7.27,0-10.92-5-10.92-10.83s4-10.88,11.16-10.88c6.26,0,9.33,3.44,10,6.91h-4.44c-.58-1.51-1.88-3.46-5.61-3.46-4.18,0-6.49,3.15-6.49,7.27s2.18,7.56,6.52,7.56c3.27,0,4.66-1.32,5.57-3.46Z" transform="translate(-4.52 -16.75)"/><path d="M278.2,46.55V67.38h-4.37V46.55Z" transform="translate(-4.52 -16.75)"/><path d="M302.06,56.9c0,5.81-3.9,10.92-11.28,10.92-6.95,0-11-4.82-11-10.91,0-5.75,4.28-10.8,11.22-10.8S302.06,51.18,302.06,56.9Zm-17.7-.06c0,4.11,2.23,7.51,6.64,7.51s6.44-3.64,6.44-7.4-2.1-7.37-6.63-7.37C286.49,49.58,284.36,53,284.36,56.84Z" transform="translate(-4.52 -16.75)"/><path d="M303.41,67.38V46.55h5.2c5.47,8.16,9.21,13.12,10.48,15.48h.06C319,59.68,319,56,319,52.56v-6h4V67.38h-4.88c-2.33-3.44-9.48-14.08-10.8-16.47h-.06c.17,2.6.17,5.56.17,9.26v7.21Z" transform="translate(-4.52 -16.75)"/><path d="M342,58.3H330.09v5.53h13.2l-.52,3.55H325.71V46.55h16.92v3.54H330.09v4.66H342Z" transform="translate(-4.52 -16.75)"/><path d="M347,61.2c.65,2,2.2,3.36,5.86,3.36s4.66-1.19,4.66-2.72-1-2.59-5.73-3.39c-6.92-1.18-8.29-3.4-8.29-6.21,0-4,3.83-6.11,8.63-6.11,7,0,8.86,3.63,9.1,5.95h-4.4c-.33-1.16-1.09-2.7-4.83-2.7-2.6,0-4.05.85-4.05,2.44,0,1.36.86,2.12,5,2.85,7.79,1.37,9,3.75,9,6.72,0,3.52-2.77,6.41-9.53,6.41-6.29,0-9.23-2.82-9.87-6.6Z" transform="translate(-4.52 -16.75)"/><rect x="362.43" width="48" height="66" style="fill:none"/></g></g></svg>