<svg xmlns="http://www.w3.org/2000/svg" viewBox="0 0 413 285.82"><title>teharapic_2</title><g id="a1aebeae-03cd-442f-987a-ccf79812499a" data-name="Layer 2"><g id="fcce63c4-0f40-43a1-9af0-44904c5829cc" data-name="Layer 1"><g id="b00350bb-219a-4b44-9238-06046242967f" data-name="lrzh0l"><path d="M186.19,198.1l.42-2,1.47.65a2.83,2.83,0,0,0,1.88,1.36c3.11,2.74,6.89,3.88,10.89,4.47a9.55,9.55,0,0,0,3.6,1.22c7.89,1.63,15.88,1.39,23.85,1.16,1.66-.05,2.72-.25,2.15,2-.64,2.58.48,4.54,2.69,6a27.23,27.23,0,0,0,7.12,3.54,89.84,89.84,0,0,0,47.6.55c1.48-.38,2.92-1,5.07-1.68-1.08-.38-1.38-.6-1.61-.55-6.41,1.68-12.95,2.19-19.54,2.71a68.71,68.71,0,0,1-26.47-2.69c-5.3-1.7-11.53-3.61-11.86-11.15,0-.23-.43-.44-.66-.66.09-1.57-.95-2.53-2-3.45a4.87,4.87,0,0,1-1.85-4.17l0-2.32c-.8-2.71-3.61-4.36-3.87-7.35l0-2.28c.23-.68.46-1.36.68-2,4.15,3.94,9.2,6,14.71,7.18a102.08,102.08,0,0,0,35.21.79c3.63-.51,7.26-1.15,10.48-3.23a118.41,118.41,0,0,1-14.76,1.88c-10.26.86-20.44.7-30.34-2.22-6.89-2-11.73-5.25-10.83-12.7l.07-1.36a29.92,29.92,0,0,0,13,6.54,73.42,73.42,0,0,0,11.58,2.09c12.06,1,24,.62,35.61-3.2.58-.19,1.53-.09,1.53-1.14-.13-.07-.23-.16-.31-.15l-1.56.29c-14.4,2.64-28.86,4.14-43.2.09-6.18-1.74-12.77-3.68-13.57-11.89-.11-1.09-.86-1.3-1.86-1.16s-2.11.16-3.17.24c1.05-2.51,1.35-5.69,5.16-5.7a6.94,6.94,0,0,0,3.34,6.41,27.35,27.35,0,0,0,8,3.8,86.3,86.3,0,0,0,35.91,2.44c8-1.08,16-2.53,22.35-8.21,1.12,1.61.53,3.44.67,5.17-.17.58-.34,1.15-.5,1.73l-1.59,1.52c-2.58,2.45-2.37,3.93.8,5.64,0,.22,0,.44,0,.66-.88,0-1.88-.75-2.55.46l-2.59,4.68c-1.51,0-2.57.75-2.45,2.31.38,4.84-2.84,7-6.45,8.86-11.62,6-24.11,5-36.53,4.47-5.49-.26-10.86-1.45-16.29-2.5A36.11,36.11,0,0,0,243,198c12.34,3.23,24.83,3.2,37.29,1,6.69-1.17,13.39-2.77,18.34-8.1l.08,1.4c-.14,2.49.2,4.86-1.61,7.23-3.36,4.4-8.13,5.73-13,6.73-10.52,2.17-21.16,1.76-31.77.75-3.29-.32-6.55-.9-9.82-1.36a27.33,27.33,0,0,0,7.1,2.55,89.31,89.31,0,0,0,31.72,1.17c7.82-1,15.6-2.6,21.79-8.18,1,1.39.55,3,.68,4.53l0,2.49c-2.49,1.14-4.69,2.43-3.23,5.78-.76,4.45-3.74,6.89-7.64,8.61a62,62,0,0,1-23,4.78A89.58,89.58,0,0,1,237.3,223l-.48-.13.49.13c.6,1.8,2.29,2.09,3.75,2.61,10,3.57,20.36,4.48,31,3.87,10.92-.62,21.57-1.75,30.4-9.15l.09,5.84,0,.63c-1.19,2.36-4.59,3.17-4.5,6.43l.67,1.25c-1.74,1.59-2.28,3.84-3.27,5.84-1.49.5-1.34,1.85-1.36,2.95-.09,6.34-4.06,9.2-9.51,10.76A76.47,76.47,0,0,1,265,256.83a135.57,135.57,0,0,1-24.66-1.91,8.27,8.27,0,0,0,1.2.89,25.65,25.65,0,0,0,3,1,95.77,95.77,0,0,0,35.83.94c7.19-1.17,14.28-2.75,19.44-8.58L300,253c.3,3.13-1.18,5.25-3.76,6.83a32.35,32.35,0,0,1-6,3c-12.54,4.45-25.4,4.3-38.37,2.71-5.19-.64-10.12-2.34-15.18-3.51l-.48-.15.49.14c2.28,2.51,5.46,3.36,8.49,4.1a95.75,95.75,0,0,0,43.55.31c5-1.09,9.25-3.63,13.38-6.47.2.69.4,1.39.59,2.09,0,.86,0,1.73-.05,2.6-1.07,2.6-4.17,4.15-3.92,7.41.31,4-1.84,6.26-5.06,8-7,3.84-14.62,4.86-22.35,5.43-11.85.88-23.56.23-34.77-4.18-2.9-1.15-5.93-2.39-6.95-5.88a1.57,1.57,0,0,0-.33-.49,12.09,12.09,0,0,1-.07-5.32c3.81,2.47,7.58,5,12.1,6.16a88.73,88.73,0,0,0,47.08-.67,4,4,0,0,0,2.65-1.6,2.62,2.62,0,0,0,1.91-.65,1.7,1.7,0,0,0,.31-.06.66.66,0,0,0,.16-.17l-.46.24a2.72,2.72,0,0,0-1.92.63,11,11,0,0,0-2.23.14c-9.88,2.61-20,2.71-30.07,2.37-6.17-.22-12.32-1.19-17.95-3.89-4.41-2.12-9.06-4.39-7.93-10.75.26-.68.67-1.39-.28-1.9a5.19,5.19,0,0,0-2-2l-.09-2.64c.58-1.23.72-2.35-.73-3.1l-.06,0c-2.38-2.17-5.71-3.62-5.76-7.56l0-1.94a2.76,2.76,0,0,1,.69-2,25.4,25.4,0,0,0,11.12,6,86,86,0,0,0,49.31-.88,4.19,4.19,0,0,0,2.95-2.22c-11.72,4.16-23.21,3.69-34.67,3.55a41.4,41.4,0,0,1-16.75-3.46c-4.48-2-9.42-4.18-8.81-10.64l.1-2c8.91,7.09,19.7,7.91,30.36,9,10,1,27.31-1.8,31.7-5.23-10.6,3-20.79,3-31,2.73-6.14-.2-12.29-.87-18.06-3.33a17.85,17.85,0,0,1-7.09-5.25c-1.63-2-.28-4.66-1.58-6.7,0-2.73-2.08-4.67-2.65-7.18.77-1.74-.48-1.73-1.58-1.75q-3.35-.06-6.69,0c-7.78.12-15.53-.19-23-2.7C192.4,208.07,186.6,205.76,186.19,198.1Zm108.66,16a1.45,1.45,0,0,0-.3,0c-.07,0-.12.11-.18.17l.46-.24a1.45,1.45,0,0,0,.3-.06c.07,0,.12-.11.17-.16Z" style="fill:#eeb23b"/><path d="M192.5,129.62c.08-.65.17-1.29.25-1.94a32.31,32.31,0,0,0,13.18,6.8c9.28,2.57,18.74,2.38,28.2,2.17a54.84,54.84,0,0,0,20.53-4.06c3.22-1.39,6.79-2.74,7.79-6.91.36-1.49,1.87-1.24,3-1.1a101.4,101.4,0,0,0,27,0c1.59-.22,2.72.17,1.29,2.06-1.93,2.56-1,4.78.91,6.85s4.32,3.05,6.84,3.95c9.76,3.49,19.84,4.18,30.12,3.75,11.06-.47,21.88-1.47,30.8-9.08.54,3.62.27,7-2.66,9.7a2.32,2.32,0,0,0-.85,2c.69,4.24-1.66,7-4.48,9.6-.21.46-.65,1-.6,1.39.45,4-1.95,6.1-5,8-4.61,2.92-9.7,4.07-15,4.84a76.36,76.36,0,0,1-25.55-.2v-7c14.59,1.42,31.53-.31,36.13-3.74a3,3,0,0,0-1-.12c-10.47,2.74-21.15,1.8-31.76,1.73-3.2,0-6.74,0-9.34-2.44a19.66,19.66,0,0,0-8.78-5c-3.14-.79-4.88-2.33-4.46-5.79.19-1.6-.45-2.66-2.31-2.66-8.72,0-17.45.48-26.13-.83-.54-.08-1.16-.08-1.19.62a1.27,1.27,0,0,0,.71.93,11.7,11.7,0,0,0,2.13.56c6.83,1.35,13.74,1.38,20.66,1.28.77,0,2-.4,2.2.68a2.05,2.05,0,0,1-1.8,2.27,10.44,10.44,0,0,1-3.16.06,109.19,109.19,0,0,0-27.33.61c-5.5.88-10.56,3.22-15.89,4.56-6.55,1.65-13.35.61-20,.79a57.83,57.83,0,0,1-17.65-2.2c-7.56-2.16-10.15-5.55-10.09-13.18,1.28-.79,1.86.41,2.72.91,2.61,1.53,5.13,3.31,8.27,3.64,1.46,1.24,3.31,1.4,5.07,1.77a108.93,108.93,0,0,0,11.68,1.6,83.89,83.89,0,0,0,31.56-3.09c.58-.16,1.56-.21,1.31-1.5-5.79.87-11.47,2.26-17.32,2.44-10.46.32-20.86.09-30.95-3.18-2.48-1.3-5.08-2.4-7.06-4.49l-1.2-1.31-.65-1.27-.09-1.91Zm159.39,16.2a3.13,3.13,0,0,0-.92,0c-10.65,3.35-21.63,3.3-32.6,2.92-5.41-.19-10.88-.88-15.9-3.1-4.82-2.14-10.1-4-9.94-10.89.05-2-1.24-2.88-3.22-2.39a31.73,31.73,0,0,1-8,.46c-5.42-.05-10.85.37-16.25-.57-1-.17-2.41-.36-2.51,1.16-.1,1.36,1.2,1.21,2.12,1.31a79.06,79.06,0,0,0,20,.13c2-.3,4.08-.33,6.28-.49-3,6.41-2.13,8.66,4.15,11.76a35.56,35.56,0,0,0,7.18,2.64,89.36,89.36,0,0,0,33.89,1.76C341.69,149.81,347.1,148.73,351.89,145.82Z" style="fill:#eeb23a"/><path d="M56.71,196.76c-2.31-8.54,0-16.08,5.06-23,1.72-2.37,3.69-4.55,5.54-6.82a124.11,124.11,0,0,0,14.12-1.66c2.74.49,2.72,3.69,4.8,4.84,1.5,3.91,4.56,6.59,7.65,9.09,1.65,1.33,1.68,3.72,3.7,4.59,7,3,14,5.47,21.85,4.12,2.15-.37,4.57-2.66,6.52-.74,1.58,1.54,2.31,4,3.21,6.16,1.42,3.44,4.35,6,5.33,9.69.63,14.23-1.63,28.16-4.29,42.05-.12.63-.22,1.26-.34,1.89-.34,1.67,0,2.37,1.94,1.78,3-.9,5.7-.42,7.59,2.38.41,3.64-.17,4.4-3.71,4.47a29.94,29.94,0,0,1-5.35-.35c-5.87-1-5.86-1-5.6-6.72,1.7-9.32,3.33-18.64,2.25-28.18-.17-1.49-.1-2.6-2.33-2A146.67,146.67,0,0,1,88,222.21c-2.07,0-2.89.64-2.78,2.73.32,6.44-1.06,12.68-2.39,18.92-.38,1.76-.57,3.56-.84,5.34-.3,1-1,1.89-.22,2.94,4.62-2.44,7.5-2,9.6,1.54,1,1.72.63,2.74-1.32,3.26-2.54.67-5.06.13-7.58-.12-5.86-.57-5.86-.61-5.7-6.35,1.78-10.21,2.81-20.44.75-30.74-.17-.82-.42-1.63-.63-2.45,5.85.59,7.52-.86,6.65-5.73,3.9-2,7.24-4.84,10.87-7.24,1.8-1.2,2.12-2.87.84-4.69-1.58-2.27-3.2-4.51-4.81-6.76.16-.13.3-.33.48-.37,1.4-.29,2.68-.7,2.7-2.47A2.65,2.65,0,0,0,92,187.5c-1.56-.75-2.52.19-3.42,1.31-.18.21-.55.27-.83.39-1.52-2.27-3-4.57-4.57-6.81a3,3,0,0,0-4.64-.82c-2.57,1.82-5.12,3.68-7.68,5.52-1.75-2.89-1.35-6.46-3-9.83-3.29,4.51-5.27,9-4.3,14.37a5.74,5.74,0,0,0,1.06,3.22c1.3,4.25,4.38,7.12,7.73,9.73,2,1.53,5.43,2.65,5.72,4.38s-2.34,4.16-3.7,6.28H72.58c-6-4.14-11.22-9-14.77-15.48C57.45,198.76,57.08,197.76,56.71,196.76Zm55.71-3.29a1.56,1.56,0,0,0-1.57-1.65,1.5,1.5,0,0,0-1.79,1.41,1.61,1.61,0,0,0,1.69,1.88C111.74,195.11,112.23,194.39,112.42,193.47Zm.56,8.15c-.25-.74-.62-1.48-1.65-1.49a1.48,1.48,0,0,0-1.67,1.49,1.61,1.61,0,0,0,1.75,1.79C112.36,203.38,112.87,202.7,113,201.62Z" style="fill:#424243"/><path d="M67.18,165.39c-1.35-.16-1.52-1.38-1.92-2.3-4.91-11.25-9-22.78-10.49-35A33,33,0,0,1,55,116.93C56.3,111,59.25,108.12,65.2,107c1.07-.2,2.31,0,2.72-1.62,2.72-10.94,11-14.92,21.06-16.69a35.21,35.21,0,0,1,19.09,2.25c.89.35,1.79.69,2.68,1,10.14,4.05,12.39,3.57,19.91-4.29.28-.29.64-.5,1.33-1a28.47,28.47,0,0,1-3,21.43c-2,3.59-5.21,6.12-8.18,8.85-3.82,1.8-7.49,3.9-11.6,5.12a86.65,86.65,0,0,1-27.07,3.22c-2.18,0-3,.57-3,2.81,0,3.13-.35,6.26-.56,9.48-5.52-2.74-6.72-2.28-6.8,2.42a6.83,6.83,0,0,0,.43,4c.79,2.48,2.28,4.7,2.6,7.35C72.45,156.09,70.35,161,67.18,165.39Z" style="fill:#4f433b"/><path d="M313.5,105.78a4.31,4.31,0,0,0-2.27,2.89c.07,6.28-4.53,8.61-9.22,10.8a36.23,36.23,0,0,1-15.13,3.42c-10.37.06-21.09,2.68-30.61-4.4-4.31-3.21-10-3.24-15.12-4.7l.09-7.22a3.31,3.31,0,0,0,.55.07,4.66,4.66,0,0,0,1.91,1.85c2.56,1.74,5.15,3.42,8.31,3.9,1.2.41,2.38.93,3.62,1.22a95.45,95.45,0,0,0,35.77.88c3.49-.53,7.05-1,10.13-3.07a157.56,157.56,0,0,1-16,1.82c-11.46.9-22.71.46-33.49-4l-1.83-.71a3.2,3.2,0,0,0-1.88-1.34,8.78,8.78,0,0,0-2-3.1c-.23-.85-.45-1.7-.68-2.55V99l-.54-.58-.08-.09a3,3,0,0,0-1.67-2.19,5.14,5.14,0,0,1-2.26-4.92,10.2,10.2,0,0,0-1.7-6.58c-1.55-2.2-.76-4.9-.64-7.41,3.65,3.44,8.08,5.33,12.85,6.65C262,86.73,272.71,87,283.39,86c7.82-.71,15.61-2,22.32-6.66,1.25-.86,2-.38,2.35.9.54,1.77.91,3.48-.9,4.87-1.42,1.1-2.72,2.35-4.07,3.54a8.76,8.76,0,0,0-1.55.37c-12,5.35-24.52,5.35-37.28,4.39a91.4,91.4,0,0,1-19.29-4l-.47-.15.48.14c3.37,3.3,7.83,4.09,12.15,5a90.42,90.42,0,0,0,31,1.23c5.85-.75,11.76-1.76,16.95-5A4.85,4.85,0,0,0,308,88.87c1.86-2,2.62-1,2.91,1.14,0,.85,0,1.71,0,2.56-.23.64-.45,1.28-.67,1.92a23.86,23.86,0,0,1-13,7.47c-10.53,2.42-21.16,1.57-31.78,1.1-3.31-.15-6.6-.88-9.91-1.35a37.15,37.15,0,0,0,11.43,3.39c13.24,1.76,26.33,1.41,39.13-2.77,2.78-.92,5.72-1.82,7.39-4.62h0l1.27-.23c.82,1.18.54,2.57.69,3.87s0,2.53-1.22,3.37Z" style="fill:#eeb23a"/><path d="M71.81,140c.08-4.7,1.28-5.16,6.8-2.42.21-3.22.57-6.35.56-9.48,0-2.24.81-2.86,3-2.81a86.65,86.65,0,0,0,27.07-3.22c4.11-1.22,7.78-3.32,11.6-5.12,6.32,9.41,8.17,20.65,12.55,30.85a7.44,7.44,0,0,1,.83,3.69,2.38,2.38,0,0,0-2.18,2.82c.12,2-.06,4-.11,5.94-1.54.22-3.2-.33-4.63.68l-.68.06a49,49,0,0,0-6.65.19c-7.84,1.26-15.76,1.59-23.62,2.46-2.91.32-6,.18-8.64,1.71l-1.31.13a2.17,2.17,0,0,1-1.47-1.12,83.58,83.58,0,0,1-10.11-21.79c1.67-.57,1.78-1.75,1-3-1-1.53-1.72-.33-2.44.4Zm43.35,6.75c-4.85.65-9.68,1.4-14.54,1.9-2.33.24-2.62,1.15-1.8,3.09a10.29,10.29,0,0,0,10.27,6.11,9.71,9.71,0,0,0,9.08-7.24C119.06,147.25,118.55,146.62,115.16,146.73Zm-23-8.32c.19,1.78.2,4.12,2.45,4.46,1.73.26,1.86-1.84,1.78-3.1-.12-1.81,0-4.21-2.57-4.39C92.19,135.26,92.27,137.06,92.13,138.41ZM118.92,135c.28,1.59.24,3.82,2.37,4.16,1.89.29,1.87-1.74,1.83-3-.05-1.84-.06-4.24-2.45-4.47C118.9,131.48,119.11,133.48,118.92,135Z" style="fill:#fad9ba"/><path d="M361.08,190.42c.61,4,.62,7.83-3.25,10.49a2.71,2.71,0,0,0-1.21,1.8c.17,3.25-1.5,5.73-3.15,8.25a6.78,6.78,0,0,0-.44,1.83c.23,6-2.94,9.43-8.44,11.19-12.35,4-25,3.23-37.59,2.22,0-2.35,0-4.69,0-7,1.7.06,3.4,0,5.1.18a77.06,77.06,0,0,0,32.58-4.06,3.69,3.69,0,0,0,2.77-2,67.47,67.47,0,0,1-18.92,3.67c-8,.54-16.11.9-24.07-1-.05-1.32.86-2,1.74-2.75a4.71,4.71,0,0,0,2.09-4.24c14.38,1.7,34.83.29,40-4.33-6.83,2-13,2.17-19.07,2.69a89.42,89.42,0,0,1-20.94-1v-7.67c9.92,1.34,19.87,2,29.84.63C346.46,198.18,354.82,197,361.08,190.42Z" style="fill:#eeb23b"/><path d="M241.15,113.79c5.08,1.46,10.81,1.49,15.12,4.7,9.52,7.08,20.24,4.46,30.61,4.4A36.23,36.23,0,0,0,302,119.47c4.69-2.19,9.29-4.52,9.22-10.8a5.83,5.83,0,0,1,3.17,6.7c-.67,3.12,1.23,2.92,3,2.71a87.59,87.59,0,0,1,11.45-.5c9.42.08,18.74,1.14,27.33,5.18,6,2.81,7,5,6.2,9.39-8.92,7.61-19.74,8.61-30.8,9.08-10.28.43-20.36-.26-30.12-3.75-2.52-.9-5-1.9-6.84-3.95s-2.84-4.29-.91-6.85c1.43-1.89.3-2.28-1.29-2.06a101.4,101.4,0,0,1-27,0c-1.12-.14-2.63-.39-3,1.1-1,4.17-4.57,5.52-7.79,6.91a54.84,54.84,0,0,1-20.53,4.06c-9.46.21-18.92.4-28.2-2.17a32.31,32.31,0,0,1-13.18-6.8c-.84-3.92,1-6.54,4.2-8.42,6.09-3.56,12.87-4.72,19.73-5.55C224.83,112.73,233,113.25,241.15,113.79Zm-12.7,1.73c-9,.08-17.2.57-24.72,4.42-2.24,1.15-4.87,2.4-4.59,5.52.26,3,2.91,4,5.15,5.2a8.61,8.61,0,0,0,.89.34c5.23,2.34,10.8,3.11,16.44,3.51,10.31.74,20.44.13,30-4.35,2.09-1,4-2.34,4.08-4.88s-1.82-3.91-3.86-5C244.28,116.07,236,115.67,228.45,115.52Zm99,4.56a48.53,48.53,0,0,0-12,.73c-5.13.84-10.33,1.76-14.45,5.39-2.3,2-2.36,4.51-.14,6.6a17.61,17.61,0,0,0,7.28,3.85c10.17,3,20.52,3.26,31,1.74,4.22-.62,8.43-1.39,12.21-3.49,2.13-1.19,4.46-2.65,4.48-5.39s-2.22-4-4.33-5.08a29.74,29.74,0,0,0-4.72-1.92A55.62,55.62,0,0,0,327.49,120.08Z" style="fill:#fbca64"/><path d="M362.24,171.66c.8,3.47.49,6.64-2.44,9.12-1.11.94-1,2.23-.9,3.49.15,3.51-1.64,5.77-4.59,7.37a43,43,0,0,1-9.73,3.9c-11.81,3.1-23.71,2.62-35.64.91-2.18-.31-4.46-.39-6.45-1.55,1.89-2.76-.42-4.79-1.25-7.09a17.78,17.78,0,0,1,2.21.25,90.23,90.23,0,0,0,39.18.36,28.46,28.46,0,0,0,9.87-3.4c-.7-.13-1-.29-1.26-.22-10.94,3.48-22.24,3.37-33.49,2.92-5.23-.2-10.62-.62-15.29-3.6a7.59,7.59,0,0,0,2-6.49A95.35,95.35,0,0,0,343,179.42,42.53,42.53,0,0,0,362.24,171.66Z" style="fill:#eeb23a"/><path d="M361.08,230c.44,3.2.7,6.35-1.67,9-2.36.13-2,2-1.84,3.34.35,3.71-1.47,6.05-4.47,7.75a30.4,30.4,0,0,1-3.71,1.83c-7.11,2.84-14.57,3.69-22.16,4.1a76.92,76.92,0,0,1-22.8-1.81,12.92,12.92,0,0,0-1.24-7,123,123,0,0,0,33,.68,45.23,45.23,0,0,0,15.51-4.37c-.61-.75-1.11-.4-1.58-.27a92.2,92.2,0,0,1-41.32,2c-2.86-.49-6-.64-8.27-2.9.47-2.17,1.57-4.22,1.32-6.54,8.82,2.79,17.89,3.48,27.07,3.16C340.38,238.57,351.67,237.6,361.08,230Z" style="fill:#eeb23b"/><path d="M189.16,138.59c-.06,7.63,2.53,11,10.09,13.18A57.83,57.83,0,0,0,216.9,154c6.69-.18,13.49.86,20-.79,5.33-1.34,10.39-3.68,15.89-4.56a109.19,109.19,0,0,1,27.33-.61,10.44,10.44,0,0,0,3.16-.06,2.05,2.05,0,0,0,1.8-2.27c-.22-1.08-1.43-.69-2.2-.68-6.92.1-13.83.07-20.66-1.28a11.7,11.7,0,0,1-2.13-.56,1.27,1.27,0,0,1-.71-.93c0-.7.65-.7,1.19-.62,8.68,1.31,17.41.79,26.13.83,1.86,0,2.5,1.06,2.31,2.66-.42,3.46,1.32,5,4.46,5.79a19.66,19.66,0,0,1,8.78,5c2.6,2.46,6.14,2.42,9.34,2.44,10.61.07,21.29,1,31.76-1.73a3,3,0,0,1,1,.12c-4.6,3.43-21.54,5.16-36.13,3.74-2-.32-4.45-1.81-5.13,1.76-6.37,5.68-14.36,7.13-22.35,8.21A86.3,86.3,0,0,1,244.85,168a27.35,27.35,0,0,1-8-3.8,6.94,6.94,0,0,1-3.34-6.41c1-2.41-1-2-2-1.8a28,28,0,0,1-5.69.52l-1.28,0c-10.89.13-21.73-.11-32.11-4a17.82,17.82,0,0,1-8.69-6.21c-.78-4.12,2-6,4.92-7.77Zm80.54,30.06a49.17,49.17,0,0,0,5.38,0c6.69-.63,13.37-1.41,19.14-5.3,3.42-2.31,3.49-5.62.18-8.07a20.48,20.48,0,0,0-3.65-1.93c-5.72-2.67-11.92-3.11-18.05-3.57-9.66-.73-19.12.43-28.06,4.42-2,.91-4,2.22-4.1,4.84s1.7,4.16,3.93,5.27C252.12,168.08,260.32,168.84,269.7,168.65Z" style="fill:#fdc95f"/><path d="M191.21,227.37c.49-2.13-1.55-3.45-1.77-5.21a10.27,10.27,0,0,0-5-8.12c-1.13-.69-.92-2-.94-3.19.32-1.24-.38-2.72.75-3.93,5,3.8,10.65,5.58,16.56,6.6a88.58,88.58,0,0,0,25,1.21c-.31,2.65.51,5.12,1.27,7.59-9.49.11-19,.4-28.41-1.49,9,3.37,18.33,4.09,27.78,4.13-.25,2.72-3.73,3.95-3.23,7a87.12,87.12,0,0,1-27.39-3.9c8.47,5,17.86,6.12,27.41,6.47a3.69,3.69,0,0,1-1.55,2.3,5.51,5.51,0,0,0-2.27,5.24c-2-.18-4-.33-6-.56-6-.7-11.87-2-17.15-5.32C192.9,234.09,191,231.43,191.21,227.37Z" style="fill:#eeb23b"/><path d="M303.09,88.65c1.35-1.19,2.65-2.44,4.07-3.54,1.81-1.39,1.44-3.1.9-4.87-.39-1.28-1.1-1.76-2.35-.9-6.71,4.64-14.5,6-22.32,6.66-10.68,1-21.35.73-31.83-2.16-4.77-1.32-9.2-3.21-12.85-6.65-.8-3.88.86-6.44,4.13-8.46C247.19,66,252,64.89,256.9,64a88.33,88.33,0,0,1,36.34.78c4.08,1,8,2.11,11.48,4.4A9.36,9.36,0,0,1,308.83,76c.89,5.13,1.68,10.27,5.39,14.66,2.39,2.82,2.78,6.91,1.14,10.7-.15-1.3.13-2.69-.69-3.87-.23-1.11.45-3.24-.94-3.08-1.88.22.45,2-.25,3a1.32,1.32,0,0,0-.08.3h0c-2.65.51-3.05-1.24-3.22-3.22.22-.64.44-1.28.67-1.92.69-.2,1.47-.36,1.48-1.27s-.77-1.09-1.47-1.29c-.29-2.1-1.05-3.15-2.91-1.14a4.85,4.85,0,0,1-2.89,1.77ZM273.58,65.12a50.6,50.6,0,0,0-21.47,3.18c-3.06,1.22-7.1,2.34-6.89,6.54.21,4,4.09,5.19,7.28,6.23a66.65,66.65,0,0,0,42,0c3.19-1,7.15-2.23,7.15-6.3s-3.91-5.53-7.22-6.67A53.1,53.1,0,0,0,273.58,65.12Z" style="fill:#fbca64"/><path d="M190.41,168.79l-3-1.64L186.36,166l-.16-.08a2.57,2.57,0,0,0-1.3-1.77l.12-5.87a47.78,47.78,0,0,0,11.51,5.31c10.53,2.89,21.25,2.68,32,2.3,2-.07,2.76.08,1.67,2.1-3.44.36-4,3-4.37,5.68a140.37,140.37,0,0,1-19.44-.74,6.59,6.59,0,0,0,3.46,1.45c4.82,1.28,9.85.84,14.69,1.88-1.32,2.32-4.33,3.73-3.84,7A46.47,46.47,0,0,1,202,179.91c-4.25-1.77-8.83-3.6-9.61-9.2C192.24,169.63,191.22,169.28,190.41,168.79Z" style="fill:#eeb23b"/><path d="M131.92,160.23c.05-2,.23-4,.11-5.94a2.38,2.38,0,0,1,2.18-2.82c1.95,3.65,2.11,7.71,2.71,11.67.18,1.15.44,2.29.66,3.44a35.42,35.42,0,0,0-1.23,8.93c-1.36,1.55-1.94,3.5-2.75,5.33-1.41,1.11-2.81,2.24-4.25,3.32a1.71,1.71,0,0,0-.67,2.22c1.47,3.63,2.84,7.32,5.6,10.25a21.33,21.33,0,0,0,9.23,9.82c2.38,1.41,5.08,2.32,8,1.54a22.19,22.19,0,0,0,11.15-6.52c8-9.09,11.27-20,12-31.91a6.57,6.57,0,0,0,.64-3.2c.05-1.5.11-3,.17-4.49l-.12,0,1.89.09v.27l.52.88c0,.54,0,1.08,0,1.62a3.91,3.91,0,0,0-.28,2.77c-.05.81-.11,1.62-.16,2.43q-.72,5.1-1.45,10.2c0,.21-.08.42-.13.63-.15.42-.3.83-.46,1.25-2.4,9.69-6.35,18.51-14.67,24.63-8.15,6-15.94,5.4-23.26-1.58-.84-.79-1.53-1.81-2.82-2-1-3.66-3.91-6.25-5.33-9.69-.9-2.15-1.63-4.62-3.21-6.16-2-1.92-4.37.37-6.52.74-7.88,1.35-14.88-1.13-21.85-4.12-2-.87-2-3.26-3.7-4.59-3.09-2.5-6.15-5.18-7.65-9.09l1.56-.84c3.75,3.44,6.65,7.75,10.91,10.67,1.61,1.11,3,2.85,5.28,2.4l0,.18-.18-.06,1.28.89a9.25,9.25,0,0,0,7.62,1.87c2.12,0,4.28.5,6.32-.5,11.42-1.11,14.35-6.36,15.57-16.35C135,165.13,133.15,162.84,131.92,160.23Z" style="fill:#aa6c55"/><path d="M191.23,187.7a3.82,3.82,0,0,0-.73-2.67c-2-2.42-1.95-5.22-1.41-8.09,3,1.12,5.08,3.66,8.19,4.75,7.61,2.66,15.46,3.59,23.39,4.2,0,2.37-.13,4.75.65,7a76.76,76.76,0,0,1-26.26-4.28c9.05,5.62,19.17,6.6,29.46,6.89a14.32,14.32,0,0,0,1.3,7.49c-8.23.58-16.26-.85-24.28-2.45l-5.17-2.48-1.25-.71-3.84-5.09,0-1.91Z" style="fill:#eeb23b"/><path d="M357.4,161c.06.58.13,1.17.19,1.76.62,6.38-3.08,9.81-8.34,12.1a24.46,24.46,0,0,1-4.57,1.43c-13.41,2.95-26.83,2.49-40.24,0a3.15,3.15,0,0,1,1.65-2.17,4.43,4.43,0,0,0,2.2-4.25c1.06,0,2.12,0,3.18.13,12,1.2,23.93,1.07,35.57-2.64C351,166.13,354.86,164.62,357.4,161Z" style="fill:#eeb23a"/><path d="M358.59,220.34c.09.86.17,1.72.26,2.58.09,3.55-1.45,6-4.62,7.69a46.94,46.94,0,0,1-9.75,3.9c-10.31,2.94-20.83,2.42-31.33,1.61a31.72,31.72,0,0,1-9.37-1.69c.81-2.25,3.55-3.52,3.23-6.35,3,.28,5.91.62,8.87.82C330.88,229.9,345.65,229.65,358.59,220.34Z" style="fill:#eeb23a"/><path d="M136.35,175.51a35.42,35.42,0,0,1,1.23-8.93c10.54,7.49,20.57,6.73,29.94-2.2,1-1,1.61-2.58,3.35-2.69a27.29,27.29,0,0,0,4.38,4.67,6.57,6.57,0,0,1-.64,3.2c-1.45,1.25-2.86,2.54-4.34,3.74C158.93,182.48,148.63,183.14,136.35,175.51Z" style="fill:#424243"/><path d="M302.49,194.9c2,1.16,4.27,1.24,6.45,1.55,11.93,1.71,23.83,2.19,35.64-.91a43,43,0,0,0,9.73-3.9c2.95-1.6,4.74-3.86,4.59-7.37,2.46,1.43,2.64,3.68,2.18,6.15-6.26,6.57-14.62,7.76-23,8.9-10,1.36-19.92.71-29.84-.63-4.06-1.56-4.06-1.56-5.15,2.54-6.19,5.58-14,7.14-21.79,8.18a89.31,89.31,0,0,1-31.72-1.17,27.33,27.33,0,0,1-7.1-2.55c3.27.46,6.53,1,9.82,1.36,10.61,1,21.25,1.42,31.77-.75,4.85-1,9.62-2.33,13-6.73,1.81-2.37,1.47-4.74,1.61-7.23Z" style="fill:#fdc95f"/><path d="M183.72,146.31a17.82,17.82,0,0,0,8.69,6.21c10.38,3.89,21.22,4.13,32.11,4,.16.24.29.64.5.7.53.15.64-.34.78-.72a28,28,0,0,0,5.69-.52c1.06-.19,3-.61,2,1.8-3.81,0-4.11,3.19-5.16,5.7l-1.28,0c-.66-1.4-1.29-1.34-1.91,0-9.87,1.33-19.53-.1-29.07-2.38a22.45,22.45,0,0,1-11.16-5.85c-.34-1.81.25-3.75-.75-5.47a3.23,3.23,0,0,0-.45-.38C183.73,148.41,183.72,147.36,183.72,146.31Z" style="fill:#eeb23a"/><path d="M208.6,250.41l-2.66-.26c-.77-1.21-2-.87-3.12-.92-8.87-1.92-15.12-4-15.45-12.18l.48-1.91c2.45,1.46,4.45,3.54,7.22,4.61a67.58,67.58,0,0,0,24.35,4.41l0,7.23-5.2-.07a1.61,1.61,0,0,0-2.35-.43l-1.53-.23C209.89,249.86,209.28,249.87,208.6,250.41Z" style="fill:#eeb23b"/><path d="M358.59,220.34c-12.94,9.31-27.71,9.56-42.71,8.56-3-.2-5.91-.54-8.87-.82l-4.47-1.29,0-.63,4.49,0c12.63,1,25.24,1.74,37.59-2.22,5.5-1.76,8.67-5.15,8.44-11.19a6.78,6.78,0,0,1,.44-1.83C357.31,212.92,359.6,215.73,358.59,220.34Z" style="fill:#fdc95f"/><path d="M229.18,269.61c-.05-1.68-.1-3.36-.14-5a9,9,0,0,1,3.27-3.21h.52c-1.13,6.36,3.52,8.63,7.93,10.75,5.63,2.7,11.78,3.67,17.95,3.89,10.1.34,20.19.24,30.07-2.37a11,11,0,0,1,2.23-.14h0a4,4,0,0,1-2.65,1.6,88.73,88.73,0,0,1-47.08.67C236.76,274.61,233,272.08,229.18,269.61Z" style="fill:#fdc95f"/><path d="M304.44,176.32c13.41,2.47,26.83,2.93,40.24,0a24.46,24.46,0,0,0,4.57-1.43c5.26-2.29,9-5.72,8.34-12.1,4.42,2.22,5.38,4.06,4.65,8.89A42.53,42.53,0,0,1,343,179.42a95.35,95.35,0,0,1-38.53-1.79l-1.89-.69c0-.22,0-.44,0-.66Z" style="fill:#fdc95f"/><path d="M303.78,234.43a31.72,31.72,0,0,0,9.37,1.69c10.5.81,21,1.33,31.33-1.61a46.94,46.94,0,0,0,9.75-3.9c3.17-1.73,4.71-4.14,4.62-7.69,2.35,1.84,2.8,4.27,2.23,7-9.41,7.64-20.7,8.61-32.14,9-9.18.32-18.25-.37-27.07-3.16l-3.16-1.33-.67-1.25C300,233.63,301.73,234.66,303.78,234.43Z" style="fill:#fdc95f"/><text/><path d="M225.81,214.73a88.58,88.58,0,0,1-25-1.21c-5.91-1-11.57-2.8-16.56-6.6-1.13,1.21-.43,2.69-.75,3.93-2.26-3.85-.88-10.3,2.71-12.75.41,7.66,6.21,10,12.12,12,7.43,2.51,15.18,2.82,23,2.7q3.34,0,6.69,0c1.1,0,2.35,0,1.58,1.76Z" style="fill:#fbca64"/><path d="M56.71,196.76c.37,1,.74,2,1.1,3-2.3,1-2.17,2.28-.77,4.14,2.66,3.56,5.1,7.28,7.64,10.93,3.16,4.56,3.16,4.56,7.52.91a3.28,3.28,0,0,0,.38-.5h1.85a.67.67,0,0,1,.48.12l1.57,1.52a65.7,65.7,0,0,1-6.94,4.92,4.27,4.27,0,0,1-6.1-1.49c-3.19-4.84-6.46-9.64-9.67-14.47C50.43,200.8,51,199,56.71,196.76Z" style="fill:#bb9a74"/><path d="M220.67,185.89c-7.93-.61-15.78-1.54-23.39-4.2-3.11-1.09-5.21-3.63-8.19-4.75-1.15-3,.88-5.44,1.32-8.16.81.5,1.83.85,2,1.93.78,5.6,5.36,7.43,9.61,9.2a46.47,46.47,0,0,0,18.68,3.44l4.44.12,0,2.28Z" style="fill:#fbca64"/><path d="M219.42,244.16a67.58,67.58,0,0,1-24.35-4.41c-2.77-1.07-4.77-3.15-7.22-4.61-.13-1.39-.26-2.79-.38-4.19l.69-.91,3.05-2.67c-.26,4.06,1.69,6.72,5,8.83,5.28,3.31,11.11,4.62,17.15,5.32,2,.23,4,.38,6,.56l4.46.1c0,.65,0,1.29,0,1.94Z" style="fill:#fbca64"/><path d="M67.18,165.39c3.17-4.36,5.27-9.3,7.66-14.08l4,7.6c1.08,2,2.74,3.85,2.54,6.4A124.11,124.11,0,0,1,67.31,167C67.27,166.45,67.23,165.92,67.18,165.39Z" style="fill:#fad9ba"/><path d="M191.28,192.3l3.84,5.09c.16.68.42,1.2,1.25.71l5.17,2.48a3,3,0,0,0-.69,2c-4-.59-7.78-1.73-10.89-4.47-.11-1.18-.24-2.33-1.88-1.36l-1.47-.65c-.69-4.37.69-6.88,4.62-8.43,0,.9,0,1.79,0,2.69-.61.16-1.38.3-1.39,1S190.68,192.21,191.28,192.3Z" style="fill:#fbca64"/><path d="M246.27,104.07a8.78,8.78,0,0,1,2,3.1c-.46,2,1.07,1.14,1.88,1.34l1.83.71v3.17c-3.16-.48-5.75-2.16-8.31-3.9-.22-1,0-2.55-1.91-1.85a3.31,3.31,0,0,1-.55-.07c-1-3.74.08-6,3.74-8.28l.08.09.54.58c0,.85,0,1.71,0,2.56-.68.23-1.63.34-1.37,1.35S245.45,103.88,246.27,104.07Z" style="fill:#fbca64"/><path d="M189.16,138.59l-.52-.05c.16-3.46,0-7.06,3.86-8.92v2.58c-.59.12-1.4.07-1.46.86-.08,1.05.87.93,1.55,1.05.22.42.43.84.64,1.27-.66,1.41.53,1.13,1.21,1.31,2,2.09,4.58,3.19,7.06,4.49a2.66,2.66,0,0,1-1.35,2c-3.14-.33-5.66-2.11-8.27-3.64C191,139,190.44,137.8,189.16,138.59Z" style="fill:#fbca64"/><path d="M183.5,164.8c-1.51-.3-2.31-1.71-3.61-2.31,0-3-.06-5.91-.08-8.87l3.63-2.81Z" style="fill:#f1f0ef"/><path d="M76.48,216.88l-1.57-1.52c2.71-1.27,3.22-4.92,6.28-5.8a3.12,3.12,0,0,0,2.3,2c.87,4.87-.8,6.32-6.65,5.73A.93.93,0,0,0,76.48,216.88Z" style="fill:#fad9ba"/><path d="M177.19,161.92l-1.89-.09q0-3.9.07-7.8l3.13.1a33.33,33.33,0,0,1,0,3.74C178.34,159.29,179.29,161.12,177.19,161.92Z" style="fill:#f1f0ef"/><path d="M183.5,164.8l-.06-14c.06-.3.13-.59.19-.89a1.05,1.05,0,0,0,.55-.09c1,1.72.41,3.66.75,5.47l.09,3-.12,5.87a1.6,1.6,0,0,0-.29,1.57C183.91,165.82,183.71,165.3,183.5,164.8Z" style="fill:#aa6c55"/><path d="M175.25,166.36a27.29,27.29,0,0,1-4.38-4.67,8.17,8.17,0,0,1,3.08-3.86c.62,1.3-1.18,3.48,1.47,4C175.36,163.37,175.3,164.86,175.25,166.36Z" style="fill:#fad9ba"/><path d="M177.19,161.92c2.1-.8,1.15-2.63,1.31-4a33.33,33.33,0,0,0,0-3.74l1.31-.51c0,3,.05,5.91.08,8.87l-1.79,2.29a2.34,2.34,0,0,0-.38-.09c0-.54,0-1.08,0-1.62-.18-.29-.35-.59-.52-.88Z" style="fill:#e98b8f"/><path d="M175.42,161.87c-2.65-.56-.85-2.74-1.47-4,0-1,0-2.05-.08-3.07-.06-1.45.61-1.3,1.5-.73q0,3.9-.07,7.8Z" style="fill:#bb9a74"/><path d="M175.83,180.09q.73-5.1,1.45-10.2C178.25,173.5,177.11,176.8,175.83,180.09Z" style="fill:#bb9a74"/><path d="M184.61,165.76a1.6,1.6,0,0,1,.29-1.57,2.57,2.57,0,0,1,1.3,1.77Z" style="fill:#e2a935"/><path d="M177.72,164.69a2.34,2.34,0,0,1,.38.09,2.15,2.15,0,0,1-.66,2.69A3.93,3.93,0,0,1,177.72,164.69Z" style="fill:#bb9a74"/><path d="M232.83,261.36h-.52l.24-1.91C233.5,260,233.09,260.68,232.83,261.36Z" style="fill:#e2a935"/><path d="M186.36,166l1.06,1.11A1.05,1.05,0,0,1,186.36,166Z" style="fill:#e2a935"/><path d="M313.5,105.78l.64-1A.72.72,0,0,1,313.5,105.78Z" style="fill:#fbca64"/><path d="M175.24,182c.16-.42.31-.83.46-1.25C175.55,181.14,175.4,181.55,175.24,182Z" style="fill:#bb9a74"/><path d="M188.16,230l-.69.91Z" style="fill:#91af9a"/><path d="M184.18,149.83a1.05,1.05,0,0,1-.55.09,1.19,1.19,0,0,1,.1-.46A2.6,2.6,0,0,1,184.18,149.83Z" style="fill:#e2a935"/><path d="M302.46,184.12c4.67,3,10.06,3.4,15.29,3.6,11.25.45,22.55.56,33.49-2.92.24-.07.56.09,1.26.22a28.46,28.46,0,0,1-9.87,3.4,90.23,90.23,0,0,1-39.18-.36,17.78,17.78,0,0,0-2.21-.25c-4.44-2-1.75,2.09-2.63,3.13-4.95,5.33-11.65,6.93-18.34,8.1-12.46,2.18-24.95,2.21-37.29-1a36.11,36.11,0,0,1-7.31-2.8c5.43,1.05,10.8,2.24,16.29,2.5,12.42.57,24.91,1.55,36.53-4.47,3.61-1.87,6.83-4,6.45-8.86-.12-1.56.94-2.26,2.45-2.31C298.92,183.16,300.48,184.16,302.46,184.12Z" style="fill:#fdc95f"/><path d="M300.55,242.34c2.3,2.26,5.41,2.41,8.27,2.9a92.2,92.2,0,0,0,41.32-2c.47-.13,1-.48,1.58.27a45.23,45.23,0,0,1-15.51,4.37,123,123,0,0,1-33-.68c-2.39-1.59-3.42-.83-3.29,1.91-5.16,5.83-12.25,7.41-19.44,8.58a95.77,95.77,0,0,1-35.83-.94,25.65,25.65,0,0,1-3-1,8.27,8.27,0,0,1-1.2-.89A135.57,135.57,0,0,0,265,256.83,76.47,76.47,0,0,0,284.57,254c5.45-1.56,9.42-4.42,9.51-10.76,0-1.1-.13-2.45,1.36-2.95A8.73,8.73,0,0,0,300.55,242.34Z" style="fill:#fdc95f"/><path d="M185,158.32l-.09-3a22.45,22.45,0,0,0,11.16,5.85c9.54,2.28,19.2,3.71,29.07,2.38l1.91,0,1.28,0c1.06-.08,2.12-.09,3.17-.24s1.75.07,1.86,1.16c.8,8.21,7.39,10.15,13.57,11.89,14.34,4.05,28.8,2.55,43.2-.09l1.56-.29c.08,0,.18.08.31.15,0,1.05-.95.95-1.53,1.14-11.62,3.82-23.55,4.2-35.61,3.2a73.42,73.42,0,0,1-11.58-2.09,29.92,29.92,0,0,1-13-6.54c-.05-1.25-.11-2.49-.16-3.74,1.09-2,.29-2.17-1.67-2.1-10.73.38-21.45.59-32-2.3A47.78,47.78,0,0,1,185,158.32Z" style="fill:#fdc95f"/><path d="M304.44,216c8,1.87,16,1.51,24.07,1a67.47,67.47,0,0,0,18.92-3.67,3.69,3.69,0,0,1-2.77,2,77.06,77.06,0,0,1-32.58,4.06c-1.7-.14-3.4-.12-5.1-.18-1.72-.42-3.71-1.9-4.56,1.16-8.83,7.4-19.48,8.53-30.4,9.15-10.6.61-20.93-.3-31-3.87-1.46-.52-3.15-.81-3.75-2.61h0A89.58,89.58,0,0,0,270,227.42a62,62,0,0,0,23-4.78c3.9-1.72,6.88-4.16,7.64-8.61C301.56,215.31,302.7,216.23,304.44,216Z" style="fill:#fdc95f"/><path d="M226.45,225c-9.45,0-18.8-.76-27.78-4.13,9.41,1.89,18.92,1.6,28.41,1.49a12.48,12.48,0,0,0,5.11-.6c1.3,2-.05,4.67,1.58,6.7a17.85,17.85,0,0,0,7.09,5.25c5.77,2.46,11.92,3.13,18.06,3.33,10.17.32,20.36.32,31-2.73-4.39,3.43-21.73,6.22-31.7,5.23-10.66-1.05-21.45-1.87-30.36-9,0-1.65,0-3.3-.07-4.95,0-.07.13-.15.11-.21a2,2,0,0,0-.16-.4Z" style="fill:#fdc95f"/><path d="M223.24,234.54c-9.55-.35-18.94-1.43-27.41-6.47a87.12,87.12,0,0,0,27.39,3.9,12.93,12.93,0,0,0,4.5.57c-.61,6.46,4.33,8.6,8.81,10.64a41.4,41.4,0,0,0,16.75,3.46c11.46.14,23,.61,34.67-3.55a4.19,4.19,0,0,1-2.95,2.22,86,86,0,0,1-49.31.88,25.4,25.4,0,0,1-11.12-6C223.29,238.52,225.16,236.09,223.24,234.54Z" style="fill:#fdc95f"/><path d="M200.85,202.61a3,3,0,0,1,.69-2c8,1.6,16.05,3,24.28,2.45h7c.23.22.65.43.66.66.33,7.54,6.56,9.45,11.86,11.15a68.71,68.71,0,0,0,26.47,2.69c6.59-.52,13.13-1,19.54-2.71.23-.05.53.17,1.61.55-2.15.72-3.59,1.3-5.07,1.68a89.84,89.84,0,0,1-47.6-.55,27.23,27.23,0,0,1-7.12-3.54c-2.21-1.42-3.33-3.38-2.69-6,.57-2.27-.49-2.07-2.15-2-8,.23-16,.47-23.85-1.16A9.55,9.55,0,0,1,200.85,202.61Z" style="fill:#fdc95f"/><path d="M224.52,176.3c-4.84-1-9.87-.6-14.69-1.88a6.59,6.59,0,0,1-3.46-1.45,140.37,140.37,0,0,0,19.44.74,11.25,11.25,0,0,0,4.46-.58c-.9,7.45,3.94,10.66,10.83,12.7,9.9,2.92,20.08,3.08,30.34,2.22a118.41,118.41,0,0,0,14.76-1.88c-3.22,2.08-6.85,2.72-10.48,3.23a102.08,102.08,0,0,1-35.21-.79c-5.51-1.16-10.56-3.24-14.71-7.18C225.1,179.79,225.55,177.86,224.52,176.3Z" style="fill:#fdc95f"/><path d="M301.88,254.38a10.23,10.23,0,0,1,.21,5.54c-4.13,2.84-8.41,5.38-13.38,6.47a95.75,95.75,0,0,1-43.55-.31c-3-.74-6.21-1.59-8.49-4.1h0c5.06,1.17,10,2.87,15.18,3.51,13,1.59,25.83,1.74,38.37-2.71a32.35,32.35,0,0,0,6-3c2.58-1.58,4.06-3.7,3.76-6.83A3.85,3.85,0,0,1,301.88,254.38Z" style="fill:#fdc95f"/><path d="M308.27,206.36a89.42,89.42,0,0,0,20.94,1c6.11-.52,12.24-.69,19.07-2.69-5.18,4.62-25.63,6-40,4.33l-4.44-.72,0-2.49Z" style="fill:#fdc95f"/><path d="M224.52,195.54c-10.29-.29-20.41-1.27-29.46-6.89a76.76,76.76,0,0,0,26.26,4.28l7.64.17c0,.77,0,1.55,0,2.33Z" style="fill:#fdc95f"/><path d="M219.42,244.16l4.48,0c0,3.94,3.38,5.39,5.76,7.56-3.4-.12-6.82.45-10.21-.3Z" style="fill:#e2a935"/><path d="M224.52,195.54l4.46-.11a4.86,4.86,0,0,0,1.85,4.16c1,.92,2,1.88,2,3.45h-7A14.32,14.32,0,0,1,224.52,195.54Z" style="fill:#e2a935"/><path d="M303.78,234.43c-2,.23-3.83-.8-5.74-1.21-.09-3.26,3.31-4.07,4.5-6.43l4.47,1.29C307.33,230.91,304.59,232.18,303.78,234.43Z" style="fill:#e2a935"/><path d="M303.83,208.25l4.44.72a4.71,4.71,0,0,1-2.09,4.24c-.88.73-1.79,1.43-1.74,2.75-1.74.27-2.88-.65-3.84-1.93C299.14,210.68,301.34,209.39,303.83,208.25Z" style="fill:#e2a935"/><path d="M229,193.1l-7.64-.17c-.78-2.29-.64-4.67-.65-7l4.42-.14C225.35,188.74,228.16,190.39,229,193.1Z" style="fill:#e2a935"/><path d="M303.28,169.12l5,.79a4.43,4.43,0,0,1-2.2,4.24,3.15,3.15,0,0,0-1.65,2.17l-1.95,0c-3.17-1.71-3.38-3.19-.8-5.64Z" style="fill:#e2a935"/><path d="M232.19,221.72a12.48,12.48,0,0,1-5.11.6c-.76-2.47-1.58-4.94-1.27-7.59l3.73-.18C230.11,217.05,232.21,219,232.19,221.72Z" style="fill:#e2a935"/><path d="M308.27,206.36l-4.47-.6c-.13-1.53.34-3.14-.68-4.53,1.09-4.1,1.09-4.1,5.15-2.54Z" style="fill:#e2a935"/><path d="M302.46,184.12c-2,0-3.54-1-5.07-2L300,177.4c.67-1.21,1.67-.48,2.55-.46l1.89.69A7.59,7.59,0,0,1,302.46,184.12Z" style="fill:#e2a935"/><path d="M300.55,242.34a8.73,8.73,0,0,1-5.11-2c1-2,1.53-4.25,3.27-5.84l3.16,1.33C302.12,238.12,301,240.17,300.55,242.34Z" style="fill:#e2a935"/><path d="M308.24,167.51l-4.46-.12c-.14-1.73.45-3.56-.67-5.17.68-3.57,3.11-2.08,5.13-1.76Z" style="fill:#e2a935"/><path d="M302.42,220.32c.85-3.06,2.84-1.58,4.56-1.16,0,2.35,0,4.69,0,7l-4.49,0Z" style="fill:#e2a935"/><path d="M301.88,254.38A3.85,3.85,0,0,0,300,253l-.06-3.88c-.13-2.74.9-3.5,3.29-1.91a12.92,12.92,0,0,1,1.24,7Z" style="fill:#e2a935"/><path d="M223.24,234.54c1.92,1.55,0,4,1.33,5.68a2.76,2.76,0,0,0-.69,2l-4.46-.1a5.51,5.51,0,0,1,2.27-5.24A3.69,3.69,0,0,0,223.24,234.54Z" style="fill:#e2a935"/><path d="M298.61,190.94c.88-1-1.81-5.09,2.63-3.13.83,2.3,3.14,4.33,1.25,7.09l-3.8-2.56C298.66,191.87,298.64,191.41,298.61,190.94Z" style="fill:#e2a935"/><path d="M227.72,232.54a12.93,12.93,0,0,1-4.5-.57c-.5-3.06,3-4.29,3.23-7l1.25,0c0,.2,0,.4.05.61,0,1.65.05,3.3.07,4.95C227.79,231.21,227.75,231.87,227.72,232.54Z" style="fill:#e2a935"/><path d="M224.52,176.3c1,1.56.58,3.49,1.28,5.13-.22.68-.45,1.36-.68,2l-4.44-.12C220.19,180,223.2,178.62,224.52,176.3Z" style="fill:#e2a935"/><path d="M230.27,173.13a11.25,11.25,0,0,1-4.46.58c.4-2.7.93-5.32,4.37-5.68,0,1.25.11,2.49.16,3.74C230.32,172.22,230.29,172.68,230.27,173.13Z" style="fill:#e2a935"/><path d="M230.45,254.83c-.88-.89-.6-2-.73-3.1C231.17,252.48,231,253.6,230.45,254.83Z" style="fill:#e2a935"/><path d="M188.08,196.78c1.64-1,1.77.18,1.88,1.36A2.83,2.83,0,0,1,188.08,196.78Z" style="fill:#fdc95f"/><path d="M292.92,272.85a2.62,2.62,0,0,1-1.91.65h0a2.72,2.72,0,0,1,1.92-.63Z" style="fill:#fdc95f"/><path d="M237.31,223l-.49-.13.48.13Z" style="fill:#fdc95f"/><path d="M292.93,272.86l.46-.24a.66.66,0,0,1-.16.17,1.7,1.7,0,0,1-.31.06Z" style="fill:#fdc95f"/><path d="M294.83,214l-.46.24c.06-.06.11-.14.18-.17a1.45,1.45,0,0,1,.3,0Z" style="fill:#fdc95f"/><path d="M294.85,214.05l.45-.24c-.05.05-.1.13-.17.16a1.45,1.45,0,0,1-.3.06Z" style="fill:#fdc95f"/><path d="M236.67,262l-.49-.14.48.15Z" style="fill:#fdc95f"/><path d="M229.58,275.42a.58.58,0,0,1-.33-.49A1.57,1.57,0,0,1,229.58,275.42Z" style="fill:#fdc95f"/><path d="M351.89,145.82c-4.79,2.91-10.2,4-15.64,4.72a89.36,89.36,0,0,1-33.89-1.76,35.56,35.56,0,0,1-7.18-2.64c-6.28-3.1-7.13-5.35-4.15-11.76-2.2.16-4.26.19-6.28.49a79.06,79.06,0,0,1-20-.13c-.92-.1-2.22,0-2.12-1.31.1-1.52,1.56-1.33,2.51-1.16,5.4.94,10.83.52,16.25.57a31.73,31.73,0,0,0,8-.46c2-.49,3.27.43,3.22,2.39-.16,6.87,5.12,8.75,9.94,10.89,5,2.22,10.49,2.91,15.9,3.1,11,.38,21.95.43,32.6-2.92A3.13,3.13,0,0,1,351.89,145.82Z" style="fill:#fdc95f"/><path d="M200.15,143.14a2.66,2.66,0,0,0,1.35-2c10.09,3.27,20.49,3.5,30.95,3.18,5.85-.18,11.53-1.57,17.32-2.44.25,1.29-.73,1.34-1.31,1.5a83.89,83.89,0,0,1-31.56,3.09,108.93,108.93,0,0,1-11.68-1.6C203.46,144.54,201.61,144.38,200.15,143.14Z" style="fill:#fdc95f"/><path d="M192.59,134.11c-.68-.12-1.63,0-1.55-1.05.06-.79.87-.74,1.46-.86Z" style="fill:#fdc95f"/><path d="M194.44,136.69c-.68-.18-1.87.1-1.21-1.31C193.64,135.81,194,136.25,194.44,136.69Z" style="fill:#fdc95f"/><path d="M81.19,209.56c-3.06.88-3.57,4.53-6.28,5.8a.67.67,0,0,0-.48-.12c1.36-2.12,4-4.45,3.7-6.28s-3.76-2.85-5.72-4.38c-3.35-2.61-6.43-5.48-7.73-9.73,3.95-2.71,7.89-5.44,11.86-8.12,4.51-3.06,3.49-2.52,6.19,1.18-.47,2.53,4.94,10.33,7.4,10.66,2.23,2.23,2.08,3.89-.85,5.52S83.88,207.71,81.19,209.56Zm.76-8.32-.62-.63-.66-1.29-.12-.09.1.12c.22.42.44.85.65,1.28l.63.63.65,1.28.63.64c.19.22-.06.88.62.62l-.6-.64-.62-.64Z" style="fill:#f1f0ef"/><path d="M82.73,187.91c-2.7-3.7-1.68-4.24-6.19-1.18-4,2.68-7.91,5.41-11.86,8.12a5.74,5.74,0,0,1-1.06-3.22l7.26-4.54c2.56-1.84,5.11-3.7,7.68-5.52a3,3,0,0,1,4.64.82c1.57,2.24,3,4.54,4.57,6.81C85.77,190,84.74,187,82.73,187.91Z" style="fill:#bb9a74"/><path d="M81.43,165.31c.2-2.55-1.46-4.36-2.54-6.4l-4-7.6c-.32-2.65-1.81-4.87-2.6-7.35a6.83,6.83,0,0,1-.43-4l1.53,0a4.58,4.58,0,0,0,1.47,2.6,83.58,83.58,0,0,0,10.11,21.79,2.17,2.17,0,0,0,1.47,1.12c0,1.46.86,2.59,1.4,3.85l-1.56.84C84.15,169,84.17,165.8,81.43,165.31Z" style="fill:#f1f0ef"/><path d="M72.58,215.25a3.28,3.28,0,0,1-.38.5c-4.36,3.65-4.36,3.65-7.52-.91-2.54-3.65-5-7.37-7.64-10.93-1.4-1.86-1.53-3.14.77-4.14C61.36,206.24,66.58,211.11,72.58,215.25Z" style="fill:#f1f0ef"/><path d="M81.19,209.56c2.69-1.85,5.26-3.9,8.09-5.47s3.08-3.29.85-5.52c1.11-1.85-.91-3.85.26-5.71,1.61,2.25,3.23,4.49,4.81,6.76,1.28,1.82,1,3.49-.84,4.69-3.63,2.4-7,5.23-10.87,7.24A3.12,3.12,0,0,1,81.19,209.56Z" style="fill:#bb9a74"/><path d="M90.39,192.86c-1.17,1.86.85,3.86-.26,5.71-2.46-.33-7.87-8.13-7.4-10.66,2-.87,3,2.11,5,1.29.28-.12.65-.18.83-.39.9-1.12,1.86-2.06,3.42-1.31A2.65,2.65,0,0,1,93.57,190c0,1.77-1.3,2.18-2.7,2.47C90.69,192.53,90.55,192.73,90.39,192.86Z" style="fill:#94b9a7"/><path d="M112.42,193.47c-.19.92-.68,1.64-1.67,1.64a1.61,1.61,0,0,1-1.69-1.88,1.5,1.5,0,0,1,1.79-1.41A1.56,1.56,0,0,1,112.42,193.47Z" style="fill:#6e6e71"/><path d="M113,201.62c-.11,1.08-.62,1.76-1.57,1.79a1.61,1.61,0,0,1-1.75-1.79,1.48,1.48,0,0,1,1.67-1.49C112.36,200.14,112.73,200.88,113,201.62Z" style="fill:#6e6e71"/><path d="M310.19,94.49c.17,2,.57,3.73,3.22,3.22-1.67,2.8-4.61,3.7-7.39,4.62-12.8,4.18-25.89,4.53-39.13,2.77a37.15,37.15,0,0,1-11.43-3.39c3.31.47,6.6,1.2,9.91,1.35,10.62.47,21.25,1.32,31.78-1.1A23.86,23.86,0,0,0,310.19,94.49Z" style="fill:#fdc95f"/><path d="M303.09,88.65l2,2c-5.19,3.23-11.1,4.24-16.95,5a90.42,90.42,0,0,1-31-1.23c-4.32-.94-8.78-1.73-12.15-5h0a91.4,91.4,0,0,0,19.29,4c12.76,1,25.31,1,37.28-4.39A8.76,8.76,0,0,1,303.09,88.65Z" style="fill:#fdc95f"/><path d="M252,112.39v-3.17c10.78,4.48,22,4.92,33.49,4a157.56,157.56,0,0,0,16-1.82c-3.08,2.06-6.64,2.54-10.13,3.07a95.45,95.45,0,0,1-35.77-.88C254.39,113.32,253.21,112.8,252,112.39Z" style="fill:#fdc95f"/><path d="M313.4,97.72a1.32,1.32,0,0,1,.08-.3c.7-1-1.63-2.79.25-3,1.39-.16.71,2,.94,3.08Z" style="fill:#fdc95f"/><path d="M246.27,104.07c-.82-.19-1.81-.26-2.05-1.2s.69-1.12,1.37-1.35C245.82,102.37,246,103.22,246.27,104.07Z" style="fill:#fdc95f"/><path d="M310.87,90c.7.2,1.47.37,1.47,1.29s-.79,1.07-1.48,1.27C310.86,91.72,310.87,90.86,310.87,90Z" style="fill:#fdc95f"/><path d="M241.79,106.64c1.91-.7,1.69.8,1.91,1.85A4.66,4.66,0,0,1,241.79,106.64Z" style="fill:#fdc95f"/><path d="M250.18,108.51c-.81-.2-2.34.63-1.88-1.34A3.2,3.2,0,0,1,250.18,108.51Z" style="fill:#fdc95f"/><path d="M245,89.37l-.48-.14.47.15Z" style="fill:#fdc95f"/><path d="M245.6,99l-.54-.58Z" style="fill:#fdc95f"/><path d="M87.7,165.33c2.68-1.53,5.73-1.39,8.64-1.71,7.86-.87,15.78-1.2,23.62-2.46a49,49,0,0,1,6.65-.19q-6,9.85-12,19.73c-.46-1.4-1-2.79-1.36-4.22-.69-2.74-2.72-5.48,0-8.28.52-.54,0-1.16-.3-1.71-1-1.6-5.46-2.74-6.77-1.38-1,1.07-2.59,2.94-1.12,4.33,1.77,1.67,1.47,3.32,1.19,5.18-.4,2.7-.83,5.4-1.25,8.11l-1.22-.23.18.06,0-.18Q96.11,173.59,87.7,165.33Z" style="fill:#f1f0ef"/><path d="M131.92,160.23c1.23,2.61,3,4.9,2.62,8.18-1.22,10-4.15,15.24-15.57,16.35.59-.42,1.13-1.09,1.79-1.24,2.93-.66,3.44-2.39,2.47-5-.15-.39-.17-.83-.3-1.23-.81-2.52-.5-4.34,2.64-4.7,2-.23,2.89-1.27,2.49-3.51-.47-2.7-.53-5.48-.77-8.22C128.72,159.9,130.38,160.45,131.92,160.23Z" style="fill:#424243"/><path d="M115.16,146.73c3.39-.11,3.9.52,3,3.86a9.71,9.71,0,0,1-9.08,7.24,10.29,10.29,0,0,1-10.27-6.11c-.82-1.94-.53-2.85,1.8-3.09C105.48,148.13,110.31,147.38,115.16,146.73Z" style="fill:#e98b8f"/><path d="M127.29,160.91c.24,2.74.3,5.52.77,8.22.4,2.24-.48,3.28-2.49,3.51-3.14.36-3.45,2.18-2.64,4.7.13.4.15.84.3,1.23,1,2.56.46,4.29-2.47,5-.66.15-1.2.82-1.79,1.24-2,1-4.2.48-6.32.5q1-2.28,2-4.56,6-9.87,12-19.73Z" style="fill:#6e6e71"/><path d="M87.7,165.33q8.43,8.23,16.28,17c-2.33.45-3.67-1.29-5.28-2.4-4.26-2.92-7.16-7.23-10.91-10.67-.54-1.26-1.43-2.39-1.4-3.85Z" style="fill:#6e6e71"/><path d="M92.13,138.41c.14-1.35.06-3.15,1.66-3,2.52.18,2.45,2.58,2.57,4.39.08,1.26,0,3.36-1.78,3.1C92.33,142.53,92.32,140.19,92.13,138.41Z" style="fill:#4f433b"/><path d="M118.92,135c.19-1.48,0-3.48,1.75-3.31,2.39.23,2.4,2.63,2.45,4.47,0,1.26.06,3.29-1.83,3C119.16,138.78,119.2,136.55,118.92,135Z" style="fill:#4f433b"/><path d="M74.81,142.55a4.58,4.58,0,0,1-1.47-2.6c.72-.73,1.46-1.93,2.44-.4C76.59,140.8,76.48,142,74.81,142.55Z" style="fill:#aa6c55"/><path d="M228.45,115.52c7.55.15,15.83.55,23.38,4.73,2,1.12,3.93,2.46,3.86,5s-2,3.9-4.08,4.88c-9.55,4.48-19.68,5.09-30,4.35-5.64-.4-11.21-1.17-16.44-3.51a8.61,8.61,0,0,1-.89-.34c-2.24-1.22-4.89-2.25-5.15-5.2-.28-3.12,2.35-4.37,4.59-5.52C211.25,116.09,219.43,115.6,228.45,115.52Zm5.24,7c.6-.24,2.74.94,2.88-.8.13-1.48-2-1.33-3.33-1.73a20.33,20.33,0,0,0-12.51.1c-1.42.45-3.13.71-3.08,2.63s1.77,2.21,3.21,2.52c2.28.48,4.59.82,6.88,1.27.58.12,1.39.24,1.15,1.15-.16.6-.8.69-1.32.67a4.75,4.75,0,0,1-2.16-.34c-1.78-1-3.69-.92-5.58-.86-.88,0-2.29-.4-2.38.87s1.27,1.49,2.34,1.66a17.45,17.45,0,0,1,6.1,1.64,2.58,2.58,0,0,0,2.14.07c2.22-1.18,4.67-1.33,7-1.93,1.3-.33,3-.57,3.06-2.29s-1.61-2.14-2.93-2.43c-2.48-.54-5-.84-7.5-1.32-.66-.13-1.72-.2-1.4-1.27.27-.9,1.25-.8,1.91-.53A9.07,9.07,0,0,0,233.69,122.48Z" style="fill:#eeb23a"/><path d="M327.49,120.08a55.62,55.62,0,0,1,19.27,2.43,29.74,29.74,0,0,1,4.72,1.92c2.11,1.08,4.34,2.45,4.33,5.08s-2.35,4.2-4.48,5.39c-3.78,2.1-8,2.87-12.21,3.49-10.44,1.52-20.79,1.29-31-1.74a17.61,17.61,0,0,1-7.28-3.85c-2.22-2.09-2.16-4.58.14-6.6,4.12-3.63,9.32-4.55,14.45-5.39A48.53,48.53,0,0,1,327.49,120.08Zm-6.09,11.47c-.81,0-1.35-.05-1.88,0-.8.09-2-.33-2.24.66-.32,1.27,1,1.38,1.84,1.73,5.52,2.4,11.05,1.67,16.56,0,1.27-.39,2.4-1.24,2.36-2.68s-1.49-1.71-2.59-1.95c-2.48-.55-5-.91-7.5-1.43-.71-.15-2.08.13-1.76-1.19.25-1,1.46-.9,2.2-.54a14.2,14.2,0,0,0,6.87,1c.6,0,1.43.18,1.62-.63s-.59-1.36-1.28-1.54c-5.29-1.42-10.6-2.34-15.89,0-1.08.48-2.28,1.06-2.23,2.42.07,1.6,1.5,1.94,2.75,2.19,2.39.47,4.81.81,7.21,1.27.66.13,1.72.17,1.44,1.25-.24.91-1.21.8-1.91.68C325,132.39,323.25,131.06,321.4,131.55Z" style="fill:#eeb23a"/><path d="M269.7,168.65c-9.38.19-17.58-.57-25.23-4.38-2.23-1.11-4-2.52-3.93-5.27s2.05-3.93,4.1-4.84c8.94-4,18.4-5.15,28.06-4.42,6.13.46,12.33.9,18.05,3.57a20.48,20.48,0,0,1,3.65,1.93c3.31,2.45,3.24,5.76-.18,8.07-5.77,3.89-12.45,4.67-19.14,5.3A49.17,49.17,0,0,1,269.7,168.65Zm-2.52-12.24a2.9,2.9,0,0,1,3.27-.11c1.58.95,3.27.84,5,.8.91,0,2.22.29,2.41-.93.22-1.4-1.19-1.69-2.17-1.85-4.19-.71-8.32-2.36-12.64-.37-1.67.76-4.36.47-4.27,3s2.64,2.37,4.46,2.74,3.37.5,5,.8c.69.13,1.52.2,1.7,1.53a4.69,4.69,0,0,1-3.86-.22c-2-1.15-4.15-.68-6.25-.74-.63,0-1.42,0-1.51.82s.5,1.17,1.11,1.4a24.84,24.84,0,0,0,18.38-.18,1.88,1.88,0,0,0,1.43-1.9,2,2,0,0,0-1.57-1.82c-2.26-.59-4.54-1.08-6.84-1.53C269.62,157.57,268.29,157.73,267.18,156.41Z" style="fill:#eeb23a"/><path d="M225.8,156.5c-.14.38-.25.87-.78.72-.21-.06-.34-.46-.5-.7Z" style="fill:#eeb23b"/><path d="M273.58,65.12a53.1,53.1,0,0,1,20.82,2.94c3.31,1.14,7.22,2.52,7.22,6.67s-4,5.28-7.15,6.3a66.65,66.65,0,0,1-42,0c-3.19-1-7.07-2.19-7.28-6.23-.21-4.2,3.83-5.32,6.89-6.54A50.6,50.6,0,0,1,273.58,65.12Zm5.53,7c1.19-.37,3.33.75,3.49-.94.14-1.48-2.05-1.34-3.32-1.75a20.52,20.52,0,0,0-12.8.17c-1.4.44-3.23.79-3.13,2.62s1.75,2.24,3.26,2.52c2.19.41,4.39.76,6.58,1.15.62.11,1.47.21,1.41,1-.08,1-1,1-1.75.89a4.94,4.94,0,0,1-1.82-.51c-2-1.09-4.15-.63-6.25-.67-.51,0-1.17,0-1.28.66-.06.31.22.95.47,1,3.32.91,6.68,2.43,10,2.38,2.18,0,4.66-1.07,7-1.62,1.36-.31,2.86-.72,2.82-2.49s-1.52-2.17-2.89-2.44c-2.5-.49-5-.84-7.52-1.31-.64-.13-1.75-.11-1.44-1.21.25-.86,1.23-.8,1.93-.61C275.61,71.43,277.18,72.52,279.11,72.14Z" style="fill:#eeb23a"/><path d="M114.62,180.7q-1,2.28-2,4.56a9.28,9.28,0,0,1-7.63-1.87c0-.22,0-.44,0-.66.42-2.71.85-5.41,1.25-8.11.28-1.86.58-3.51-1.19-5.18-1.47-1.39.08-3.26,1.12-4.33,1.31-1.36,5.76-.22,6.77,1.38.35.55.82,1.17.3,1.71-2.68,2.8-.65,5.54,0,8.28C113.63,177.91,114.16,179.3,114.62,180.7Z" style="fill:#424243"/><path d="M133.6,180.84q.35,7.89.68,15.79c-2.76-2.93-4.13-6.62-5.6-10.25a1.71,1.71,0,0,1,.67-2.22C130.79,183.08,132.19,182,133.6,180.84Z" style="fill:#424243"/><path d="M105,182.73c0,.22,0,.44,0,.66l-1.27-.89Z" style="fill:#6e6e71"/><path d="M177.18,162.19c.17.29.34.59.52.88C177.52,162.78,177.35,162.48,177.18,162.19Z" style="fill:#bb9a74"/><path d="M191.28,192.3c-.6-.09-1.43,0-1.42-.87s.78-.88,1.39-1Z" style="fill:#fdc95f"/><path d="M196.37,198.1c-.83.49-1.09,0-1.25-.71Z" style="fill:#fdc95f"/><path d="M227.07,163.5l-1.91,0C225.78,162.16,226.41,162.1,227.07,163.5Z" style="fill:#eeb23b"/><path d="M211.9,250.89a1.61,1.61,0,0,1,2.35.43A1.91,1.91,0,0,1,211.9,250.89Z" style="fill:#e2a935"/><path d="M202.82,249.23c1.12.05,2.35-.29,3.12.92C204.67,250.62,203.77,249.83,202.82,249.23Z" style="fill:#e2a935"/><path d="M208.6,250.41c.68-.54,1.29-.55,1.77.25A1.44,1.44,0,0,1,208.6,250.41Z" style="fill:#e2a935"/><path d="M227.75,225.59c0-.21,0-.41-.05-.61a2,2,0,0,1,.16.4C227.88,225.44,227.79,225.52,227.75,225.59Z" style="fill:#eeb23b"/><path d="M83.23,203.16l.6.64c-.68.26-.43-.4-.62-.62Z" style="fill:#fad9ba"/><path d="M81.3,200.63l-.65-1.28,0,0,.66,1.29Z" style="fill:#fad9ba"/><path d="M82.58,202.54l-.65-1.28,0,0,.66,1.28Z" style="fill:#fad9ba"/><path d="M82.61,202.52l.62.64,0,0-.63-.64Z" style="fill:#fad9ba"/><path d="M81.33,200.61l.62.63,0,0-.63-.63Z" style="fill:#fad9ba"/><polygon points="80.65 199.35 80.55 199.23 80.67 199.32 80.65 199.35" style="fill:#fad9ba"/><path d="M233.69,122.48a9.07,9.07,0,0,1-5.5-.92c-.66-.27-1.64-.37-1.91.53-.32,1.07.74,1.14,1.4,1.27,2.49.48,5,.78,7.5,1.32,1.32.29,3,.75,2.93,2.43s-1.76,2-3.06,2.29c-2.35.6-4.8.75-7,1.93a2.58,2.58,0,0,1-2.14-.07,17.45,17.45,0,0,0-6.1-1.64c-1.07-.17-2.43-.39-2.34-1.66s1.5-.85,2.38-.87c1.89-.06,3.8-.19,5.58.86a4.75,4.75,0,0,0,2.16.34c.52,0,1.16-.07,1.32-.67.24-.91-.57-1-1.15-1.15-2.29-.45-4.6-.79-6.88-1.27-1.44-.31-3.15-.62-3.21-2.52s1.66-2.18,3.08-2.63a20.33,20.33,0,0,1,12.51-.1c1.28.4,3.46.25,3.33,1.73C236.43,123.42,234.29,122.24,233.69,122.48Z" style="fill:#fdc95f"/><path d="M321.4,131.55c1.85-.49,3.61.84,5.57,1.2.7.12,1.67.23,1.91-.68.28-1.08-.78-1.12-1.44-1.25-2.4-.46-4.82-.8-7.21-1.27-1.25-.25-2.68-.59-2.75-2.19-.05-1.36,1.15-1.94,2.23-2.42,5.29-2.36,10.6-1.44,15.89,0,.69.18,1.49.62,1.28,1.54s-1,.61-1.62.63a14.2,14.2,0,0,1-6.87-1c-.74-.36-1.95-.45-2.2.54-.32,1.32,1.05,1,1.76,1.19,2.49.52,5,.88,7.5,1.43,1.1.24,2.54.47,2.59,1.95s-1.09,2.29-2.36,2.68c-5.51,1.71-11,2.44-16.56,0-.81-.35-2.16-.46-1.84-1.73.25-1,1.44-.57,2.24-.66C320.05,131.5,320.59,131.55,321.4,131.55Z" style="fill:#fdc95f"/><path d="M267.18,156.41c1.11,1.32,2.44,1.16,3.65,1.39,2.3.45,4.58.94,6.84,1.53a2,2,0,0,1,1.57,1.82,1.88,1.88,0,0,1-1.43,1.9,24.84,24.84,0,0,1-18.38.18c-.61-.23-1.2-.7-1.11-1.4s.88-.84,1.51-.82c2.1.06,4.25-.41,6.25.74a4.69,4.69,0,0,0,3.86.22c-.18-1.33-1-1.4-1.7-1.53-1.67-.3-3.37-.46-5-.8s-4.37-.35-4.46-2.74,2.6-2.19,4.27-3c4.32-2,8.45-.34,12.64.37,1,.16,2.39.45,2.17,1.85-.19,1.22-1.5.91-2.41.93-1.69,0-3.38.15-5-.8A2.9,2.9,0,0,0,267.18,156.41Z" style="fill:#fdc95f"/><path d="M279.11,72.14c-1.93.38-3.5-.71-5.22-1.16-.7-.19-1.68-.25-1.93.61-.31,1.1.8,1.08,1.44,1.21,2.5.47,5,.82,7.52,1.31,1.37.27,2.85.69,2.89,2.44S282.35,78.73,281,79c-2.36.55-4.84,1.59-7,1.62-3.32,0-6.68-1.47-10-2.38-.25-.07-.53-.71-.47-1,.11-.64.77-.67,1.28-.66,2.1,0,4.25-.42,6.25.67a4.94,4.94,0,0,0,1.82.51c.72.06,1.67.09,1.75-.89.06-.77-.79-.87-1.41-1-2.19-.39-4.39-.74-6.58-1.15-1.51-.28-3.17-.82-3.26-2.52s1.73-2.18,3.13-2.62a20.52,20.52,0,0,1,12.8-.17c1.27.41,3.46.27,3.32,1.75C282.44,72.89,280.3,71.77,279.11,72.14Z" style="fill:#fdc95f"/><rect y="66" width="48" height="181" style="fill:none"/><rect x="365" y="86" width="48" height="181" style="fill:none"/><rect x="72" width="245" height="55" style="fill:none"/></g></g></g></svg>