<svg xmlns="http://www.w3.org/2000/svg" viewBox="0 0 72.65 108.24"><title>tengolaidea</title><g id="Layer_2" data-name="Layer 2"><g id="Layer_1-2" data-name="Layer 1"><path d="M70.23,35.33a20.94,20.94,0,0,1-.53,8.52c-2,8.4-6.77,11.82-15.22,10.32-2.83-.5-3.25.23-2.89,2.72,1.63,11.33.64,22.62-.71,33.9-.42,3.57-2.06,6.64-3.27,9.89-.6,1.59-.87,2.69,1.59,2.17,2.66-.57,4.1,1.25,5.32,3.25-3.42,3.16-9.32,2.75-10.56-.74,1-5.49,2.8-10.89,2.17-16.61-.17-1.52-.2-3.14-2.49-2.76-6.57,1.12-13.18.81-19.79.67-1.16,0-2.3,0-2.72,1.36-1.55,5.07-3.08,10.15-4.81,15.84,2.81-1,5.15-1.33,7,.75.45,1.19,1.08,2.75-.79,2.94-3.11.3-6.43,1.13-9.15-1.42a75.83,75.83,0,0,0,2.2-21.64,2.5,2.5,0,0,0,2.87-2.59c0-1.1-1-1.54-1.92-2-1.93-.86-2.19.93-3,1.84a9.79,9.79,0,0,0-.92,1.57,16,16,0,0,1-5.16-2.93c-11-8.11-9.73-19.45,2.77-25.34,1.34,0,2.7.17,3.89-.69,2.91-.78,5.78-1.78,8.87-1.42a3.22,3.22,0,0,0,.16.61c-2.13,5.57,5.16,5.49,5.91,9.7.26,1.49,3.78,1.76,6.05,1.63l0,0,.9.69a4.39,4.39,0,0,0,2.81-.34,11.53,11.53,0,0,1,2-1c5.89-1.69,3.13-8.15,6.25-11.42.43-.45-.09-2-1.39-2.19l.67-2.21,3-.77c10.76,5,15.54,2.05,15.94-9.85,0-1,.07-2,.1-3ZM14.29,75.78Q13.12,69.93,12,64.1c-.17-.84-.4-1.68-.6-2.53s-.42-1.59-1.72-1C5.52,62.24,3.53,68.1,6,71.86a17.69,17.69,0,0,0,6,5.45C13.88,78.45,14.43,77.74,14.29,75.78Z" style="fill:#434444"/><path d="M14.14,54.4c-1.19.86-2.55.71-3.89.69-2.68-6.3-5.94-12.36-7.7-19C1.46,32,.38,27.86,1.19,23.54c.39-2.05,1.12-4.34,3-4.84,3.43-.9,4.24-3.57,5.79-6.08,4-6.4,10.37-8.11,17.45-8a8.2,8.2,0,0,1,2.22.3C35.23,6.51,40.35,6.76,43.74,0c3.43,8.28,1.46,14.59-3.68,20.28a43.47,43.47,0,0,1-17.54,6.89c-6.83,1.21-6.83,1.23-6.33,8.1A2.76,2.76,0,0,1,16,36c-1.36-.07-3-1-3.75,1.06-.38,1.12-.41,2.86.68,2.91,4.3.19,2.14,2.86,1.78,4.5a28.56,28.56,0,0,1-2.53,7.37C10.6,54.79,12.27,54.51,14.14,54.4Z" style="fill:#50433b"/><path d="M14.14,54.4c-1.87.11-3.54.39-2-2.53a28.56,28.56,0,0,0,2.53-7.37c.36-1.64,2.52-4.31-1.78-4.5-1.09,0-1.06-1.79-.68-2.91C13,35,14.65,36,16,36a2.76,2.76,0,0,0,.18-.76c-.5-6.87-.5-6.89,6.33-8.1a43.47,43.47,0,0,0,17.54-6.89c6.22,8.07,8.54,17.45,9.29,27.37l-3,.77A144.88,144.88,0,0,0,23,53C19.92,52.62,17.05,53.62,14.14,54.4ZM40.39,41.81c0-2-.33-3.39-2.52-2.86-2.54.62-5.08,1.28-7.58,2.06-2.09.66-2.39,2.13-1.11,3.77,1.79,2.28,4.23,2.4,6.8,1.65S40.25,44.36,40.39,41.81Zm-.68-13.62c-1-.09-1.36.64-1.34,1.37,0,1.48.2,3.11,1.92,3.56,1,.25,1.08-.84,1.07-1.54C41.33,30.22,41.19,28.85,39.71,28.19ZM23.44,32.73c-1.21.28-1.13,1.22-1.09,2.06.07,1.27.39,2.61,1.77,2.92,1.23.28,1.27-.9,1.24-1.74A3.28,3.28,0,0,0,23.44,32.73Z" style="fill:#f8d8b9"/><path d="M64.35,19c-.91-1.6-1.82-3.22-2.75-4.81-1.57-2.7-1.47-5.31.83-7.44s5-2.46,7.5-.66A5.84,5.84,0,0,1,72,13.7c-.79,1.81-2.07,3.39-2.44,5.39Z" style="fill:#f7c545"/><path d="M64.35,19l5.25.05c.61,1.35.83,2.59-.74,3.52a3.5,3.5,0,0,1-3.85,0C63.56,21.72,63.76,20.39,64.35,19Z" style="fill:#dadce1"/><path d="M12.64,83.36a9.79,9.79,0,0,1,.92-1.57c.78-.91,1-2.7,3-1.84.92.41,1.95.85,1.92,2a2.5,2.5,0,0,1-2.87,2.59Z" style="fill:#f8d8b9"/><path d="M23,53a144.88,144.88,0,0,1,23.33-4.56c-.22.73-.44,1.47-.67,2.21-2.77,3-3.44,7.15-6,10.28-.72-2.38-2.78-4.44-1.54-7.29.43-1-.44-1.64-1.24-2a3.2,3.2,0,0,0-2.85.4c-.72.45-1.27,1.55-.75,2.25,2,2.63.58,5.47.74,8.21-4.21-2.28-6.85-6.47-10.91-8.93A3.22,3.22,0,0,1,23,53Z" style="fill:#f1efee"/><path d="M34.08,62.52c-.16-2.74,1.25-5.58-.74-8.21-.52-.7,0-1.8.75-2.25a3.2,3.2,0,0,1,2.85-.4c.8.32,1.67,1,1.24,2-1.24,2.85.82,4.91,1.54,7.29l-.9,4.32a4.39,4.39,0,0,1-2.81.34l-.9-.69,0,0Z" style="fill:#b25d39"/><path d="M38.82,65.23l.9-4.32c2.51-3.13,3.18-7.31,6-10.28,1.3.23,1.82,1.74,1.39,2.19-3.12,3.27-.36,9.73-6.25,11.42A11.53,11.53,0,0,0,38.82,65.23Z" style="fill:#807f7f"/><path d="M34.08,62.52l1.05,2.4c-2.27.13-5.79-.14-6.05-1.63-.75-4.21-8-4.13-5.91-9.7C27.23,56.05,29.87,60.24,34.08,62.52Z" style="fill:#807f7f"/><path d="M35.11,64.88l.9.69Z" style="fill:#807f7f"/><path d="M40.39,41.81c-.14,2.55-1.94,3.9-4.41,4.62s-5,.63-6.8-1.65c-1.28-1.64-1-3.11,1.11-3.77,2.5-.78,5-1.44,7.58-2.06C40.06,38.42,40.43,39.82,40.39,41.81Z" style="fill:#ea7f86"/><path d="M39.71,28.19c1.48.66,1.62,2,1.65,3.39,0,.7-.12,1.79-1.07,1.54-1.72-.45-1.88-2.08-1.92-3.56C38.35,28.83,38.67,28.1,39.71,28.19Z" style="fill:#50433b"/><path d="M23.44,32.73A3.28,3.28,0,0,1,25.36,36c0,.84,0,2-1.24,1.74-1.38-.31-1.7-1.65-1.77-2.92C22.31,34,22.23,33,23.44,32.73Z" style="fill:#50433b"/><circle cx="36.69" cy="70.78" r="0.77" style="fill:#807f7f"/><circle cx="36.69" cy="74.78" r="0.77" style="fill:#807f7f"/><path d="M67.54,25c1.22.16.53,3.79.15,5.43a2.53,2.53,0,0,1,2.22.19c2.74,1.29.28,4.89.28,4.89L65.42,35S66,24.73,67.54,25Z" style="fill:#fddcbf"/></g></g></svg>