<svg xmlns="http://www.w3.org/2000/svg" viewBox="0 0 1598.33 392.08"><title>textosinboton</title><g id="Layer_2" data-name="Layer 2"><g id="Layer_1-2" data-name="Layer 1"><circle cx="196.04" cy="196.04" r="196.04" style="fill:#ffd34e"/><path d="M179.1,202c0,8.67,6.4,13.32,15.8,13.32,9.6,0,17.14-5.37,17.14-14.46h5.47c0,12.6-10.74,19.72-22.61,19.72-11.67,0-21.27-6.4-21.27-18.58,0-15.59,20.34-20.44,20.34-36.24h5.47C199.44,183.91,179.1,188.25,179.1,202Zm21.07-46.56h-6.92v-8.26h6.92Z"/><path d="M264,193.62v5.16H223.71V126.51h39.74v5.16H229.18v28.08h31.69v5.17H229.18v28.7Z"/><path d="M269.75,178.75h5.58c0,10,7.74,15.9,19.51,15.9,10,0,17.24-5.58,17.24-13.73,0-9.09-8.36-12.39-17.55-15.8-10.84-4.13-22.71-7.64-22.71-21.37,0-11.25,9.91-18.38,21.57-18.38,11.88,0,22.1,7.44,22.1,19.72H310c0-8.77-7-14.45-16.63-14.45s-16.1,5.37-16.1,13.11c0,9.4,8.36,12.49,17.65,16,10.84,4.24,22.72,8.06,22.72,21.17,0,11.66-10.53,19-22.82,19C280.8,199.91,269.75,192.27,269.75,178.75Z"/><path d="M366.18,131.67H345.53v67.11H340V131.67H319.31v-5.16h46.87Z"/><path d="M410.89,180.4H374.75l-7.12,18.38h-5.78l28.08-72.27h5.78l28,72.27h-5.78Zm-2-5.16-16.11-42-16.11,42Zm-15.39-56h-5.06l8.26-13.11h6.2Z"/><path d="M425.55,178.75h5.57c0,10,7.75,15.9,19.52,15.9,10,0,17.24-5.58,17.24-13.73,0-9.09-8.36-12.39-17.55-15.8-10.84-4.13-22.72-7.64-22.72-21.37,0-11.25,9.92-18.38,21.58-18.38,11.87,0,22.1,7.44,22.1,19.72h-5.48c0-8.77-7-14.45-16.62-14.45s-16.1,5.37-16.1,13.11c0,9.4,8.36,12.49,17.65,16,10.84,4.24,22.71,8.06,22.71,21.17,0,11.66-10.53,19-22.81,19C436.6,199.91,425.55,192.27,425.55,178.75Z"/><path d="M504.12,162.64c0-20.64,15.59-37.27,37.58-37.27,15.59,0,29,9.5,33.55,23.13h-6c-4.13-10.53-15-17.86-27.56-17.86-19,0-32.11,14.25-32.11,32s13.11,32,32.11,32c12.59,0,23.43-7.33,27.56-17.86h6c-4.54,13.63-17.86,23.12-33.55,23.12C519.71,199.91,504.12,183.29,504.12,162.64Z"/><path d="M580.42,162.64a37.27,37.27,0,1,1,37.27,37.27A37.06,37.06,0,0,1,580.42,162.64Zm69.06,0a31.8,31.8,0,1,0-31.79,32A31.66,31.66,0,0,0,649.48,162.64Z"/><path d="M712.77,126.51v72.27H708l-36.85-61.33v61.33h-5.48V126.51h4.75l36.86,61.32V126.51Z"/><path d="M733.11,131.67v31h33v5.17h-33v31h-5.47V126.51h39.75v5.16Z"/><path d="M775.34,177.92V126.51h5.47v51.41c0,10.64,7.33,16.73,18.79,16.73s18.69-6.09,18.69-16.73V126.51h5.57v51.41c0,14.15-10.63,22-24.26,22S775.34,192.07,775.34,177.92Z"/><path d="M884.67,126.51v72.27h-4.75l-36.85-61.33v61.33h-5.48V126.51h4.75l36.86,61.32V126.51Z"/><path d="M962.83,162.64c0,19.93-14.15,36.14-34.07,36.14H899.54V126.51h29.22C948.68,126.51,962.83,142.72,962.83,162.64Zm-5.37,0c0-17.13-11.67-31-28.7-31H905v62h23.75C945.79,193.62,957.46,179.78,957.46,162.64Z"/><path d="M979,126.51v72.27h-5.48V126.51Z"/><path d="M1057.19,162.64c0,19.93-14.14,36.14-34.07,36.14H993.9V126.51h29.22C1043.05,126.51,1057.19,142.72,1057.19,162.64Zm-5.37,0c0-17.13-11.66-31-28.7-31H999.37v62h23.75C1040.16,193.62,1051.82,179.78,1051.82,162.64Z"/><path d="M1063.8,162.64a37.27,37.27,0,1,1,37.27,37.27A37.06,37.06,0,0,1,1063.8,162.64Zm69.07,0a31.8,31.8,0,1,0-31.8,32A31.66,31.66,0,0,0,1132.87,162.64Z"/><path d="M1179.84,144c0-8.68-6.4-13.32-15.69-13.32-9.7,0-17.14,5.37-17.14,14.45h-5.57c0-12.59,10.84-19.72,22.71-19.72,11.56,0,21.17,6.4,21.17,18.59,0,15.59-20.24,20.44-20.24,36.23h-5.57C1159.51,162,1179.84,157.69,1179.84,144Zm-20.95,46.56h6.81v8.26h-6.81Z"/><path d="M182.53,243.16a34,34,0,0,1,12.19,13.11,39.88,39.88,0,0,1,0,36.34,33.93,33.93,0,0,1-12.19,13.12,32.46,32.46,0,0,1-17.5,4.85H137.16V238.31H165A32.37,32.37,0,0,1,182.53,243.16Zm-1,61A31.49,31.49,0,0,0,193,291.68a38.46,38.46,0,0,0,0-34.48,31.55,31.55,0,0,0-11.41-12.44,30.49,30.49,0,0,0-16.52-4.6H139.22v68.56H165A30.4,30.4,0,0,0,181.55,304.12Z"/><path d="M250.73,308.72v1.86h-38.2V238.31h37.68v1.85H214.59v33h33v1.86h-33v33.66Z"/><path d="M264.71,306.5a16.61,16.61,0,0,1-6.76-14H260A15.2,15.2,0,0,0,266,305q5.94,4.75,16.57,4.75a24.73,24.73,0,0,0,10.54-2.11A15.93,15.93,0,0,0,300,301.8a15.06,15.06,0,0,0,2.38-8.26,13.58,13.58,0,0,0-2.74-8.77,19.25,19.25,0,0,0-6.45-5.27A114.18,114.18,0,0,0,282.11,275l-2.27-.83a104.61,104.61,0,0,1-10.69-4.49,18.73,18.73,0,0,1-6.66-5.63,15,15,0,0,1-2.68-9.18,15.63,15.63,0,0,1,2.68-8.94A18.58,18.58,0,0,1,270,239.6a25,25,0,0,1,11-2.33,23.71,23.71,0,0,1,10.53,2.38,20,20,0,0,1,7.74,6.5,15.66,15.66,0,0,1,2.89,9.19h-2.06a14.43,14.43,0,0,0-2.43-8.05,17.18,17.18,0,0,0-6.82-5.94,21.5,21.5,0,0,0-9.85-2.22,22.61,22.61,0,0,0-10.28,2.17,16.12,16.12,0,0,0-6.55,5.78,14.26,14.26,0,0,0-2.28,7.75,13,13,0,0,0,2.53,8.2,18.55,18.55,0,0,0,6.3,5.17,93.87,93.87,0,0,0,10.07,4.18l2.17.82q7.74,3,11.66,5a20.79,20.79,0,0,1,6.87,5.73,15,15,0,0,1,2.94,9.6,16.15,16.15,0,0,1-2.84,9.45,18.71,18.71,0,0,1-7.84,6.35,26.92,26.92,0,0,1-11.21,2.27Q271.48,311.61,264.71,306.5Z"/><path d="M330.27,306.65A35.49,35.49,0,0,1,317,293.18a39,39,0,0,1,0-37.48,35.49,35.49,0,0,1,13.31-13.47,37.23,37.23,0,0,1,19.05-5,36.53,36.53,0,0,1,14,2.74,34.24,34.24,0,0,1,11.51,7.64A31.37,31.37,0,0,1,382.05,259h-2.17A30.07,30.07,0,0,0,368,244.6a33.44,33.44,0,0,0-18.69-5.47,34.66,34.66,0,0,0-18,4.75,34.25,34.25,0,0,0-12.55,12.8,37.11,37.11,0,0,0,0,35.57,33.61,33.61,0,0,0,12.55,12.8,34.82,34.82,0,0,0,18,4.7A33.36,33.36,0,0,0,368,304.28a30.05,30.05,0,0,0,11.87-14.35h2.27a32.52,32.52,0,0,1-12.64,15.69,35.47,35.47,0,0,1-20.19,6A37.13,37.13,0,0,1,330.27,306.65Z"/><path d="M398.93,306.09q-6.45-5.52-6.45-15.13V238.31h2.06V291q0,8.48,5.63,13.63t15.54,5.16q9.92,0,15.54-5.16T436.87,291V238.31h2.07V291q0,9.6-6.45,15.13t-16.78,5.52Q405.39,311.61,398.93,306.09Z"/><path d="M506.72,272.38a25.3,25.3,0,0,1,1.5,26.32,23,23,0,0,1-8.21,8.68,21.82,21.82,0,0,1-11.62,3.2H455.46V238.31H482.3a17.49,17.49,0,0,1,8.52,2.06A15.17,15.17,0,0,1,496.7,246a15.49,15.49,0,0,1-1.7,18A21.25,21.25,0,0,1,506.72,272.38Zm-49.2-32.22v22.93h31a20.75,20.75,0,0,1,4.33.41,13.16,13.16,0,0,0,2.89-4.39,13.93,13.93,0,0,0,1-5.32,13.34,13.34,0,0,0-7-11.82,15.27,15.27,0,0,0-7.43-1.81ZM499,305.78a20.68,20.68,0,0,0,7.43-7.95,23.89,23.89,0,0,0,0-22,20.78,20.78,0,0,0-7.38-7.95,19.45,19.45,0,0,0-10.58-2.95h-31v43.78h30.87A19.81,19.81,0,0,0,499,305.78Z"/><path d="M572.74,310.58l-27.36-31H524.63v31h-2.06V238.31h22.71a20.07,20.07,0,0,1,10.32,2.78,20.88,20.88,0,0,1,7.54,7.54,20.45,20.45,0,0,1,.36,20A21.25,21.25,0,0,1,557,276a20,20,0,0,1-9.19,3.51l27.46,31.08Zm-48.11-32.83h20.65a17.83,17.83,0,0,0,9.29-2.53,19,19,0,0,0,6.76-6.87,18.71,18.71,0,0,0,0-18.79,19,19,0,0,0-6.76-6.87,17.83,17.83,0,0,0-9.29-2.53H524.63Z"/><path d="M621.68,308.72v1.86h-38.2V238.31h37.68v1.85H585.54v33h33v1.86h-33v33.66Z"/><path d="M700.14,240.16H678.46v70.42H676.4V240.16H654.72v-1.85h45.42Z"/><path d="M715.89,306.09q-6.45-5.52-6.45-15.13V238.31h2.06V291q0,8.48,5.63,13.63t15.54,5.16q9.9,0,15.53-5.16T753.83,291V238.31h2.07V291q0,9.6-6.46,15.13t-16.77,5.52Q722.34,311.61,715.89,306.09Z"/><path d="M833.33,241.09a20.86,20.86,0,0,1,7.53,7.54,20.5,20.5,0,0,1,0,20.65,20.78,20.78,0,0,1-7.53,7.54A20,20,0,0,1,823,279.6H802.35v31h-2.06V238.31H823A20.13,20.13,0,0,1,833.33,241.09Zm-1,34.13a19.06,19.06,0,0,0,6.77-6.87,18.71,18.71,0,0,0,0-18.79,19.06,19.06,0,0,0-6.77-6.87,17.83,17.83,0,0,0-9.29-2.53H802.35v37.59H823A17.83,17.83,0,0,0,832.29,275.22Z"/><path d="M906.22,310.58l-27.36-31H858.1v31H856V238.31h22.71a20.13,20.13,0,0,1,10.33,2.78,20.86,20.86,0,0,1,7.53,7.54,20.49,20.49,0,0,1,.37,20,21.27,21.27,0,0,1-6.56,7.38,20,20,0,0,1-9.19,3.51l27.46,31.08ZM858.1,277.75h20.65a17.89,17.89,0,0,0,9.3-2.53,19.11,19.11,0,0,0,6.76-6.87,18.71,18.71,0,0,0,0-18.79,19.11,19.11,0,0,0-6.76-6.87,17.89,17.89,0,0,0-9.3-2.53H858.1Z"/><path d="M928.26,306.6a37.39,37.39,0,0,1-13.53-13.52,37.23,37.23,0,0,1,0-37.27,37.5,37.5,0,0,1,13.53-13.53,37.16,37.16,0,0,1,37.27,0,37.5,37.5,0,0,1,13.53,13.53,37.23,37.23,0,0,1,0,37.27,37.39,37.39,0,0,1-13.53,13.52,37.16,37.16,0,0,1-37.27,0ZM964.5,305a35.39,35.39,0,0,0,0-61.12,35,35,0,0,0-35.21,0,35.38,35.38,0,0,0,0,61.12,35,35,0,0,0,35.21,0Z"/><path d="M1042.86,243.16A33.87,33.87,0,0,1,1055,256.27a39.8,39.8,0,0,1,0,36.34,33.83,33.83,0,0,1-12.18,13.12,32.49,32.49,0,0,1-17.5,4.85H997.48V238.31h27.88A32.4,32.4,0,0,1,1042.86,243.16Zm-1,61a31.49,31.49,0,0,0,11.41-12.44,38.46,38.46,0,0,0,0-34.48,31.55,31.55,0,0,0-11.41-12.44,30.49,30.49,0,0,0-16.52-4.6H999.55v68.56h25.81A30.4,30.4,0,0,0,1041.88,304.12Z"/><path d="M1077.76,306.09q-6.45-5.52-6.46-15.13V238.31h2.07V291q0,8.48,5.63,13.63t15.53,5.16q9.92,0,15.54-5.16T1115.7,291V238.31h2.06V291q0,9.6-6.45,15.13t-16.78,5.52Q1084.21,311.61,1077.76,306.09Z"/><path d="M1148.27,306.65A35.45,35.45,0,0,1,1135,293.18a39,39,0,0,1,0-37.48,35.45,35.45,0,0,1,13.32-13.47,37.23,37.23,0,0,1,19-5,36.53,36.53,0,0,1,14,2.74,34.24,34.24,0,0,1,11.51,7.64,31.37,31.37,0,0,1,7.23,11.31h-2.17A30.13,30.13,0,0,0,1186,244.6a33.48,33.48,0,0,0-18.69-5.47,34.64,34.64,0,0,0-18,4.75,34.25,34.25,0,0,0-12.55,12.8,37.11,37.11,0,0,0,0,35.57,33.61,33.61,0,0,0,12.55,12.8,34.79,34.79,0,0,0,18,4.7,33.4,33.4,0,0,0,18.69-5.47,30.11,30.11,0,0,0,11.87-14.35h2.27a32.52,32.52,0,0,1-12.64,15.69,35.47,35.47,0,0,1-20.19,6A37.13,37.13,0,0,1,1148.27,306.65Z"/><path d="M1247.65,240.16H1226v70.42h-2.07V240.16h-21.68v-1.85h45.43Z"/><path d="M1268.24,306.6a37.44,37.44,0,0,1-13.52-13.52,37.16,37.16,0,0,1,0-37.27,37.55,37.55,0,0,1,13.52-13.53,37.18,37.18,0,0,1,37.28,0A37.55,37.55,0,0,1,1319,255.81a37.16,37.16,0,0,1,0,37.27,37.44,37.44,0,0,1-13.52,13.52,37.18,37.18,0,0,1-37.28,0Zm36.24-1.6a35.38,35.38,0,0,0,0-61.12,35,35,0,0,0-35.2,0,35,35,0,0,0-12.81,12.86A35.36,35.36,0,0,0,1269.28,305a35,35,0,0,0,35.2,0Z"/><path d="M1353.37,238.31v73.5h-5.56v-73.5Z"/><path d="M1432.85,275.06c0,20.26-14.38,36.75-34.64,36.75h-29.72v-73.5h29.72C1418.47,238.31,1432.85,254.79,1432.85,275.06Zm-5.46,0c0-17.43-11.86-31.5-29.18-31.5h-24.15v63h24.15C1415.53,306.56,1427.39,292.49,1427.39,275.06Z"/><path d="M1484.72,306.56v5.25h-40.94v-73.5h40.42v5.25h-34.86v28.56h32.23v5.25h-32.23v29.19Z"/><path d="M1537.54,293.12h-36.75l-7.25,18.69h-5.88l28.56-73.5h5.88l28.46,73.5h-5.88Zm-2-5.25-16.38-42.74-16.38,42.74Z"/><path d="M1598.33,306.56v5.25h-40.21v-73.5h5.56v68.25Z"/><line x1="595.06" y1="62.17" x2="1592.29" y2="66.83" style="fill:none;stroke:#000;stroke-miterlimit:10;stroke-width:10px"/></g></g></svg>