<svg xmlns="http://www.w3.org/2000/svg" viewBox="0 0 591.8 67.11"><title>todito</title><g id="b3efacfb-d288-48b2-9765-725ea53ad350" data-name="Layer 2"><g id="e59fc1b2-dc66-43e5-8e87-a4a1d075e1d0" data-name="Layer 1"><path d="M0,1.31H34.2C49.12,1.31,56,8.39,56,17.79c0,7.66-4.91,12-9.89,13.75C52.21,33.36,58.44,38,58.44,46.71,58.44,59.07,48.73,65.8,34,65.8H0ZM31.25,27C39,27,42,24,42,19.38c0-5.68-4.42-7.74-10.5-7.74H13.35V27ZM13.35,55.53H32c6.53,0,12.2-2,12.2-9.23,0-6-4.34-9-12.28-9H13.35Z" style="fill:#ffd34e"/><path d="M75.66,49.58,69.17,65.8h-14L81.74,1.31H98.9L126.7,65.8H112l-6.86-16.22Zm25.59-11C94.64,22.82,91.47,15,89.94,10.25h-.09c-1.41,4.63-5.15,14.84-10.52,28.33Z" style="fill:#ffd34e"/><path d="M126.66,65.8V1.31h16.08c16.95,25.25,28.53,40.6,32.45,47.94h.18c-.61-7.3-.52-18.76-.52-29.32V1.31h12.47V65.8h-15.1c-7.21-10.66-29.34-43.59-33.43-51h-.18c.52,8.08.52,17.23.52,28.68V65.8Z" style="fill:#ffd34e"/><path d="M195.7,1.31h13.55V30.66c9.48-8.53,20.62-18.25,32.88-29.35h16.79L227.83,29,260.7,65.8h-17L218,36.43l-8.79,7.23V65.8H195.7Z" style="fill:#ffd34e"/><path d="M282.89,1.31V65.8H269.34V1.31Z" style="fill:#ffd34e"/><path d="M291.25,65.8V1.31h16.08c16.95,25.25,28.53,40.6,32.45,47.94H340c-.62-7.3-.53-18.76-.53-29.32V1.31h12.47V65.8h-15.1c-7.2-10.66-29.34-43.59-33.43-51h-.18c.52,8.08.52,17.23.52,28.68V65.8Z" style="fill:#ffd34e"/><path d="M361.3,1.31h34.2c14.92,0,21.79,7.08,21.79,16.48,0,7.66-4.91,12-9.9,13.75,6.11,1.82,12.35,6.42,12.35,15.17,0,12.36-9.72,19.09-24.46,19.09h-34ZM392.55,27c7.74,0,10.7-2.95,10.7-7.61,0-5.68-4.42-7.74-10.5-7.74h-18.1V27Zm-17.9,28.54h18.6c6.53,0,12.19-2,12.19-9.23,0-6-4.34-9-12.28-9H374.65Z"/><path d="M473.89,37.68H437V54.82H477.9l-1.61,11H423.48V1.31h52.38v11H437V26.7h36.86Z"/><path d="M489.37,46.66c2,6.2,6.81,10.39,18.16,10.39,10.88,0,14.41-3.66,14.41-8.41,0-5-3.16-8-17.73-10.48-21.41-3.65-25.67-10.54-25.67-19.23C478.54,6.55,490.41,0,505.27,0,527,0,532.7,11.25,533.43,18.43h-13.6c-1-3.58-3.38-8.35-15-8.35-8,0-12.53,2.63-12.53,7.54,0,4.22,2.65,6.57,15.57,8.83,24.11,4.25,27.92,11.6,27.92,20.81,0,10.89-8.58,19.85-29.5,19.85-19.48,0-28.57-8.75-30.57-20.45Z"/><path d="M555,12.24H531.68V1.31H591.8V12.24H568.56V65.8H555Z"/></g></g></svg>