<svg xmlns="http://www.w3.org/2000/svg" viewBox="0 0 300 90"><title>abrir_catalogo_1</title><g id="Layer_2" data-name="Layer 2"><g id="Layer_1-2" data-name="Layer 1"><rect width="300" height="90" style="fill:#f4f4f4"/><path d="M17.78,27.19a1,1,0,0,0,.49-1.32,1,1,0,0,0-1.33-.5A8.24,8.24,0,0,0,15,26.61a1,1,0,0,0-.1,1.41,1,1,0,0,0,.75.34,1,1,0,0,0,.66-.24A5.92,5.92,0,0,1,17.78,27.19Z" style="fill:#333"/><path d="M21.27,26.65h2a1,1,0,1,0,0-2h-2a1,1,0,0,0,0,2Z" style="fill:#333"/><path d="M27.27,26.65h2a1,1,0,1,0,0-2h-2a1,1,0,0,0,0,2Z" style="fill:#333"/><path d="M23.27,38.65h-2a1,1,0,0,0,0,2h2a1,1,0,1,0,0-2Z" style="fill:#333"/><path d="M35.27,38.65h-2a1,1,0,0,0,0,2h2a1,1,0,0,0,0-2Z" style="fill:#333"/><path d="M29.27,38.65h-2a1,1,0,0,0,0,2h2a1,1,0,1,0,0-2Z" style="fill:#333"/><path d="M17.78,38.11a6.19,6.19,0,0,1-1.44-.92A1,1,0,0,0,15,38.7a8.2,8.2,0,0,0,1.91,1.23,1.06,1.06,0,0,0,.42.09,1,1,0,0,0,.42-1.91Z" style="fill:#333"/><path d="M41.27,38.65h-2a1,1,0,0,0,0,2h2a1,1,0,0,0,0-2Z" style="fill:#333"/><path d="M59.27,38.65h-2a1,1,0,0,0,0,2h2a1,1,0,0,0,0-2Z" style="fill:#333"/><path d="M65.27,38.65h-2a1,1,0,0,0,0,2h2a1,1,0,0,0,0-2Z" style="fill:#333"/><path d="M47.27,38.65h-2a1,1,0,0,0,0,2h2a1,1,0,0,0,0-2Z" style="fill:#333"/><path d="M53.27,38.65h-2a1,1,0,0,0,0,2h2a1,1,0,0,0,0-2Z" style="fill:#333"/><path d="M17.78,68.11a6.19,6.19,0,0,1-1.44-.92A1,1,0,0,0,15,68.7a8.2,8.2,0,0,0,1.91,1.23,1.06,1.06,0,0,0,.42.09,1,1,0,0,0,.42-1.91Z" style="fill:#333"/><path d="M29.27,68.65h-2a1,1,0,1,0,0,2h2a1,1,0,0,0,0-2Z" style="fill:#333"/><path d="M23.27,68.65h-2a1,1,0,1,0,0,2h2a1,1,0,0,0,0-2Z" style="fill:#333"/><path d="M47.27,68.65h-2a1,1,0,0,0,0,2h2a1,1,0,1,0,0-2Z" style="fill:#333"/><path d="M50.27,69.65a1,1,0,0,0,1,1h2a1,1,0,1,0,0-2h-2A1,1,0,0,0,50.27,69.65Z" style="fill:#333"/><path d="M57.27,70.65h2a1,1,0,1,0,0-2h-2a1,1,0,0,0,0,2Z" style="fill:#333"/><path d="M41.27,68.65h-2a1,1,0,0,0,0,2h2a1,1,0,1,0,0-2Z" style="fill:#333"/><path d="M63.27,70.65h2a1,1,0,1,0,0-2h-2a1,1,0,0,0,0,2Z" style="fill:#333"/><path d="M35.27,68.65h-2a1,1,0,0,0,0,2h2a1,1,0,1,0,0-2Z" style="fill:#333"/><path d="M56.27,53.65a4,4,0,1,0,4-4A4,4,0,0,0,56.27,53.65Zm4-2a2,2,0,1,1-2,2A2,2,0,0,1,60.27,51.65Z" style="fill:#333"/><path d="M55.21,20.65l-5.44-5.43a1.12,1.12,0,0,0-1.6,0l-2.05,2-2-2a1.13,1.13,0,0,0-1.61,0L37,20.65H20.27a8,8,0,0,0-8,8V67.5a7.16,7.16,0,0,0,7.15,7.15H72.27v-54ZM49,17.24l3.41,3.41,14,14H61L49.72,23.38a1.06,1.06,0,0,0-1.51,0L37,34.65H31.56l16-16h0Zm9.19,17.41H39.78L49,25.46ZM43.27,17.24l1.44,1.44-16,16H25.86l14-14Zm-23,5.41H35L33,24.71a1,1,0,0,0-.64.64L23,34.65H20.27a6,6,0,0,1,0-12Zm50,36h-11a5,5,0,0,1,0-10h11Zm0-20h-1a1,1,0,0,0,0,2h1v6h-11a7,7,0,0,0,0,14h11v8h-1a1,1,0,0,0,0,2h1v2H19.42a5.16,5.16,0,0,1-5.15-5.15V65.3a1,1,0,0,0,.24-1,6,6,0,0,1-.24-1.69V35.3a1,1,0,0,0,.24-1,1.29,1.29,0,0,1,0-.19l.27.27a2.91,2.91,0,0,0,.27.24c.11.1.22.2.34.29l.29.21.37.25.3.19.41.21L17,36l.43.17.33.12.47.13.32.09.55.09.28,0a7.92,7.92,0,0,0,.85,0h50Zm-1.06-4-8-8h.06a1,1,0,0,0,0-2H59.22l-2-2H70.27v12Z" style="fill:#333"/><path d="M67.27,24.65h-2a1,1,0,0,0,0,2h2a1,1,0,0,0,0-2Z" style="fill:#333"/><rect x="89.76" width="210.24" height="90" style="fill:#3b0099"/><path d="M122.37,50.49h-2.29a1,1,0,0,1-.63-.19,1.06,1.06,0,0,1-.36-.48l-1.19-3.24h-6.59l-1.18,3.24a1.07,1.07,0,0,1-.35.46,1,1,0,0,1-.63.21h-2.3l6.25-15.9h3Zm-10.3-6h5.07l-1.93-5.3c-.09-.23-.19-.51-.29-.83s-.21-.66-.32-1q-.15.57-.3,1c-.1.32-.2.6-.29.85Z" style="fill:#fff"/><path d="M123.15,50.49V34.59h5.49a10.38,10.38,0,0,1,2.67.29,5.07,5.07,0,0,1,1.81.85,3.34,3.34,0,0,1,1,1.33,4.49,4.49,0,0,1,.33,1.76,3.47,3.47,0,0,1-.16,1.07,3.21,3.21,0,0,1-.52,1,3.63,3.63,0,0,1-.88.81,5,5,0,0,1-1.27.61q3.28.75,3.28,3.55a4.66,4.66,0,0,1-.38,1.87,4.15,4.15,0,0,1-1.13,1.48,5.48,5.48,0,0,1-1.81,1,8.07,8.07,0,0,1-2.46.35Zm3-9h2.36a3.93,3.93,0,0,0,2.29-.55,2,2,0,0,0,.78-1.75,2.06,2.06,0,0,0-.7-1.77,3.69,3.69,0,0,0-2.2-.53h-2.53Zm0,2.05v4.66h3a4,4,0,0,0,1.38-.2,2.33,2.33,0,0,0,.89-.52,1.91,1.91,0,0,0,.49-.77,2.94,2.94,0,0,0,.15-.94,2.52,2.52,0,0,0-.17-.93,1.7,1.7,0,0,0-.52-.7,2.24,2.24,0,0,0-.9-.45,5.13,5.13,0,0,0-1.33-.15Z" style="fill:#fff"/><path d="M139.68,44.28v6.21h-3V34.59h4.85a10.26,10.26,0,0,1,2.79.33,5.33,5.33,0,0,1,1.91.94,3.64,3.64,0,0,1,1.08,1.45,4.66,4.66,0,0,1,.35,1.85,4.75,4.75,0,0,1-.24,1.52,4.14,4.14,0,0,1-.68,1.3,4.31,4.31,0,0,1-1.1,1,5.54,5.54,0,0,1-1.49.7,2.92,2.92,0,0,1,1,.92l4,5.87h-2.66a1.3,1.3,0,0,1-.65-.15,1.38,1.38,0,0,1-.46-.44L142,44.8a1.21,1.21,0,0,0-.42-.4,1.44,1.44,0,0,0-.66-.12Zm0-2.13h1.85a4.59,4.59,0,0,0,1.46-.21,2.8,2.8,0,0,0,1-.57,2.3,2.3,0,0,0,.6-.88,3,3,0,0,0,.2-1.11,2.27,2.27,0,0,0-.8-1.86,3.82,3.82,0,0,0-2.44-.65h-1.89Z" style="fill:#fff"/><path d="M153.51,50.49h-3V34.59h3Z" style="fill:#fff"/><path d="M159.28,44.28v6.21h-2.95V34.59h4.85a10.23,10.23,0,0,1,2.78.33,5.33,5.33,0,0,1,1.91.94A3.66,3.66,0,0,1,167,37.31a4.84,4.84,0,0,1,.34,1.85,5,5,0,0,1-.23,1.52,4.38,4.38,0,0,1-.69,1.3,4.31,4.31,0,0,1-1.1,1,5.54,5.54,0,0,1-1.49.7,2.92,2.92,0,0,1,1,.92l4,5.87h-2.66a1.33,1.33,0,0,1-.65-.15,1.48,1.48,0,0,1-.46-.44l-3.34-5.1a1.21,1.21,0,0,0-.42-.4,1.44,1.44,0,0,0-.66-.12Zm0-2.13h1.85a4.55,4.55,0,0,0,1.46-.21,2.8,2.8,0,0,0,1-.57,2.3,2.3,0,0,0,.6-.88,3,3,0,0,0,.2-1.11,2.27,2.27,0,0,0-.8-1.86,3.81,3.81,0,0,0-2.43-.65h-1.9Z" style="fill:#fff"/><path d="M184.1,46.74a.55.55,0,0,1,.42.19l1.16,1.26A6.42,6.42,0,0,1,183.3,50a8.27,8.27,0,0,1-3.39.64,8,8,0,0,1-3.19-.61,7,7,0,0,1-2.41-1.68,7.29,7.29,0,0,1-1.53-2.57,9.59,9.59,0,0,1-.54-3.27,8.76,8.76,0,0,1,.6-3.29,7.42,7.42,0,0,1,1.67-2.56A7.58,7.58,0,0,1,177.09,35a8.82,8.82,0,0,1,3.31-.6,7.8,7.8,0,0,1,3.1.57,7,7,0,0,1,2.27,1.5l-1,1.37a.8.8,0,0,1-.22.23.63.63,0,0,1-.38.1.83.83,0,0,1-.52-.2,6.71,6.71,0,0,0-.67-.42,5,5,0,0,0-2.61-.63,5.32,5.32,0,0,0-2.06.39,4.49,4.49,0,0,0-1.62,1.12,5.06,5.06,0,0,0-1,1.76,6.6,6.6,0,0,0-.38,2.34,6.85,6.85,0,0,0,.38,2.39,5.33,5.33,0,0,0,1,1.76,4.57,4.57,0,0,0,1.53,1.09,4.81,4.81,0,0,0,1.9.38,7.31,7.31,0,0,0,1.09-.07,4,4,0,0,0,.9-.21,3.47,3.47,0,0,0,.78-.36,4.59,4.59,0,0,0,.73-.56,1.11,1.11,0,0,1,.24-.16A.55.55,0,0,1,184.1,46.74Z" style="fill:#fff"/><path d="M201,50.49h-2.29a1,1,0,0,1-.63-.19,1.06,1.06,0,0,1-.36-.48l-1.19-3.24H190l-1.18,3.24a1.07,1.07,0,0,1-.35.46,1,1,0,0,1-.63.21h-2.3l6.25-15.9h3Zm-10.3-6h5.07l-1.93-5.3c-.09-.23-.19-.51-.29-.83s-.21-.66-.32-1q-.15.57-.3,1c-.1.32-.2.6-.29.85Z" style="fill:#fff"/><path d="M211.41,34.59V37h-4.78V50.49h-3V37h-4.81V34.59Z" style="fill:#fff"/><path d="M224.8,50.49h-2.29a1,1,0,0,1-.63-.19,1.06,1.06,0,0,1-.36-.48l-1.19-3.24h-6.59l-1.18,3.24a1.07,1.07,0,0,1-.35.46,1,1,0,0,1-.63.21h-2.3l6.25-15.9h3Zm-10.3-6h5.07l-1.93-5.3c-.09-.23-.19-.51-.29-.83s-.21-.66-.32-1q-.15.57-.3,1c-.1.32-.2.6-.29.85Zm6.76-13.7L218,33.17l-.22.14a1,1,0,0,1-.21.09l-.22,0h-2.41l2.16-2.22a2.32,2.32,0,0,1,.25-.22,1.09,1.09,0,0,1,.23-.14,1.15,1.15,0,0,1,.28-.06l.37,0Z" style="fill:#fff"/><path d="M228.54,48.05h6.37v2.44h-9.33V34.59h3Z" style="fill:#fff"/><path d="M250.47,42.54a8.84,8.84,0,0,1-.58,3.24,7.68,7.68,0,0,1-1.64,2.58,7.51,7.51,0,0,1-2.54,1.7,9.18,9.18,0,0,1-6.58,0,7.45,7.45,0,0,1-2.55-1.7,7.71,7.71,0,0,1-1.65-2.58,9.34,9.34,0,0,1,0-6.48,7.71,7.71,0,0,1,1.65-2.58,7.32,7.32,0,0,1,2.55-1.7,8.53,8.53,0,0,1,3.29-.61,8.35,8.35,0,0,1,3.29.62,7.49,7.49,0,0,1,2.54,1.69,7.68,7.68,0,0,1,1.64,2.58A8.76,8.76,0,0,1,250.47,42.54Zm-3,0a7.44,7.44,0,0,0-.35-2.35,5.08,5.08,0,0,0-1-1.77,4.44,4.44,0,0,0-1.58-1.11,6,6,0,0,0-4.2,0,4.48,4.48,0,0,0-1.59,1.11,5.12,5.12,0,0,0-1,1.77,8.06,8.06,0,0,0,0,4.7,5,5,0,0,0,1,1.76,4.33,4.33,0,0,0,1.59,1.1,5.85,5.85,0,0,0,4.2,0,4.29,4.29,0,0,0,1.58-1.1,5,5,0,0,0,1-1.76A7.49,7.49,0,0,0,247.44,42.54Z" style="fill:#fff"/><path d="M259.25,48.31a7.54,7.54,0,0,0,1.75-.18,7.62,7.62,0,0,0,1.41-.5V44.74h-2a.61.61,0,0,1-.45-.16.54.54,0,0,1-.17-.39V42.52h5.29V49a9,9,0,0,1-1.26.77,8.51,8.51,0,0,1-1.39.53,10.92,10.92,0,0,1-1.59.31,15,15,0,0,1-1.83.11,8.15,8.15,0,0,1-3.2-.61,7.47,7.47,0,0,1-2.53-1.68,7.77,7.77,0,0,1-1.67-2.57,8.73,8.73,0,0,1-.6-3.27,9,9,0,0,1,.59-3.29,7.38,7.38,0,0,1,1.65-2.57,7.48,7.48,0,0,1,2.6-1.68,9.58,9.58,0,0,1,3.44-.59,8.87,8.87,0,0,1,3.37.58,7.58,7.58,0,0,1,2.41,1.5l-.86,1.34a.77.77,0,0,1-.67.41,1,1,0,0,1-.54-.18l-.72-.42a4.31,4.31,0,0,0-.81-.36,6.35,6.35,0,0,0-1-.25,7,7,0,0,0-1.28-.1,5.54,5.54,0,0,0-2.13.39,4.49,4.49,0,0,0-1.62,1.14,5,5,0,0,0-1,1.77,7,7,0,0,0-.36,2.31,7.41,7.41,0,0,0,.38,2.45,5.35,5.35,0,0,0,1.08,1.81,4.6,4.6,0,0,0,1.65,1.12A5.51,5.51,0,0,0,259.25,48.31Z" style="fill:#fff"/><path d="M282.25,42.54a8.84,8.84,0,0,1-.58,3.24A7.84,7.84,0,0,1,280,48.36a7.51,7.51,0,0,1-2.54,1.7,9.18,9.18,0,0,1-6.58,0,7.6,7.6,0,0,1-2.56-1.7,7.84,7.84,0,0,1-1.64-2.58,9.34,9.34,0,0,1,0-6.48,7.84,7.84,0,0,1,1.64-2.58,7.45,7.45,0,0,1,2.56-1.7,8.53,8.53,0,0,1,3.29-.61,8.35,8.35,0,0,1,3.29.62A7.49,7.49,0,0,1,280,36.72a7.84,7.84,0,0,1,1.64,2.58A8.76,8.76,0,0,1,282.25,42.54Zm-3,0a7.44,7.44,0,0,0-.35-2.35,5,5,0,0,0-1-1.77,4.31,4.31,0,0,0-1.57-1.11,6,6,0,0,0-4.2,0,4.48,4.48,0,0,0-1.59,1.11,5.12,5.12,0,0,0-1,1.77,8.06,8.06,0,0,0,0,4.7,5,5,0,0,0,1,1.76,4.33,4.33,0,0,0,1.59,1.1,5.85,5.85,0,0,0,4.2,0,4.17,4.17,0,0,0,1.57-1.1,4.82,4.82,0,0,0,1-1.76A7.49,7.49,0,0,0,279.22,42.54Z" style="fill:#fff"/><path d="M287.49,73.92v4.51h4.28v2h-4.28V85h-2.2V80.45H281v-2h4.26V73.92Z" style="fill:#ff0"/></g></g></svg>