<svg xmlns="http://www.w3.org/2000/svg" viewBox="0 0 300 90"><title>abrir_catalogo_2</title><g id="Layer_2" data-name="Layer 2"><g id="Layer_1-2" data-name="Layer 1"><rect width="300" height="90" style="fill:#fff"/><path d="M230.61,24.25a1,1,0,0,0-.83-1.82,8.05,8.05,0,0,0-1.92,1.23,1,1,0,0,0-.1,1.42,1,1,0,0,0,.76.34,1,1,0,0,0,.65-.24A5.92,5.92,0,0,1,230.61,24.25Z" style="fill:#fc6"/><path d="M234.1,23.71h2a1,1,0,0,0,0-2h-2a1,1,0,0,0,0,2Z" style="fill:#fc6"/><path d="M240.1,23.71h2a1,1,0,0,0,0-2h-2a1,1,0,0,0,0,2Z" style="fill:#fc6"/><path d="M236.1,35.71h-2a1,1,0,0,0,0,2h2a1,1,0,0,0,0-2Z" style="fill:#fc6"/><path d="M248.1,35.71h-2a1,1,0,0,0,0,2h2a1,1,0,0,0,0-2Z" style="fill:#fc6"/><path d="M242.1,35.71h-2a1,1,0,0,0,0,2h2a1,1,0,0,0,0-2Z" style="fill:#fc6"/><path d="M230.61,35.17a6.41,6.41,0,0,1-1.44-.92,1,1,0,1,0-1.31,1.51A8.05,8.05,0,0,0,229.78,37a1,1,0,0,0,.41.09,1,1,0,0,0,.42-1.91Z" style="fill:#fc6"/><path d="M254.1,35.71h-2a1,1,0,0,0,0,2h2a1,1,0,0,0,0-2Z" style="fill:#fc6"/><path d="M272.1,35.71h-2a1,1,0,0,0,0,2h2a1,1,0,0,0,0-2Z" style="fill:#fc6"/><path d="M278.1,35.71h-2a1,1,0,0,0,0,2h2a1,1,0,0,0,0-2Z" style="fill:#fc6"/><path d="M260.1,35.71h-2a1,1,0,0,0,0,2h2a1,1,0,0,0,0-2Z" style="fill:#fc6"/><path d="M266.1,35.71h-2a1,1,0,0,0,0,2h2a1,1,0,0,0,0-2Z" style="fill:#fc6"/><path d="M230.61,65.17a6.41,6.41,0,0,1-1.44-.92,1,1,0,1,0-1.31,1.51A8.05,8.05,0,0,0,229.78,67a1,1,0,0,0,.41.09,1,1,0,0,0,.42-1.91Z" style="fill:#fc6"/><path d="M242.1,65.71h-2a1,1,0,0,0,0,2h2a1,1,0,0,0,0-2Z" style="fill:#fc6"/><path d="M236.1,65.71h-2a1,1,0,0,0,0,2h2a1,1,0,0,0,0-2Z" style="fill:#fc6"/><path d="M260.1,65.71h-2a1,1,0,0,0,0,2h2a1,1,0,0,0,0-2Z" style="fill:#fc6"/><path d="M263.1,66.71a1,1,0,0,0,1,1h2a1,1,0,0,0,0-2h-2A1,1,0,0,0,263.1,66.71Z" style="fill:#fc6"/><path d="M270.1,67.71h2a1,1,0,0,0,0-2h-2a1,1,0,0,0,0,2Z" style="fill:#fc6"/><path d="M254.1,65.71h-2a1,1,0,0,0,0,2h2a1,1,0,0,0,0-2Z" style="fill:#fc6"/><path d="M276.1,67.71h2a1,1,0,0,0,0-2h-2a1,1,0,0,0,0,2Z" style="fill:#fc6"/><path d="M248.1,65.71h-2a1,1,0,0,0,0,2h2a1,1,0,0,0,0-2Z" style="fill:#fc6"/><path d="M269.1,50.71a4,4,0,1,0,4-4A4,4,0,0,0,269.1,50.71Zm4-2a2,2,0,1,1-2,2A2,2,0,0,1,273.1,48.71Z" style="fill:#fc6"/><path d="M268,17.71l-5.43-5.43a1.13,1.13,0,0,0-1.61,0l-2.05,2-2-2a1.13,1.13,0,0,0-1.61,0l-5.44,5.43H233.1a8,8,0,0,0-8,8V64.56a7.16,7.16,0,0,0,7.15,7.15H285.1v-54ZM261.8,14.3l3.41,3.41,14,14h-5.39L262.56,20.44a1.08,1.08,0,0,0-1.52,0L249.78,31.71h-5.39l16-16h0ZM271,31.71H252.61l9.19-9.19ZM256.1,14.3l1.44,1.44-16,16h-2.87l14-14Zm-23,5.41h14.76l-2.06,2.06a1,1,0,0,0-.63.64l-9.31,9.3H233.1a6,6,0,0,1,0-12Zm50,36h-11a5,5,0,0,1,0-10h11Zm0-20h-1a1,1,0,0,0,0,2h1v6h-11a7,7,0,0,0,0,14h11v8h-1a1,1,0,0,0,0,2h1v2H232.25a5.16,5.16,0,0,1-5.15-5.15v-2.2a1,1,0,0,0,.24-1,6,6,0,0,1-.24-1.69V32.36a1,1,0,0,0,.24-1c0-.06,0-.13,0-.2l.27.28c.09.09.18.16.27.24s.22.2.34.29l.29.21.37.25.31.19.4.21.32.16.43.17.33.12.47.13.32.08.55.1.28,0a7.94,7.94,0,0,0,.85,0h50Zm-1.06-4-8-8h.06a1,1,0,0,0,0-2h-2.05l-2-2H283.1v12Z" style="fill:#fc6"/><path d="M280.1,21.71h-2a1,1,0,0,0,0,2h2a1,1,0,0,0,0-2Z" style="fill:#fc6"/><rect width="210.76" height="90" style="fill:#3b0099"/><path d="M36.13,49.42H33.84a1,1,0,0,1-.63-.19,1.22,1.22,0,0,1-.36-.48l-1.19-3.24H25.08l-1.19,3.24a1,1,0,0,1-.35.46,1,1,0,0,1-.63.21h-2.3l6.25-15.9h3Zm-10.3-6h5.08L29,38.13c-.09-.24-.19-.51-.29-.83s-.21-.67-.32-1c-.1.37-.2.72-.3,1s-.19.61-.29.85Z" style="fill:#fff"/><path d="M36.91,49.42V33.52H42.4a10.84,10.84,0,0,1,2.67.29,5.16,5.16,0,0,1,1.81.85,3.25,3.25,0,0,1,1,1.33,4.49,4.49,0,0,1,.33,1.76,3.53,3.53,0,0,1-.16,1.08,3,3,0,0,1-.51,1,3.82,3.82,0,0,1-.88.81,5.56,5.56,0,0,1-1.27.62q3.27.74,3.27,3.54a4.47,4.47,0,0,1-.38,1.87A4.24,4.24,0,0,1,47.2,48.1a5.35,5.35,0,0,1-1.82,1,7.77,7.77,0,0,1-2.46.35Zm3-9h2.37a3.92,3.92,0,0,0,2.28-.55,2,2,0,0,0,.78-1.75,2.09,2.09,0,0,0-.7-1.77,3.7,3.7,0,0,0-2.2-.52H39.87Zm0,2.05v4.66h3a4.22,4.22,0,0,0,1.38-.19,2.62,2.62,0,0,0,.9-.53,2,2,0,0,0,.48-.77,2.94,2.94,0,0,0,.15-.94,2.52,2.52,0,0,0-.17-.93,1.76,1.76,0,0,0-.51-.7,2.67,2.67,0,0,0-.91-.45,5.08,5.08,0,0,0-1.33-.15Z" style="fill:#fff"/><path d="M53.44,43.21v6.21H50.49V33.52h4.85a10.23,10.23,0,0,1,2.78.33,5.5,5.5,0,0,1,1.91.94,3.74,3.74,0,0,1,1.09,1.45,4.84,4.84,0,0,1,.34,1.85,5,5,0,0,1-.23,1.52,4.38,4.38,0,0,1-.69,1.3,4.43,4.43,0,0,1-1.09,1,5.77,5.77,0,0,1-1.5.71,2.8,2.8,0,0,1,1,.91l4,5.87H60.24a1.33,1.33,0,0,1-.65-.15,1.37,1.37,0,0,1-.46-.44l-3.34-5.09a1.17,1.17,0,0,0-.42-.41,1.44,1.44,0,0,0-.66-.12Zm0-2.12h1.85a4.55,4.55,0,0,0,1.46-.21,2.73,2.73,0,0,0,1-.58,2.3,2.3,0,0,0,.6-.88,3,3,0,0,0,.2-1.11,2.29,2.29,0,0,0-.8-1.86,3.81,3.81,0,0,0-2.43-.64h-1.9Z" style="fill:#fff"/><path d="M67.27,49.42h-3V33.52h3Z" style="fill:#fff"/><path d="M73.05,43.21v6.21h-3V33.52h4.85a10.36,10.36,0,0,1,2.79.33,5.54,5.54,0,0,1,1.9.94,3.74,3.74,0,0,1,1.09,1.45,4.84,4.84,0,0,1,.35,1.85,4.7,4.7,0,0,1-.24,1.52,4.6,4.6,0,0,1-.68,1.3,4.67,4.67,0,0,1-1.1,1,5.86,5.86,0,0,1-1.49.71,2.86,2.86,0,0,1,1,.91l4,5.87H79.84a1.33,1.33,0,0,1-.65-.15,1.37,1.37,0,0,1-.46-.44l-3.34-5.09a1.23,1.23,0,0,0-.41-.41,1.49,1.49,0,0,0-.67-.12Zm0-2.12h1.84a4.55,4.55,0,0,0,1.46-.21,2.65,2.65,0,0,0,1-.58,2.3,2.3,0,0,0,.6-.88,2.82,2.82,0,0,0,.2-1.11,2.26,2.26,0,0,0-.8-1.86,3.81,3.81,0,0,0-2.43-.64H73.05Z" style="fill:#fff"/><path d="M97.86,45.67a.59.59,0,0,1,.42.19l1.17,1.26A6.35,6.35,0,0,1,97.06,49a8.11,8.11,0,0,1-3.39.64A7.88,7.88,0,0,1,90.49,49a6.92,6.92,0,0,1-2.42-1.68,7.21,7.21,0,0,1-1.53-2.57A9.59,9.59,0,0,1,86,41.47a8.7,8.7,0,0,1,.6-3.28,7.37,7.37,0,0,1,1.67-2.57,7.58,7.58,0,0,1,2.58-1.68,8.88,8.88,0,0,1,3.32-.6,7.75,7.75,0,0,1,3.09.57,7.24,7.24,0,0,1,2.27,1.5l-1,1.37a.83.83,0,0,1-.22.24.69.69,0,0,1-.38.09.88.88,0,0,1-.52-.19,4.61,4.61,0,0,0-.67-.43,4.84,4.84,0,0,0-1-.43,5.92,5.92,0,0,0-3.64.19,4.58,4.58,0,0,0-1.62,1.12,5.06,5.06,0,0,0-1,1.76A6.92,6.92,0,0,0,89,41.47a7.05,7.05,0,0,0,.38,2.39,5.18,5.18,0,0,0,1,1.76A4.38,4.38,0,0,0,92,46.71a4.56,4.56,0,0,0,1.89.38A8.94,8.94,0,0,0,95,47a5.42,5.42,0,0,0,.9-.21,4.38,4.38,0,0,0,.79-.37,5.08,5.08,0,0,0,.73-.56,1.19,1.19,0,0,1,.23-.16A.58.58,0,0,1,97.86,45.67Z" style="fill:#fff"/><path d="M114.8,49.42h-2.29a1,1,0,0,1-.63-.19,1.22,1.22,0,0,1-.36-.48l-1.18-3.24h-6.59l-1.19,3.24a1,1,0,0,1-.35.46,1,1,0,0,1-.63.21h-2.3l6.25-15.9h3Zm-10.29-6h5.07l-1.94-5.29c-.09-.24-.18-.51-.29-.83s-.21-.67-.31-1c-.11.37-.21.72-.31,1s-.19.61-.29.85Z" style="fill:#fff"/><path d="M125.17,33.52V36h-4.78V49.42h-3V36h-4.81V33.52Z" style="fill:#fff"/><path d="M138.56,49.42h-2.29a1,1,0,0,1-.63-.19,1.22,1.22,0,0,1-.36-.48l-1.18-3.24h-6.59l-1.19,3.24a1,1,0,0,1-.35.46,1,1,0,0,1-.63.21H123l6.25-15.9h3Zm-10.29-6h5.07l-1.94-5.29c-.09-.24-.18-.51-.29-.83s-.21-.67-.31-1c-.11.37-.21.72-.31,1s-.19.61-.29.85ZM135,29.72l-3.26,2.38a1.13,1.13,0,0,1-.22.14,1,1,0,0,1-.21.09.78.78,0,0,1-.22,0h-2.4l2.15-2.22a2.32,2.32,0,0,1,.25-.22.94.94,0,0,1,.24-.13.77.77,0,0,1,.27-.07l.38,0Z" style="fill:#fff"/><path d="M142.3,47h6.37v2.44h-9.33V33.52h3Z" style="fill:#fff"/><path d="M164.24,41.47a8.76,8.76,0,0,1-.59,3.24A7.68,7.68,0,0,1,162,47.29a7.37,7.37,0,0,1-2.54,1.7,9.18,9.18,0,0,1-6.58,0,7.5,7.5,0,0,1-2.55-1.7,7.71,7.71,0,0,1-1.65-2.58,9.34,9.34,0,0,1,0-6.48,7.46,7.46,0,0,1,4.2-4.28,8.72,8.72,0,0,1,3.29-.61,8.5,8.5,0,0,1,3.29.62,7.44,7.44,0,0,1,4.18,4.27A8.8,8.8,0,0,1,164.24,41.47Zm-3,0a7.49,7.49,0,0,0-.35-2.35,5,5,0,0,0-1-1.76,4.12,4.12,0,0,0-1.58-1.11,5.38,5.38,0,0,0-2.1-.39,5.46,5.46,0,0,0-2.1.39,4.24,4.24,0,0,0-1.59,1.11,5,5,0,0,0-1,1.76,7.85,7.85,0,0,0,0,4.7,5,5,0,0,0,1,1.76,4.33,4.33,0,0,0,1.59,1.1,5.46,5.46,0,0,0,2.1.39,5.38,5.38,0,0,0,2.1-.39,4.21,4.21,0,0,0,1.58-1.1,5,5,0,0,0,1-1.76A7.44,7.44,0,0,0,161.2,41.47Z" style="fill:#fff"/><path d="M173,47.25a7,7,0,0,0,3.16-.69V43.67h-2a.61.61,0,0,1-.45-.16.52.52,0,0,1-.17-.39V41.45h5.3v6.43a9.25,9.25,0,0,1-1.26.77,9,9,0,0,1-1.4.53,10.91,10.91,0,0,1-1.59.32,15,15,0,0,1-1.83.1,8.18,8.18,0,0,1-3.2-.61,7.47,7.47,0,0,1-4.19-4.25,8.73,8.73,0,0,1-.6-3.27,9,9,0,0,1,.58-3.29A7.47,7.47,0,0,1,167,35.61a7.36,7.36,0,0,1,2.61-1.67,9.32,9.32,0,0,1,3.43-.6,8.84,8.84,0,0,1,3.37.58,7.58,7.58,0,0,1,2.41,1.5L178,36.76a.78.78,0,0,1-.67.41,1,1,0,0,1-.54-.18l-.72-.41a5.64,5.64,0,0,0-.82-.37,7.68,7.68,0,0,0-1-.25,7,7,0,0,0-1.28-.1,5.39,5.39,0,0,0-2.13.4,4.51,4.51,0,0,0-1.62,1.13,5.18,5.18,0,0,0-1,1.77,7,7,0,0,0-.36,2.31,7.16,7.16,0,0,0,.39,2.45,5.08,5.08,0,0,0,1.07,1.81,4.81,4.81,0,0,0,1.65,1.13A5.51,5.51,0,0,0,173,47.25Z" style="fill:#fff"/><path d="M196,41.47a8.76,8.76,0,0,1-.58,3.24,7.68,7.68,0,0,1-1.64,2.58,7.37,7.37,0,0,1-2.54,1.7,9.18,9.18,0,0,1-6.58,0,7.32,7.32,0,0,1-2.55-1.7,7.71,7.71,0,0,1-1.65-2.58,9.34,9.34,0,0,1,0-6.48,7.71,7.71,0,0,1,1.65-2.58,7.45,7.45,0,0,1,2.55-1.7,8.72,8.72,0,0,1,3.29-.61,8.5,8.5,0,0,1,3.29.62,7.44,7.44,0,0,1,4.18,4.27A8.8,8.8,0,0,1,196,41.47Zm-3,0a7.49,7.49,0,0,0-.35-2.35,5,5,0,0,0-1-1.76,4.2,4.2,0,0,0-1.58-1.11,5.38,5.38,0,0,0-2.1-.39,5.46,5.46,0,0,0-2.1.39,4.24,4.24,0,0,0-1.59,1.11,5,5,0,0,0-1,1.76,7.85,7.85,0,0,0,0,4.7,5,5,0,0,0,1,1.76,4.33,4.33,0,0,0,1.59,1.1,5.46,5.46,0,0,0,2.1.39,5.38,5.38,0,0,0,2.1-.39,4.29,4.29,0,0,0,1.58-1.1,5,5,0,0,0,1-1.76A7.44,7.44,0,0,0,193,41.47Z" style="fill:#fff"/></g></g></svg>