<svg xmlns="http://www.w3.org/2000/svg" viewBox="0 0 699 290.71"><defs><style>.cls-1{fill:#0e7288;}.cls-2{fill:#6b6e73;}.cls-3{fill:#eec495;}.cls-4{fill:#368464;}.cls-5{fill:#ecc497;}.cls-6{fill:#f7fbf7;}.cls-7{fill:#7d8a85;}.cls-8{fill:#fdfdf9;}.cls-9{fill:#818d87;}.cls-10{fill:#808781;}.cls-11{fill:#8a897b;}.cls-12{fill:#898b7f;}.cls-13{fill:#8d7c66;}.cls-14{fill:#aa8d6d;}.cls-15{fill:#a18264;}.cls-16{fill:#e1f4f5;}.cls-17{fill:#e2f5f6;}.cls-18{fill:#e5f7f7;}.cls-19{fill:#f5f6f7;}.cls-20{fill:#f7f7f8;}.cls-21{fill:#f6f6f7;}.cls-22{fill:#cceefa;}.cls-23{fill:#828c83;}.cls-24{fill:#f6d4a7;}.cls-25{fill:#006738;}</style></defs><title>adquiere</title><g id="Layer_2" data-name="Layer 2"><g id="Layer_1-2" data-name="Layer 1"><g id="fVRSon"><g id="PNSLaf"><path class="cls-1" d="M699,287.72l-224.91,0c-14.66,0-29.32-.1-44,.09-3.76,0-5.73-1-5.41-4.95a7.56,7.56,0,0,1-1.47-2.55c-1.1-14.56-.49-29.14-.33-43.71a4.37,4.37,0,0,1,2-3.81c.11-7.3.11-7.31,7.39-7.31H693.51c1.83,0,3.66.12,5.49.18Z"/><path class="cls-2" d="M0,50.72H237.2c7.18,0,7.15,0,6,7.37a30.36,30.36,0,0,0-.19,4.48q0,22,0,43.94c1.67,1.1,2.19,2.46,1,4.22.26,4.49-2.94,4-5.77,4q-45.7,0-91.41,0-73.42,0-146.85,0Z"/><path class="cls-3" d="M367.9,11.75l.24,6.09c.61,5.09-2.33,8.07-6.4,10-9.51,4.4-18.64,9.68-29.14,12.28,7.17-1.23,13-6.54,20.58-5.29,7.27-.78,14-3.71,21-5.54,3.1-.81,6.07-1.32,6.38,3.3,0,6.88-2.69,10.53-9.2,12.12-11.91,2.9-23.5,6.89-35.28,10.24A3,3,0,0,0,334.39,56c.77,1.32,2.26,1.74,3.4,2.6,1.68.68,3.38,1.33,5,2,11.37,4.87,15.57,12.5,14.24,25.83-3.12,3.81-7,2.37-10.78,1.57a4.09,4.09,0,0,1-1.66-2C342,74.12,334.7,70,322.33,72c-9.8,1.56-17,6.1-21.78,14.61-2.45,4.35-3.78,8.86-1.59,13.76,3.14,7.06,11.07,10.6,19.49,8.68a9.2,9.2,0,0,1,4.13-1.84c5-1,9.87-1.33,14.22,2.08,4.93,3.88,4.35,9-1.41,11.56-4.09,1.8-8.25,3.46-12.29,5.37-2.11.27-3.71,2.08-5.94,2A16.11,16.11,0,0,1,308,127c-13.65-5.67-27.49-10.87-41-16.76-3.66-1.59-7.43-3-10.08-6.21-1.53-1.89-4-1.43-6-2.1l-.7,0c-2.45-1.14-2.36-3.45-2.41-5.56q-.31-15.92,0-31.82c.05-2.11,0-4.44,2.51-5.47,3.89.81,7.22-1,10.31-2.76,27.79-15.74,54.69-32.86,79.95-52.46.66-.51,1.4-.91,2.09-1.38,5.54-3.72,6.07-3.48,7.17,3.31.8,5.16-2.19,8.45-5.83,11.23-5.48,4.2-10.88,8.57-15.71,10.79,1.89-1.06,5.08-3.23,8.57-4.86a10.33,10.33,0,0,0,3.29-1c7.17-4.74,15.91-5.81,23.27-10.09C364.86,11,366.41,10.16,367.9,11.75Z"/><path class="cls-4" d="M322,108.71a5.39,5.39,0,0,1-3.37,2.33c-2.94.1-3.58-1.94-3.74-4.21a126.33,126.33,0,0,1,0-16.85c.18-2.58,1.37-4.77,3.94-5a102.65,102.65,0,0,1,24.71.12,6.22,6.22,0,0,1,2.55,1.49l10.94,0c5.83.06,11.66.24,17.48.14C377.74,86.6,379,87.76,379,91q-.1,55.71,0,111.42c0,3.31-1.3,4.32-4.46,4.3-17.65-.08-35.31-.13-53,0-4.05,0-4.59-1.86-4.58-5.2.05-23.65,0-47.3,0-71a3.41,3.41,0,0,1-.13-4.12,8.78,8.78,0,0,1,5-1.63c3.13,1.55,2.36,4.55,2.39,7.05q.22,24,0,47.93c0,4.67.52,8.45,5.53,10.47,2.09.84,3.59,2.94,4.46,5.2,1.12,2.92,3.38,3.87,6.31,3.88s5.67-.1,8.49.05c6,.31,11.73.44,14.37-6.6a5.19,5.19,0,0,1,2.82-2.74c5.67-2,5.56-6.58,5.54-11.4q-.13-33.21,0-66.41c0-3.73-.46-6.72-4.58-8.39a10,10,0,0,1-5.26-5.78C360.71,95,358.35,94,355.21,94c-5,0-10,0-15,0-2.92,0-5.05,1-6.2,4a11.58,11.58,0,0,1-6.89,6.8A14.9,14.9,0,0,0,322,108.71Z"/><path class="cls-5" d="M278,273.13c-3.27-2.38-.54-4.34.6-6.21,1.05-1.71,2.95-2.59,4.76-3.42a4.05,4.05,0,0,1,3.89-1.74c7.44.93,14.93.16,23,.61-9.06-.68-17.59.94-25.9-1.39-1-5.86,3.26-7.67,7.45-9.27,1.94-.73,4.16-.75,6.24-1.1,4.5-1.76,9.22-1.07,13.75-.73,6.18.45,12.33,0,16.56.32-7.85.53-17.59-.65-27.36-.58a2.47,2.47,0,0,1-1.74-.85c.68-5.39,4.52-8.8,11.06-9a153.61,153.61,0,0,1,17.43.36c11.52.86,22.54.47,33.55-4.44,16.23-7.25,33.44-7.88,50.78-3.86,1.94.45,3.9.78,5.85,1.16a3.59,3.59,0,0,1,2,3.22c.25,8.44,1,16.9-.51,25.31-2.54,3.11-5.13,3.34-7.77.13,2.42-5.78,2.12-11.85,2-17.93a5.54,5.54,0,0,0-4.38-5.82,38,38,0,0,0-10.73-1.93c-6,0-11.94.29-17.91-.4-2.5-.29-4.87.67-7.23,1.51-8.8,3.11-17.13,7.76-26.79,8-1.92.05-3,1-2.9,3.17.29,4.48-2.54,5.84-6.35,6.76-2.94.71-6.45-.31-8.76,2.56a3.06,3.06,0,0,1-1.74.86c-5.31-.23-8.49,2.38-10,7.32-7.83,3.21-16.06,1.48-22.66,2,7.77,0,17.06.71,26-2.52a9.28,9.28,0,0,1,7.76,4.6c1.06,1.6,1.34,3.41-.52,4.85-4.72,1.18-9.52.49-14.28.56-8.75.12-17.5,0-26.25,0C283.84,275.24,280.77,274.91,278,273.13Z"/><path class="cls-5" d="M278.12,286.62c-2.55-5.09,1.61-7.58,4.16-10.69,3.94-2.19,8.33-1.49,12.5-1.62,9.61-.28,19.24-.06,28.85-.11,1.78,0,3.68.51,5.28-.76,4.38-.88,10.86,3.8,11,8,.07,1.91-.69,3.27-2.65,3.58-1.24.19-2.53.06-3.21,1.43-8.31.69-16.62.22-24.93.29-7.47.06-14.92.15-22.38.88C283.94,287.86,280.8,288.69,278.12,286.62Z"/><path class="cls-6" d="M417.92,261.74q0-14.4.05-28.79c2.27-1.73,4.57-1.42,6.89-.11q0,24,0,48.1c-2.8,2.44-5.54,2.79-8.17-.26C415.41,274.26,414.41,267.85,417.92,261.74Z"/><path class="cls-7" d="M417.71,281a8.49,8.49,0,0,0,7.16,0c-.05.66-.11,1.31-.16,2-10.69,1.27-21.35,2.68-32,3.78-13.68,1.4-27.38,2.56-41.08,3.81-2.8.25-5.63.67-8-1.54-1.76-1.62-4-1.28-6.18-1.28-18.43,0-36.86-.06-55.27,1a11,11,0,0,1-4.4-.45c-1.2-.45-.53-1.22.4-1.58q25.56-.56,51.13-1.13c2-.05,4,.26,5.86-.68,4-1.34,7.68-1.78,11.84.18,3.07,1.46,6.92.7,10.36.34,17.49-1.8,35.11-2.35,52.47-5.44C412.41,279.43,415.39,278.33,417.71,281Z"/><path class="cls-8" d="M250.32,59q-.06,21.42-.11,42.85c-.33,1.72.58,3.7-1.1,5.13-1.89,1.62-3.63,1.25-5.27-.41,0-14.94,0-29.87,0-44.81C243.89,56.91,245.77,56.17,250.32,59Z"/><path class="cls-9" d="M316.79,126.51c0,1.37.09,2.75.13,4.12-18.61-5.52-36.14-13.83-54.11-21-3.95-1.57-6.1-6.89-11.44-5.4-.15-.79-.31-1.58-.46-2.36a4,4,0,0,1,5.81.62c4.22,5,10.31,6.61,15.86,9,12.21,5.23,24.65,9.91,36.95,14.92A10.26,10.26,0,0,0,316.79,126.51Z"/><path class="cls-10" d="M337.79,58.64l-10.2-1.48c1.69-1.8,3.57-2,5.2-2.48,12.27-3.67,24.52-7.47,36.91-10.76,6.22-1.65,10-4.89,10.81-11.37.8-.95,1.38-.91,1.34.42-.18,6.79-3.89,11.08-10.75,13-10.34,2.88-20.65,5.9-31,8.91C338.33,55.4,335.89,55.72,337.79,58.64Z"/><path class="cls-11" d="M353.18,34.79c-8.38,3.35-17.14,5.38-26,7.11,11.15-5,22.26-10.06,33.45-15,4.12-1.8,6.82-4.57,7.55-9.09,1.66,4.57-.79,7.58-4.07,10a24.89,24.89,0,0,1-8.39,4C354.41,32.25,351.92,32.05,353.18,34.79Z"/><path class="cls-12" d="M337,24.6l-16.05,8.15c.36-2.21,1.65-2.6,2.63-3.29,6.26-4.4,12.43-8.94,18.8-13.17,3.95-2.62,6.8-5.78,7.48-10.58,2.27,3-.12,5.38-.91,8-.26,2.94-2,4.8-4.53,6A46.12,46.12,0,0,0,337,24.6Z"/><path class="cls-13" d="M329.76,273.85c-4,1.4-8.18.69-12.28.81-11.74.35-23.5-.07-35.2,1.27-1.44-.41-2.89-.79-4.31-1.24-1.61-.53-.59-1.06,0-1.56,16.66.74,33.32.79,50,.63C328.62,273.1,329.21,273.24,329.76,273.85Z"/><path class="cls-14" d="M299.3,248.77h33.8v1.84h-35C298.5,250,298.9,249.39,299.3,248.77Z"/><path class="cls-15" d="M284.4,261h28.13c0,.49,0,1,0,1.48-9.69.93-19.49-.69-29.14,1A2.59,2.59,0,0,1,284.4,261Z"/><path class="cls-9" d="M243.84,106.57l5.27.41c1.25,1.08,1.07,1.84-.5,2.33L244,110.74l-1-4.22A2.85,2.85,0,0,0,243.84,106.57Z"/><path class="cls-16" d="M445.79,276.57c-.25,2.79-1.56,4.83-4.52,4.93s-4.69-1.78-4.81-4.61a4.24,4.24,0,0,1,4.22-4.64C443.62,272,445.3,273.65,445.79,276.57Z"/><path class="cls-17" d="M460.32,276.52c-.27,3.23-1.84,5-4.75,5s-4.56-1.93-4.5-4.85a4.22,4.22,0,0,1,4.44-4.39C458.49,272.12,459.94,274,460.32,276.52Z"/><path class="cls-18" d="M474.92,276.63c-.24,2.86-1.7,4.76-4.6,4.85a4.19,4.19,0,0,1-4.62-4.16c-.24-2.92,1.21-4.84,4.17-5.05S474.4,273.81,474.92,276.63Z"/><path class="cls-19" d="M212.56,97.59c3,.26,4.7,1.74,4.69,4.71,0,2.71-1.52,4.36-4.22,4.48-2.9.12-4.75-1.46-4.87-4.36S209.82,98,212.56,97.59Z"/><path class="cls-20" d="M227.61,97.58c2.66.45,4.43,2,4.27,4.91s-2,4.47-4.92,4.3c-2.74-.16-4.17-1.88-4.16-4.56C222.82,99.27,224.53,97.77,227.61,97.58Z"/><path class="cls-21" d="M202.87,102.5c-.47,2.68-1.89,4.47-4.91,4.3a4.17,4.17,0,0,1-4.27-4.48c0-2.9,1.63-4.66,4.59-4.66S202.62,99.55,202.87,102.5Z"/><path class="cls-22" d="M322,108.71c-.65-3.62.07-5.82,4.47-6.35,3.65-.44,5.5-3.6,5.95-7.17.32-2.52,1.5-3.26,3.95-3.22,7.66.12,15.33.1,23,0,2.34,0,3.71.45,4,3.09.56,4.5,3.17,7.31,7.77,7.76,2.54.25,2.83,1.67,2.83,3.73q0,40.24,0,80.49c0,2.18-.61,3.29-3,3.55-4.56.5-7.17,3.42-7.75,7.85-.31,2.37-1.29,3-3.52,3q-11.75-.13-23.49,0c-2.18,0-3.24-.57-3.66-2.92-.77-4.33-3.4-7.34-7.89-7.88-3.43-.41-2.77-2.73-2.77-4.77q-.07-30.5-.08-61c3.93-3.26,8.81-4.52,13.39-6.43,4.13-1.73,4.34-3.23,1.32-6.5C332.4,107.47,327.09,108.75,322,108.71Z"/><path class="cls-23" d="M345.8,84.45c-2.52-5-4.72-10.53-11.21-11.47a43,43,0,0,0-13.86.09c-13.78,2.53-22.35,12-23.75,26a14.56,14.56,0,0,1-.63,2.37c-1.54-11,4.29-22.51,14.06-27.46a34.48,34.48,0,0,1,23.74-3.21C340.94,72.29,345.21,77.36,345.8,84.45Z"/><path class="cls-24" d="M329.76,273.85l-1.76-.09c-1.13-4.09-4.51-5.62-8-7.05-1.06-.56-2.65-.34-3-2-1.82-4-.53-6.73,4-7.67a43.16,43.16,0,0,1,6.94-.34c3.64-2.62,6.33.16,9,1.82a105.69,105.69,0,0,1,14.24,10.87c2.84,2.53,4.71,2.37,7.41-.57,13.26-14.44,30.43-19.2,48.32-12.34,2.18.84,4.47,1.53,5.06,4.24,1.8,1.34,3.69,2.16,5.92,1L417.71,281c-23,4.34-46.38,5.31-69.64,7.26-.93.08-2.27,0-2.79-.57-2.86-3.07-6.54-2.78-10.17-2.85-.35-.23-1-.41-.34-.93.22-.18.64-.13,1-.15,4.08-.23,3-2.6,1.29-4.13C334.74,277.56,332.87,274.89,329.76,273.85Z"/><path class="cls-3" d="M412,260.72c-3.93-1.32-7.79-2.94-11.81-3.9-12.44-3-23.67-.26-33.6,7.81-2.82,2.3-5.68,4.48-7.8,7.6s-4.63,2.86-7.53.35c-7.13-6.17-14.11-12.65-23.27-15.88-.6-2.62,1.46-2.58,3-2.9,2.11-.45,4.26-.74,6.39-1.1,3.19-.53,6-.81,3.59-5.54-1.67-3.26,1.4-4.57,4-4.31a25.24,25.24,0,0,0,12.88-2.14c4.52-2.29,9.51-2.89,13.82-5.41,4.71-2.76,9.85-2.09,15-1.65,7.1.61,14.31-.75,21.36,1.3,7.42,2.14,7.88,2.63,7.89,10.25,0,3.67-.05,7.33,0,11C416,259,415.06,260.73,412,260.72Z"/><path class="cls-3" d="M317,264.71a3.72,3.72,0,0,1,3,2c-9.86,4.06-20.2,3-30.45,2.79-1.66,0-3.55-.87-3.16-3,.35-2,2.11-.88,3.32-.87C298.83,265.68,308,266.29,317,264.71Z"/><path class="cls-3" d="M316.11,255.06c-4.12,2.52-8,2.48-11.69,3.27-1.62.35-3.14-.13-3.45-1.9s1.21-2.38,2.5-2.48C307.53,253.65,311.65,253.16,316.11,255.06Z"/><path class="cls-3" d="M309.66,245.14c3.1-3.14,5.46-1.66,8.93.16C315.05,245.82,312.63,246,309.66,245.14Z"/><path class="cls-3" d="M298.57,257.07c-2.86.94-4.45.51-5.55-1.22a1.08,1.08,0,0,1,.58-1.6C296.08,253.4,296.89,255.33,298.57,257.07Z"/><path class="cls-3" d="M333.5,244.81c.65.07,1.48.09,1.47.91s-.82.9-1.47.89-1.47-.06-1.47-.89S332.85,244.88,333.5,244.81Z"/><path class="cls-25" d="M369,146.69a21,21,0,1,1-20.81-21.12A20.86,20.86,0,0,1,369,146.69Z"/></g></g></g></g></svg>