<svg xmlns="http://www.w3.org/2000/svg" viewBox="0 0 969 549.98"><defs><style>.cls-1{fill:#0e7288;}.cls-2{fill:#6b6e73;}.cls-3{fill:#eec495;}.cls-4{fill:#368464;}.cls-5{fill:#ecc497;}.cls-6{fill:#f7fbf7;}.cls-7{fill:#7d8a85;}.cls-8{fill:#fdfdf9;}.cls-9{fill:#818d87;}.cls-10{fill:#808781;}.cls-11{fill:#8a897b;}.cls-12{fill:#898b7f;}.cls-13{fill:#8d7c66;}.cls-14{fill:#aa8d6d;}.cls-15{fill:#a18264;}.cls-16{fill:#e1f4f5;}.cls-17{fill:#e2f5f6;}.cls-18{fill:#e5f7f7;}.cls-19{fill:#f5f6f7;}.cls-20{fill:#f7f7f8;}.cls-21{fill:#f6f6f7;}.cls-22{fill:#cceefa;}.cls-23{fill:#828c83;}.cls-24{fill:#f6d4a7;}.cls-25{fill:#006738;}</style></defs><title>adquiere2</title><g id="Layer_2" data-name="Layer 2"><g id="Layer_1-2" data-name="Layer 1"><g id="fVRSon"><g id="PNSLaf"><path class="cls-1" d="M969,544.34l-311.78.09c-20.33,0-40.65-.19-61,.16-5.21.09-7.94-1.82-7.5-9.35a16,16,0,0,1-2-4.82c-1.53-27.55-.68-55.13-.47-82.7,0-3,.84-5.5,2.72-7.22.15-13.81.15-13.82,10.24-13.82q181.1,0,362.19,0c2.53,0,5.07.22,7.6.34Z"/><path class="cls-2" d="M0,96H328.82c9.95,0,9.91,0,8.35,14a76.92,76.92,0,0,0-.27,8.47q0,41.56.06,83.14c2.31,2.07,3,4.65,1.33,8,.36,8.51-4.07,7.47-8,7.47q-63.36,0-126.71.09-101.79,0-203.58,0Z"/><path class="cls-3" d="M510,22.24l.33,11.52c.85,9.62-3.23,15.26-8.88,18.83-13.17,8.33-25.84,18.31-40.39,23.25,9.94-2.34,18-12.38,28.53-10,10.08-1.48,19.37-7,29.06-10.48,4.3-1.53,8.41-2.5,8.84,6.23,0,13-3.73,19.93-12.75,22.93-16.51,5.5-32.58,13-48.91,19.37a4.5,4.5,0,0,0-2.29,2.16c1.08,2.49,3.13,3.29,4.72,4.92,2.33,1.28,4.68,2.51,7,3.86C491,124,496.84,138.44,495,163.66c-4.32,7.22-9.69,4.49-14.93,3a7.65,7.65,0,0,1-2.31-3.81c-3.7-22.61-13.76-30.43-30.92-26.71-13.59,2.95-23.52,11.54-30.18,27.64-3.4,8.22-5.25,16.77-2.21,26,4.35,13.34,15.34,20,27,16.41,1.79-1.54,3.53-3.22,5.74-3.47,6.91-1.91,13.68-2.53,19.71,3.94,6.83,7.33,6,17.07-2,21.86-5.68,3.4-11.44,6.54-17,10.15-2.92.52-5.14,3.95-8.23,3.79-4.42,1.08-8.6.05-12.73-2.29-18.92-10.72-38.1-20.55-56.89-31.7-5.08-3-10.3-5.61-14-11.76-2.13-3.57-5.49-2.69-8.25-4-.33,0-.65,0-1-.07-3.39-2.16-3.27-6.53-3.33-10.52q-.43-30.1,0-60.21c.07-4,0-8.38,3.48-10.35,5.4,1.54,10-1.9,14.29-5.21,38.52-29.79,75.81-62.17,110.84-99.25.91-1,1.93-1.72,2.89-2.6,7.68-7,8.41-6.59,9.94,6.25,1.11,9.76-3,16-8.07,21.25-7.61,8-15.1,16.21-21.8,20.41,2.63-2,7-6.11,11.9-9.19,1.55-.52,3.24-.71,4.56-1.9,9.93-9,22.05-11,32.26-19.09C505.79,20.72,507.94,19.22,510,22.24Z"/><path class="cls-4" d="M446.41,205.67a7.92,7.92,0,0,1-4.68,4.41c-4.07.19-5-3.68-5.18-8q-.76-15.93,0-31.87c.25-4.88,1.9-9,5.47-9.53,11.39-1.55,22.84-2,34.25.23,1.34.26,2.42,1.71,3.53,2.82l15.16-.1c8.08.12,16.16.46,24.24.28,4.42-.1,6.12,2.09,6.12,8.26q-.15,105.41,0,210.8c0,6.25-1.8,8.17-6.18,8.14-24.47-.17-48.95-.26-73.42.07-5.62.08-6.36-3.53-6.35-9.84q.11-67.11-.06-134.23a8.34,8.34,0,0,1-.17-7.8,10.21,10.21,0,0,1,7-3.08c4.34,2.94,3.28,8.6,3.31,13.34q.32,45.35,0,90.68c-.05,8.82.72,16,7.67,19.8,2.89,1.59,5,5.56,6.18,9.84,1.55,5.52,4.69,7.33,8.75,7.33s7.85-.18,11.77.1c8.27.6,16.25.84,19.92-12.47a8.84,8.84,0,0,1,3.9-5.19c7.87-3.85,7.72-12.45,7.69-21.58q-.2-62.81,0-125.63c0-7.06-.64-12.71-6.36-15.88-3.27-1.81-5.92-6-7.29-10.94-1.63-5.9-4.9-7.81-9.26-7.78-6.92.06-13.84,0-20.76.05-4,0-7,1.83-8.59,7.51-1.71,6.1-5,10.5-9.56,12.86C450.57,199.83,448.52,202.76,446.41,205.67Z"/><path class="cls-5" d="M385.4,516.73c-4.54-4.51-.75-8.22.83-11.75,1.45-3.24,4.09-4.89,6.6-6.46,1.35-2.45,3.16-3.68,5.38-3.3,10.32,1.75,20.7.31,32,1.15-12.56-1.29-24.38,1.78-35.9-2.63-1.36-11.08,4.51-14.51,10.33-17.53,2.69-1.39,5.75-1.43,8.65-2.08,6.23-3.34,12.77-2,19.05-1.39,8.57.86,17.09,0,23,.62-10.88,1-24.39-1.24-37.93-1.12a3.16,3.16,0,0,1-2.41-1.59c.94-10.2,6.27-16.66,15.34-17.11a158.57,158.57,0,0,1,24.16.68c16,1.63,31.24.88,46.5-8.4,22.51-13.71,46.36-14.9,70.4-7.31,2.68.85,5.41,1.48,8.11,2.21a7.27,7.27,0,0,1,2.81,6.08c.35,16,1.43,32-.7,47.9-3.53,5.87-7.12,6.32-10.77.23,3.35-10.92,2.93-22.42,2.8-33.92-.06-5.88-2-9.34-6.07-11-4.86-2-9.72-3.59-14.87-3.64-8.27-.08-16.55.54-24.82-.77-3.47-.54-6.76,1.27-10,2.85-12.19,5.89-23.74,14.69-37.13,15.2-2.65.1-4.22,1.87-4,6,.41,8.47-3.52,11-8.8,12.79-4.07,1.34-8.94-.59-12.14,4.84-.73.76-1.55,1.67-2.42,1.62-7.35-.42-11.76,4.52-13.84,13.87-10.84,6.06-22.25,2.79-31.4,3.71,10.77-.05,23.65,1.33,36-4.79,4.78.17,8.26,3.55,10.75,8.71,1.47,3,1.86,6.46-.71,9.18-6.54,2.24-13.2.93-19.8,1.06-12.13.22-24.26,0-36.39.08C393.48,520.72,389.22,520.09,385.4,516.73Z"/><path class="cls-5" d="M385.55,542.26c-3.53-9.64,2.23-14.34,5.76-20.23,5.47-4.14,11.56-2.82,17.34-3.06,13.32-.54,26.66-.12,40-.21,2.47,0,5.1,1,7.32-1.45,6.07-1.65,15.05,7.21,15.28,15.08.11,3.6-.95,6.18-3.67,6.76-1.71.37-3.5.11-4.45,2.71-11.51,1.3-23,.41-34.55.54-10.36.11-20.7.28-31,1.67C393.62,544.59,389.26,546.18,385.55,542.26Z"/><path class="cls-6" d="M579.34,495.18q0-27.24.08-54.46c3.15-3.29,6.34-2.69,9.55-.22q0,45.51,0,91c-3.88,4.61-7.67,5.28-11.32-.49C575.87,518.87,574.48,506.75,579.34,495.18Z"/><path class="cls-7" d="M579.06,531.56c3.32,2.14,6.62,1.8,9.92-.06-.07,1.25-.15,2.49-.23,3.73-14.8,2.41-29.59,5.07-44.42,7.15-19,2.65-38,4.85-56.94,7.21-3.89.48-7.81,1.28-11.12-2.9-2.43-3.08-5.59-2.43-8.56-2.43-25.55,0-51.1-.12-76.62,1.84a11.42,11.42,0,0,1-6.09-.85c-1.67-.86-.74-2.32.55-3q35.44-1.07,70.88-2.15c2.73-.09,5.53.49,8.12-1.28,5.5-2.53,10.65-3.37,16.41.35,4.27,2.75,9.6,1.3,14.37.63,24.24-3.41,48.66-4.44,72.73-10.28C571.7,528.64,575.84,526.57,579.06,531.56Z"/><path class="cls-8" d="M347,111.61q-.08,40.54-.16,81.08c-.44,3.25.81,7-1.52,9.69-2.62,3.09-5,2.38-7.3-.76,0-28.26,0-56.52,0-84.78C338.1,107.67,340.7,106.26,347,111.61Z"/><path class="cls-9" d="M439.16,239.34c.06,2.6.11,5.2.17,7.8-25.8-10.44-50.09-26.16-75-39.7-5.47-3-8.45-13-15.86-10.21l-.63-4.47c3-3.31,6.25-1.74,8.05,1.18,5.85,9.52,14.29,12.5,22,17,16.93,9.88,34.17,18.75,51.23,28.22C432.55,241.07,435.79,240.79,439.16,239.34Z"/><path class="cls-10" d="M468.27,111l-14.14-2.81c2.34-3.41,4.95-3.77,7.2-4.69,17-6.94,34-14.13,51.17-20.36,8.63-3.12,13.91-9.25,15-21.52,1.11-1.78,1.91-1.72,1.86.81-.26,12.85-5.39,21-14.9,24.57-14.35,5.44-28.63,11.17-42.92,16.86C469,104.81,465.64,105.42,468.27,111Z"/><path class="cls-11" d="M489.6,65.82C478,72.15,465.85,76,453.51,79.26c15.44-9.45,30.86-19,46.36-28.31,5.71-3.42,9.46-8.65,10.47-17.19,2.3,8.63-1.09,14.33-5.64,19a31.79,31.79,0,0,1-11.63,7.63C491.31,61,487.85,60.63,489.6,65.82Z"/><path class="cls-12" d="M467.15,46.55,444.89,62c.5-4.17,2.3-4.92,3.65-6.21,8.68-8.33,17.23-16.92,26.07-24.92,5.47-4.95,9.41-10.93,10.36-20,3.15,5.6-.16,10.19-1.26,15.13-.37,5.57-2.76,9.09-6.28,11.38C473.68,39.74,470.45,43.21,467.15,46.55Z"/><path class="cls-13" d="M457.14,518.09c-5.56,2.65-11.35,1.31-17,1.54-16.28.66-32.59-.15-48.81,2.4-2-.78-4-1.49-6-2.36-2.24-1-.83-2,0-2.94,23.09,1.39,46.19,1.49,69.3,1.19C455.56,516.68,456.37,516.94,457.14,518.09Z"/><path class="cls-14" d="M414.91,470.65h46.86v3.48H413.24Z"/><path class="cls-15" d="M394.26,493.74h39c0,.94,0,1.87,0,2.8-13.44,1.76-27-1.3-40.4,2A5.85,5.85,0,0,1,394.26,493.74Z"/><path class="cls-9" d="M338,201.62l7.3.77c1.74,2,1.48,3.49-.69,4.41s-4.24,1.8-6.35,2.7c-.44-2.66-.89-5.31-1.33-8A3.21,3.21,0,0,0,338,201.62Z"/><path class="cls-16" d="M618,523.25c-.34,5.28-2.16,9.12-6.27,9.32s-6.49-3.38-6.66-8.73c-.16-5.07,2.19-8.35,5.85-8.78C615,514.58,617.3,517.71,618,523.25Z"/><path class="cls-17" d="M638.13,523.15c-.37,6.1-2.55,9.51-6.59,9.37s-6.32-3.63-6.23-9.17c.08-5.19,2.53-8.11,6.15-8.31C635.58,514.81,637.6,518.34,638.13,523.15Z"/><path class="cls-18" d="M658.36,523.35c-.33,5.42-2.35,9-6.37,9.17-3.65.16-6.1-2.73-6.4-7.87-.33-5.51,1.67-9.15,5.78-9.54S657.64,518,658.36,523.35Z"/><path class="cls-19" d="M294.66,184.63c4.16.49,6.53,3.3,6.51,8.91,0,5.12-2.11,8.25-5.85,8.47-4,.23-6.59-2.76-6.76-8.25S290.87,185.35,294.66,184.63Z"/><path class="cls-20" d="M315.53,184.61c3.69.84,6.14,3.7,5.91,9.29s-2.75,8.46-6.81,8.13c-3.8-.3-5.79-3.56-5.77-8.62C308.89,187.8,311.26,185,315.53,184.61Z"/><path class="cls-21" d="M281.24,193.92c-.67,5.07-2.63,8.45-6.81,8.13-3.78-.29-5.88-3.49-5.92-8.47-.05-5.49,2.25-8.82,6.35-8.81S280.89,188.34,281.24,193.92Z"/><path class="cls-22" d="M446.41,205.67c-.91-6.85.09-11,6.19-12,5.06-.84,7.63-6.81,8.25-13.56.45-4.79,2.08-6.17,5.47-6.1,10.63.23,21.25.18,31.88,0,3.24-.06,5.14.86,5.6,5.86.77,8.5,4.39,13.83,10.77,14.68,3.53.46,3.93,3.16,3.92,7q-.06,76.14,0,152.28c0,4.13-.84,6.23-4.19,6.73-6.33.95-9.95,6.47-10.75,14.84-.43,4.49-1.79,5.77-4.88,5.72q-16.28-.24-32.57,0c-3,0-4.49-1.08-5.07-5.53-1.07-8.18-4.71-13.88-10.94-14.9-4.75-.78-3.83-5.17-3.84-9q-.11-57.69-.11-115.39c5.45-6.17,12.22-8.56,18.56-12.17,5.73-3.27,6-6.11,1.84-12.29C460.79,203.32,453.44,205.75,446.41,205.67Z"/><path class="cls-23" d="M479.37,159.76c-3.49-9.5-6.55-19.92-15.54-21.69a44,44,0,0,0-19.22.17c-19.1,4.78-31,22.74-32.92,49.19a36.15,36.15,0,0,1-.87,4.48c-2.13-20.71,5.95-42.58,19.49-51.95,10.4-7.2,21.41-9.59,32.91-6.07C472.63,136.76,478.56,146.36,479.37,159.76Z"/><path class="cls-24" d="M457.14,518.09l-2.44-.17c-1.56-7.73-6.26-10.63-11.08-13.33-1.47-1.07-3.68-.65-4.14-3.78-2.53-7.67-.74-12.75,5.58-14.52,3.11-.87,6.41-.47,9.62-.65,5-4.94,8.78.32,12.46,3.46a162.7,162.7,0,0,1,19.73,20.55c3.93,4.79,6.52,4.49,10.27-1.07,18.38-27.32,42.19-36.33,67-23.35,3,1.59,6.2,2.89,7,8,2.49,2.53,5.11,4.08,8.19,1.92q-.14,18.19-.28,36.38c-31.9,8.22-64.3,10-96.55,13.73-1.29.15-3.13,0-3.87-1.06-3.95-5.83-9.06-5.28-14.09-5.4-.48-.44-1.37-.77-.46-1.77.3-.33.88-.23,1.34-.27,5.65-.45,4.17-4.93,1.79-7.83C464.05,525.11,461.44,520.06,457.14,518.09Z"/><path class="cls-3" d="M571.15,493.26c-5.46-2.5-10.81-5.58-16.38-7.39-17.25-5.62-32.81-.48-46.57,14.78-3.92,4.35-7.89,8.48-10.82,14.38s-6.41,5.41-10.44.65c-9.89-11.67-19.56-23.92-32.26-30-.83-4.95,2-4.87,4.16-5.48,2.93-.85,5.9-1.41,8.86-2.08,4.43-1,8.33-1.53,5-10.48-2.32-6.17,1.94-8.64,5.63-8.16a26.86,26.86,0,0,0,17.85-4.05c6.25-4.33,13.18-5.47,19.15-10.23,6.53-5.22,13.65-4,20.84-3.12,9.84,1.15,19.83-1.41,29.61,2.45,10.28,4.07,10.93,5,10.93,19.4,0,6.94-.06,13.87,0,20.81C576.72,489.91,575.38,493.28,571.15,493.26Z"/><path class="cls-3" d="M439.48,500.81c1.86.27,3.24,1.55,4.14,3.78-13.67,7.68-28,5.74-42.22,5.27-2.29-.07-4.92-1.65-4.38-5.71.5-3.7,2.94-1.67,4.61-1.65C414.26,502.64,426.92,503.78,439.48,500.81Z"/><path class="cls-3" d="M438.21,482.54c-5.71,4.77-11.11,4.7-16.2,6.2-2.24.66-4.35-.25-4.78-3.6a3.85,3.85,0,0,1,3.46-4.69C426.32,479.87,432,478.94,438.21,482.54Z"/><path class="cls-3" d="M429.27,463.77c4.3-5.93,7.57-3.14,12.38.31C436.74,465.06,433.39,465.43,429.27,463.77Z"/><path class="cls-3" d="M413.89,486.34c-4,1.79-6.16,1-7.68-2.3a2.32,2.32,0,0,1,.8-3C410.44,479.41,411.57,483.06,413.89,486.34Z"/><path class="cls-3" d="M462.32,463.16c.9.13,2,.16,2,1.72s-1.14,1.69-2,1.69-2-.13-2-1.69S461.43,463.29,462.32,463.16Z"/><path class="cls-25" d="M511.49,277.53c0,22.63-12.89,40.17-29.47,40.05-16-.12-28.82-17.81-28.85-40,0-22.59,12.94-40.21,29.48-40C498.8,237.74,511.47,255.3,511.49,277.53Z"/></g></g></g></g></svg>