<svg xmlns="http://www.w3.org/2000/svg" viewBox="0 0 1239.27 508.62"><defs><style>.cls-1{fill:#424244;}.cls-2{fill:#50413a;}.cls-3{fill:#f6f7f6;}.cls-4{fill:#533e2a;}.cls-5{fill:#fad8b9;}.cls-6{fill:#f8d8b9;}.cls-7{fill:#53402c;}.cls-8{fill:#f7d9ba;}.cls-9{fill:#ffd34e;}.cls-10{fill:#f8c54b;}.cls-11{fill:#b7d2c3;}.cls-12{fill:#6d6e72;}.cls-13{fill:#eb7f86;}.cls-14{fill:#e29f25;}.cls-15{fill:#554939;}.cls-16{fill:#fbdbbe;}.cls-17{fill:#f4f3f3;}.cls-18{fill:#6c6a5a;}.cls-19{fill:#534a3b;}.cls-20{fill:#f7ddbf;}.cls-21{fill:#f0c658;}.cls-22{fill:#f6c651;}.cls-23{fill:#5a6753;}.cls-24{fill:#97af98;}.cls-25{fill:#d7ecdf;}.cls-26{fill:#83ac94;}.cls-27{fill:#e68084;}.cls-28{fill:#dbaa3f;}.cls-29{fill:#fac44c;}.cls-30{fill:#eeb23b;}.cls-31{fill:#eeb23a;}.cls-32{fill:#424243;}.cls-33{fill:#4f433b;}.cls-34{fill:#fad9ba;}.cls-35{fill:#fbca64;}.cls-36{fill:#fdc95f;}.cls-37{fill:#aa6c55;}.cls-38{fill:#bb9a74;}.cls-39{fill:#f1f0ef;}.cls-40{fill:#e98b8f;}.cls-41{fill:#e2a935;}.cls-42{fill:#91af9a;}.cls-43{fill:#94b9a7;}.cls-44{fill:#6e6e71;}.cls-45{font-size:28.02px;fill:#202529;font-family:MyriadPro-Regular, Myriad Pro;}.cls-46{letter-spacing:0em;}.cls-47{letter-spacing:0.01em;}.cls-48{letter-spacing:-0.01em;}.cls-49{letter-spacing:-0.07em;}.cls-50{letter-spacing:-0.01em;}.cls-51{letter-spacing:-0.01em;}.cls-52{letter-spacing:0em;}.cls-53{letter-spacing:-0.01em;}.cls-54{letter-spacing:-0.01em;}.cls-55{fill:none;stroke:#202529;stroke-miterlimit:10;stroke-width:2px;}</style></defs><title>banner_1</title><g id="Layer_2" data-name="Layer 2"><g id="Layer_1-2" data-name="Layer 1"><g id="Ohfozy.tif"><path class="cls-1" d="M326.87,461.38c-2.49,11.41-1.79,22.77.44,34.12-.55,1.72,1.63,4.58-1.16,5.12-3.53.69-6.82,2.54-10.6,2.15a3.57,3.57,0,0,1-3.27-2c-.74-1.53.05-2.67,1.13-3.57a40.29,40.29,0,0,1,3.35-2.28l5.26,1.17c.41-1.66-.1-3.1-.36-4.59-1.29-7.15-3.35-14.22-3.07-21.57.12-3-1-3.87-3.94-3.8a130,130,0,0,1-35.2-3.59c-2.42-.61-3,0-3.22,2.52-.82,9.64.67,19.06,2.22,28.49-.51,1.8,2.23,4.46-1.08,5.41a28.65,28.65,0,0,1-11.18,1.13c-2.42-.27-2.94-1.73-2.74-3.8,1.7-2.76,4-4.19,7.28-3.1s2.87-.49,2.39-2.66a211.81,211.81,0,0,1-4.55-34.27c-.4-7.7.36-15.47.59-23.21,0-1.46,0-2.93,0-5.31-10.09,9.77-21.13,9.49-32.68,5.41-1.79-.63-4-1-4.08-3.62.7-1.83,1.41-3.66,2.11-5.5l1.83-.61c13.84,7.11,26.6,2.83,32.89-10.77,1.47-3.19.1-6.68,1.79-9.69l5.48,1c0,.23.08.47.1.71-.92,1.63-.74,3.51-1.17,5.24-.84,3.39-.65,5.91,3.48,6.65,2.19.39,1.44,2.06,1.42,3.57,0,2-1.92,4.47.3,5.86,3.33,2.07,6.8,4.13,11.21,5-1.06-2.72-1.93-4.94-2.79-7.16a42.59,42.59,0,0,0,1.29-4.77c.32-2.09,2.48-4.1.56-6.33-1.49-1.73-.78-3.16.64-4.23a4.78,4.78,0,0,1,5.88.2c1.22.93,2.6,2.89.66,4.6-1.26,1.11-1.08,2.24-.86,3.64.48,3,.76,6,1.12,9-.07,2.15-2.48,3-3,5.47,3.22-1.1,6.13-2.19,9.11-3.09,2.41-.73,4.12-1.85,3.84-4.7-.24-2.57,1.49-3.59,3.53-3.86,3.12-.43,4-2.26,3.86-5-.09-1.81-.08-3.62-.11-5.43.06-.27.12-.54.17-.81,4.42.35,8.82.77,13.24,1,2.26.12,4.31,1.92,6.7.79l1.16.05c3.77,4.69,7.76,9.2,9.91,15,3,8.07,1.71,15.45-3.09,22.38-3,4.3-7,7.51-11.12,10.62-1.71,1.29-2.87,1.14-4-.52-.32-.51-.6-1-1-1.53-1.21-1.6-2.06-3.72-4.86-2-1.71,1.08-3.07,2.05-2.48,4.23.66,2.42,2.36,3.4,4.83,3.06Zm2.52-11.79c10.59-6.08,14.26-17.08,9-25.38-.54-.85-1-2.1-2.29-1.8-1.09.24-1,1.35-1.16,2.22C333.16,432.73,331.35,440.83,329.39,449.59Z"/><path class="cls-2" d="M336.87,410.36l-1.16-.05a100.74,100.74,0,0,1-8.49-20.38c-.66-2.25-1.21-4.07,1.95-4.81,2.88-.67,3-2.95,2.56-5.39-.59-3.07-2.68-2.7-4.86-2.11-.65-.64-1.31-1.27-2-1.9a21.67,21.67,0,0,1-.14-4.09c.69-4.5-.85-5.91-5.6-5.8-12.57.28-24.84-1.56-36.05-7.86-10.45-7.36-14.73-17.29-12.68-30.21.69.19,1.2.17,1.43.41,7.84,8.18,10.15,8.8,20.84,4.28,9.7-4.1,19.43-4.81,29.32-1.1,6.45,2.42,11.29,6.62,13.14,13.51a3.76,3.76,0,0,0,3.69,3.19c5.37.66,8.18,4.19,9.57,9.14,2.2,7.82.34,15.41-1.29,23C344.87,390.63,340.91,400.51,336.87,410.36Z"/><path class="cls-3" d="M102.67,412.18c.32,4.44,2.57,8.15,4.49,12-1.94,1.78-4.75,3-4.34,6.35l-.09,26a205.56,205.56,0,0,1-36.65,3.37c-9.41,0-18.82,0-28.19-1-1.53-10.48-3.1-20.95-4.54-31.44-.33-2.39-1.2-3.83-3.71-4.4a21.43,21.43,0,0,1-8.32-3.41l1.05-8.05c2.79.67,5.15,2.77,8.23,2.49l1.74.33c6.46,1.94,13.18,2,19.8,2.31C69.16,417.46,86.13,417.09,102.67,412.18ZM76.94,448.72c.27,2.35,3.13,3.69,4.88,5.78.93,1.12,2,.67,2.69-.22,1.74-2.23,5.77-2.71,5.22-6.69-.71-5.1-1.59-10.18-2.11-15.3-.31-3.08-1.74-6.28-.12-9.3.81-1.52.76-2.8-.48-3.55-1.63-1-3.6-.33-5.12.44s-1.34,2.2-.16,3.41.76,2.75.38,4.24C80.43,434.28,78.81,441,76.94,448.72Z"/><path class="cls-4" d="M32.34,414.39l-1.74-.33c-.57-1.71-1.11-3.42-1.72-5.11-4.2-11.63-8.71-23.18-8.27-35.88,2.75-1.3-.28-7.44,5.43-5.89-.51-1.95-2.23-2.09-2.94-3.25,2.76-1.81,2.8-5.3,4.71-7.69.81-1,.32-3.5,2.56-.95.78.89,1.31-.79,1.73-1.43A31.27,31.27,0,0,1,55,339.6c11.88-1.6,23.53-1.12,33.28,7.34,5,4.3,8,9.79,10,16,1.07,3.27.58,4.81-2.79,5.39a9.63,9.63,0,0,0-2.06.85l-15.41,3a.82.82,0,0,0-.85.09l-1.87.32c-2.45.37-5-.16-7.36,1.14l-1.8.23a1.1,1.1,0,0,0-.87.07l-3.68.26-9.13.56-1.84.09c-.75-.14-1.48-.25-1.86.64l-1.8.06c-1.34-1.09-2.2-.95-2.39.93,0,1.22-.07,2.45-.1,3.68-.06,2.12-.11,4.23-.17,6.35-.7,2.83-2.38.65-3.53.59-2.32-.12-3.39,1-3.68,3.08s.59,3.47,2.92,3.62c1,.07,2.1-.5,3.15.47C40.77,401.67,37.9,408.75,32.34,414.39Z"/><path class="cls-5" d="M32.34,414.39c5.56-5.64,8.43-12.72,10.83-20-1.05-1-2.14-.4-3.15-.47-2.33-.15-3.23-1.45-2.92-3.62s1.36-3.2,3.68-3.08c1.15.06,2.83,2.24,3.53-.59a6.66,6.66,0,0,0,.17-6.35l.1-3.68a3,3,0,0,0,2.39-.93l1.8-.06c1,1,1.53.42,1.86-.64l1.84-.09c3.12,1,6.22,1.79,9.13-.56l3.68-.26.87-.07,1.8-.23c2.72,1.33,5.08.33,7.36-1.14l1.87-.32.85-.09,15.41-3a117.06,117.06,0,0,1,9,36.14c.17,2.27.12,4.56.18,6.84-16.54,4.91-33.51,5.28-50.53,4.52C45.52,416.41,38.8,416.33,32.34,414.39Zm40.57-4c3.48-.5,7.35-1.11,11.23-1.62,3.26-.42,3.49-2.33,2.47-4.85-1.24-3.05-3.46-5.13-6.79-5.21-4.3-.1-8.53.54-11.1,4.68-1,1.68-2,3.59-1.11,5.55C68.61,411.13,70.81,410,72.91,410.42ZM92.1,385.35c-.28-1.44-.36-4-2.77-4.05-2.06-.07-2.22,2.21-2.08,3.87.17,2,.66,4.57,2.68,4.75C91.79,390.08,92.15,387.66,92.1,385.35ZM58.43,389c.25,1.93.1,4.52,2.7,5,1.86.33,2.32-1.67,2.26-3.2-.08-2.3-.42-5-3-5.41C58.44,385.1,58.64,387.42,58.43,389Z"/><path class="cls-6" d="M283.11,358c11.21,6.3,23.48,8.14,36.05,7.86,4.75-.11,6.29,1.3,5.6,5.8a21.67,21.67,0,0,0,.14,4.09c-.11,1-.58,2.2.26,2.88.62.5,1.21-.49,1.71-1,2.18-.59,4.27-1,4.86,2.11.48,2.44.32,4.72-2.56,5.39-3.16.74-2.61,2.56-1.95,4.81a100.74,100.74,0,0,0,8.49,20.38c-2.39,1.13-4.44-.67-6.7-.79-4.42-.25-8.82-.67-13.24-1-13-2.37-26.15-3.19-39.26-4.51L271,403c.48-12.35,1.86-24.54,6.73-36.07A30.07,30.07,0,0,1,283.11,358Zm7.87,31.1c-3,.15-6.13-.41-5.52,4.32.48,3.76,4,6.7,8.76,7.11,5.54.48,9.12-1.37,10.29-5.31.68-2.26.28-3.83-2.4-4.24C298.39,390.38,294.69,389.71,291,389.07Zm17.47-7.87c.29,1.51.11,3.71,2,3.59,2.77-.16,2.77-2.93,3-4.92.17-1.54,0-4-2.15-3.76C308.83,376.44,308.84,379.18,308.45,381.2Zm-23.83-5.39c-.1-1.85-.14-4.11-2.2-3.95-2.35.19-2.57,2.65-2.59,4.64,0,1.58-.39,4.06,1.73,4C284.11,380.41,284.22,377.69,284.62,375.81Z"/><path class="cls-7" d="M37.89,458.87c9.37,1,18.78,1,28.19,1a205.56,205.56,0,0,0,36.65-3.37c-1.13,11.71-2,23.47-5.86,34.71-.9,2.62-.56,3.84,2.53,2.9s5.55.51,7.71,2.6c1.9,4.91,1,6.19-4.32,6a19.51,19.51,0,0,1-3.12-.43c-8-1.69-8-1.7-7.19-9.56a153.82,153.82,0,0,0,2.38-24.9c0-4.14-1.29-4.82-5-4.17a142.44,142.44,0,0,1-39.5,1c-3.13-.33-4.18.69-4.06,3.54.35,8.14-1.51,16-3.2,23.83-.23,1.09-1.09,2.23,0,3.48,2.67-1.19,5.4-2.1,8.24-.47a29.31,29.31,0,0,1,2.11,2.37c.87,1.21,2.06,2.47,1.19,4.1s-2.57,1.29-4.07,1.38c-2.63.15-5.08-.84-7.63-1.12-3.4-.37-4.76-2.08-4.27-5.4C40.56,483.8,39.62,471.33,37.89,458.87Z"/><path class="cls-8" d="M23.1,363.93c.71,1.16,2.43,1.3,2.94,3.25-5.71-1.55-2.68,4.59-5.43,5.89a8.21,8.21,0,0,0-8.14,2.85,21,21,0,0,0-.66,26.43c2.94,3.74,6.73,6.5,10.56,9.22l-1.05,8.05c-16.15-5.93-24.8-22.57-20-38.46A23.86,23.86,0,0,1,23.1,363.93Z"/><path class="cls-8" d="M102.82,430.52c-.41-3.38,2.4-4.57,4.34-6.35,8.93,8.79,18.66,5.19,28.27-.51,1.7-1,3.28-2.2,4.91-3.31a14.89,14.89,0,0,0,8.88,2.12c-7.16,8.16-16,13.51-26.73,15.32C114.59,439.12,108.22,436.08,102.82,430.52Z"/><path class="cls-9" d="M41.4,312.4c-.09-2.75,1.21-5,2.58-7.2s2.69-4.07,3.83-6.21a7.48,7.48,0,0,0-1-8.91c-2.48-2.95-5.71-2.52-8.83-1.65s-5.4,2.78-5.59,6.38A15.06,15.06,0,0,1,32,298a2.62,2.62,0,0,1-2.54,2.24c-1.61,0-2.32-1.08-2.63-2.61-1-4.86,1.84-10.5,6.57-12.94,6.74-3.49,13.74-2.75,18.13,1.91,4.07,4.3,4.64,9.46,1.48,14.6-2.77,4.49-6.54,8.48-6.25,14.35.07,1.53-1.16,2.45-2.79,2.37a2.43,2.43,0,0,1-2.4-2.31C41.45,314.53,41.46,313.46,41.4,312.4Z"/><path class="cls-9" d="M83.43,290.61c6,.06,9.68,2.39,11.39,7.25,1.48,4.21-.37,8.54-5,12.07-2.72,2.1-6.06,3.61-7.19,7.32a2,2,0,0,1-2.86,1.46c-1.63-.59-1.71-1.89-1.3-3.38a8.84,8.84,0,0,1,3.54-5.12c1.73-1.23,3.47-2.45,5.14-3.77,2.53-2,3.15-4.75,2.61-7.78s-3-3.59-5.41-4.1c-3-.64-5.34.59-7,3.09-.51.75-.83,1.62-1.33,2.38-.74,1.12-1.75,1.78-3.07,1s-1.17-1.91-.79-3.19C73.6,293,77.4,290.55,83.43,290.61Z"/><path class="cls-10" d="M149.22,422.47a14.89,14.89,0,0,1-8.88-2.12c-6-7.54-5.54-15,1.19-19.06,5.65-3.38,12.31-1.6,15.69,4.2A11.17,11.17,0,0,1,153,420.84,35.69,35.69,0,0,1,149.22,422.47Zm-1.87-20.93c-4.24-.16-8.84,4.27-9,8.64-.17,5.73,3.49,9.94,8.86,10.17,4.49.2,9.15-4.2,9.41-8.87A9.71,9.71,0,0,0,147.35,401.54Z"/><path class="cls-8" d="M326.87,461.38l-1.8.24c-2.47.34-4.17-.64-4.83-3.06-.59-2.18.77-3.15,2.48-4.23,2.8-1.74,3.65.38,4.86,2,.37.48.65,1,1,1.53C328.82,459.41,327.89,460.42,326.87,461.38Z"/><path class="cls-9" d="M46,329.82c-2.15-.29-2.77-1.66-2.62-3.52.17-2.08,1.53-2.77,3.41-2.66a2.54,2.54,0,0,1,2.7,2.89C49.38,328.63,48,329.67,46,329.82Z"/><path class="cls-8" d="M226.32,424.41l8.2-.34-2.11,5.49C228.76,429.76,226.41,428.41,226.32,424.41Z"/><path class="cls-9" d="M81.55,326.4c-.2,1.63-1,2.57-2.7,2.49a2.57,2.57,0,0,1,.22-5.13A2.42,2.42,0,0,1,81.55,326.4Z"/><path class="cls-11" d="M145.09,395.21c-1.55-2.15-1.64-4.1-2-5.94-.17-.85-.09-1.94,1.07-2.11s1.45.88,1.46,1.76C145.65,390.83,146.06,392.76,145.09,395.21Z"/><path class="cls-3" d="M276.51,404c13.11,1.32,26.27,2.14,39.26,4.51,0,.27-.11.54-.17.81l-4.86,4.59c-4.2,4-7.47,8.85-12.39,12.06-.36-3-.64-6-1.12-9-.22-1.4-.4-2.53.86-3.64,1.94-1.71.56-3.67-.66-4.6a4.78,4.78,0,0,0-5.88-.2c-1.42,1.07-2.13,2.5-.64,4.23,1.92,2.23-.24,4.24-.56,6.33a42.59,42.59,0,0,1-1.29,4.77c-1.35-.37-1.66-1.65-2.28-2.65q-5.1-8.25-10.17-16.51C276.59,404.46,276.55,404.22,276.51,404Z"/><path class="cls-12" d="M276.61,404.7q5.08,8.25,10.17,16.51c.62,1,.93,2.28,2.28,2.65.86,2.22,1.73,4.44,2.79,7.16-4.41-.87-7.88-2.93-11.21-5-2.22-1.39-.33-3.89-.3-5.86,0-1.51.77-3.18-1.42-3.57-4.13-.74-4.32-3.26-3.48-6.65C275.87,408.21,275.69,406.33,276.61,404.7Z"/><path class="cls-12" d="M298.35,426c4.92-3.21,8.19-8.11,12.39-12.06l4.86-4.59c0,1.81,0,3.62.11,5.43.12,2.78-.74,4.61-3.86,5-2,.27-3.77,1.29-3.53,3.86.28,2.85-1.43,4-3.84,4.7-3,.9-5.89,2-9.11,3.09C295.87,428.93,298.28,428.11,298.35,426Z"/><path class="cls-4" d="M326.87,377.62c-.5.49-1.09,1.48-1.71,1-.84-.68-.37-1.89-.26-2.88C325.56,376.35,326.22,377,326.87,377.62Z"/><path class="cls-7" d="M76.94,448.72c1.87-7.68,3.49-14.44,5.18-21.19.38-1.49.9-2.94-.38-4.24s-1.3-2.68.16-3.41,3.49-1.43,5.12-.44c1.24.75,1.29,2,.48,3.55-1.62,3-.19,6.22.12,9.3.52,5.12,1.4,10.2,2.11,15.3.55,4-3.48,4.46-5.22,6.69-.69.89-1.76,1.34-2.69.22C80.07,452.41,77.21,451.07,76.94,448.72Z"/><path class="cls-8" d="M61.6,374.32c-2.91,2.35-6,1.54-9.13.56Z"/><path class="cls-8" d="M75.31,372.62c-2.28,1.47-4.64,2.47-7.36,1.14C70.26,372.46,72.86,373,75.31,372.62Z"/><path class="cls-8" d="M44.48,380.28a6.66,6.66,0,0,1-.17,6.35C44.37,384.51,44.42,382.4,44.48,380.28Z"/><path class="cls-8" d="M47,375.67a3,3,0,0,1-2.39.93C44.77,374.72,45.63,374.58,47,375.67Z"/><path class="cls-8" d="M50.63,375c-.33,1.06-.83,1.62-1.86.64C49.15,374.72,49.88,374.83,50.63,375Z"/><path class="cls-8" d="M66.15,374l-.87.07A1.1,1.1,0,0,1,66.15,374Z"/><path class="cls-8" d="M78,372.21l-.85.09A.82.82,0,0,1,78,372.21Z"/><path class="cls-13" d="M72.91,410.42c-2.1-.43-4.3.71-5.3-1.45-.91-2,.06-3.87,1.11-5.55,2.57-4.14,6.8-4.78,11.1-4.68,3.33.08,5.55,2.16,6.79,5.21,1,2.52.79,4.43-2.47,4.85C80.26,409.31,76.39,409.92,72.91,410.42Z"/><path class="cls-7" d="M92.1,385.35c.05,2.31-.31,4.73-2.17,4.57-2-.18-2.51-2.78-2.68-4.75-.14-1.66,0-3.94,2.08-3.87C91.74,381.39,91.82,383.91,92.1,385.35Z"/><path class="cls-4" d="M58.43,389c.21-1.61,0-3.93,1.92-3.63,2.62.42,3,3.11,3,5.41.06,1.53-.4,3.53-2.26,3.2C58.53,393.55,58.68,391,58.43,389Z"/><path class="cls-13" d="M291,389.07c3.71.64,7.41,1.31,11.13,1.88,2.68.41,3.08,2,2.4,4.24-1.17,3.94-4.75,5.79-10.29,5.31-4.74-.41-8.28-3.35-8.76-7.11C284.85,388.66,288,389.22,291,389.07Z"/><path class="cls-2" d="M308.45,381.2c.39-2,.38-4.76,2.88-5.09,2.12-.28,2.32,2.22,2.15,3.76-.22,2-.22,4.76-3,4.92C308.56,384.91,308.74,382.71,308.45,381.2Z"/><path class="cls-2" d="M284.62,375.81c-.4,1.88-.51,4.6-3.06,4.68-2.12.07-1.74-2.41-1.73-4,0-2,.24-4.45,2.59-4.64C284.48,371.7,284.52,374,284.62,375.81Z"/><path class="cls-14" d="M147.35,401.54a9.71,9.71,0,0,1,9.29,9.94c-.26,4.67-4.92,9.07-9.41,8.87-5.37-.23-9-4.44-8.86-10.17C138.51,405.81,143.11,401.38,147.35,401.54Zm-.29,7.1c.79-.72,2.41.33,2.67-1.05.2-1.1-.82-1.54-1.65-1.84-2-.69-4.11.67-3.74,1.93.81,2.73-2,6.24,1.7,8.26,2.23,1.22,3.55-.36,4.39-1.86C152.35,410.67,148.19,410.61,147.06,408.64Z"/><path class="cls-10" d="M147.06,408.64c1.13,2,5.29,2,3.37,5.44-.84,1.5-2.16,3.08-4.39,1.86-3.72-2-.89-5.53-1.7-8.26-.37-1.26,1.79-2.62,3.74-1.93.83.3,1.85.74,1.65,1.84C149.47,409,147.85,407.92,147.06,408.64Zm.81,4.53-.57-.49c-.08.12-.25.31-.23.33a6.68,6.68,0,0,0,.55.5C147.7,413.39,147.78,413.28,147.87,413.17Z"/><path class="cls-14" d="M147.86,413.17l-.24.34a6.68,6.68,0,0,1-.55-.5s.15-.21.23-.33Z"/></g><g id="QgajuI"><path class="cls-15" d="M883.42,406c-.4-5.5-3-10.45-4-15.8-1.48-7.46-3.21-14.86-1.45-22.53,1.22-5.31,4-9.13,9.56-10.42a3.86,3.86,0,0,0,3.14-2.2c7.39-15.94,19.21-21.79,36.45-18.13,2.08.44,4.16.87,6.24,1.32,8.15,1.75,11.92-.29,14.75-8,.47-1.27.9-2.54,1.39-3.94,10.56,11.9,10.35,27.27-.34,39.12a58.85,58.85,0,0,1-12.52,6.32,101,101,0,0,1-27.31,4.52c-3.06.13-3.83,1.1-3.62,4,.26,3.53.06,7.1.06,10.83-2.73-.53-5-2.8-7.18-.48a4.59,4.59,0,0,0-1,5.1c1.65,3.54,5.11,1.28,7.83,2.09-2.88,8.16-6.54,15.74-11.92,22.41a2.59,2.59,0,0,1-.68,0C889.65,415.47,885.54,411.39,883.42,406Z"/><path class="cls-16" d="M893.47,420.16c5.38-6.67,9-14.25,11.92-22.41-2.72-.81-6.18,1.45-7.83-2.09a4.59,4.59,0,0,1,1-5.1c2.18-2.32,4.45-.05,7.18.48,0-3.73.2-7.3-.06-10.83-.21-2.87.56-3.84,3.62-4a101,101,0,0,0,27.31-4.52,58.85,58.85,0,0,0,12.52-6.32c6.51,8.4,9.75,18.3,12.91,28.23.17.54.18,1.3.54,1.56.71.49,1-.26,1.12-.8.31-2,.52-4.06-.46-6l.3-1.95c2.4-.92,2.12-3,2.22-5,.15-2.86-.48-5.78.61-8.56,2-5.14,1.49-10.35.55-15.59l.24-1.93c3-.29,3.15-2.11,2.53-4.51-.34-1.31-.51-2.91,1.25-3.35s2.3,1,2.94,2.24a10.17,10.17,0,0,1,1,4.34c.17,2.82-.53,5.71.62,8.45a6,6,0,0,1-.66,3.78,2.26,2.26,0,0,0-1.64,2c.06,9-3.21,17.58-2.82,26.58-.13,2.08.19,4.23-1,6.14-2.34.16-.84,3.49-3,3.77-1.81-.87-1.18-3.37-3.37-4.55.69,4.64,1.29,8.77,1.9,12.91-4.52,3.71-10.16,4.84-15.57,5.95-16.68,3.45-33.62,4.39-50.64,3.87C896.44,422.93,894.59,422.29,893.47,420.16Zm43.75-6.3c6.93.09,12.38-3.95,12.49-9.31.06-3-.85-5-4.48-4.38a84.11,84.11,0,0,0-12.86,2.66c-1.79.59-4.41.45-4.72,2.81s1.22,4.63,3.21,6.18A9.85,9.85,0,0,0,937.22,413.86Zm17.57-26.51c-.35-2.34-.53-5.18-3.29-5.84-1.79-.43-2.23,1.67-2.19,3.25.06,2.63.29,5.58,3.39,6.13C954.49,391.21,954.55,388.93,954.79,387.35Zm-31.54,6.15c-.36-2.36-.29-5.28-3.15-5.95-2.05-.48-2.13,1.79-2.12,3.23,0,2.59.11,5.64,3.26,6.22C923,397.33,923,395,923.25,393.5Z"/><path class="cls-17" d="M893.47,420.16c1.12,2.13,3,2.77,5.28,2.85,17,.52,34-.42,50.64-3.87,5.41-1.11,11.05-2.24,15.57-6l1.45-.19c-2.36,15.59.93,31,1.17,46.57-22.2,5.39-44.76,7.31-67.55,7-2.35-10.9-4.66-21.82-7.09-32.7-.82-3.71-4.5-5.62-6.05-8.91l5.9-4.72A2.59,2.59,0,0,0,893.47,420.16ZM947.09,423c-3.69.08-5.55,1.94-3.87,4s1.18,3.78.79,5.88c-1.12,6-1.56,12.14-3.22,17.95-1.48,5.17,2.14,6.9,4.93,9,3,2.21,3.76-1.86,5.61-2.94,2.14-1.24,2.8-3,1.93-5.76A63.59,63.59,0,0,1,951.08,440c-.6-4.79-3.67-9.34-1.13-14.53C950.55,424.22,949,422.64,947.09,423Z"/><path class="cls-18" d="M1119.35,415.71v2.77q0,18.27,0,36.54v2.75c.92,3.27,1.75.76,2.61,0,3.76-3.73,7.48-7.5,11.29-11.18,1.48-1.43,1.59-3.15,1.6-5,0-6.21.1-12.43.15-18.64l3.47-.77v17.57a1.12,1.12,0,0,0,1.76-.14q14.12-13.95,28.21-27.92a25.66,25.66,0,0,0,2.2-2.87c1.39.67,2.64,1.47,3.07,3.09-6.32,5-11.42,11.13-18.23,17.49H1164c0,1.28-.07,2.56-.11,3.83-8.06-1.36-14.31.91-19.87,7.42-7.36,8.61-15.81,16.28-23.79,24.35l-.86,1c0,.63,0,1.25,0,1.87q0,15.06,0,30.12c0,2.75,0,5.5,0,8.25-1.21,1.27-2.39,1.95-3.5-.1.89-1.37.75-2.91.75-4.42q0-37.54,0-75.11c0-1.51.12-3.05-.8-4.4l-1-1q-21-21.11-42-42.23a5.76,5.76,0,0,0-4.52-1.62c-4.4.06-8.79,0-13.19.05,0-1.23,0-2.46,0-3.69h10.43l-22.27-23.57c.09-1.77,1.37-2.54,2.72-3.26q14.07,14.28,28.13,28.56c5.52,5.62,11,11.27,17.61,16.46v-17l4,0c-.07,6.34-.09,12.68-.23,19a6.57,6.57,0,0,0,2.3,5.17c5.11,4.91,10.17,9.88,15.24,14.83.78.86,1.07,2.46,2.81,1.82,1-1.5.8-3.2.8-4.87q0-45.4,0-90.83c0-1.66.2-3.37-.94-4.82a6.85,6.85,0,0,1-.81-.2l-21.33-21.41,2.86-2.49c6.57,6.06,12.12,13.19,19.38,18.53,1.14-1.62.83-3.49.84-5.29q0-17.06,0-34.12l2.51-.21c.09,2.25.17,4.51.26,6.77v1.85q0,40.22,0,80.41c0,1.3-.55,2.93,1.24,3.47,1.37.42,2.2-.77,3-1.61,5.81-5.76,11.59-11.56,17.4-17.31a5.73,5.73,0,0,0,2-4.39c-.13-6.21-.21-12.42-.3-18.62a7.75,7.75,0,0,1,4.1-.37v17.53c9.51-9.61,18.46-17.86,26.56-27a6,6,0,0,1,3,3.09c-10.94,10.76-21.93,21.48-32.82,32.3-7.87,7.82-15.6,15.77-23.4,23.66l-.84,1.13c0,.62,0,1.23,0,1.85l0,28.3c0,.62,0,1.24,0,1.86Z"/><path class="cls-19" d="M900,466.52c22.79.35,45.35-1.57,67.55-7-.14,11.39.24,22.85-4.18,33.73-1.23,3-.31,4.1,3.06,3.52,4.67-.79,8,1.19,9.61,5.73,0,1.93-.79,3.4-2.8,3.51-5.65.31-11.15-.26-16-3.58,1.17-8.4,3.58-16.63,3.05-25.24-.63-10.24-.58-10.32-10.57-8.42a175.56,175.56,0,0,1-35.82,2.79c-1.62,0-4-.88-4.17,2a128.38,128.38,0,0,1-3.46,23.82c-.43,1.75.23,2.74,2.21,1.8,4.83-2.3,8.82-1,12.25,2.82,1.87,4.89,1,6.47-4,6.55a57.42,57.42,0,0,1-13.39-1.88c-2.29-.51-2-2.27-2.15-3.88l-.15-.16a2,2,0,0,0,.53-1.91A97,97,0,0,0,900,466.52Z"/><path class="cls-20" d="M892.79,420.19l-5.9,4.72c-9.58-10.65-17.8-22.36-26.09-34-3.71-5.2-7.13-10.61-10.77-15.86-3.21-4.64,1.45-5.81,3.58-7.72,2.59-2.32,3.26.89,4.19,2.27,7.15,10.59,14.17,21.27,21.32,31.86,1.15,1.71,2,3.83,4.3,4.53C885.54,411.39,889.65,415.47,892.79,420.19Z"/><path class="cls-21" d="M1173.72,411.87c-.43-1.62-1.68-2.42-3.07-3.09-4.52-8.52-4.33-15.67.57-21.18,5.52-6.2,14.65-7.59,21-3.2,6.94,4.8,9.8,13.77,6.49,20.38A16.84,16.84,0,0,1,1178,413.5C1176.53,413,1175.14,412.42,1173.72,411.87Zm22.47-13.82c0-7.6-5.18-12.59-13-12.53a12.55,12.55,0,0,0-12.65,12.71,13.13,13.13,0,0,0,12.66,12.93C1191.16,411.26,1196.18,406.18,1196.19,398.05Z"/><path class="cls-21" d="M1176.44,313.84a6,6,0,0,0-3-3.09c-2.14-4.85-4.59-9.46-2.31-15.19,3.53-8.89,12.21-13.35,20.93-10.23,8.39,3,13.07,12.92,10,21.18s-12.92,12.57-21.48,9.34C1179.1,315.32,1177.8,314.51,1176.44,313.84Zm10.33-.46a12.81,12.81,0,1,0-.06-25.62c-7.1-.1-13.33,6-13.26,12.92C1173.51,307.81,1179.3,313.33,1186.77,313.38Z"/><path class="cls-21" d="M1119.09,270l-2.51.21-1.07.15c-7.32-1.73-12.38-5.44-14.1-13.45-2-9.33,5.72-18,12.64-19,9-1.21,16,2.72,18.86,10.71,2.58,7.24-.49,14.8-8.06,19.8a2.18,2.18,0,0,0-1.87,1h0Zm-14.42-16c0,7.6,5,12.71,12.36,12.74a13.09,13.09,0,0,0,13.28-12.66,12.62,12.62,0,0,0-12.92-13C1109.59,241.16,1104.65,246.17,1104.67,254Z"/><path class="cls-21" d="M1046,346.84c-1.35.72-2.63,1.49-2.72,3.26-10.37,4.93-16.84,3.36-22.66-2.78-5.06-5.32-5.57-12.62-1.47-19.32,3.5-5.71,11.09-8.73,17.83-7.09A15.81,15.81,0,0,1,1049,335.64,18.16,18.16,0,0,1,1046,346.84Zm.09-9.93c-.1-6.78-6.61-13.43-13.13-13.41-6.86,0-13.33,6.76-13.16,13.72.16,6.2,6.67,12.62,12.8,12.63C1039.34,349.86,1046.13,343.35,1046,336.91Z"/><path class="cls-22" d="M1096.37,291.08l-2.86,2.49c-4.91,2.16-10.21.27-11.61-4.14s1.2-9.44,5.5-10.55c4.5-1.16,9.07,2.11,10.09,6.95C1097.93,287.87,1096.61,289.31,1096.37,291.08Z"/><path class="cls-22" d="M1095.67,374.87l-4,0c-4.36-1.65-6.8-4.67-5.92-9.43a7.19,7.19,0,0,1,6.79-6.28c4.24-.46,7.09,1.54,8.63,5.22s-.21,6.74-3.17,9.09A17.6,17.6,0,0,1,1095.67,374.87Z"/><path class="cls-22" d="M1146.83,320.19a7.75,7.75,0,0,0-4.1.37c-7-4.45-8.15-10.49-2.82-14.47a7.76,7.76,0,0,1,11.21,1.63c2.69,3.51,2.06,7.94-1.6,10.79C1148.69,319.15,1147.73,319.63,1146.83,320.19Z"/><path class="cls-22" d="M1163.9,433.19c0-1.27.08-2.55.11-3.83,2-3.83,4.93-6.16,9.38-5.29,3.75.74,6.38,3.25,6.51,7.14a8,8,0,0,1-14.92,4.46A17.21,17.21,0,0,1,1163.9,433.19Z"/><path class="cls-22" d="M1055.07,373.67c0,1.23,0,2.46,0,3.69-2.33,5.06-6.19,7.14-10.31,5.54-4.3-1.67-6.38-5.61-5-9.78a7.51,7.51,0,0,1,6.69-5.33C1051,367.2,1053.38,370,1055.07,373.67Z"/><path class="cls-22" d="M1138.48,422.14l-3.47.77a33.74,33.74,0,0,1-2.92-2.1c-2.73-2.38-4.34-5.39-2.9-8.89,1.27-3.11,3.3-5.72,7.45-5.42,3.6.26,6.17,1.83,7.3,5.15,1.26,3.69.1,6.9-3,9.28A14.22,14.22,0,0,1,1138.48,422.14Z"/><path class="cls-23" d="M1115.65,315.18c1.14,1.45.94,3.16.94,4.82q0,45.42,0,90.83c0,1.67.2,3.37-.8,4.88l-.24-4.51v-5.59Q1115.59,360.4,1115.65,315.18Z"/><path class="cls-24" d="M1115.65,315.18q-.06,45.22-.1,90.43c-.88-1.36-.78-2.9-.78-4.42q0-43.1.07-86.21A6.85,6.85,0,0,0,1115.65,315.18Z"/><path class="cls-24" d="M1115.52,503.48a6.31,6.31,0,0,1-.78-3.66q0-39.33,0-78.66c.34.35.67.7,1,1,0,3.05-.09,6.09-.1,9.13Q1115.58,467.41,1115.52,503.48Z"/><path class="cls-24" d="M1119.36,359q0-40.2,0-80.41c1.1,1.47.9,3.18.9,4.84q0,35.37,0,70.74C1120.25,355.85,1120.44,357.56,1119.36,359Z"/><path class="cls-25" d="M1033.74,266.55c5.78-.61,5.54-4.84,6-9.6,2.94,7.12,3.63,8.15,6.5,9.58-4.93.59-5.13,4-5,9C1038.22,271.88,1040.18,265.92,1033.74,266.55Z"/><path class="cls-20" d="M975.53,362.57c-1.15-2.74-.45-5.63-.62-8.45a10.17,10.17,0,0,0-1-4.34c-.64-1.2-1.29-2.64-2.94-2.24s-1.59,2-1.25,3.35c.62,2.4.49,4.22-2.53,4.51.12-1.49.22-3,.35-4.48.58-6.26.57-6.2,6.54-5.12,2.53.46,3.64,1.47,3.13,4.26C976.45,354.19,976.07,358.4,975.53,362.57Z"/><path class="cls-25" d="M1073.7,442.5c-1.48-3.36-1-7.5-6.28-8.24,5.78-.25,4.46-5,5.68-8.11,2.13,1.6,1.19,3.6,1.43,5.26.37,2.6,3.23,1.17,4.37,3.15C1074.47,435.26,1073.93,438.58,1073.7,442.5Z"/><path class="cls-25" d="M1215.72,361c-2.1-7-2.1-7-6.29-8.52,6.08-.18,5.15-4.44,6-8.58,2.42,3.31.07,8.85,6.73,8.33C1219.4,353.4,1217.87,355.74,1215.72,361Z"/><path class="cls-25" d="M1182.79,237.13c-2.78-2,2-8.91-6.38-7.57,6.66-.44,4.72-5.38,6.11-8.56,2,1.57,1.37,3.49,1.49,5.09.19,2.73,2.72,1.8,4.11,2.67-.43,2.4-4,.51-4.11,3.35C1184,233.76,1184.65,235.76,1182.79,237.13Z"/><path class="cls-20" d="M966.41,413l-1.45.19c-.61-4.13-1.21-8.26-1.9-12.9,2.19,1.18,1.56,3.68,3.37,4.55,2.11-.28.61-3.61,3-3.77C968.92,405.17,968.75,409.35,966.41,413Z"/><path class="cls-20" d="M966.93,357.33c.94,5.24,1.45,10.45-.55,15.59-1.09,2.78-.46,5.7-.61,8.56-.1,2,.18,4-2.22,5Q965.24,371.89,966.93,357.33Z"/><path class="cls-20" d="M970.41,394.92c-.39-9,2.88-17.61,2.82-26.58a2.26,2.26,0,0,1,1.64-2A156.86,156.86,0,0,1,970.41,394.92Z"/><path class="cls-23" d="M1115.51,270.35l1.07-.15q0,17.06,0,34.12c0,1.8.3,3.67-.84,5.29Z"/><path class="cls-24" d="M1119.36,455q0-18.27,0-36.54c1,1.31.9,2.85.9,4.37v27.79C1120.25,452.16,1120.34,453.7,1119.36,455Z"/><path class="cls-24" d="M1119.36,498q0-15.06,0-30.12c1.92,6.39.62,12.93.8,19.39C1120.27,490.81,1121.11,494.52,1119.36,498Z"/><path class="cls-24" d="M1119.34,401.08l0-28.3c1.92,7,.48,14.14.84,21.21C1120.32,396.35,1120.82,398.87,1119.34,401.08Z"/><path class="cls-20" d="M963.25,388.4c1,1.93.77,4,.46,6-.08.54-.41,1.29-1.12.8-.36-.26-.37-1-.54-1.56Z"/><path class="cls-24" d="M1119.35,415.71V402.94A19.67,19.67,0,0,1,1119.35,415.71Z"/><path class="cls-24" d="M1119.09,270l3.88-.57c-3.48,1.33-2.09,5.05-3.62,7.34C1119.26,274.5,1119.18,272.24,1119.09,270Z"/><path class="cls-24" d="M1115.55,411.2l.24,4.51c-1.74.63-2-1-2.81-1.83C1114.49,413.61,1114.76,412.16,1115.55,411.2Z"/><path class="cls-24" d="M1122,457.73c-.86.8-1.69,3.31-2.61,0Z"/><path class="cls-24" d="M1123,269.41a2.18,2.18,0,0,1,1.87-1Z"/><path class="cls-26" d="M901.58,500.79a2,2,0,0,1-.53,1.91C901.22,502.06,901.4,501.43,901.58,500.79Z"/><path class="cls-24" d="M1119.38,466l.86-1Z"/><path class="cls-24" d="M1119.38,370.93l.84-1.13Z"/><path class="cls-27" d="M937.22,413.86a9.85,9.85,0,0,1-6.36-2c-2-1.55-3.54-3.67-3.21-6.18s2.93-2.22,4.72-2.81a84.11,84.11,0,0,1,12.86-2.66c3.63-.6,4.54,1.37,4.48,4.38C949.6,409.91,944.15,414,937.22,413.86Z"/><path class="cls-15" d="M954.79,387.35c-.24,1.58-.3,3.86-2.09,3.54-3.1-.55-3.33-3.5-3.39-6.13,0-1.58.4-3.68,2.19-3.25C954.26,382.17,954.44,385,954.79,387.35Z"/><path class="cls-15" d="M923.25,393.5c-.25,1.48-.23,3.83-2,3.5-3.15-.58-3.23-3.63-3.26-6.22,0-1.44.07-3.71,2.12-3.23C923,388.22,922.89,391.14,923.25,393.5Z"/><path class="cls-15" d="M947.09,423c1.93-.37,3.46,1.21,2.86,2.43-2.54,5.19.53,9.74,1.13,14.53a63.59,63.59,0,0,0,2.18,11.17c.87,2.72.21,4.52-1.93,5.76-1.85,1.08-2.63,5.15-5.61,2.94-2.79-2.08-6.41-3.81-4.93-9,1.66-5.81,2.1-12,3.22-17.95.39-2.1.88-3.82-.79-5.88S943.4,423.09,947.09,423Z"/><path class="cls-23" d="M1115.52,503.48q.07-36.08.17-72.15c0-3,.06-6.08.1-9.13.92,1.35.8,2.89.8,4.4q0,37.56,0,75.11c0,1.51.14,3.05-.75,4.42C1115.73,505.24,1115.63,504.36,1115.52,503.48Z"/><path class="cls-28" d="M1196.19,398.05c0,8.13-5,13.21-13,13.11a13.13,13.13,0,0,1-12.66-12.93,12.55,12.55,0,0,1,12.65-12.71C1191,385.46,1196.19,390.45,1196.19,398.05Zm-12.36,3.7c-.62.69-1.15.3-1.68,0-1-.55-2.2-.93-2.8.24-.74,1.44.6,2,1.6,2.78,2.86,2.15,4.92.34,6.59-1.54,1.93-2.16.91-4.15-1.12-5.86-1.08-.9-3-.93-3.25-3,1.41-.43,3.18,1.08,4.21-.65a1.41,1.41,0,0,0-.62-2c-1.28-.68-2.43-2.32-4-1.56S1179.48,392,1179,394a4.23,4.23,0,0,0,1.76,4.39C1182,399.35,1184.12,399.51,1183.83,401.75Z"/><path class="cls-28" d="M1186.77,313.38c-7.47-.05-13.26-5.57-13.32-12.7-.07-7,6.16-13,13.26-12.92a12.81,12.81,0,1,1,.06,25.62Zm-.2-9.28c-1.43,1-3.82-2.55-4.37.55-.35,2,2.21,4,3.66,4a6.46,6.46,0,0,0,5.31-3.56c1-2-.11-3.71-1.67-5.21-1.13-1.09-3.56-.89-3.68-3.14,1.72-1.05,2.9,1.86,4.32.12a1.86,1.86,0,0,0-.22-2.5c-1.17-1.27-2.59-2.26-4.4-1.47s-3.22,1.82-3.62,3.78a4.5,4.5,0,0,0,1.82,4.38C1184.75,301.94,1186.74,302,1186.57,304.1Z"/><path class="cls-28" d="M1104.67,254c0-7.82,4.92-12.83,12.72-12.88a12.62,12.62,0,0,1,12.92,13A13.09,13.09,0,0,1,1117,266.73C1109.65,266.7,1104.69,261.59,1104.67,254Zm12.4-3.86c1.52-.18,2.91,1,4.07-.24.66-.68.34-1.45-.21-2-1.08-1.11-2.38-2-4-1.72s-3.33.8-3.79,2.76a4.92,4.92,0,0,0,1.64,5.31c1.09.91,3.23,1,3,3.09-1.07.67-1.68.08-2.35-.19-.86-.34-1.89-.72-2.49.18-.8,1.21.4,1.84,1.12,2.57,2.53,2.56,5.15,1.78,7-.52,2-2.52,1.42-5.09-1.63-6.77C1118.54,252.1,1117.4,251.83,1117.07,250.13Z"/><path class="cls-28" d="M1046,336.91c.09,6.44-6.7,12.95-13.49,12.94-6.13,0-12.64-6.43-12.8-12.63-.17-7,6.3-13.7,13.16-13.72C1039.43,323.48,1045.94,330.13,1046,336.91Zm-14-4.38c1.69-.18,3.16,1.73,4.38.1a1.79,1.79,0,0,0,0-1.64c-.89-1.26-2.23-2.5-3.66-2.35a5.75,5.75,0,0,0-4.36,3.56c-.84,1.78.07,3.17,1.43,4.37,1.1,1,3.22,1.05,3.17,3.23-1.64.73-4-2.39-4.6.62-.46,2.17,2.1,3.71,3.71,3.94,2.18.32,4.24-1.2,5.26-3.45a3.69,3.69,0,0,0-1.52-5.09C1034.63,335,1032.9,334.93,1032.08,332.53Z"/><path class="cls-29" d="M1183.83,401.75c.29-2.24-1.86-2.4-3-3.38A4.23,4.23,0,0,1,1179,394c.45-2,2.11-3,3.71-3.79s2.74.88,4,1.56a1.41,1.41,0,0,1,.62,2c-1,1.73-2.8.22-4.21.65.28,2.08,2.17,2.11,3.25,3,2,1.71,3,3.7,1.12,5.86-1.67,1.88-3.73,3.69-6.59,1.54-1-.75-2.34-1.34-1.6-2.78.6-1.17,1.8-.79,2.8-.24C1182.68,402.05,1183.21,402.44,1183.83,401.75Z"/><path class="cls-29" d="M1186.57,304.1c.17-2.11-1.82-2.16-2.85-3.07a4.5,4.5,0,0,1-1.82-4.38c.4-2,1.92-3,3.62-3.78s3.23.2,4.4,1.47a1.86,1.86,0,0,1,.22,2.5c-1.42,1.74-2.6-1.17-4.32-.12.12,2.25,2.55,2,3.68,3.14,1.56,1.5,2.63,3.2,1.67,5.21a6.46,6.46,0,0,1-5.31,3.56c-1.45,0-4-2-3.66-4C1182.75,301.55,1185.14,305.15,1186.57,304.1Z"/><path class="cls-29" d="M1117.07,250.13c.33,1.7,1.47,2,2.36,2.46,3,1.68,3.64,4.25,1.63,6.77-1.83,2.3-4.45,3.08-7,.52-.72-.73-1.92-1.36-1.12-2.57.6-.9,1.63-.52,2.49-.18.67.27,1.28.86,2.35.19.21-2.08-1.93-2.18-3-3.09a4.92,4.92,0,0,1-1.64-5.31c.46-2,2.15-2.47,3.79-2.76s2.92.61,4,1.72c.55.56.87,1.33.21,2C1120,251.08,1118.59,250,1117.07,250.13Z"/><path class="cls-29" d="M1032.08,332.53c.82,2.4,2.55,2.49,3.77,3.29a3.69,3.69,0,0,1,1.52,5.09c-1,2.25-3.08,3.77-5.26,3.45-1.61-.23-4.17-1.77-3.71-3.94.63-3,3,.11,4.6-.62,0-2.18-2.07-2.26-3.17-3.23-1.36-1.2-2.27-2.59-1.43-4.37a5.75,5.75,0,0,1,4.36-3.56c1.43-.15,2.77,1.09,3.66,2.35a1.79,1.79,0,0,1,0,1.64C1035.24,334.26,1033.77,332.35,1032.08,332.53Z"/></g><g id="lrzh0l"><path class="cls-30" d="M599,419.1l.42-2,1.47.65a2.85,2.85,0,0,0,1.88,1.36c3.11,2.74,6.89,3.88,10.89,4.47a9.55,9.55,0,0,0,3.6,1.22c7.89,1.63,15.88,1.39,23.85,1.16,1.66-.05,2.72-.25,2.16,2-.64,2.58.48,4.54,2.68,6a27.23,27.23,0,0,0,7.12,3.54,89.84,89.84,0,0,0,47.6.55c1.49-.38,2.92-1,5.08-1.68-1.09-.38-1.39-.6-1.61-.55-6.42,1.68-13,2.19-19.55,2.71a68.73,68.73,0,0,1-26.47-2.69c-5.29-1.7-11.53-3.61-11.85-11.15,0-.23-.44-.44-.66-.66.08-1.57-.95-2.53-2-3.45a4.87,4.87,0,0,1-1.85-4.17l0-2.32c-.8-2.71-3.61-4.36-3.87-7.35l0-2.28c.23-.68.46-1.36.68-2,4.15,3.94,9.2,6,14.71,7.18a102.08,102.08,0,0,0,35.21.79c3.63-.51,7.26-1.15,10.48-3.23a118.49,118.49,0,0,1-14.75,1.88c-10.27.86-20.45.7-30.35-2.22-6.89-2-11.73-5.25-10.83-12.7l.07-1.36a29.92,29.92,0,0,0,13,6.54,73.42,73.42,0,0,0,11.58,2.09c12.06,1,24,.62,35.61-3.2.58-.19,1.53-.09,1.53-1.14-.13-.07-.23-.16-.31-.15l-1.56.29c-14.4,2.64-28.86,4.14-43.2.09-6.18-1.74-12.77-3.68-13.57-11.89-.11-1.09-.86-1.3-1.86-1.16s-2.11.16-3.16.24c1-2.51,1.35-5.69,5.15-5.7a6.94,6.94,0,0,0,3.34,6.41,27.35,27.35,0,0,0,8,3.8,86.3,86.3,0,0,0,35.91,2.44c8-1.08,16-2.53,22.35-8.21,1.12,1.61.54,3.44.67,5.17l-.5,1.73-1.59,1.52c-2.58,2.45-2.37,3.93.8,5.64,0,.22,0,.44,0,.66-.88,0-1.88-.75-2.54.46-.86,1.56-1.74,3.12-2.6,4.68-1.5.05-2.57.75-2.45,2.31.38,4.84-2.84,7-6.45,8.86-11.61,6-24.11,5-36.53,4.47-5.49-.26-10.86-1.45-16.28-2.5a35.8,35.8,0,0,0,7.3,2.8c12.34,3.23,24.83,3.2,37.29,1,6.69-1.17,13.39-2.77,18.34-8.1l.08,1.4c-.14,2.49.21,4.86-1.6,7.23-3.36,4.4-8.14,5.73-13,6.73-10.51,2.17-21.15,1.76-31.77.75-3.29-.32-6.55-.9-9.82-1.36a27.33,27.33,0,0,0,7.1,2.55,89.31,89.31,0,0,0,31.72,1.17c7.82-1,15.6-2.6,21.79-8.18,1,1.39.56,3,.68,4.53l0,2.49c-2.49,1.14-4.69,2.43-3.23,5.78-.76,4.45-3.74,6.89-7.64,8.61a62,62,0,0,1-23,4.78A89.61,89.61,0,0,1,650.06,444l-.48-.13.49.13c.6,1.8,2.29,2.09,3.75,2.61,10,3.57,20.36,4.48,31,3.87,10.92-.62,21.57-1.75,30.4-9.15l.09,5.84q0,.31,0,.63c-1.19,2.36-4.59,3.17-4.5,6.43l.67,1.25c-1.74,1.59-2.27,3.84-3.27,5.84-1.49.5-1.34,1.85-1.36,2.95-.09,6.34-4.06,9.2-9.51,10.76a76.35,76.35,0,0,1-19.53,2.81,135.57,135.57,0,0,1-24.66-1.91,8.27,8.27,0,0,0,1.2.89,25.65,25.65,0,0,0,3,1,95.77,95.77,0,0,0,35.83.94c7.19-1.17,14.28-2.75,19.44-8.58l.06,3.88c.3,3.13-1.18,5.25-3.76,6.83a32.35,32.35,0,0,1-6,3c-12.54,4.45-25.39,4.3-38.37,2.71-5.19-.64-10.12-2.34-15.18-3.51l-.48-.15.49.14c2.28,2.51,5.47,3.36,8.49,4.1a95.75,95.75,0,0,0,43.55.31c5-1.09,9.25-3.63,13.38-6.47l.6,2.09-.06,2.6c-1.07,2.6-4.17,4.15-3.92,7.41.31,4-1.84,6.26-5.05,8-7,3.84-14.63,4.86-22.36,5.43-11.85.88-23.56.23-34.77-4.18-2.9-1.15-5.93-2.39-6.95-5.88a1.73,1.73,0,0,0-.32-.49,12.09,12.09,0,0,1-.08-5.32c3.82,2.47,7.58,5,12.1,6.16a88.73,88.73,0,0,0,47.08-.67,4,4,0,0,0,2.65-1.6,2.61,2.61,0,0,0,1.91-.65,1.55,1.55,0,0,0,.31-.06c.07,0,.11-.11.16-.17l-.46.24a2.72,2.72,0,0,0-1.92.63,11,11,0,0,0-2.23.14c-9.88,2.61-20,2.71-30.06,2.37-6.18-.22-12.33-1.19-18-3.89-4.41-2.12-9.06-4.39-7.93-10.75.26-.68.67-1.39-.28-1.9a5.17,5.17,0,0,0-2-2c0-.88-.07-1.76-.1-2.64.58-1.23.73-2.35-.72-3.1l-.07-.05c-2.38-2.17-5.71-3.62-5.76-7.56l0-1.94a2.76,2.76,0,0,1,.69-2,25.4,25.4,0,0,0,11.12,6,86,86,0,0,0,49.32-.88,4.22,4.22,0,0,0,3-2.22c-11.73,4.16-23.22,3.69-34.67,3.55a41.41,41.41,0,0,1-16.76-3.46c-4.48-2-9.42-4.18-8.81-10.64l.1-2c8.91,7.09,19.7,7.91,30.37,9,10,1,27.3-1.8,31.69-5.23-10.6,3.05-20.79,3.05-31,2.73-6.14-.2-12.29-.87-18.06-3.33a17.85,17.85,0,0,1-7.09-5.25c-1.63-2-.28-4.66-1.58-6.7,0-2.73-2.08-4.67-2.65-7.18.77-1.74-.48-1.73-1.57-1.75-2.23,0-4.47-.05-6.7,0-7.77.12-15.53-.19-23-2.7C605.16,429.07,599.36,426.76,599,419.1Zm108.66,15.95a1.45,1.45,0,0,0-.3.05c-.07,0-.12.11-.17.17l.45-.24a1.45,1.45,0,0,0,.3-.06c.07,0,.12-.11.17-.16Z"/><path class="cls-31" d="M605.26,350.62c.08-.65.17-1.29.25-1.94a32.31,32.31,0,0,0,13.18,6.8c9.28,2.57,18.74,2.38,28.2,2.17a54.8,54.8,0,0,0,20.53-4.06c3.22-1.39,6.79-2.74,7.79-6.91.36-1.49,1.87-1.24,3-1.1a101.4,101.4,0,0,0,27,0c1.59-.22,2.72.17,1.29,2.06-1.93,2.56-1,4.78.91,6.85s4.33,3.05,6.84,4c9.76,3.49,19.85,4.18,30.12,3.75,11.06-.47,21.89-1.47,30.8-9.08.54,3.62.27,7-2.66,9.7a2.28,2.28,0,0,0-.84,2c.68,4.24-1.67,7-4.49,9.6-.21.46-.65,1-.6,1.39.45,4-1.95,6.1-5,8-4.61,2.92-9.7,4.07-15,4.84a76.36,76.36,0,0,1-25.55-.2v-7.05c14.59,1.42,31.53-.31,36.13-3.74a3,3,0,0,0-1-.12c-10.46,2.74-21.15,1.8-31.76,1.73-3.2,0-6.74,0-9.34-2.44a19.66,19.66,0,0,0-8.78-5c-3.14-.79-4.88-2.33-4.46-5.79.19-1.6-.45-2.66-2.31-2.66-8.71,0-17.45.48-26.12-.83-.55-.08-1.17-.08-1.2.62a1.27,1.27,0,0,0,.71.93,11.6,11.6,0,0,0,2.14.56c6.82,1.35,13.73,1.38,20.65,1.28.78,0,2-.4,2.2.68a2.05,2.05,0,0,1-1.8,2.27,10.38,10.38,0,0,1-3.15.06,109.26,109.26,0,0,0-27.34.61c-5.5.88-10.56,3.22-15.89,4.56-6.55,1.65-13.35.61-20,.79a57.87,57.87,0,0,1-17.65-2.2c-7.56-2.16-10.15-5.55-10.08-13.18,1.28-.79,1.85.41,2.71.91,2.61,1.53,5.13,3.31,8.27,3.64,1.46,1.24,3.31,1.4,5.07,1.77a108.77,108.77,0,0,0,11.69,1.6,83.86,83.86,0,0,0,31.55-3.09c.58-.16,1.56-.21,1.31-1.5-5.79.87-11.47,2.26-17.32,2.44-10.46.32-20.86.09-31-3.18-2.48-1.3-5.08-2.4-7.06-4.49l-1.2-1.31-.65-1.27-.09-1.91Zm159.39,16.2a3.13,3.13,0,0,0-.92,0c-10.65,3.35-21.63,3.3-32.6,2.92-5.41-.19-10.88-.88-15.9-3.1-4.81-2.14-10.1-4-9.94-10.89.05-2-1.24-2.88-3.22-2.39a31.67,31.67,0,0,1-8,.46c-5.42,0-10.86.37-16.26-.57-1-.17-2.41-.36-2.51,1.16-.1,1.36,1.2,1.21,2.12,1.31a79.14,79.14,0,0,0,20,.13c2-.3,4.07-.33,6.27-.49-3,6.41-2.13,8.66,4.15,11.76a35.56,35.56,0,0,0,7.18,2.64A89.37,89.37,0,0,0,749,371.54C754.45,370.81,759.86,369.73,764.65,366.82Z"/><path class="cls-32" d="M469.48,417.76c-2.31-8.54,0-16.08,5.06-23,1.72-2.37,3.68-4.55,5.53-6.82a124.11,124.11,0,0,0,14.12-1.66c2.74.49,2.73,3.69,4.8,4.84,1.5,3.91,4.56,6.59,7.65,9.09,1.65,1.33,1.68,3.72,3.71,4.59,7,3,14,5.47,21.84,4.12,2.15-.37,4.57-2.66,6.53-.74,1.57,1.54,2.31,4,3.2,6.16,1.43,3.44,4.36,6,5.34,9.69.62,14.23-1.64,28.16-4.3,42.05-.12.63-.21,1.26-.34,1.89-.33,1.67,0,2.37,1.94,1.78,3-.9,5.7-.42,7.6,2.38.4,3.64-.18,4.4-3.72,4.47a29.77,29.77,0,0,1-5.34-.35c-5.88-1-5.87-1-5.61-6.72,1.7-9.32,3.33-18.64,2.25-28.18-.17-1.49-.1-2.6-2.33-2.05a146.67,146.67,0,0,1-36.7,3.88c-2.06,0-2.89.64-2.78,2.73.33,6.44-1.06,12.68-2.39,18.92-.38,1.76-.56,3.56-.84,5.34-.3,1-1,1.89-.22,2.94,4.62-2.44,7.5-2,9.6,1.54,1,1.72.63,2.74-1.32,3.26-2.54.67-5.06.13-7.58-.12-5.86-.57-5.86-.61-5.7-6.35,1.78-10.21,2.82-20.44.75-30.74-.16-.82-.42-1.63-.63-2.45,5.85.59,7.52-.86,6.65-5.73,3.9-2,7.25-4.84,10.87-7.24,1.8-1.2,2.12-2.87.84-4.69-1.58-2.27-3.2-4.51-4.8-6.76.15-.13.3-.33.47-.37,1.4-.29,2.69-.7,2.7-2.47a2.64,2.64,0,0,0-1.54-2.52c-1.57-.75-2.53.19-3.43,1.31-.18.21-.55.27-.83.39-1.52-2.27-3-4.57-4.57-6.81a3,3,0,0,0-4.63-.82c-2.58,1.82-5.13,3.68-7.69,5.52-1.75-2.89-1.35-6.46-3-9.83-3.29,4.51-5.27,9-4.3,14.37a5.74,5.74,0,0,0,1.06,3.22c1.3,4.25,4.38,7.12,7.73,9.73,2,1.53,5.43,2.65,5.72,4.38s-2.34,4.16-3.7,6.28h-1.85c-6-4.14-11.22-9-14.77-15.48C470.21,419.76,469.84,418.76,469.48,417.76Zm55.7-3.29a1.55,1.55,0,0,0-1.57-1.65,1.5,1.5,0,0,0-1.79,1.41,1.62,1.62,0,0,0,1.7,1.88C524.5,416.11,525,415.39,525.18,414.47Zm.56,8.15c-.25-.74-.62-1.48-1.65-1.49a1.48,1.48,0,0,0-1.67,1.49,1.61,1.61,0,0,0,1.75,1.79C525.12,424.38,525.64,423.7,525.74,422.62Z"/><path class="cls-33" d="M480,386.39c-1.36-.16-1.53-1.38-1.93-2.3-4.91-11.25-8.95-22.78-10.49-35a33,33,0,0,1,.26-11.12C469.07,332,472,329.12,478,328c1.07-.2,2.31,0,2.72-1.62,2.73-10.94,11-14.92,21.06-16.69a35.21,35.21,0,0,1,19.09,2.25c.89.35,1.79.69,2.68,1.05,10.14,4.05,12.39,3.57,19.92-4.29a15.59,15.59,0,0,1,1.32-1.05,28.47,28.47,0,0,1-3,21.43c-2,3.59-5.21,6.12-8.17,8.85-3.83,1.8-7.5,3.9-11.6,5.12a86.72,86.72,0,0,1-27.08,3.22c-2.18,0-3,.57-3,2.81,0,3.13-.36,6.26-.57,9.48-5.52-2.74-6.72-2.28-6.8,2.42a6.83,6.83,0,0,0,.43,4c.79,2.48,2.28,4.7,2.6,7.35C485.21,377.09,483.11,382,480,386.39Z"/><path class="cls-31" d="M726.26,326.78a4.31,4.31,0,0,0-2.27,2.89c.08,6.28-4.53,8.61-9.22,10.8a36.2,36.2,0,0,1-15.13,3.42c-10.36.06-21.09,2.68-30.61-4.4-4.31-3.21-10-3.24-15.12-4.7l.09-7.22a3.31,3.31,0,0,0,.55.07,4.66,4.66,0,0,0,1.91,1.85c2.57,1.74,5.16,3.42,8.31,3.9,1.21.41,2.39.93,3.62,1.22a95.45,95.45,0,0,0,35.77.88c3.49-.53,7.05-1,10.13-3.07a157.24,157.24,0,0,1-16,1.82c-11.46.9-22.7.46-33.49-4l-1.83-.71a3.2,3.2,0,0,0-1.88-1.34,8.78,8.78,0,0,0-2-3.1c-.23-.85-.45-1.7-.68-2.55l0-2.56-.55-.58-.08-.09a3,3,0,0,0-1.67-2.19,5.14,5.14,0,0,1-2.26-4.92,10.2,10.2,0,0,0-1.7-6.58c-1.54-2.2-.76-4.9-.63-7.41,3.65,3.44,8.07,5.33,12.85,6.65,10.47,2.89,21.14,3.13,31.83,2.16,7.82-.71,15.6-2,22.31-6.66,1.25-.86,2-.38,2.35.9.54,1.77.91,3.48-.9,4.87-1.42,1.1-2.72,2.35-4.07,3.54a8.76,8.76,0,0,0-1.55.37c-12,5.35-24.52,5.35-37.28,4.39a91.31,91.31,0,0,1-19.28-4l-.48-.15.48.14c3.38,3.3,7.83,4.09,12.15,5a90.43,90.43,0,0,0,31,1.23c5.86-.75,11.76-1.76,17-5a4.85,4.85,0,0,0,2.89-1.77c1.86-2,2.62-1,2.92,1.14,0,.85,0,1.71,0,2.56-.22.64-.44,1.28-.67,1.92a23.87,23.87,0,0,1-13,7.47c-10.54,2.42-21.17,1.57-31.79,1.1-3.31-.15-6.6-.88-9.9-1.35a37,37,0,0,0,11.42,3.39c13.25,1.76,26.33,1.41,39.13-2.77,2.78-.92,5.72-1.82,7.4-4.62h0l1.27-.23c.82,1.18.54,2.57.7,3.87s0,2.53-1.23,3.37Z"/><path class="cls-34" d="M484.57,361c.08-4.7,1.28-5.16,6.8-2.42.21-3.22.57-6.35.57-9.48,0-2.24.8-2.86,3-2.81A86.72,86.72,0,0,0,522,343.05c4.1-1.22,7.77-3.32,11.6-5.12,6.32,9.41,8.16,20.65,12.54,30.85a7.55,7.55,0,0,1,.84,3.69,2.38,2.38,0,0,0-2.19,2.82c.12,2-.06,4-.1,5.94-1.55.22-3.21-.33-4.64.68l-.68.06a49,49,0,0,0-6.65.19c-7.83,1.26-15.76,1.59-23.62,2.46-2.91.32-6,.18-8.64,1.71l-1.31.13a2.17,2.17,0,0,1-1.47-1.12,84.24,84.24,0,0,1-10.11-21.79c1.67-.57,1.78-1.75,1-3-1-1.53-1.73-.33-2.45.4Zm43.35,6.75c-4.84.65-9.68,1.4-14.54,1.9-2.33.24-2.62,1.15-1.8,3.09a10.29,10.29,0,0,0,10.27,6.11,9.71,9.71,0,0,0,9.08-7.24C531.82,368.25,531.31,367.62,527.92,367.73Zm-23-8.32c.19,1.78.2,4.12,2.45,4.46,1.73.26,1.86-1.84,1.78-3.1-.12-1.81-.05-4.21-2.57-4.39C505,356.26,505,358.06,504.89,359.41ZM531.68,356c.29,1.59.24,3.82,2.37,4.16,1.89.29,1.87-1.74,1.83-3,0-1.84-.06-4.24-2.45-4.47C531.66,352.48,531.87,354.48,531.68,356Z"/><path class="cls-30" d="M773.84,411.42c.61,4,.62,7.83-3.24,10.49a2.73,2.73,0,0,0-1.22,1.8c.17,3.25-1.5,5.73-3.15,8.25a7.17,7.17,0,0,0-.44,1.83c.23,6-2.94,9.43-8.43,11.19-12.36,4-25,3.23-37.6,2.22,0-2.35,0-4.69,0-7,1.7.06,3.41,0,5.1.18a77.06,77.06,0,0,0,32.58-4.06,3.68,3.68,0,0,0,2.77-2,67.47,67.47,0,0,1-18.92,3.67c-8,.54-16.11.9-24.07-1-.05-1.32.86-2,1.74-2.75A4.71,4.71,0,0,0,721,430c14.38,1.7,34.83.29,40-4.33-6.83,2-13,2.17-19.07,2.69a89.44,89.44,0,0,1-20.94-1v-7.67c9.92,1.34,19.87,2,29.84.63C759.22,419.18,767.58,418,773.84,411.42Z"/><path class="cls-35" d="M653.91,334.79c5.08,1.46,10.81,1.49,15.12,4.7,9.52,7.08,20.25,4.46,30.61,4.4a36.2,36.2,0,0,0,15.13-3.42c4.69-2.19,9.3-4.52,9.22-10.8a5.8,5.8,0,0,1,3.17,6.7c-.67,3.12,1.23,2.92,3,2.71a87.67,87.67,0,0,1,11.45-.5c9.43.08,18.75,1.14,27.33,5.18,6,2.81,7,5,6.2,9.39-8.91,7.61-19.74,8.61-30.8,9.08-10.27.43-20.36-.26-30.12-3.75-2.51-.9-5-1.9-6.84-4s-2.84-4.29-.91-6.85c1.43-1.89.3-2.28-1.29-2.06a101.4,101.4,0,0,1-27,0c-1.12-.14-2.63-.39-3,1.1-1,4.17-4.57,5.52-7.79,6.91a54.8,54.8,0,0,1-20.53,4.06c-9.46.21-18.92.4-28.2-2.17a32.31,32.31,0,0,1-13.18-6.8c-.84-3.92,1-6.54,4.2-8.42,6.09-3.56,12.87-4.72,19.73-5.55C637.6,333.73,645.75,334.25,653.91,334.79Zm-12.7,1.73c-9,.08-17.2.57-24.71,4.42-2.25,1.15-4.87,2.4-4.6,5.52.26,3,2.91,4,5.15,5.2a8.61,8.61,0,0,0,.89.34c5.23,2.34,10.81,3.11,16.45,3.51,10.3.74,20.43.13,30-4.35,2.09-1,4-2.34,4.08-4.88s-1.82-3.91-3.86-5C657,337.07,648.77,336.67,641.21,336.52Zm99,4.56a48.42,48.42,0,0,0-12,.73c-5.14.84-10.33,1.76-14.45,5.39-2.3,2-2.37,4.51-.14,6.6a17.51,17.51,0,0,0,7.27,3.85c10.17,3,20.52,3.26,31,1.74,4.22-.62,8.44-1.39,12.21-3.49,2.13-1.19,4.46-2.65,4.48-5.39s-2.22-4-4.33-5.08a29.74,29.74,0,0,0-4.72-1.92A55.62,55.62,0,0,0,740.25,341.08Z"/><path class="cls-31" d="M775,392.66c.8,3.47.49,6.64-2.44,9.12-1.11.94-1,2.23-.9,3.49.15,3.51-1.64,5.77-4.59,7.37a43,43,0,0,1-9.73,3.9c-11.81,3.1-23.71,2.62-35.64.91-2.18-.31-4.46-.39-6.45-1.55,1.89-2.76-.42-4.79-1.25-7.09a17.78,17.78,0,0,1,2.21.25,90.27,90.27,0,0,0,39.19.36,28.48,28.48,0,0,0,9.86-3.4c-.7-.13-1-.29-1.25-.22-11,3.48-22.24,3.37-33.5,2.92-5.23-.2-10.61-.62-15.29-3.6a7.59,7.59,0,0,0,2-6.49,95.35,95.35,0,0,0,38.53,1.79A42.53,42.53,0,0,0,775,392.66Z"/><path class="cls-30" d="M773.84,451c.44,3.2.7,6.35-1.67,9-2.36.13-2,2-1.83,3.34.34,3.71-1.48,6.05-4.48,7.75a30.4,30.4,0,0,1-3.71,1.83c-7.11,2.84-14.57,3.69-22.16,4.1a77,77,0,0,1-22.8-1.81,12.92,12.92,0,0,0-1.24-7,123,123,0,0,0,33,.68,45.23,45.23,0,0,0,15.51-4.37c-.61-.75-1.11-.4-1.58-.27a92.16,92.16,0,0,1-41.31,2c-2.86-.49-6-.64-8.28-2.9.47-2.17,1.57-4.22,1.32-6.54,8.82,2.79,17.89,3.48,27.07,3.16C753.14,459.57,764.43,458.6,773.84,451Z"/><path class="cls-36" d="M601.93,359.59c-.07,7.63,2.52,11,10.08,13.18a57.87,57.87,0,0,0,17.65,2.2c6.69-.18,13.49.86,20-.79,5.33-1.34,10.39-3.68,15.89-4.56a109.26,109.26,0,0,1,27.34-.61,10.38,10.38,0,0,0,3.15-.06,2.05,2.05,0,0,0,1.8-2.27c-.22-1.08-1.42-.69-2.2-.68-6.92.1-13.83.07-20.65-1.28a11.6,11.6,0,0,1-2.14-.56,1.27,1.27,0,0,1-.71-.93c0-.7.65-.7,1.2-.62,8.67,1.31,17.41.79,26.12.83,1.86,0,2.5,1.06,2.31,2.66-.42,3.46,1.32,5,4.46,5.79a19.66,19.66,0,0,1,8.78,5c2.6,2.46,6.14,2.42,9.34,2.44,10.61.07,21.3,1,31.76-1.73a3,3,0,0,1,1,.12c-4.6,3.43-21.54,5.16-36.13,3.74-2-.32-4.45-1.81-5.13,1.76-6.37,5.68-14.36,7.13-22.35,8.21A86.3,86.3,0,0,1,657.61,389a27.35,27.35,0,0,1-8-3.8,6.94,6.94,0,0,1-3.34-6.41c1-2.41-1-2-2-1.8a27.9,27.9,0,0,1-5.69.52l-1.28,0c-10.89.13-21.72-.11-32.11-4a17.82,17.82,0,0,1-8.69-6.21c-.78-4.12,2-6,4.92-7.77Zm80.53,30.06a49.17,49.17,0,0,0,5.38,0c6.69-.63,13.37-1.41,19.14-5.3,3.42-2.31,3.49-5.62.18-8.07a20.48,20.48,0,0,0-3.65-1.93c-5.72-2.67-11.91-3.11-18-3.57-9.66-.73-19.12.43-28.06,4.42-2,.91-4,2.22-4.1,4.84s1.7,4.16,3.93,5.27C664.88,389.08,673.08,389.84,682.46,389.65Z"/><path class="cls-30" d="M604,448.37c.5-2.13-1.55-3.45-1.76-5.21a10.31,10.31,0,0,0-5-8.12c-1.12-.69-.91-2-.94-3.19.32-1.24-.38-2.72.75-3.93,5,3.8,10.65,5.58,16.56,6.6a88.58,88.58,0,0,0,25,1.21c-.31,2.65.51,5.12,1.27,7.59-9.49.11-19,.4-28.41-1.49,9,3.37,18.33,4.09,27.78,4.13-.25,2.72-3.72,4-3.23,7a87.12,87.12,0,0,1-27.39-3.9c8.47,5,17.86,6.12,27.42,6.47a3.73,3.73,0,0,1-1.55,2.3,5.52,5.52,0,0,0-2.28,5.24c-2-.18-4-.33-6-.56-6-.7-11.88-2-17.16-5.32C605.66,455.09,603.71,452.43,604,448.37Z"/><path class="cls-35" d="M715.85,309.65c1.35-1.19,2.65-2.44,4.07-3.54,1.81-1.39,1.44-3.1.9-4.87-.39-1.28-1.1-1.76-2.35-.9-6.71,4.64-14.49,6-22.31,6.66-10.69,1-21.36.73-31.83-2.16-4.78-1.32-9.2-3.21-12.85-6.65-.81-3.88.85-6.44,4.12-8.46,4.35-2.69,9.2-3.84,14.07-4.7a88.28,88.28,0,0,1,36.33.78c4.09,1,8,2.11,11.48,4.4a9.36,9.36,0,0,1,4.11,6.79c.89,5.13,1.69,10.27,5.39,14.66,2.39,2.82,2.78,6.91,1.15,10.7-.16-1.3.12-2.69-.7-3.87-.23-1.11.45-3.24-.94-3.08-1.88.22.45,2-.25,3a1.32,1.32,0,0,0-.08.3h0c-2.65.51-3-1.24-3.22-3.22.23-.64.45-1.28.67-1.92.69-.2,1.47-.36,1.48-1.27s-.77-1.09-1.46-1.29c-.3-2.1-1.06-3.15-2.92-1.14a4.85,4.85,0,0,1-2.89,1.77Zm-29.51-23.53a50.6,50.6,0,0,0-21.47,3.18c-3.06,1.22-7.1,2.34-6.89,6.54.21,4,4.09,5.19,7.28,6.23a66.65,66.65,0,0,0,42,0c3.19-1,7.15-2.23,7.15-6.3s-3.91-5.53-7.22-6.67A53.1,53.1,0,0,0,686.34,286.12Z"/><path class="cls-30" d="M603.17,389.79l-3-1.64L599.12,387,599,387a2.57,2.57,0,0,0-1.3-1.77l.12-5.87a47.78,47.78,0,0,0,11.51,5.31c10.54,2.89,21.25,2.68,32,2.3,2-.07,2.76.08,1.67,2.1-3.44.36-4,3-4.37,5.68a140.42,140.42,0,0,1-19.44-.74,6.59,6.59,0,0,0,3.46,1.45c4.82,1.28,9.85.84,14.7,1.88-1.33,2.32-4.34,3.73-3.85,7.05a46.47,46.47,0,0,1-18.68-3.44c-4.25-1.77-8.82-3.6-9.6-9.2C605,390.63,604,390.28,603.17,389.79Z"/><path class="cls-37" d="M544.69,381.23c0-2,.22-4,.1-5.94a2.38,2.38,0,0,1,2.19-2.82c1.94,3.65,2.1,7.71,2.7,11.67.18,1.15.44,2.29.66,3.44a35.42,35.42,0,0,0-1.23,8.93c-1.35,1.55-1.93,3.5-2.75,5.33-1.41,1.11-2.81,2.24-4.25,3.32a1.71,1.71,0,0,0-.67,2.22c1.47,3.63,2.84,7.32,5.6,10.25a21.38,21.38,0,0,0,9.23,9.82c2.38,1.41,5.09,2.32,8,1.54a22.19,22.19,0,0,0,11.15-6.52c8-9.09,11.27-20,12-31.91a6.57,6.57,0,0,0,.64-3.2c.06-1.5.11-3,.17-4.49l-.12,0,1.89.09v.27l.52.88c0,.54,0,1.08,0,1.62a3.91,3.91,0,0,0-.28,2.77c-.05.81-.11,1.62-.16,2.43l-1.44,10.2c-.05.21-.09.42-.14.63L588,403c-2.41,9.69-6.36,18.51-14.68,24.63-8.15,6-15.94,5.4-23.26-1.58-.83-.79-1.53-1.81-2.81-2-1-3.66-3.91-6.25-5.34-9.69-.89-2.15-1.63-4.62-3.2-6.16-2-1.92-4.38.37-6.53.74-7.87,1.35-14.87-1.13-21.84-4.12-2-.87-2.06-3.26-3.71-4.59-3.09-2.5-6.15-5.18-7.65-9.09l1.56-.84c3.75,3.44,6.65,7.75,10.91,10.67,1.61,1.11,2.95,2.85,5.28,2.4l0,.18-.18-.06,1.28.89a9.25,9.25,0,0,0,7.62,1.87c2.12,0,4.28.5,6.32-.5,11.42-1.11,14.35-6.36,15.57-16.35C547.71,386.13,545.91,383.84,544.69,381.23Z"/><path class="cls-30" d="M604,408.7a3.82,3.82,0,0,0-.73-2.67c-2-2.42-1.94-5.22-1.41-8.09,3,1.12,5.08,3.66,8.19,4.75,7.61,2.66,15.46,3.59,23.39,4.2,0,2.37-.13,4.75.65,7a76.76,76.76,0,0,1-26.26-4.28c9,5.62,19.17,6.6,29.47,6.89a14.22,14.22,0,0,0,1.29,7.49c-8.23.58-16.26-.85-24.27-2.45l-5.18-2.48-1.25-.71L604,413.3c0-.64,0-1.27,0-1.91Z"/><path class="cls-31" d="M770.16,382c.07.58.13,1.17.19,1.76.63,6.38-3.08,9.81-8.34,12.1a24.46,24.46,0,0,1-4.57,1.43c-13.41,2.95-26.83,2.49-40.24,0a3.13,3.13,0,0,1,1.66-2.17,4.44,4.44,0,0,0,2.19-4.25c1.06,0,2.13,0,3.18.13,12,1.2,23.94,1.07,35.57-2.64C763.75,387.13,767.63,385.62,770.16,382Z"/><path class="cls-31" d="M771.35,441.34c.09.86.18,1.72.26,2.58.09,3.55-1.45,6-4.62,7.69a46.94,46.94,0,0,1-9.75,3.9c-10.3,2.94-20.83,2.42-31.33,1.61a31.72,31.72,0,0,1-9.37-1.69c.81-2.25,3.56-3.52,3.23-6.35,3,.28,5.91.62,8.87.82C743.65,450.9,758.41,450.65,771.35,441.34Z"/><path class="cls-32" d="M549.11,396.51a35.42,35.42,0,0,1,1.23-8.93c10.54,7.49,20.57,6.73,29.94-2.2,1-1,1.61-2.58,3.35-2.69a27.69,27.69,0,0,0,4.38,4.67,6.57,6.57,0,0,1-.64,3.2c-1.44,1.25-2.85,2.54-4.34,3.74C571.69,403.48,561.39,404.14,549.11,396.51Z"/><path class="cls-36" d="M715.25,415.9c2,1.16,4.27,1.24,6.45,1.55,11.93,1.71,23.83,2.19,35.64-.91a43,43,0,0,0,9.73-3.9c2.95-1.6,4.74-3.86,4.59-7.37,2.47,1.43,2.64,3.68,2.19,6.15-6.27,6.57-14.63,7.76-23,8.9-10,1.36-19.92.71-29.84-.63-4.06-1.56-4.06-1.56-5.15,2.54-6.19,5.58-14,7.14-21.79,8.18a89.31,89.31,0,0,1-31.72-1.17,27.33,27.33,0,0,1-7.1-2.55c3.27.46,6.53,1,9.82,1.36,10.62,1,21.26,1.42,31.77-.75,4.85-1,9.63-2.33,13-6.73,1.81-2.37,1.46-4.74,1.6-7.23Z"/><path class="cls-31" d="M596.48,367.31a17.82,17.82,0,0,0,8.69,6.21c10.39,3.89,21.22,4.13,32.11,4,.17.24.29.64.5.7.54.15.64-.34.78-.72a27.9,27.9,0,0,0,5.69-.52c1.06-.19,3-.61,2,1.8-3.8,0-4.11,3.19-5.15,5.7l-1.29,0c-.66-1.4-1.29-1.34-1.91,0-9.86,1.33-19.52-.1-29.07-2.38a22.5,22.5,0,0,1-11.16-5.85c-.33-1.81.25-3.75-.75-5.47a2.74,2.74,0,0,0-.45-.38C596.49,369.41,596.48,368.36,596.48,367.31Z"/><path class="cls-30" d="M621.36,471.41l-2.66-.26c-.77-1.21-2-.87-3.12-.92-8.87-1.92-15.12-4-15.45-12.18l.48-1.91c2.45,1.46,4.46,3.54,7.22,4.61a67.61,67.61,0,0,0,24.35,4.41l0,7.23-5.2-.07a1.61,1.61,0,0,0-2.35-.43l-1.52-.23C622.65,470.86,622,470.87,621.36,471.41Z"/><path class="cls-36" d="M771.35,441.34c-12.94,9.31-27.7,9.56-42.71,8.56-3-.2-5.91-.54-8.87-.82l-4.47-1.29q0-.32,0-.63l4.49,0c12.63,1,25.24,1.74,37.6-2.22,5.49-1.76,8.66-5.15,8.43-11.19a7.17,7.17,0,0,1,.44-1.83C770.07,433.92,772.36,436.73,771.35,441.34Z"/><path class="cls-36" d="M641.94,490.61c-.05-1.68-.1-3.36-.14-5a9,9,0,0,1,3.27-3.21h.52c-1.13,6.36,3.52,8.63,7.93,10.75,5.63,2.7,11.78,3.67,18,3.89,10.09.34,20.18.24,30.06-2.37a11,11,0,0,1,2.23-.14h0a4,4,0,0,1-2.65,1.6,88.73,88.73,0,0,1-47.08.67C649.52,495.61,645.76,493.08,641.94,490.61Z"/><path class="cls-36" d="M717.2,397.32c13.41,2.47,26.83,2.93,40.24,0a24.46,24.46,0,0,0,4.57-1.43c5.26-2.29,9-5.72,8.34-12.1,4.42,2.22,5.38,4.06,4.65,8.89a42.53,42.53,0,0,1-19.29,7.76,95.35,95.35,0,0,1-38.53-1.79l-1.89-.69c0-.22,0-.44,0-.66Z"/><path class="cls-36" d="M716.54,455.43a31.72,31.72,0,0,0,9.37,1.69c10.5.81,21,1.33,31.33-1.61a46.94,46.94,0,0,0,9.75-3.9c3.17-1.73,4.71-4.14,4.62-7.69,2.35,1.84,2.81,4.27,2.23,7-9.41,7.64-20.7,8.61-32.14,9-9.18.32-18.25-.37-27.07-3.16l-3.16-1.33-.67-1.25C712.71,454.63,714.49,455.66,716.54,455.43Z"/><path class="cls-36" d="M770.16,382c-2.53,3.61-6.41,5.12-10.36,6.38-11.63,3.71-23.56,3.84-35.57,2.64-1.05-.11-2.12-.09-3.18-.12l-5-.79.5-1.73,4.46.12a76.36,76.36,0,0,0,25.55.2c5.27-.77,10.36-1.92,15-4.84,3.06-1.93,5.46-4,5-8,0-.43.39-.93.6-1.39C769.37,376.47,771,378.74,770.16,382Z"/><path class="cls-35" d="M638.57,435.73a88.58,88.58,0,0,1-25-1.21c-5.91-1-11.56-2.8-16.56-6.6-1.13,1.21-.43,2.69-.75,3.93-2.25-3.85-.88-10.3,2.71-12.75.41,7.66,6.21,10,12.12,12,7.43,2.51,15.19,2.82,23,2.7,2.23,0,4.47,0,6.7,0,1.09,0,2.34,0,1.57,1.76Z"/><path class="cls-38" d="M469.48,417.76c.36,1,.73,2,1.09,3-2.3,1-2.17,2.28-.77,4.14,2.66,3.56,5.1,7.28,7.64,10.93,3.16,4.56,3.16,4.56,7.52.91a3.28,3.28,0,0,0,.38-.5h1.85a.67.67,0,0,1,.48.12l1.57,1.52a65.7,65.7,0,0,1-6.94,4.92,4.27,4.27,0,0,1-6.1-1.49c-3.19-4.84-6.46-9.64-9.67-14.47C463.19,421.8,463.79,420,469.48,417.76Z"/><path class="cls-35" d="M633.43,406.89c-7.93-.61-15.78-1.54-23.39-4.2-3.11-1.09-5.21-3.63-8.19-4.75-1.15-3,.88-5.44,1.32-8.16.81.5,1.84.85,2,1.93.78,5.6,5.35,7.43,9.6,9.2a46.47,46.47,0,0,0,18.68,3.44l4.44.12,0,2.28Z"/><path class="cls-35" d="M632.18,465.16a67.61,67.61,0,0,1-24.35-4.41c-2.76-1.07-4.77-3.15-7.22-4.61-.13-1.39-.26-2.79-.38-4.19l.69-.91,3.05-2.67c-.26,4.06,1.69,6.72,5,8.83,5.28,3.31,11.11,4.62,17.16,5.32,2,.23,4,.38,6,.56l4.46.1c0,.65,0,1.29,0,1.94Z"/><path class="cls-34" d="M480,386.39c3.16-4.36,5.26-9.3,7.65-14.08l4,7.6c1.08,2,2.74,3.85,2.54,6.4A124.11,124.11,0,0,1,480.07,388Z"/><path class="cls-35" d="M604,413.3l3.84,5.09c.16.68.42,1.2,1.25.71l5.17,2.48a3,3,0,0,0-.69,2c-4-.59-7.78-1.73-10.89-4.47-.11-1.18-.23-2.33-1.88-1.36l-1.47-.65c-.68-4.37.69-6.88,4.62-8.43l0,2.69c-.62.16-1.39.3-1.4,1S603.44,413.21,604,413.3Z"/><path class="cls-35" d="M659,325.07a8.78,8.78,0,0,1,2,3.1c-.46,2,1.07,1.14,1.88,1.34l1.83.71v3.17c-3.15-.48-5.74-2.16-8.31-3.9-.21-1.05,0-2.55-1.91-1.85a3.31,3.31,0,0,1-.55-.07c-1-3.74.08-6,3.74-8.28l.08.09.55.58c0,.85,0,1.71,0,2.56-.69.23-1.64.34-1.38,1.35S658.21,324.88,659,325.07Z"/><path class="cls-35" d="M601.93,359.59l-.53,0c.16-3.46,0-7.06,3.86-8.92v2.58c-.59.12-1.4.07-1.46.86-.08,1.05.87.93,1.55,1.05l.65,1.27c-.67,1.41.52,1.13,1.2,1.31,2,2.09,4.58,3.19,7.06,4.49a2.64,2.64,0,0,1-1.35,2c-3.14-.33-5.66-2.11-8.27-3.64C603.78,360,603.21,358.8,601.93,359.59Z"/><path class="cls-39" d="M596.26,385.8c-1.51-.3-2.3-1.71-3.61-2.31,0-3,0-5.91-.08-8.87l3.63-2.81Z"/><path class="cls-34" d="M489.24,437.88l-1.57-1.52c2.71-1.27,3.22-4.92,6.28-5.8a3.12,3.12,0,0,0,2.3,2c.87,4.87-.8,6.32-6.65,5.73A.93.93,0,0,0,489.24,437.88Z"/><path class="cls-39" d="M590,382.92l-1.89-.09q0-3.9.07-7.8l3.13.1a33.33,33.33,0,0,1,0,3.74C591.1,380.29,592.05,382.12,590,382.92Z"/><path class="cls-37" d="M596.26,385.8l-.06-14c.07-.3.13-.59.2-.89a1,1,0,0,0,.54-.09c1,1.72.42,3.66.75,5.47l.09,3-.12,5.87a1.6,1.6,0,0,0-.29,1.57C596.67,386.82,596.47,386.3,596.26,385.8Z"/><path class="cls-34" d="M588,387.36a27.69,27.69,0,0,1-4.38-4.67,8.17,8.17,0,0,1,3.08-3.86c.63,1.3-1.18,3.48,1.47,4C588.12,384.37,588.07,385.86,588,387.36Z"/><path class="cls-40" d="M590,382.92c2.1-.8,1.15-2.63,1.31-4.05a33.33,33.33,0,0,0,0-3.74l1.31-.51c0,3,0,5.91.08,8.87l-1.79,2.29a2.34,2.34,0,0,0-.38-.09c0-.54,0-1.08,0-1.62-.18-.29-.35-.59-.52-.88Z"/><path class="cls-38" d="M588.18,382.87c-2.65-.56-.84-2.74-1.47-4,0-1,0-2.05-.07-3.07-.07-1.45.6-1.3,1.49-.73q0,3.9-.07,7.8Z"/><path class="cls-38" d="M588.6,401.09l1.44-10.2C591,394.5,589.87,397.8,588.6,401.09Z"/><path class="cls-41" d="M597.37,386.76a1.6,1.6,0,0,1,.29-1.57A2.57,2.57,0,0,1,599,387Z"/><path class="cls-38" d="M590.48,385.69a2.34,2.34,0,0,1,.38.09,2.15,2.15,0,0,1-.66,2.69A3.93,3.93,0,0,1,590.48,385.69Z"/><path class="cls-41" d="M645.59,482.36h-.52l.24-1.91C646.26,481,645.85,481.68,645.59,482.36Z"/><path class="cls-41" d="M599.12,387l1.06,1.11A1.05,1.05,0,0,1,599.12,387Z"/><path class="cls-35" d="M726.26,326.78l.64-1A.72.72,0,0,1,726.26,326.78Z"/><path class="cls-38" d="M588,403l.45-1.25Z"/><path class="cls-42" d="M600.92,451l-.69.91Z"/><path class="cls-41" d="M596.94,370.83a.31.31,0,1,1-.45-.37A2.27,2.27,0,0,1,596.94,370.83Z"/><path class="cls-36" d="M715.22,405.12c4.68,3,10.06,3.4,15.29,3.6,11.26.45,22.55.56,33.5-2.92.23-.07.55.09,1.25.22a28.48,28.48,0,0,1-9.86,3.4,90.27,90.27,0,0,1-39.19-.36,17.78,17.78,0,0,0-2.21-.25c-4.44-2-1.75,2.09-2.63,3.13-5,5.33-11.65,6.93-18.34,8.1-12.46,2.18-24.95,2.21-37.29-1a35.8,35.8,0,0,1-7.3-2.8c5.42,1,10.79,2.24,16.28,2.5,12.42.57,24.92,1.55,36.53-4.47,3.61-1.87,6.83-4,6.45-8.86-.12-1.56.95-2.26,2.45-2.31C711.68,404.16,713.24,405.16,715.22,405.12Z"/><path class="cls-36" d="M713.31,463.34c2.3,2.26,5.42,2.41,8.28,2.9a92.16,92.16,0,0,0,41.31-2c.47-.13,1-.48,1.58.27A45.23,45.23,0,0,1,749,468.9a123,123,0,0,1-33-.68c-2.39-1.59-3.41-.83-3.29,1.91-5.16,5.83-12.25,7.41-19.44,8.58a95.77,95.77,0,0,1-35.83-.94,25.65,25.65,0,0,1-3-1,8.27,8.27,0,0,1-1.2-.89,135.57,135.57,0,0,0,24.66,1.91A76.35,76.35,0,0,0,697.33,475c5.45-1.56,9.42-4.42,9.51-10.76,0-1.1-.13-2.45,1.36-2.95A8.73,8.73,0,0,0,713.31,463.34Z"/><path class="cls-36" d="M597.78,379.32l-.09-3a22.5,22.5,0,0,0,11.16,5.85c9.55,2.28,19.21,3.71,29.07,2.38l1.91,0,1.29,0c1-.08,2.12-.09,3.16-.24s1.75.07,1.86,1.16c.8,8.21,7.39,10.15,13.57,11.89,14.34,4,28.8,2.55,43.2-.09l1.56-.29c.08,0,.18.08.31.15,0,1.05-.95.95-1.53,1.14-11.62,3.82-23.55,4.2-35.61,3.2a73.42,73.42,0,0,1-11.58-2.09,29.92,29.92,0,0,1-13-6.54c-.05-1.25-.1-2.49-.16-3.74,1.09-2,.29-2.17-1.67-2.1-10.73.38-21.44.59-32-2.3A47.78,47.78,0,0,1,597.78,379.32Z"/><path class="cls-36" d="M717.2,437c8,1.87,16,1.51,24.07,1a67.47,67.47,0,0,0,18.92-3.67,3.68,3.68,0,0,1-2.77,2,77.06,77.06,0,0,1-32.58,4.06c-1.69-.14-3.4-.12-5.1-.18-1.72-.42-3.71-1.9-4.56,1.16-8.83,7.4-19.48,8.53-30.4,9.15-10.6.61-20.93-.3-31-3.87-1.46-.52-3.15-.81-3.75-2.61h0a89.61,89.61,0,0,0,32.69,4.43,62,62,0,0,0,23-4.78c3.9-1.72,6.88-4.16,7.64-8.61C714.32,436.31,715.46,437.23,717.2,437Z"/><path class="cls-36" d="M639.21,446c-9.45,0-18.8-.76-27.78-4.13,9.41,1.89,18.92,1.6,28.41,1.49a12.46,12.46,0,0,0,5.11-.6c1.3,2-.05,4.67,1.58,6.7a17.85,17.85,0,0,0,7.09,5.25c5.77,2.46,11.92,3.13,18.06,3.33,10.17.32,20.36.32,31-2.73-4.39,3.43-21.73,6.22-31.69,5.23-10.67-1.05-21.46-1.87-30.37-9,0-1.65-.05-3.3-.07-5,0-.07.13-.15.12-.21a2.83,2.83,0,0,0-.17-.4Z"/><path class="cls-36" d="M636,455.54c-9.56-.35-19-1.43-27.42-6.47A87.12,87.12,0,0,0,636,453a12.93,12.93,0,0,0,4.5.57c-.61,6.46,4.33,8.6,8.81,10.64a41.41,41.41,0,0,0,16.76,3.46c11.45.14,22.94.61,34.67-3.55a4.22,4.22,0,0,1-3,2.22,86,86,0,0,1-49.32.88,25.4,25.4,0,0,1-11.12-6C636.05,459.52,637.92,457.09,636,455.54Z"/><path class="cls-36" d="M613.61,423.61a3,3,0,0,1,.69-2c8,1.6,16.05,3,24.28,2.45h7c.22.22.65.43.66.66.32,7.54,6.56,9.45,11.85,11.15a68.73,68.73,0,0,0,26.47,2.69c6.59-.52,13.13-1,19.55-2.71.22-.05.52.17,1.61.55-2.16.72-3.59,1.3-5.08,1.68a89.84,89.84,0,0,1-47.6-.55A27.23,27.23,0,0,1,645.9,434c-2.2-1.42-3.32-3.38-2.68-6,.56-2.27-.5-2.07-2.16-2-8,.23-16,.47-23.85-1.16A9.55,9.55,0,0,1,613.61,423.61Z"/><path class="cls-36" d="M637.29,397.3c-4.85-1-9.88-.6-14.7-1.88a6.59,6.59,0,0,1-3.46-1.45,140.42,140.42,0,0,0,19.44.74,11.25,11.25,0,0,0,4.46-.58c-.9,7.45,3.94,10.66,10.83,12.7,9.9,2.92,20.08,3.08,30.35,2.22A118.49,118.49,0,0,0,699,407.17c-3.22,2.08-6.85,2.72-10.48,3.23a102.08,102.08,0,0,1-35.21-.79c-5.51-1.16-10.56-3.24-14.71-7.18C637.86,400.79,638.32,398.86,637.29,397.3Z"/><path class="cls-36" d="M714.64,475.38a10.23,10.23,0,0,1,.21,5.54c-4.13,2.84-8.41,5.38-13.38,6.47a95.75,95.75,0,0,1-43.55-.31c-3-.74-6.21-1.59-8.49-4.1h0c5.06,1.17,10,2.87,15.18,3.51,13,1.59,25.83,1.74,38.37-2.71a32.35,32.35,0,0,0,6-3c2.58-1.58,4.06-3.7,3.76-6.83A3.85,3.85,0,0,1,714.64,475.38Z"/><path class="cls-36" d="M721,427.36a89.44,89.44,0,0,0,20.94,1c6.11-.52,12.24-.69,19.07-2.69-5.18,4.62-25.63,6-40,4.33l-4.44-.72,0-2.49Z"/><path class="cls-36" d="M637.29,416.54c-10.3-.29-20.42-1.27-29.47-6.89a76.76,76.76,0,0,0,26.26,4.28l7.64.17c0,.77,0,1.55,0,2.33Z"/><path class="cls-41" d="M632.18,465.16l4.48,0c.05,3.94,3.38,5.39,5.76,7.56-3.4-.12-6.82.45-10.21-.3Z"/><path class="cls-41" d="M637.29,416.54l4.45-.11a4.86,4.86,0,0,0,1.85,4.16c1,.92,2,1.88,2,3.45h-7A14.22,14.22,0,0,1,637.29,416.54Z"/><path class="cls-41" d="M716.54,455.43c-2,.23-3.83-.8-5.74-1.21-.09-3.26,3.31-4.07,4.5-6.43l4.47,1.29C720.1,451.91,717.35,453.18,716.54,455.43Z"/><path class="cls-41" d="M716.59,429.25,721,430a4.71,4.71,0,0,1-2.09,4.24c-.88.73-1.79,1.43-1.74,2.75-1.74.27-2.88-.65-3.84-1.93C711.9,431.68,714.1,430.39,716.59,429.25Z"/><path class="cls-41" d="M641.72,414.1l-7.64-.17c-.78-2.29-.64-4.67-.65-7l4.42-.14C638.11,409.74,640.92,411.39,641.72,414.1Z"/><path class="cls-41" d="M716,390.12l5,.79a4.44,4.44,0,0,1-2.19,4.24,3.13,3.13,0,0,0-1.66,2.17l-2,0c-3.17-1.71-3.38-3.19-.8-5.64Z"/><path class="cls-41" d="M645,442.72a12.46,12.46,0,0,1-5.11.6c-.76-2.47-1.58-4.94-1.27-7.59l3.73-.18C642.87,438.05,645,440,645,442.72Z"/><path class="cls-41" d="M721,427.36l-4.47-.6c-.12-1.53.34-3.14-.68-4.53,1.09-4.1,1.09-4.1,5.15-2.54Z"/><path class="cls-41" d="M715.22,405.12c-2,0-3.54-1-5.07-2,.86-1.56,1.74-3.12,2.6-4.68.66-1.21,1.66-.48,2.54-.46l1.89.69A7.59,7.59,0,0,1,715.22,405.12Z"/><path class="cls-41" d="M713.31,463.34a8.73,8.73,0,0,1-5.11-2c1-2,1.53-4.25,3.27-5.84l3.16,1.33C714.88,459.12,713.78,461.17,713.31,463.34Z"/><path class="cls-41" d="M721,388.51l-4.46-.12c-.13-1.73.45-3.56-.67-5.17.68-3.57,3.11-2.08,5.13-1.76Z"/><path class="cls-41" d="M715.18,441.32c.85-3.06,2.84-1.58,4.56-1.16,0,2.35,0,4.69,0,7l-4.49,0Z"/><path class="cls-41" d="M714.64,475.38a3.85,3.85,0,0,0-1.92-1.37l-.06-3.88c-.12-2.74.9-3.5,3.29-1.91a12.92,12.92,0,0,1,1.24,7Z"/><path class="cls-41" d="M636,455.54c1.91,1.55,0,4,1.32,5.68a2.76,2.76,0,0,0-.69,2l-4.46-.1a5.52,5.52,0,0,1,2.28-5.24A3.73,3.73,0,0,0,636,455.54Z"/><path class="cls-41" d="M711.37,411.94c.88-1-1.81-5.09,2.63-3.13.83,2.3,3.14,4.33,1.25,7.09l-3.8-2.56C711.42,412.87,711.4,412.41,711.37,411.94Z"/><path class="cls-41" d="M640.48,453.54A12.93,12.93,0,0,1,636,453c-.49-3.06,3-4.29,3.23-7l1.25,0c0,.2,0,.4,0,.61,0,1.65,0,3.3.07,5C640.55,452.21,640.51,452.87,640.48,453.54Z"/><path class="cls-41" d="M637.29,397.3c1,1.56.57,3.49,1.27,5.13-.22.68-.45,1.36-.68,2l-4.44-.12C633,401,636,399.62,637.29,397.3Z"/><path class="cls-41" d="M643,394.13a11.25,11.25,0,0,1-4.46.58c.4-2.7.93-5.32,4.37-5.68.06,1.25.11,2.49.16,3.74C643.08,393.22,643.05,393.68,643,394.13Z"/><path class="cls-41" d="M643.21,475.83c-.88-.89-.6-2-.72-3.1C643.94,473.48,643.79,474.6,643.21,475.83Z"/><path class="cls-36" d="M600.84,417.78c1.65-1,1.77.18,1.88,1.36A2.85,2.85,0,0,1,600.84,417.78Z"/><path class="cls-36" d="M705.68,493.85a2.61,2.61,0,0,1-1.91.65h0a2.72,2.72,0,0,1,1.92-.63Z"/><path class="cls-36" d="M650.07,444l-.49-.13.48.13Z"/><path class="cls-36" d="M705.69,493.86l.46-.24c0,.06-.09.14-.16.17a1.55,1.55,0,0,1-.31.06Z"/><path class="cls-36" d="M707.59,435l-.45.24c.05-.06.1-.14.17-.17a1.45,1.45,0,0,1,.3-.05Z"/><path class="cls-36" d="M707.61,435.05l.45-.24c0,.05-.1.13-.17.16a1.45,1.45,0,0,1-.3.06Z"/><path class="cls-36" d="M649.43,483l-.49-.14.48.15Z"/><path class="cls-36" d="M642.34,496.42a.58.58,0,0,1-.33-.49A1.57,1.57,0,0,1,642.34,496.42Z"/><path class="cls-36" d="M764.65,366.82c-4.79,2.91-10.2,4-15.64,4.72a89.37,89.37,0,0,1-33.89-1.76,35.56,35.56,0,0,1-7.18-2.64c-6.28-3.1-7.13-5.35-4.15-11.76-2.2.16-4.26.19-6.27.49a79.14,79.14,0,0,1-20-.13c-.92-.1-2.22.05-2.12-1.31.1-1.52,1.56-1.33,2.51-1.16,5.4.94,10.84.52,16.26.57a31.67,31.67,0,0,0,8-.46c2-.49,3.27.43,3.22,2.39-.16,6.87,5.13,8.75,9.94,10.89,5,2.22,10.49,2.91,15.9,3.1,11,.38,22,.43,32.6-2.92A3.13,3.13,0,0,1,764.65,366.82Z"/><path class="cls-36" d="M612.91,364.14a2.64,2.64,0,0,0,1.35-2c10.09,3.27,20.49,3.5,31,3.18,5.85-.18,11.53-1.57,17.32-2.44.25,1.29-.73,1.34-1.31,1.5a83.86,83.86,0,0,1-31.55,3.09,108.77,108.77,0,0,1-11.69-1.6C616.22,365.54,614.37,365.38,612.91,364.14Z"/><path class="cls-36" d="M605.35,355.11c-.68-.12-1.63,0-1.55-1.05.06-.79.87-.74,1.46-.86Z"/><path class="cls-36" d="M607.2,357.69c-.68-.18-1.87.1-1.2-1.31Z"/><path class="cls-39" d="M494,430.56c-3.06.88-3.57,4.53-6.28,5.8a.67.67,0,0,0-.48-.12c1.36-2.12,4-4.45,3.7-6.28s-3.76-2.85-5.72-4.38c-3.35-2.61-6.43-5.48-7.73-9.73,3.95-2.71,7.89-5.44,11.86-8.12,4.52-3.06,3.5-2.52,6.19,1.18-.47,2.53,4.94,10.33,7.4,10.66,2.23,2.23,2.08,3.89-.85,5.52S496.64,428.71,494,430.56Zm.77-8.32-.63-.63c-.22-.43-.44-.86-.65-1.29l-.13-.09.1.12.66,1.28.62.63.65,1.28.63.64c.19.22-.05.88.62.62l-.59-.64-.63-.64C495.15,423.1,494.93,422.67,494.72,422.24Z"/><path class="cls-38" d="M495.49,408.91c-2.69-3.7-1.67-4.24-6.19-1.18-4,2.68-7.91,5.41-11.86,8.12a5.74,5.74,0,0,1-1.06-3.22l7.26-4.54c2.56-1.84,5.11-3.7,7.69-5.52a3,3,0,0,1,4.63.82c1.57,2.24,3.05,4.54,4.57,6.81C498.53,411,497.5,408,495.49,408.91Z"/><path class="cls-39" d="M494.19,386.31c.2-2.55-1.46-4.36-2.54-6.4l-4-7.6c-.32-2.65-1.81-4.87-2.6-7.35a6.83,6.83,0,0,1-.43-4l1.53,0a4.58,4.58,0,0,0,1.47,2.6,84.24,84.24,0,0,0,10.11,21.79,2.17,2.17,0,0,0,1.47,1.12c0,1.46.86,2.59,1.4,3.85l-1.56.84C496.92,390,496.93,386.8,494.19,386.31Z"/><path class="cls-39" d="M485.34,436.25a3.28,3.28,0,0,1-.38.5c-4.36,3.65-4.36,3.65-7.52-.91-2.54-3.65-5-7.37-7.64-10.93-1.4-1.86-1.53-3.14.77-4.14C474.12,427.24,479.35,432.11,485.34,436.25Z"/><path class="cls-38" d="M494,430.56c2.69-1.85,5.26-3.9,8.09-5.47s3.08-3.29.85-5.52c1.11-1.85-.9-3.85.27-5.71,1.6,2.25,3.22,4.49,4.8,6.76,1.28,1.82,1,3.49-.84,4.69-3.62,2.4-7,5.23-10.87,7.24A3.12,3.12,0,0,1,494,430.56Z"/><path class="cls-43" d="M503.16,413.86c-1.17,1.86.84,3.86-.27,5.71-2.46-.33-7.87-8.13-7.4-10.66,2-.87,3,2.11,5,1.29.28-.12.65-.18.83-.39.9-1.12,1.86-2.06,3.43-1.31a2.64,2.64,0,0,1,1.54,2.52c0,1.77-1.3,2.18-2.7,2.47C503.46,413.53,503.31,413.73,503.16,413.86Z"/><path class="cls-44" d="M525.18,414.47c-.19.92-.68,1.64-1.66,1.64a1.62,1.62,0,0,1-1.7-1.88,1.5,1.5,0,0,1,1.79-1.41A1.55,1.55,0,0,1,525.18,414.47Z"/><path class="cls-44" d="M525.74,422.62c-.1,1.08-.62,1.76-1.57,1.79a1.61,1.61,0,0,1-1.75-1.79,1.48,1.48,0,0,1,1.67-1.49C525.12,421.14,525.49,421.88,525.74,422.62Z"/><path class="cls-36" d="M723,315.49c.17,2,.57,3.73,3.22,3.22-1.67,2.8-4.61,3.7-7.39,4.62-12.8,4.18-25.88,4.53-39.13,2.77a37,37,0,0,1-11.42-3.39c3.3.47,6.59,1.2,9.9,1.35,10.62.47,21.25,1.32,31.79-1.1A23.87,23.87,0,0,0,723,315.49Z"/><path class="cls-36" d="M715.85,309.65l2,2c-5.19,3.23-11.09,4.24-17,5a90.43,90.43,0,0,1-31-1.23c-4.32-.94-8.77-1.73-12.15-5h0a91.31,91.31,0,0,0,19.28,4c12.76,1,25.31,1,37.28-4.39A8.76,8.76,0,0,1,715.85,309.65Z"/><path class="cls-36" d="M664.77,333.39v-3.17c10.79,4.48,22,4.92,33.49,4a157.24,157.24,0,0,0,16-1.82c-3.08,2.06-6.64,2.54-10.13,3.07a95.45,95.45,0,0,1-35.77-.88C667.16,334.32,666,333.8,664.77,333.39Z"/><path class="cls-36" d="M726.16,318.72a1.32,1.32,0,0,1,.08-.3c.7-1-1.63-2.79.25-3,1.39-.16.71,2,.94,3.08Z"/><path class="cls-36" d="M659,325.07c-.82-.19-1.81-.26-2-1.2s.69-1.12,1.38-1.35C658.58,323.37,658.8,324.22,659,325.07Z"/><path class="cls-36" d="M723.64,311c.69.2,1.47.37,1.46,1.29s-.79,1.07-1.48,1.27C723.62,312.72,723.63,311.86,723.64,311Z"/><path class="cls-36" d="M654.55,327.64c1.91-.7,1.7.8,1.91,1.85A4.66,4.66,0,0,1,654.55,327.64Z"/><path class="cls-36" d="M662.94,329.51c-.81-.2-2.34.63-1.88-1.34A3.2,3.2,0,0,1,662.94,329.51Z"/><path class="cls-36" d="M657.74,310.37l-.48-.14.48.15Z"/><path class="cls-36" d="M658.37,320l-.55-.58Z"/><path class="cls-39" d="M500.46,386.33c2.68-1.53,5.73-1.39,8.64-1.71,7.86-.87,15.79-1.2,23.62-2.46a49,49,0,0,1,6.65-.19l-12,19.73c-.46-1.4-1-2.79-1.35-4.22-.7-2.74-2.73-5.48,0-8.28.52-.54,0-1.16-.3-1.71-1-1.6-5.46-2.74-6.77-1.38-1,1.07-2.59,2.94-1.12,4.33,1.77,1.67,1.47,3.32,1.19,5.18-.4,2.7-.83,5.4-1.25,8.11l-1.22-.23.18.06,0-.18Q508.87,394.59,500.46,386.33Z"/><path class="cls-32" d="M544.69,381.23c1.22,2.61,3,4.9,2.61,8.18-1.22,10-4.15,15.24-15.57,16.35.6-.42,1.14-1.09,1.79-1.24,2.93-.66,3.44-2.39,2.47-4.95-.15-.39-.17-.83-.3-1.23-.81-2.52-.5-4.34,2.65-4.7,2-.23,2.88-1.27,2.48-3.51-.47-2.7-.53-5.48-.77-8.22C541.48,380.9,543.14,381.45,544.69,381.23Z"/><path class="cls-40" d="M527.92,367.73c3.39-.11,3.9.52,3,3.86a9.71,9.71,0,0,1-9.08,7.24,10.29,10.29,0,0,1-10.27-6.11c-.82-1.94-.53-2.85,1.8-3.09C518.24,369.13,523.08,368.38,527.92,367.73Z"/><path class="cls-44" d="M540.05,381.91c.24,2.74.3,5.52.77,8.22.4,2.24-.48,3.28-2.48,3.51-3.15.36-3.46,2.18-2.65,4.7.13.4.15.84.3,1.23,1,2.56.46,4.29-2.47,4.95-.65.15-1.19.82-1.79,1.24-2,1-4.2.48-6.32.5l2-4.56,12-19.73Z"/><path class="cls-44" d="M500.46,386.33q8.43,8.24,16.28,17.05c-2.33.45-3.67-1.29-5.28-2.4-4.26-2.92-7.16-7.23-10.91-10.67-.54-1.26-1.43-2.39-1.4-3.85Z"/><path class="cls-33" d="M504.89,359.41c.15-1.35.06-3.15,1.66-3,2.52.18,2.45,2.58,2.57,4.39.08,1.26-.05,3.36-1.78,3.1C505.09,363.53,505.08,361.19,504.89,359.41Z"/><path class="cls-33" d="M531.68,356c.19-1.48,0-3.48,1.75-3.31,2.39.23,2.4,2.63,2.45,4.47,0,1.26.06,3.29-1.83,3C531.92,359.78,532,357.55,531.68,356Z"/><path class="cls-37" d="M487.57,363.55a4.58,4.58,0,0,1-1.47-2.6c.72-.73,1.46-1.93,2.45-.4C489.35,361.8,489.24,363,487.57,363.55Z"/><path class="cls-31" d="M641.21,336.52c7.56.15,15.83.55,23.38,4.73,2,1.12,3.94,2.46,3.86,5s-2,3.9-4.08,4.88c-9.55,4.48-19.68,5.09-30,4.35-5.64-.4-11.22-1.17-16.45-3.51a8.61,8.61,0,0,1-.89-.34c-2.24-1.22-4.89-2.25-5.15-5.2-.27-3.12,2.35-4.37,4.6-5.52C624,337.09,632.19,336.6,641.21,336.52Zm5.25,7c.59-.24,2.73.94,2.88-.8.12-1.48-2.06-1.33-3.34-1.73a20.3,20.3,0,0,0-12.5.1c-1.43.45-3.14.71-3.09,2.63s1.77,2.21,3.22,2.52c2.28.48,4.58.82,6.87,1.27.59.12,1.39.24,1.15,1.15-.16.6-.8.69-1.32.67a4.75,4.75,0,0,1-2.16-.34c-1.78-1.05-3.68-.92-5.58-.86-.88,0-2.29-.4-2.38.87s1.27,1.49,2.34,1.66a17.45,17.45,0,0,1,6.1,1.64,2.58,2.58,0,0,0,2.14.07c2.22-1.18,4.68-1.33,7-1.93,1.29-.33,3-.57,3-2.29s-1.61-2.14-2.93-2.43c-2.47-.54-5-.84-7.5-1.32-.66-.13-1.72-.2-1.4-1.27.27-.9,1.25-.8,1.91-.53A9.09,9.09,0,0,0,646.46,343.48Z"/><path class="cls-31" d="M740.25,341.08a55.62,55.62,0,0,1,19.27,2.43,29.74,29.74,0,0,1,4.72,1.92c2.11,1.08,4.34,2.45,4.33,5.08s-2.35,4.2-4.48,5.39c-3.77,2.1-8,2.87-12.21,3.49-10.44,1.52-20.79,1.29-31-1.74a17.51,17.51,0,0,1-7.27-3.85c-2.23-2.09-2.16-4.58.14-6.6,4.12-3.63,9.31-4.55,14.45-5.39A48.42,48.42,0,0,1,740.25,341.08Zm-6.09,11.47c-.81,0-1.35-.05-1.88,0-.8.09-2-.33-2.24.66-.32,1.27,1,1.38,1.84,1.73,5.52,2.4,11,1.67,16.56,0,1.27-.39,2.4-1.24,2.36-2.68s-1.49-1.71-2.59-2c-2.48-.55-5-.91-7.5-1.43-.7-.15-2.08.13-1.76-1.19.25-1,1.46-.9,2.2-.54a14.2,14.2,0,0,0,6.87,1c.6,0,1.43.18,1.62-.63s-.59-1.36-1.28-1.54c-5.29-1.42-10.6-2.34-15.88,0-1.09.48-2.29,1.06-2.24,2.42.07,1.6,1.5,1.94,2.75,2.19,2.39.47,4.81.81,7.21,1.27.66.13,1.72.17,1.44,1.25-.24.91-1.21.8-1.91.68C737.78,353.39,736,352.06,734.16,352.55Z"/><path class="cls-31" d="M682.46,389.65c-9.38.19-17.58-.57-25.23-4.38-2.23-1.11-4-2.52-3.93-5.27s2.05-3.93,4.1-4.84c8.94-4,18.4-5.15,28.06-4.42,6.14.46,12.33.9,18,3.57a20.48,20.48,0,0,1,3.65,1.93c3.31,2.45,3.24,5.76-.18,8.07-5.77,3.89-12.45,4.67-19.14,5.3A49.17,49.17,0,0,1,682.46,389.65Zm-2.52-12.24a2.9,2.9,0,0,1,3.27-.11c1.58.95,3.27.84,5,.8.91,0,2.22.29,2.41-.93.22-1.4-1.19-1.69-2.17-1.85-4.18-.71-8.32-2.36-12.64-.37-1.67.76-4.36.47-4.27,2.95s2.64,2.37,4.47,2.74c1.66.34,3.36.5,5,.8.69.13,1.52.2,1.7,1.53a4.69,4.69,0,0,1-3.86-.22c-2-1.15-4.15-.68-6.25-.74-.63,0-1.41,0-1.51.82s.5,1.17,1.11,1.4a24.84,24.84,0,0,0,18.38-.18,1.87,1.87,0,0,0,1.43-1.9,2,2,0,0,0-1.57-1.82c-2.26-.59-4.54-1.08-6.83-1.53C682.38,378.57,681.05,378.73,679.94,377.41Z"/><path class="cls-30" d="M638.56,377.5c-.14.38-.24.87-.78.72-.21-.06-.33-.46-.5-.7Z"/><path class="cls-31" d="M686.34,286.12a53.1,53.1,0,0,1,20.82,2.94c3.31,1.14,7.22,2.52,7.22,6.67s-4,5.28-7.15,6.3a66.65,66.65,0,0,1-42,0c-3.19-1-7.07-2.19-7.28-6.23-.21-4.2,3.83-5.32,6.89-6.54A50.6,50.6,0,0,1,686.34,286.12Zm5.53,7c1.19-.37,3.33.75,3.49-.94.14-1.48-2-1.34-3.32-1.75a20.52,20.52,0,0,0-12.8.17c-1.4.44-3.23.79-3.13,2.62s1.75,2.24,3.27,2.52c2.18.41,4.38.76,6.57,1.15.62.11,1.47.21,1.41,1-.07,1-1,.95-1.75.89a4.89,4.89,0,0,1-1.81-.51c-2-1.09-4.16-.63-6.26-.67-.51,0-1.17,0-1.28.66a1.19,1.19,0,0,0,.47,1c3.33.91,6.68,2.43,10,2.38,2.17,0,4.66-1.07,7-1.62,1.36-.31,2.86-.72,2.82-2.49s-1.52-2.17-2.89-2.44c-2.5-.49-5-.84-7.52-1.31-.64-.13-1.75-.11-1.44-1.21.25-.86,1.23-.8,1.93-.61C688.37,292.43,689.94,293.52,691.87,293.14Z"/><path class="cls-32" d="M527.38,401.7l-2,4.56a9.25,9.25,0,0,1-7.62-1.87l-.06-.66c.42-2.71.85-5.41,1.25-8.11.28-1.86.58-3.51-1.19-5.18-1.47-1.39.08-3.26,1.12-4.33,1.31-1.36,5.76-.22,6.77,1.38.35.55.82,1.17.3,1.71-2.68,2.8-.65,5.54,0,8.28C526.39,398.91,526.92,400.3,527.38,401.7Z"/><path class="cls-32" d="M546.36,401.84q.35,7.89.68,15.79c-2.76-2.93-4.13-6.62-5.6-10.25a1.71,1.71,0,0,1,.67-2.22C543.55,404.08,545,403,546.36,401.84Z"/><path class="cls-44" d="M517.73,403.73l.06.66-1.28-.89Z"/><path class="cls-38" d="M589.94,383.19c.17.29.34.59.52.88Z"/><path class="cls-36" d="M604,413.3c-.6-.09-1.43,0-1.42-.87s.78-.88,1.4-1C604,412,604,412.66,604,413.3Z"/><path class="cls-36" d="M609.13,419.1c-.83.49-1.09,0-1.25-.71Z"/><path class="cls-30" d="M639.83,384.5l-1.91,0C638.54,383.16,639.17,383.1,639.83,384.5Z"/><path class="cls-41" d="M624.66,471.89a1.61,1.61,0,0,1,2.35.43A1.91,1.91,0,0,1,624.66,471.89Z"/><path class="cls-41" d="M615.58,470.23c1.12,0,2.35-.29,3.12.92C617.43,471.62,616.53,470.83,615.58,470.23Z"/><path class="cls-41" d="M621.36,471.41c.68-.54,1.29-.55,1.78.25A1.45,1.45,0,0,1,621.36,471.41Z"/><path class="cls-30" d="M640.51,446.59c0-.21,0-.41,0-.61a2.83,2.83,0,0,1,.17.4C640.64,446.44,640.55,446.52,640.51,446.59Z"/><path class="cls-34" d="M496,424.16l.59.64c-.67.26-.43-.4-.62-.62Z"/><path class="cls-34" d="M494.07,421.63l-.66-1.28,0,0,.65,1.29Z"/><path class="cls-34" d="M495.34,423.54l-.65-1.28,0,0,.65,1.28Z"/><path class="cls-34" d="M495.37,423.52l.63.64,0,0-.63-.64Z"/><path class="cls-34" d="M494.09,421.61l.63.63,0,0-.62-.63Z"/><polygon class="cls-34" points="493.41 420.35 493.31 420.23 493.44 420.32 493.41 420.35"/><path class="cls-36" d="M646.46,343.48a9.09,9.09,0,0,1-5.51-.92c-.66-.27-1.64-.37-1.91.53-.32,1.07.74,1.14,1.4,1.27,2.49.48,5,.78,7.5,1.32,1.32.29,3,.75,2.93,2.43s-1.76,2-3,2.29c-2.35.6-4.81.75-7,1.93a2.58,2.58,0,0,1-2.14-.07,17.45,17.45,0,0,0-6.1-1.64c-1.07-.17-2.43-.39-2.34-1.66s1.5-.85,2.38-.87c1.9-.06,3.8-.19,5.58.86a4.75,4.75,0,0,0,2.16.34c.52,0,1.16-.07,1.32-.67.24-.91-.56-1-1.15-1.15-2.29-.45-4.59-.79-6.87-1.27-1.45-.31-3.16-.62-3.22-2.52s1.66-2.18,3.09-2.63A20.3,20.3,0,0,1,646,341c1.28.4,3.46.25,3.34,1.73C649.19,344.42,647.05,343.24,646.46,343.48Z"/><path class="cls-36" d="M734.16,352.55c1.86-.49,3.62.84,5.57,1.2.7.12,1.67.23,1.91-.68.28-1.08-.78-1.12-1.44-1.25-2.4-.46-4.82-.8-7.21-1.27-1.25-.25-2.68-.59-2.75-2.19,0-1.36,1.15-1.94,2.24-2.42,5.28-2.36,10.59-1.44,15.88,0,.69.18,1.49.62,1.28,1.54s-1,.61-1.62.63a14.2,14.2,0,0,1-6.87-1c-.74-.36-1.95-.45-2.2.54-.32,1.32,1.06,1,1.76,1.19,2.49.52,5,.88,7.5,1.43,1.1.24,2.54.47,2.59,2s-1.09,2.29-2.36,2.68c-5.51,1.71-11,2.44-16.56,0-.81-.35-2.16-.46-1.84-1.73.25-1,1.44-.57,2.24-.66C732.81,352.5,733.35,352.55,734.16,352.55Z"/><path class="cls-36" d="M679.94,377.41c1.11,1.32,2.44,1.16,3.66,1.39,2.29.45,4.57.94,6.83,1.53a2,2,0,0,1,1.57,1.82,1.87,1.87,0,0,1-1.43,1.9,24.84,24.84,0,0,1-18.38.18c-.61-.23-1.2-.7-1.11-1.4s.88-.84,1.51-.82c2.1.06,4.25-.41,6.25.74a4.69,4.69,0,0,0,3.86.22c-.18-1.33-1-1.4-1.7-1.53-1.67-.3-3.37-.46-5-.8-1.83-.37-4.38-.35-4.47-2.74s2.6-2.19,4.27-2.95c4.32-2,8.46-.34,12.64.37,1,.16,2.39.45,2.17,1.85-.19,1.22-1.5.91-2.41.93-1.69,0-3.38.15-5-.8A2.9,2.9,0,0,0,679.94,377.41Z"/><path class="cls-36" d="M691.87,293.14c-1.93.38-3.5-.71-5.22-1.16-.7-.19-1.68-.25-1.93.61-.31,1.1.8,1.08,1.44,1.21,2.5.47,5,.82,7.52,1.31,1.37.27,2.85.69,2.89,2.44s-1.46,2.18-2.82,2.49c-2.35.55-4.84,1.59-7,1.62-3.33,0-6.68-1.47-10-2.38a1.19,1.19,0,0,1-.47-1c.11-.64.77-.67,1.28-.66,2.1,0,4.25-.42,6.26.67a4.89,4.89,0,0,0,1.81.51c.72.06,1.68.09,1.75-.89.06-.77-.79-.87-1.41-1-2.19-.39-4.39-.74-6.57-1.15-1.52-.28-3.18-.82-3.27-2.52s1.73-2.18,3.13-2.62a20.52,20.52,0,0,1,12.8-.17c1.28.41,3.46.27,3.32,1.75C695.2,293.89,693.06,292.77,691.87,293.14Z"/></g><text class="cls-45" transform="translate(38.51 90.28)"><tspan class="cls-46">D</tspan><tspan x="18.78" y="0">eja que </tspan><tspan class="cls-47" x="110.27" y="0">R</tspan><tspan x="125.63" y="0">ichie </tspan><tspan class="cls-48" x="186.83" y="0">t</tspan><tspan x="195.94" y="0">e</tspan></text><path class="cls-9" d="M22.05,140.11V87.69c-3.64,2.09-11.11,4-14.32,4.27V81.12A36,36,0,0,0,25.64,70.7H36.41v69.41Z"/><path d="M67,111.57c-1.29,4.54-4.81,8.61-12.74,8.61-9.1,0-13.65-6.31-13.65-13.54S45.66,93,54.57,93c7.83,0,11.67,4.31,12.51,8.64H61.53c-.73-1.89-2.36-4.33-7-4.33-5.23,0-8.11,3.94-8.11,9.1s2.72,9.45,8.14,9.45c4.1,0,5.83-1.65,7-4.32Z"/><path d="M98.43,106.52c0,7.26-4.86,13.66-14.1,13.66-8.69,0-13.8-6-13.8-13.65,0-7.18,5.35-13.5,14-13.5C93.41,93,98.43,99.38,98.43,106.52Zm-22.13-.07c0,5.14,2.8,9.39,8.31,9.39s8-4.55,8-9.25c0-4.86-2.62-9.22-8.29-9.22C79,97.37,76.3,101.7,76.3,106.45Z"/><path d="M103.81,119.63v-26h6.49c6.85,10.2,11.53,16.4,13.11,19.36h.07c-.24-2.94-.21-7.57-.21-11.84V93.58h5v26.05h-6.1c-2.91-4.31-11.85-17.61-13.5-20.6h-.07c.21,3.26.21,7,.21,11.58v9Z"/><path d="M161.82,106.52c0,7.26-4.87,13.66-14.11,13.66-8.69,0-13.8-6-13.8-13.65,0-7.18,5.36-13.5,14-13.5C156.79,93,161.82,99.38,161.82,106.52Zm-22.13-.07c0,5.14,2.79,9.39,8.31,9.39s8-4.55,8-9.25c0-4.86-2.62-9.22-8.29-9.22C142.36,97.37,139.69,101.7,139.69,106.45Z"/><path d="M164.38,115.65,180.9,97.91H165.18V93.58h22.65v4.27L171.58,115.3H189l-.65,4.33H164.38Z"/><path d="M217.61,111.57c-1.3,4.54-4.81,8.61-12.74,8.61-9.1,0-13.66-6.31-13.66-13.54S196.25,93,205.16,93c7.83,0,11.67,4.31,12.51,8.64h-5.56c-.72-1.89-2.35-4.33-7-4.33-5.23,0-8.11,3.94-8.11,9.1s2.72,9.45,8.14,9.45c4.09,0,5.83-1.65,7-4.32Z"/><path d="M227.54,113.08l-2.62,6.55h-5.65l10.72-26h6.93l11.23,26.05h-5.92l-2.77-6.55Zm10.33-4.44c-2.66-6.37-4-9.53-4.56-11.45h0c-.57,1.87-2.08,6-4.25,11.45Z"/><path class="cls-9" d="M437.33,140.11v-.63c0-12.74,6.3-22.64,23.69-33.44,11.84-7.32,15.05-9.48,15.05-15.58,0-5.09-2.95-9.8-11.55-9.8-7.91,0-11.46,4.66-12.63,11.89H437.76c1-13.68,11.06-23.29,27.23-23.29s25.66,9.12,25.66,21.09c0,10.82-5,15.55-18.87,23.66-8.88,5.25-14.87,9.83-16.84,14.45h38.63l-1.86,11.65Z"/><text class="cls-45" transform="translate(496.71 90.28)"><tspan class="cls-49">T</tspan><tspan x="11.94" y="0">e ha</tspan><tspan class="cls-50" x="60.98" y="0">r</tspan><tspan x="70" y="0"> las mejo</tspan><tspan class="cls-51" x="186.21" y="0">r</tspan><tspan x="195.1" y="0">es</tspan></text><path d="M500.08,111.3v8.33h-4.33V98.8h10.9c4.63,0,7.41,2.23,7.41,5.85a4.81,4.81,0,0,1-3.68,4.94c1,.35,3.14,1.24,3.14,5v1a17.7,17.7,0,0,0,.26,4.08h-4.49a14,14,0,0,1-.35-4.32v-.69c0-2.42-.91-3.32-4.14-3.32Zm0-3.35h5.56c2.71,0,3.95-1,3.95-3s-1.26-2.84-3.89-2.84h-5.62Z"/><path d="M531.92,110.55H520v5.53h13.2l-.52,3.55H515.64V98.8h16.92v3.54H520V107h11.9Z"/><path d="M554.08,113.18c-1,3.63-3.85,6.89-10.19,6.89-7.28,0-10.92-5-10.92-10.83s4-10.88,11.15-10.88c6.26,0,9.33,3.44,10,6.91h-4.45c-.58-1.51-1.88-3.46-5.61-3.46-4.18,0-6.48,3.15-6.48,7.27s2.17,7.56,6.51,7.56c3.27,0,4.66-1.32,5.58-3.46Z"/><path d="M576.26,109.14c0,5.81-3.9,10.93-11.28,10.93-7,0-11-4.82-11-10.91,0-5.75,4.28-10.8,11.22-10.8S576.26,103.43,576.26,109.14Zm-17.7,0c0,4.11,2.23,7.51,6.65,7.51s6.43-3.64,6.43-7.4-2.09-7.37-6.63-7.37C560.69,101.83,558.56,105.29,558.56,109.09Z"/><path d="M597.05,111.33c0-3.69,0-7.43.14-9.69h0c-1,3.62-3.52,10.49-6.14,18h-3.85c-2-6.43-4.77-14.25-5.89-18h0c.17,2.41.33,6.57.33,10.11v7.87h-4V98.8h6.31c2.34,6.57,4.78,13.15,5.4,15.71h0c.92-3.06,3.35-9.45,5.57-15.71h6.35v20.83h-4.23Z"/><path d="M620.27,110.55H608.36v5.53h13.21l-.53,3.55H604V98.8H620.9v3.54H608.36V107h11.91Z"/><path d="M622.57,119.63V98.8h5.19c5.48,8.15,9.22,13.11,10.49,15.48h.06c-.2-2.35-.17-6-.17-9.47v-6h4v20.83h-4.87c-2.33-3.44-9.48-14.08-10.8-16.48h-.06c.17,2.61.17,5.57.17,9.27v7.21Z"/><path d="M644.87,98.8H654c6.93,0,10.8,4.5,10.8,10.06,0,6.67-4.84,10.77-10.89,10.77h-9Zm4.38,17.39h4c4.54,0,6.89-2.67,6.89-7.21,0-4.17-2.37-6.72-6.77-6.76h-4.15Z"/><path d="M669.76,114.39l-2.1,5.24h-4.52l8.58-20.83h5.54l9,20.83H681.5l-2.21-5.24Zm8.26-3.55c-2.13-5.09-3.16-7.62-3.65-9.15h0c-.46,1.49-1.67,4.79-3.4,9.15Z"/><path d="M705.82,113.18c-1,3.63-3.85,6.89-10.19,6.89-7.28,0-10.92-5-10.92-10.83s4-10.88,11.15-10.88c6.26,0,9.33,3.44,10,6.91h-4.44c-.58-1.51-1.88-3.46-5.61-3.46-4.18,0-6.49,3.15-6.49,7.27s2.18,7.56,6.52,7.56c3.27,0,4.66-1.32,5.57-3.46Z"/><path d="M711,98.8v20.83h-4.38V98.8Z"/><path d="M734.87,109.14c0,5.81-3.89,10.93-11.28,10.93-7,0-11-4.82-11-10.91,0-5.75,4.28-10.8,11.23-10.8S734.87,103.43,734.87,109.14Zm-17.7,0c0,4.11,2.23,7.51,6.65,7.51s6.43-3.64,6.43-7.4-2.09-7.37-6.63-7.37C719.31,101.83,717.17,105.29,717.17,109.09Z"/><path d="M736.23,119.63V98.8h5.19c5.48,8.15,9.22,13.11,10.48,15.48H752c-.2-2.35-.17-6-.17-9.47v-6h4v20.83h-4.88c-2.33-3.44-9.47-14.08-10.8-16.48h0c.16,2.61.16,5.57.16,9.27v7.21Z"/><path d="M774.81,110.55H762.9v5.53h13.21l-.53,3.55H758.53V98.8h16.91v3.54H762.9V107h11.91Z"/><path d="M779.81,113.45c.65,2,2.2,3.35,5.86,3.35s4.66-1.18,4.66-2.71-1-2.59-5.73-3.39c-6.91-1.18-8.29-3.4-8.29-6.21,0-4,3.84-6.11,8.64-6.11,7,0,8.85,3.63,9.09,6h-4.39c-.34-1.16-1.09-2.7-4.84-2.7-2.59,0-4,.85-4,2.44,0,1.36.85,2.12,5,2.85,7.78,1.37,9,3.75,9,6.72,0,3.52-2.77,6.41-9.53,6.41-6.29,0-9.23-2.82-9.87-6.6Z"/><path class="cls-9" d="M942.58,89.1c1.24-8.43,8-19.84,27-19.84,17.56,0,25.72,9,25.72,19.33a13.93,13.93,0,0,1-9.94,13.86v.21c4.93,1.54,12.78,5.86,12.78,17.08,0,12.57-9.84,21.82-28.66,21.82-18.63,0-26.87-10-28.58-21.22h14.63c1.45,5.79,6,9.77,14.71,9.77,7.61,0,12.95-3.45,12.95-10.83,0-6.74-4.48-10.31-13.66-10.31h-5.69V97.47h4.32c9.17,0,12.2-2.71,12.2-8.06,0-4.84-3.19-8.89-11.25-8.89S958,84.76,957,89.1Z"/><text class="cls-45" transform="translate(999.71 90.28)"><tspan class="cls-52">C</tspan><tspan class="cls-53" x="16.17" y="0">r</tspan><tspan x="25.05" y="0">e</tspan><tspan class="cls-54" x="39.09" y="0">c</tspan><tspan x="51.48" y="0">e y gana </tspan><tspan class="cls-54" x="154.77" y="0">c</tspan><tspan x="167.16" y="0">on</tspan></text><path d="M1007.08,111.3v8.33h-4.33V98.8h10.9c4.63,0,7.41,2.23,7.41,5.85a4.81,4.81,0,0,1-3.68,4.94c1,.35,3.14,1.24,3.14,5v1a17.7,17.7,0,0,0,.26,4.08h-4.49a14,14,0,0,1-.35-4.32v-.69c0-2.42-.91-3.32-4.14-3.32Zm0-3.35h5.56c2.71,0,4-1,4-3s-1.26-2.84-3.89-2.84h-5.62Z"/><path d="M1027,98.8v20.83h-4.38V98.8Z"/><path d="M1049.66,113.18c-1,3.63-3.84,6.89-10.19,6.89-7.27,0-10.92-5-10.92-10.83s4-10.88,11.15-10.88c6.27,0,9.34,3.44,10,6.91h-4.44c-.58-1.51-1.88-3.46-5.62-3.46-4.18,0-6.48,3.15-6.48,7.27s2.18,7.56,6.51,7.56c3.28,0,4.67-1.32,5.58-3.46Z"/><path d="M1050.49,98.8h4.37v8h10.54v-8h4.38v20.83h-4.38v-9.28h-10.54v9.28h-4.37Z"/><path d="M1076.87,98.8v20.83h-4.38V98.8Z"/><path d="M1095.85,110.55H1084v5.53h13.2l-.52,3.55h-17.06V98.8h16.92v3.54H1084V107h11.9Z"/><path d="M1109.73,98.8h4.38v9.48c3.06-2.76,6.66-5.9,10.62-9.48h5.42l-10,9,10.62,11.88h-5.5l-8.28-9.49-2.84,2.34v7.15h-4.38Z"/><path d="M1130,119.63V98.8h5.19c5.47,8.15,9.21,13.11,10.48,15.48h.06c-.2-2.35-.17-6-.17-9.47v-6h4v20.83h-4.88c-2.33-3.44-9.48-14.08-10.8-16.48h-.06c.17,2.61.17,5.57.17,9.27v7.21Z"/><path d="M1173.41,109.14c0,5.81-3.89,10.93-11.28,10.93-6.94,0-11-4.82-11-10.91,0-5.75,4.28-10.8,11.22-10.8S1173.41,103.43,1173.41,109.14Zm-17.7,0c0,4.11,2.24,7.51,6.65,7.51s6.44-3.64,6.44-7.4-2.1-7.37-6.64-7.37C1157.85,101.83,1155.71,105.29,1155.71,109.09Z"/><path d="M1178.56,119.63l-6.09-20.83h4.59c1.33,4.91,3.76,13.39,4.22,16.83h0c.65-3.55,3.16-11.92,4.65-16.83h4.21c1.37,4.61,4,13.9,4.57,16.7h0c.63-3.58,3-12,4.37-16.7h4.41l-6.5,20.83h-4.75c-1.38-4.64-3.89-13.39-4.52-16.22h0c-.6,3.26-3,11-4.51,16.22Z"/><path d="M1206.61,113.45c.65,2,2.2,3.35,5.87,3.35,3.51,0,4.65-1.18,4.65-2.71s-1-2.59-5.72-3.39c-6.92-1.18-8.29-3.4-8.29-6.21,0-4,3.83-6.11,8.63-6.11,7,0,8.86,3.63,9.09,6h-4.39c-.33-1.16-1.09-2.7-4.83-2.7-2.6,0-4,.85-4,2.44,0,1.36.86,2.12,5,2.85,7.79,1.37,9,3.75,9,6.72,0,3.52-2.77,6.41-9.53,6.41-6.29,0-9.23-2.82-9.88-6.6Z"/><line class="cls-55" x1="303.76" y1="1" x2="936.76" y2="1"/></g></g></svg>