<svg xmlns="http://www.w3.org/2000/svg" viewBox="0 0 300 90"><title>catalogo_3</title><g id="Layer_2" data-name="Layer 2"><g id="Layer_1-2" data-name="Layer 1"><rect width="300" height="90" style="fill:#3b0099"/><path d="M230.61,24.25a1,1,0,0,0-.83-1.82,8.05,8.05,0,0,0-1.92,1.23,1,1,0,0,0-.1,1.42,1,1,0,0,0,.76.34,1,1,0,0,0,.65-.24A5.92,5.92,0,0,1,230.61,24.25Z" style="fill:#fc6"/><path d="M234.1,23.71h2a1,1,0,0,0,0-2h-2a1,1,0,0,0,0,2Z" style="fill:#fc6"/><path d="M240.1,23.71h2a1,1,0,0,0,0-2h-2a1,1,0,0,0,0,2Z" style="fill:#fc6"/><path d="M236.1,35.71h-2a1,1,0,0,0,0,2h2a1,1,0,0,0,0-2Z" style="fill:#fc6"/><path d="M248.1,35.71h-2a1,1,0,0,0,0,2h2a1,1,0,0,0,0-2Z" style="fill:#fc6"/><path d="M242.1,35.71h-2a1,1,0,0,0,0,2h2a1,1,0,0,0,0-2Z" style="fill:#fc6"/><path d="M230.61,35.17a6.41,6.41,0,0,1-1.44-.92,1,1,0,1,0-1.31,1.51A8.05,8.05,0,0,0,229.78,37a1,1,0,0,0,.41.09,1,1,0,0,0,.42-1.91Z" style="fill:#fc6"/><path d="M254.1,35.71h-2a1,1,0,0,0,0,2h2a1,1,0,0,0,0-2Z" style="fill:#fc6"/><path d="M272.1,35.71h-2a1,1,0,0,0,0,2h2a1,1,0,0,0,0-2Z" style="fill:#fc6"/><path d="M278.1,35.71h-2a1,1,0,0,0,0,2h2a1,1,0,0,0,0-2Z" style="fill:#fc6"/><path d="M260.1,35.71h-2a1,1,0,0,0,0,2h2a1,1,0,0,0,0-2Z" style="fill:#fc6"/><path d="M266.1,35.71h-2a1,1,0,0,0,0,2h2a1,1,0,0,0,0-2Z" style="fill:#fc6"/><path d="M230.61,65.17a6.41,6.41,0,0,1-1.44-.92,1,1,0,1,0-1.31,1.51A8.05,8.05,0,0,0,229.78,67a1,1,0,0,0,.41.09,1,1,0,0,0,.42-1.91Z" style="fill:#fc6"/><path d="M242.1,65.71h-2a1,1,0,0,0,0,2h2a1,1,0,0,0,0-2Z" style="fill:#fc6"/><path d="M236.1,65.71h-2a1,1,0,0,0,0,2h2a1,1,0,0,0,0-2Z" style="fill:#fc6"/><path d="M260.1,65.71h-2a1,1,0,0,0,0,2h2a1,1,0,0,0,0-2Z" style="fill:#fc6"/><path d="M263.1,66.71a1,1,0,0,0,1,1h2a1,1,0,0,0,0-2h-2A1,1,0,0,0,263.1,66.71Z" style="fill:#fc6"/><path d="M270.1,67.71h2a1,1,0,0,0,0-2h-2a1,1,0,0,0,0,2Z" style="fill:#fc6"/><path d="M254.1,65.71h-2a1,1,0,0,0,0,2h2a1,1,0,0,0,0-2Z" style="fill:#fc6"/><path d="M276.1,67.71h2a1,1,0,0,0,0-2h-2a1,1,0,0,0,0,2Z" style="fill:#fc6"/><path d="M248.1,65.71h-2a1,1,0,0,0,0,2h2a1,1,0,0,0,0-2Z" style="fill:#fc6"/><path d="M269.1,50.71a4,4,0,1,0,4-4A4,4,0,0,0,269.1,50.71Zm4-2a2,2,0,1,1-2,2A2,2,0,0,1,273.1,48.71Z" style="fill:#fc6"/><path d="M268,17.71l-5.43-5.43a1.13,1.13,0,0,0-1.61,0l-2.05,2-2-2a1.13,1.13,0,0,0-1.61,0l-5.44,5.43H233.1a8,8,0,0,0-8,8V64.56a7.16,7.16,0,0,0,7.15,7.15H285.1v-54ZM261.8,14.3l3.41,3.41,14,14h-5.39L262.56,20.44a1.08,1.08,0,0,0-1.52,0L249.78,31.71h-5.39l16-16h0ZM271,31.71H252.61l9.19-9.19ZM256.1,14.3l1.44,1.44-16,16h-2.87l14-14Zm-23,5.41h14.76l-2.06,2.06a1,1,0,0,0-.63.64l-9.31,9.3H233.1a6,6,0,0,1,0-12Zm50,36h-11a5,5,0,0,1,0-10h11Zm0-20h-1a1,1,0,0,0,0,2h1v6h-11a7,7,0,0,0,0,14h11v8h-1a1,1,0,0,0,0,2h1v2H232.25a5.16,5.16,0,0,1-5.15-5.15v-2.2a1,1,0,0,0,.24-1,6,6,0,0,1-.24-1.69V32.36a1,1,0,0,0,.24-1c0-.06,0-.13,0-.2l.27.28c.09.09.18.16.27.24s.22.2.34.29l.29.21.37.25.31.19.4.21.32.16.43.17.33.12.47.13.32.08.55.1.28,0a7.94,7.94,0,0,0,.85,0h50Zm-1.06-4-8-8h.06a1,1,0,0,0,0-2h-2.05l-2-2H283.1v12Z" style="fill:#fc6"/><path d="M280.1,21.71h-2a1,1,0,0,0,0,2h2a1,1,0,0,0,0-2Z" style="fill:#fc6"/><rect width="210.76" height="90" style="fill:#fff"/><path d="M36.13,52.6H33.84a1,1,0,0,1-.63-.2,1.12,1.12,0,0,1-.36-.47l-1.19-3.25H25.08l-1.19,3.25a1.13,1.13,0,0,1-.35.46,1,1,0,0,1-.63.21h-2.3l6.25-15.91h3Zm-10.3-6h5.08L29,41.3c-.09-.24-.19-.51-.29-.83s-.21-.67-.32-1c-.1.37-.2.72-.3,1s-.19.61-.29.85Z" style="fill:#333"/><path d="M36.91,52.6V36.69H42.4a10.34,10.34,0,0,1,2.67.3,5.15,5.15,0,0,1,1.81.84,3.22,3.22,0,0,1,1,1.34,4.45,4.45,0,0,1,.33,1.76A3.47,3.47,0,0,1,48.09,42a3,3,0,0,1-.51,1,3.82,3.82,0,0,1-.88.81,5.18,5.18,0,0,1-1.27.62q3.27.73,3.27,3.54a4.44,4.44,0,0,1-.38,1.87,4.15,4.15,0,0,1-1.12,1.48,5.18,5.18,0,0,1-1.82,1,7.76,7.76,0,0,1-2.46.36Zm3-9h2.37A4,4,0,0,0,44.52,43a2,2,0,0,0,.78-1.75,2.06,2.06,0,0,0-.7-1.77A3.62,3.62,0,0,0,42.4,39H39.87Zm0,2v4.67h3a4.19,4.19,0,0,0,1.38-.2,2.47,2.47,0,0,0,.9-.53,2,2,0,0,0,.48-.77,2.83,2.83,0,0,0,.15-.93,2.45,2.45,0,0,0-.17-.93,1.79,1.79,0,0,0-.51-.71,2.49,2.49,0,0,0-.91-.44,4.65,4.65,0,0,0-1.33-.16Z" style="fill:#333"/><path d="M53.44,46.38V52.6H50.49V36.69h4.85a9.83,9.83,0,0,1,2.78.34A5.17,5.17,0,0,1,60,38a3.63,3.63,0,0,1,1.09,1.44,4.85,4.85,0,0,1,.34,1.86,5,5,0,0,1-.23,1.51,4.38,4.38,0,0,1-.69,1.3,4.67,4.67,0,0,1-1.09,1,6.1,6.1,0,0,1-1.5.7,2.89,2.89,0,0,1,1,.91l4,5.88H60.24a1.33,1.33,0,0,1-.65-.16,1.37,1.37,0,0,1-.46-.44l-3.34-5.09a1.17,1.17,0,0,0-.42-.41,1.44,1.44,0,0,0-.66-.12Zm0-2.12h1.85a4.55,4.55,0,0,0,1.46-.21,2.73,2.73,0,0,0,1-.58,2.27,2.27,0,0,0,.6-.87,3.08,3.08,0,0,0,.2-1.11,2.26,2.26,0,0,0-.8-1.86A3.75,3.75,0,0,0,55.34,39h-1.9Z" style="fill:#333"/><path d="M67.27,52.6h-3V36.69h3Z" style="fill:#333"/><path d="M73.05,46.38V52.6h-3V36.69h4.85a10,10,0,0,1,2.79.34,5.2,5.2,0,0,1,1.9.94,3.63,3.63,0,0,1,1.09,1.44,4.85,4.85,0,0,1,.35,1.86,4.68,4.68,0,0,1-.24,1.51,4.6,4.6,0,0,1-.68,1.3,4.93,4.93,0,0,1-1.1,1,6.2,6.2,0,0,1-1.49.7,3,3,0,0,1,1,.91l4,5.88H79.84a1.33,1.33,0,0,1-.65-.16,1.37,1.37,0,0,1-.46-.44l-3.34-5.09A1.23,1.23,0,0,0,75,46.5a1.49,1.49,0,0,0-.67-.12Zm0-2.12h1.84a4.55,4.55,0,0,0,1.46-.21,2.65,2.65,0,0,0,1-.58,2.27,2.27,0,0,0,.6-.87,2.88,2.88,0,0,0,.2-1.11,2.23,2.23,0,0,0-.8-1.86A3.75,3.75,0,0,0,74.94,39H73.05Z" style="fill:#333"/><path d="M97.86,48.85a.58.58,0,0,1,.42.18l1.17,1.27a6.33,6.33,0,0,1-2.39,1.83,9,9,0,0,1-6.57,0,7.06,7.06,0,0,1-3.95-4.26A9.59,9.59,0,0,1,86,44.64a8.7,8.7,0,0,1,.6-3.28,7.47,7.47,0,0,1,1.67-2.57,7.58,7.58,0,0,1,2.58-1.68,8.88,8.88,0,0,1,3.32-.6,7.75,7.75,0,0,1,3.09.57,7.24,7.24,0,0,1,2.27,1.5l-1,1.38a.8.8,0,0,1-.22.23.69.69,0,0,1-.38.1.9.9,0,0,1-.52-.2,5.64,5.64,0,0,0-.67-.43,5.42,5.42,0,0,0-1-.43,5.92,5.92,0,0,0-3.64.19,4.71,4.71,0,0,0-1.62,1.12,5,5,0,0,0-1,1.77A6.82,6.82,0,0,0,89,44.64,7.05,7.05,0,0,0,89.41,47a5.08,5.08,0,0,0,1,1.76A4.25,4.25,0,0,0,92,49.88a4.56,4.56,0,0,0,1.89.38A8.94,8.94,0,0,0,95,50.2a5.42,5.42,0,0,0,.9-.21,4.38,4.38,0,0,0,.79-.37,5,5,0,0,0,.73-.55.87.87,0,0,1,.23-.16A.58.58,0,0,1,97.86,48.85Z" style="fill:#333"/><path d="M114.8,52.6h-2.29a1,1,0,0,1-.63-.2,1.12,1.12,0,0,1-.36-.47l-1.18-3.25h-6.59l-1.19,3.25a1.13,1.13,0,0,1-.35.46,1,1,0,0,1-.63.21h-2.3l6.25-15.91h3Zm-10.29-6h5.07l-1.94-5.29c-.09-.24-.18-.51-.29-.83s-.21-.67-.31-1c-.11.37-.21.72-.31,1s-.19.61-.29.85Z" style="fill:#333"/><path d="M125.17,36.69v2.43h-4.78V52.6h-3V39.12h-4.81V36.69Z" style="fill:#333"/><path d="M138.56,52.6h-2.29a1,1,0,0,1-.63-.2,1.12,1.12,0,0,1-.36-.47l-1.18-3.25h-6.59l-1.19,3.25a1.13,1.13,0,0,1-.35.46,1,1,0,0,1-.63.21H123l6.25-15.91h3Zm-10.29-6h5.07L131.4,41.3c-.09-.24-.18-.51-.29-.83s-.21-.67-.31-1c-.11.37-.21.72-.31,1s-.19.61-.29.85ZM135,32.9l-3.26,2.37a1.13,1.13,0,0,1-.22.14,1,1,0,0,1-.21.09l-.22,0h-2.4l2.15-2.22a1.57,1.57,0,0,1,.25-.22,1,1,0,0,1,.24-.14.77.77,0,0,1,.27-.07H135Z" style="fill:#333"/><path d="M142.3,50.15h6.37V52.6h-9.33V36.69h3Z" style="fill:#333"/><path d="M164.24,44.64a8.76,8.76,0,0,1-.59,3.24A7.49,7.49,0,0,1,162,50.46a7.37,7.37,0,0,1-2.54,1.7,9.18,9.18,0,0,1-6.58,0,7.46,7.46,0,0,1-4.2-4.28,9.34,9.34,0,0,1,0-6.48,7.46,7.46,0,0,1,4.2-4.28,8.72,8.72,0,0,1,3.29-.61,8.5,8.5,0,0,1,3.29.62,7.44,7.44,0,0,1,4.18,4.27A8.84,8.84,0,0,1,164.24,44.64Zm-3,0a7.49,7.49,0,0,0-.35-2.35,5,5,0,0,0-1-1.76,4.35,4.35,0,0,0-1.58-1.11,5.38,5.38,0,0,0-2.1-.39,5.46,5.46,0,0,0-2.1.39,4.48,4.48,0,0,0-1.59,1.11,5,5,0,0,0-1,1.76,7.2,7.2,0,0,0-.36,2.35,7.12,7.12,0,0,0,.36,2.35,5,5,0,0,0,1,1.76,4.48,4.48,0,0,0,1.59,1.11,5.65,5.65,0,0,0,2.1.38,5.57,5.57,0,0,0,2.1-.38,4.35,4.35,0,0,0,1.58-1.11,5,5,0,0,0,1-1.76A7.4,7.4,0,0,0,161.2,44.64Z" style="fill:#333"/><path d="M173,50.42a7.54,7.54,0,0,0,1.75-.18,7.62,7.62,0,0,0,1.41-.5v-2.9h-2a.61.61,0,0,1-.45-.16.51.51,0,0,1-.17-.39V44.62h5.3v6.44a10.28,10.28,0,0,1-1.26.76,7.35,7.35,0,0,1-1.4.53,10.91,10.91,0,0,1-1.59.32,15,15,0,0,1-1.83.1,8.36,8.36,0,0,1-3.2-.6,7.75,7.75,0,0,1-2.53-1.69,7.54,7.54,0,0,1-1.66-2.57,8.73,8.73,0,0,1-.6-3.27,9,9,0,0,1,.58-3.29A7.57,7.57,0,0,1,167,38.78a7.36,7.36,0,0,1,2.61-1.67,9.32,9.32,0,0,1,3.43-.6,9,9,0,0,1,3.37.58,8,8,0,0,1,2.41,1.5L178,39.94a.77.77,0,0,1-.67.4,1,1,0,0,1-.54-.17l-.72-.42a4.72,4.72,0,0,0-.82-.36,6.32,6.32,0,0,0-1-.26A8,8,0,0,0,173,39a5.57,5.57,0,0,0-2.13.4,4.51,4.51,0,0,0-1.62,1.13,5.18,5.18,0,0,0-1,1.77,7,7,0,0,0-.36,2.31,7.12,7.12,0,0,0,.39,2.45,5,5,0,0,0,1.07,1.81A4.81,4.81,0,0,0,170.92,50,5.51,5.51,0,0,0,173,50.42Z" style="fill:#333"/><path d="M196,44.64a8.76,8.76,0,0,1-.58,3.24,7.49,7.49,0,0,1-1.64,2.58,7.37,7.37,0,0,1-2.54,1.7,9.18,9.18,0,0,1-6.58,0,7.32,7.32,0,0,1-2.55-1.7,7.51,7.51,0,0,1-1.65-2.58,9.34,9.34,0,0,1,0-6.48,7.71,7.71,0,0,1,1.65-2.58,7.45,7.45,0,0,1,2.55-1.7,8.72,8.72,0,0,1,3.29-.61,8.5,8.5,0,0,1,3.29.62,7.44,7.44,0,0,1,4.18,4.27A8.84,8.84,0,0,1,196,44.64Zm-3,0a7.49,7.49,0,0,0-.35-2.35,5,5,0,0,0-1-1.76,4.44,4.44,0,0,0-1.58-1.11A5.38,5.38,0,0,0,188,39a5.46,5.46,0,0,0-2.1.39,4.48,4.48,0,0,0-1.59,1.11,5,5,0,0,0-1,1.76,7.2,7.2,0,0,0-.36,2.35,7.12,7.12,0,0,0,.36,2.35,5,5,0,0,0,1,1.76,4.48,4.48,0,0,0,1.59,1.11,5.65,5.65,0,0,0,2.1.38,5.57,5.57,0,0,0,2.1-.38,4.44,4.44,0,0,0,1.58-1.11,5,5,0,0,0,1-1.76A7.4,7.4,0,0,0,193,44.64Z" style="fill:#333"/></g></g></svg>