<svg xmlns="http://www.w3.org/2000/svg" viewBox="0 0 61.97 107.06"><title>confundido</title><g id="Layer_2" data-name="Layer 2"><g id="Layer_1-2" data-name="Layer 1"><path d="M50.29,22.93A19.69,19.69,0,0,1,61,33.4c2.34,5.18.67,10.62-5.58,14.75-4.07,2.69-4.14,5.52-3.58,9.57,1.59,11.48.46,23-1.27,34.32-.4,2.65-1.86,5.15-2.88,7.7-.65,1.63-.82,2.58,1.6,2.16,3-.52,4.66,1.16,5.32,4-2.43,1.63-5.1,1.14-7.78,1-2.27-.11-3-1.19-2.74-3.25,1.4-5.31,2.65-10.64,2.17-16.22-.13-1.55-.41-2.76-2.38-2.42-6.57,1.13-13.19.8-19.81.68-1.34,0-2.46.1-2.93,1.64-1.49,5-3,10-4.75,15.68,2.9-1.3,5.29-1.34,7.21.78.28,1.22.7,2.73-1.13,2.84-3.09.18-6.36,1-9-1.46a70.48,70.48,0,0,0,2.18-21.64c1.71,0,2.91-.74,3-2.55,0-1.12-.94-1.62-1.89-2-1.88-.74-2.24.94-3,1.9a12.3,12.3,0,0,0-.94,1.57,26.21,26.21,0,0,1-8-5.41c-5.86-5.52-6.15-11.66-1-17.85,2-2.32,4.49-3.91,6.81-5.77h.64l1.52.19.72-.09C16.55,52.8,19.69,51.7,23,52a2.57,2.57,0,0,0,.14.61c-.64,3.75,3.1,4.8,4.22,6.93,2.16,4.14,5.37,4.12,8.64,5.07l2.13-.27c3.1-1.76,8.41-1.72,6.34-7.75a1.08,1.08,0,0,1,.37-1c4.22-1.8,2.1-4.78,1.42-7.48a4.62,4.62,0,0,1,.05-.65l3-.81c9-3.45,10.16-10.47,2.83-16.58-1.49-1.24-3.55-1.85-4.4-3.82ZM14.43,77.33a102.94,102.94,0,0,0-3-16.87c-.24-1-.62-1.46-1.82-.87-4.24,2.06-6,7.74-3.41,11.53A16.91,16.91,0,0,0,14.43,77.33Z" style="fill:#434444"/><path d="M11.11,53.39h-.64C5.86,45.34,2.24,36.9,1.21,27.58c-.73-6.54.14-8,6-11.11a3.17,3.17,0,0,0,1.42-1.61C13,5.93,20.81,2.1,30.68,4c7.73,1.47,7.73,1.47,13-4C47.35,5,46,11.88,40,19.37A41.66,41.66,0,0,1,19.13,26.5c-2.95.2-4,1.36-3.18,4.2a11.27,11.27,0,0,1,.23,1.85c.17,1.51.6,3-2,2.27-1.35-.39-1.86,1-2,2.18s.24,2.53,1.69,2.34c2.28-.31,1.81.93,1.5,2.17A44.59,44.59,0,0,1,11.11,53.39Z" style="fill:#50433b"/><path d="M11.11,53.39a44.59,44.59,0,0,0,4.24-11.88c.31-1.24.78-2.48-1.5-2.17-1.45.19-1.8-1.16-1.69-2.34s.62-2.57,2-2.18c2.65.77,2.22-.76,2-2.27A11.27,11.27,0,0,0,16,30.7c-.81-2.84.23-4,3.18-4.2A41.66,41.66,0,0,0,40,19.37c3.7.42,7.36,1,10.31,3.55l-2.46,3.31-3.76-1.29c-.11-1.21,1.26-2.58-.34-3.59a1.58,1.58,0,0,0-1.28.2c-.27,1.49.8,2.38,1.68,3.34C46.92,31.89,49,39,49.4,46.63l-3,.81A172.52,172.52,0,0,0,23,52c-3.35-.25-6.49.85-9.69,1.54l-.72.09ZM41.59,30.26c-.45-1.18-.33-2.88-2.11-3-.91-.08-1.12,1-1,1.65.16,1.31.31,2.91,1.9,3.23C41.5,32.35,41.41,31.09,41.59,30.26ZM25.43,34.92c-.17-1.38-.44-2.83-2.05-3.1-.87-.15-1.05.88-1,1.63.06,1.4.33,2.89,1.85,3.26C25.49,37,25.29,35.73,25.43,34.92Z" style="fill:#f8d8b9"/><path d="M12.65,82.43a12.3,12.3,0,0,1,.94-1.57c.79-1,1.15-2.64,3-1.9.95.38,1.92.88,1.89,2,0,1.81-1.24,2.52-3,2.55Z" style="fill:#f8d8b9"/><path d="M23,52a172.52,172.52,0,0,1,23.31-4.51,4.62,4.62,0,0,0-.05.65l-6.48,12c-.75-2.52-2.65-4.68-1.59-7.74.45-1.28-1.14-1.94-2.58-1.75-1.62.21-3,1.29-2.18,2.64,1.69,2.79.54,5.55.69,8.31-4.24-2.28-6.89-6.52-11-9A2.57,2.57,0,0,1,23,52Z" style="fill:#f1efee"/><path d="M34.16,61.54c-.15-2.76,1-5.52-.69-8.31-.81-1.35.56-2.43,2.18-2.64,1.44-.19,3,.47,2.58,1.75-1.06,3.06.84,5.22,1.59,7.74l-1.65,4.21L36,64.56C35.41,63.55,34.78,62.55,34.16,61.54Z" style="fill:#b25d39"/><path d="M38.17,64.29l1.65-4.21,6.48-12c.68,2.7,2.8,5.68-1.42,7.48a1.08,1.08,0,0,0-.37,1C46.58,62.57,41.27,62.53,38.17,64.29Z" style="fill:#807f7f"/><path d="M34.16,61.54c.62,1,1.25,2,1.88,3-3.27-1-6.48-.93-8.64-5.07-1.12-2.13-4.86-3.18-4.22-6.93C27.27,55,29.92,59.26,34.16,61.54Z" style="fill:#807f7f"/><path d="M12.63,53.58l.72-.09Z" style="fill:#50433b"/><path d="M41.59,30.26c-.18.83-.09,2.09-1.25,1.86-1.59-.32-1.74-1.92-1.9-3.23-.08-.68.13-1.73,1-1.65C41.26,27.38,41.14,29.08,41.59,30.26Z" style="fill:#50433b"/><path d="M25.43,34.92c-.14.81.06,2.1-1.21,1.79-1.52-.37-1.79-1.86-1.85-3.26,0-.75.14-1.78,1-1.63C25,32.09,25.26,33.54,25.43,34.92Z" style="fill:#50433b"/><path d="M18.87,33.54a13.31,13.31,0,0,0,3.41-4.19,2,2,0,0,1,.36-.55.59.59,0,0,1,.61-.17.56.56,0,0,1,.34.52,1.41,1.41,0,0,1-.13.64,7.8,7.8,0,0,1-4,4.22.63.63,0,0,1-.42.07.28.28,0,0,1-.17-.37" style="fill:#4f4237"/><path d="M37.06,22.93h0a.79.79,0,0,0-.44.12.56.56,0,0,0-.25.18c-.18.22.1.52.22.7a2.47,2.47,0,0,0,.53.63,5.11,5.11,0,0,0,2.49,1,8.12,8.12,0,0,0,2,.11c.3,0,.76.07.91-.29a.44.44,0,0,0,0-.39c0-.08-.67-.1-.77-.12l-.77-.14a5.05,5.05,0,0,1-1.56-.53A8.64,8.64,0,0,0,38,23.52a1.42,1.42,0,0,1-.47-.25C37.37,23.14,37.28,23,37.06,22.93Z" style="fill:#4f4237"/><path d="M29.9,45.61a3.59,3.59,0,0,1-.14-.85,2.88,2.88,0,0,1,.48-1.53,4.21,4.21,0,0,1,1.4-1.32,7.56,7.56,0,0,1,3.09-1.31,3.83,3.83,0,0,1,3.52,1.57,3.33,3.33,0,0,1,.62,2.4.7.7,0,0,1-.18.44.39.39,0,0,1-.5,0c-.15-.13-.11-.32-.13-.49a2.36,2.36,0,0,0-.18-.57,3.47,3.47,0,0,0-.74-1.08A2.74,2.74,0,0,0,36,42.17a4.33,4.33,0,0,0-1.79.07,5.08,5.08,0,0,0-1.69.55,4.29,4.29,0,0,0-1.45,1.26,4.21,4.21,0,0,0-.48.85c-.14.33,0,.6-.11.94a.89.89,0,0,1-.22.16A.23.23,0,0,1,30,46a.38.38,0,0,1-.11-.23A.35.35,0,0,0,29.9,45.61Z" style="fill:#ddbc9a"/></g></g></svg>