<svg xmlns="http://www.w3.org/2000/svg" viewBox="0 0 273.67 325.9"><title>construc</title><g id="f9439b90-6f8c-4abb-939f-b8acd4900d8d" data-name="Layer 2"><g id="b7619942-53be-4627-889f-ef38066d3c21" data-name="Layer 1"><path d="M269.4,325.9l-41.79-.16.1-27.84a14,14,0,0,1,14-13.89l13.89.05a14,14,0,0,1,13.9,14l-.1,27.84Z" style="fill:#c3c7cb"/><path d="M241.83,284l14.06.05.52-139.42-14.06-.06L241.83,284Z" style="fill:#e0e0e0"/><path d="M243.57,141,255,141a46.12,46.12,0,0,1,5.64-4.19c4.23-3.15,6.35-4.55,6.37-9.82l-35.16-.14c0,5.28,2.08,6.69,6.29,9.52,1.75,1.41,3.51,2.83,5.61,4.59m12.66,6.88-14,0a3.18,3.18,0,0,1-2.42-1.05,68.21,68.21,0,0,0-5.88-4.53c-4.49-3.13-9-6.62-9-15.28a6.55,6.55,0,0,1,7-6.91l34.54.13a7.06,7.06,0,0,1,7,7.17c-.1,8.51-4.58,11.93-9.06,15a60.64,60.64,0,0,0-5.56,4.48,4.66,4.66,0,0,1-2.78,1" style="fill:#c17c3e"/><path d="M234.26,164.08a13,13,0,0,0,4.73-2.66c3.89,2.64,4.62,7.38,7.27,10.84,1.64,2.15.94,3.43-1.16,4.65-4.26,2.47-8.43,5.08-12.64,7.63-5.86,1.83-11.41,4.52-17.48,5.84-13.31,2.89-25.44.67-37-8.55,0,3.11-.14,5.33,0,7.52,2.07,27.92-1.28,55.53-4.36,83.19-1.3,11.76-7.2,21.71-11,32.48-.66,1.87-1.36,3.74-2.05,5.61-.16.58-.63,1.41-.42,1.68.61.76,1-.09,1.42-.5,11.12-6,17.82-3.9,23.17,7.16-.62,3.28-3,4.49-6,5.11-5.95,1.22-11.86.75-17.81.07-8.67-1-8.68-.91-8-9.19,4.32-18.32,8.27-36.66,6-55.7-.3-2.45-.91-3-3.36-2.6-22.29,3.8-44.73,4.12-67.21,2.35-3.35-.27-4.75.8-5.48,4-3.56,15.43-8.91,30.31-14.2,45.21-.54,1.54-1.45,3-.81,4.77l-.54.2c.1,0,.22.12.27.09a1.61,1.61,0,0,0,.25-.32c1.77-.83,3.5-1.74,5.31-2.48,6.73-2.75,12-1.41,16.13,4.05.79,1,1.63,2,2.45,3,.62,4.27-1.53,6.05-5.52,6.53-8,1-15.9-.41-23.78-1.75a3,3,0,0,1-2.78-3.4c3.56-20.56,8.53-41,5.41-62.14-.14-1-.32-2-.49-2.93.09-.31.18-.63.26-.94,4.14.59,7.15-1.58,10-4.13l58.37-20.36c3.64-4.25,4.17-8.51,1.43-12.61-1.55-2.32-3.25-4.53-4.89-6.79,1.15,0,2.3,0,3.44-.11,2.11-.14,3.5-1.15,3.37-3.4a3.08,3.08,0,0,0-2.79-3c-2.21-.28-3.31,1.13-3.67,3.15-.2,1.12-.22,2.27-.33,3.41-1.45-.27-3-.73-4,.85l-2.06.69c-.29-1,.48-2.22-.46-3.16L70.54,238.75l-3.34-.07c-4.16-3.25-4.22,1.55-5.28,3.07-5.25,7.48-5.12,7.57-13.06,3.82A14.22,14.22,0,0,0,47,245c-2.54-3.4-6.51-5-9.65-7.7-6.12-5.24-11.75-10.86-15.47-18.12-4.62-9-5.05-18.3-.81-27.47,6.16-13.33,16.25-23,29.2-29.73l1.45,0,32.24-6,2.28-.46,1.7.42c.07.29.15.56.24.84-.51,4.22,1.22,8.14,1.61,12.23.42,4.53,2.55,7,7.19,7,6,0,8.08,3.31,7.88,8.74-.12,2.94,1.11,4.5,4,5.24,6.75,1.69,13.43,3.65,20.13,5.5,2,1,4,1.51,5.81-.24,4.94-2.74,9.9-5.43,14.8-8.22,7.71-4.4,7.67-4.43,5.22-12.9-2.2-7.55-2.76-6.7,4.7-9.4,3.45-1.25,4.78-2.75,3.71-6.55-1.39-4.95-2.18-10.06-3.23-15.1,2.67-1.94,6-1.36,8.92-2.31,2.52.32,2.3,2.58,2.8,4.17,8.22,26.21,25.37,34.62,51.07,24.93a41.7,41.7,0,0,0,10.24-5Zm-182.5,12.7c-6.17,3.82-11.2,8.07-15,13.62-5.2,7.63-5.6,15.59-.55,23.38C42.56,223.59,52,229.6,63,235.07A463.57,463.57,0,0,0,51.76,176.78Z" style="fill:#424343"/><path d="M87.92,155.86l-1.7-.42a2.12,2.12,0,0,0-2.28.46l-32.24,6c6.88-12.82,11-26.58,14-40.72.53-2.51,1.5-5-3.18-3.48s-6.88-.34-7.32-5.21c-.68-7.35,2.92-10.19,9.95-7.85.78.26,1.58.45,2.57.73.58-5.33-.91-10.38-.86-15.5,14-6.17,28.81-9.38,43.57-12.92a243.69,243.69,0,0,0,36.39-11.52c9.46,13.47,14.42,28.79,17.91,44.63,2.22,10.07,4.45,20.17,4.17,30.6-2.92.95-6.25.37-8.92,2.31a2,2,0,0,0-.65,0c-7.25-1-14.13,1.56-21.09,2.62-10.43,1.59-20.81,3.68-31.22,5.54C100.64,152.34,93.87,152.58,87.92,155.86Zm54.18-35.05c.06-7.48-1.18-8.47-8.32-7.13a151.9,151.9,0,0,0-22.58,6c-7.91,2.78-8.75,6-3.25,12.47a14.28,14.28,0,0,0,7.91,4.86c6.7,1.51,12.84-.12,18.68-3.22C139.69,131.09,142.21,126.67,142.1,120.81ZM97,104.69c-.42-3.16-1.11-6.59-3.77-9.12-2.43-2.31-4.48-1.91-5.54,1.41-1.14,3.58,0,6.91,1.61,10,1,1.88,2.37,4,4.93,3.34S96.72,107.19,97,104.69Zm49-13.93c-.19-3.51-1.07-6.86-3.72-9.38-2.41-2.3-4.5-1.93-5.51,1.42-1.08,3.56-.08,6.9,1.62,10,1,1.87,2.39,3.95,5,3.3S145.8,92.94,146,90.76Z" style="fill:#fbd9ba"/><path d="M19.17,93C16.84,87.53,15,81.93,14.9,75.89c-.07-5.2-.58-10.33-.32-15.61,1-20.5,11.71-34.62,28.19-45.3,2.06-1.34,4.1-2.7,6.14-4.05,3-.08,6.06.22,9-.32,10-1.88,19.58-.16,28.8,3.52,18.64,7.43,31.21,21.45,41.18,38.33,2.21,3.75,1.24,5.36-2.26,6.63-10.31,3.76-20.09,8.72-30.33,12.71-22.65,8.82-45.82,15.92-69,22.91C23.31,95.58,21.14,95.13,19.17,93Z" style="fill:#fcbd40"/><path d="M19.17,93c2,2.13,4.14,2.58,7,1.71,23.23-7,46.4-14.09,69.05-22.91,10.24-4,20-8.95,30.33-12.71,3.5-1.27,4.47-2.88,2.26-6.63-10-16.88-22.54-30.9-41.18-38.33-9.22-3.68-18.78-5.4-28.8-3.52-2.91.54-6,.24-9,.32,0-4.3,3.08-4,6-4,3.33,0,6.65,0,10,0,29.34-.4,49.4,14.79,64,38.62,5.39,8.79,4.88,8.93,14.52,4.71,4.2-1.83,5.14-4,2.73-8-6.62-11-13.89-21.34-25.09-28.25-1.26-.78-3-1.32-3.36-3.74,3.44.94,6.06,3.19,9.37,2.64l-.06,0c.7,1.28,1.09,3,2.17,3.76,2.48,1.66,3.54,5.84,7.72,4.64,5.49,4,8,10.28,11.61,15.65,1.4,2.08,2.55,2.35,4.36,1.62C159.1,36,165.6,36.84,172,37.2c4.73.27,6.31,4.95,3.51,9.33-5,7.8-12.74,12.18-20.72,16.15a65.93,65.93,0,0,1-7.9,2.78A243.69,243.69,0,0,1,110.47,77C95.71,80.52,80.87,83.73,66.9,89.9c-11.58,3.36-23.18,6.62-34.71,10.16-2.26.69-5.11.06-6.73,2.52C18.9,102.76,18.9,102.76,19.17,93Z" style="fill:#f1b336"/><path d="M25.46,102.58c1.62-2.46,4.47-1.83,6.73-2.52,11.53-3.54,23.13-6.8,34.71-10.16-.05,5.12,1.44,10.17.86,15.5-1-.28-1.79-.47-2.57-.73-7-2.34-10.63.5-9.95,7.85.44,4.87,2.61,6.77,7.32,5.21s3.71,1,3.18,3.48c-3,14.14-7.16,27.9-14,40.72l-1.45,0A322.43,322.43,0,0,1,25.46,102.58Z" style="fill:#51433a"/><path d="M127.06,12.87c-3.31.55-5.93-1.7-9.37-2.64.41,2.42,2.1,3,3.36,3.74,11.2,6.91,18.47,17.26,25.09,28.25,2.41,4,1.47,6.2-2.73,8-9.64,4.22-9.13,4.08-14.52-4.71-14.6-23.83-34.66-39-64-38.62-3.33,0-6.65,0-10,0C60.16,3.37,66.13,1.87,72.3,1.12A139.69,139.69,0,0,1,90.56,0c12.82.18,25.57,2.72,36,11.5C126.84,11.79,126.88,12.41,127.06,12.87Z" style="fill:#fcbd40"/><path d="M60,255c-16.57,8.43-33,17.23-50,24.81.5-3.13,3.13-6.93-2.65-8.1-.53-.1-1.05-1.27-1.2-2-.61-3.07-2.64-5.32-4.29-7.79.14-.09.4-.18.4-.27,0-5.81,4.84-5.31,8.36-6.22,10.08-2.6,20.22-5,30.34-7.45,4.36,2,8.66,4,13.62,4.27C56.58,252.35,59.08,252.46,60,255Z" style="fill:#f0f0f0"/><path d="M60,255c-.93-2.57-3.43-2.68-5.38-2.78C49.67,252,45.37,250,41,248c1.77-1.44,4.67-.64,6-3a14.22,14.22,0,0,1,1.88.6c7.94,3.75,7.81,3.66,13.06-3.82,1.06-1.52,1.12-6.32,5.28-3.07-2,1.1-2.56,3.36-3.93,5-3.62,4.28-3.22,6.1,1.67,9.24-.08.31-.17.63-.26.94Z" style="fill:#e4e4e4"/><path d="M1.91,261.92c1.65,2.47,3.68,4.72,4.29,7.79.15.76.67,1.93,1.2,2,5.78,1.17,3.15,5,2.65,8.1C1.89,278.33-2.88,267.8,1.91,261.92Z" style="fill:#cdcccc"/><path d="M136.89,21.23c-4.18,1.2-5.24-3-7.72-4.64-1.08-.73-1.47-2.48-2.17-3.76C131.77,13.89,134.11,17.82,136.89,21.23Z" style="fill:#fcbd40"/><path d="M255,159.1c0,2.46.08,4.94-.17,7.38a4.54,4.54,0,0,1-4.09,4.27c-2.47.35-3.05-1.39-4-3.35-1.59-3.32-3.7-6.32-1.85-10.18,2.7-.44,5.4-1.34,8.13-.18a2.25,2.25,0,0,0,1.76,1.87Z" style="fill:#fbd9ba"/><path d="M254.79,158.91A2.25,2.25,0,0,1,253,157,2,2,0,0,1,254.79,158.91Z" style="fill:#d9d3d0"/><path d="M87.92,155.86c6-3.28,12.72-3.52,19.14-4.68,10.41-1.86,20.79-4,31.22-5.54,7-1.06,13.84-3.63,21.09-2.62q-8.85,17.86-17.71,35.71c-.51,1-1,2.13-2.42,2.22-1.5-4.23-2.75-8.57-4.58-12.65-1.49-3.32-2-6.23.46-9.23a2.7,2.7,0,0,0,.06-3.62c-2.24-3.24-11-4.87-13.3-1.83-1.59,2.07-4,5.73-1.25,7.91,3.91,3.07,3.08,6.5,2.77,10.28-.37,4.65-.52,9.31-.77,14-2.46.55-3.47-1.55-4.87-2.78-9.94-8.68-19.23-18.1-29.6-26.3C88.07,156.42,88,156.15,87.92,155.86Z" style="fill:#f0f0f0"/><path d="M70.54,238.75l52.79-31.34c.94.94.17,2.16.46,3.16,1.44,3.44.41,7.88,4.19,10.37.43,3.45,3.89,4.74,5.33,7.47L74.94,248.77C74.94,244.79,75.65,240.49,70.54,238.75Z" style="fill:#f0f0f0"/><path d="M122.63,185.78c.25-4.66.4-9.32.77-14,.31-3.78,1.14-7.21-2.77-10.28-2.77-2.18-.34-5.84,1.25-7.91,2.35-3,11.06-1.41,13.3,1.83a2.7,2.7,0,0,1-.06,3.62c-2.42,3-2,5.91-.46,9.23,1.83,4.08,3.08,8.42,4.58,12.65-.29,2.07-.35,4.11-1.39,6.12-1.32,2.54-3.39,4.9-3,8.1-1.86,1.75-3.83,1.22-5.81.24C128.41,191.2,123.09,190.1,122.63,185.78Z" style="fill:#b15832"/><path d="M134.82,195.17c-.36-3.2,1.71-5.56,3-8.1,1-2,1.1-4,1.39-6.12,1.4-.09,1.91-1.19,2.42-2.22q8.86-17.85,17.71-35.71a2,2,0,0,1,.65,0c1,5,1.84,10.15,3.23,15.1,1.07,3.8-.26,5.3-3.71,6.55-7.46,2.7-6.9,1.85-4.7,9.4,2.45,8.47,2.49,8.5-5.22,12.9C144.72,189.74,139.76,192.43,134.82,195.17Z" style="fill:#7f8180"/><path d="M122.63,185.78c.46,4.32,5.78,5.42,6.38,9.63-6.7-1.85-13.38-3.81-20.13-5.5-2.93-.74-4.16-2.3-4-5.24.2-5.43-1.92-8.78-7.88-8.74-4.64,0-6.77-2.47-7.19-7-.39-4.09-2.12-8-1.61-12.23,10.37,8.2,19.66,17.62,29.6,26.3C119.16,184.23,120.17,186.33,122.63,185.78Z" style="fill:#7f8180"/><path d="M70.54,238.75c5.11,1.74,4.4,6,4.4,10-2.85,2.55-5.86,4.72-10,4.13-4.89-3.14-5.29-5-1.67-9.24,1.37-1.62,1.92-3.88,3.93-5Z" style="fill:#fbd9ba"/><path d="M133.31,228.41c-1.44-2.73-4.9-4-5.33-7.47,1.85-2.32,1.11-6.21-2.13-11.06,1.07-1.58,2.57-1.12,4-.85l0,0c1.64,2.26,3.34,4.47,4.89,6.79C137.48,219.9,137,224.16,133.31,228.41Z" style="fill:#cdcccc"/><path d="M129.87,209c.11-1.14.13-2.29.33-3.41.36-2,1.46-3.43,3.67-3.15a3.08,3.08,0,0,1,2.79,3c.13,2.25-1.26,3.26-3.37,3.4-1.14.07-2.29.07-3.44.11Z" style="fill:#7f8180"/><path d="M125.85,209.88c3.24,4.85,4,8.74,2.13,11.06-3.78-2.49-2.75-6.93-4.19-10.37Z" style="fill:#e4e4e4"/><path d="M83.94,155.9a2.12,2.12,0,0,1,2.28-.46Z" style="fill:#7f8180"/><path d="M142.1,120.81c.11,5.86-2.41,10.28-7.56,13-5.84,3.1-12,4.73-18.68,3.22a14.28,14.28,0,0,1-7.91-4.86c-5.5-6.47-4.66-9.69,3.25-12.47a151.9,151.9,0,0,1,22.58-6C140.92,112.34,142.16,113.33,142.1,120.81Z" style="fill:#e97f86"/><path d="M97,104.69c-.23,2.5-.2,5-2.77,5.64s-3.94-1.46-4.93-3.34c-1.65-3.1-2.75-6.43-1.61-10,1.06-3.32,3.11-3.72,5.54-1.41C95.84,98.1,96.53,101.53,97,104.69Z" style="fill:#51433a"/><path d="M146,90.76c-.19,2.18,0,4.67-2.65,5.33s-3.93-1.43-5-3.3c-1.7-3.09-2.7-6.43-1.62-10,1-3.35,3.1-3.72,5.51-1.42C144.92,83.9,145.8,87.25,146,90.76Z" style="fill:#51433a"/></g></g></svg>