<svg xmlns="http://www.w3.org/2000/svg" viewBox="0 0 413.88 72.3"><title>creceygana_1</title><g id="b01abfce-c406-4d69-a380-2422ccbd8deb" data-name="Layer 2"><g id="f52a8723-588b-4fa9-b9dd-780564574c75" data-name="Layer 1"><path d="M5.89,36.85c1.24-8.43,8-19.84,27-19.84,17.57,0,25.73,9,25.73,19.33A13.93,13.93,0,0,1,48.65,50.2v.21C53.58,52,61.42,56.27,61.42,67.49c0,12.57-9.83,21.82-28.65,21.82-18.63,0-26.87-10-28.58-21.22H18.82c1.45,5.79,6,9.77,14.7,9.77,7.62,0,13-3.45,13-10.83,0-6.74-4.49-10.31-13.66-10.31h-5.7V45.22h4.33c9.17,0,12.19-2.71,12.19-8.06,0-4.84-3.18-8.89-11.24-8.89s-11.09,4.24-12.11,8.58Z" transform="translate(-4.19 -17.01)" style="fill:#ffd34e"/><path d="M78.35,37.41a12.08,12.08,0,0,1-5,.9C68,38.31,64,35,64,28.75c0-5.91,4-9.92,9.87-9.92a10.11,10.11,0,0,1,4.49.84l-.59,2A8.92,8.92,0,0,0,74,20.88c-4.42,0-7.37,2.83-7.37,7.79,0,4.62,2.67,7.59,7.26,7.59a9.69,9.69,0,0,0,4-.78Z" transform="translate(-4.19 -17.01)" style="fill:#202529"/><path d="M81.23,28.7c0-1.6,0-3-.11-4.24h2.16l.08,2.67h.11a4.06,4.06,0,0,1,3.76-3,2.5,2.5,0,0,1,.7.08v2.33a3.38,3.38,0,0,0-4.15,3.08,6.6,6.6,0,0,0-.11,1.15V38H81.23Z" transform="translate(-4.19 -17.01)" style="fill:#202529"/><path d="M91.49,31.7c.05,3.33,2.18,4.7,4.65,4.7a8.83,8.83,0,0,0,3.76-.7l.42,1.77a11.07,11.07,0,0,1-4.52.84c-4.17,0-6.67-2.75-6.67-6.84s2.41-7.31,6.36-7.31c4.43,0,5.61,3.89,5.61,6.39,0,.5-.06.89-.08,1.15Zm7.23-1.77c0-1.57-.65-4-3.42-4-2.5,0-3.59,2.3-3.79,4Z" transform="translate(-4.19 -17.01)" style="fill:#202529"/><path d="M113.82,37.53a9.16,9.16,0,0,1-3.89.78c-4.1,0-6.76-2.77-6.76-6.92a6.9,6.9,0,0,1,7.29-7.21,8.33,8.33,0,0,1,3.42.7l-.56,1.91a5.71,5.71,0,0,0-2.86-.64c-3.11,0-4.79,2.29-4.79,5.12,0,3.14,2,5.08,4.71,5.08a7.1,7.1,0,0,0,3-.67Z" transform="translate(-4.19 -17.01)" style="fill:#202529"/><path d="M117.91,31.7c.06,3.33,2.19,4.7,4.66,4.7a8.78,8.78,0,0,0,3.75-.7l.42,1.77a11,11,0,0,1-4.51.84c-4.18,0-6.67-2.75-6.67-6.84s2.41-7.31,6.36-7.31c4.43,0,5.61,3.89,5.61,6.39a8.91,8.91,0,0,1-.09,1.15Zm7.23-1.77c0-1.57-.64-4-3.42-4-2.49,0-3.58,2.3-3.78,4Z" transform="translate(-4.19 -17.01)" style="fill:#202529"/><path d="M137.42,24.46l3,8c.31.9.64,2,.87,2.78h.05c.26-.82.54-1.85.87-2.84l2.69-8h2.61l-3.7,9.67c-1.77,4.66-3,7-4.65,8.5a6.84,6.84,0,0,1-3,1.6l-.62-2.08a6.68,6.68,0,0,0,2.16-1.2,7.59,7.59,0,0,0,2.07-2.75,1.62,1.62,0,0,0,.2-.59,1.88,1.88,0,0,0-.17-.64l-5-12.51Z" transform="translate(-4.19 -17.01)" style="fill:#202529"/><path d="M167.35,24.46c-.06,1-.11,2.08-.11,3.73v7.88c0,3.11-.62,5-1.94,6.19a7.16,7.16,0,0,1-4.93,1.63,8.71,8.71,0,0,1-4.51-1.12l.61-1.88a7.67,7.67,0,0,0,4,1.06c2.53,0,4.38-1.31,4.38-4.73V35.7h-.06A4.84,4.84,0,0,1,160.45,38c-3.36,0-5.77-2.85-5.77-6.61,0-4.6,3-7.2,6.11-7.2A4.51,4.51,0,0,1,165,26.51h.06l.11-2.05Zm-2.55,5.36a3.61,3.61,0,0,0-3.59-3.73c-2.36,0-4,2-4,5.13,0,2.66,1.35,4.88,4,4.88a3.6,3.6,0,0,0,3.42-2.53,4.25,4.25,0,0,0,.2-1.31Z" transform="translate(-4.19 -17.01)" style="fill:#202529"/><path d="M178.84,38l-.2-1.71h-.08a5.05,5.05,0,0,1-4.15,2,3.87,3.87,0,0,1-4.15-3.9c0-3.28,2.91-5.07,8.16-5v-.28A2.8,2.8,0,0,0,175.33,26a6.72,6.72,0,0,0-3.53,1l-.56-1.63a8.42,8.42,0,0,1,4.46-1.2c4.15,0,5.15,2.83,5.15,5.55v5.07a18.8,18.8,0,0,0,.23,3.25Zm-.37-6.92c-2.69-.06-5.74.42-5.74,3a2.18,2.18,0,0,0,2.32,2.36,3.37,3.37,0,0,0,3.28-2.27,2.48,2.48,0,0,0,.14-.79Z" transform="translate(-4.19 -17.01)" style="fill:#202529"/><path d="M184.83,28.14c0-1.41,0-2.56-.11-3.68h2.19l.14,2.25h0a5,5,0,0,1,4.49-2.55c1.87,0,4.79,1.12,4.79,5.77V38h-2.47V30.21c0-2.19-.81-4-3.14-4a3.5,3.5,0,0,0-3.3,2.52,3.36,3.36,0,0,0-.17,1.15V38h-2.47Z" transform="translate(-4.19 -17.01)" style="fill:#202529"/><path d="M207.9,38l-.2-1.71h-.08a5.05,5.05,0,0,1-4.15,2,3.87,3.87,0,0,1-4.15-3.9c0-3.28,2.91-5.07,8.16-5v-.28A2.8,2.8,0,0,0,204.39,26a6.72,6.72,0,0,0-3.53,1l-.56-1.63a8.42,8.42,0,0,1,4.46-1.2c4.15,0,5.15,2.83,5.15,5.55v5.07a18.8,18.8,0,0,0,.23,3.25Zm-.37-6.92c-2.69-.06-5.74.42-5.74,3a2.18,2.18,0,0,0,2.32,2.36,3.37,3.37,0,0,0,3.28-2.27,2.48,2.48,0,0,0,.14-.79Z" transform="translate(-4.19 -17.01)" style="fill:#202529"/><path d="M229.5,37.53a9.16,9.16,0,0,1-3.89.78c-4.1,0-6.76-2.77-6.76-6.92a6.9,6.9,0,0,1,7.29-7.21,8.37,8.37,0,0,1,3.42.7L229,26.79a5.71,5.71,0,0,0-2.86-.64c-3.11,0-4.8,2.29-4.8,5.12,0,3.14,2,5.08,4.71,5.08a7.12,7.12,0,0,0,3-.67Z" transform="translate(-4.19 -17.01)" style="fill:#202529"/><path d="M244.5,31.13c0,5-3.48,7.21-6.76,7.21-3.67,0-6.5-2.69-6.5-7,0-4.54,3-7.2,6.72-7.2C241.86,24.16,244.5,27,244.5,31.13Zm-10.77.14c0,3,1.71,5.22,4.12,5.22S242,34.27,242,31.22c0-2.3-1.15-5.21-4.06-5.21S233.73,28.7,233.73,31.27Z" transform="translate(-4.19 -17.01)" style="fill:#202529"/><path d="M247.6,28.14c0-1.41,0-2.56-.11-3.68h2.19l.14,2.25h.05a5,5,0,0,1,4.49-2.55c1.88,0,4.79,1.12,4.79,5.77V38h-2.47V30.21c0-2.19-.81-4-3.14-4a3.5,3.5,0,0,0-3.3,2.52,3.62,3.62,0,0,0-.17,1.15V38H247.6Z" transform="translate(-4.19 -17.01)" style="fill:#202529"/><path d="M69,46.55h11c4.81,0,7,2.28,7,5.32a4.53,4.53,0,0,1-3.19,4.44,5.07,5.07,0,0,1,4,4.9c0,4-3.14,6.17-7.91,6.17H69Zm10.09,8.29c2.5,0,3.46-1,3.46-2.45,0-1.84-1.43-2.5-3.39-2.5H73.35v5Zm-5.78,9.22h6c2.11,0,3.94-.63,3.94-3,0-1.93-1.4-2.92-4-2.92h-6Z" transform="translate(-4.19 -17.01)" style="fill:#ffd34e"/><path d="M93.48,62.14l-2.1,5.24H86.87l8.57-20.83H101l9,20.83h-4.73L103,62.14Zm8.26-3.55c-2.13-5.09-3.16-7.62-3.65-9.15h0c-.45,1.49-1.66,4.79-3.4,9.15Z" transform="translate(-4.19 -17.01)" style="fill:#ffd34e"/><path d="M110,67.38V46.55h5.19c5.48,8.15,9.22,13.11,10.49,15.48h.06c-.2-2.35-.17-6.05-.17-9.47v-6h4V67.38h-4.87c-2.33-3.44-9.48-14.08-10.8-16.48h-.06c.17,2.61.17,5.57.17,9.27v7.21Z" transform="translate(-4.19 -17.01)" style="fill:#ffd34e"/><path d="M132.25,46.55h4.38V56c3.06-2.76,6.66-5.9,10.62-9.48h5.42l-10,9,10.62,11.88h-5.5l-8.28-9.49-2.84,2.34v7.15h-4.38Z" transform="translate(-4.19 -17.01)" style="fill:#ffd34e"/><path d="M160.41,46.55V67.38H156V46.55Z" transform="translate(-4.19 -17.01)" style="fill:#ffd34e"/><path d="M163.12,67.38V46.55h5.19c5.48,8.15,9.22,13.11,10.48,15.48h.06c-.2-2.35-.17-6.05-.17-9.47v-6h4V67.38h-4.88C175.5,63.94,168.35,53.3,167,50.9H167c.17,2.61.17,5.57.17,9.27v7.21Z" transform="translate(-4.19 -17.01)" style="fill:#ffd34e"/><path d="M185.42,46.55h11.05c4.81,0,7,2.28,7,5.32a4.53,4.53,0,0,1-3.19,4.44,5.06,5.06,0,0,1,4,4.9c0,4-3.13,6.17-7.9,6.17h-11Zm10.09,8.29c2.5,0,3.46-1,3.46-2.45,0-1.84-1.43-2.5-3.39-2.5h-5.85v5Zm-5.78,9.22h6c2.11,0,3.94-.63,3.94-3,0-1.93-1.4-2.92-4-2.92h-6Z" transform="translate(-4.19 -17.01)"/><path d="M221.79,58.3H209.88v5.53h13.2l-.52,3.55H205.5V46.55h16.92v3.54H209.88v4.66h11.91Z" transform="translate(-4.19 -17.01)"/><path d="M226.79,61.2c.65,2,2.2,3.35,5.86,3.35s4.66-1.18,4.66-2.71-1-2.59-5.73-3.39c-6.92-1.18-8.29-3.4-8.29-6.21,0-4,3.83-6.11,8.63-6.11,7,0,8.86,3.63,9.1,5.95h-4.4c-.33-1.16-1.09-2.7-4.83-2.7-2.6,0-4,.85-4,2.44,0,1.36.86,2.12,5,2.85,7.79,1.37,9,3.75,9,6.72,0,3.52-2.77,6.41-9.53,6.41-6.29,0-9.23-2.82-9.87-6.6Z" transform="translate(-4.19 -17.01)"/><path d="M248,50.08h-7.53V46.55h19.42v3.53h-7.5v17.3H248Z" transform="translate(-4.19 -17.01)"/><rect x="255.88" y="2.74" width="158" height="66" style="fill:none"/></g></g></svg>