<svg xmlns="http://www.w3.org/2000/svg" viewBox="0 0 413 286.86"><title>dejaque_2</title><g id="b24b22ab-e983-4b8d-a504-7771223059d8" data-name="Layer 2"><g id="bc75b788-ce9c-4fab-be69-dec8c6c92796" data-name="Layer 1"><g id="b373688d-a037-4df2-8649-c9a2c4f79f50" data-name="Ohfozy.tif"><path d="M358.11,245.38c-2.49,11.41-1.79,22.77.44,34.12-.55,1.72,1.63,4.58-1.16,5.12-3.53.69-6.82,2.54-10.6,2.15a3.55,3.55,0,0,1-3.27-2c-.74-1.53.05-2.67,1.13-3.57A38.69,38.69,0,0,1,348,279l5.25,1.17c.42-1.66-.09-3.1-.36-4.59-1.28-7.15-3.34-14.22-3.06-21.57.11-3-1-3.87-3.94-3.8a130,130,0,0,1-35.2-3.59c-2.42-.61-3,0-3.23,2.52-.81,9.64.68,19.06,2.22,28.49-.5,1.8,2.24,4.46-1.07,5.41a28.68,28.68,0,0,1-11.19,1.13c-2.41-.27-2.93-1.73-2.73-3.8,1.69-2.76,4-4.19,7.28-3.1s2.86-.49,2.39-2.66a211.81,211.81,0,0,1-4.55-34.27c-.4-7.7.36-15.47.59-23.21,0-1.46,0-2.93,0-5.31-10.08,9.77-21.13,9.49-32.67,5.41-1.79-.63-4-1-4.09-3.62.71-1.83,1.41-3.66,2.12-5.5l1.83-.61c13.84,7.11,26.6,2.83,32.89-10.77,1.47-3.19.1-6.68,1.79-9.69l5.48,1c0,.23.07.47.1.71-.92,1.63-.75,3.51-1.18,5.24-.84,3.39-.64,5.91,3.48,6.65,2.2.39,1.45,2.06,1.43,3.57,0,2-1.92,4.47.3,5.86,3.33,2.07,6.8,4.13,11.21,5-1.06-2.72-1.93-4.94-2.79-7.16a42.59,42.59,0,0,0,1.29-4.77c.32-2.09,2.48-4.1.56-6.33-1.49-1.73-.78-3.16.64-4.23a4.78,4.78,0,0,1,5.88.2c1.21.93,2.6,2.89.66,4.6-1.26,1.11-1.08,2.24-.86,3.64.48,3,.76,6,1.12,9-.07,2.15-2.48,3-3,5.47,3.23-1.1,6.14-2.19,9.12-3.09,2.41-.73,4.12-1.85,3.84-4.7-.24-2.57,1.49-3.59,3.53-3.86,3.12-.43,4-2.26,3.86-5-.09-1.81-.08-3.62-.11-5.43.06-.27.12-.54.17-.81,4.41.35,8.82.77,13.24,1,2.26.12,4.31,1.92,6.7.79l1.16.05c3.77,4.69,7.76,9.2,9.91,15,3,8.07,1.7,15.45-3.09,22.38-3,4.3-7,7.51-11.12,10.62-1.71,1.29-2.87,1.14-4-.52-.32-.51-.61-1.05-1-1.53-1.21-1.6-2.06-3.72-4.86-2-1.72,1.08-3.07,2-2.48,4.23.66,2.42,2.35,3.4,4.83,3.06Zm2.52-11.79c10.59-6.08,14.26-17.08,9-25.38-.54-.85-.95-2.1-2.29-1.8-1.09.24-1,1.35-1.16,2.22C364.4,216.73,362.59,224.83,360.63,233.59Z" style="fill:#424244"/><path d="M368.11,194.36l-1.16-.05a100.74,100.74,0,0,1-8.49-20.38c-.66-2.25-1.21-4.07,2-4.81,2.88-.67,3-3,2.56-5.39-.6-3.07-2.68-2.7-4.86-2.11-.65-.64-1.31-1.27-2-1.9a21.67,21.67,0,0,1-.14-4.09c.69-4.5-.85-5.91-5.6-5.8-12.57.28-24.84-1.56-36-7.86-10.45-7.36-14.73-17.29-12.68-30.21.69.19,1.2.17,1.43.41,7.84,8.18,10.15,8.8,20.83,4.28,9.71-4.1,19.44-4.81,29.33-1.1,6.45,2.42,11.28,6.62,13.14,13.51a3.76,3.76,0,0,0,3.69,3.19c5.36.66,8.18,4.19,9.57,9.14,2.2,7.82.34,15.41-1.3,23C376.11,174.63,372.15,184.51,368.11,194.36Z" style="fill:#50413a"/><path d="M133.91,196.18c.32,4.44,2.57,8.15,4.48,12-1.93,1.78-4.74,3-4.33,6.35l-.09,26a205.56,205.56,0,0,1-36.65,3.37c-9.41,0-18.82,0-28.2-1-1.52-10.48-3.1-21-4.53-31.44-.33-2.39-1.2-3.83-3.71-4.4a21.37,21.37,0,0,1-8.32-3.41l1-8.05c2.79.67,5.15,2.77,8.23,2.49l1.74.33c6.46,1.94,13.18,2,19.8,2.31C100.4,201.46,117.37,201.09,133.91,196.18Zm-25.73,36.54c.27,2.35,3.13,3.69,4.88,5.78.92,1.12,2,.67,2.69-.22,1.74-2.23,5.76-2.71,5.21-6.69-.7-5.1-1.58-10.18-2.1-15.3-.31-3.08-1.74-6.28-.12-9.3.81-1.52.76-2.8-.48-3.55-1.63-1-3.6-.33-5.13.44s-1.33,2.2-.15,3.41.76,2.75.38,4.24C111.67,218.28,110.05,225,108.18,232.72Z" style="fill:#f6f7f6"/><path d="M63.58,198.39l-1.74-.33c-.57-1.71-1.11-3.42-1.72-5.11-4.2-11.63-8.71-23.18-8.27-35.88,2.75-1.3-.28-7.44,5.43-5.89-.51-2-2.23-2.09-3-3.25,2.77-1.81,2.81-5.3,4.72-7.69.81-1,.32-3.5,2.56-1,.78.89,1.31-.79,1.73-1.43A31.27,31.27,0,0,1,86.23,123.6c11.88-1.6,23.53-1.12,33.28,7.34,5,4.3,8,9.79,10,16,1.08,3.27.59,4.81-2.78,5.39a9.63,9.63,0,0,0-2.06.85l-15.41,3a.82.82,0,0,0-.85.09l-1.87.32c-2.46.37-5-.16-7.36,1.14l-1.8.23a1.1,1.1,0,0,0-.87.07l-3.68.26-9.13.56-1.84.09c-.75-.14-1.48-.25-1.87.64l-1.79.06c-1.34-1.09-2.2-.95-2.4.93l-.09,3.68c-.06,2.12-.11,4.23-.17,6.35-.7,2.83-2.38.65-3.54.59-2.31-.12-3.38,1-3.67,3.08s.59,3.47,2.92,3.62c1,.07,2.1-.5,3.15.47C72,185.67,69.14,192.75,63.58,198.39Z" style="fill:#533e2a"/><path d="M63.58,198.39c5.56-5.64,8.43-12.72,10.83-20-1-1-2.14-.4-3.15-.47-2.33-.15-3.23-1.45-2.92-3.62s1.36-3.2,3.67-3.08c1.16.06,2.84,2.24,3.54-.59a6.66,6.66,0,0,0,.17-6.35l.09-3.68a3.07,3.07,0,0,0,2.4-.93l1.79-.06c1,1,1.54.42,1.87-.64l1.84-.09c3.11,1,6.22,1.79,9.13-.56l3.68-.26.87-.07,1.8-.23c2.72,1.33,5.08.33,7.36-1.14l1.87-.32.85-.09,15.41-3a117.06,117.06,0,0,1,9,36.14c.17,2.27.12,4.56.18,6.84-16.54,4.91-33.51,5.28-50.53,4.52C76.76,200.41,70,200.33,63.58,198.39Zm40.57-4c3.48-.5,7.35-1.11,11.23-1.62,3.26-.42,3.49-2.33,2.46-4.85-1.23-3-3.45-5.13-6.78-5.21-4.3-.1-8.53.54-11.11,4.68-1,1.68-2,3.59-1.1,5.55C99.84,195.13,102.05,194,104.15,194.42Zm19.19-25.07c-.28-1.44-.36-4-2.78-4-2-.07-2.21,2.21-2.07,3.87.17,2,.66,4.57,2.68,4.75C123,174.08,123.38,171.66,123.34,169.35ZM89.67,173c.25,1.93.1,4.52,2.7,5,1.86.33,2.31-1.67,2.26-3.2-.08-2.3-.42-5-3-5.41C89.68,169.1,89.88,171.42,89.67,173Z" style="fill:#fad8b9"/><path d="M314.35,142c11.21,6.3,23.48,8.14,36,7.86,4.75-.11,6.29,1.3,5.6,5.8a21.67,21.67,0,0,0,.14,4.09c-.11,1-.58,2.2.26,2.88.62.5,1.21-.49,1.71-1,2.18-.59,4.26-1,4.86,2.11.48,2.44.32,4.72-2.56,5.39-3.16.74-2.61,2.56-2,4.81A100.74,100.74,0,0,0,367,194.31c-2.39,1.13-4.44-.67-6.7-.79-4.42-.25-8.83-.67-13.24-1-13-2.37-26.15-3.19-39.26-4.51l-5.48-1c.48-12.35,1.86-24.54,6.73-36.07A30.07,30.07,0,0,1,314.35,142Zm7.87,31.1c-3,.15-6.13-.41-5.52,4.32.48,3.76,4,6.7,8.76,7.11,5.54.48,9.12-1.37,10.29-5.31.68-2.26.28-3.83-2.4-4.24C329.63,174.38,325.93,173.71,322.22,173.07Zm17.47-7.87c.29,1.51.11,3.71,2,3.59,2.76-.16,2.76-2.93,3-4.92.17-1.54,0-4-2.15-3.76C340.07,160.44,340.08,163.18,339.69,165.2Zm-23.83-5.39c-.11-1.85-.14-4.11-2.2-3.95-2.35.19-2.57,2.65-2.59,4.64,0,1.58-.39,4.06,1.73,4C315.34,164.41,315.46,161.69,315.86,159.81Z" style="fill:#f8d8b9"/><path d="M69.12,242.87c9.38,1,18.79,1,28.2,1A205.56,205.56,0,0,0,134,240.5c-1.13,11.71-2,23.47-5.86,34.71-.9,2.62-.56,3.84,2.52,2.9s5.56.51,7.72,2.6c1.9,4.91,1,6.19-4.32,6a19.35,19.35,0,0,1-3.12-.43c-8-1.69-8-1.7-7.2-9.56a152.71,152.71,0,0,0,2.39-24.9c0-4.14-1.3-4.82-5-4.17a142.44,142.44,0,0,1-39.5,1c-3.13-.33-4.18.69-4.06,3.54.35,8.14-1.51,16-3.2,23.83-.23,1.09-1.09,2.23,0,3.48,2.67-1.19,5.4-2.1,8.24-.47a29.31,29.31,0,0,1,2.11,2.37c.87,1.21,2,2.47,1.19,4.1s-2.57,1.29-4.07,1.38c-2.63.15-5.08-.84-7.63-1.12-3.4-.37-4.77-2.08-4.27-5.4C71.8,267.8,70.86,255.33,69.12,242.87Z" style="fill:#53402c"/><path d="M54.33,147.93c.72,1.16,2.44,1.3,3,3.25-5.71-1.55-2.68,4.59-5.43,5.89a8.2,8.2,0,0,0-8.14,2.85,21,21,0,0,0-.66,26.43c2.94,3.74,6.73,6.5,10.56,9.22l-1,8.05c-16.15-5.93-24.8-22.57-20-38.46A23.85,23.85,0,0,1,54.33,147.93Z" style="fill:#f7d9ba"/><path d="M134.06,214.52c-.41-3.38,2.4-4.57,4.33-6.35,8.94,8.79,18.67,5.19,28.28-.51,1.7-1,3.28-2.2,4.91-3.31a14.88,14.88,0,0,0,8.88,2.12c-7.16,8.16-16,13.51-26.73,15.32C145.83,223.12,139.46,220.08,134.06,214.52Z" style="fill:#f7d9ba"/><path d="M72.64,96.4c-.09-2.75,1.21-5,2.58-7.2S77.91,85.13,79,83a7.47,7.47,0,0,0-1-8.91c-2.48-3-5.72-2.52-8.83-1.65s-5.4,2.78-5.59,6.38A15.76,15.76,0,0,1,63.27,82a2.62,2.62,0,0,1-2.54,2.24c-1.61,0-2.32-1.08-2.63-2.61-1-4.86,1.83-10.5,6.57-12.94,6.74-3.49,13.74-2.75,18.13,1.91,4.07,4.3,4.64,9.46,1.48,14.6-2.77,4.49-6.54,8.48-6.26,14.35.08,1.53-1.15,2.45-2.78,2.37a2.42,2.42,0,0,1-2.4-2.31C72.69,98.53,72.7,97.46,72.64,96.4Z" style="fill:#ffd34e"/><path d="M114.67,74.61c6,.06,9.68,2.39,11.39,7.25,1.48,4.21-.37,8.54-5,12.07-2.72,2.1-6.06,3.61-7.19,7.32a2,2,0,0,1-2.86,1.46c-1.63-.59-1.71-1.89-1.31-3.38a8.86,8.86,0,0,1,3.55-5.12c1.73-1.23,3.47-2.45,5.14-3.77,2.53-2,3.14-4.75,2.61-7.78s-3-3.59-5.41-4.1c-3-.64-5.34.59-7,3.09-.51.75-.83,1.62-1.33,2.38-.74,1.12-1.75,1.78-3.08,1s-1.16-1.91-.78-3.19C104.84,77,108.63,74.55,114.67,74.61Z" style="fill:#ffd34e"/><path d="M180.46,206.47a14.88,14.88,0,0,1-8.88-2.12c-6-7.54-5.54-15,1.18-19.06,5.65-3.38,12.32-1.6,15.7,4.2a11.17,11.17,0,0,1-4.25,15.35A35.69,35.69,0,0,1,180.46,206.47Zm-1.87-20.93c-4.24-.16-8.84,4.27-9,8.64-.17,5.73,3.49,9.94,8.86,10.17,4.48.2,9.14-4.2,9.41-8.87A9.72,9.72,0,0,0,178.59,185.54Z" style="fill:#f8c54b"/><path d="M358.11,245.38l-1.8.24c-2.48.34-4.17-.64-4.83-3.06-.59-2.18.76-3.15,2.48-4.23,2.8-1.74,3.65.38,4.86,2,.36.48.65,1,1,1.53C360.05,243.41,359.13,244.42,358.11,245.38Z" style="fill:#f7d9ba"/><path d="M77.27,113.82c-2.15-.29-2.77-1.66-2.62-3.52.16-2.08,1.53-2.77,3.41-2.66a2.54,2.54,0,0,1,2.7,2.89C80.62,112.63,79.27,113.67,77.27,113.82Z" style="fill:#ffd34e"/><path d="M257.56,208.41l8.2-.34-2.12,5.49C260,213.76,257.65,212.41,257.56,208.41Z" style="fill:#f7d9ba"/><path d="M112.79,110.4c-.2,1.63-1.05,2.57-2.7,2.49a2.57,2.57,0,0,1,.22-5.13A2.42,2.42,0,0,1,112.79,110.4Z" style="fill:#ffd34e"/><path d="M176.33,179.21c-1.55-2.15-1.64-4.1-2-5.94-.17-.85-.09-1.94,1.07-2.11s1.44.88,1.46,1.76C176.89,174.83,177.3,176.76,176.33,179.21Z" style="fill:#b7d2c3"/><path d="M307.75,188c13.11,1.32,26.27,2.14,39.26,4.51-.05.27-.11.54-.17.81L342,197.9c-4.2,3.95-7.47,8.85-12.39,12.06-.36-3-.64-6-1.12-9-.22-1.4-.4-2.53.86-3.64,1.94-1.71.55-3.67-.66-4.6a4.78,4.78,0,0,0-5.88-.2c-1.42,1.07-2.13,2.5-.64,4.23,1.92,2.23-.24,4.24-.56,6.33a42.59,42.59,0,0,1-1.29,4.77c-1.35-.37-1.66-1.65-2.28-2.65q-5.1-8.25-10.17-16.51C307.82,188.46,307.79,188.22,307.75,188Z" style="fill:#f6f7f6"/><path d="M307.85,188.7Q312.94,197,318,205.21c.62,1,.93,2.28,2.28,2.65.86,2.22,1.73,4.44,2.79,7.16-4.41-.87-7.88-2.93-11.21-5-2.22-1.39-.33-3.89-.3-5.86,0-1.51.77-3.18-1.43-3.57-4.12-.74-4.32-3.26-3.48-6.65C307.1,192.21,306.93,190.33,307.85,188.7Z" style="fill:#6d6e72"/><path d="M329.59,210c4.92-3.21,8.19-8.11,12.39-12.06l4.86-4.59c0,1.81,0,3.62.11,5.43.12,2.78-.74,4.61-3.86,5-2,.27-3.77,1.29-3.53,3.86.28,2.85-1.43,4-3.84,4.7-3,.9-5.89,2-9.12,3.09C327.11,212.93,329.52,212.11,329.59,210Z" style="fill:#6d6e72"/><path d="M358.11,161.62c-.5.49-1.09,1.48-1.71,1-.84-.68-.37-1.89-.26-2.88C356.8,160.35,357.46,161,358.11,161.62Z" style="fill:#533e2a"/><path d="M108.18,232.72c1.87-7.68,3.49-14.44,5.18-21.19.38-1.49.9-2.94-.38-4.24s-1.3-2.68.15-3.41,3.5-1.43,5.13-.44c1.24.75,1.29,2,.48,3.55-1.62,3-.19,6.22.12,9.3.52,5.12,1.4,10.2,2.1,15.3.55,4-3.47,4.46-5.21,6.69-.7.89-1.77,1.34-2.69.22C111.31,236.41,108.45,235.07,108.18,232.72Z" style="fill:#53402c"/><path d="M92.84,158.32c-2.91,2.35-6,1.54-9.13.56Z" style="fill:#f7d9ba"/><path d="M106.55,156.62c-2.28,1.47-4.64,2.47-7.36,1.14C101.5,156.46,104.09,157,106.55,156.62Z" style="fill:#f7d9ba"/><path d="M75.72,164.28a6.66,6.66,0,0,1-.17,6.35C75.61,168.51,75.66,166.4,75.72,164.28Z" style="fill:#f7d9ba"/><path d="M78.21,159.67a3.07,3.07,0,0,1-2.4.93C76,158.72,76.87,158.58,78.21,159.67Z" style="fill:#f7d9ba"/><path d="M81.87,159c-.33,1.06-.83,1.62-1.87.64C80.39,158.72,81.12,158.83,81.87,159Z" style="fill:#f7d9ba"/><path d="M97.39,158l-.87.07A1.1,1.1,0,0,1,97.39,158Z" style="fill:#f7d9ba"/><path d="M109.27,156.21l-.85.09A.82.82,0,0,1,109.27,156.21Z" style="fill:#f7d9ba"/><path d="M104.15,194.42c-2.1-.43-4.31.71-5.3-1.45-.91-2,.06-3.87,1.1-5.55,2.58-4.14,6.81-4.78,11.11-4.68,3.33.08,5.55,2.16,6.78,5.21,1,2.52.8,4.43-2.46,4.85C111.5,193.31,107.63,193.92,104.15,194.42Z" style="fill:#eb7f86"/><path d="M123.34,169.35c0,2.31-.31,4.73-2.17,4.57-2-.18-2.51-2.78-2.68-4.75-.14-1.66,0-3.94,2.07-3.87C123,165.39,123.06,167.91,123.34,169.35Z" style="fill:#53402c"/><path d="M89.67,173c.21-1.61,0-3.93,1.92-3.63,2.62.42,3,3.11,3,5.41.05,1.53-.4,3.53-2.26,3.2C89.77,177.55,89.92,175,89.67,173Z" style="fill:#533e2a"/><path d="M322.22,173.07c3.71.64,7.41,1.31,11.13,1.88,2.68.41,3.08,2,2.4,4.24-1.17,3.94-4.75,5.79-10.29,5.31-4.74-.41-8.28-3.35-8.76-7.11C316.09,172.66,319.26,173.22,322.22,173.07Z" style="fill:#eb7f86"/><path d="M339.69,165.2c.39-2,.38-4.76,2.88-5.09,2.12-.28,2.32,2.22,2.15,3.76-.23,2-.23,4.76-3,4.92C339.8,168.91,340,166.71,339.69,165.2Z" style="fill:#50413a"/><path d="M315.86,159.81c-.4,1.88-.52,4.6-3.06,4.68-2.12.07-1.74-2.41-1.73-4,0-2,.24-4.45,2.59-4.64C315.72,155.7,315.75,158,315.86,159.81Z" style="fill:#50413a"/><path d="M178.59,185.54a9.72,9.72,0,0,1,9.29,9.94c-.27,4.67-4.93,9.07-9.41,8.87-5.37-.23-9-4.44-8.86-10.17C169.75,189.81,174.35,185.38,178.59,185.54Zm-.29,7.1c.79-.72,2.41.33,2.66-1,.21-1.1-.81-1.54-1.64-1.84-2-.69-4.11.67-3.74,1.93.81,2.73-2,6.24,1.69,8.26,2.24,1.22,3.56-.36,4.4-1.86C183.59,194.67,179.43,194.61,178.3,192.64Z" style="fill:#e29f25"/><path d="M178.3,192.64c1.13,2,5.29,2,3.37,5.44-.84,1.5-2.16,3.08-4.4,1.86-3.71-2-.88-5.53-1.69-8.26-.37-1.26,1.78-2.62,3.74-1.93.83.3,1.85.74,1.64,1.84C180.71,193,179.09,191.92,178.3,192.64Zm.8,4.53-.56-.49c-.08.12-.25.31-.23.33a6.68,6.68,0,0,0,.55.5Z" style="fill:#f8c54b"/><path d="M179.1,197.17l-.24.34a6.68,6.68,0,0,1-.55-.5s.15-.21.23-.33Z" style="fill:#e29f25"/><rect x="386" y="101" width="27" height="181" style="fill:none"/><rect y="101" width="27" height="181" style="fill:none"/><rect x="64" width="287" height="58" style="fill:none"/></g></g></g></svg>