<svg xmlns="http://www.w3.org/2000/svg" viewBox="0 0 1889.92 802.58"><title>eslogan_grande2</title><g id="Layer_2" data-name="Layer 2"><g id="Layer_1-2" data-name="Layer 1"><text transform="translate(27.08 87.73)" style="font-size:103.24463653564453px;fill:#ffd34e;font-family:Palanquin-Light, Palanquin Light;font-weight:300;letter-spacing:-0.029998342506448006em">BANKIN</text><text transform="translate(421.31 87.93)" style="font-size:100.23999786376953px;font-family:Qanelas-UltraLight, Qanelas;font-weight:100;letter-spacing:-0.03000123985274903em">E<tspan x="49.12" y="0" style="letter-spacing:-0.04998745305551397em">S</tspan><tspan x="99.24" y="0">T</tspan></text><text transform="translate(364.11 86.73)" style="font-size:103.24463653564453px;fill:#ffd34e;font-family:Palanquin-Light, Palanquin Light;font-weight:300;letter-spacing:-0.029998342506448006em">B</text><text transform="translate(421.31 185.54)" style="font-size:100.23999786376953px;font-family:Qanelas-Thin, Qanelas;font-weight:200;letter-spacing:-0.03000123985274903em">EL MEJOR AMIGO <tspan x="0" y="86">FINANCIE</tspan><tspan x="391.03" y="86" style="letter-spacing:-0.05999760858358659em">R</tspan><tspan x="447.16" y="86" style="letter-spacing:-0.02999636873083756em">O</tspan></text><rect y="15.96" width="35.07" height="260.78" style="fill:none"/><polyline points="1856.3 519.78 1483.75 509.63 1504.05 734.33 1880.95 734.33" style="fill:#f0f0f0"/><path d="M1631.15,500.91c-1.36,5.39-6.93,7.16-9.75,11.29,22.64,1,45.27,2.14,67.91,3q80.63,3.07,161.26,5.85c4.26.15,5.69,1.23,6.09,5.61,1.29,14.16,3.18,28.26,4.77,42.4q8.07,71.85,16.1,143.72c2.14,5.85-1.64,5.59-5.57,5.59q-178.6-.06-357.21.07c-5.12,0-6.31-1.61-6.63-6.48-2-30.6-4.41-61.16-6.55-91.75-2-29.13-3.89-58.28-5.83-87.42q-.54-6.87-1.07-13.74a2,2,0,0,1,0-.81,16.44,16.44,0,0,0-9.46,3c0,3.38-.06,6.78.16,10.14,1.86,28.56,3.66,57.12,5.71,85.66,1.06,14.64,2.31,29.25,3.15,43.9,1.46,25.44,3.8,50.83,5.42,76.26.64,10.15.21,10.19,10.41,10.19q183.71,0,367.42,0c3.07,0,6.31-.82,9.17,1.11,4.57-1.24,3.15-4.9,2.86-7.75-3-29-6.22-58-9.32-87Q1874,595.88,1867.85,538c-.74-7-1.8-13.88-2.21-20.85-.28-4.74-2.46-5.87-6.83-6-29.9-.87-59.78-1.93-89.67-3q-65.43-2.4-130.85-5C1635.8,503.06,1632.83,503.86,1631.15,500.91Z" style="fill:#494a49"/><path d="M1483.63,653.16c1.93,27.17,3.9,54.33,5.76,81.5.29,4.3.2,8.64.16,13,0,3.24.53,5.83,4.61,5.64q35.13.15,70.27.31c20,.05,40.11.09,60.16,0,4.35,0,6.37.63,4.4,5.65-3,7.63-5.39,15.48-8,23.23-1.49,4.84-2.81,9.73-4.53,14.49-1.55,4.27-.17,5.73,4.15,5.57,4.58-.17,9.17,0,13.76,0l126.68.1c1.45,0,2.9,0,4.35,0,3.27.09,6.38.31,6.22-4.58-.15-4.52-3.15-4-6-4l-42.71-.13-80.25,0c-15.21,0-14.89.07-11.35-14.75,1.52-6.36,4.33-8.64,10.86-8.57,27.47.29,54.94.13,82.41.14a22.91,22.91,0,0,0,.82-2.76c2.31-14.25,2.3-14.24,16.52-14.24,41.65,0,83.31-.13,125,.11,7.27,0,13.79-1.27,19.82-5.2-2.86-1.93-6.1-1.11-9.17-1.11q-183.72-.06-367.42,0c-10.2,0-9.77,0-10.41-10.19-1.62-25.43-4-50.82-5.42-76.26-.84-14.65-2.09-29.26-3.15-43.9-2-28.54-3.85-57.1-5.71-85.66-.22-3.36-.11-6.76-.16-10.14-11-.3-11.69-.16-9.84,9.7,1.94,10.27,1.06,20.62,2.27,30.92,2.06,17.64,2.2,35.49,3.29,53.25C1481.69,627.78,1482.71,640.47,1483.63,653.16Z" style="fill:#3a3b3b"/><path d="M1724.49,770.59c-27.47,0-54.94.15-82.41-.14-6.53-.07-9.34,2.21-10.86,8.57-3.54,14.82-3.86,14.74,11.35,14.75l80.25,0c.17-3.93-.39-7.93,1.33-11.68C1724.27,778.28,1724.38,774.44,1724.49,770.59Z" style="fill:#494848"/><path d="M1450.4,673.24h0Z" style="fill:#3a3b3b"/><path d="M1387.56,517.92c-4.26,8.9-13.24,13.69-18.72,21.51,11.44-2.24,21.73-7.82,32.74-11.31a20.14,20.14,0,0,1,2.67-1.11c15.09-2.24,23.32-9.53,19.78-26-.8-3.75,1.62-5.66,5.23-6.44,5-1.05,9.79-2.8,14.78-3.48,5.58-.76,8.08-3.89,8.28-9,.42-11.33,4.07-22.3,3.51-33.72q-30.67,31.85-61.38,63.64C1392.35,514.13,1390.86,517.11,1387.56,517.92Z" style="fill:#494848"/><path d="M1382.69,424.84A41.59,41.59,0,0,0,1422.57,394c1-3.88,0-5.85-3.66-7.1-22.93-7.83-46.55-9.66-70.55-8.13-3.63.23-5.49,2.08-5.52,6.08C1342.7,405.68,1361.66,424.81,1382.69,424.84Z" style="fill:#e97f86"/><path d="M1370,589c.11-4.22-2.39-7.07-6.57-7.14-4.45-.08-7.35,2.78-7.38,7.22,0,4.2,2.79,6.43,7,6.84C1367.24,595.47,1369.91,593.22,1370,589Zm-11.26-32c.34,4.08,2.58,7,6.9,6.66,4.13-.3,6.39-2.92,6.08-7.33s-2.55-6.52-7-6.64C1360.57,550.24,1358.4,552.72,1358.77,557ZM1178.88,413a3,3,0,0,0,2.51-3.74c-.39-2-1.68-2.92-3.7-2.26-1.69.56-3,1.5-2.68,3.63C1175.69,412.4,1176.94,413.43,1178.88,413Zm327.95,98.24a2.6,2.6,0,0,0,2.41,2.93c2.07.13,2.83-1.39,2.93-3.19.07-1.51-.47-2.75-2.3-2.93A3.08,3.08,0,0,0,1506.83,511.2ZM1180.7,430.6a2.6,2.6,0,1,0,2.78-2.45C1181.84,428.17,1180.79,428.92,1180.7,430.6Zm-.32-7.6c1.79.3,2.62-.79,2.64-2.45a2.38,2.38,0,0,0-2.65-2.6,2.23,2.23,0,0,0-2.43,2.2A2.8,2.8,0,0,0,1180.38,423Zm341.86,87.65a2.38,2.38,0,0,0-2.48-2.78c-1.64-.05-2.77.73-2.56,2.53a2.86,2.86,0,0,0,2.88,2.59A2.23,2.23,0,0,0,1522.24,510.65Zm-219.9-78.76c-1.66,12.38-3.06,24.81-5.12,37.12-.75,4.46.43,6.06,4.59,7,4.67,1.08,9.1,3.18,13.76,4.3,4.35,1,5.08,3.14,4,7.24-1.87,7.21-3.12,14.59-4.79,21.86-.56,2.43-1.54,5.05,1.3,6.37,16.1,7.49,31.44,16.64,48.39,22.27l0-.05,1.47,1.47c1,1.22,2,1.19,2.93,0,11.44-2.25,21.73-7.82,32.74-11.32a18.81,18.81,0,0,1,2.67-1.1c15.08-2.25,23.32-9.54,19.78-26-.8-3.74,1.62-5.66,5.23-6.43,5-1.06,9.79-2.81,14.78-3.49,5.58-.76,8.08-3.89,8.28-9,.42-11.32,4.07-22.3,3.51-33.71l.57-1.38c1,.37,2,.65,2.9-.26l2.06.78,69.51,8.46c2.37.28,4.73.61,7.1.84,25,2.35,49.52,6.62,72.88,16.15,7.59,3.09,15,6.71,20.61,12.93,4.53,5,6.16,10.35.72,15.9-1.36,5.4-6.93,7.16-9.75,11.3l-7,.84c-4.33-1.4-8.36.21-12.61.81-31.54,4.47-63.27,5.3-95.07,4.19a20.3,20.3,0,0,0-4.28-1.22,14.8,14.8,0,0,0-7.78,1.42,85,85,0,0,0-3.5-39.48,190.68,190.68,0,0,1,59.67-2.08,187.39,187.39,0,0,1,28,5.68c-1.57-.09-3.14-.29-4.71-.26-23.8.45-47.52-1-71.2-3-1.92-.17-3.66-.61-5.2.13a4.82,4.82,0,0,0-2.14,2.17,8.62,8.62,0,0,0-.23,5.09h0l-12.83.72c-10.5,4.4-13.94,9.41-12.56,18.28,1.23,7.9,5.15,11.34,13.15,11.43,4.09.05,8.18,0,12.27-.08l-.74,1.42a16.45,16.45,0,0,0-9.46,3c-11-.3-11.69-.17-9.84,9.69,1.94,10.28,1.06,20.62,2.27,30.92,2.06,17.64,2.2,35.5,3.29,53.25.79,12.71,1.81,25.39,2.73,38.09-15.63-.58-31.3-.62-46.92-1-19.74-.44-39.52-1.79-58.87-4.11-24.14-2.89-48.55-6-72.18-13.41-10.87-3.43-21.67-7.25-32.62-10.52,1-36.8,1.91-73.61,2.9-111.8-5.58,5.19-9.85,10-15.16,13.71-14.79,10.23-29.4,9.73-43.23-1.73a65.09,65.09,0,0,1-14-16.49c-19.59-32.13-28.22-67.88-34.33-104.45l31.63-7.69c2.38,2.73,2.26,6.29,3,9.51A397.94,397.94,0,0,0,1216.64,450c4.28,12.56,8.7,25.16,17.56,35.41,8,9.25,16.94,9.78,24.51.47,11.36-14,20.22-29.31,20.85-48.14.11-3.1-1.22-6.91,2.5-9.15C1288.71,430.36,1295.87,429,1302.34,431.89Z" style="fill:#242524"/><path d="M1533.83,455.94c10.31-21.92,17.31-45,24-68.17,10.72-36.91,20.1-74.12,19.64-113-.12-10.7-1.53-21.2-5.76-31.13-5.75-13.49-16.1-20.2-30.67-19.83-4.8.12-7-.41-7.84-6.06-3.69-25.23-19.36-41.71-41.56-52-38.53-17.81-77.82-18.76-117.4-3-10.08,4-20.18,8-30.43,11.56-17.55,6.11-32.84,1.54-45.95-11-5.73-5.46-10.91-11.51-17.05-18-3.89,14.81-4.2,29.26-2.76,43.77,3.22,32.4,18.65,57.84,44.52,77.22a181.83,181.83,0,0,0,56,22.66c33.83,7.33,68,7.68,102.27,5.09,6-.46,7.14,1.4,7.27,6.8.34,13.68,1.29,27.35,2,41.33,17.17-9.1,19.45-9.68,23.3-6.12,4.14,3.81,5.92,16.52,2.87,22.71-4.64,9.4-13.09,6.76-21.43,5.8a358.66,358.66,0,0,0,15.14,47.85C1516.2,427.89,1522.38,443.37,1533.83,455.94Z" style="fill:#3c2518"/><path d="M1530.87,458.86l-69.51-8.46-2.06-.78c-.89.9-1.89.63-2.9.26-22.06-3.42-44.37-4.12-66.53-6.39-17.33-1.77-34.77-3.52-51.9-6.2-10.17-1.59-20.55-.33-30.45-3.33a3.93,3.93,0,0,0-4,1.17c-.4-.13-.81-.24-1.21-.34-6.47-2.91-13.63-1.53-20.28-3.28,1.59-19.87,2.51-39.76,5.24-59.58,3.82-27.77,10.68-54.55,22.13-80.1,3.91-8.71,8.76-17,13.18-25.5a181.83,181.83,0,0,0,56,22.66c33.83,7.33,68,7.68,102.27,5.09,6-.46,7.14,1.4,7.27,6.8.34,13.68,1.29,27.35,2,41.33,17.17-9.1,19.45-9.68,23.3-6.12,4.14,3.81,5.92,16.52,2.87,22.71-4.64,9.4-13.09,6.76-21.43,5.8a358.66,358.66,0,0,0,15.14,47.85c6.15,15.44,12.33,30.92,23.78,43.49C1533.58,457.65,1532.1,458.13,1530.87,458.86ZM1422.57,394c1-3.88,0-5.85-3.66-7.1-22.93-7.83-46.55-9.66-70.55-8.13-3.63.23-5.49,2.08-5.52,6.08-.14,20.81,18.82,39.94,39.85,40A41.59,41.59,0,0,0,1422.57,394Zm-91.73-44.63c7.2.8,8.31-6.16,9.66-11.41a30,30,0,0,0-.22-17.13c-1-3-2.79-5.28-6-5.48-2.88-.18-5,1.68-6.39,4.08-3.09,5.12-3.87,10.83-4.06,17.38C1324.57,341.47,1323.61,348.59,1330.84,349.39ZM1446.9,363.3c7,.86,8.38-6.1,9.76-11.39a32.74,32.74,0,0,0,.22-15.8c-.79-3.32-2.26-6.57-6.43-6.83-3.7-.24-5.7,2.28-7.17,5.17-2.45,4.82-3.25,10.06-3.37,16.07C1440.46,355.36,1440,362.44,1446.9,363.3Z" style="fill:#fbd9b9"/><path d="M1258.3,780.11c-7.24,15-3.3,20.94,13.59,19.84,12.58-.82,24.71-4,36.87-7.21,5.36-1.4,7.49-3.6,5.32-9-.42-1.05-.15-2.38-.19-3.58-1.75-9.24-3.15-18.55-5.31-27.69-7.24-30.58-9.2-61.38-4.84-92.56.52-3.7.61-6.87,5.73-5.49,11.91,3.2,24.14,4.68,36.26,6.81,24.48,4.3,49.11,6,73.86,6.82a6.38,6.38,0,0,1,7.2.2l21.74.09H1450a30,30,0,0,0,5.75.12c6.72-1.11,9.21,1.06,9,8.32-.66,24.42,3.36,48.34,9,72,2.63,11,4.6,22.08,7.1,34.28-17.46-12.26-22.12-12.54-35.37-3a10.63,10.63,0,0,1-.73,1.22c-3,3.9-8,7.55-5.8,13,2.36,5.78,8.76,5.32,13.85,5.48,14.44.43,28.62-2,42.74-4.82,3.08-.61,4-2.06,3.6-4.91s-.57-5.7-.85-8.55c-1.4-10.07-3.86-20-3.18-30.34-4.08.2-4.64-2.4-4.61-5.63,0-4.32.13-8.65-.16-13-1.86-27.17-3.83-54.34-5.76-81.5-15.63-.58-31.3-.62-46.92-1-19.74-.44-39.52-1.79-58.87-4.11-24.14-2.89-48.55-5.95-72.18-13.41-10.87-3.43-21.67-7.25-32.62-10.52.93,10.3,1.53,20.66,2.94,30.9.77,5.57.07,11,.1,16.51.19,32.35,8.41,63.34,15.7,94.49.61,2.58,1.19,5.16,1.71,7.75.08.41-.22.88-.5,1.84C1281.19,770.27,1268.42,768.39,1258.3,780.11Z" style="fill:#242122"/><path d="M1200.06,390.54a36.13,36.13,0,0,0,2-14.93c-.43-5-2.81-7.13-6.78-3.05s-6.56,2.46-9.67-.58a38.34,38.34,0,0,0-12.2-7.57c-7.35-3.12-15.55-1.43-18.81,4-4.13,6.86-2.57,14.07,4.46,19.66,4.14,3.29,8.46,6.34,12.7,9.5C1181.74,397.3,1191.59,396.71,1200.06,390.54Z" style="fill:#fbd9b9"/><path d="M1200.06,390.54c-8.47,6.17-18.32,6.76-28.25,7-.52,2.24-1,4.48-1.57,6.72l31.63-7.69C1201.27,394.57,1200.66,392.56,1200.06,390.54Z" style="fill:#e8eae8"/><path d="M1456.4,447c-22.06-3.42-44.37-4.12-66.53-6.39-17.33-1.77-34.77-3.52-51.9-6.2-10.17-1.59-20.55-.33-30.45-3.33a4,4,0,0,0-4,1.17c9.84,16.78,19.51,33.65,29.57,50.29,5.57,9.22,10.19,19,17,27.46,2.9-9.41,5.34-19,8.83-28.17,2.82-7.38,2.93-13.72-2.58-19.81-1.3-1.43-3.44-3.3-1.49-5.65,4.14-5,7.17-11.79,15.85-9.57,3,.77,6.21.71,9.34.9,7.91.48,5.9,8.19,8.92,12.24,2.44,3.28-.08,5.4-2.41,7.08-4.66,3.35-5.66,7.58-4.71,13.12,2.16,12.56,3.81,25.21,5.66,37.82,3.3-.81,4.79-3.79,6.89-6q30.77-31.74,61.38-63.63Z" style="fill:#f2f1f1"/><path d="M1387.56,517.94c-1.85-12.61-3.5-25.26-5.66-37.82-1-5.54,0-9.77,4.71-13.12,2.33-1.68,4.85-3.8,2.41-7.08-3-4.05-1-11.76-8.92-12.24-3.13-.19-6.34-.13-9.34-.9-8.68-2.22-11.71,4.57-15.85,9.57-2,2.35.19,4.22,1.49,5.65,5.51,6.09,5.4,12.43,2.58,19.81-3.49,9.18-5.93,18.76-8.83,28.17.52,1.53.93,3.11,1.58,4.59,3.62,8.18,10.44,14.61,12.76,23.5l0-.05,1.47,1.47c1,1.22,2,1.19,2.93,0C1374.32,531.63,1383.3,526.84,1387.56,517.94Z" style="fill:#b05a35"/><path d="M1364.49,538.07c-2.32-8.89-9.14-15.32-12.76-23.5-.65-1.48-1.06-3.06-1.58-4.59-6.84-8.42-11.46-18.24-17-27.46-10.06-16.64-19.73-33.51-29.57-50.29-.4-.13-.81-.24-1.21-.34-1.66,12.38-3.06,24.81-5.12,37.12-.75,4.46.43,6.06,4.59,7,4.67,1.08,9.1,3.18,13.76,4.3,4.35,1,5.08,3.14,4,7.24-1.87,7.21-3.12,14.59-4.79,21.86-.56,2.43-1.54,5.05,1.3,6.37C1332.2,523.29,1347.54,532.44,1364.49,538.07Z" style="fill:#494848"/><path d="M1483.55,488.07c-10.5,4.4-13.94,9.41-12.56,18.28,1.23,7.9,5.15,11.34,13.15,11.43,4.09.05,8.18,0,12.27-.08l.06-3.18-.09-27.17Z" style="fill:#fbd9b9"/><path d="M1363.07,595.93c4.17-.46,6.84-2.71,7-6.92s-2.39-7.07-6.57-7.14c-4.45-.08-7.35,2.78-7.38,7.22C1356.05,593.29,1358.87,595.52,1363.07,595.93Z" style="fill:#494848"/><path d="M1364.74,549.68c-4.17.56-6.34,3-6,7.31.34,4.08,2.58,7,6.9,6.66,4.13-.3,6.39-2.92,6.08-7.33S1369.2,549.8,1364.74,549.68Z" style="fill:#494848"/><path d="M1175,410.59c.68,1.81,1.93,2.84,3.87,2.37a3,3,0,0,0,2.51-3.74c-.39-2-1.68-2.92-3.7-2.26C1176,407.52,1174.64,408.46,1175,410.59Z" style="fill:#3a3b3b"/><path d="M1365.91,539.49l-1.47-1.47Z" style="fill:#494848"/><path d="M1461.36,447.5l-2.06-.78Z" style="fill:#f2f1f1"/><path d="M1323.8,336.83c.77,4.64-.19,11.76,7,12.56s8.31-6.16,9.66-11.41a30,30,0,0,0-.22-17.13c-1-3-2.79-5.28-6-5.48-2.88-.18-5,1.68-6.39,4.08C1324.77,324.57,1324,330.28,1323.8,336.83Z" style="fill:#3c2518"/><path d="M1439.91,350.52c.55,4.84,0,11.92,7,12.78s8.38-6.1,9.76-11.39a32.74,32.74,0,0,0,.22-15.8c-.79-3.32-2.26-6.57-6.43-6.83-3.7-.24-5.7,2.28-7.17,5.17C1440.83,339.27,1440,344.51,1439.91,350.52Z" style="fill:#3c2518"/><polygon points="1858.59 636.14 1512.37 636.14 1508.56 580.94 1854.78 580.94 1858.59 636.14" style="fill:#754664"/><polygon points="1856.14 633.72 1509.92 633.72 1506.11 578.51 1852.33 578.51 1856.14 633.72" style="fill:#ffd34e"/><path d="M1546.77,585.5l.51,7.54-17.35-.07.66,9.86,13.29,0,.49,7.24-13.29,0,.68,10.06,17.35.06.51,7.54-27.22-.1-2.84-42.23Z" style="fill:#282828"/><path d="M1573.29,610.81c.41.79.81,1.61,1.19,2.44.27-.85.57-1.68.88-2.48s.64-1.57,1-2.33l9.41-21.31a3.12,3.12,0,0,1,.54-.85,1.9,1.9,0,0,1,.65-.45,2.48,2.48,0,0,1,.85-.14h1.12l7.48,0,2.85,42.2-8.65,0-1.64-24.28c-.08-1.18-.1-2.45-.08-3.83l-9.74,21.67a3.33,3.33,0,0,1-1.3,1.53,3.7,3.7,0,0,1-2,.51h-1.34a4,4,0,0,1-3.56-2.07l-12.72-21.78c.12.68.23,1.35.31,2s.14,1.28.18,1.84l1.64,24.29-8.65,0-2.84-42.2,7.49,0h1.11a2.64,2.64,0,0,1,.87.15,2.24,2.24,0,0,1,.71.45,4,4,0,0,1,.65.86L1572,608.51C1572.45,609.25,1572.88,610,1573.29,610.81Z" style="fill:#282828"/><path d="M1611.56,613.85l1,14.12-9.8,0-2.85-42.22,14.91,0a25.46,25.46,0,0,1,7.75,1.09,16,16,0,0,1,5.47,2.93,12.53,12.53,0,0,1,3.36,4.39,16.45,16.45,0,0,1,.73,11.24,10.54,10.54,0,0,1-2.8,4.51,13.31,13.31,0,0,1-5.1,2.92,23.5,23.5,0,0,1-7.51,1Zm-.5-7.39,5.11,0q3.82,0,5.39-1.8a6.87,6.87,0,0,0,1.34-5.1,8,8,0,0,0-.62-2.64,5.94,5.94,0,0,0-1.45-2,6.41,6.41,0,0,0-2.33-1.33,10.41,10.41,0,0,0-3.23-.48l-5.11,0Z" style="fill:#282828"/><path d="M1660.61,585.93l.51,7.54-17.35-.07.66,9.86,13.29,0,.49,7.24-13.29,0,.68,10.06,17.35.06.51,7.54-27.22-.1-2.84-42.23Z" style="fill:#282828"/><path d="M1693.21,617.35a1.93,1.93,0,0,1,.7.13,2.18,2.18,0,0,1,.7.45l4.17,4.11a14.69,14.69,0,0,1-6.06,5,21.62,21.62,0,0,1-9,1.66A22.59,22.59,0,0,1,1675,627a20.64,20.64,0,0,1-6.77-4.55,21.84,21.84,0,0,1-4.54-6.85,26.47,26.47,0,0,1-2-8.6,22,22,0,0,1,1-8.67,18.1,18.1,0,0,1,10.76-11.25,23.54,23.54,0,0,1,8.86-1.56,24.12,24.12,0,0,1,4.51.44,24.6,24.6,0,0,1,4,1.17,20.36,20.36,0,0,1,3.48,1.79,17.74,17.74,0,0,1,2.88,2.28l-3,4.42a3.76,3.76,0,0,1-.7.74,1.9,1.9,0,0,1-1.2.33,2.2,2.2,0,0,1-1-.24,9,9,0,0,1-1-.57l-1.2-.73a10,10,0,0,0-1.53-.73,13.15,13.15,0,0,0-4.74-.81,11.79,11.79,0,0,0-4.81.92,9.72,9.72,0,0,0-3.6,2.68,11.44,11.44,0,0,0-2.18,4.24,16.13,16.13,0,0,0-.51,5.59,18.26,18.26,0,0,0,1.27,5.77,14.06,14.06,0,0,0,2.7,4.25,11.06,11.06,0,0,0,3.73,2.64,11.2,11.2,0,0,0,4.41.92,20,20,0,0,0,2.43-.13,9.26,9.26,0,0,0,2-.44,8.47,8.47,0,0,0,1.75-.82,11,11,0,0,0,1.64-1.25,3.47,3.47,0,0,1,.72-.48A2,2,0,0,1,1693.21,617.35Z" style="fill:#282828"/><path d="M1724.55,586.18l.51,7.53-17.35-.06.66,9.85,13.29,0,.49,7.24-13.29,0,.68,10.06,17.35.07.51,7.53-27.22-.1-2.84-42.23Z" style="fill:#282828"/><path d="M1751.07,611.48c.41.8.81,1.61,1.19,2.44.27-.85.57-1.67.88-2.47s.64-1.58,1-2.34l9.41-21.31a3.28,3.28,0,0,1,.54-.85,1.9,1.9,0,0,1,.65-.45,2.48,2.48,0,0,1,.85-.14h1.12l7.48,0,2.85,42.2-8.65,0-1.64-24.29c-.08-1.18-.1-2.45-.08-3.82l-9.74,21.66a3.28,3.28,0,0,1-1.3,1.53,3.61,3.61,0,0,1-2,.51h-1.34a4.09,4.09,0,0,1-2-.53,4.14,4.14,0,0,1-1.51-1.54L1736,600.3c.12.68.23,1.35.31,2s.15,1.28.18,1.84l1.64,24.28-8.65,0-2.84-42.2,7.49,0h1.11a2.65,2.65,0,0,1,.87.14,2.11,2.11,0,0,1,.71.46,3.91,3.91,0,0,1,.65.85l12.33,21.49C1750.23,609.92,1750.66,610.69,1751.07,611.48Z" style="fill:#282828"/><path d="M1820.78,607.63a21.85,21.85,0,0,1-1,8.52,18.24,18.24,0,0,1-10.6,11.37,22.73,22.73,0,0,1-8.87,1.62,24.51,24.51,0,0,1-9.1-1.68,22.86,22.86,0,0,1-7.26-4.6A22.63,22.63,0,0,1,1779,616a23.57,23.57,0,0,1-2.15-8.52,22,22,0,0,1,1-8.52,18.52,18.52,0,0,1,4-6.82,18.86,18.86,0,0,1,6.64-4.52,22.9,22.9,0,0,1,8.89-1.62,24.31,24.31,0,0,1,9.09,1.7,22.71,22.71,0,0,1,7.22,4.59,22.31,22.31,0,0,1,4.92,6.86A23.52,23.52,0,0,1,1820.78,607.63Zm-10,0a19.13,19.13,0,0,0-1.19-5.64,13,13,0,0,0-2.62-4.25A11.1,11.1,0,0,0,1803,595a13.44,13.44,0,0,0-5.08-.95,12.71,12.71,0,0,0-5,.91,9.13,9.13,0,0,0-3.56,2.65,11,11,0,0,0-2.05,4.24,17.51,17.51,0,0,0-.43,5.63,18.75,18.75,0,0,0,1.19,5.67,13,13,0,0,0,2.62,4.26,10.87,10.87,0,0,0,3.92,2.66,13.67,13.67,0,0,0,5.13.94,12.71,12.71,0,0,0,5-.9,8.86,8.86,0,0,0,3.55-2.64,10.85,10.85,0,0,0,2-4.23A17.69,17.69,0,0,0,1810.74,607.59Z" style="fill:#282828"/><path d="M1844.71,595.21a3.4,3.4,0,0,1-.84,1,2,2,0,0,1-1.21.34,3.12,3.12,0,0,1-1.47-.43l-1.8-.94a15.19,15.19,0,0,0-2.28-1,9.15,9.15,0,0,0-2.87-.44,5.83,5.83,0,0,0-4,1.16,3.72,3.72,0,0,0-1.13,3.17,3.1,3.1,0,0,0,1,2.12,7.77,7.77,0,0,0,2.23,1.46,24.37,24.37,0,0,0,3.09,1.12c1.16.35,2.34.73,3.55,1.15a35.13,35.13,0,0,1,3.56,1.47,13,13,0,0,1,3.16,2.16,11.05,11.05,0,0,1,2.35,3.18,11.91,11.91,0,0,1,1.12,4.51,14.26,14.26,0,0,1-.65,5.47,11.64,11.64,0,0,1-2.65,4.44,12.49,12.49,0,0,1-4.55,3,17.17,17.17,0,0,1-6.36,1.06,20.32,20.32,0,0,1-4-.42,24.54,24.54,0,0,1-4-1.16,24.85,24.85,0,0,1-3.71-1.77,16.67,16.67,0,0,1-3.09-2.27l2.6-4.57a2.16,2.16,0,0,1,.84-.83,2.44,2.44,0,0,1,1.22-.32,3.59,3.59,0,0,1,1.8.56l2.08,1.23a18.73,18.73,0,0,0,2.65,1.22,10.11,10.11,0,0,0,3.46.57,6.19,6.19,0,0,0,4.07-1.16,4.21,4.21,0,0,0,1.23-3.72,3.74,3.74,0,0,0-1-2.41,6.85,6.85,0,0,0-2.23-1.54,21.56,21.56,0,0,0-3.08-1.09c-1.14-.31-2.31-.66-3.52-1a27.41,27.41,0,0,1-3.54-1.4,12.2,12.2,0,0,1-3.15-2.19,11.1,11.1,0,0,1-2.36-3.37,13.83,13.83,0,0,1-1.15-5,11.25,11.25,0,0,1,.65-4.63,10.69,10.69,0,0,1,2.54-4,12.52,12.52,0,0,1,4.36-2.81,16.2,16.2,0,0,1,6.11-1,23.89,23.89,0,0,1,3.81.31,21.23,21.23,0,0,1,3.55.92,20.49,20.49,0,0,1,3.19,1.43,15.53,15.53,0,0,1,2.69,1.88Z" style="fill:#282828"/><polyline points="1854.73 606.04 1856.63 633.64 1510.42 633.64 1508.51 606.04" style="opacity:0.1"/><path d="M1170.4,254.59c-22.92,0-41.86,18.61-41.86,41.52A42.12,42.12,0,0,0,1170.4,338c22.91,0,41.52-18.94,41.52-41.86A41.55,41.55,0,0,0,1170.4,254.59Z" style="fill:#fedb41"/><path d="M1211.94,296.11c0,22.92-18.61,41.86-41.53,41.86V254.59A41.55,41.55,0,0,1,1211.94,296.11Z" style="fill:#fc3"/><path d="M1170.4,264.36c-17.49,0-32.09,14.26-32.09,31.75a32.39,32.39,0,0,0,32.09,32.09c17.49,0,31.75-14.6,31.75-32.09A31.81,31.81,0,0,0,1170.4,264.36Z" style="fill:#fea832"/><path d="M1202.17,296.11c0,17.49-14.26,32.09-31.76,32.09V264.36A31.81,31.81,0,0,1,1202.17,296.11Z" style="fill:#fe9923"/><path d="M1175.3,293.6h-2.44v-9.77h2.44a2.43,2.43,0,0,1,2.44,2.44,2.45,2.45,0,0,0,4.89,0,7.32,7.32,0,0,0-7.33-7.33h-2.44V276.5a2.45,2.45,0,0,0-4.89,0v2.44h-2.77a7.33,7.33,0,0,0-7.33,7.33v4.89a7.33,7.33,0,0,0,7.33,7.33H1168v10.09h-2.77a2.44,2.44,0,0,1-2.44-2.43c0-3.23-4.89-3.24-4.89,0a7.32,7.32,0,0,0,7.33,7.33H1168v2.44a2.45,2.45,0,0,0,4.89,0v-2.44h2.44a7.33,7.33,0,0,0,7.33-7.33v-5.21A7.33,7.33,0,0,0,1175.3,293.6Zm-7.33,0h-2.77a2.44,2.44,0,0,1-2.44-2.44v-4.89a2.44,2.44,0,0,1,2.44-2.44H1168Zm7.33,15h-2.44V298.49h2.44a2.44,2.44,0,0,1,2.44,2.44v5.21A2.44,2.44,0,0,1,1175.3,308.58Z" style="fill:#757575"/><path d="M1175.3,293.6h-2.44v-9.77h2.44a2.43,2.43,0,0,1,2.44,2.44,2.45,2.45,0,0,0,4.89,0,7.32,7.32,0,0,0-7.33-7.33h-2.44V276.5a2.36,2.36,0,0,0-2.45-2.44v44.29a2.36,2.36,0,0,0,2.45-2.44v-2.44h2.44a7.33,7.33,0,0,0,7.33-7.33v-5.21A7.33,7.33,0,0,0,1175.3,293.6Zm0,15h-2.44V298.49h2.44a2.44,2.44,0,0,1,2.44,2.44v5.21A2.44,2.44,0,0,1,1175.3,308.58Z" style="fill:#4f4f4f"/></g></g></svg>