<svg xmlns="http://www.w3.org/2000/svg" viewBox="0 0 1238 1238"><title>fotoperfik</title><g id="f4aa3086-4894-4249-a3db-8fbb19e00c3c" data-name="Layer 2"><g id="f9181885-86c2-4906-9e9e-d0dc9142b7fa" data-name="Layer 1"><rect width="1238" height="1238" style="fill:#fff"/><path d="M849.86,556.56c-.84,6.84,1.56,9.55,7.71,9.34-5.24.26-8.31,2.1-8.6,7.37-.22-6-4-7.09-9.18-6.75,2.19-2.28,4.78-.9,6.7-2C849.05,563.12,847.14,560.12,849.86,556.56Z" style="fill:#ffd34e"/><path d="M849,573.29c0,.46,0,1,0,1.47A14.18,14.18,0,0,1,849,573.29Z" style="fill:#ffd34e"/><path d="M798.57,553.05c-4.27-2.69-8.81-5.08-10.76-10.21-1.16-3.58-3.45-6.77-3-10.89a8.38,8.38,0,0,1,4.35-6.8c1.56-.91,3.19-1.31,4.5.29a2.56,2.56,0,0,1,.68,1.6c0,1-.85,1.81-1.85,2.5-1.81,1.24-2.89,2.74-2.2,5a4.35,4.35,0,0,0,3.75,3.5c2.1.28,4.08,0,5.23-2s1.26-4.15-.73-5.85c-1.1-.94-2.4-2-2.4-3.19a2.44,2.44,0,0,1,.8-1.67c2.22-2.31,4.34-.29,6,1.25s3.13,4.36,5.34.51a1.15,1.15,0,0,1,.89-.37,10.3,10.3,0,0,1,1.79.38c-.94,5.36,8.38,1.1,6.64,7.08-.35,1.23-.35,2.15,1,2.93,3.95,2.36,2,4.58-.39,6.55s-5.14,4-8.36,4.15C805.27,548.05,801.51,549.53,798.57,553.05Z" style="fill:#f4dabc"/><path d="M799.76,475.77c-2.76-.6-3.87-2.26-3.63-4.73.22-2.24,1.46-3.83,3.88-3.59s4,1.66,3.85,4.3S801.81,475.28,799.76,475.77Z" style="fill:#ffd34e"/><path d="M795,763.93c-2.65-.08-3.92-1.65-3.73-4.14a3.53,3.53,0,0,1,3.92-3.54c2.6.12,3.57,1.94,3.78,4C798.74,763,797.29,764,795,763.93Z" style="fill:#ffd34e"/><path d="M796.13,471c-.24,2.47.87,4.13,3.63,4.73,2-.49,4-1.34,4.1-4s-1.45-4.06-3.85-4.3S796.35,468.8,796.13,471ZM794,472.68c-.1-5.43,2.64-7.2,6.24-7.23s5.75,2.24,5.7,6-2,6.35-6,6.37S794.18,475.33,794,472.68Z" style="fill:#ffd34e"/><path d="M791.25,759.79c-.19,2.49,1.08,4.06,3.73,4.14,2.31.08,3.76-.92,4-3.69-.21-2-1.18-3.87-3.78-4A3.53,3.53,0,0,0,791.25,759.79Zm-2.19-.1c.19-3.33,2.9-5.75,6.73-5.62,3.67.31,5.3,2.74,5.22,6.63s-2.49,5.63-6,5.73C791.82,766.51,788.87,762.92,789.06,759.69Z" style="fill:#ffd34e"/><path d="M784,544.06c1.07-1,2.51-.91,3.82-1.22,2,5.13,6.49,7.52,10.76,10.21a6.12,6.12,0,0,1-.69,4A111.74,111.74,0,0,1,784,544.06Z" style="fill:#f1eeed"/><path d="M781.08,585.33A18.53,18.53,0,0,1,781,597,17.94,17.94,0,0,1,781.08,585.33Z" style="fill:#ffd34e"/><path d="M780.15,607.19c.74,3.63-.15,7-1.45,10.23A11.35,11.35,0,0,1,780.15,607.19Z" style="fill:#ffd34e"/><path d="M775.08,541.42c3,1.5,2.32,4.69,4.43,5.7L778,549C775,547.5,776,544.61,775.08,541.42Z" style="fill:#ffd34e"/><path d="M776.34,627.63c.7,4.23-1.16,7.42-2,11.37C772.47,636,773.24,632.22,776.34,627.63Z" style="fill:#ffd34e"/><path d="M769.79,522c2.18,2.64,3.63,5.53,3.28,9C770.51,528.46,769.84,525.32,769.79,522Z" style="fill:#ffd34e"/><path d="M770.27,647.56a15.61,15.61,0,0,1-5.13,11.57C765.88,655.32,766.75,651.57,770.27,647.56Z" style="fill:#ffd34e"/><path d="M760.92,501.87a12.82,12.82,0,0,1,4.3,9.13A11.54,11.54,0,0,1,760.92,501.87Z" style="fill:#ffd34e"/><path d="M760.86,668.62a14.44,14.44,0,0,1-5.71,9.75C756.23,674.65,757.35,670.94,760.86,668.62Z" style="fill:#ffd34e"/><path d="M749,482.9c3.74,1.87,5.11,5.38,6.33,9C751.86,489.89,750.38,486.45,749,482.9Z" style="fill:#ffd34e"/><path d="M748.74,686.62c.57,4.35-2.4,6.48-4.32,9.2a1,1,0,0,1-1.67.14,1.92,1.92,0,0,1,0-1.76C744.71,691.63,746.74,689.14,748.74,686.62Z" style="fill:#ffd34e"/><path d="M743.9,570.43a29,29,0,0,1,.09,3.49c-19.69,9.49-40.78,5.47-58.42-11.12-1.78-1.68-3.23-3.82-5.79-4.53,2.43-26.49,2.13-52.82-4.49-78.8a172.58,172.58,0,0,0-6.47-19.33c9,2.33,15.8,8.56,22.69,14.15C722.1,499.09,738.79,531.65,743.9,570.43Z" style="fill:#ffd34e"/><path d="M735.76,466c3.85,1.48,5.64,4.78,7.37,8.13C739.35,472.64,737.11,469.72,735.76,466Z" style="fill:#ffd34e"/><path d="M735.94,706.3c-2.12,2.21-3.94,4.8-7.63,5.34,1.85-2.28,3.65-4.6,5.56-6.82.6-.7,1.45-1.71,2.47-.72C737,704.78,736.52,705.71,735.94,706.3Z" style="fill:#ffd34e"/><path d="M681.54,583.66c7.09,3.81,13.11,7.25,19.64,9.66,14,5.17,28.28,5.55,42.76,2.45-.41,14.47-4,28.3-9.35,41.61-7.37,18.37-17.44,35.1-32.16,48.69-1.21,1.12-2.52,2.15-3.79,3.22-5.86-1.87-11.69-4-17.8-4.78-3.26-.43-4-1.78-3.72-4.89,2.86-27.18,3.75-54.48,4.4-81.79C681.63,593.4,681.54,589,681.54,583.66Z" style="fill:#ffd34e"/><path d="M720.84,450.9c3.44,1.38,5.82,3.84,8.44,7.87C724.57,457,722.55,454.11,720.84,450.9Z" style="fill:#ffd34e"/><path d="M704,437.68c4,.76,5.91,2.12,8.54,6C709.57,443.41,706.18,441,704,437.68Z" style="fill:#ffd34e"/><path d="M702.21,810a7.69,7.69,0,0,1,7.4.06C706.61,811.33,704.42,811.21,702.21,810Z" style="fill:#ffd34e"/><path d="M702.06,731.3l2.91-.44c-.76,5.81-6.31,5.95-9.93,8.43C695.8,735.19,700.7,734.81,702.06,731.3Z" style="fill:#ffd34e"/><path d="M704.83,797.53c-.54,3.43-2.54,4.64-4.85,5.62C700.37,800.54,702.13,799.14,704.83,797.53Z" style="fill:#ffd34e"/><path d="M693.17,792.36a10.16,10.16,0,0,1,.3,7.51C691.7,797.07,691.7,797.07,693.17,792.36Z" style="fill:#ffd34e"/><path d="M691.89,819.18c1.46,1.85,1.07,3.72.29,5.58C690.58,822.91,691.05,821,691.89,819.18Z" style="fill:#ffd34e"/><path d="M681.63,797.26a12,12,0,0,1,5.89,5.54C683.82,802.08,682.32,800.08,681.63,797.26Z" style="fill:#ffd34e"/><path d="M686.66,814.31c-1.26,3.36-3.09,5-5.82,5.71A9.29,9.29,0,0,1,686.66,814.31Z" style="fill:#ffd34e"/><path d="M685.13,743.39c-1.74,3.48-5.71,5.61-10.72,5.75C677.66,746.13,681.23,744.83,685.13,743.39Z" style="fill:#ffd34e"/><path d="M683.8,808.89c-2.9,1.34-4.76,1.47-7.31-.06C679,807.7,680.88,807.74,683.8,808.89Z" style="fill:#ffd34e"/><path d="M674.71,370.05c2.93.43,4.24,2.61,5.49,4.88C677.23,374.64,676,372.3,674.71,370.05Z" style="fill:#ffd34e"/><path d="M668.79,346.3c1.67,3,1.49,5.23.31,8.35C667.61,351.64,667.85,349.44,668.79,346.3Z" style="fill:#ffd34e"/><path d="M667.38,699c4.57.79,9.06,2.08,13.59,3.13-1.25,2.72-3.86,3.89-6.14,5.47-5.94,4.12-13.05,6.12-18.85,10.47-15.15-1.9-29.82-6-44.57-9.74-6-1.53-6-1.6-6.49,4.75q-.54,7.43-1.09,14.86c-25.65,0-49.83-5.71-72.22-18.42a33.93,33.93,0,0,1-3.92-3c15.58-6.37,32.07-8.75,48.63-10.22C606.74,693.63,637.16,693.82,667.38,699Z" style="fill:#ffd34e"/><path d="M668,372.25a7.64,7.64,0,0,1-.07,7.4C666.66,376.64,666.77,374.45,668,372.25Z" style="fill:#ffd34e"/><path d="M665.93,753c-3.11,2.67-6.91,3.66-11,3.87C658,754,661.82,753.1,665.93,753Z" style="fill:#ffd34e"/><path d="M662.69,368.2a10.57,10.57,0,0,1-6.47,6.55A10.66,10.66,0,0,1,662.69,368.2Z" style="fill:#ffd34e"/><path d="M656.19,363.84c-1.24,0-3.17.44-3.36-1.2-.23-2,1.92-1.1,2.71-1.63,1.51.25,3.45-.35,3.63,1.3C659.37,364.21,657.38,363.81,656.19,363.84Z" style="fill:#ffd34e"/><path d="M629.31,549.9c-11.48.5-22.77-8.07-25.09-18.93-.87-4,.42-5.73,4.69-6.06a189.3,189.3,0,0,1,23.93-.78h16c3.27,0,4.35,1.6,3.92,4.79C651.24,540.08,640.92,549.39,629.31,549.9Z" style="fill:#e87f85"/><path d="M653.79,503.8c10.48.53,9.78-9.52,12.41-16.67,2.18,7.73-.08,15.15-5.34,18.76a10.89,10.89,0,0,1-13-.14c-5-3.52-7.54-11.21-5.42-18.07C644.81,494.88,645.28,503.36,653.79,503.8Z" style="fill:#595046"/><path d="M634,761.94c3-2.38,6.25-3.18,11.1-2.23A18.31,18.31,0,0,1,634,761.94Z" style="fill:#ffd34e"/><path d="M621.83,620c3.36-5.72,8.51-10.18,11.37-16.24q15.42-20.31,30.86-40.64c1.09-1.43,2.31-2.77,3.47-4.15.15,7.79.26,15.59.48,23.38.07,2.61-1.39,3.23-3.59,3.81-3.64,1-8.5-.07-10.69,3s.26,7.37.39,11.16c.28,8.65.52,8.83-7.76,11.53S630.35,618.32,621.83,620Z" style="fill:#807f7f"/><path d="M622.61,764.48c-3.18.59-6.39,1.22-10.74-.94,4.21-.46,7.09-.79,10-1.07.65-.06,1.39.1,1.43.92C623.3,763.76,622.9,764.43,622.61,764.48Z" style="fill:#ffd34e"/><path d="M620.49,635a3.65,3.65,0,0,1-3.91-3.72,4,4,0,0,1,4.18-4.59c2.5-.07,4,1.45,4.22,3.93C624.74,633.41,623.28,635,620.49,635Z" style="fill:#807f7f"/><path d="M621,653c-2.85-.09-4.61-1.26-4.75-3.78-.16-2.78,1.54-4.32,4.29-4.32a3.8,3.8,0,0,1,4.16,4C624.78,651.48,623.06,652.68,621,653Z" style="fill:#807f7f"/><path d="M616.42,579.91c.68-2.41-1.4-3.64-2.68-5-1.83-1.95-1.85-3.75-.36-5.73,1.74-2.32,1.75-6.59,6.31-5.79s10.09-1.32,12.93,4.88c1.15,2.5,1.68,4.24-.5,6.05-3.59,3-3.59,6.67-2.61,10.86,1.43,6.15,2.48,12.39,3.69,18.59-2.86,6.06-8,10.52-11.37,16.24L619,620l-1-1c-2.15-4.83-6.39-8.22-8.89-12.82C612.7,597.76,613.93,588.66,616.42,579.91Z" style="fill:#b05a35"/><path d="M609.09,606.19c-2.47-3.32-5-6.63-7.42-10-9.46-12.78-19.72-25-28.68-38.13l94.85.17a1.42,1.42,0,0,1-.31.71c-1.16,1.38-2.38,2.72-3.47,4.15q-15.45,20.31-30.86,40.64c-1.21-6.2-2.26-12.44-3.69-18.59-1-4.19-1-7.86,2.61-10.86,2.18-1.81,1.65-3.55.5-6.05-2.84-6.2-8.35-4.07-12.93-4.88s-4.57,3.47-6.31,5.79c-1.49,2-1.47,3.78.36,5.73,1.28,1.36,3.36,2.59,2.68,5C613.93,588.66,612.7,597.76,609.09,606.19Z" style="fill:#f1eeed"/><path d="M616.58,631.23a3.65,3.65,0,0,0,3.91,3.72c2.79,0,4.25-1.54,4.49-4.38-.26-2.48-1.72-4-4.22-3.93A4,4,0,0,0,616.58,631.23Zm-.32,18c.14,2.52,1.9,3.69,4.75,3.78,2-.36,3.77-1.56,3.7-4.13a3.8,3.8,0,0,0-4.16-4C617.8,644.94,616.1,646.48,616.26,649.26ZM458.93,574.13c20.81,9.22,40.9,5.22,58.63-11.82,2.23-2.14,4.39-4,7.61-4,1.81.07,3.63.22,5.44.21q20.67-.13,41.34-.32c.31,6.32,1.06,12.66.8,19-.21,5.18,1.43,7.66,6.5,9.27,9.18,2.91,9,3.28,8.77,12.88,0,2.23-1.08,5,1.61,6.33,9.42,4.56,18.34,10.17,28.37,13.43l0,0,1,1,2.87,0c8.52-1.69,16.34-5.46,24.53-8.13s8-2.88,7.76-11.53c-.13-3.79-2.55-8.1-.39-11.16s7-2.07,10.69-3c2.2-.58,3.66-1.2,3.59-3.81-.22-7.79-.33-15.59-.48-23.38a1.42,1.42,0,0,0,.31-.71c4,.05,8,.68,11.94,0,2.56.71,4,2.85,5.79,4.53,17.64,16.59,38.73,20.61,58.42,11.12,13.5-5.35,24.32-14.37,34-24.9l1.49-1.9c1.67-.76,2.15-3.26,4.48-3.06a111.74,111.74,0,0,0,13.89,13c-.29,2-1.81,3.1-3,4.44-14.14,15.62-30.46,28-50.92,34.26-14.48,3.1-28.72,2.72-42.76-2.45-6.53-2.41-12.55-5.85-19.64-9.66,0,5.31.09,9.74,0,14.17-.65,27.31-1.54,54.61-4.4,81.79-.32,3.11.46,4.46,3.72,4.89,6.11.8,11.94,2.91,17.8,4.78,4.81,2.55,9.72,4.88,13.86,8.6,11.27,10.11,10.23,28.4-6.29,32.21a4.51,4.51,0,0,0-1.24.76l-2.91.44c-21.52,2.39-42.32-2-63.08-6.73-1.29-.3-2.61-.45-3.91-.66l-18.6-5.5c1.3,2.37,1.93,3.5,2.54,4.65.69,1.3,1.37,2.61,2,3.91,2,8.16,0,15-6.61,20.37-4.24,3.41-7.17,2.53-8.87-2.67-1.78-5.43-1.42-11.1-1.75-16.69q.54-7.44,1.09-14.86c.46-6.35.44-6.28,6.49-4.75,14.75,3.71,29.42,7.84,44.57,9.74,1.9,1.26,4.18,1.09,6.27,1.4,10.53,1.54,21,3.6,31.76,1.7,2.84-.5,5.81-1.23,6.61-4.47s-1.39-5.7-3.8-7.57c-4.68-3.64-10.17-5.56-15.85-7-4.53-1-9-2.34-13.59-3.13-30.22-5.22-60.64-5.41-91.06-2.7-16.56,1.47-33.05,3.85-48.63,10.22-6.54,2.24-12.56,5.36-17.38,10.42-7.26,7.63-6.41,16.13,2.46,21.86,10.85,7,23.3,9.61,35.7,12.1a392,392,0,0,0,55,6.57c3.8.21,5.16,1.65,5.51,5.27.89,9.12,1.87,18.22,1.16,27.39a24.7,24.7,0,0,1-.54,4c-1.52,6.1-4.23,7-9.13,2.93-7.94-6.52-10-15.29-5.26-25.09,2-4.1.81-4.63-3-4.78-24.16-1-48.11-3.51-71.46-10.15a83.74,83.74,0,0,1-15.35-5.9c-15.85-8.07-21.16-23.63-13.73-39.87,3.44-7.51,9.34-12.82,15.43-18,6-3.17,11.91-6.79,18.65-8.21,3.68-.77,4-2.42,3.72-5.89-2-21-3.8-42.1-5.52-63.16-.88-10.71-1.48-21.43-2.23-32.61-4.81,2.58-9.07,5.1-13.53,7.22-15.76,7.47-32.22,8.87-49.19,5.3-12.85-4-24.34-10.58-35-18.64a5.38,5.38,0,0,0-2.93-2.35c-4.37-4.47-8.78-8.9-13.11-13.41-1.22-1.27-2.83-2.39-2.8-4.48a133.21,133.21,0,0,0,10.5-9.65c1.12-1.14,2.21-2.29,3.29-3.45,2.1.25,2.86,2.11,4.06,3.41C433.3,558.47,444.61,568.32,458.93,574.13Z" style="fill:#424342"/><path d="M591.8,508.77c-5.74-3-8.87-10.67-7-19,2.72,7.56,3.16,16.58,12.64,16.1,9.06-.46,8.93-9.27,10.84-15.88,2.67,4.15,1.26,11.79-2.84,16.15C601.7,510.17,596.43,511.17,591.8,508.77Z" style="fill:#595046"/><path d="M572.75,577.14c.26-6.3-.49-12.64-.8-19l1-.08c9,13.16,19.22,25.35,28.68,38.13,2.46,3.33,5,6.64,7.42,10,2.5,4.6,6.74,8,8.89,12.82l0,0c-10-3.26-19-8.87-28.37-13.43-2.69-1.3-1.66-4.1-1.61-6.33.25-9.6.41-10-8.77-12.88C574.18,584.8,572.54,582.32,572.75,577.14Z" style="fill:#807f7f"/><path d="M566,328l0,0h0Z" style="fill:#ffd34e"/><path d="M565.94,332.47c-.13,2.13-1.27,3.41-3.47,3.41s-3.87-1.1-4.2-3.41a3.48,3.48,0,0,1,2.8-4.11A25.75,25.75,0,0,1,566,328C566,329.5,566,331,565.94,332.47Z" style="fill:#ffd34e"/><path d="M557.79,336.14c-2.46-2.42-2.58-5.47-.26-8,2.54-2.75,5.58-3.41,8.46-.18v0a25.75,25.75,0,0,0-4.92.35,3.48,3.48,0,0,0-2.8,4.11c.33,2.31,1.94,3.41,4.2,3.41s3.34-1.28,3.47-3.41c.1-1.48,0-3,0-4.46h0c3.26,2.79,2.65,6.1.18,8.6S560.32,338.64,557.79,336.14Z" style="fill:#ffd34e"/><path d="M647.85,505.75a10.89,10.89,0,0,0,13,.14c5.26-3.61,7.52-11,5.34-18.76-2.63,7.15-1.93,17.2-12.41,16.67-8.51-.44-9-8.92-11.36-16.12C640.31,494.54,642.9,502.23,647.85,505.75ZM604.22,531c2.32,10.86,13.61,19.43,25.09,18.93s21.93-9.82,23.43-21c.43-3.19-.65-4.79-3.92-4.79h-16a189.3,189.3,0,0,0-23.93.78C604.64,525.24,603.35,526.93,604.22,531Zm-6.77-25.06c-9.48.48-9.92-8.54-12.64-16.1-1.88,8.29,1.25,16,7,19,4.63,2.4,9.9,1.4,13.65-2.59,4.1-4.36,5.51-12,2.84-16.15C606.38,496.64,606.51,505.45,597.45,505.91Zm-52.08-21.22c6-3.12,9.14,2.67,13.78,5.29,1.67-8.06,3.43-15.82,4.85-23.65.63-3.44,1.69-4.37,5.51-3.81,25.49,3.77,51,5.28,76.33-1.36,7-1.82,13.42-4.86,20-7.63a15.3,15.3,0,0,0,3,6.61,172.58,172.58,0,0,1,6.47,19.33c6.62,26,6.92,52.31,4.49,78.8-4,.68-8,.05-11.94,0L573,558.1l-1,.08q-20.67.17-41.34.32c-1.81,0-3.63-.14-5.44-.21-.09-2.09-.19-4.18-.28-6.27,12.64-14.36,21.53-31,29.74-48.62-5.31-.31-10.75.94-12.64-5.28C540.72,493.94,542.47,486.18,545.37,484.69Z" style="fill:#fbd9ba"/><path d="M521.73,548.75c.37,1.32-.55,4.82,3.16,3.27.09,2.09.19,4.18.28,6.27-3.22.05-5.38,1.88-7.61,4-17.73,17-37.82,21-58.63,11.82,1.76-7.41,2.17-15,4.06-22.47,6.46-25.34,18.18-47.65,36.92-66.08,2.8-2.75,4.67-6.6,9-7.56C511.29,501.94,515.22,525.58,521.73,548.75Z" style="fill:#ffd34e"/><path d="M524.89,552c-3.71,1.55-2.79-1.95-3.16-3.27-6.51-23.17-10.44-46.81-12.85-70.73-.68-14-1.26-28,2.11-41.75a53.37,53.37,0,0,1,2.79-8.52c4.94-11.41,12-15.61,24.33-14.9,2,.11,4.27,1.28,5.39-1.85,6.94-19.37,22.44-27.52,41.27-31.15,21.86-4.21,42.4-.92,61.39,11,4.37,2.74,8.82,5.38,13.31,7.92,9.08,5.13,17.92,4.46,26.21-1.7,4.34-3.23,8.36-6.88,13.18-10.89,1.53,24.7-4.91,45.35-24.13,60.95-2.83,2.3-5.92,4.28-8.9,6.4-6.57,2.77-13,5.81-20,7.63-25.35,6.64-50.84,5.13-76.33,1.36-3.82-.56-4.88.37-5.51,3.81-1.42,7.83-3.18,15.59-4.85,23.65-4.64-2.62-7.73-8.41-13.78-5.29-2.9,1.49-4.65,9.25-3.38,13.43,1.89,6.22,7.33,5,12.64,5.28C546.42,521.06,537.53,537.66,524.89,552Z" style="fill:#424242"/><path d="M510,431.05c-3.58,3.51-6.31,5.73-10.09,6.08A14.53,14.53,0,0,1,510,431.05Z" style="fill:#ffd34e"/><path d="M492.29,443.15a24.66,24.66,0,0,1-9.46,7.9C484.59,447.45,487.21,444.9,492.29,443.15Z" style="fill:#ffd34e"/><path d="M472.77,399.19c4.27-1,8.21-1.37,7.47-6.91a1.86,1.86,0,0,1,1-1.47c1.08-.31,1.57.73,1.47,1.47-.72,5.54,3.2,6,7,6.15.15,1.3-.62,1.51-1.21,1.47-3.84-.26-6.09,1.05-5.7,5.33.07.79-.13,1.79-1.11,2s-1.56-.75-1.48-1.5C480.81,400.35,477.43,399.39,472.77,399.19Z" style="fill:#ffd34e"/><path d="M474.73,712.14c3.79,1.14,6,4.11,8,7.3C479,718.32,476.92,715.16,474.73,712.14Z" style="fill:#ffd34e"/><path d="M459,595.9c17,3.57,33.43,2.17,49.19-5.3,4.46-2.12,8.72-4.64,13.53-7.22.75,11.18,1.35,21.9,2.23,32.61,1.72,21.06,3.48,42.12,5.52,63.16.33,3.47,0,5.12-3.72,5.89-6.74,1.42-12.62,5-18.65,8.21-.29-2-1.57-3.22-3-4.46-19.25-17.19-31.85-38.49-39.19-63.09C462,615.94,460.74,605.88,459,595.9Z" style="fill:#ffd34e"/><path d="M474.72,458.21c-1.27,3.83-4.16,5.47-5.86,8a1.22,1.22,0,0,1-1.78.19,1.12,1.12,0,0,1,.07-1.75C469.3,462.47,471,459.75,474.72,458.21Z" style="fill:#ffd34e"/><path d="M460.58,696.09a13.85,13.85,0,0,1,6.8,7.91A12.45,12.45,0,0,1,460.58,696.09Z" style="fill:#ffd34e"/><path d="M451.27,743c1.52,4.61,2,9.64,8.75,8.69-5.09.87-8.54,2.56-7.76,8.43-1.95-6.21-1.95-6.21-9.52-8.34C447.85,751.28,453.13,750.88,451.27,743Z" style="fill:#ffd34e"/><path d="M460,474.67c-.44,4-2.82,6.55-6,8.48C454.65,479.31,457.11,476.85,460,474.67Z" style="fill:#ffd34e"/><path d="M447.86,677.88a13.61,13.61,0,0,1,6.17,9.34C450.71,684.85,448.33,681.25,447.86,677.88Z" style="fill:#ffd34e"/><path d="M448.07,492c-.14,4.14-2.68,7.05-5.3,9.94A14.87,14.87,0,0,1,448.07,492Z" style="fill:#ffd34e"/><path d="M438.1,658.79a15,15,0,0,1,4.8,10.38A14.81,14.81,0,0,1,438.1,658.79Z" style="fill:#ffd34e"/><path d="M438.22,510.48c.07,5.33-2.22,8.36-4.23,11.49C433.54,517.86,435.31,514.65,438.22,510.48Z" style="fill:#ffd34e"/><path d="M430.26,638.68c2.91,2.85,3.78,6.47,4.43,11.4C431,646.37,430.3,642.66,430.26,638.68Z" style="fill:#ffd34e"/><path d="M430.3,530.8c.69,5.14-.94,8.41-2.81,11.61C426.73,538.52,427.84,535.14,430.3,530.8Z" style="fill:#ffd34e"/><path d="M425.17,617.87c2.39,3.16,2.65,6.78,2.67,10.47C424.82,625.4,424.82,621.66,425.17,617.87Z" style="fill:#ffd34e"/><path d="M422.2,605.7c-.16-2.85-.65-5.73,1.39-8.51.31,2.71.64,5.42.92,8.13.08.8.2,1.78-.88,1.95S422.24,606.46,422.2,605.7Z" style="fill:#ffd34e"/><path d="M423.94,577.26c-.05,5-.05,5-1.84,8.09-2-3.49-.64-7.08-1.09-10.44A5.38,5.38,0,0,1,423.94,577.26Z" style="fill:#ffd34e"/><path d="M418.88,543.92h0c-1.08,1.16-2.17,2.31-3.29,3.45Q417.27,545.66,418.88,543.92Z" style="fill:#f1eeed"/><path d="M417.1,537.88c-.61,1.86-2.35,3.31-2.07,5.5-2.31,4.71-6.61,7.23-10.84,9.84a14.17,14.17,0,0,0-11.18-5.3c-3.42-.1-6.32-2-8.74-4.37-2.07-2-3.71-4.2-.11-6.39.41-.25,1.07-.73,1-1-.8-3.88.35-5.36,4.5-6.76,2.35-.79,3.45-4.18,6.29-.69,1,1.19,1.69,0,2.37-.67a19.49,19.49,0,0,1,2.51-2.39c1.56-1,3.35-2,4.93-.16a2.3,2.3,0,0,1,.7,1.53c0,1-.92,1.84-1.77,2.65-2.73,2.57-2.8,5.34.12,7.62a4.52,4.52,0,0,0,6.36-.5c1.89-2.07,2.18-4.45-.2-6.58-1.1-1-2.56-2-2.56-3.28a2.66,2.66,0,0,1,1.05-1.91c2.13-2,4.13,0,5.67,1.35C418.78,529.62,418.49,533.68,417.1,537.88Z" style="fill:#f4dabc"/><path d="M404.19,553.22c4.23-2.61,8.53-5.13,10.84-9.84,1.29.17,2.68-.49,3.85.54q-1.62,1.74-3.28,3.45A133.21,133.21,0,0,1,405.1,557C404.11,555.92,403.41,554.74,404.19,553.22Z" style="fill:#f1eeed"/><path d="M402.87,442c-3.27,1.26-5.43,1.22-7.63-.12C397.35,440.92,399.51,440.63,402.87,442Z" style="fill:#ffd34e"/><path d="M398.1,429.93c-.87,2.63-2.53,4.45-5.71,6A8.37,8.37,0,0,1,398.1,429.93Z" style="fill:#ffd34e"/><path d="M385,451.23c1.4,2.11,1.08,4.31.66,7.58C383.32,455.67,384.21,453.45,385,451.23Z" style="fill:#ffd34e"/><path d="M374.3,429.18c3.3,1.45,5.11,3.11,6.37,6.55C377.4,434.26,375.58,432.6,374.3,429.18Z" style="fill:#ffd34e"/><path d="M370.17,441.19c1.9-1.58,3.79-1.2,6.77-.6C374,442.55,372.08,441.84,370.17,441.19Z" style="fill:#ffd34e"/><path d="M362.94,696.58c2.51,0,3.88,1.56,4,4.18-.32,2.39-1.51,4.12-4.12,4s-3.75-1.93-3.67-4.42A3.58,3.58,0,0,1,362.94,696.58Z" style="fill:#ffd34e"/><path d="M363.4,706.8c-3.72,0-6.28-1.93-6.4-6.06-.1-3.8,1.89-6.3,5.53-6.25,3.46.06,6.44,1.73,6.47,6.36C368.82,704.13,367.19,706.78,363.4,706.8Zm-4.29-6.5c-.08,2.49,1.11,4.26,3.67,4.42s3.8-1.57,4.12-4c-.08-2.62-1.45-4.18-4-4.18A3.58,3.58,0,0,0,359.11,700.3Z" style="fill:#ffd34e"/><path d="M362,836.17h41.42c18.07,0,26.39,8.57,26.39,20,0,9.28-5.95,14.57-12,16.66,7.4,2.2,14.95,7.77,14.95,18.36,0,15-11.77,23.13-29.63,23.13H362Zm37.85,31.11c9.37,0,13-3.57,13-9.22,0-6.88-5.36-9.37-12.72-9.37H378.17v18.59Zm-21.68,34.56h22.52c7.91,0,14.77-2.36,14.77-11.18,0-7.24-5.25-10.94-14.87-10.94H378.17Z" style="fill:#ffd34e"/><path d="M453.64,894.64l-7.87,19.64H428.84L461,836.17h20.78l33.67,78.11H497.68l-8.31-19.64Zm31-13.33c-8-19.08-11.85-28.55-13.69-34.3h-.11c-1.71,5.6-6.24,18-12.75,34.3Z" style="fill:#ffd34e"/><path d="M515.4,914.28V836.17h19.47c20.53,30.58,34.55,49.18,39.3,58.06h.22c-.74-8.83-.63-22.71-.63-35.51V836.17h15.1v78.11H570.57c-8.73-12.91-35.53-52.79-40.49-61.77h-.22c.63,9.77.63,20.86.63,34.72v27Z" style="fill:#ffd34e"/><path d="M599,836.17h16.4v35.55c11.49-10.33,25-22.1,39.83-35.55h20.33l-37.65,33.58,39.81,44.53H657.12l-31-35.57-10.66,8.76v26.81H599Z" style="fill:#ffd34e"/><path d="M702.09,836.42v78.11H685.68V836.42Z" style="fill:#ffd34e"/><path d="M712.22,914.53V836.42h19.47C752.22,867,766.25,885.6,771,894.48h.23c-.75-8.83-.64-22.71-.64-35.51V836.42h15.1v78.11H767.4c-8.73-12.91-35.54-52.8-40.49-61.78h-.22c.63,9.78.63,20.87.63,34.73v27Z" style="fill:#ffd34e"/><path d="M795.84,836.42h41.42c18.07,0,26.39,8.57,26.39,20,0,9.28-5.95,14.56-12,16.65,7.39,2.21,14.94,7.78,14.94,18.37,0,15-11.76,23.13-29.62,23.13H795.84Zm37.85,31.1c9.37,0,13-3.57,13-9.21,0-6.89-5.36-9.37-12.72-9.37H812v18.58ZM812,902.09h22.52c7.91,0,14.77-2.36,14.77-11.18,0-7.24-5.25-10.95-14.87-10.95H812Z"/><path d="M932.19,880.47H887.55v20.76h49.51l-2,13.3h-64V836.42h63.43v13.29h-47v17.47h44.64Z"/><path d="M951,891.34c2.43,7.52,8.25,12.59,22,12.59,13.17,0,17.45-4.43,17.45-10.18,0-6.13-3.83-9.71-21.47-12.69-25.94-4.42-31.09-12.77-31.09-23.29,0-15,14.38-22.93,32.38-22.93,26.35,0,33.21,13.62,34.09,22.32H987.83c-1.26-4.34-4.09-10.12-18.12-10.12-9.74,0-15.18,3.19-15.18,9.13,0,5.12,3.21,8,18.86,10.7,29.2,5.15,33.81,14,33.81,25.2,0,13.19-10.39,24-35.72,24-23.6,0-34.61-10.6-37-24.77Z"/><path d="M1030.41,849.67h-28.23V836.42H1075v13.25h-28.15v64.86h-16.44Z"/></g></g></svg>