<svg xmlns="http://www.w3.org/2000/svg" viewBox="0 0 351.91 64.49"><title>nombre1png</title><g id="e26eb1fe-8dde-493c-be21-8c5f619702f9" data-name="Layer 2"><g id="a3f13507-68fa-4a49-a2bc-3149eb254c9d" data-name="Layer 1"><path d="M0,0H34.2C49.12,0,56,7.08,56,16.48A14.07,14.07,0,0,1,46.1,30.23c6.11,1.82,12.34,6.42,12.34,15.17,0,12.36-9.71,19.09-24.46,19.09H0ZM31.25,25.68C39,25.68,42,22.74,42,18.07c0-5.68-4.42-7.73-10.5-7.73H13.35V25.68ZM13.35,54.22H32c6.53,0,12.2-1.94,12.2-9.22,0-6-4.34-9-12.28-9H13.35Z" style="fill:#ffd34e"/><path d="M75.66,48.28,69.17,64.49h-14L81.74,0H98.9l27.8,64.49H112l-6.86-16.21Zm25.59-11C94.64,21.52,91.47,13.7,89.94,9h-.09c-1.41,4.63-5.15,14.83-10.52,28.32Z" style="fill:#ffd34e"/><path d="M126.66,64.49V0h16.08c16.95,25.25,28.53,40.61,32.45,47.94h.18c-.61-7.29-.52-18.75-.52-29.32V0h12.47V64.49h-15.1c-7.21-10.66-29.34-43.59-33.43-51h-.18c.52,8.07.52,17.23.52,28.67V64.49Z" style="fill:#ffd34e"/><path d="M195.7,0h13.55V29.35C218.73,20.82,229.87,11.1,242.13,0h16.79L227.83,27.72,260.7,64.49h-17L218,35.12l-8.79,7.24V64.49H195.7Z" style="fill:#ffd34e"/><path d="M282.89,0V64.49H269.34V0Z" style="fill:#ffd34e"/><path d="M291.25,64.49V0h16.08c16.95,25.25,28.53,40.61,32.45,47.94H340c-.62-7.29-.53-18.75-.53-29.32V0h12.47V64.49h-15.1c-7.2-10.66-29.34-43.59-33.43-51h-.18c.52,8.07.52,17.23.52,28.67V64.49Z" style="fill:#ffd34e"/></g></g></svg>