<svg xmlns="http://www.w3.org/2000/svg" viewBox="0 0 230.51 67.11"><title>nombre2</title><g id="a01c9a62-4018-4fc4-bcfa-c6dcfe56210d" data-name="Layer 2"><g id="b5af0153-a7ad-4bfc-a526-f85b159e850d" data-name="Layer 1"><path d="M0,1.31H34.2C49.12,1.31,56,8.39,56,17.79c0,7.66-4.91,12-9.89,13.75C52.21,33.36,58.44,38,58.44,46.71,58.44,59.07,48.73,65.8,34,65.8H0ZM31.25,27C39,27,42,24,42,19.38c0-5.68-4.42-7.74-10.5-7.74H13.35V27ZM13.35,55.53H32c6.53,0,12.2-2,12.2-9.23,0-6-4.34-9-12.28-9H13.35Z"/><path d="M112.59,37.68H75.73V54.82h40.88L115,65.8H62.19V1.31h52.37v11H75.73V26.7h36.86Z"/><path d="M128.08,46.66c2,6.2,6.81,10.39,18.15,10.39,10.88,0,14.41-3.66,14.41-8.41,0-5-3.16-8-17.72-10.48-21.42-3.65-25.68-10.54-25.68-19.23C117.24,6.55,129.12,0,144,0c21.76,0,27.42,11.25,28.15,18.43h-13.6c-1-3.58-3.38-8.35-15-8.35-8,0-12.54,2.63-12.54,7.54,0,4.22,2.65,6.57,15.58,8.83,24.1,4.25,27.91,11.6,27.91,20.81,0,10.89-8.58,19.85-29.49,19.85-19.49,0-28.58-8.75-30.58-20.45Z"/><path d="M193.69,12.24H170.38V1.31h60.13V12.24H207.26V65.8H193.69Z"/></g></g></svg>