<svg xmlns="http://www.w3.org/2000/svg" viewBox="0 0 500.57 498.93"><title>richieicon</title><g id="e93eff14-254f-41d1-aa5a-c7d780b83403" data-name="Layer 2"><g id="fe720e09-5187-4929-b31e-3203bfeaeadd" data-name="Layer 1"><path d="M493.11,231c-.84,6.84,1.56,9.55,7.71,9.34-5.24.26-8.31,2.1-8.6,7.37-.22-6-4-7.09-9.18-6.75,2.19-2.28,4.78-.9,6.7-2C492.3,237.54,490.39,234.54,493.11,231Z" transform="translate(-0.25 -0.25)" style="fill:#ffd34e"/><path d="M492.22,247.71c0,.46,0,.95,0,1.47A14.18,14.18,0,0,1,492.22,247.71Z" transform="translate(-0.25 -0.25)" style="fill:#ffd34e"/><path d="M441.82,227.47c-4.27-2.69-8.81-5.08-10.76-10.21-1.16-3.58-3.45-6.77-3-10.89a8.38,8.38,0,0,1,4.35-6.8c1.56-.91,3.19-1.31,4.5.29a2.56,2.56,0,0,1,.68,1.6c0,1-.85,1.81-1.85,2.5-1.81,1.24-2.89,2.74-2.2,5a4.35,4.35,0,0,0,3.75,3.5c2.1.28,4.08,0,5.23-2s1.26-4.15-.73-5.85c-1.1-.94-2.4-2-2.4-3.19a2.44,2.44,0,0,1,.8-1.67c2.22-2.31,4.34-.29,6,1.25s3.13,4.36,5.34.51a1.15,1.15,0,0,1,.89-.37,10.3,10.3,0,0,1,1.79.38c-.94,5.36,8.38,1.1,6.64,7.08-.35,1.23-.35,2.15,1,2.93,3.95,2.36,2,4.58-.39,6.55s-5.14,4-8.36,4.15C448.52,222.47,444.76,224,441.82,227.47Z" transform="translate(-0.25 -0.25)" style="fill:#f4dabc"/><path d="M443,150.19c-2.76-.6-3.87-2.26-3.63-4.73.22-2.24,1.46-3.83,3.88-3.59s4,1.66,3.85,4.3S445.06,149.7,443,150.19Z" transform="translate(-0.25 -0.25)" style="fill:#ffd34e"/><path d="M438.23,438.35c-2.65-.08-3.92-1.65-3.73-4.14a3.53,3.53,0,0,1,3.92-3.54c2.6.12,3.57,1.94,3.78,4C442,437.43,440.54,438.43,438.23,438.35Z" transform="translate(-0.25 -0.25)" style="fill:#ffd34e"/><path d="M439.38,145.46c-.24,2.47.87,4.13,3.63,4.73,2.05-.49,4-1.34,4.1-4s-1.45-4.06-3.85-4.3S439.6,143.22,439.38,145.46Zm-2.11,1.64c-.1-5.43,2.64-7.2,6.24-7.23s5.75,2.24,5.7,6-2,6.35-6,6.37S437.43,149.75,437.27,147.1Z" transform="translate(-0.25 -0.25)" style="fill:#ffd34e"/><path d="M432.31,434.11c.19-3.33,2.9-5.75,6.73-5.62,3.67.31,5.3,2.74,5.22,6.63s-2.49,5.63-6.05,5.73C435.07,440.93,432.12,437.34,432.31,434.11Zm2.19.1c-.19,2.49,1.08,4.06,3.73,4.14,2.31.08,3.76-.92,4-3.69-.21-2.05-1.18-3.87-3.78-4A3.53,3.53,0,0,0,434.5,434.21Z" transform="translate(-0.25 -0.25)" style="fill:#ffd34e"/><path d="M431.06,217.26c1.95,5.13,6.49,7.52,10.76,10.21a6.12,6.12,0,0,1-.69,4,111.74,111.74,0,0,1-13.89-13C428.31,217.45,429.75,217.57,431.06,217.26Z" transform="translate(-0.25 -0.25)" style="fill:#f1eeed"/><path d="M424.33,259.75a18.53,18.53,0,0,1-.1,11.7A17.94,17.94,0,0,1,424.33,259.75Z" transform="translate(-0.25 -0.25)" style="fill:#ffd34e"/><path d="M423.4,281.61c.74,3.63-.15,7-1.45,10.23A11.35,11.35,0,0,1,423.4,281.61Z" transform="translate(-0.25 -0.25)" style="fill:#ffd34e"/><path d="M422.76,221.54l-1.49,1.9c-3-1.52-2.07-4.41-2.94-7.6C421.33,217.34,420.65,220.53,422.76,221.54Z" transform="translate(-0.25 -0.25)" style="fill:#ffd34e"/><path d="M419.59,302.05c.7,4.23-1.16,7.42-2,11.37C415.72,310.37,416.49,306.64,419.59,302.05Z" transform="translate(-0.25 -0.25)" style="fill:#ffd34e"/><path d="M413,196.39c2.18,2.64,3.63,5.53,3.28,9.05C413.76,202.88,413.09,199.74,413,196.39Z" transform="translate(-0.25 -0.25)" style="fill:#ffd34e"/><path d="M413.52,322a15.61,15.61,0,0,1-5.13,11.57C409.13,329.74,410,326,413.52,322Z" transform="translate(-0.25 -0.25)" style="fill:#ffd34e"/><path d="M404.17,176.29a12.82,12.82,0,0,1,4.3,9.13A11.54,11.54,0,0,1,404.17,176.29Z" transform="translate(-0.25 -0.25)" style="fill:#ffd34e"/><path d="M404.11,343a14.44,14.44,0,0,1-5.71,9.75C399.48,349.07,400.6,345.36,404.11,343Z" transform="translate(-0.25 -0.25)" style="fill:#ffd34e"/><path d="M392.23,157.32c3.74,1.87,5.11,5.38,6.33,9C395.11,164.31,393.63,160.87,392.23,157.32Z" transform="translate(-0.25 -0.25)" style="fill:#ffd34e"/><path d="M386,370.38a1.92,1.92,0,0,1,0-1.76C388,366.05,390,363.56,392,361c.57,4.35-2.4,6.48-4.32,9.2A1,1,0,0,1,386,370.38Z" transform="translate(-0.25 -0.25)" style="fill:#ffd34e"/><path d="M387.15,244.85a29,29,0,0,1,.09,3.49c-19.69,9.49-40.78,5.47-58.42-11.12-1.78-1.68-3.23-3.82-5.79-4.53,2.43-26.49,2.13-52.82-4.49-78.8a172.58,172.58,0,0,0-6.47-19.33c9,2.33,15.8,8.56,22.69,14.15C365.35,173.51,382,206.07,387.15,244.85Z" transform="translate(-0.25 -0.25)" style="fill:#ffd34e"/><path d="M379,140.4c3.85,1.48,5.64,4.78,7.37,8.13C382.6,147.06,380.36,144.14,379,140.4Z" transform="translate(-0.25 -0.25)" style="fill:#ffd34e"/><path d="M377.12,379.24c.6-.7,1.45-1.71,2.47-.72.7.68.18,1.61-.4,2.2-2.12,2.21-3.94,4.8-7.63,5.34C373.41,383.78,375.21,381.46,377.12,379.24Z" transform="translate(-0.25 -0.25)" style="fill:#ffd34e"/><path d="M324.79,258.08c7.09,3.81,13.11,7.25,19.64,9.66,14,5.17,28.28,5.55,42.76,2.45-.41,14.47-4,28.3-9.35,41.61-7.37,18.37-17.44,35.1-32.16,48.69-1.21,1.12-2.52,2.15-3.79,3.22-5.86-1.87-11.69-4-17.8-4.78-3.26-.43-4-1.78-3.72-4.89,2.86-27.18,3.75-54.48,4.4-81.79C324.88,267.82,324.79,263.39,324.79,258.08Z" transform="translate(-0.25 -0.25)" style="fill:#ffd34e"/><path d="M364.09,125.32c3.44,1.38,5.82,3.84,8.44,7.87C367.82,131.42,365.8,128.53,364.09,125.32Z" transform="translate(-0.25 -0.25)" style="fill:#ffd34e"/><path d="M347.22,112.1c4,.76,5.91,2.12,8.54,6C352.82,117.83,349.43,115.45,347.22,112.1Z" transform="translate(-0.25 -0.25)" style="fill:#ffd34e"/><path d="M345.46,484.37a7.69,7.69,0,0,1,7.4.06C349.86,485.75,347.67,485.63,345.46,484.37Z" transform="translate(-0.25 -0.25)" style="fill:#ffd34e"/><path d="M345.31,405.72l2.91-.44c-.76,5.81-6.31,6-9.93,8.43C339.05,409.61,344,409.23,345.31,405.72Z" transform="translate(-0.25 -0.25)" style="fill:#ffd34e"/><path d="M348.08,472c-.54,3.43-2.54,4.64-4.85,5.62C343.62,475,345.38,473.56,348.08,472Z" transform="translate(-0.25 -0.25)" style="fill:#ffd34e"/><path d="M336.42,466.78a10.16,10.16,0,0,1,.3,7.51C335,471.49,335,471.49,336.42,466.78Z" transform="translate(-0.25 -0.25)" style="fill:#ffd34e"/><path d="M335.14,493.6c1.46,1.85,1.07,3.72.29,5.58C333.83,497.33,334.3,495.46,335.14,493.6Z" transform="translate(-0.25 -0.25)" style="fill:#ffd34e"/><path d="M324.88,471.68a12,12,0,0,1,5.89,5.54C327.07,476.5,325.57,474.5,324.88,471.68Z" transform="translate(-0.25 -0.25)" style="fill:#ffd34e"/><path d="M329.91,488.73c-1.26,3.36-3.09,5-5.82,5.71A9.29,9.29,0,0,1,329.91,488.73Z" transform="translate(-0.25 -0.25)" style="fill:#ffd34e"/><path d="M328.38,417.81c-1.74,3.48-5.71,5.61-10.72,5.75C320.91,420.55,324.48,419.25,328.38,417.81Z" transform="translate(-0.25 -0.25)" style="fill:#ffd34e"/><path d="M327.05,483.31c-2.9,1.34-4.76,1.47-7.31-.06C322.28,482.12,324.13,482.16,327.05,483.31Z" transform="translate(-0.25 -0.25)" style="fill:#ffd34e"/><path d="M318,44.47c2.93.43,4.24,2.61,5.49,4.88C320.48,49.06,319.26,46.72,318,44.47Z" transform="translate(-0.25 -0.25)" style="fill:#ffd34e"/><path d="M312,20.72c1.67,3,1.49,5.23.31,8.35C310.86,26.06,311.1,23.86,312,20.72Z" transform="translate(-0.25 -0.25)" style="fill:#ffd34e"/><path d="M310.63,373.46c4.57.79,9.06,2.08,13.59,3.13-1.25,2.72-3.86,3.89-6.14,5.47-5.94,4.12-13.05,6.12-18.85,10.47-15.15-1.9-29.82-6-44.57-9.74-6-1.53-6-1.6-6.49,4.75q-.54,7.43-1.09,14.86c-25.65.05-49.83-5.71-72.22-18.42a33.93,33.93,0,0,1-3.92-3c15.58-6.37,32.07-8.75,48.63-10.22C250,368.05,280.41,368.24,310.63,373.46Z" transform="translate(-0.25 -0.25)" style="fill:#ffd34e"/><path d="M311.29,46.67a7.64,7.64,0,0,1-.07,7.4C309.91,51.06,310,48.87,311.29,46.67Z" transform="translate(-0.25 -0.25)" style="fill:#ffd34e"/><path d="M309.18,427.39c-3.11,2.67-6.91,3.66-11,3.87C301.26,428.44,305.07,427.52,309.18,427.39Z" transform="translate(-0.25 -0.25)" style="fill:#ffd34e"/><path d="M305.94,42.62a10.57,10.57,0,0,1-6.47,6.55A10.66,10.66,0,0,1,305.94,42.62Z" transform="translate(-0.25 -0.25)" style="fill:#ffd34e"/><path d="M299.44,38.26c-1.24,0-3.17.44-3.36-1.2-.23-2,1.92-1.1,2.71-1.63,1.51.25,3.45-.35,3.63,1.3C302.62,38.63,300.63,38.23,299.44,38.26Z" transform="translate(-0.25 -0.25)" style="fill:#ffd34e"/><path d="M292.07,198.55c3.27,0,4.35,1.6,3.92,4.79-1.5,11.16-11.82,20.47-23.43,21s-22.77-8.07-25.09-18.93c-.87-4,.42-5.73,4.69-6.06a189.3,189.3,0,0,1,23.93-.78Z" transform="translate(-0.25 -0.25)" style="fill:#e87f85"/><path d="M309.45,161.55c2.18,7.73-.08,15.15-5.34,18.76a10.89,10.89,0,0,1-13-.14c-5-3.52-7.54-11.21-5.42-18.07,2.38,7.2,2.85,15.68,11.36,16.12C307.52,178.75,306.82,168.7,309.45,161.55Z" transform="translate(-0.25 -0.25)" style="fill:#595046"/><path d="M277.21,436.36c3-2.38,6.25-3.18,11.1-2.23A18.31,18.31,0,0,1,277.21,436.36Z" transform="translate(-0.25 -0.25)" style="fill:#ffd34e"/><path d="M297.37,274.77c.28,8.65.52,8.83-7.76,11.53s-16,6.44-24.53,8.13c3.36-5.72,8.51-10.18,11.37-16.24q15.42-20.31,30.86-40.64c1.09-1.43,2.31-2.77,3.47-4.15.15,7.79.26,15.59.48,23.38.07,2.61-1.39,3.23-3.59,3.81-3.64,1-8.5-.07-10.69,3S297.24,271,297.37,274.77Z" transform="translate(-0.25 -0.25)" style="fill:#807f7f"/><path d="M266.53,437.81c0,.37-.38,1-.67,1.09-3.18.59-6.39,1.22-10.74-.94,4.21-.46,7.09-.79,10-1.07C265.75,436.83,266.49,437,266.53,437.81Z" transform="translate(-0.25 -0.25)" style="fill:#ffd34e"/><path d="M264,301.06c2.5-.07,4,1.45,4.22,3.93-.24,2.84-1.7,4.38-4.49,4.38a3.65,3.65,0,0,1-3.91-3.72A4,4,0,0,1,264,301.06Z" transform="translate(-0.25 -0.25)" style="fill:#807f7f"/><path d="M268,323.33c.07,2.57-1.65,3.77-3.7,4.13-2.85-.09-4.61-1.26-4.75-3.78-.16-2.78,1.54-4.32,4.29-4.32A3.8,3.8,0,0,1,268,323.33Z" transform="translate(-0.25 -0.25)" style="fill:#807f7f"/><path d="M262.94,237.81c4.58.81,10.09-1.32,12.93,4.88,1.15,2.5,1.68,4.24-.5,6.05-3.59,3-3.59,6.67-2.61,10.86,1.43,6.15,2.48,12.39,3.69,18.59-2.86,6.06-8,10.52-11.37,16.24l-2.87,0-1-1c-2.15-4.83-6.39-8.22-8.89-12.82,3.61-8.43,4.84-17.53,7.33-26.28.68-2.41-1.4-3.64-2.68-5-1.83-2-1.85-3.75-.36-5.73C258.37,241.28,258.38,237,262.94,237.81Z" transform="translate(-0.25 -0.25)" style="fill:#b05a35"/><path d="M216.24,232.52l94.85.17a1.42,1.42,0,0,1-.31.71c-1.16,1.38-2.38,2.72-3.47,4.15q-15.45,20.31-30.86,40.64c-1.21-6.2-2.26-12.44-3.69-18.59-1-4.19-1-7.86,2.61-10.86,2.18-1.81,1.65-3.55.5-6.05-2.84-6.2-8.35-4.07-12.93-4.88s-4.57,3.47-6.31,5.79c-1.49,2-1.47,3.78.36,5.73,1.28,1.36,3.36,2.59,2.68,5-2.49,8.75-3.72,17.85-7.33,26.28-2.47-3.32-5-6.63-7.42-10C235.46,257.87,225.2,245.68,216.24,232.52Z" transform="translate(-0.25 -0.25)" style="fill:#f1eeed"/><path d="M263.74,309.37c2.79,0,4.25-1.54,4.49-4.38-.26-2.48-1.72-4-4.22-3.93a4,4,0,0,0-4.18,4.59A3.65,3.65,0,0,0,263.74,309.37Zm.52,18.09c2.05-.36,3.77-1.56,3.7-4.13a3.8,3.8,0,0,0-4.16-4c-2.75,0-4.45,1.54-4.29,4.32C259.65,326.2,261.41,327.37,264.26,327.46Zm46.83-94.77c4,.05,8,.68,11.94,0,2.56.71,4,2.85,5.79,4.53,17.64,16.59,38.73,20.61,58.42,11.12,13.5-5.35,24.32-14.37,34-24.9l1.49-1.9c1.67-.76,2.15-3.26,4.48-3.06a111.74,111.74,0,0,0,13.89,13c-.29,2-1.81,3.1-3,4.44-14.14,15.62-30.46,28-50.92,34.26-14.48,3.1-28.72,2.72-42.76-2.45-6.53-2.41-12.55-5.85-19.64-9.66,0,5.31.09,9.74,0,14.17-.65,27.31-1.54,54.61-4.4,81.79-.32,3.11.46,4.46,3.72,4.89,6.11.8,11.94,2.91,17.8,4.78,4.81,2.55,9.72,4.88,13.86,8.6,11.27,10.11,10.23,28.4-6.29,32.21a4.51,4.51,0,0,0-1.24.76l-2.91.44c-21.52,2.39-42.32-2-63.08-6.73-1.29-.3-2.61-.45-3.91-.66l-18.6-5.5c1.3,2.37,1.93,3.5,2.54,4.65s1.37,2.61,2.05,3.91c2,8.16,0,15-6.61,20.37-4.24,3.41-7.17,2.53-8.87-2.67-1.78-5.43-1.42-11.1-1.75-16.69q.54-7.44,1.09-14.86c.46-6.35.44-6.28,6.49-4.75,14.75,3.71,29.42,7.84,44.57,9.74,1.9,1.26,4.18,1.09,6.27,1.4,10.53,1.54,21.05,3.6,31.76,1.7,2.84-.5,5.81-1.23,6.61-4.47s-1.39-5.7-3.8-7.57c-4.68-3.64-10.17-5.56-15.85-7-4.53-1-9-2.34-13.59-3.13-30.22-5.22-60.64-5.41-91.06-2.7-16.56,1.47-33,3.85-48.63,10.22-6.54,2.24-12.56,5.36-17.38,10.42-7.26,7.63-6.41,16.13,2.46,21.86,10.85,7,23.3,9.61,35.7,12.1a392,392,0,0,0,55,6.57c3.8.21,5.16,1.65,5.51,5.27.89,9.12,1.87,18.22,1.16,27.39a24.7,24.7,0,0,1-.54,4c-1.52,6.1-4.23,6.95-9.13,2.93-7.94-6.52-10-15.29-5.26-25.09,2-4.1.81-4.63-3-4.78-24.16-1-48.11-3.51-71.46-10.15a83.74,83.74,0,0,1-15.35-5.9c-15.85-8.07-21.16-23.63-13.73-39.87,3.44-7.51,9.34-12.82,15.43-18,6-3.17,11.91-6.79,18.65-8.21,3.68-.77,4.05-2.42,3.72-5.89-2-21-3.8-42.1-5.52-63.16-.88-10.71-1.48-21.43-2.23-32.61-4.81,2.58-9.07,5.1-13.53,7.22-15.76,7.47-32.22,8.87-49.19,5.3-12.85-4-24.34-10.58-35-18.64a5.38,5.38,0,0,0-2.93-2.35c-4.37-4.47-8.78-8.9-13.11-13.41-1.22-1.27-2.83-2.39-2.8-4.48a133.21,133.21,0,0,0,10.5-9.65c1.12-1.14,2.21-2.29,3.29-3.45,2.1.25,2.86,2.11,4.06,3.41,10.35,11.14,21.66,21,36,26.8,20.81,9.22,40.9,5.22,58.63-11.82,2.23-2.14,4.39-4,7.61-4,1.81.07,3.63.22,5.44.21q20.67-.13,41.34-.32c.31,6.32,1.06,12.66.8,19-.21,5.18,1.43,7.66,6.5,9.27,9.18,2.91,9,3.28,8.77,12.88-.05,2.23-1.08,5,1.61,6.33,9.42,4.56,18.34,10.17,28.37,13.43,0,0,0,0,0,0l1,1,2.87,0c8.52-1.69,16.34-5.46,24.53-8.13s8-2.88,7.76-11.53c-.13-3.79-2.55-8.1-.39-11.16s7-2.07,10.69-3c2.2-.58,3.66-1.2,3.59-3.81-.22-7.79-.33-15.59-.48-23.38A1.42,1.42,0,0,0,311.09,232.69Z" transform="translate(-0.25 -0.25)" style="fill:#424342"/><path d="M248.7,180.6c-3.75,4-9,5-13.65,2.59-5.74-3-8.87-10.67-7-19,2.72,7.56,3.16,16.58,12.64,16.1,9.06-.46,8.93-9.27,10.84-15.88C254.21,168.6,252.8,176.24,248.7,180.6Z" transform="translate(-0.25 -0.25)" style="fill:#595046"/><path d="M261.25,293.47c-10-3.26-18.95-8.87-28.37-13.43-2.69-1.3-1.66-4.1-1.61-6.33.25-9.6.41-10-8.77-12.88-5.07-1.61-6.71-4.09-6.5-9.27.26-6.3-.49-12.64-.8-19l1-.08c9,13.16,19.22,25.35,28.68,38.13,2.46,3.33,5,6.64,7.42,10,2.5,4.6,6.74,8,8.89,12.82C261.24,293.44,261.24,293.46,261.25,293.47Z" transform="translate(-0.25 -0.25)" style="fill:#807f7f"/><path d="M209.24,2.41l0,0h0Z" transform="translate(-0.25 -0.25)" style="fill:#ffd34e"/><path d="M209.19,6.89c-.13,2.13-1.27,3.41-3.47,3.41s-3.87-1.1-4.2-3.41a3.48,3.48,0,0,1,2.8-4.11,25.75,25.75,0,0,1,4.92-.35C209.23,3.92,209.29,5.41,209.19,6.89Z" transform="translate(-0.25 -0.25)" style="fill:#ffd34e"/><path d="M201,10.56c-2.46-2.42-2.58-5.47-.26-8,2.54-2.75,5.58-3.41,8.46-.18v0a25.75,25.75,0,0,0-4.92.35,3.48,3.48,0,0,0-2.8,4.11c.33,2.31,1.94,3.41,4.2,3.41s3.34-1.28,3.47-3.41c.1-1.48,0-3,.05-4.46h0c3.26,2.79,2.65,6.1.18,8.6S203.57,13.06,201,10.56Z" transform="translate(-0.25 -0.25)" style="fill:#ffd34e"/><path d="M235.05,183.19c4.63,2.4,9.9,1.4,13.65-2.59,4.1-4.36,5.51-12,2.84-16.15-1.91,6.61-1.78,15.42-10.84,15.88-9.48.48-9.92-8.54-12.64-16.1C226.18,172.52,229.31,180.21,235.05,183.19Zm12.42,22.2c2.32,10.86,13.61,19.43,25.09,18.93s21.93-9.82,23.43-21c.43-3.19-.65-4.79-3.92-4.79h-16a189.3,189.3,0,0,0-23.93.78C247.89,199.66,246.6,201.35,247.47,205.39Zm43.63-25.22a10.89,10.89,0,0,0,13,.14c5.26-3.61,7.52-11,5.34-18.76-2.63,7.15-1.93,17.2-12.41,16.67-8.51-.44-9-8.92-11.36-16.12C283.56,169,286.15,176.65,291.1,180.17Zm18-52.22a15.3,15.3,0,0,0,3,6.61,172.58,172.58,0,0,1,6.47,19.33c6.62,26,6.92,52.31,4.49,78.8-4,.68-8,.05-11.94,0l-94.85-.17-1,.08q-20.67.17-41.34.32c-1.81,0-3.63-.14-5.44-.21-.09-2.09-.19-4.18-.28-6.27,12.64-14.36,21.53-31,29.74-48.62-5.31-.31-10.75.94-12.64-5.28-1.27-4.18.48-11.94,3.38-13.43,6-3.12,9.14,2.67,13.78,5.29,1.67-8.06,3.43-15.82,4.85-23.65.63-3.44,1.69-4.37,5.51-3.81,25.49,3.77,51,5.28,76.33-1.36C296.05,133.76,302.51,130.72,309.08,128Z" transform="translate(-0.25 -0.25)" style="fill:#fbd9ba"/><path d="M165,223.17c.37,1.32-.55,4.82,3.16,3.27.09,2.09.19,4.18.28,6.27-3.22,0-5.38,1.88-7.61,4-17.73,17-37.82,21-58.63,11.82,1.76-7.41,2.17-15.05,4.06-22.47,6.46-25.34,18.18-47.65,36.92-66.08,2.8-2.75,4.67-6.6,9-7.56C154.54,176.36,158.47,200,165,223.17Z" transform="translate(-0.25 -0.25)" style="fill:#ffd34e"/><path d="M168.14,226.44c-3.71,1.55-2.79-1.95-3.16-3.27-6.51-23.17-10.44-46.81-12.85-70.73-.68-14-1.26-28,2.11-41.75a53.37,53.37,0,0,1,2.79-8.52c4.94-11.41,12-15.61,24.33-14.9,2,.11,4.27,1.28,5.39-1.85C193.69,66.05,209.19,57.9,228,54.27c21.86-4.21,42.4-.92,61.39,11,4.37,2.74,8.82,5.38,13.31,7.92,9.08,5.13,17.92,4.46,26.21-1.7,4.34-3.23,8.36-6.88,13.18-10.89,1.53,24.7-4.91,45.35-24.13,61-2.83,2.3-5.92,4.28-8.9,6.4-6.57,2.77-13,5.81-20,7.63-25.35,6.64-50.84,5.13-76.33,1.36-3.82-.56-4.88.37-5.51,3.81-1.42,7.83-3.18,15.59-4.85,23.65-4.64-2.62-7.73-8.41-13.78-5.29-2.9,1.49-4.65,9.25-3.38,13.43,1.89,6.22,7.33,5,12.64,5.28C189.67,195.48,180.78,212.08,168.14,226.44Z" transform="translate(-0.25 -0.25)" style="fill:#424242"/><path d="M153.29,105.47c-3.58,3.51-6.31,5.73-10.09,6.08A14.53,14.53,0,0,1,153.29,105.47Z" transform="translate(-0.25 -0.25)" style="fill:#ffd34e"/><path d="M135.54,117.57a24.66,24.66,0,0,1-9.46,7.9C127.84,121.87,130.46,119.32,135.54,117.57Z" transform="translate(-0.25 -0.25)" style="fill:#ffd34e"/><path d="M116,73.61c4.27-1,8.21-1.37,7.47-6.91a1.86,1.86,0,0,1,1-1.47c1.08-.31,1.57.73,1.47,1.47-.72,5.54,3.2,6,7,6.15.15,1.3-.62,1.51-1.21,1.47-3.84-.26-6.09,1.05-5.7,5.33.07.79-.13,1.79-1.11,2s-1.56-.75-1.48-1.5C124.06,74.77,120.68,73.81,116,73.61Z" transform="translate(-0.25 -0.25)" style="fill:#ffd34e"/><path d="M118,386.56c3.79,1.14,6,4.11,8,7.3C122.21,392.74,120.17,389.58,118,386.56Z" transform="translate(-0.25 -0.25)" style="fill:#ffd34e"/><path d="M102.22,270.32c17,3.57,33.43,2.17,49.19-5.3,4.46-2.12,8.72-4.64,13.53-7.22.75,11.18,1.35,21.9,2.23,32.61,1.72,21.06,3.48,42.12,5.52,63.16.33,3.47,0,5.12-3.72,5.89-6.74,1.42-12.62,5-18.65,8.21-.29-1.95-1.57-3.22-3-4.46-19.25-17.19-31.85-38.49-39.19-63.09C105.26,290.36,104,280.3,102.22,270.32Z" transform="translate(-0.25 -0.25)" style="fill:#ffd34e"/><path d="M110.4,139c2.15-2.14,3.83-4.86,7.57-6.4-1.27,3.83-4.16,5.47-5.86,8a1.22,1.22,0,0,1-1.78.19A1.12,1.12,0,0,1,110.4,139Z" transform="translate(-0.25 -0.25)" style="fill:#ffd34e"/><path d="M103.83,370.51a13.85,13.85,0,0,1,6.8,7.91A12.45,12.45,0,0,1,103.83,370.51Z" transform="translate(-0.25 -0.25)" style="fill:#ffd34e"/><path d="M94.52,417.46c1.52,4.61,2,9.64,8.75,8.69-5.09.87-8.54,2.56-7.76,8.43-2-6.21-2-6.21-9.52-8.34C91.1,425.7,96.38,425.3,94.52,417.46Z" transform="translate(-0.25 -0.25)" style="fill:#ffd34e"/><path d="M103.2,149.09c-.44,4-2.82,6.55-6,8.48C97.9,153.73,100.36,151.27,103.2,149.09Z" transform="translate(-0.25 -0.25)" style="fill:#ffd34e"/><path d="M91.11,352.3a13.61,13.61,0,0,1,6.17,9.34C94,359.27,91.58,355.67,91.11,352.3Z" transform="translate(-0.25 -0.25)" style="fill:#ffd34e"/><path d="M91.32,166.43c-.14,4.14-2.68,7-5.3,9.94A14.87,14.87,0,0,1,91.32,166.43Z" transform="translate(-0.25 -0.25)" style="fill:#ffd34e"/><path d="M81.35,333.21a15,15,0,0,1,4.8,10.38A14.81,14.81,0,0,1,81.35,333.21Z" transform="translate(-0.25 -0.25)" style="fill:#ffd34e"/><path d="M81.47,184.9c.07,5.33-2.22,8.36-4.23,11.49C76.79,192.28,78.56,189.07,81.47,184.9Z" transform="translate(-0.25 -0.25)" style="fill:#ffd34e"/><path d="M73.51,313.1c2.91,2.85,3.78,6.47,4.43,11.4C74.2,320.79,73.55,317.08,73.51,313.1Z" transform="translate(-0.25 -0.25)" style="fill:#ffd34e"/><path d="M73.55,205.22c.69,5.14-.94,8.41-2.81,11.61C70,212.94,71.09,209.56,73.55,205.22Z" transform="translate(-0.25 -0.25)" style="fill:#ffd34e"/><path d="M68.42,292.29c2.39,3.16,2.65,6.78,2.67,10.47C68.07,299.82,68.07,296.08,68.42,292.29Z" transform="translate(-0.25 -0.25)" style="fill:#ffd34e"/><path d="M67.76,279.74c.08.8.2,1.78-.88,1.95s-1.39-.81-1.43-1.57c-.16-2.85-.65-5.73,1.39-8.51C67.15,274.32,67.48,277,67.76,279.74Z" transform="translate(-0.25 -0.25)" style="fill:#ffd34e"/><path d="M67.19,251.68c0,4.95,0,4.95-1.84,8.09-2-3.49-.64-7.08-1.09-10.44A5.38,5.38,0,0,1,67.19,251.68Z" transform="translate(-0.25 -0.25)" style="fill:#ffd34e"/><path d="M62.13,218.34h0c-1.08,1.16-2.17,2.31-3.29,3.45Q60.52,220.08,62.13,218.34Z" transform="translate(-0.25 -0.25)" style="fill:#f1eeed"/><path d="M58.28,217.8c-2.31,4.71-6.61,7.23-10.84,9.84a14.17,14.17,0,0,0-11.18-5.3c-3.42-.1-6.32-2-8.74-4.37-2.07-2-3.71-4.2-.11-6.39.41-.25,1.07-.73,1-1-.8-3.88.35-5.36,4.5-6.76,2.35-.79,3.45-4.18,6.29-.69,1,1.19,1.69,0,2.37-.67a19.49,19.49,0,0,1,2.51-2.39c1.56-1,3.35-2,4.93-.16a2.3,2.3,0,0,1,.7,1.53c0,1-.92,1.84-1.77,2.65-2.73,2.57-2.8,5.34.12,7.62a4.52,4.52,0,0,0,6.36-.5c1.89-2.07,2.18-4.45-.2-6.58-1.1-1-2.56-2-2.56-3.28a2.66,2.66,0,0,1,1-1.91c2.13-2,4.13,0,5.67,1.35,3.63,3.23,3.34,7.29,2,11.49C59.74,214.16,58,215.61,58.28,217.8Z" transform="translate(-0.25 -0.25)" style="fill:#f4dabc"/><path d="M58.85,221.79a133.21,133.21,0,0,1-10.5,9.65c-1-1.1-1.69-2.28-.91-3.8,4.23-2.61,8.53-5.13,10.84-9.84,1.29.17,2.68-.49,3.85.54Q60.51,220.08,58.85,221.79Z" transform="translate(-0.25 -0.25)" style="fill:#f1eeed"/><path d="M46.12,116.45c-3.27,1.26-5.43,1.22-7.63-.12C40.6,115.34,42.76,115.05,46.12,116.45Z" transform="translate(-0.25 -0.25)" style="fill:#ffd34e"/><path d="M41.35,104.35c-.87,2.63-2.53,4.45-5.71,6A8.37,8.37,0,0,1,41.35,104.35Z" transform="translate(-0.25 -0.25)" style="fill:#ffd34e"/><path d="M28.21,125.65c1.4,2.11,1.08,4.31.66,7.58C26.57,130.09,27.46,127.87,28.21,125.65Z" transform="translate(-0.25 -0.25)" style="fill:#ffd34e"/><path d="M17.55,103.6c3.3,1.45,5.11,3.11,6.37,6.55C20.65,108.68,18.83,107,17.55,103.6Z" transform="translate(-0.25 -0.25)" style="fill:#ffd34e"/><path d="M13.42,115.61c1.9-1.58,3.79-1.2,6.77-.6C17.28,117,15.33,116.26,13.42,115.61Z" transform="translate(-0.25 -0.25)" style="fill:#ffd34e"/><path d="M6.19,371c2.51,0,3.88,1.56,4,4.18-.32,2.39-1.51,4.12-4.12,4s-3.75-1.93-3.67-4.42A3.58,3.58,0,0,1,6.19,371Z" transform="translate(-0.25 -0.25)" style="fill:#ffd34e"/><path d="M10.15,375.18c-.08-2.62-1.45-4.18-4-4.18a3.58,3.58,0,0,0-3.83,3.72C2.28,377.21,3.47,379,6,379.14S9.83,377.57,10.15,375.18Zm2.1.09c-.18,3.28-1.81,5.93-5.6,6s-6.28-1.93-6.4-6.06c-.1-3.8,1.89-6.3,5.53-6.25C9.24,369,12.22,370.64,12.25,375.27Z" transform="translate(-0.25 -0.25)" style="fill:#ffd34e"/></g></g></svg>