<svg xmlns="http://www.w3.org/2000/svg" viewBox="0 0 72.11 100.87"><title>taredificilwe</title><g id="Layer_2" data-name="Layer 2"><g id="Layer_1-2" data-name="Layer 1"><path d="M5.63,99.23c3.12-10.23,0-20.3-.89-30.41C4,60.11,4.64,51.58,7.83,43.39c.76-2,.65-3.27-1.1-4.48a13.69,13.69,0,0,1-2.14-2.1C-2,29.6-1.5,22.59,6.16,16.61c2.74-2.15,5.59-4.2,9.14-4.88.6,1.35,1.21,2.71,1.81,4.07l-1.86,1.09c-1.41.75-2.9,1.39-4.23,2.27-3,1.95-5.85,4.2-5.24,8.24a10.17,10.17,0,0,0,6.74,8.13l-.06-.06c3.26,2.39,7.6,2.47,10.75,5.09-1.77,3.06-.51,5.87-.2,9,.44,4.46,2.7,6.54,5.15,9.14l1.47.73c1,.09,2,.13,2.94.27,2.89.44,5.8,1.06,6.39-3.18a1.4,1.4,0,0,1,1.63-1.2c4.17.67,3.66-2.51,4.1-4.91l.27-.61c1.51-.59,2.72.79,4.16.63a21.13,21.13,0,0,0,2.24.11c7.06-.32,10.08-4.44,8.25-11.29a25.9,25.9,0,0,0-3.1-6.79c.79-1.59,2.58-1.54,3.85-2.34,4.56,5.44,6.07,11.78,4,18.4-2,6.37-8,7.64-13.72,7.71-4.1,0-5.65,1.72-6.76,5.23C42.22,66.58,42.06,71.8,41.92,77c-.15,5.5-.11,11-2.06,16.25-.63,1.69-1,3.27,2,2.42,2.84-.8,4.34,1.15,5.33,3.53-2.26,2.62-5.25,1.31-8,1.46-2,.11-2.9-1-2.81-2.94.78-5.44,1.44-10.86.2-16.34C36.27,79.82,35.79,79,34,79Q24.32,79.1,14.6,79c-1.73,0-2.62.67-2.7,2.32-.21,4.41-1.57,8.55-2.83,12.72-.44,1.47-.39,2.65,1.65,2,2.29-.75,3.8.49,5.3,1.87.39,1.63-.18,2.72-1.9,2.8C11.2,100.77,8.25,100.94,5.63,99.23Z" style="fill:#434444"/><circle cx="28.75" cy="62.65" r="0.77" style="fill:#807f7f"/><circle cx="28.75" cy="66.65" r="0.77" style="fill:#807f7f"/><path d="M15.25,16.89l1.86-1.09c1.4-.61,3.46-.41,3.59-2.62.08-1.49-1-2.19-2.32-2.48C21.5,2.56,25.8,0,33.78,1.64a5.16,5.16,0,0,0,2.91-.23C46.45-2,54.07.71,59.84,9.47c1.36,2.07,2.44,4.37,5,5.34,2.3.86,4.64.06,7.25.17-2.64,6.69-7.6,9.94-14,11.42-8.19-.33-15.15-3.75-21.56-8.58-4-3-4-2.94-7.3,1-1,1.15-1.7,3-3.38.48-.76-1.14-2.06-.48-2.91.37s-1.35,2.06-.15,2.88,1.27,1.55.36,2.66C20,29,17.06,33.12,12.46,35.47l.06.06a9.59,9.59,0,0,1,.05-4.79C13.38,26.11,14.35,21.5,15.25,16.89Z" style="fill:#50433b"/><path d="M12.46,35.47C17.06,33.12,20,29,23.16,25.19c.91-1.11.93-1.78-.36-2.66s-.74-2,.15-2.88,2.15-1.51,2.91-.37c1.68,2.54,2.42.67,3.38-.48,3.32-3.92,3.34-4,7.3-1C43,22.65,49.91,26.07,58.1,26.4c.92,1.14,2.21,2.07,2.26,3.74-1.27.8-3.06.75-3.85,2.34-1.15,6.53-4.17,12.29-7.39,18-1.44.16-2.65-1.22-4.16-.63a80.31,80.31,0,0,0-21.24-9.09,1.19,1.19,0,0,0-.51-.17C20.06,37.94,15.72,37.86,12.46,35.47Zm24.63-.76c-2.21-.05-4.1.82-4.67,2.92s1.72,2.43,3,3.14a47.79,47.79,0,0,0,5.77,2.53C43,44,43.69,43,43.94,41.4,44.47,38,41.14,34.77,37.09,34.71ZM32.26,22.84c.37,1.73,2.64,2.14,2.32,4-1.5.56-3-.06-4.48,1,2.78.48,6.6,1.73,7.42.07,1-2.1-2.87-3.25-4.37-5.06C33.06,22.69,32.7,22.81,32.26,22.84Zm21.36,9.45c-2.36-1.08-5.34-2.39-7-.65-1,1.1,2.21,2.68,3.34,4.2.36.49.82,1.36,1.76.75-.2-1.6-2.32-2.16-2.2-4Z" style="fill:#f8d8b9"/><path d="M18.38,10.7c1.35.29,2.4,1,2.32,2.48-.13,2.21-2.19,2-3.59,2.62-.6-1.36-1.21-2.72-1.81-4.07Z" style="fill:#f8d8b9"/><path d="M23.72,40.73A80.31,80.31,0,0,1,45,49.82l-.27.61c-4.1,1.3-7.24,4.38-11.17,6,.37-2.49-.11-5.24,2.52-7a1.46,1.46,0,0,0,.17-2A3.56,3.56,0,0,0,33.35,46c-.94,0-1.93.67-1.86,1.49.26,3.35-2.33,5-4,7.15A96.29,96.29,0,0,1,23.72,40.73Z" style="fill:#f1efee"/><path d="M27.47,54.6c1.69-2.18,4.28-3.8,4-7.15-.07-.82.92-1.51,1.86-1.49a3.56,3.56,0,0,1,2.86,1.5,1.46,1.46,0,0,1-.17,2c-2.63,1.71-2.15,4.46-2.52,7l-3.89,3-1.47-.73Z" style="fill:#b25d39"/><path d="M29.63,59.45l3.89-3c3.93-1.64,7.07-4.72,11.17-6-.44,2.4.07,5.58-4.1,4.91A1.4,1.4,0,0,0,39,56.54c-.59,4.24-3.5,3.62-6.39,3.18C31.6,59.58,30.61,59.54,29.63,59.45Z" style="fill:#807f7f"/><path d="M27.47,54.6l.69,4.12C25.71,56.12,23.45,54,23,49.58c-.31-3.15-1.57-6,.2-9a1.19,1.19,0,0,1,.51.17A96.29,96.29,0,0,0,27.47,54.6Z" style="fill:#807f7f"/><path d="M37.09,34.71c4,.06,7.38,3.32,6.85,6.69C43.69,43,43,44,41.18,43.3a47.79,47.79,0,0,1-5.77-2.53c-1.27-.71-3.57-1-3-3.14S34.88,34.66,37.09,34.71Z" style="fill:#ea7f86"/><path d="M32.26,22.84c.44,0,.8-.15.89,0,1.5,1.81,5.41,3,4.37,5.06-.82,1.66-4.64.41-7.42-.07,1.51-1.05,3-.43,4.48-1C34.9,25,32.63,24.57,32.26,22.84Z" style="fill:#50433b"/><path d="M53.62,32.29l-4.08.34c-.12,1.8,2,2.36,2.2,4-.94.61-1.4-.26-1.76-.75-1.13-1.52-4.38-3.1-3.34-4.2C48.28,29.9,51.26,31.21,53.62,32.29Z" style="fill:#50433b"/></g></g></svg>